<?xml version="1.0" encoding="UTF-8" standalone="no"?>
<!-- Created with Inkscape (http://www.inkscape.org/) -->

<svg
   xmlns:dc="http://purl.org/dc/elements/1.1/"
   xmlns:cc="http://creativecommons.org/ns#"
   xmlns:rdf="http://www.w3.org/1999/02/22-rdf-syntax-ns#"
   xmlns:svg="http://www.w3.org/2000/svg"
   xmlns="http://www.w3.org/2000/svg"
   xmlns:sodipodi="http://sodipodi.sourceforge.net/DTD/sodipodi-0.dtd"
   xmlns:inkscape="http://www.inkscape.org/namespaces/inkscape"
   width="600.03107"
   height="173.02127"
   id="svg2"
   version="1.1"
   inkscape:version="0.91 r13725"
   sodipodi:docname="f_2018_banner_1_curves.svg"
   inkscape:export-filename="/home/jedi/Dropbox/falanster/design/logo/logo_2018/banners/f_2018_banner_1.png"
   inkscape:export-xdpi="300"
   inkscape:export-ydpi="300">
  <defs
     id="defs4" />
  <sodipodi:namedview
     id="base"
     pagecolor="#ffffff"
     bordercolor="#666666"
     borderopacity="1.0"
     inkscape:pageopacity="0.0"
     inkscape:pageshadow="2"
     inkscape:zoom="1.4142136"
     inkscape:cx="280.25863"
     inkscape:cy="105.7673"
     inkscape:document-units="px"
     inkscape:current-layer="layer1"
     showgrid="false"
     showguides="true"
     inkscape:guide-bbox="true"
     fit-margin-top="0"
     fit-margin-left="0"
     fit-margin-right="0"
     fit-margin-bottom="0"
     inkscape:window-width="1855"
     inkscape:window-height="1056"
     inkscape:window-x="65"
     inkscape:window-y="24"
     inkscape:window-maximized="1">
    <sodipodi:guide
       orientation="1,0"
       position="2461.6995,680.1459"
       id="guide2997" />
  </sodipodi:namedview>
  <metadata
     id="metadata7">
    <rdf:RDF>
      <cc:Work
         rdf:about="">
        <dc:format>image/svg+xml</dc:format>
        <dc:type
           rdf:resource="http://purl.org/dc/dcmitype/StillImage" />
        <dc:title></dc:title>
      </cc:Work>
    </rdf:RDF>
  </metadata>
  <g
     inkscape:label="Layer 1"
     inkscape:groupmode="layer"
     id="layer1"
     transform="translate(701.69952,-496.6297)">
    <path
       style="opacity:1;fill:#ffffff;fill-opacity:1;fill-rule:nonzero;stroke:none;stroke-width:2;stroke-linecap:round;stroke-linejoin:round;stroke-miterlimit:4;stroke-dasharray:none;stroke-opacity:1"
       d="m -701.69952,496.6297 600.03106,0 0,173.02127 -600.03106,0 z"
       id="rect4138" />
    <g
       style="font-style:normal;font-variant:normal;font-weight:600;font-stretch:normal;font-size:120.26197815px;line-height:125%;font-family:a_AlternaBrk;-inkscape-font-specification:'a_AlternaBrk Semi-Bold';letter-spacing:0px;word-spacing:0px;fill:#ff6600;fill-opacity:1;stroke:none"
       id="text2989">
      <path
         d="m -629.3352,549.40365 -1.32288,1.08235 0,27.05895 7.33598,0 7.69676,-15.27327 -11.42488,-12.62751 -2.28498,-0.24052 z m -17.31773,-26.69816 -2.40523,-0.12027 19.96348,1.80393 0,9.86149 5.89284,-1.80393 20.32427,7.93729 4.08891,22.97003 -6.49414,24.89423 -16.83668,4.93075 -9.98175,0.6013 3.00655,12.86804 -20.92558,0 0,-12.86804 -7.69677,-0.48104 -16.1151,-7.93729 -7.93729,-22.24847 6.61441,-20.92558 19.48244,-9.01965 5.77257,0 3.24707,-10.46279 z m 0,26.93868 0,0.36078 -8.05755,-0.96209 -10.70331,15.63406 10.102,15.03274 8.05755,-3.24707 -1.08235,-11.42489 1.68366,-15.39353 z"
         style=""
         id="path4198" />
      <path
         d="m -572.71154,577.54495 -0.12026,-1.20262 13.10855,0 1.44315,-21.76742 -7.93729,-20.20401 -4.32944,20.92558 -2.16471,22.24847 z m 0.24052,29.70471 0.24053,-1.80393 -17.19747,1.08235 -2.16471,-16.83667 3.60786,-20.92559 1.80393,-19.96348 5.65231,-13.34908 6.61441,-14.07066 17.79877,0 7.69677,15.5138 3.96864,12.0262 1.80393,21.28637 1.32289,19.96349 0,15.75431 -15.27328,2.76603 0,-16.47589 -14.19091,-2.88629 -1.68367,17.91904 z"
         style=""
         id="path4200" />
      <path
         d="m -497.1842,607.85097 0,-0.84184 0,-15.39353 1.32289,-12.74777 -2.16472,-14.31118 2.5255,-12.74777 -1.32288,-15.39353 -7.93729,12.62751 -5.53205,15.63406 0,44.13614 -19.36218,-3.12681 -1.32288,-9.62096 0,-28.98313 6.25362,-20.68506 10.10201,-11.66542 11.90593,-10.70331 25.49554,-2.88629 -1.68367,15.75432 0,13.46934 -1.68366,14.43144 3.12681,13.22882 -2.40524,13.70986 1.20262,15.15301 -18.52035,0.9621 z"
         style=""
         id="path4202" />
      <path
         d="m -449.51348,577.54495 -0.12026,-1.20262 13.10855,0 1.44315,-21.76742 -7.9373,-20.20401 -4.32943,20.92558 -2.16471,22.24847 z m 0.24052,29.70471 0.24053,-1.80393 -17.19747,1.08235 -2.16471,-16.83667 3.60786,-20.92559 1.80393,-19.96348 5.65231,-13.34908 6.61441,-14.07066 17.79877,0 7.69677,15.5138 3.96864,12.0262 1.80393,21.28637 1.32288,19.96349 0,15.75431 -15.27327,2.76603 0,-16.47589 -14.19091,-2.88629 -1.68367,17.91904 z"
         style=""
         id="path4204" />
      <path
         d="m -405.49194,607.85097 0.36078,-2.28498 0.72157,-11.54515 -1.44314,-16.23537 -0.9621,-13.83013 2.16472,-13.83012 -0.84183,-13.46934 0,-15.63406 19.36217,1.08236 -2.16471,15.03274 2.5255,16.35563 12.74777,-1.5634 0,-30.54655 18.88113,0 0,17.07721 -1.20262,10.94384 -1.32288,17.0772 0,25.37527 3.00655,16.83668 -18.40009,0 0,-15.99484 -1.08235,-11.18437 0,-13.46934 -15.75432,0 3.12681,12.38699 -2.40524,12.50724 1.20262,13.95039 -18.52034,0.9621 z"
         style=""
         id="path4206" />
      <path
         d="m -291.69406,556.73963 0,-0.84184 -18.0393,-1.5634 0.84183,-9.38044 -9.26017,-8.29807 -4.69022,8.41833 -1.32288,11.78568 0,26.69816 8.05755,7.81703 7.33599,-5.53206 -1.44315,-17.55824 17.19746,3.00655 0,8.05755 -5.051,21.52689 -17.55825,8.89939 -19.96349,-6.37389 -5.29152,-25.13475 -1.68367,-13.22882 0,-15.51379 4.08891,-21.76742 22.84977,-6.9752 17.43799,5.77258 6.97519,23.21056 -0.48104,6.9752 z"
         style=""
         id="path4208" />
      <path
         d="m -275.39951,538.82059 -0.12026,-2.16471 -12.14646,1.80393 -0.9621,-17.07721 15.87458,0 14.67196,3.00655 13.10856,-3.12681 -1.32288,18.40008 -12.50725,-2.04445 0,13.10856 2.76603,16.59615 0,24.41318 -1.44315,15.5138 -18.52034,0 -1.32288,-14.07065 3.12681,-14.67197 -2.40524,-14.07065 1.20262,-12.74777 0,-12.86803 z"
         style=""
         id="path4210" />
      <path
         d="m -235.90941,575.74102 0.24052,1.68367 17.91904,-0.9621 -1.20262,6.85493 8.17781,8.5386 5.05101,-7.5765 0,-13.46934 -14.43144,-2.5255 0,-13.10856 17.67851,-1.56341 -3.24707,-8.5386 -7.33598,-6.49414 -6.0131,6.0131 1.44314,2.5255 -19.48244,0 5.65231,-18.76087 19.72297,-7.09546 18.27982,5.65232 9.13991,21.52689 -1.68367,16.71641 0,12.86804 -6.49415,23.81187 -19.00139,5.17126 -20.32427,-6.13336 -6.49415,-20.80532 2.40524,-4.32943 z"
         style=""
         id="path4212" />
      <path
         d="m -155.49926,569.24687 -0.24052,-0.60131 6.85493,0 6.9752,-15.39353 -7.69677,-15.63406 -7.09546,-0.36078 1.20262,15.99484 0,15.99484 z m -16.23536,36.31912 -1.44315,-0.12026 0.84184,-12.9883 -2.16472,-14.43143 2.5255,-12.9883 -1.32288,-15.63405 0,-28.02105 24.41318,0 15.99485,5.89284 7.5765,6.61441 1.56341,20.80532 -5.65232,21.04585 -17.55825,7.33598 -7.33598,2.04445 0,23.33083 -17.43798,-2.88629 z"
         style=""
         id="path4214" />
    </g>
    <g
       style="font-style:normal;font-variant:normal;font-weight:normal;font-stretch:normal;font-size:36.10564804px;line-height:125%;font-family:'Ubuntu Mono';-inkscape-font-specification:'Ubuntu Mono';letter-spacing:0px;word-spacing:0px;fill:#333333;fill-opacity:1;stroke:none"
       id="text2993">
      <path
         d="m -334.66285,646.00977 0,-14.26174 -3.53835,0 0,-2.49129 3.53835,0 0,-1.51643 q 0,-1.94971 0.54158,-3.2134 0.54159,-1.29981 1.40812,-2.09413 0.90264,-0.79433 2.05803,-1.11928 1.19148,-0.32495 2.49129,-0.32495 1.2998,0 2.5996,0.28885 1.33591,0.28884 2.49129,0.686 l -0.54158,2.56351 q -0.79433,-0.39717 -1.98581,-0.68601 -1.19149,-0.28885 -2.41908,-0.28885 -0.75822,0 -1.44423,0.21664 -0.6499,0.18052 -1.15538,0.686 -0.50548,0.46938 -0.79432,1.29981 -0.28885,0.79432 -0.28885,2.02191 l 0,1.48033 6.75176,0 0,2.49129 -6.75176,0 0,14.26174 -2.96066,0 z"
         style=""
         id="path4173" />
      <path
         d="m -313.2161,643.87953 q 1.11928,0 1.98581,-0.0722 0.90265,-0.0722 1.48034,-0.18053 l 0,-4.98258 q -0.57769,-0.18052 -1.40812,-0.28884 -0.79433,-0.10832 -1.69697,-0.10832 -0.83043,0 -1.62475,0.14442 -0.79433,0.10832 -1.40812,0.43327 -0.6138,0.32495 -1.01096,0.86654 -0.39716,0.50548 -0.39716,1.2998 0,1.62475 1.08316,2.27466 1.11928,0.61379 2.99677,0.61379 z m -0.28884,-15.01995 q 1.87749,0 3.14119,0.46938 1.2998,0.46937 2.09413,1.2998 0.79432,0.83043 1.11927,2.02192 0.32495,1.19148 0.32495,2.5996 l 0,10.47064 q -1.04706,0.18053 -2.78013,0.43327 -1.69697,0.25274 -3.50225,0.25274 -1.37201,0 -2.67182,-0.25274 -1.2998,-0.21664 -2.31076,-0.79433 -1.01096,-0.61379 -1.62475,-1.66086 -0.6138,-1.04706 -0.6138,-2.67181 0,-1.44423 0.6138,-2.41908 0.6499,-1.01096 1.62475,-1.62476 1.01096,-0.61379 2.27466,-0.86653 1.2998,-0.28885 2.5996,-0.28885 1.76918,0 3.46615,0.39717 l 0,-0.83043 q 0,-0.75822 -0.18053,-1.44423 -0.14442,-0.72211 -0.6138,-1.2998 -0.43327,-0.57769 -1.22759,-0.90265 -0.75822,-0.36105 -1.98581,-0.36105 -1.55254,0 -2.70792,0.21663 -1.15539,0.21664 -1.76918,0.43327 l -0.36106,-2.45518 q 0.6138,-0.28885 2.02192,-0.50548 1.44422,-0.21664 3.06898,-0.21664 z"
         style=""
         id="path4175" />
      <path
         d="m -292.1665,646.40693 q -1.58865,0 -2.63572,-0.43327 -1.04706,-0.43327 -1.66086,-1.2998 -0.61379,-0.86654 -0.86653,-2.13024 -0.25274,-1.2998 -0.25274,-2.99677 l 0,-15.85037 -4.83816,0 0,-2.5274 7.79882,0 0,18.37777 q 0,1.2637 0.14443,2.05803 0.18052,0.79432 0.50547,1.2998 0.36106,0.46937 0.86654,0.6499 0.50548,0.18053 1.19149,0.18053 1.04706,0 1.9497,-0.25274 0.90264,-0.25274 1.40812,-0.54158 l 0.43327,2.52739 q -0.21663,0.10832 -0.6138,0.28885 -0.39716,0.14442 -0.93874,0.28884 -0.54159,0.14442 -1.19149,0.25274 -0.6138,0.10832 -1.2998,0.10832 z"
         style=""
         id="path4177" />
      <path
         d="m -277.11045,643.87953 q 1.11927,0 1.98581,-0.0722 0.90264,-0.0722 1.48033,-0.18053 l 0,-4.98258 q -0.57769,-0.18052 -1.40812,-0.28884 -0.79432,-0.10832 -1.69696,-0.10832 -0.83043,0 -1.62476,0.14442 -0.79432,0.10832 -1.40812,0.43327 -0.61379,0.32495 -1.01096,0.86654 -0.39716,0.50548 -0.39716,1.2998 0,1.62475 1.08317,2.27466 1.11928,0.61379 2.99677,0.61379 z m -0.28885,-15.01995 q 1.8775,0 3.1412,0.46938 1.2998,0.46937 2.09412,1.2998 0.79433,0.83043 1.11928,2.02192 0.32495,1.19148 0.32495,2.5996 l 0,10.47064 q -1.04706,0.18053 -2.78014,0.43327 -1.69696,0.25274 -3.50224,0.25274 -1.37202,0 -2.67182,-0.25274 -1.2998,-0.21664 -2.31076,-0.79433 -1.01096,-0.61379 -1.62476,-1.66086 -0.61379,-1.04706 -0.61379,-2.67181 0,-1.44423 0.61379,-2.41908 0.6499,-1.01096 1.62476,-1.62476 1.01096,-0.61379 2.27465,-0.86653 1.29981,-0.28885 2.59961,-0.28885 1.76918,0 3.46614,0.39717 l 0,-0.83043 q 0,-0.75822 -0.18053,-1.44423 -0.14442,-0.72211 -0.61379,-1.2998 -0.43327,-0.57769 -1.22759,-0.90265 -0.75822,-0.36105 -1.98581,-0.36105 -1.55255,0 -2.70793,0.21663 -1.15538,0.21664 -1.76918,0.43327 l -0.36105,-2.45518 q 0.61379,-0.28885 2.02191,-0.50548 1.44423,-0.21664 3.06898,-0.21664 z"
         style=""
         id="path4179" />
      <path
         d="m -265.70106,629.72612 q 1.62475,-0.39716 3.2134,-0.6138 1.62475,-0.21663 3.03287,-0.21663 3.35783,0 5.05479,1.73307 1.73308,1.73307 1.73308,5.56027 l 0,9.82074 -2.96067,0 0,-9.27916 q 0,-1.62475 -0.28884,-2.63571 -0.28885,-1.01096 -0.83043,-1.55254 -0.50548,-0.57769 -1.2637,-0.79433 -0.72211,-0.21663 -1.58865,-0.21663 -0.72211,0 -1.55254,0.10832 -0.79433,0.0722 -1.55254,0.21663 l 0,14.15342 -2.99677,0 0,-16.28365 z"
         style=""
         id="path4181" />
      <path
         d="m -237.53866,641.82151 q 0,-0.90264 -0.75821,-1.48033 -0.72212,-0.57769 -1.84139,-1.01096 -1.08317,-0.43327 -2.38298,-0.83043 -1.2998,-0.43327 -2.41907,-1.04706 -1.08317,-0.6138 -1.84139,-1.51644 -0.72211,-0.90264 -0.72211,-2.34687 0,-2.02191 1.62475,-3.35782 1.66086,-1.37202 5.16311,-1.37202 1.37201,0 2.81624,0.21664 1.48033,0.18052 2.52739,0.50548 l -0.54158,2.67181 q -0.28885,-0.14442 -0.79433,-0.28884 -0.50548,-0.18053 -1.15538,-0.28885 -0.6499,-0.14442 -1.40812,-0.21663 -0.72211,-0.0722 -1.40812,-0.0722 -3.89941,0 -3.89941,2.13023 0,0.75822 0.72212,1.2998 0.75821,0.50548 1.87749,0.93875 1.11927,0.43327 2.41908,0.90264 1.2998,0.43327 2.41908,1.08317 1.11927,0.6499 1.84138,1.58865 0.75822,0.90264 0.75822,2.31076 0,2.27466 -1.76917,3.53836 -1.76918,1.22759 -5.59638,1.22759 -1.73307,0 -3.1773,-0.28885 -1.44422,-0.28884 -2.74403,-0.86653 l 0.57769,-2.70793 q 1.2637,0.57769 2.63572,0.97486 1.40812,0.36105 2.99677,0.36105 4.07993,0 4.07993,-2.05802 z"
         style=""
         id="path4183" />
      <path
         d="m -223.38525,629.25674 7.07671,0 0,2.49129 -7.07671,0 0,7.79882 q 0,1.2637 0.18053,2.05803 0.18053,0.79432 0.57769,1.2998 0.43327,0.46937 1.08317,0.6499 0.6499,0.18053 1.58865,0.18053 1.2998,0 2.09413,-0.21663 0.79432,-0.21664 1.51643,-0.57769 l 0.43327,2.52739 q -0.50548,0.21663 -1.62475,0.57769 -1.08317,0.36106 -2.70793,0.36106 -1.87749,0 -3.06898,-0.43327 -1.19148,-0.43327 -1.87749,-1.2998 -0.6499,-0.86654 -0.90264,-2.13024 -0.25274,-1.2998 -0.25274,-2.99677 l 0,-7.79882 -3.53835,0 0,-2.49129 3.53835,0 0,-4.69373 2.96066,-0.50548 0,5.19921 z"
         style=""
         id="path4185" />
      <path
         d="m -204.75473,628.85958 q 3.39393,0 5.23532,2.13024 1.84139,2.09412 1.84139,6.3907 l 0,1.04706 -11.98708,0 q 0.18053,2.59961 1.69697,3.97162 1.55254,1.33591 4.33267,1.33591 1.58865,0 2.70793,-0.25274 1.11927,-0.25274 1.69696,-0.54158 l 0.39716,2.52739 q -0.54158,0.28885 -1.9497,0.6138 -1.40812,0.32495 -3.1773,0.32495 -2.16634,0 -3.8272,-0.6499 -1.62475,-0.68601 -2.70792,-1.84139 -1.08317,-1.15538 -1.62475,-2.74403 -0.54159,-1.62476 -0.54159,-3.50225 0,-2.23855 0.68601,-3.89941 0.68601,-1.66086 1.80528,-2.74403 1.11928,-1.08317 2.5274,-1.62475 1.40812,-0.54159 2.88845,-0.54159 z m 4.04383,7.14892 q 0,-2.13023 -1.11927,-3.35782 -1.11928,-1.2637 -2.96067,-1.2637 -1.04706,0 -1.9136,0.39716 -0.83043,0.39716 -1.44422,1.04706 -0.6138,0.64991 -0.97485,1.48034 -0.36106,0.83043 -0.46938,1.69696 l 8.88199,0 z"
         style=""
         id="path4187" />
      <path
         d="m -192.18996,646.00977 0,-15.85038 q 3.68277,-1.2637 7.43776,-1.2637 1.15538,0 2.20244,0.10832 1.04707,0.0722 2.31077,0.36105 l -0.54159,2.63571 q -1.15538,-0.32495 -2.05802,-0.39716 -0.86654,-0.10831 -1.9136,-0.10831 -2.20245,0 -4.4771,0.61379 l 0,13.90068 -2.96066,0 z"
         style=""
         id="path4189" />
      <path
         d="m -166.30221,643.699 q 0,1.08317 -0.72212,1.9136 -0.72211,0.83043 -1.91359,0.83043 -1.2276,0 -1.94971,-0.83043 -0.72211,-0.83043 -0.72211,-1.9136 0,-1.11927 0.72211,-1.9497 0.72211,-0.83043 1.94971,-0.83043 1.19148,0 1.91359,0.83043 0.72212,0.83043 0.72212,1.9497 z"
         style=""
         id="path4191" />
      <path
         d="m -154.38735,629.87054 q 0.54159,-0.32495 1.55255,-0.6499 1.04706,-0.36106 2.31076,-0.36106 1.69696,0 3.03287,0.6499 1.33591,0.64991 2.23855,1.80529 0.93875,1.15538 1.40812,2.78013 0.50548,1.58865 0.50548,3.53836 0,2.02191 -0.57769,3.64667 -0.57769,1.62475 -1.62475,2.78013 -1.04707,1.11928 -2.5274,1.73307 -1.48033,0.6138 -3.28561,0.6138 -1.98581,0 -3.53836,-0.28885 -1.55254,-0.28884 -2.49129,-0.57769 l 0,-24.04636 2.99677,-0.50548 0,8.88199 z m 0,13.53962 q 0.68601,0.18053 1.37202,0.28884 0.68601,0.0722 1.2998,0.0722 2.49129,0 3.89941,-1.51644 1.40812,-1.55254 1.40812,-4.62152 0,-1.29981 -0.25274,-2.41908 -0.25274,-1.15538 -0.79432,-1.94971 -0.54159,-0.83043 -1.40812,-1.2998 -0.83043,-0.46937 -2.02192,-0.46937 -1.04706,0 -2.02192,0.43326 -0.97485,0.39717 -1.48033,0.86654 l 0,10.61506 z"
         style=""
         id="path4193" />
      <path
         d="m -140.0534,649.15096 q 0.32495,0.18053 0.90264,0.28884 0.61379,0.10832 1.11927,0.10832 1.76918,0 2.74403,-0.79433 1.01096,-0.75821 1.84139,-2.52739 -2.02192,-3.8272 -3.79109,-8.19598 -1.76918,-4.40489 -2.92456,-8.77368 l 3.24951,0 q 0.36106,1.44423 0.83043,3.1412 0.50548,1.66086 1.11927,3.43003 0.6138,1.76918 1.29981,3.57446 0.72211,1.76918 1.51643,3.39393 0.57769,-1.66086 1.08317,-3.28561 0.50548,-1.62476 0.93875,-3.24951 0.43327,-1.66086 0.86654,-3.35782 0.43326,-1.73308 0.90264,-3.64668 l 3.10508,0 q -1.15538,4.69374 -2.5996,9.09863 -1.40812,4.40489 -3.03288,8.15987 -0.61379,1.44423 -1.33591,2.49129 -0.686,1.04707 -1.51643,1.73308 -0.83043,0.686 -1.8775,1.01095 -1.04706,0.32495 -2.38297,0.32495 -0.68601,0 -1.51644,-0.18052 -0.79432,-0.18053 -1.08317,-0.32495 l 0.54159,-2.41908 z"
         style=""
         id="path4195" />
    </g>
  </g>
</svg>
