<?xml version="1.0" encoding="UTF-8" standalone="no"?>
<!-- Created with Inkscape (http://www.inkscape.org/) -->

<svg
   xmlns:dc="http://purl.org/dc/elements/1.1/"
   xmlns:cc="http://creativecommons.org/ns#"
   xmlns:rdf="http://www.w3.org/1999/02/22-rdf-syntax-ns#"
   xmlns:svg="http://www.w3.org/2000/svg"
   xmlns="http://www.w3.org/2000/svg"
   xmlns:sodipodi="http://sodipodi.sourceforge.net/DTD/sodipodi-0.dtd"
   xmlns:inkscape="http://www.inkscape.org/namespaces/inkscape"
   width="599.94543"
   height="599.94543"
   id="svg3537"
   version="1.1"
   inkscape:version="0.91 r13725"
   sodipodi:docname="f_2018_banner_4_curves.svg"
   inkscape:export-filename="/home/jedi/Dropbox/falanster/design/logo/logo_2018/banners/f_2018_banner_4.png"
   inkscape:export-xdpi="300.04413"
   inkscape:export-ydpi="300.04413">
  <defs
     id="defs3539" />
  <sodipodi:namedview
     id="base"
     pagecolor="#ffffff"
     bordercolor="#666666"
     borderopacity="1.0"
     inkscape:pageopacity="0.0"
     inkscape:pageshadow="2"
     inkscape:zoom="0.98994949"
     inkscape:cx="155.39313"
     inkscape:cy="346.13885"
     inkscape:document-units="px"
     inkscape:current-layer="layer1"
     showgrid="false"
     inkscape:window-width="1855"
     inkscape:window-height="1056"
     inkscape:window-x="65"
     inkscape:window-y="24"
     inkscape:window-maximized="1"
     fit-margin-top="0"
     fit-margin-left="0"
     fit-margin-right="0"
     fit-margin-bottom="0"
     showguides="true"
     inkscape:guide-bbox="true">
    <sodipodi:guide
       position="120.20815,368.70571"
       orientation="1,0"
       id="guide4153" />
    <sodipodi:guide
       position="547.50268,271.73106"
       orientation="1,0"
       id="guide4155" />
  </sodipodi:namedview>
  <metadata
     id="metadata3542">
    <rdf:RDF>
      <cc:Work
         rdf:about="">
        <dc:format>image/svg+xml</dc:format>
        <dc:type
           rdf:resource="http://purl.org/dc/dcmitype/StillImage" />
        <dc:title></dc:title>
      </cc:Work>
    </rdf:RDF>
  </metadata>
  <g
     inkscape:label="Layer 1"
     inkscape:groupmode="layer"
     id="layer1"
     transform="translate(-37.14291,-280.98819)">
    <path
       style="fill:#ffffff;stroke:none"
       d="m 37.14291,280.98819 599.94543,0 0,599.94543 -599.94543,0 z"
       id="rect3133" />
    <g
       style="font-style:normal;font-weight:normal;font-size:664.24493408px;line-height:125%;font-family:Sans;letter-spacing:0px;word-spacing:0px;fill:#ff6600;fill-opacity:1;stroke:none"
       id="text3129-7">
      <path
         d="m 388.3327,461.54402 -7.3067,5.97821 0,149.45511 40.51894,0 42.51168,-84.35911 -63.10327,-69.74572 -12.62065,-1.32849 z m -95.65127,-147.46237 -13.2849,-0.66425 110.26466,9.96368 0,54.46808 32.548,-9.96367 112.25739,43.84016 22.58433,126.87079 -35.86923,137.4987 -92.99429,27.23404 -55.13233,3.32122 16.60613,71.07421 -115.57862,0 0,-71.07421 -42.51168,-2.65698 -89.00882,-43.84016 -43.840163,-122.88531 36.533473,-115.57862 107.60768,-49.81837 31.88375,0 17.93462,-57.78931 z m 0,148.79086 0,1.99274 -44.50441,-5.31396 -59.1178,86.35184 55.79657,83.03062 44.50441,-17.93462 -5.9782,-63.10327 9.29943,-85.02335 z"
         style="font-style:normal;font-variant:normal;font-weight:600;font-stretch:normal;font-family:a_AlternaBrk;-inkscape-font-specification:'a_AlternaBrk Semi-Bold';fill:#ff6600"
         id="path4166" />
    </g>
    <g
       style="font-style:normal;font-weight:normal;font-size:65.11477661px;line-height:125%;font-family:sans-serif;letter-spacing:0px;word-spacing:0px;fill:#333333;fill-opacity:1;stroke:none;stroke-width:1px;stroke-linecap:butt;stroke-linejoin:miter;stroke-opacity:1"
       id="text4149">
      <path
         d="m 149.78975,844.85864 0,-25.72033 -6.38124,0 0,-4.49292 6.38124,0 0,-2.73482 q 0,-3.5162 0.97673,-5.79522 0.97672,-2.34413 2.53947,-3.77666 1.62787,-1.43252 3.71154,-2.01855 2.14879,-0.58604 4.49292,-0.58604 2.34414,0 4.68827,0.52092 2.40924,0.52092 4.49292,1.23718 l -0.97672,4.62315 q -1.43253,-0.71626 -3.58132,-1.23718 -2.14879,-0.52092 -4.36269,-0.52092 -1.36741,0 -2.60459,0.39069 -1.17206,0.32557 -2.08367,1.23718 -0.91161,0.84649 -1.43253,2.34413 -0.52091,1.43253 -0.52091,3.64643 l 0,2.66971 12.17646,0 0,4.49292 -12.17646,0 0,25.72033 -5.33942,0 z"
         style="font-style:normal;font-variant:normal;font-weight:normal;font-stretch:normal;font-family:'Ubuntu Mono';-inkscape-font-specification:'Ubuntu Mono'"
         id="path4141" />
      <path
         d="m 188.46793,841.01687 q 2.01856,0 3.58131,-0.13023 1.62787,-0.13023 2.66971,-0.32557 l 0,-8.98584 q -1.04184,-0.32558 -2.53948,-0.52092 -1.43252,-0.19534 -3.06039,-0.19534 -1.49764,0 -2.93017,0.26045 -1.43252,0.19535 -2.53947,0.78138 -1.10695,0.58604 -1.82322,1.56276 -0.71626,0.9116 -0.71626,2.34413 0,2.93016 1.95344,4.10223 2.01856,1.10695 5.40453,1.10695 z m -0.52092,-27.08775 q 3.38597,0 5.66499,0.8465 2.34413,0.84649 3.77666,2.34413 1.43252,1.49764 2.01855,3.64643 0.58604,2.14878 0.58604,4.68826 l 0,18.88328 q -1.88833,0.32558 -5.01384,0.78138 -3.0604,0.45581 -6.31613,0.45581 -2.47437,0 -4.8185,-0.45581 -2.34413,-0.39069 -4.16734,-1.43252 -1.82322,-1.10695 -2.93017,-2.99528 -1.10695,-1.88833 -1.10695,-4.8185 0,-2.60459 1.10695,-4.36269 1.17207,-1.82321 2.93017,-2.93016 1.82321,-1.10695 4.10223,-1.56276 2.34413,-0.52091 4.68826,-0.52091 3.19062,0 6.25102,0.71626 l 0,-1.49764 q 0,-1.36741 -0.32557,-2.60459 -0.26046,-1.3023 -1.10696,-2.34413 -0.78137,-1.04184 -2.2139,-1.62787 -1.36741,-0.65115 -3.58131,-0.65115 -2.79994,0 -4.88361,0.39069 -2.08367,0.39069 -3.19062,0.78137 l -0.65115,-4.4278 q 1.10695,-0.52092 3.64643,-0.91161 2.60459,-0.39069 5.53475,-0.39069 z"
         style="font-style:normal;font-variant:normal;font-weight:normal;font-stretch:normal;font-family:'Ubuntu Mono';-inkscape-font-specification:'Ubuntu Mono'"
         id="path4143" />
      <path
         d="m 226.42985,845.57491 q -2.86505,0 -4.75338,-0.78138 -1.88833,-0.78138 -2.99528,-2.34413 -1.10695,-1.56276 -1.56276,-3.84178 -0.4558,-2.34413 -0.4558,-5.40452 l 0,-28.58539 -8.72538,0 0,-4.55803 14.06479,0 0,33.14342 q 0,2.27901 0.26046,3.71154 0.32557,1.43252 0.91161,2.34413 0.65114,0.84649 1.56275,1.17207 0.91161,0.32557 2.14879,0.32557 1.88833,0 3.5162,-0.4558 1.62787,-0.45581 2.53947,-0.97672 l 0.78138,4.55803 q -0.39069,0.19535 -1.10695,0.52092 -0.71626,0.26046 -1.69298,0.52092 -0.97673,0.26046 -2.14879,0.4558 -1.10695,0.19535 -2.34413,0.19535 z"
         style="font-style:normal;font-variant:normal;font-weight:normal;font-stretch:normal;font-family:'Ubuntu Mono';-inkscape-font-specification:'Ubuntu Mono'"
         id="path4145" />
      <path
         d="m 253.58271,841.01687 q 2.01856,0 3.58131,-0.13023 1.62787,-0.13023 2.66971,-0.32557 l 0,-8.98584 q -1.04184,-0.32558 -2.53948,-0.52092 -1.43253,-0.19534 -3.06039,-0.19534 -1.49764,0 -2.93017,0.26045 -1.43252,0.19535 -2.53948,0.78138 -1.10695,0.58604 -1.82321,1.56276 -0.71626,0.9116 -0.71626,2.34413 0,2.93016 1.95344,4.10223 2.01856,1.10695 5.40453,1.10695 z m -0.52092,-27.08775 q 3.38597,0 5.66498,0.8465 2.34414,0.84649 3.77666,2.34413 1.43253,1.49764 2.01856,3.64643 0.58603,2.14878 0.58603,4.68826 l 0,18.88328 q -1.88833,0.32558 -5.01383,0.78138 -3.0604,0.45581 -6.31614,0.45581 -2.47436,0 -4.81849,-0.45581 -2.34413,-0.39069 -4.16735,-1.43252 -1.82321,-1.10695 -2.93016,-2.99528 -1.10695,-1.88833 -1.10695,-4.8185 0,-2.60459 1.10695,-4.36269 1.17206,-1.82321 2.93016,-2.93016 1.82322,-1.10695 4.10223,-1.56276 2.34414,-0.52091 4.68827,-0.52091 3.19062,0 6.25102,0.71626 l 0,-1.49764 q 0,-1.36741 -0.32558,-2.60459 -0.26046,-1.3023 -1.10695,-2.34413 -0.78138,-1.04184 -2.2139,-1.62787 -1.36741,-0.65115 -3.58131,-0.65115 -2.79994,0 -4.88361,0.39069 -2.08368,0.39069 -3.19063,0.78137 l -0.65114,-4.4278 q 1.10695,-0.52092 3.64642,-0.91161 2.60459,-0.39069 5.53476,-0.39069 z"
         style="font-style:normal;font-variant:normal;font-weight:normal;font-stretch:normal;font-family:'Ubuntu Mono';-inkscape-font-specification:'Ubuntu Mono'"
         id="path4147" />
      <path
         d="m 274.15898,815.49188 q 2.93016,-0.71626 5.79521,-1.10695 2.93017,-0.39069 5.46964,-0.39069 6.05568,0 9.11607,3.12551 3.12551,3.12551 3.12551,10.02767 l 0,17.71122 -5.33941,0 0,-16.7345 q 0,-2.93016 -0.52092,-4.75337 -0.52092,-1.82322 -1.49764,-2.79994 -0.91161,-1.04184 -2.27902,-1.43252 -1.30229,-0.39069 -2.86505,-0.39069 -1.30229,0 -2.79993,0.19534 -1.43253,0.13023 -2.79994,0.39069 l 0,25.52499 -5.40452,0 0,-29.36676 z"
         style="font-style:normal;font-variant:normal;font-weight:normal;font-stretch:normal;font-family:'Ubuntu Mono';-inkscape-font-specification:'Ubuntu Mono'"
         id="path4149" />
      <path
         d="m 324.9485,837.30533 q 0,-1.62787 -1.36741,-2.66971 -1.30229,-1.04183 -3.32085,-1.82321 -1.95344,-0.78138 -4.29758,-1.49764 -2.34413,-0.78138 -4.36269,-1.88833 -1.95344,-1.10695 -3.32085,-2.73482 -1.3023,-1.62787 -1.3023,-4.23246 0,-3.64643 2.93017,-6.05567 2.99528,-2.47437 9.31141,-2.47437 2.47436,0 5.07895,0.39069 2.66971,0.32558 4.55804,0.91161 l -0.97672,4.81849 q -0.52092,-0.26046 -1.43253,-0.52092 -0.9116,-0.32557 -2.08367,-0.52091 -1.17207,-0.26046 -2.53948,-0.39069 -1.30229,-0.13023 -2.53947,-0.13023 -7.0324,0 -7.0324,3.84177 0,1.36741 1.3023,2.34413 1.36741,0.91161 3.38597,1.69299 2.01855,0.78137 4.36269,1.62787 2.34413,0.78137 4.36269,1.95344 2.01855,1.17206 3.32085,2.86505 1.36741,1.62787 1.36741,4.16734 0,4.10224 -3.19063,6.38125 -3.19062,2.21391 -10.09279,2.21391 -3.1255,0 -5.7301,-0.52092 -2.60459,-0.52092 -4.94872,-1.56276 l 1.04184,-4.88361 q 2.27901,1.04184 4.75338,1.7581 2.53947,0.65115 5.40452,0.65115 7.35797,0 7.35797,-3.71154 z"
         style="font-style:normal;font-variant:normal;font-weight:normal;font-stretch:normal;font-family:'Ubuntu Mono';-inkscape-font-specification:'Ubuntu Mono'"
         id="path4151" />
      <path
         d="m 350.47349,814.64539 12.7625,0 0,4.49292 -12.7625,0 0,14.06479 q 0,2.27901 0.32558,3.71154 0.32557,1.43252 1.04184,2.34413 0.78137,0.84649 1.95344,1.17207 1.17206,0.32557 2.86505,0.32557 2.34413,0 3.77666,-0.39069 1.43252,-0.39069 2.73482,-1.04183 l 0.78137,4.55803 q -0.9116,0.39069 -2.93016,1.04184 -1.95344,0.65115 -4.88361,0.65115 -3.38597,0 -5.53476,-0.78138 -2.14878,-0.78138 -3.38596,-2.34413 -1.17207,-1.56276 -1.62787,-3.84178 -0.45581,-2.34413 -0.45581,-5.40452 l 0,-14.06479 -6.38124,0 0,-4.49292 6.38124,0 0,-8.46492 5.33941,-0.91161 0,9.37653 z"
         style="font-style:normal;font-variant:normal;font-weight:normal;font-stretch:normal;font-family:'Ubuntu Mono';-inkscape-font-specification:'Ubuntu Mono'"
         id="path4153" />
      <path
         d="m 384.07272,813.92912 q 6.12079,0 9.44164,3.84178 3.32086,3.77665 3.32086,11.52531 l 0,1.88833 -21.61811,0 q 0.32557,4.68826 3.06039,7.16262 2.79994,2.40925 7.81378,2.40925 2.86505,0 4.88361,-0.4558 2.01855,-0.45581 3.06039,-0.97672 l 0.71626,4.55803 q -0.97672,0.52092 -3.51619,1.10695 -2.53948,0.58604 -5.73011,0.58604 -3.90688,0 -6.90216,-1.17207 -2.93017,-1.23718 -4.88361,-3.32085 -1.95344,-2.08368 -2.93016,-4.94873 -0.97673,-2.93016 -0.97673,-6.31613 0,-4.03712 1.23718,-7.0324 1.23719,-2.99528 3.25574,-4.94872 2.01856,-1.95344 4.55804,-2.93016 2.53947,-0.97673 5.20918,-0.97673 z m 7.29285,12.89273 q 0,-3.84177 -2.01855,-6.05567 -2.01856,-2.27902 -5.33942,-2.27902 -1.88832,0 -3.45108,0.71626 -1.49764,0.71626 -2.60459,1.88833 -1.10695,1.17207 -1.7581,2.6697 -0.65115,1.49764 -0.84649,3.0604 l 16.01823,0 z"
         style="font-style:normal;font-variant:normal;font-weight:normal;font-stretch:normal;font-family:'Ubuntu Mono';-inkscape-font-specification:'Ubuntu Mono'"
         id="path4155" />
      <path
         d="m 406.73266,844.85864 0,-28.58538 q 6.64171,-2.27902 13.41365,-2.27902 2.08367,0 3.972,0.19534 1.88833,0.13023 4.16734,0.65115 l -0.97672,4.75338 q -2.08367,-0.58603 -3.71154,-0.71626 -1.56276,-0.19535 -3.45108,-0.19535 -3.97201,0 -8.07424,1.10695 l 0,25.06919 -5.33941,0 z"
         style="font-style:normal;font-variant:normal;font-weight:normal;font-stretch:normal;font-family:'Ubuntu Mono';-inkscape-font-specification:'Ubuntu Mono'"
         id="path4157" />
      <path
         d="m 453.41994,840.6913 q 0,1.95344 -1.30229,3.45108 -1.3023,1.49764 -3.45109,1.49764 -2.2139,0 -3.5162,-1.49764 -1.30229,-1.49764 -1.30229,-3.45108 0,-2.01856 1.30229,-3.5162 1.3023,-1.49764 3.5162,-1.49764 2.14879,0 3.45109,1.49764 1.30229,1.49764 1.30229,3.5162 z"
         style="font-style:normal;font-variant:normal;font-weight:normal;font-stretch:normal;font-family:'Ubuntu Mono';-inkscape-font-specification:'Ubuntu Mono'"
         id="path4159" />
      <path
         d="m 474.90783,815.75234 q 0.97672,-0.58604 2.79994,-1.17207 1.88833,-0.65115 4.16734,-0.65115 3.0604,0 5.46965,1.17207 2.40924,1.17207 4.03711,3.25574 1.69299,2.08367 2.53948,5.01384 0.9116,2.86505 0.9116,6.38124 0,3.64643 -1.04183,6.5766 -1.04184,2.93016 -2.93017,5.01383 -1.88833,2.01856 -4.55803,3.12551 -2.66971,1.10696 -5.92545,1.10696 -3.58131,0 -6.38124,-0.52092 -2.79994,-0.52092 -4.49292,-1.04184 l 0,-43.36644 5.40452,-0.91161 0,16.01824 z m 0,24.41804 q 1.23718,0.32557 2.47436,0.52092 1.23719,0.13023 2.34414,0.13023 4.49292,0 7.03239,-2.73482 2.53948,-2.79994 2.53948,-8.3347 0,-2.34413 -0.4558,-4.36269 -0.45581,-2.08367 -1.43253,-3.51619 -0.97672,-1.49764 -2.53948,-2.34414 -1.49764,-0.84649 -3.64642,-0.84649 -1.88833,0 -3.64643,0.78138 -1.7581,0.71626 -2.66971,1.56275 l 0,19.14375 z"
         style="font-style:normal;font-variant:normal;font-weight:normal;font-stretch:normal;font-family:'Ubuntu Mono';-inkscape-font-specification:'Ubuntu Mono'"
         id="path4161" />
      <path
         d="m 500.75841,850.52363 q 0.58604,0.32557 1.62787,0.52092 1.10696,0.19534 2.01856,0.19534 3.19063,0 4.94873,-1.43252 1.82321,-1.36741 3.32085,-4.55804 -3.64643,-6.90217 -6.83705,-14.78105 -3.19063,-7.94401 -5.2743,-15.82289 l 5.86033,0 q 0.65115,2.60459 1.49764,5.66498 0.91161,2.99528 2.01856,6.18591 1.10695,3.19062 2.34413,6.44636 1.3023,3.19062 2.73482,6.12079 1.04184,-2.99528 1.95344,-5.92545 0.91161,-2.93016 1.69299,-5.86033 0.78138,-2.99528 1.56275,-6.05567 0.78138,-3.12551 1.62787,-6.57659 l 5.59987,0 q -2.08367,8.46492 -4.68826,16.40892 -2.53948,7.944 -5.46964,14.71594 -1.10695,2.60459 -2.40925,4.49292 -1.23718,1.88833 -2.73482,3.12551 -1.49764,1.23718 -3.38597,1.82321 -1.88833,0.58604 -4.29757,0.58604 -1.23718,0 -2.73482,-0.32558 -1.43253,-0.32557 -1.95345,-0.58603 l 0.97672,-4.36269 z"
         style="font-style:normal;font-variant:normal;font-weight:normal;font-stretch:normal;font-family:'Ubuntu Mono';-inkscape-font-specification:'Ubuntu Mono'"
         id="path4163" />
    </g>
  </g>
</svg>
