<?xml version="1.0" encoding="UTF-8" standalone="no"?>
<!-- Created with Inkscape (http://www.inkscape.org/) -->

<svg
   xmlns:dc="http://purl.org/dc/elements/1.1/"
   xmlns:cc="http://creativecommons.org/ns#"
   xmlns:rdf="http://www.w3.org/1999/02/22-rdf-syntax-ns#"
   xmlns:svg="http://www.w3.org/2000/svg"
   xmlns="http://www.w3.org/2000/svg"
   xmlns:sodipodi="http://sodipodi.sourceforge.net/DTD/sodipodi-0.dtd"
   xmlns:inkscape="http://www.inkscape.org/namespaces/inkscape"
   width="599.93427"
   height="898.43195"
   id="svg3101"
   version="1.1"
   inkscape:version="0.91 r13725"
   sodipodi:docname="f_2018_banner_2_curves.svg"
   inkscape:export-filename="/home/jedi/Dropbox/falanster/design/logo/logo_2018/banners/f_2018_banner_2.png"
   inkscape:export-xdpi="300.00961"
   inkscape:export-ydpi="300.00961">
  <defs
     id="defs3103" />
  <sodipodi:namedview
     id="base"
     pagecolor="#ffffff"
     bordercolor="#666666"
     borderopacity="1.0"
     inkscape:pageopacity="0.0"
     inkscape:pageshadow="2"
     inkscape:zoom="0.49497475"
     inkscape:cx="237.17602"
     inkscape:cy="582.08517"
     inkscape:document-units="px"
     inkscape:current-layer="layer1"
     showgrid="false"
     inkscape:window-width="1855"
     inkscape:window-height="1056"
     inkscape:window-x="65"
     inkscape:window-y="24"
     inkscape:window-maximized="1"
     fit-margin-top="0"
     fit-margin-left="0"
     fit-margin-right="0"
     fit-margin-bottom="0"
     showguides="true"
     inkscape:guide-bbox="true">
    <sodipodi:guide
       position="54.548237,-64.649762"
       orientation="1,0"
       id="guide4140" />
    <sodipodi:guide
       position="550.53313,-49.497474"
       orientation="1,0"
       id="guide4142" />
  </sodipodi:namedview>
  <metadata
     id="metadata3106">
    <rdf:RDF>
      <cc:Work
         rdf:about="">
        <dc:format>image/svg+xml</dc:format>
        <dc:type
           rdf:resource="http://purl.org/dc/dcmitype/StillImage" />
        <dc:title></dc:title>
      </cc:Work>
    </rdf:RDF>
  </metadata>
  <g
     inkscape:label="Layer 1"
     inkscape:groupmode="layer"
     id="layer1"
     transform="translate(988.57141,413.66083)">
    <path
       style="fill:#ffffff;stroke:none"
       d="m -988.57141,-413.66083 599.93426,0 0,898.43195 -599.93426,0 z"
       id="rect3117" />
    <g
       style="font-style:normal;font-weight:normal;font-size:270.65560913px;line-height:89.99999762%;font-family:Sans;letter-spacing:0px;word-spacing:0px;fill:#ff6600;fill-opacity:1;stroke:none"
       id="text3109">
      <path
         d="m -814.4647,-293.30378 -2.97721,2.4359 0,60.89752 16.50999,0 17.32196,-34.37327 -25.71228,-28.41884 -5.14246,-0.54131 z m -38.97441,-60.08554 -5.41311,-0.27066 44.92883,4.05984 0,22.19376 13.26213,-4.05984 45.74079,17.86327 9.2023,51.69522 -14.61541,56.02572 -37.89178,11.09688 -22.46442,1.35327 6.76639,28.96015 -47.09407,0 0,-28.96015 -17.32196,-1.08262 -36.26785,-17.86327 -17.86327,-50.07129 14.88605,-47.09407 43.84621,-20.29917 12.99147,0 7.3077,-23.54704 z m 0,60.62685 0,0.81197 -18.13392,-2.16524 -24.08835,35.18523 22.73507,33.83195 18.13393,-7.3077 -2.43591,-25.71229 3.78918,-34.64392 z"
         style="font-style:normal;font-variant:normal;font-weight:600;font-stretch:normal;line-height:89.99999762%;font-family:a_AlternaBrk;-inkscape-font-specification:'a_AlternaBrk Semi-Bold';letter-spacing:0px;fill:#ff6600"
         id="path4172" />
      <path
         d="m -687.03031,-229.97036 -0.27066,-2.70656 29.50146,0 3.24787,-48.98867 -17.86327,-45.47014 -9.7436,47.09408 -4.8718,50.07129 z m 0.54131,66.85193 0.54131,-4.05983 -38.70375,2.4359 -4.87181,-37.89179 8.11967,-47.09407 4.05984,-44.92883 12.72081,-30.04278 14.88606,-31.6667 40.05703,0 17.32196,34.91457 8.93163,27.06556 4.05984,47.90604 2.97721,44.92884 0,35.45588 -34.37326,6.22508 0,-37.07982 -31.93737,-6.49573 -3.78917,40.32768 z"
         style="font-style:normal;font-variant:normal;font-weight:600;font-stretch:normal;line-height:89.99999762%;font-family:a_AlternaBrk;-inkscape-font-specification:'a_AlternaBrk Semi-Bold';letter-spacing:0px;fill:#ff6600"
         id="path4174" />
      <path
         d="m -856.95763,81.824892 0,-1.89459 0,-34.643918 2.97721,-28.689494 -4.8718,-32.208018 5.68377,-28.689494 -2.97721,-34.643918 -17.86327,28.418839 -12.45016,35.185229 0,99.330608 -43.57555,-7.037045 -2.97722,-21.652449 0,-65.2280019 14.0741,-46.5527651 22.73507,-26.253594 26.7949,-24.088351 57.37899,-6.49573 -3.78918,35.455882 0,30.313428 -3.78918,32.478673 7.03705,29.772117 -5.41311,30.85474 2.70655,34.102607 -41.68096,2.165245 z"
         style="font-style:normal;font-variant:normal;font-weight:600;font-stretch:normal;line-height:89.99999762%;font-family:a_AlternaBrk;-inkscape-font-specification:'a_AlternaBrk Semi-Bold';letter-spacing:0px;fill:#ff6600"
         id="path4176" />
      <path
         d="m -749.67228,13.619678 -0.27066,-2.706556 29.50146,0 3.24787,-48.988665 -17.86327,-45.470143 -9.7436,47.094076 -4.8718,50.071288 z m 0.54131,66.851936 0.54131,-4.059835 -38.70375,2.435901 -4.8718,-37.891785 8.11966,-47.0940764 4.05984,-44.9288316 12.72081,-30.042772 14.88606,-31.666705 40.05703,0 17.32196,34.914572 8.93164,27.065561 4.05983,47.9060429 2.97721,44.9288311 0,35.455885 -34.37326,6.225079 0,-37.079819 -31.93736,-6.495734 -3.78918,40.327686 z"
         style="font-style:normal;font-variant:normal;font-weight:600;font-stretch:normal;line-height:89.99999762%;font-family:a_AlternaBrk;-inkscape-font-specification:'a_AlternaBrk Semi-Bold';letter-spacing:0px;fill:#ff6600"
         id="path4178" />
      <path
         d="m -650.59966,81.824892 0.81197,-5.142457 1.62393,-25.982938 -3.24787,-36.538508 -2.16524,-31.125395 4.8718,-31.125395 -1.89459,-30.313428 0,-35.185231 43.57555,2.4359 -4.8718,33.831953 5.68377,36.809163 28.6895,-3.518523 0,-68.746523 42.49293,0 0,38.433095 -2.70656,24.629661 -2.97721,38.433096 0,57.108334 6.76639,37.891785 -41.41031,0 0,-35.997196 -2.4359,-25.170972 0,-30.3134281 -35.45589,0 7.03705,27.8775281 -5.41311,28.148183 2.70655,31.396051 -41.68096,2.165245 z"
         style="font-style:normal;font-variant:normal;font-weight:600;font-stretch:normal;line-height:89.99999762%;font-family:a_AlternaBrk;-inkscape-font-specification:'a_AlternaBrk Semi-Bold';letter-spacing:0px;fill:#ff6600"
         id="path4180" />
      <path
         d="m -815.27667,210.3863 0,-1.89459 -40.59834,-3.51852 1.89459,-21.11114 -20.84048,-18.67524 -10.55557,18.9459 -2.97721,26.52425 0,60.08554 18.13393,17.59261 16.50999,-12.45015 -3.24787,-39.51572 38.70375,6.76639 0,18.13392 -11.36753,48.44736 -39.51572,20.02851 -44.92883,-14.34474 -11.90885,-56.56703 -3.78918,-29.77211 0,-34.91458 9.20229,-48.98866 51.42457,-15.69803 39.24506,12.99147 15.69803,52.23653 -1.08263,15.69803 z"
         style="font-style:normal;font-variant:normal;font-weight:600;font-stretch:normal;line-height:89.99999762%;font-family:a_AlternaBrk;-inkscape-font-specification:'a_AlternaBrk Semi-Bold';letter-spacing:0px;fill:#ff6600"
         id="path4182" />
      <path
         d="m -778.60494,170.05861 -0.27066,-4.8718 -27.33622,4.05984 -2.16524,-38.4331 35.72654,0 33.01998,6.76639 29.50147,-7.03705 -2.97722,41.41031 -28.14818,-4.60114 0,29.50146 6.22508,37.35047 0,54.94309 -3.24787,34.91458 -41.68096,0 -2.97721,-31.66671 7.03704,-33.01999 -5.41311,-31.6667 2.70656,-28.6895 0,-28.96015 z"
         style="font-style:normal;font-variant:normal;font-weight:600;font-stretch:normal;line-height:89.99999762%;font-family:a_AlternaBrk;-inkscape-font-specification:'a_AlternaBrk Semi-Bold';letter-spacing:0px;fill:#ff6600"
         id="path4184" />
      <path
         d="m -689.73052,253.14989 0.54131,3.78917 40.32768,-2.16524 -2.70655,15.42737 18.40458,19.21655 11.36753,-17.05131 0,-30.31342 -32.47867,-5.68377 0,-29.50146 39.78638,-3.51853 -7.30771,-19.21654 -16.50999,-14.61541 -13.53278,13.53278 3.24787,5.68377 -43.84621,0 12.72081,-42.22227 44.38752,-15.96869 41.13966,12.72082 20.56982,48.44735 -3.78918,37.62113 0,28.96015 -14.6154,53.58981 -42.76359,11.63819 -45.74079,-13.80343 -14.61541,-46.82342 5.41312,-9.7436 z"
         style="font-style:normal;font-variant:normal;font-weight:600;font-stretch:normal;line-height:89.99999762%;font-family:a_AlternaBrk;-inkscape-font-specification:'a_AlternaBrk Semi-Bold';letter-spacing:0px;fill:#ff6600"
         id="path4186" />
      <path
         d="m -508.76344,238.53448 -0.54131,-1.35328 15.42737,0 15.69803,-34.64391 -17.32196,-35.18523 -15.96868,-0.81197 2.70655,35.9972 0,35.99719 z m -36.53851,81.738 -3.24786,-0.27066 1.89459,-29.2308 -4.8718,-32.47868 5.68376,-29.2308 -2.97721,-35.18523 0,-63.06276 54.94309,0 35.9972,13.26213 17.0513,14.88605 3.51852,46.82342 -12.72081,47.36474 -39.51572,16.50999 -16.50999,4.60114 0,52.50719 -39.24507,-6.49573 z"
         style="font-style:normal;font-variant:normal;font-weight:600;font-stretch:normal;line-height:89.99999762%;font-family:a_AlternaBrk;-inkscape-font-specification:'a_AlternaBrk Semi-Bold';letter-spacing:0px;fill:#ff6600"
         id="path4188" />
    </g>
    <g
       style="font-style:normal;font-weight:normal;font-size:83.69185638px;line-height:125%;font-family:Sans;letter-spacing:0px;word-spacing:0px;fill:#333333;fill-opacity:1;stroke:none"
       id="text3113">
      <path
         d="m -923.7349,432.71143 0,-33.05829 -8.2018,0 0,-5.77474 8.2018,0 0,-3.51505 q 0,-4.51936 1.25538,-7.44858 1.25538,-3.01291 3.26398,-4.85413 2.0923,-1.84122 4.77044,-2.59444 2.76183,-0.75323 5.77473,-0.75323 3.01291,0 6.02582,0.66953 3.0966,0.66954 5.77474,1.59015 l -1.25538,5.94212 q -1.84122,-0.92061 -4.60305,-1.59014 -2.76184,-0.66954 -5.60736,-0.66954 -1.75753,0 -3.34767,0.50215 -1.50646,0.41846 -2.67814,1.59015 -1.17169,1.08799 -1.84122,3.0129 -0.66954,1.84123 -0.66954,4.68675 l 0,3.43136 15.65038,0 0,5.77474 -15.65038,0 0,33.05829 -6.86273,0 z"
         style="font-style:normal;font-variant:normal;font-weight:normal;font-stretch:normal;font-family:'Ubuntu Mono';-inkscape-font-specification:'Ubuntu Mono';fill:#333333"
         id="path4147" />
      <path
         d="m -874.02194,427.77361 q 2.59445,0 4.60305,-0.16739 2.0923,-0.16738 3.43137,-0.41846 l 0,-11.54947 q -1.33907,-0.41846 -3.26398,-0.66954 -1.84122,-0.25107 -3.93352,-0.25107 -1.92491,0 -3.76613,0.33476 -1.84122,0.25108 -3.26399,1.00431 -1.42276,0.75322 -2.34337,2.0086 -0.92061,1.17169 -0.92061,3.01291 0,3.76613 2.51076,5.27258 2.59445,1.42277 6.94642,1.42277 z m -0.66953,-34.81582 q 4.35197,0 7.28119,1.088 3.01291,1.08799 4.85413,3.0129 1.84122,1.92492 2.59444,4.68675 0.75323,2.76183 0.75323,6.02581 l 0,24.27064 q -2.42706,0.41846 -6.44427,1.0043 -3.93352,0.58585 -8.11811,0.58585 -3.18029,0 -6.1932,-0.58585 -3.01291,-0.50215 -5.35628,-1.84122 -2.34337,-1.42276 -3.76613,-3.84982 -1.42276,-2.42707 -1.42276,-6.1932 0,-3.34767 1.42276,-5.60735 1.50645,-2.34338 3.76613,-3.76614 2.34337,-1.42276 5.27259,-2.0086 3.01291,-0.66954 6.02581,-0.66954 4.1009,0 8.03442,0.92061 l 0,-1.92491 q 0,-1.75753 -0.41846,-3.34767 -0.33477,-1.67384 -1.42276,-3.01291 -1.0043,-1.33907 -2.84552,-2.0923 -1.75753,-0.83692 -4.60306,-0.83692 -3.59875,0 -6.27689,0.50216 -2.67813,0.50215 -4.1009,1.0043 l -0.83691,-5.69105 q 1.42276,-0.66953 4.68674,-1.17168 3.34767,-0.50216 7.11381,-0.50216 z"
         style="font-style:normal;font-variant:normal;font-weight:normal;font-stretch:normal;font-family:'Ubuntu Mono';-inkscape-font-specification:'Ubuntu Mono';fill:#333333"
         id="path4149" />
      <path
         d="m -825.22959,433.63204 q -3.68244,0 -6.1095,-1.00431 -2.42707,-1.0043 -3.84983,-3.0129 -1.42276,-2.00861 -2.0086,-4.93782 -0.58584,-3.01291 -0.58584,-6.94643 l 0,-36.74072 -11.21471,0 0,-5.85843 18.07744,0 0,42.59915 q 0,2.92922 0.33477,4.77044 0.41845,1.84122 1.17168,3.01291 0.83692,1.08799 2.00861,1.50645 1.17168,0.41846 2.76183,0.41846 2.42706,0 4.51936,-0.58584 2.09229,-0.58585 3.26398,-1.25538 l 1.0043,5.85843 q -0.50215,0.25107 -1.42276,0.66953 -0.92061,0.33477 -2.17599,0.66954 -1.25538,0.33477 -2.76183,0.58584 -1.42276,0.25108 -3.01291,0.25108 z"
         style="font-style:normal;font-variant:normal;font-weight:normal;font-stretch:normal;font-family:'Ubuntu Mono';-inkscape-font-specification:'Ubuntu Mono';fill:#333333"
         id="path4151" />
      <path
         d="m -790.33009,427.77361 q 2.59445,0 4.60306,-0.16739 2.09229,-0.16738 3.43136,-0.41846 l 0,-11.54947 q -1.33907,-0.41846 -3.26398,-0.66954 -1.84122,-0.25107 -3.93352,-0.25107 -1.92491,0 -3.76613,0.33476 -1.84122,0.25108 -3.26398,1.00431 -1.42276,0.75322 -2.34337,2.0086 -0.92062,1.17169 -0.92062,3.01291 0,3.76613 2.51076,5.27258 2.59445,1.42277 6.94642,1.42277 z m -0.66953,-34.81582 q 4.35198,0 7.28119,1.088 3.01291,1.08799 4.85413,3.0129 1.84122,1.92492 2.59445,4.68675 0.75322,2.76183 0.75322,6.02581 l 0,24.27064 q -2.42706,0.41846 -6.44427,1.0043 -3.93352,0.58585 -8.11811,0.58585 -3.18029,0 -6.1932,-0.58585 -3.0129,-0.50215 -5.35628,-1.84122 -2.34337,-1.42276 -3.76613,-3.84982 -1.42276,-2.42707 -1.42276,-6.1932 0,-3.34767 1.42276,-5.60735 1.50645,-2.34338 3.76613,-3.76614 2.34338,-1.42276 5.27259,-2.0086 3.01291,-0.66954 6.02581,-0.66954 4.10091,0 8.03442,0.92061 l 0,-1.92491 q 0,-1.75753 -0.41846,-3.34767 -0.33476,-1.67384 -1.42276,-3.01291 -1.0043,-1.33907 -2.84552,-2.0923 -1.75753,-0.83692 -4.60305,-0.83692 -3.59875,0 -6.27689,0.50216 -2.67814,0.50215 -4.1009,1.0043 l -0.83692,-5.69105 q 1.42276,-0.66953 4.68674,-1.17168 3.34768,-0.50216 7.11381,-0.50216 z"
         style="font-style:normal;font-variant:normal;font-weight:normal;font-stretch:normal;font-family:'Ubuntu Mono';-inkscape-font-specification:'Ubuntu Mono';fill:#333333"
         id="path4153" />
      <path
         d="m -763.88345,394.9664 q 3.76613,-0.92061 7.44857,-1.42276 3.76613,-0.50215 7.03012,-0.50215 7.78334,0 11.71686,4.0172 4.01721,4.01721 4.01721,12.88855 l 0,22.76419 -6.86274,0 0,-21.50881 q 0,-3.76613 -0.66953,-6.10951 -0.66954,-2.34337 -1.92491,-3.59875 -1.17169,-1.33907 -2.92922,-1.84122 -1.67384,-0.50215 -3.68244,-0.50215 -1.67384,0 -3.59875,0.25108 -1.84122,0.16738 -3.59875,0.50215 l 0,32.80721 -6.94642,0 0,-37.74503 z"
         style="font-style:normal;font-variant:normal;font-weight:normal;font-stretch:normal;font-family:'Ubuntu Mono';-inkscape-font-specification:'Ubuntu Mono';fill:#333333"
         id="path4155" />
      <path
         d="m -698.6038,423.00317 q 0,-2.0923 -1.75753,-3.43137 -1.67384,-1.33907 -4.26829,-2.34337 -2.51075,-1.0043 -5.52366,-1.92491 -3.01291,-1.0043 -5.60735,-2.42706 -2.51076,-1.42277 -4.26829,-3.51506 -1.67384,-2.0923 -1.67384,-5.43997 0,-4.68675 3.76614,-7.78335 3.84982,-3.18029 11.96793,-3.18029 3.18029,0 6.52797,0.50216 3.43136,0.41845 5.85843,1.17168 l -1.25538,6.1932 q -0.66953,-0.33477 -1.84122,-0.66954 -1.17169,-0.41846 -2.67814,-0.66953 -1.50645,-0.33477 -3.26398,-0.50215 -1.67384,-0.16739 -3.26398,-0.16739 -9.03873,0 -9.03873,4.93782 0,1.75753 1.67384,3.01291 1.75753,1.17169 4.35198,2.17599 2.59445,1.0043 5.60735,2.09229 3.01291,1.00431 5.60736,2.51076 2.59444,1.50645 4.26828,3.68244 1.75753,2.0923 1.75753,5.35628 0,5.27259 -4.1009,8.2018 -4.1009,2.84553 -12.97224,2.84553 -4.01721,0 -7.36488,-0.66954 -3.34768,-0.66953 -6.36058,-2.0086 l 1.33907,-6.27689 q 2.92921,1.33907 6.1095,2.25968 3.26399,0.83692 6.94643,0.83692 9.45718,0 9.45718,-4.77044 z"
         style="font-style:normal;font-variant:normal;font-weight:normal;font-stretch:normal;font-family:'Ubuntu Mono';-inkscape-font-specification:'Ubuntu Mono';fill:#333333"
         id="path4157" />
      <path
         d="m -665.79661,393.8784 16.40361,0 0,5.77474 -16.40361,0 0,18.07744 q 0,2.92922 0.41846,4.77044 0.41846,1.84122 1.33907,3.01291 1.0043,1.08799 2.51076,1.50645 1.50645,0.41846 3.68244,0.41846 3.01291,0 4.85413,-0.50215 1.84122,-0.50215 3.51506,-1.33907 l 1.0043,5.85843 q -1.17169,0.50215 -3.76614,1.33907 -2.51075,0.83692 -6.27689,0.83692 -4.35197,0 -7.1138,-1.00431 -2.76183,-1.0043 -4.35198,-3.0129 -1.50645,-2.00861 -2.0923,-4.93782 -0.58584,-3.01291 -0.58584,-6.94643 l 0,-18.07744 -8.2018,0 0,-5.77474 8.2018,0 0,-10.87994 6.86273,-1.17168 0,12.05162 z"
         style="font-style:normal;font-variant:normal;font-weight:normal;font-stretch:normal;font-family:'Ubuntu Mono';-inkscape-font-specification:'Ubuntu Mono';fill:#333333"
         id="path4159" />
      <path
         d="m -622.61159,392.95779 q 7.86703,0 12.13532,4.93782 4.26828,4.85413 4.26828,14.81346 l 0,2.42707 -27.78569,0 q 0.41846,6.02581 3.93351,9.2061 3.59875,3.0966 10.04303,3.0966 3.68244,0 6.27689,-0.58584 2.59444,-0.58585 3.93351,-1.25538 l 0.92061,5.85843 q -1.25537,0.66953 -4.51936,1.42276 -3.26398,0.75323 -7.36488,0.75323 -5.02151,0 -8.87134,-1.50646 -3.76613,-1.59014 -6.27689,-4.26828 -2.51075,-2.67814 -3.76613,-6.36058 -1.25538,-3.76614 -1.25538,-8.11811 0,-5.1889 1.59015,-9.03872 1.59014,-3.84983 4.18459,-6.36058 2.59445,-2.51076 5.85843,-3.76614 3.26398,-1.25538 6.69535,-1.25538 z m 9.37349,16.57099 q 0,-4.93782 -2.59445,-7.78334 -2.59445,-2.92922 -6.86273,-2.92922 -2.42707,0 -4.43567,0.92061 -1.92491,0.92061 -3.34767,2.42707 -1.42277,1.50645 -2.25968,3.43136 -0.83692,1.92492 -1.088,3.93352 l 20.5882,0 z"
         style="font-style:normal;font-variant:normal;font-weight:normal;font-stretch:normal;font-family:'Ubuntu Mono';-inkscape-font-specification:'Ubuntu Mono';fill:#333333"
         id="path4161" />
      <path
         d="m -593.48684,432.71143 0,-36.74073 q 8.53657,-2.92921 17.24053,-2.92921 2.67814,0 5.1052,0.25107 2.42706,0.16739 5.35628,0.83692 l -1.25538,6.10951 q -2.67814,-0.75323 -4.77043,-0.92061 -2.00861,-0.25108 -4.43567,-0.25108 -5.10521,0 -10.37779,1.42276 l 0,32.22137 -6.86274,0 z"
         style="font-style:normal;font-variant:normal;font-weight:normal;font-stretch:normal;font-family:'Ubuntu Mono';-inkscape-font-specification:'Ubuntu Mono';fill:#333333"
         id="path4163" />
      <path
         d="m -533.47979,427.35515 q 0,2.51075 -1.67383,4.43567 -1.67384,1.92491 -4.43567,1.92491 -2.84552,0 -4.51936,-1.92491 -1.67384,-1.92492 -1.67384,-4.43567 0,-2.59445 1.67384,-4.51936 1.67384,-1.92492 4.51936,-1.92492 2.76183,0 4.43567,1.92492 1.67383,1.92491 1.67383,4.51936 z"
         style="font-style:normal;font-variant:normal;font-weight:normal;font-stretch:normal;font-family:'Ubuntu Mono';-inkscape-font-specification:'Ubuntu Mono';fill:#333333"
         id="path4165" />
      <path
         d="m -505.86145,395.30117 q 1.25537,-0.75323 3.59875,-1.50646 2.42706,-0.83692 5.35627,-0.83692 3.93352,0 7.03012,1.50646 3.0966,1.50645 5.1889,4.18459 2.17598,2.67814 3.26398,6.44427 1.17168,3.68244 1.17168,8.20181 0,4.68674 -1.33907,8.45287 -1.33907,3.76614 -3.76613,6.44428 -2.42706,2.59444 -5.85843,4.0172 -3.43137,1.42277 -7.61596,1.42277 -4.60305,0 -8.2018,-0.66954 -3.59875,-0.66953 -5.77474,-1.33907 l 0,-55.73877 6.94643,-1.17169 0,20.5882 z m 0,31.38444 q 1.59014,0.41846 3.18029,0.66954 1.59014,0.16738 3.0129,0.16738 5.77474,0 9.03872,-3.51506 3.26399,-3.59875 3.26399,-10.71255 0,-3.01291 -0.58585,-5.60736 -0.58584,-2.67814 -1.84122,-4.51936 -1.25538,-1.92491 -3.26398,-3.01291 -1.92491,-1.08799 -4.68674,-1.08799 -2.42707,0 -4.68675,1.0043 -2.25968,0.92061 -3.43136,2.00861 l 0,24.6054 z"
         style="font-style:normal;font-variant:normal;font-weight:normal;font-stretch:normal;font-family:'Ubuntu Mono';-inkscape-font-specification:'Ubuntu Mono';fill:#333333"
         id="path4167" />
      <path
         d="m -472.6358,439.99262 q 0.75323,0.41846 2.0923,0.66953 1.42276,0.25108 2.59445,0.25108 4.1009,0 6.36058,-1.84122 2.34337,-1.75753 4.26828,-5.85843 -4.68674,-8.87134 -8.78764,-18.99805 -4.1009,-10.21041 -6.77904,-20.33713 l 7.53226,0 q 0.83692,3.34768 1.92492,7.2812 1.17168,3.84982 2.59444,7.95072 1.42276,4.1009 3.01291,8.2855 1.67384,4.1009 3.51506,7.86703 1.33907,-3.84982 2.51075,-7.61596 1.17169,-3.76613 2.17599,-7.53227 1.0043,-3.84982 2.00861,-7.78334 1.0043,-4.01721 2.09229,-8.45288 l 7.1975,0 q -2.67814,10.87995 -6.02581,21.09035 -3.26398,10.21041 -7.03012,18.91436 -1.42276,3.34768 -3.0966,5.77474 -1.59014,2.42706 -3.51505,4.01721 -1.92492,1.59014 -4.35198,2.34337 -2.42706,0.75323 -5.52366,0.75323 -1.59015,0 -3.51506,-0.41846 -1.84122,-0.41846 -2.51076,-0.75323 l 1.25538,-5.60735 z"
         style="font-style:normal;font-variant:normal;font-weight:normal;font-stretch:normal;font-family:'Ubuntu Mono';-inkscape-font-specification:'Ubuntu Mono';fill:#333333"
         id="path4169" />
    </g>
  </g>
</svg>
