<?xml version="1.0" encoding="UTF-8" standalone="no"?>
<!-- Created with Inkscape (http://www.inkscape.org/) -->

<svg
   xmlns:dc="http://purl.org/dc/elements/1.1/"
   xmlns:cc="http://creativecommons.org/ns#"
   xmlns:rdf="http://www.w3.org/1999/02/22-rdf-syntax-ns#"
   xmlns:svg="http://www.w3.org/2000/svg"
   xmlns="http://www.w3.org/2000/svg"
   xmlns:sodipodi="http://sodipodi.sourceforge.net/DTD/sodipodi-0.dtd"
   xmlns:inkscape="http://www.inkscape.org/namespaces/inkscape"
   width="600"
   height="600"
   id="svg3101"
   version="1.1"
   inkscape:version="0.91 r13725"
   sodipodi:docname="f_2018_banner_3_curves.svg"
   inkscape:export-filename="/home/jedi/Dropbox/falanster/design/logo/logo_2018/banners/f_2018_banner_3.png"
   inkscape:export-xdpi="300"
   inkscape:export-ydpi="300">
  <defs
     id="defs3103" />
  <sodipodi:namedview
     id="base"
     pagecolor="#ffffff"
     bordercolor="#666666"
     borderopacity="1.0"
     inkscape:pageopacity="0.0"
     inkscape:pageshadow="2"
     inkscape:zoom="0.98994949"
     inkscape:cx="185.91753"
     inkscape:cy="335.23642"
     inkscape:document-units="px"
     inkscape:current-layer="layer1"
     showgrid="false"
     inkscape:window-width="1855"
     inkscape:window-height="1056"
     inkscape:window-x="65"
     inkscape:window-y="24"
     inkscape:window-maximized="1"
     fit-margin-top="0"
     fit-margin-left="0"
     fit-margin-right="0"
     fit-margin-bottom="0" />
  <metadata
     id="metadata3106">
    <rdf:RDF>
      <cc:Work
         rdf:about="">
        <dc:format>image/svg+xml</dc:format>
        <dc:type
           rdf:resource="http://purl.org/dc/dcmitype/StillImage" />
        <dc:title></dc:title>
      </cc:Work>
    </rdf:RDF>
  </metadata>
  <g
     inkscape:label="Layer 1"
     inkscape:groupmode="layer"
     id="layer1"
     transform="translate(911.42853,-609.50507)">
    <path
       style="fill:#ffffff;fill-opacity:1;stroke:none"
       d="m -911.42853,609.50507 600,0 0,600.00003 -600,0 z"
       id="rect3133" />
    <g
       style="font-style:normal;font-weight:normal;font-size:73.85072327px;line-height:89.99999762%;font-family:Sans;letter-spacing:0px;word-spacing:0px;fill:#333333;fill-opacity:1;stroke:none"
       id="text3109">
      <path
         d="m -803.48055,1118.8143 q 3.54484,0 6.57272,-0.9601 3.10173,-1.0339 5.31725,-2.954 2.28937,-1.994 3.61869,-4.8003 1.32931,-2.8802 1.32931,-6.5727 0,-3.6926 -1.32931,-6.4989 -1.32932,-2.8802 -3.61869,-4.8003 -2.21552,-1.994 -5.31725,-2.954 -3.02788,-1.0339 -6.57272,-1.0339 l 0,30.5742 z m -6.94196,5.908 q -4.72645,0 -9.15749,-1.4031 -4.3572,-1.4032 -7.75433,-4.0618 -3.32328,-2.7325 -5.3911,-6.6466 -1.99397,-3.9879 -1.99397,-9.0836 0,-5.0957 1.99397,-9.0098 2.06782,-3.9141 5.3911,-6.5727 3.39713,-2.7325 7.75433,-4.1357 4.43104,-1.4031 9.15749,-1.477 l 0,-5.9081 6.94196,0 0,5.9081 q 4.72645,0.074 9.08364,1.477 4.3572,1.4032 7.75433,4.1357 3.39713,2.6586 5.3911,6.5727 2.06782,3.9141 2.06782,9.0098 0,5.0957 -2.06782,9.0836 -1.99397,3.9141 -5.3911,6.6466 -3.39713,2.6586 -7.75433,4.0618 -4.35719,1.4031 -9.08364,1.4031 l 0,6.2035 -6.94196,0 0,-6.2035 z m 0,-36.4822 q -3.54484,0 -6.64657,1.0339 -3.02788,0.96 -5.31725,2.954 -2.21552,1.9201 -3.54483,4.8003 -1.32932,2.8063 -1.32932,6.4989 0,3.6925 1.32932,6.5727 1.32931,2.8063 3.54483,4.8003 2.28937,1.9201 5.31725,2.954 3.10173,0.9601 6.64657,0.9601 l 0,-30.5742 z"
         style="font-style:normal;font-variant:normal;font-weight:normal;font-stretch:normal;line-height:89.99999762%;font-family:Ubuntu;-inkscape-font-specification:Ubuntu;letter-spacing:0px;fill:#333333"
         id="path4170" />
      <path
         d="m -735.99945,1130.9258 q -1.25546,-3.3233 -2.36322,-6.4989 -1.10776,-3.2494 -2.28937,-6.5727 l -23.18913,0 -4.6526,13.0716 -7.45892,0 q 2.95403,-8.1236 5.5388,-14.9917 2.58478,-6.942 5.02185,-13.1454 2.51093,-6.2035 4.948,-11.8162 2.43708,-5.6865 5.0957,-11.2253 l 6.57272,0 q 2.65862,5.5388 5.0957,11.2253 2.43707,5.6127 4.87414,11.8162 2.51093,6.2034 5.0957,13.1454 2.58478,6.8681 5.53881,14.9917 l -7.82818,0 z m -6.72041,-18.9797 q -2.36323,-6.425 -4.72645,-12.4069 -2.28937,-6.0557 -4.8003,-11.5945 -2.58477,5.5388 -4.948,11.5945 -2.28937,5.9819 -4.57874,12.4069 l 19.05349,0 z"
         style="font-style:normal;font-variant:normal;font-weight:normal;font-stretch:normal;line-height:89.99999762%;font-family:Ubuntu;-inkscape-font-specification:Ubuntu;letter-spacing:0px;fill:#333333"
         id="path4172" />
      <path
         d="m -703.79246,1085.8768 q -0.1477,4.1357 -0.2954,8.0498 -0.1477,3.8402 -0.4431,7.5327 -0.29541,3.6187 -0.88621,7.0897 -0.59081,3.471 -1.62472,6.7943 -1.03391,3.3233 -2.58477,6.2773 -1.47702,2.8802 -3.76639,5.0957 -2.21552,2.1417 -5.31725,3.471 -3.02788,1.3293 -7.16352,1.477 l -0.81236,-6.2035 q 5.16955,-0.5908 7.97588,-3.2494 2.88018,-2.6586 4.72644,-8.1236 2.06782,-6.2034 2.58478,-14.9178 0.5908,-8.7883 0.5908,-19.4228 l 29.02334,0 0,51.1786 -7.16352,0 0,-45.049 -14.844,0 z"
         style="font-style:normal;font-variant:normal;font-weight:normal;font-stretch:normal;line-height:89.99999762%;font-family:Ubuntu;-inkscape-font-specification:Ubuntu;letter-spacing:0px;fill:#333333"
         id="path4174" />
      <path
         d="m -634.88743,1130.9258 q -1.25546,-3.3233 -2.36322,-6.4989 -1.10776,-3.2494 -2.28937,-6.5727 l -23.18913,0 -4.65259,13.0716 -7.45893,0 q 2.95403,-8.1236 5.53881,-14.9917 2.58477,-6.942 5.02185,-13.1454 2.51092,-6.2035 4.94799,-11.8162 2.43708,-5.6865 5.0957,-11.2253 l 6.57272,0 q 2.65863,5.5388 5.0957,11.2253 2.43707,5.6127 4.87415,11.8162 2.51092,6.2034 5.0957,13.1454 2.58477,6.8681 5.5388,14.9917 l -7.82818,0 z m -6.72041,-18.9797 q -2.36322,-6.425 -4.72645,-12.4069 -2.28937,-6.0557 -4.80029,-11.5945 -2.58478,5.5388 -4.948,11.5945 -2.28938,5.9819 -4.57875,12.4069 l 19.05349,0 z"
         style="font-style:normal;font-variant:normal;font-weight:normal;font-stretch:normal;line-height:89.99999762%;font-family:Ubuntu;-inkscape-font-specification:Ubuntu;letter-spacing:0px;fill:#333333"
         id="path4176" />
      <path
         d="m -587.98413,1079.7472 7.16352,0 0,51.1786 -7.16352,0 0,-23.6323 -25.0354,0 0,23.6323 -7.16352,0 0,-51.1786 7.16352,0 0,21.3429 25.0354,0 0,-21.3429 z"
         style="font-style:normal;font-variant:normal;font-weight:normal;font-stretch:normal;line-height:89.99999762%;font-family:Ubuntu;-inkscape-font-specification:Ubuntu;letter-spacing:0px;fill:#333333"
         id="path4178" />
      <path
         d="m -546.10501,1132.0335 q -5.3911,0 -9.82214,-1.7724 -4.43105,-1.7724 -7.60663,-5.1695 -3.17558,-3.3972 -4.948,-8.3452 -1.69856,-5.0218 -1.69856,-11.4468 0,-6.425 1.92012,-11.373 1.99397,-5.0219 5.31725,-8.419 3.32328,-3.3971 7.75432,-5.1696 4.43105,-1.7724 9.4529,-1.7724 3.17558,0 5.6865,0.4431 2.58478,0.4431 4.43105,1.0339 1.92012,0.5908 3.10173,1.1816 1.18161,0.5909 1.62471,0.8863 l -2.06782,5.908 q -0.66465,-0.4431 -1.92012,-0.96 -1.25546,-0.517 -2.88017,-1.034 -1.55087,-0.5169 -3.47099,-0.8123 -1.84627,-0.3693 -3.76639,-0.3693 -4.06179,0 -7.31122,1.4032 -3.24943,1.4032 -5.5388,4.0618 -2.28937,2.6586 -3.54484,6.4988 -1.18161,3.7664 -1.18161,8.4929 0,4.5787 1.03391,8.3451 1.10776,3.7664 3.24943,6.4989 2.14168,2.6586 5.31726,4.1356 3.24943,1.477 7.53277,1.477 4.948,0 8.19743,-1.0339 3.24943,-1.0339 4.87415,-1.8462 l 1.84627,5.908 q -0.51696,0.3693 -1.84627,0.9601 -1.32931,0.5169 -3.32328,1.0339 -1.99397,0.5169 -4.6526,0.8862 -2.65863,0.3692 -5.76036,0.3692 z"
         style="font-style:normal;font-variant:normal;font-weight:normal;font-stretch:normal;line-height:89.99999762%;font-family:Ubuntu;-inkscape-font-specification:Ubuntu;letter-spacing:0px;fill:#333333"
         id="path4180" />
      <path
         d="m -486.89751,1079.7472 0,6.2035 -16.09946,0 0,44.9751 -7.16352,0 0,-44.9751 -16.09946,0 0,-6.2035 39.36244,0 z"
         style="font-style:normal;font-variant:normal;font-weight:normal;font-stretch:normal;line-height:89.99999762%;font-family:Ubuntu;-inkscape-font-specification:Ubuntu;letter-spacing:0px;fill:#333333"
         id="path4182" />
      <path
         d="m -442.95402,1105.2996 q 0,6.2773 -1.77242,11.2991 -1.69857,4.948 -4.87415,8.419 -3.17558,3.3972 -7.60662,5.2434 -4.3572,1.7724 -9.7483,1.7724 -3.10173,0 -5.76035,-0.3692 -2.65863,-0.3693 -4.72645,-0.8862 -1.99397,-0.517 -3.32328,-1.0339 -1.32932,-0.5908 -1.84627,-0.9601 l 1.84627,-5.908 q 1.62471,0.8123 4.80029,1.8462 3.24944,1.0339 8.12358,1.0339 3.98794,0 7.01582,-1.2554 3.10173,-1.3293 5.2434,-3.6926 2.21552,-2.3632 3.39714,-5.6126 1.25546,-3.3233 1.55086,-7.3851 l -22.59832,0 0,-6.0558 22.45062,0 q -0.36925,-3.8402 -1.62472,-6.9419 -1.18161,-3.1018 -3.32328,-5.3173 -2.14167,-2.2155 -5.16955,-3.3971 -3.02788,-1.2555 -6.94197,-1.2555 -4.87414,0 -8.04973,1.0339 -3.10173,0.9601 -4.72644,1.7725 l -1.84627,-5.6865 q 0.51695,-0.3693 1.77242,-0.9601 1.32931,-0.5908 3.32328,-1.1078 1.99397,-0.5908 4.57874,-0.96 2.65863,-0.3693 5.76036,-0.3693 5.3911,0 9.82215,1.8463 4.43104,1.7724 7.60662,5.2434 3.17558,3.3971 4.87415,8.3451 1.77242,4.948 1.77242,11.2992 z"
         style="font-style:normal;font-variant:normal;font-weight:normal;font-stretch:normal;line-height:89.99999762%;font-family:Ubuntu;-inkscape-font-specification:Ubuntu;letter-spacing:0px;fill:#333333"
         id="path4184" />
      <path
         d="m -418.79444,1079.2303 q 10.78221,0 16.54257,4.1356 5.8342,4.0618 5.8342,12.1854 0,4.431 -1.62471,7.6066 -1.55087,3.1017 -4.57875,5.0957 -2.95403,1.9201 -7.23737,2.8063 -4.28334,0.8862 -9.67444,0.8862 l -5.68651,0 0,18.9797 -7.16352,0 0,-50.4401 q 3.02788,-0.7385 6.72042,-0.96 3.76638,-0.2954 6.86811,-0.2954 z m 0.59081,6.2773 q -4.57874,0 -7.01582,0.2215 l 0,20.0874 5.3911,0 q 3.69254,0 6.64657,-0.4431 2.95403,-0.5169 4.948,-1.6247 2.06782,-1.1816 3.17558,-3.1756 1.10776,-1.9939 1.10776,-5.0957 0,-2.954 -1.18161,-4.8741 -1.10776,-1.9201 -3.10173,-3.0279 -1.92012,-1.1816 -4.5049,-1.6247 -2.58477,-0.4431 -5.46495,-0.4431 z"
         style="font-style:normal;font-variant:normal;font-weight:normal;font-stretch:normal;line-height:89.99999762%;font-family:Ubuntu;-inkscape-font-specification:Ubuntu;letter-spacing:0px;fill:#333333"
         id="path4186" />
    </g>
    <g
       style="font-style:normal;font-weight:normal;font-size:60.49015808px;line-height:125%;font-family:Sans;letter-spacing:0px;word-spacing:0px;fill:#808080;fill-opacity:1;stroke:none"
       id="text3113">
      <path
         d="m -780.46818,1183.5494 0,-23.8936 -5.92803,0 0,-4.1738 5.92803,0 0,-2.5406 q 0,-3.2665 0.90736,-5.3836 0.90735,-2.1777 2.35911,-3.5084 1.51226,-1.3308 3.44794,-1.8752 1.99618,-0.5444 4.17382,-0.5444 2.17765,0 4.35529,0.4839 2.23814,0.4839 4.17382,1.1493 l -0.90735,4.2948 q -1.33078,-0.6654 -3.32696,-1.1493 -1.99617,-0.4839 -4.05284,-0.4839 -1.27029,0 -2.4196,0.3629 -1.08883,0.3025 -1.93569,1.1493 -0.84686,0.7864 -1.33078,2.1777 -0.48392,1.3307 -0.48392,3.3874 l 0,2.4801 11.31166,0 0,4.1738 -11.31166,0 0,23.8936 -4.9602,0 z"
         style="font-style:normal;font-variant:normal;font-weight:normal;font-stretch:normal;font-family:'Ubuntu Mono';-inkscape-font-specification:'Ubuntu Mono';fill:#808080"
         id="path4145" />
      <path
         d="m -744.53702,1179.9805 q 1.87519,0 3.32696,-0.121 1.51225,-0.1209 2.48009,-0.3024 l 0,-8.3477 q -0.96784,-0.3024 -2.35911,-0.4839 -1.33079,-0.1814 -2.84304,-0.1814 -1.39127,0 -2.72206,0.2419 -1.33078,0.1815 -2.35911,0.7259 -1.02834,0.5444 -1.69373,1.4518 -0.66539,0.8468 -0.66539,2.1776 0,2.7221 1.8147,3.8109 1.8752,1.0283 5.02069,1.0283 z m -0.48392,-25.1639 q 3.14548,0 5.26264,0.7864 2.17765,0.7864 3.50843,2.1776 1.33078,1.3913 1.87519,3.3875 0.54442,1.9962 0.54442,4.3553 l 0,17.5421 q -1.75422,0.3025 -4.65775,0.7259 -2.84303,0.4234 -5.86754,0.4234 -2.29863,0 -4.47627,-0.4234 -2.17765,-0.3629 -3.87137,-1.3308 -1.69373,-1.0283 -2.72206,-2.7825 -1.02833,-1.7542 -1.02833,-4.4763 0,-2.4196 1.02833,-4.0528 1.08882,-1.6938 2.72206,-2.7221 1.69372,-1.0283 3.81088,-1.4518 2.17764,-0.4839 4.35529,-0.4839 2.96401,0 5.80705,0.6654 l 0,-1.3913 q 0,-1.2703 -0.30245,-2.4196 -0.24196,-1.2098 -1.02833,-2.1776 -0.72588,-0.9679 -2.05667,-1.5123 -1.27029,-0.6049 -3.32696,-0.6049 -2.60107,0 -4.53676,0.363 -1.93568,0.3629 -2.96401,0.7258 l -0.60491,-4.1133 q 1.02834,-0.4839 3.38745,-0.8468 2.41961,-0.363 5.14167,-0.363 z"
         style="font-style:normal;font-variant:normal;font-weight:normal;font-stretch:normal;font-family:'Ubuntu Mono';-inkscape-font-specification:'Ubuntu Mono';fill:#808080"
         id="path4147" />
      <path
         d="m -709.27126,1184.2148 q -2.66157,0 -4.41578,-0.7259 -1.75422,-0.7258 -2.78255,-2.1776 -1.02833,-1.4518 -1.45176,-3.5689 -0.42343,-2.1777 -0.42343,-5.0207 l 0,-26.5552 -8.10569,0 0,-4.2343 13.06588,0 0,30.7895 q 0,2.1172 0.24196,3.4479 0.30245,1.3308 0.84686,2.1777 0.6049,0.7864 1.45177,1.0888 0.84686,0.3025 1.99617,0.3025 1.75421,0 3.26647,-0.4235 1.51225,-0.4234 2.35912,-0.9073 l 0.72588,4.2343 q -0.36294,0.1815 -1.02834,0.4839 -0.66539,0.242 -1.57274,0.4839 -0.90735,0.242 -1.99618,0.4235 -1.02833,0.1814 -2.17764,0.1814 z"
         style="font-style:normal;font-variant:normal;font-weight:normal;font-stretch:normal;font-family:'Ubuntu Mono';-inkscape-font-specification:'Ubuntu Mono';fill:#808080"
         id="path4149" />
      <path
         d="m -684.04686,1179.9805 q 1.87519,0 3.32695,-0.121 1.51226,-0.1209 2.4801,-0.3024 l 0,-8.3477 q -0.96784,-0.3024 -2.35912,-0.4839 -1.33078,-0.1814 -2.84303,-0.1814 -1.39128,0 -2.72206,0.2419 -1.33078,0.1815 -2.35912,0.7259 -1.02833,0.5444 -1.69372,1.4518 -0.66539,0.8468 -0.66539,2.1776 0,2.7221 1.8147,3.8109 1.8752,1.0283 5.02069,1.0283 z m -0.48393,-25.1639 q 3.14549,0 5.26265,0.7864 2.17764,0.7864 3.50843,2.1776 1.33078,1.3913 1.87519,3.3875 0.54441,1.9962 0.54441,4.3553 l 0,17.5421 q -1.75421,0.3025 -4.65774,0.7259 -2.84304,0.4234 -5.86754,0.4234 -2.29863,0 -4.47628,-0.4234 -2.17764,-0.3629 -3.87137,-1.3308 -1.69372,-1.0283 -2.72205,-2.7825 -1.02834,-1.7542 -1.02834,-4.4763 0,-2.4196 1.02834,-4.0528 1.08882,-1.6938 2.72205,-2.7221 1.69373,-1.0283 3.81088,-1.4518 2.17765,-0.4839 4.3553,-0.4839 2.96401,0 5.80705,0.6654 l 0,-1.3913 q 0,-1.2703 -0.30245,-2.4196 -0.24196,-1.2098 -1.02833,-2.1776 -0.72589,-0.9679 -2.05667,-1.5123 -1.27029,-0.6049 -3.32696,-0.6049 -2.60107,0 -4.53676,0.363 -1.93568,0.3629 -2.96402,0.7258 l -0.6049,-4.1133 q 1.02833,-0.4839 3.38745,-0.8468 2.41961,-0.363 5.14166,-0.363 z"
         style="font-style:normal;font-variant:normal;font-weight:normal;font-stretch:normal;font-family:'Ubuntu Mono';-inkscape-font-specification:'Ubuntu Mono';fill:#808080"
         id="path4151" />
      <path
         d="m -664.93197,1156.2684 q 2.72205,-0.6654 5.38362,-1.0284 2.72206,-0.3629 5.08117,-0.3629 5.62559,0 8.46862,2.9035 2.90353,2.9036 2.90353,9.3155 l 0,16.4533 -4.96019,0 0,-15.5459 q 0,-2.7221 -0.48392,-4.4158 -0.48392,-1.6937 -1.39128,-2.6011 -0.84686,-0.9678 -2.11715,-1.3308 -1.2098,-0.3629 -2.66157,-0.3629 -1.2098,0 -2.60107,0.1815 -1.33079,0.1209 -2.60108,0.3629 l 0,23.7121 -5.02068,0 0,-27.281 z"
         style="font-style:normal;font-variant:normal;font-weight:normal;font-stretch:normal;font-family:'Ubuntu Mono';-inkscape-font-specification:'Ubuntu Mono';fill:#808080"
         id="path4153" />
      <path
         d="m -617.74964,1176.5326 q 0,-1.5123 -1.2703,-2.4801 -1.2098,-0.9679 -3.085,-1.6937 -1.8147,-0.7259 -3.99235,-1.3913 -2.17764,-0.7259 -4.05284,-1.7542 -1.8147,-1.0284 -3.08499,-2.5406 -1.20981,-1.5123 -1.20981,-3.9319 0,-3.3874 2.72206,-5.6256 2.78255,-2.2986 8.65009,-2.2986 2.29863,0 4.71823,0.363 2.4801,0.3024 4.23432,0.8468 l -0.90736,4.4763 q -0.48392,-0.242 -1.33078,-0.4839 -0.84686,-0.3025 -1.93569,-0.484 -1.08882,-0.2419 -2.35911,-0.3629 -1.2098,-0.121 -2.35912,-0.121 -6.53293,0 -6.53293,3.5689 0,1.2703 1.2098,2.1777 1.27029,0.8469 3.14549,1.5727 1.87519,0.7259 4.05284,1.5123 2.17764,0.7259 4.05284,1.8147 1.87519,1.0888 3.085,2.6616 1.27029,1.5122 1.27029,3.8713 0,3.8109 -2.96402,5.9281 -2.96402,2.0566 -9.37597,2.0566 -2.90353,0 -5.32314,-0.4839 -2.4196,-0.4839 -4.59725,-1.4518 l 0.96784,-4.5367 q 2.11716,0.9678 4.41579,1.6332 2.35911,0.6049 5.02068,0.6049 6.83539,0 6.83539,-3.4479 z"
         style="font-style:normal;font-variant:normal;font-weight:normal;font-stretch:normal;font-family:'Ubuntu Mono';-inkscape-font-specification:'Ubuntu Mono';fill:#808080"
         id="path4155" />
      <path
         d="m -594.03751,1155.482 11.85607,0 0,4.1738 -11.85607,0 0,13.0659 q 0,2.1172 0.30245,3.4479 0.30245,1.3308 0.96784,2.1777 0.72589,0.7864 1.81471,1.0888 1.08882,0.3025 2.66157,0.3025 2.17764,0 3.50842,-0.363 1.33079,-0.3629 2.54059,-0.9678 l 0.72588,4.2343 q -0.84686,0.3629 -2.72205,0.9678 -1.81471,0.6049 -4.53677,0.6049 -3.14548,0 -5.14166,-0.7259 -1.99617,-0.7258 -3.14549,-2.1776 -1.08882,-1.4518 -1.51225,-3.5689 -0.42343,-2.1777 -0.42343,-5.0207 l 0,-13.0659 -5.92804,0 0,-4.1738 5.92804,0 0,-7.8637 4.96019,-0.8469 0,8.7106 z"
         style="font-style:normal;font-variant:normal;font-weight:normal;font-stretch:normal;font-family:'Ubuntu Mono';-inkscape-font-specification:'Ubuntu Mono';fill:#808080"
         id="path4157" />
      <path
         d="m -562.8246,1154.8166 q 5.68608,0 8.77108,3.5689 3.085,3.5085 3.085,10.7068 l 0,1.7542 -20.08274,0 q 0.30245,4.3553 2.84304,6.6539 2.60108,2.2382 7.25882,2.2382 2.66157,0 4.53676,-0.4235 1.8752,-0.4234 2.84304,-0.9073 l 0.66539,4.2343 q -0.90735,0.4839 -3.26647,1.0283 -2.35911,0.5444 -5.32313,0.5444 -3.62941,0 -6.41196,-1.0888 -2.72206,-1.1493 -4.53676,-3.085 -1.81471,-1.9357 -2.72206,-4.5972 -0.90735,-2.7221 -0.90735,-5.8676 0,-3.7504 1.14931,-6.5329 1.14932,-2.7826 3.02451,-4.5973 1.8752,-1.8147 4.23431,-2.722 2.35912,-0.9074 4.83921,-0.9074 z m 6.7749,11.9771 q 0,-3.569 -1.87519,-5.6256 -1.8752,-2.1172 -4.9602,-2.1172 -1.75421,0 -3.20597,0.6654 -1.39128,0.6654 -2.41961,1.7542 -1.02833,1.0889 -1.63323,2.4801 -0.60491,1.3913 -0.78638,2.8431 l 14.88058,0 z"
         style="font-style:normal;font-variant:normal;font-weight:normal;font-stretch:normal;font-family:'Ubuntu Mono';-inkscape-font-specification:'Ubuntu Mono';fill:#808080"
         id="path4159" />
      <path
         d="m -541.77401,1183.5494 0,-26.5551 q 6.16999,-2.1172 12.46097,-2.1172 1.93568,0 3.6899,0.1815 1.75421,0.121 3.87137,0.6049 l -0.90735,4.4158 q -1.93569,-0.5445 -3.44794,-0.6654 -1.45177,-0.1815 -3.20598,-0.1815 -3.6899,0 -7.50078,1.0283 l 0,23.2887 -4.96019,0 z"
         style="font-style:normal;font-variant:normal;font-weight:normal;font-stretch:normal;font-family:'Ubuntu Mono';-inkscape-font-specification:'Ubuntu Mono';fill:#808080"
         id="path4161" />
      <path
         d="m -498.40256,1179.6781 q 0,1.8147 -1.20981,3.2059 -1.2098,1.3913 -3.20597,1.3913 -2.05667,0 -3.26647,-1.3913 -1.20981,-1.3912 -1.20981,-3.2059 0,-1.8752 1.20981,-3.2665 1.2098,-1.3913 3.26647,-1.3913 1.99617,0 3.20597,1.3913 1.20981,1.3913 1.20981,3.2665 z"
         style="font-style:normal;font-variant:normal;font-weight:normal;font-stretch:normal;font-family:'Ubuntu Mono';-inkscape-font-specification:'Ubuntu Mono';fill:#808080"
         id="path4163" />
      <path
         d="m -478.4408,1156.5103 q 0.90735,-0.5444 2.60107,-1.0888 1.75422,-0.6049 3.87137,-0.6049 2.84304,0 5.08118,1.0888 2.23813,1.0889 3.75039,3.0245 1.57274,1.9357 2.35911,4.6578 0.84687,2.6616 0.84687,5.928 0,3.3875 -0.96785,6.1095 -0.96784,2.7221 -2.72205,4.6578 -1.75422,1.8752 -4.23431,2.9035 -2.4801,1.0283 -5.50461,1.0283 -3.32696,0 -5.92803,-0.4839 -2.60108,-0.4839 -4.17383,-0.9678 l 0,-40.2865 5.02069,-0.8468 0,14.8805 z m 0,22.6838 q 1.14931,0.3025 2.29862,0.484 1.14932,0.1209 2.17765,0.1209 4.17382,0 6.53294,-2.5405 2.35911,-2.6011 2.35911,-7.7428 0,-2.1776 -0.42343,-4.0528 -0.42343,-1.9357 -1.33078,-3.2665 -0.90735,-1.3913 -2.35912,-2.1776 -1.39127,-0.7864 -3.38745,-0.7864 -1.75421,0 -3.38745,0.7259 -1.63323,0.6654 -2.48009,1.4517 l 0,17.7841 z"
         style="font-style:normal;font-variant:normal;font-weight:normal;font-stretch:normal;font-family:'Ubuntu Mono';-inkscape-font-specification:'Ubuntu Mono';fill:#808080"
         id="path4165" />
      <path
         d="m -454.42623,1188.8121 q 0.54441,0.3024 1.51225,0.4839 1.02833,0.1815 1.8752,0.1815 2.96401,0 4.59725,-1.3308 1.69372,-1.2703 3.085,-4.2343 -3.38745,-6.412 -6.35147,-13.7313 -2.96402,-7.3798 -4.8997,-14.6991 l 5.44411,0 q 0.6049,2.4196 1.39127,5.2626 0.84687,2.7826 1.8752,5.7466 1.02833,2.964 2.17765,5.9885 1.2098,2.9641 2.54058,5.6861 0.96784,-2.7825 1.81471,-5.5046 0.84686,-2.722 1.57274,-5.4441 0.72588,-2.7826 1.45176,-5.6256 0.72589,-2.9035 1.51226,-6.1095 l 5.20215,0 q -1.93568,7.8637 -4.35529,15.2435 -2.35912,7.3798 -5.08117,13.6708 -1.02833,2.4196 -2.23814,4.1738 -1.14931,1.7542 -2.54058,2.9035 -1.39128,1.1494 -3.14549,1.6938 -1.75422,0.5444 -3.99235,0.5444 -1.14932,0 -2.54059,-0.3025 -1.33078,-0.3024 -1.8147,-0.5444 l 0.90735,-4.0528 z"
         style="font-style:normal;font-variant:normal;font-weight:normal;font-stretch:normal;font-family:'Ubuntu Mono';-inkscape-font-specification:'Ubuntu Mono';fill:#808080"
         id="path4167" />
    </g>
    <g
       style="font-style:normal;font-weight:normal;font-size:629.9317627px;line-height:125%;font-family:Sans;letter-spacing:0px;word-spacing:0px;fill:#ff6600;fill-opacity:1;stroke:none"
       id="text3129">
      <path
         d="m -562.83286,768.51129 -6.92925,5.66939 0,141.73465 38.42583,0 40.31564,-80.00134 -59.84352,-66.14283 -11.9687,-1.25987 z m -90.71018,-139.84485 -12.59863,-0.62993 104.56867,9.44898 0,51.6544 30.86666,-9.44897 106.45846,41.57549 21.41768,120.31697 -34.01631,130.39587 -88.19045,25.82721 -52.28434,3.14964 15.7483,67.4027 -109.60813,0 0,-67.4027 -40.31563,-2.51971 -84.41086,-41.5755 -41.57549,-116.53738 34.64624,-109.60812 102.04895,-47.24488 30.23672,0 17.00816,-54.80407 z m 0,141.10472 0,1.88979 -42.20543,-5.03945 -56.06392,81.89113 52.91426,78.74147 42.20543,-17.00816 -5.66938,-59.84352 8.81904,-80.63126 z"
         style="font-style:normal;font-variant:normal;font-weight:600;font-stretch:normal;font-family:a_AlternaBrk;-inkscape-font-specification:'a_AlternaBrk Semi-Bold';fill:#ff6600"
         id="path4142" />
    </g>
  </g>
</svg>
