<?xml version="1.0" encoding="UTF-8" standalone="no"?>
<!-- Created with Inkscape (http://www.inkscape.org/) -->

<svg
   xmlns:dc="http://purl.org/dc/elements/1.1/"
   xmlns:cc="http://creativecommons.org/ns#"
   xmlns:rdf="http://www.w3.org/1999/02/22-rdf-syntax-ns#"
   xmlns:svg="http://www.w3.org/2000/svg"
   xmlns="http://www.w3.org/2000/svg"
   xmlns:sodipodi="http://sodipodi.sourceforge.net/DTD/sodipodi-0.dtd"
   xmlns:inkscape="http://www.inkscape.org/namespaces/inkscape"
   width="495"
   height="400"
   id="svg2"
   version="1.1"
   inkscape:version="0.48.4 r9939"
   sodipodi:docname="evs_logo_path.svg"
   inkscape:export-filename="/home/svet/Dropbox/falanster/design/logo/evs/evs_logo_path.png"
   inkscape:export-xdpi="181.8"
   inkscape:export-ydpi="181.8">
  <defs
     id="defs4" />
  <sodipodi:namedview
     id="base"
     pagecolor="#ffffff"
     bordercolor="#666666"
     borderopacity="1.0"
     inkscape:pageopacity="0.0"
     inkscape:pageshadow="2"
     inkscape:zoom="0.7"
     inkscape:cx="284.32355"
     inkscape:cy="278.65098"
     inkscape:document-units="px"
     inkscape:current-layer="layer1"
     showgrid="false"
     fit-margin-top="0"
     fit-margin-left="0"
     fit-margin-right="0"
     fit-margin-bottom="0"
     inkscape:window-width="1301"
     inkscape:window-height="744"
     inkscape:window-x="65"
     inkscape:window-y="24"
     inkscape:window-maximized="1" />
  <metadata
     id="metadata7">
    <rdf:RDF>
      <cc:Work
         rdf:about="">
        <dc:format>image/svg+xml</dc:format>
        <dc:type
           rdf:resource="http://purl.org/dc/dcmitype/StillImage" />
        <dc:title></dc:title>
      </cc:Work>
    </rdf:RDF>
  </metadata>
  <g
     inkscape:label="Layer 1"
     inkscape:groupmode="layer"
     id="layer1"
     transform="translate(-29.428572,-97.505028)">
    <rect
       style="fill:none;fill-opacity:1;fill-rule:nonzero;stroke:none"
       id="rect2995"
       width="495"
       height="400"
       x="29.428572"
       y="97.505028" />
    <rect
       style="fill:#2c5aa0;fill-opacity:1;fill-rule:nonzero;stroke:none"
       id="rect2993"
       width="495"
       height="308"
       x="29.428572"
       y="97.505028" />
    <g
       style="font-size:314.50521851px;font-style:normal;font-variant:normal;font-weight:normal;font-stretch:normal;line-height:125%;letter-spacing:0px;word-spacing:0px;fill:#ffffff;fill-opacity:1;stroke:none;font-family:Ubuntu Mono;-inkscape-font-specification:Ubuntu Mono"
       id="text2985">
      <path
         d="m 170.44457,366.51649 2.20154,-3.45956 -40.57118,0 -28.30547,1.88703 -38.369634,-4.08857 0,-73.27971 2.201537,-35.8536 0,-29.87799 -3.145052,-44.97425 -3.459558,-28.93448 34.595574,-5.34659 35.539093,-1.88703 38.68414,7.23362 0,40.88568 -54.0949,-7.54813 -4.40307,43.08722 57.55445,0 -3.45955,38.99865 -50.32084,0 -6.2901,56.29643 61.64302,0 0,46.86128"
         style="font-weight:600;fill:#ffffff;font-family:a_AlternaBrk;-inkscape-font-specification:a_AlternaBrk Semi-Bold"
         id="path3042" />
      <path
         d="m 244.59901,185.99049 -0.31451,-3.14505 -3.45955,43.08721 18.87031,-2.20153 19.81383,-24.2169 -14.46724,-16.03977 -20.44284,2.51604 m 0.62901,77.36829 -3.45956,-1.57253 0,58.18346 19.49933,7.23362 26.41843,-27.04744 -22.32987,-41.20019 -20.12833,4.40308 m -50.32084,105.35924 4.40308,-8.17713 1.88703,-30.1925 -3.77406,-42.45821 -2.51605,-36.1681 5.6611,-36.1681 -2.20154,-35.22458 0,-40.88568 37.11162,2.83055 28.30547,0 56.61094,12.89471 9.74966,39.62766 -21.38636,48.1193 22.95888,54.09489 -9.43515,50.32084 -50.32084,21.70086 -38.68414,-8.17714 -38.36964,7.86263"
         style="font-weight:600;fill:#ffffff;font-family:a_AlternaBrk;-inkscape-font-specification:a_AlternaBrk Semi-Bold"
         id="path3044" />
      <path
         d="m 494.73876,232.85177 0,-2.20154 -47.17578,-4.08857 2.20154,-24.5314 -24.2169,-21.70086 -12.26571,22.01536 -3.45956,30.82151 0,69.82016 21.07185,20.44284 19.18482,-14.46724 -3.77406,-45.91776 44.97425,7.86263 0,21.07185 -13.20922,56.29643 -45.91777,23.27339 -52.20786,-16.66878 -13.83823,-65.73159 -4.40307,-34.59557 0,-40.57117 10.69317,-56.92545 59.75599,-18.2413 45.60326,15.09625 18.2413,60.69951 -1.25802,18.2413"
         style="font-weight:600;fill:#ffffff;font-family:a_AlternaBrk;-inkscape-font-specification:a_AlternaBrk Semi-Bold"
         id="path3046" />
    </g>
    <g
       style="font-size:72px;font-style:normal;font-variant:normal;font-weight:normal;font-stretch:normal;line-height:125%;letter-spacing:0px;word-spacing:0px;fill:#333333;fill-opacity:1;stroke:none;font-family:Ubuntu Mono;-inkscape-font-specification:Ubuntu Mono"
       id="text2989">
      <path
         d="m 92.602287,470.64792 -5.976,0 0,-28.44 -13.824,0 0,28.44 -5.976,0 0,-33.408 25.776,0 0,33.408"
         style=""
         id="path3017" />
      <path
         d="m 116.07429,466.39992 c 1.48798,0 2.80798,-0.048 3.96,-0.144 1.19997,-0.096 2.18397,-0.216 2.952,-0.36 l 0,-9.936 c -0.76803,-0.23999 -1.70403,-0.43199 -2.808,-0.576 -1.05602,-0.14399 -2.18402,-0.21599 -3.384,-0.216 -1.10402,1e-5 -2.18402,0.096 -3.24,0.288 -1.05602,0.14401 -1.99202,0.43201 -2.808,0.864 -0.81602,0.43201 -1.48801,1.00801 -2.016,1.728 -0.52801,0.67201 -0.79201,1.53601 -0.792,2.592 -10e-6,2.16001 0.71999,3.67201 2.16,4.536 1.48798,0.816 3.47998,1.224 5.976,1.224 m -0.576,-29.952 c 2.49598,3e-5 4.58397,0.31203 6.264,0.936 1.72797,0.62403 3.11997,1.48803 4.176,2.592 1.05597,1.10403 1.79997,2.44803 2.232,4.032 0.43197,1.58402 0.64797,3.31202 0.648,5.184 l 0,20.88 c -1.39203,0.24 -3.24003,0.528 -5.544,0.864 -2.25603,0.336 -4.58402,0.504 -6.984,0.504 -1.82402,0 -3.60002,-0.168 -5.328,-0.504 -1.72801,-0.288 -3.26401,-0.816 -4.608,-1.584 -1.34401,-0.816 -2.42401,-1.92 -3.24,-3.312 -0.81601,-1.392 -1.22401,-3.16799 -1.224,-5.328 -10e-6,-1.91999 0.40799,-3.52799 1.224,-4.824 0.86399,-1.34399 1.94399,-2.42398 3.24,-3.24 1.34399,-0.81598 2.85599,-1.39198 4.536,-1.728 1.72798,-0.38398 3.45598,-0.57598 5.184,-0.576 2.35198,2e-5 4.65597,0.26402 6.912,0.792 l 0,-1.656 c -3e-5,-1.00798 -0.12003,-1.96798 -0.36,-2.88 -0.19203,-0.95998 -0.60003,-1.82398 -1.224,-2.592 -0.57603,-0.76797 -1.39203,-1.36797 -2.448,-1.8 -1.00802,-0.47997 -2.32802,-0.71997 -3.96,-0.72 -2.06402,3e-5 -3.86402,0.14403 -5.4,0.432 -1.53601,0.28803 -2.71201,0.57603 -3.528,0.864 l -0.72,-4.896 c 0.81599,-0.38397 2.15999,-0.71997 4.032,-1.008 1.91998,-0.28797 3.95998,-0.43197 6.12,-0.432"
         style=""
         id="path3019" />
      <path
         d="m 143.79429,449.55192 15.84,0 0,5.616 -15.84,0 0,-5.616"
         style=""
         id="path3021" />
      <path
         d="m 179.36229,441.05592 c 1.24799,-1.05597 2.68798,-1.87197 4.32,-2.448 1.63198,-0.57597 3.23998,-0.86397 4.824,-0.864 4.75197,3e-5 8.32797,1.46403 10.728,4.392 2.39996,2.92802 3.59996,7.00802 3.6,12.24 -4e-5,2.25601 -0.31204,4.41601 -0.936,6.48 -0.57603,2.06401 -1.48803,3.888 -2.736,5.472 -1.20003,1.584 -2.76003,2.856 -4.68,3.816 -1.92003,0.912 -4.17602,1.368 -6.768,1.368 -2.97602,0 -5.42402,-0.552 -7.344,-1.656 -1.87201,-1.152 -3.36001,-2.688 -4.464,-4.608 -1.10401,-1.91999 -1.87201,-4.15199 -2.304,-6.696 -0.43201,-2.59199 -0.64801,-5.32798 -0.648,-8.208 -10e-6,-3.74398 0.23999,-7.19997 0.72,-10.368 0.52799,-3.21597 1.48799,-6.04796 2.88,-8.496 1.39199,-2.44796 3.28799,-4.46396 5.688,-6.048 2.44798,-1.63195 5.59198,-2.73595 9.432,-3.312 1.19997,-0.19195 2.20797,-0.33595 3.024,-0.432 0.86397,-0.14395 1.63197,-0.26395 2.304,-0.36 0.67197,-0.096 1.27197,-0.16795 1.8,-0.216 0.52797,-0.096 1.07997,-0.21595 1.656,-0.36 l 0.648,5.184 c -0.28803,0.096 -0.60003,0.19204 -0.936,0.288 -0.33603,0.048 -0.79203,0.12004 -1.368,0.216 -0.57603,0.048 -1.34403,0.14404 -2.304,0.288 -0.91203,0.096 -2.11203,0.21604 -3.6,0.36 -4.12802,0.52804 -7.29602,1.87204 -9.504,4.032 -2.20801,2.11204 -3.55201,5.42403 -4.032,9.936 m -0.36,10.224 c -10e-6,2.01602 0.11999,3.93601 0.36,5.76 0.23999,1.82401 0.67199,3.45601 1.296,4.896 0.67199,1.39201 1.55998,2.496 2.664,3.312 1.15198,0.816 2.61598,1.224 4.392,1.224 1.58398,0 2.95198,-0.312 4.104,-0.936 1.15197,-0.672 2.08797,-1.55999 2.808,-2.664 0.71997,-1.10399 1.24797,-2.37599 1.584,-3.816 0.38397,-1.48799 0.57597,-3.04799 0.576,-4.68 -3e-5,-1.43998 -0.14403,-2.85598 -0.432,-4.248 -0.28803,-1.43998 -0.79203,-2.68798 -1.512,-3.744 -0.72003,-1.10398 -1.68003,-1.99198 -2.88,-2.664 -1.20002,-0.67197 -2.71202,-1.00797 -4.536,-1.008 -1.72802,3e-5 -3.36002,0.43203 -4.896,1.296 -1.48801,0.81602 -2.66401,1.77602 -3.528,2.88 l 0,4.392"
         style=""
         id="path3023" />
      <path
         d="m 224.36229,436.44792 c 4.51197,3e-5 7.99197,1.41603 10.44,4.248 2.44797,2.78403 3.67196,7.03202 3.672,12.744 l 0,2.088 -23.904,0 c 0.23999,3.45601 1.36799,6.09601 3.384,7.92 2.06398,1.776 4.94398,2.664 8.64,2.664 2.11197,0 3.91197,-0.168 5.4,-0.504 1.48797,-0.336 2.61597,-0.696 3.384,-1.08 l 0.792,5.04 c -0.72003,0.384 -2.01603,0.792 -3.888,1.224 -1.87203,0.432 -3.98403,0.648 -6.336,0.648 -2.88002,0 -5.42402,-0.432 -7.632,-1.296 -2.16001,-0.912 -3.96001,-2.136 -5.4,-3.672 -1.44001,-1.536 -2.52001,-3.35999 -3.24,-5.472 -0.72001,-2.15999 -1.08001,-4.48799 -1.08,-6.984 -1e-5,-2.97598 0.45599,-5.56798 1.368,-7.776 0.91199,-2.20797 2.11199,-4.03197 3.6,-5.472 1.48799,-1.43997 3.16799,-2.51997 5.04,-3.24 1.87198,-0.71997 3.79198,-1.07997 5.76,-1.08 m 8.064,14.256 c -3e-5,-2.83198 -0.74403,-5.06398 -2.232,-6.696 -1.48803,-1.67997 -3.45602,-2.51997 -5.904,-2.52 -1.39202,3e-5 -2.66402,0.26403 -3.816,0.792 -1.10402,0.52803 -2.06402,1.22403 -2.88,2.088 -0.81601,0.86402 -1.46401,1.84802 -1.944,2.952 -0.48001,1.10402 -0.79201,2.23202 -0.936,3.384 l 17.712,0"
         style=""
         id="path3025" />
      <path
         d="m 258.63429,442.20792 c -2e-5,1.44003 -0.048,2.97602 -0.144,4.608 -0.048,1.58402 -0.16802,3.19202 -0.36,4.824 -0.14402,1.58402 -0.36002,3.16801 -0.648,4.752 -0.28802,1.53601 -0.67202,2.97601 -1.152,4.32 -0.96002,2.73601 -2.42402,5.088 -4.392,7.056 -1.96801,1.968 -4.77601,3.144 -8.424,3.528 l -0.864,-5.04 c 2.11199,-0.384 3.76799,-1.152 4.968,-2.304 1.24799,-1.19999 2.23199,-2.63999 2.952,-4.32 0.62399,-1.43999 1.07999,-3.07199 1.368,-4.896 0.33599,-1.82398 0.57599,-3.74398 0.72,-5.76 0.14399,-2.01598 0.21599,-4.03198 0.216,-6.048 -1e-5,-2.01597 -1e-5,-3.91197 0,-5.688 l 19.728,0 0,33.408 -5.976,0 0,-28.44 -7.992,0"
         style=""
         id="path3027" />
      <path
         d="m 296.07429,466.39992 c 1.48798,0 2.80798,-0.048 3.96,-0.144 1.19997,-0.096 2.18397,-0.216 2.952,-0.36 l 0,-9.936 c -0.76803,-0.23999 -1.70403,-0.43199 -2.808,-0.576 -1.05602,-0.14399 -2.18402,-0.21599 -3.384,-0.216 -1.10402,1e-5 -2.18402,0.096 -3.24,0.288 -1.05602,0.14401 -1.99202,0.43201 -2.808,0.864 -0.81602,0.43201 -1.48801,1.00801 -2.016,1.728 -0.52801,0.67201 -0.79201,1.53601 -0.792,2.592 -10e-6,2.16001 0.71999,3.67201 2.16,4.536 1.48798,0.816 3.47998,1.224 5.976,1.224 m -0.576,-29.952 c 2.49598,3e-5 4.58397,0.31203 6.264,0.936 1.72797,0.62403 3.11997,1.48803 4.176,2.592 1.05597,1.10403 1.79997,2.44803 2.232,4.032 0.43197,1.58402 0.64797,3.31202 0.648,5.184 l 0,20.88 c -1.39203,0.24 -3.24003,0.528 -5.544,0.864 -2.25603,0.336 -4.58402,0.504 -6.984,0.504 -1.82402,0 -3.60002,-0.168 -5.328,-0.504 -1.72801,-0.288 -3.26401,-0.816 -4.608,-1.584 -1.34401,-0.816 -2.42401,-1.92 -3.24,-3.312 -0.81601,-1.392 -1.22401,-3.16799 -1.224,-5.328 -10e-6,-1.91999 0.40799,-3.52799 1.224,-4.824 0.86399,-1.34399 1.94399,-2.42398 3.24,-3.24 1.34399,-0.81598 2.85599,-1.39198 4.536,-1.728 1.72798,-0.38398 3.45598,-0.57598 5.184,-0.576 2.35198,2e-5 4.65597,0.26402 6.912,0.792 l 0,-1.656 c -3e-5,-1.00798 -0.12003,-1.96798 -0.36,-2.88 -0.19203,-0.95998 -0.60003,-1.82398 -1.224,-2.592 -0.57603,-0.76797 -1.39203,-1.36797 -2.448,-1.8 -1.00802,-0.47997 -2.32802,-0.71997 -3.96,-0.72 -2.06402,3e-5 -3.86402,0.14403 -5.4,0.432 -1.53601,0.28803 -2.71201,0.57603 -3.528,0.864 l -0.72,-4.896 c 0.81599,-0.38397 2.15999,-0.71997 4.032,-1.008 1.91998,-0.28797 3.95998,-0.43197 6.12,-0.432"
         style=""
         id="path3029" />
      <path
         d="m 340.71429,454.01592 c -3e-5,-3.88798 -0.91203,-6.88798 -2.736,-9 -1.82403,-2.15997 -4.20002,-3.23997 -7.128,-3.24 -1.63202,3e-5 -2.92802,0.072 -3.888,0.216 -0.91202,0.14403 -1.63201,0.31203 -2.16,0.504 l 0,21.096 c 0.67199,0.62401 1.65598,1.2 2.952,1.728 1.29598,0.528 2.63998,0.792 4.032,0.792 1.58398,0 2.92798,-0.312 4.032,-0.936 1.15197,-0.624 2.08797,-1.46399 2.808,-2.52 0.71997,-1.10399 1.24797,-2.37599 1.584,-3.816 0.33597,-1.48799 0.50397,-3.09599 0.504,-4.824 m 6.12,0 c -4e-5,2.54401 -0.33604,4.89601 -1.008,7.056 -0.62403,2.11201 -1.56003,3.936 -2.808,5.472 -1.20003,1.536 -2.68803,2.736 -4.464,3.6 -1.77603,0.864 -3.79202,1.296 -6.048,1.296 -1.77602,0 -3.33602,-0.216 -4.68,-0.648 -1.34402,-0.432 -2.35201,-0.912 -3.024,-1.44 l 0,13.176 -5.976,0 0,-44.28 c 1.29599,-0.38397 2.95199,-0.76797 4.968,-1.152 2.06398,-0.38397 4.41598,-0.57597 7.056,-0.576 2.39998,3e-5 4.58398,0.40803 6.552,1.224 1.96797,0.81603 3.64797,1.99203 5.04,3.528 1.39197,1.48803 2.47197,3.31202 3.24,5.472 0.76796,2.16002 1.15196,4.58402 1.152,7.272"
         style=""
         id="path3031" />
      <path
         d="m 353.38629,476.91192 c 0.43199,0.23999 1.03199,0.43199 1.8,0.576 0.81599,0.14399 1.55999,0.21599 2.232,0.216 2.35199,-10e-6 4.17598,-0.52801 5.472,-1.584 1.34398,-1.00801 2.56798,-2.688 3.672,-5.04 -2.68802,-5.088 -5.20801,-10.53599 -7.56,-16.344 -2.35201,-5.85598 -4.29601,-11.68797 -5.832,-17.496 l 6.48,0 c 0.47999,1.92003 1.03199,4.00803 1.656,6.264 0.67198,2.20802 1.41598,4.48802 2.232,6.84 0.81598,2.35202 1.67998,4.72801 2.592,7.128 0.95998,2.35201 1.96798,4.60801 3.024,6.768 0.76798,-2.20799 1.48798,-4.39199 2.16,-6.552 0.67197,-2.15999 1.29597,-4.31998 1.872,-6.48 0.57597,-2.20798 1.15197,-4.43998 1.728,-6.696 0.57597,-2.30397 1.17597,-4.72797 1.8,-7.272 l 6.192,0 c -1.53603,6.24003 -3.26403,12.28802 -5.184,18.144 -1.87203,5.85601 -3.88803,11.28 -6.048,16.272 -0.81602,1.92 -1.70402,3.57599 -2.664,4.968 -0.91202,1.39199 -1.92002,2.54399 -3.024,3.456 -1.10402,0.91199 -2.35202,1.58399 -3.744,2.016 -1.39201,0.43199 -2.97601,0.64799 -4.752,0.648 -0.91201,-10e-6 -1.92001,-0.12001 -3.024,-0.36 -1.05601,-0.24001 -1.77601,-0.45601 -2.16,-0.648 l 1.08,-4.824"
         style=""
         id="path3033" />
      <path
         d="m 389.24229,454.01592 c -1e-5,-3.02398 0.47999,-5.63998 1.44,-7.848 0.95999,-2.20797 2.27999,-4.03197 3.96,-5.472 1.67999,-1.43997 3.62398,-2.49597 5.832,-3.168 2.25598,-0.71997 4.65598,-1.07997 7.2,-1.08 1.63197,3e-5 3.23997,0.12003 4.824,0.36 1.63197,0.19203 3.35997,0.57603 5.184,1.152 l -1.368,5.112 c -1.58403,-0.57597 -3.04803,-0.93597 -4.392,-1.08 -1.29603,-0.19197 -2.61603,-0.28797 -3.96,-0.288 -1.72802,3e-5 -3.36002,0.24003 -4.896,0.72 -1.53602,0.43203 -2.88002,1.15203 -4.032,2.16 -1.10402,0.96002 -1.99201,2.23202 -2.664,3.816 -0.67201,1.53602 -1.00801,3.40802 -1.008,5.616 -10e-6,2.11201 0.31199,3.93601 0.936,5.472 0.62399,1.48801 1.48798,2.73601 2.592,3.744 1.15198,0.96001 2.51998,1.68 4.104,2.16 1.58398,0.48 3.33598,0.72 5.256,0.72 1.53597,0 2.99997,-0.072 4.392,-0.216 1.43997,-0.192 2.99997,-0.576 4.68,-1.152 l 0.864,4.968 c -1.68003,0.624 -3.38403,1.056 -5.112,1.296 -1.72803,0.288 -3.60003,0.432 -5.616,0.432 -2.68802,0 -5.16002,-0.36 -7.416,-1.08 -2.20802,-0.768 -4.12801,-1.872 -5.76,-3.312 -1.58401,-1.44 -2.83201,-3.23999 -3.744,-5.4 -0.86401,-2.20799 -1.29601,-4.75199 -1.296,-7.632"
         style=""
         id="path3035" />
      <path
         d="m 438.85029,452.28792 c 1.29598,0.96002 2.75998,2.18401 4.392,3.672 1.63197,1.44001 3.23997,3.00001 4.824,4.68 1.63197,1.68001 3.16797,3.40801 4.608,5.184 1.43996,1.728 2.59196,3.336 3.456,4.824 l -7.056,0 c -0.91203,-1.488 -2.04003,-3 -3.384,-4.536 -1.34403,-1.584 -2.78402,-3.09599 -4.32,-4.536 -1.48802,-1.43999 -3.00002,-2.75999 -4.536,-3.96 -1.48802,-1.19999 -2.83202,-2.20799 -4.032,-3.024 l 0,16.056 -5.976,0 0,-33.408 5.976,0 0,13.968 c 2.63998,-2.30398 5.27998,-4.58398 7.92,-6.84 2.63998,-2.30397 5.01597,-4.67997 7.128,-7.128 l 6.984,0 c -2.06403,2.44803 -4.56003,4.96803 -7.488,7.56 -2.88003,2.59202 -5.71202,5.08802 -8.496,7.488"
         style=""
         id="path3037" />
      <path
         d="m 461.38629,476.91192 c 0.43199,0.23999 1.03199,0.43199 1.8,0.576 0.81599,0.14399 1.55999,0.21599 2.232,0.216 2.35199,-10e-6 4.17598,-0.52801 5.472,-1.584 1.34398,-1.00801 2.56798,-2.688 3.672,-5.04 -2.68802,-5.088 -5.20801,-10.53599 -7.56,-16.344 -2.35201,-5.85598 -4.29601,-11.68797 -5.832,-17.496 l 6.48,0 c 0.47999,1.92003 1.03199,4.00803 1.656,6.264 0.67198,2.20802 1.41598,4.48802 2.232,6.84 0.81598,2.35202 1.67998,4.72801 2.592,7.128 0.95998,2.35201 1.96798,4.60801 3.024,6.768 0.76798,-2.20799 1.48798,-4.39199 2.16,-6.552 0.67197,-2.15999 1.29597,-4.31998 1.872,-6.48 0.57597,-2.20798 1.15197,-4.43998 1.728,-6.696 0.57597,-2.30397 1.17597,-4.72797 1.8,-7.272 l 6.192,0 c -1.53603,6.24003 -3.26403,12.28802 -5.184,18.144 -1.87203,5.85601 -3.88803,11.28 -6.048,16.272 -0.81602,1.92 -1.70402,3.57599 -2.664,4.968 -0.91202,1.39199 -1.92002,2.54399 -3.024,3.456 -1.10402,0.91199 -2.35202,1.58399 -3.744,2.016 -1.39201,0.43199 -2.97601,0.64799 -4.752,0.648 -0.91201,-10e-6 -1.92001,-0.12001 -3.024,-0.36 -1.05601,-0.24001 -1.77601,-0.45601 -2.16,-0.648 l 1.08,-4.824"
         style=""
         id="path3039" />
    </g>
  </g>
</svg>
