<?xml version="1.0" encoding="UTF-8" standalone="no"?>
<!-- Created with Inkscape (http://www.inkscape.org/) -->

<svg
   xmlns:dc="http://purl.org/dc/elements/1.1/"
   xmlns:cc="http://creativecommons.org/ns#"
   xmlns:rdf="http://www.w3.org/1999/02/22-rdf-syntax-ns#"
   xmlns:svg="http://www.w3.org/2000/svg"
   xmlns="http://www.w3.org/2000/svg"
   xmlns:sodipodi="http://sodipodi.sourceforge.net/DTD/sodipodi-0.dtd"
   xmlns:inkscape="http://www.inkscape.org/namespaces/inkscape"
   width="297mm"
   height="210mm"
   viewBox="0 0 1052.3623 744.09448"
   id="svg4185"
   version="1.1"
   inkscape:version="0.92.3 (2405546, 2018-03-11)"
   sodipodi:docname="doika_banner_parts.svg"
   inkscape:export-filename="/home/svet/Pictures/doika/doika_banner_curves.svg.png"
   inkscape:export-xdpi="299.98267"
   inkscape:export-ydpi="299.98267">
  <defs
     id="defs4187" />
  <sodipodi:namedview
     id="base"
     pagecolor="#ffffff"
     bordercolor="#666666"
     borderopacity="1.0"
     inkscape:pageopacity="0.0"
     inkscape:pageshadow="2"
     inkscape:zoom="0.16"
     inkscape:cx="2033.9061"
     inkscape:cy="-863.79899"
     inkscape:document-units="px"
     inkscape:current-layer="layer1"
     showgrid="false"
     fit-margin-top="0"
     fit-margin-left="0"
     fit-margin-right="0"
     fit-margin-bottom="0"
     inkscape:window-width="1366"
     inkscape:window-height="701"
     inkscape:window-x="0"
     inkscape:window-y="30"
     inkscape:window-maximized="1" />
  <metadata
     id="metadata4190">
    <rdf:RDF>
      <cc:Work
         rdf:about="">
        <dc:format>image/svg+xml</dc:format>
        <dc:type
           rdf:resource="http://purl.org/dc/dcmitype/StillImage" />
        <dc:title></dc:title>
      </cc:Work>
    </rdf:RDF>
  </metadata>
  <g
     inkscape:label="Layer 1"
     inkscape:groupmode="layer"
     id="layer1"
     transform="translate(1308.0506,582.39693)">
    <g
       aria-label=" "
       style="font-style:normal;font-weight:normal;font-size:195.49060059px;line-height:0%;font-family:sans-serif;letter-spacing:0px;word-spacing:0px;fill:#000000;fill-opacity:1;stroke:none;stroke-width:16.29088402px;stroke-linecap:butt;stroke-linejoin:miter;stroke-opacity:1"
       id="text4142" />
    <g
       id="g278"
       transform="translate(41.43204,2303.6214)">
      <path
         sodipodi:nodetypes="cczczzccccczczc"
         inkscape:connector-curvature="0"
         id="path2989-3-23-1"
         d="m -136.6993,-762.64682 c 0,0 86.644692,183.9244 67.387238,434.23172 -13.215165,134.23704 -23.778175,546.40292 273.895372,447.42815 297.6817,-98.97429 -90.92105,-503.05924 4.88401,-980.59244 363.65977,161.13426 400.68407,537.06709 528.72227,641.24045 128.03494,104.17288 464.34561,-89.95598 238.17761,-337.61798 -226.1696,-247.66265 -351.99224,-334.80322 -405.70492,-606.48238 190.42578,-41.8908 398.03354,47.3036 554.33972,194.83867 347.9667,244.09474 563.2312,-110.63297 297.8038,-284.72547 -162.0519,-126.8011 -383.243,-38.2853 -643.41657,-332.7623 292.84007,-147.944 309.68317,-55.9277 585.62637,-75.5173 476.2688,-38.9988 304.3723,-421.3972 59.3297,-395.5466 -245.0377,25.8515 -499.07446,166.0495 -668.53875,63.9573 -314.65517,-1120.574 -1514.50158,-954.9072 -1881.21755,-378.1761 -366.7143,576.7314 -97.3624,1681.54573 988.7117,1609.72428 z"
         style="fill:#ff80b2;stroke:#ff80b2;stroke-width:55.59307098;stroke-linecap:round;stroke-linejoin:round;stroke-miterlimit:4;stroke-dasharray:none;stroke-opacity:1" />
      <g
         id="text3759-6-9-6-6-0"
         style="font-style:normal;font-variant:normal;font-weight:normal;font-stretch:normal;font-size:195.49060059px;line-height:0%;font-family:'Ubuntu Mono';-inkscape-font-specification:'Ubuntu Mono';letter-spacing:0px;word-spacing:0px;fill:#333333;fill-opacity:1;stroke:none;stroke-width:16.29088402"
         aria-label="Do
 ">
        <path
           id="path119"
           style="font-size:1338.31518555px;line-height:1.25;stroke-width:16.29088402"
           d="m -308.69197,-2142.8018 q 0,115.0951 -29.44293,195.394 -28.10462,80.2989 -78.9606,131.1549 -49.51766,49.5177 -119.11005,72.269 -68.25408,22.7514 -148.55299,22.7514 -82.97554,0 -167.2894,-20.0747 v -802.9891 q 84.31386,-20.0748 167.2894,-20.0748 80.29891,0 148.55299,22.7514 69.59239,22.7514 119.11005,73.6073 50.85598,50.856 78.9606,131.1549 29.44293,80.2989 29.44293,194.0557 z m -433.61412,322.534 q 33.45788,4.0149 68.25407,4.0149 60.22419,0 107.06522,-17.3981 46.84103,-18.7364 78.96059,-57.5475 32.11957,-40.1495 49.51767,-101.712 17.39809,-62.9008 17.39809,-149.8913 0,-168.6277 -65.57744,-247.5883 -64.23913,-78.9606 -191.37907,-78.9606 -17.3981,0 -34.7962,1.3383 -16.05978,0 -29.44293,2.6767 z"
           inkscape:connector-curvature="0" />
        <path
           id="path121"
           style="font-size:1338.31518555px;line-height:1.25;stroke-width:16.29088402"
           d="m 360.46562,-2038.4132 q 0,73.6073 -21.41304,133.8315 -20.07473,58.8859 -57.54755,101.712 -37.47283,42.8261 -89.66712,66.9157 -52.19429,22.7514 -113.756792,22.7514 -60.224183,0 -112.418475,-22.7514 -50.855977,-24.0896 -88.328803,-66.9157 -37.47282,-42.8261 -58.88587,-101.712 -20.07473,-60.2242 -20.07473,-133.8315 0,-73.6073 20.07473,-133.8315 21.41305,-60.2242 58.88587,-101.712 37.472826,-42.8261 88.328803,-65.5774 52.194292,-24.0897 112.418475,-24.0897 61.562502,0 113.756792,24.0897 52.19429,22.7513 89.66712,65.5774 37.47282,41.4878 57.54755,101.712 21.41304,60.2242 21.41304,133.8315 z m -113.75679,0 q 0,-105.7269 -45.50271,-165.9511 -45.50272,-61.5625 -123.125002,-61.5625 -76.2839652,0 -121.786681,61.5625 -44.164402,60.2242 -44.164402,165.9511 0,104.3886 44.164402,165.9511 45.5027158,60.2242 121.786681,60.2242 77.622282,0 123.125002,-60.2242 45.50271,-61.5625 45.50271,-165.9511 z"
           inkscape:connector-curvature="0" />
      </g>
      <g
         id="text3765-3-7-2-3-2"
         style="font-style:normal;font-variant:normal;font-weight:normal;font-stretch:normal;font-size:195.49060059px;line-height:0%;font-family:'Ubuntu Mono';-inkscape-font-specification:'Ubuntu Mono';letter-spacing:0px;word-spacing:0px;fill:#333333;fill-opacity:1;stroke:#333333;stroke-width:13.89826775;stroke-miterlimit:4;stroke-dasharray:none"
         aria-label="ika">
        <path
           id="path124"
           style="font-size:854.29815674px;line-height:1.25;stroke-width:13.89826775"
           d="m -729.55728,-1504.6055 q -22.21175,0 -38.44341,-15.3773 -16.23167,-15.3774 -16.23167,-41.8606 0,-26.4833 16.23167,-41.8607 16.23166,-15.3773 38.44341,-15.3773 23.06605,0 38.44342,15.3773 16.23167,15.3774 16.23167,41.8607 0,26.4832 -16.23167,41.8606 -15.37737,15.3773 -38.44342,15.3773 z m -17.94026,120.4561 h -114.47595 v -58.9466 h 184.5284 v 243.475 q 0,58.9465 16.23167,79.4497 16.23166,19.6489 48.69499,19.6489 24.77465,0 45.2778,-5.9801 21.35746,-5.9801 33.31763,-12.8145 l 10.25158,59.8009 q -5.12579,2.5629 -14.52307,6.8344 -9.39728,3.4171 -22.21175,6.8343 -11.96018,3.4172 -27.33754,5.9801 -14.52307,2.5629 -30.75474,2.5629 -37.58911,0 -62.36376,-10.2516 -24.77465,-10.2515 -40.15201,-30.7547 -14.52307,-20.5031 -20.50316,-50.4036 -5.98009,-30.7547 -5.98009,-70.9067 z"
           inkscape:connector-curvature="0" />
        <path
           id="path126"
           style="font-size:854.29815674px;line-height:1.25;stroke-width:13.89826775"
           d="m -277.63355,-1264.5477 q 23.06605,17.086 52.11219,43.5692 29.04613,25.629 57.23797,55.5294 29.04614,29.9004 54.67508,61.5095 25.62895,30.7547 41.006316,57.2379 h -83.721216 q -16.23167,-26.4832 -40.15202,-53.8207 -23.92034,-28.1919 -51.25789,-53.8208 -26.48324,-25.629 -53.82078,-46.9864 -26.48324,-21.3575 -47.8407,-35.8805 v 190.5084 h -70.90674 v -580.0684 l 70.90674,-11.9602 v 361.3681 q 46.9864,-41.0063 93.9728,-81.1583 46.9864,-41.0063 84.57552,-84.5755 h 82.86692 q -36.73482,43.5692 -88.84701,89.7013 -51.25789,46.1321 -100.80718,88.847 z"
           inkscape:connector-curvature="0" />
        <path
           id="path128"
           style="font-size:854.29815674px;line-height:1.25;stroke-width:13.89826775"
           d="m 164.0386,-1097.1053 q 26.48324,0 46.98639,-1.7085 21.35746,-1.7086 35.02623,-4.2715 v -117.8932 q -13.66877,-4.2715 -33.31763,-6.8344 -18.79456,-2.5629 -40.15201,-2.5629 -19.64886,0 -38.44342,3.4172 -18.79456,2.5629 -33.31763,10.2516 -14.523066,7.6887 -23.920346,20.5032 -9.39728,11.9601 -9.39728,30.7547 0,38.4434 25.628945,53.8208 26.483241,14.523 70.906751,14.523 z m -6.83439,-355.388 q 44.4235,0 74.32394,11.1059 30.75473,11.1059 49.54929,30.7547 18.79456,19.6489 26.48325,47.8407 7.68868,28.1919 7.68868,61.5095 v 247.7465 q -24.77465,4.2714 -65.78096,10.2515 -40.15201,5.9801 -82.86692,5.9801 -32.46333,0 -63.21806,-5.9801 -30.754737,-5.1258 -54.675085,-18.7945 -23.920349,-14.5231 -38.443417,-39.2977 -14.523069,-24.7747 -14.523069,-63.2181 0,-34.1719 14.523069,-57.238 15.377366,-23.9203 38.443417,-38.4434 23.920348,-14.5231 53.820785,-20.5032 30.75473,-6.8343 61.50947,-6.8343 41.86061,0 82.01262,9.3972 v -19.6488 q 0,-17.9403 -4.27149,-34.1719 -3.41719,-17.086 -14.52307,-30.7548 -10.25158,-13.6687 -29.04614,-21.3574 -17.94026,-8.543 -46.9864,-8.543 -36.73482,0 -64.072358,5.1258 -27.337541,5.1258 -41.86061,10.2516 l -8.542981,-58.0923 q 14.523068,-6.8344 47.840696,-11.9602 34.171923,-5.1258 72.615343,-5.1258 z"
           inkscape:connector-curvature="0" />
      </g>
      <path
         sodipodi:nodetypes="cc"
         inkscape:connector-curvature="0"
         id="path4140"
         d="m -1194.0933,-1040.4203 c 234.27265,350.02599 702.17453,497.99136 996.29341,446.16974"
         style="fill:none;fill-rule:evenodd;stroke:none;stroke-width:36.14668274px;stroke-linecap:butt;stroke-linejoin:miter;stroke-opacity:1" />
      <g
         id="text4146"
         style="font-style:normal;font-variant:normal;font-weight:normal;font-stretch:normal;font-size:87.56350708px;line-height:0%;font-family:'Ubuntu Mono';-inkscape-font-specification:'Ubuntu Mono';letter-spacing:0px;word-spacing:0px;fill:#1a1a1a;fill-opacity:1;stroke:none;stroke-width:1px;stroke-linecap:butt;stroke-linejoin:miter;stroke-opacity:1"
         aria-label="doika.falanster.by">
        <path
           id="path132"
           d="m 841.75563,-2061.6419 q -0.99607,-1.3441 -3.14328,-2.7249 -2.13113,-1.467 -4.62731,-1.9331 -2.84048,-0.5305 -5.11527,0.2026 -2.18871,0.7493 -3.84957,2.4879 -1.64478,1.6525 -2.76172,4.2944 -1.10086,2.5558 -1.67957,5.6545 -1.3021,6.9721 1.26144,11.3703 2.56355,4.3982 7.81414,5.3787 2.66834,0.4984 4.52414,0.5777 1.94188,0.096 2.85086,0 z m 5.03157,-26.9416 7.3693,0.1292 -10.9312,58.5312 q -2.45264,0.2546 -6.1964,0.268 -3.74377,0.013 -8.56398,-0.8868 -4.30376,-0.8037 -7.55957,-2.9261 -3.25581,-2.1224 -5.25365,-5.2569 -1.98178,-3.2206 -2.63559,-7.3512 -0.65382,-4.1306 0.2464,-8.9508 0.86806,-4.6481 2.69436,-8.2264 1.92844,-3.6483 4.68081,-5.9848 2.75236,-2.3364 6.14043,-3.3071 3.47414,-0.9545 7.51968,-0.199 3.18478,0.5948 5.45021,1.8196 2.26543,1.2248 3.30973,2.3106 z"
           inkscape:connector-curvature="0" />
        <path
           id="path134"
           d="m 891.46982,-2042.096 q -0.59022,4.7796 -2.46358,8.5186 -1.77573,3.6628 -4.55243,6.1432 -2.7767,2.4804 -6.3591,3.6262 -3.57166,1.0588 -7.56922,0.5652 -3.91066,-0.4829 -7.11746,-2.3788 -3.10916,-1.9721 -5.19906,-5.0534 -2.08989,-3.0814 -3.00817,-7.0769 -0.82064,-4.0716 -0.23042,-8.8513 0.59022,-4.7797 2.37668,-8.5294 1.87337,-3.7389 4.63934,-6.1324 2.77669,-2.4805 6.26146,-3.5501 3.58239,-1.1457 7.49305,-0.6628 3.99756,0.4937 7.19363,2.4764 3.2068,1.8959 5.29669,4.9773 2.10063,2.9945 2.92127,7.0661 0.90754,4.0824 0.31732,8.8621 z m -7.38679,-0.9122 q 0.84777,-6.8654 -1.62403,-11.1409 -2.46108,-4.3624 -7.50148,-4.9848 -4.95349,-0.6117 -8.40185,3.021 -3.35072,3.5565 -4.1985,10.4219 -0.83704,6.7784 1.53713,11.1301 2.47181,4.2755 7.42531,4.8872 5.04039,0.6224 8.47802,-2.9233 3.44836,-3.6327 4.2854,-10.4112 z"
           inkscape:connector-curvature="0" />
        <path
           id="path136"
           d="m 911.33893,-2068.2423 q -2.2765,-0.026 -3.92206,-1.6211 -1.64556,-1.5951 -1.6145,-4.3094 0.0311,-2.7143 1.7127,-4.2713 1.68164,-1.557 3.95814,-1.5309 2.36406,0.027 3.92206,1.6211 1.64556,1.5951 1.6145,4.3094 -0.0311,2.7143 -1.7127,4.2713 -1.59408,1.558 -3.95814,1.5309 z m -1.98,12.3246 -11.73274,-0.1343 0.0691,-6.0414 18.91248,0.2164 -0.28559,24.954 q -0.0691,6.0414 1.57041,8.1619 1.64055,2.0328 4.96775,2.0709 2.53917,0.029 4.64757,-0.5598 2.19596,-0.5878 3.42979,-1.2743 l 0.98055,6.1411 q -0.52836,0.2567 -1.4965,0.6834 -0.96715,0.3392 -2.28452,0.6744 -1.22982,0.3362 -2.80886,0.5809 -1.49149,0.2456 -3.15509,0.2266 -3.85254,-0.044 -6.37969,-1.1239 -2.52715,-1.0797 -4.07914,-3.1991 -1.46444,-2.1185 -2.04227,-5.19 -0.57683,-3.1591 -0.52973,-7.2743 z"
           inkscape:connector-curvature="0" />
        <path
           id="path138"
           d="m 955.10393,-2045.1897 q 2.50932,1.5361 5.71406,3.9777 3.19704,2.3544 6.34542,5.1526 3.23561,2.7905 6.13775,5.7863 2.89443,2.9086 4.70361,5.4736 l -8.54785,0.7561 q -1.8964,-2.5573 -4.58552,-5.1324 -2.69684,-2.6624 -5.71943,-5.0322 -2.93536,-2.3775 -5.91937,-4.3112 -2.89679,-1.9414 -5.20852,-3.2313 l 1.72045,19.4507 -7.2395,0.6403 -5.23851,-59.2244 7.13149,-1.8614 3.26346,36.8953 q 4.42694,-4.611 8.8616,-9.1348 4.42694,-4.6111 7.87129,-9.3989 l 8.46062,-0.7484 q -3.35712,4.7802 -8.26111,9.9608 -4.81676,5.173 -9.48994,9.9816 z"
           inkscape:connector-curvature="0" />
        <path
           id="path140"
           d="m 1001.0574,-2033.9578 q 2.6747,-0.4631 4.7155,-0.9942 2.1272,-0.546 3.4628,-1.0439 l -2.0615,-11.9066 q -1.4552,-0.1924 -3.4844,-0.1076 -1.943,0.07 -4.09999,0.4432 -1.98443,0.3436 -3.82283,1.0174 -1.85334,0.5875 -3.18566,1.618 -1.33231,1.0304 -2.05731,2.489 -0.73994,1.3722 -0.41129,3.2704 0.67223,3.8825 3.52952,4.9874 2.92863,1.0037 7.41516,0.2269 z m -6.90463,-35.7729 q 4.48655,-0.7768 7.70053,-0.178 3.3003,0.5838 5.542,2.2396 2.2418,1.6558 3.5113,4.3686 1.2694,2.7128 1.852,6.0777 l 4.3322,25.0211 q -2.4274,0.8647 -6.4643,2.1857 -3.9506,1.306 -8.2645,2.053 -3.27868,0.5676 -6.48932,0.5015 -3.1957,0.02 -5.85055,-0.9421 -2.66979,-1.0485 -4.56977,-3.2967 -1.89997,-2.2481 -2.57221,-6.1307 -0.59754,-3.4512 0.46588,-6.0347 1.13476,-2.6848 3.21036,-4.5549 2.16188,-1.885 5.07711,-3.0118 2.98656,-1.228 6.09264,-1.7658 4.22766,-0.732 8.44716,-0.485 l -0.3436,-1.9845 q -0.3137,-1.8118 -1.0289,-3.3765 -0.6439,-1.6658 -2.0045,-2.8521 -1.2744,-1.2012 -3.30702,-1.6491 -1.96126,-0.5491 -4.89478,-0.041 -3.71003,0.6424 -6.38135,1.6381 -2.67133,0.9957 -4.04845,1.7674 l -1.87862,-5.7177 q 1.34725,-0.9442 4.62253,-2.0445 3.36156,-1.1152 7.24416,-1.7874 z"
           inkscape:connector-curvature="0" />
        <path
           id="path142"
           d="m 1049.4054,-2044.6574 q 0.5909,2.5595 -0.6624,4.9158 -1.2533,2.3563 -4.0688,3.0064 -2.9008,0.6698 -5.0603,-0.8986 -2.1594,-1.5683 -2.7504,-4.1279 -0.6107,-2.6449 0.6426,-5.0012 1.2533,-2.3563 4.1542,-3.0261 2.8155,-0.65 4.9749,0.9183 2.1595,1.5684 2.7702,4.2133 z"
           inkscape:connector-curvature="0" />
        <path
           id="path144"
           d="m 1079.3596,-2046.0982 -8.2531,-33.5885 -8.3334,2.0476 -1.4417,-5.8673 8.3334,-2.0476 -0.8776,-3.5715 q -1.1282,-4.5918 -0.584,-7.8814 0.5233,-3.3747 2.1045,-5.7469 1.6661,-2.3931 4.1992,-3.827 2.6181,-1.4548 5.6793,-2.207 3.0612,-0.7522 6.2896,-0.8241 3.3134,-0.093 6.2644,0.174 l 0.2079,6.3508 q -2.1006,-0.4757 -5.0738,-0.4664 -2.9733,0.01 -5.8645,0.7196 -1.7857,0.4387 -3.276,1.3459 -1.4261,0.8013 -2.3241,2.2843 -0.9189,1.398 -1.1186,3.5209 -0.2206,2.0379 0.4898,4.9291 l 0.8567,3.4864 15.9014,-3.9072 1.4416,5.8673 -15.9013,3.9072 8.2531,33.5885 z"
           inkscape:connector-curvature="0" />
        <path
           id="path146"
           d="m 1128.5695,-2063.6804 q 2.6321,-0.6636 4.6271,-1.3472 2.0798,-0.7049 3.3741,-1.3022 l -2.954,-11.7171 q -1.4655,-0.082 -3.4826,0.1556 -1.9322,0.2162 -4.0548,0.7514 -1.9529,0.4923 -3.7352,1.3029 -1.8037,0.7256 -3.0545,1.8537 -1.2508,1.128 -1.8636,2.6371 -0.6343,1.4242 -0.1634,3.2921 0.9633,3.8208 3.8958,4.707 2.996,0.7798 7.4111,-0.3333 z m -9.5841,-35.15 q 4.4151,-1.1131 7.6651,-0.7585 3.335,0.3332 5.6953,1.8151 2.3602,1.4819 3.8308,4.0912 1.4706,2.6092 2.3054,5.9206 l 6.2077,24.623 q -2.3552,1.0453 -6.2809,2.6671 -3.8408,1.6004 -8.0861,2.6707 -3.2265,0.8135 -6.433,0.9897 -3.185,0.2612 -5.9049,-0.4979 -2.7413,-0.8441 -4.8055,-2.9425 -2.0642,-2.0984 -3.0275,-5.9192 -0.8562,-3.3962 0.01,-6.0526 0.929,-2.7627 2.8576,-4.7841 2.0135,-2.0428 4.8354,-3.3863 2.8854,-1.4499 5.942,-2.2205 4.1604,-1.0489 8.3865,-1.121 l -0.4923,-1.9529 q -0.4496,-1.783 -1.2808,-3.2892 -0.7678,-1.6125 -2.214,-2.6928 -1.3614,-1.1016 -3.422,-1.3948 -1.9971,-0.3996 -4.8839,0.3282 -3.651,0.9205 -6.2396,2.1149 -2.5886,1.1945 -3.9036,2.0678 l -2.3046,-5.5596 q 1.2721,-1.0432 4.455,-2.3874 3.2679,-1.3657 7.0887,-2.329 z"
           inkscape:connector-curvature="0" />
        <path
           id="path148"
           d="m 1179.5597,-2070.2653 q -3.7352,0.9446 -6.4547,0.5486 -2.7194,-0.3961 -4.6778,-2.0685 -1.9585,-1.6724 -3.3041,-4.4933 -1.3672,-2.9058 -2.3762,-6.8956 l -9.4252,-37.267 -11.3754,2.8769 -1.5029,-5.9423 18.3364,-4.6375 10.9281,43.2094 q 0.7514,2.9711 1.5633,4.7529 0.8968,1.7602 1.9614,2.7554 1.128,0.8889 2.4238,1.0128 1.2958,0.1239 2.9088,-0.284 2.4618,-0.6227 4.4338,-1.7536 1.972,-1.131 2.9887,-2.1107 l 2.5215,5.6847 q -0.4449,0.3835 -1.2714,1.0441 -0.8479,0.5757 -2.0353,1.2373 -1.1875,0.6616 -2.6512,1.3028 -1.3787,0.6196 -2.9916,1.0276 z"
           inkscape:connector-curvature="0" />
        <path
           id="path150"
           d="m 1213.4955,-2085.1024 q 2.6343,-0.6545 4.6316,-1.3312 2.0823,-0.6978 3.3786,-1.2906 l -2.9137,-11.7272 q -1.4652,-0.087 -3.4831,0.1436 -1.9329,0.2096 -4.0574,0.7374 -1.9545,0.4856 -3.7396,1.2901 -1.8062,0.7194 -3.0609,1.8431 -1.2546,1.1238 -1.8727,2.6307 -0.6392,1.422 -0.1747,3.2916 0.9502,3.8241 3.8796,4.7203 2.9933,0.7901 7.4123,-0.3078 z m -9.4632,-35.1827 q 4.419,-1.0979 7.6678,-0.7322 3.3337,0.3447 5.6889,1.8347 2.3552,1.4901 3.8167,4.1044 1.4616,2.6143 2.285,5.9285 l 6.123,24.6442 q -2.3589,1.0372 -6.2901,2.6455 -3.8463,1.5872 -8.0952,2.6429 -3.2293,0.8023 -6.4364,0.9675 -3.1859,0.2502 -5.9032,-0.5183 -2.7383,-0.8534 -4.7953,-2.9589 -2.0569,-2.1055 -3.0071,-5.9296 -0.8445,-3.3992 0.03,-6.0526 0.9384,-2.7595 2.874,-4.7742 2.0205,-2.0358 4.847,-3.3697 2.8903,-1.4399 5.9496,-2.2 4.164,-1.0346 8.3903,-1.0921 l -0.4856,-1.9546 q -0.4434,-1.7845 -1.2694,-3.2936 -0.7622,-1.6151 -2.2048,-2.7003 -1.3576,-1.1064 -3.4171,-1.4067 -1.9957,-0.4064 -4.8851,0.3115 -3.6541,0.9079 -6.2468,2.0934 -2.5926,1.1855 -3.9106,2.0543 l -2.2856,-5.5675 q 1.2758,-1.0388 4.4633,-2.3721 3.2725,-1.3544 7.0966,-2.3045 z"
           inkscape:connector-curvature="0" />
        <path
           id="path152"
           d="m 1232.4555,-2125.1519 q 3.61,-1.8499 7.2363,-3.2537 3.7114,-1.424 7.0334,-2.2152 7.9219,-1.8867 12.8992,1.2485 5.0624,3.1149 7.2129,12.1441 l 5.5181,23.1692 -6.9848,1.6635 -5.2138,-21.8915 q -0.913,-3.8331 -2.1625,-6.0559 -1.2495,-2.2228 -2.8315,-3.1962 -1.5171,-1.0788 -3.4276,-1.1639 -1.8254,-0.1053 -3.8697,0.3816 -1.7036,0.4057 -3.6019,1.1279 -1.8334,0.6166 -3.5411,1.3834 l 7.9526,33.3909 -7.07,1.6839 z"
           inkscape:connector-curvature="0" />
        <path
           id="path154"
           d="m 1305.9638,-2112.0149 q -0.4709,-2.1378 -2.568,-3.1105 -2.0117,-0.9915 -4.8886,-1.4338 -2.7914,-0.4612 -6.0771,-0.7238 -3.3045,-0.3481 -6.2756,-1.218 -2.8856,-0.8887 -5.1523,-2.631 -2.1811,-1.7612 -2.9345,-5.1817 -1.0547,-4.7888 2.0965,-8.8004 3.218,-4.1159 11.5128,-5.9428 3.2495,-0.7157 6.7831,-0.956 3.6002,-0.3447 6.2497,-0.1213 l 0.111,6.6106 q -0.7595,-0.1914 -2.032,-0.2698 -1.2914,-0.1638 -2.8871,-0.081 -1.6146,0 -3.4481,0.2215 -1.7479,0.2056 -3.3727,0.5635 -9.2355,2.0341 -8.1242,7.0794 0.3955,1.7958 2.3883,2.7019 2.0594,0.8016 4.9364,1.2439 2.8769,0.4423 6.2003,0.876 3.3045,0.3481 6.2944,1.3035 2.99,0.9554 5.19,2.802 2.2666,1.7424 3.0012,5.0774 1.1865,5.3874 -2.3444,9.3033 -3.5499,3.8303 -12.6143,5.8268 -4.1047,0.904 -7.6759,0.9733 -3.5713,0.069 -6.9511,-0.6209 l -0.044,-6.7149 q 3.2944,0.709 6.7511,0.9339 3.5234,0.1206 7.286,-0.7081 9.663,-2.1283 8.5895,-7.0026 z"
           inkscape:connector-curvature="0" />
        <path
           id="path156"
           d="m 1334.1752,-2148.8761 16.8591,-3.2121 1.1308,5.9351 -16.8591,3.2121 3.5399,18.5795 q 0.5736,3.0106 1.3642,4.821 0.7906,1.8104 1.9662,2.8344 1.2453,0.9215 2.8755,1.0566 1.6302,0.1351 3.8667,-0.291 3.0965,-0.59 4.8906,-1.4666 1.794,-0.8766 3.3504,-2.0646 l 2.1794,5.8245 q -1.1059,0.7455 -3.6085,2.1137 -2.4166,1.3519 -6.2873,2.0893 -4.4729,0.8522 -7.5081,0.3609 -3.0352,-0.4914 -5.0628,-2.2444 -1.9416,-1.7694 -3.1173,-4.6653 -1.1921,-2.9818 -1.9624,-7.0246 l -3.5399,-18.5795 -8.4296,1.6061 -1.1307,-5.9352 8.4295,-1.606 -2.1305,-11.1821 6.8239,-2.5481 z"
           inkscape:connector-curvature="0" />
        <path
           id="path158"
           d="m 1380.6264,-2157.6593 q 8.1532,-1.1288 13.2852,3.3762 5.1201,4.4182 6.5491,14.7398 l 0.3483,2.5154 -28.7964,3.9869 q 1.2983,6.1849 5.3975,8.9765 4.174,2.6929 10.8527,1.7682 3.8164,-0.5283 6.4211,-1.5078 2.6048,-0.9794 3.8965,-1.8654 l 1.7947,5.9394 q -1.205,0.874 -4.4796,2.123 -3.2746,1.249 -7.5247,1.8374 -5.2042,0.7205 -9.4102,-0.2883 -4.1313,-1.1076 -7.1176,-3.5229 -2.9864,-2.4153 -4.8158,-6.0516 -1.8415,-3.723 -2.4659,-8.2333 -0.7446,-5.3776 0.351,-9.5956 1.0956,-4.2181 3.4242,-7.1924 2.3285,-2.9744 5.5311,-4.7437 3.2026,-1.7694 6.7588,-2.2618 z m 12.0922,15.8288 q -0.7086,-5.1174 -3.8057,-7.6942 -3.1091,-2.6635 -7.5326,-2.051 -2.5154,0.3482 -4.465,1.5905 -1.8628,1.2303 -3.1212,2.9957 -1.2583,1.7654 -1.8495,3.8804 -0.5911,2.115 -0.5631,4.2327 z"
           inkscape:connector-curvature="0" />
        <path
           id="path160"
           d="m 1416.5975,-2120.1613 -1.0622,-38.4257 q 8.8434,-3.3103 17.9465,-3.562 2.8009,-0.077 5.3466,0.115 2.5432,0.1049 5.6261,0.7205 l -1.1363,6.426 q -2.8228,-0.7104 -5.0158,-0.8249 -2.108,-0.2046 -4.6464,-0.1344 -5.3393,0.1476 -10.8126,1.7881 l 0.9316,33.699 z"
           inkscape:connector-curvature="0" />
        <path
           id="path162"
           d="m 1479.9204,-2122.4148 q -0.355,2.6028 -2.3624,4.3616 -2.0073,1.7588 -4.8704,1.3683 -2.9499,-0.4023 -4.4129,-2.6344 -1.4631,-2.2322 -1.1081,-4.835 0.3668,-2.6895 2.3742,-4.4484 2.0074,-1.7588 4.9572,-1.3565 2.8631,0.3905 4.3262,2.6227 1.463,2.2321 1.0962,4.9217 z"
           inkscape:connector-curvature="0" />
        <path
           id="path164"
           d="m 1516.341,-2149.889 q 1.4562,-0.4749 4.0221,-0.6957 2.6707,-0.2866 5.6581,0.3976 4.0116,0.9189 6.8177,3.1786 2.8062,2.2597 4.3144,5.4798 1.5936,3.2396 1.8235,7.3346 0.3347,4.0292 -0.721,8.6383 -1.0948,4.7798 -3.3402,8.3079 -2.2454,3.5281 -5.3462,5.6924 -3.0813,2.079 -6.9131,2.7285 -3.8319,0.6494 -8.0995,-0.3281 -4.6945,-1.0752 -8.2082,-2.5987 -3.5138,-1.5234 -5.5766,-2.7146 l 13.0203,-56.8452 7.358,0.4277 z m -7.3312,32.0074 q 1.5239,0.7983 3.087,1.4258 1.5826,0.5421 3.0336,0.8745 5.8894,1.3489 10.0392,-1.4735 4.1695,-2.9077 5.8312,-10.1627 0.7038,-3.0727 0.7124,-5.8555 0.028,-2.8682 -0.8221,-5.0392 -0.8306,-2.2564 -2.625,-3.8352 -1.7089,-1.5592 -4.5256,-2.2044 -2.4752,-0.5669 -5.0144,-0.07 -2.5196,0.411 -3.9687,1.2469 z"
           inkscape:connector-curvature="0" />
        <path
           id="path166"
           d="m 1539.0568,-2096.3804 q 0.6132,0.6609 1.8634,1.3457 1.3334,0.712 2.4986,1.0927 4.0785,1.3324 6.9241,0.2354 2.9016,-0.9865 6.1484,-4.4396 -1.7788,-10.3456 -2.567,-21.7493 -0.761,-11.487 -0.1342,-22.4285 l 7.491,2.4473 q -0.2553,3.6013 -0.4513,7.8668 -0.086,4.2094 0,8.7502 0.083,4.5407 0.3044,9.2191 0.3323,4.6223 0.9398,8.9661 2.5826,-3.3937 4.9715,-6.7585 2.3889,-3.3649 4.6114,-6.7841 2.2497,-3.5025 4.5265,-7.0882 2.304,-3.669 4.8273,-7.7269 l 7.1581,2.3386 q -6.1985,9.9503 -12.8453,19.0172 -6.5636,9.0941 -13.1371,16.5268 -2.5027,2.8671 -4.9559,4.737 -2.3701,1.8972 -4.8011,2.8532 -2.4311,0.956 -5.0896,0.9166 -2.6585,-0.039 -5.7382,-1.0456 -1.5814,-0.5167 -3.3599,-1.5583 -1.6952,-1.0144 -2.2523,-1.5648 z"
           inkscape:connector-curvature="0" />
      </g>
      <g
         id="text21"
         style="font-style:normal;font-variant:normal;font-weight:normal;font-stretch:normal;font-size:142.54524231px;line-height:0%;font-family:Ubuntu;-inkscape-font-specification:Ubuntu;letter-spacing:0px;word-spacing:0px;fill:#000000;fill-opacity:1;stroke:none;stroke-width:0.93750006"
         aria-label="                   модуль">
        <path
           id="path169"
           style="font-style:normal;font-variant:normal;font-weight:normal;font-stretch:normal;font-size:142.54524231px;font-family:Ubuntu;-inkscape-font-specification:Ubuntu;stroke:none;stroke-width:0.93750006"
           d="m -667.29576,-705.00659 q -5.95768,12.8719 -11.24175,25.97665 -5.2375,12.97003 -9.69328,24.55124 l -11.99037,-4.14475 q 3.11023,-8.12498 6.72276,-16.83043 3.6591,-8.84018 7.45292,-17.63379 3.84039,-8.92833 7.67579,-17.40592 3.88198,-8.61231 7.61926,-16.36972 l 11.45147,3.95847 q 1.8895,8.49586 3.44471,22.7582 1.60178,14.12761 3.65099,32.63289 13.03979,-13.28941 23.02421,-23.41199 10.031,-10.2573 16.76379,-15.77266 l 11.5862,4.00504 q -1.85115,8.40939 -4.11644,17.58054 -2.21873,9.03644 -4.71189,18.43047 -2.44659,9.25931 -5.0279,18.47205 -2.53474,9.07802 -5.10608,17.38928 l -12.39454,-4.28446 q 3.64744,-11.86064 7.53771,-25.29637 3.93683,-13.57045 7.20005,-27.37376 -3.59925,3.4313 -8.47752,8.38115 -4.83171,4.81512 -9.75656,9.8997 -4.79013,5.13114 -9.12453,9.81653 -4.33439,4.68539 -6.79931,7.45304 l -10.50842,-3.63247 q -0.3177,-3.88036 -0.96806,-10.28885 -0.51564,-6.36191 -1.24917,-13.40244 -0.55223,-7.12867 -1.3789,-13.89975 -0.7801,-6.9058 -1.58514,-11.55789 z"
           inkscape:connector-curvature="0" />
        <path
           id="path171"
           style="font-style:normal;font-variant:normal;font-weight:normal;font-stretch:normal;font-size:142.54524231px;font-family:Ubuntu;-inkscape-font-specification:Ubuntu;stroke:none;stroke-width:0.93750006"
           d="m -527.03222,-644.79947 q -2.20401,8.55857 -6.46619,14.82077 -4.26218,6.2622 -10.09729,10.05859 -5.69708,3.83193 -12.61992,4.99307 -6.88729,1.0231 -14.20348,-0.86097 -7.3162,-1.88408 -12.85264,-6.10656 -5.50089,-4.36051 -8.77651,-10.50311 -3.13758,-6.10705 -3.84489,-13.649 -0.70732,-7.54194 1.4967,-16.10051 2.16846,-8.42053 6.43064,-14.68273 4.29773,-6.40024 9.9948,-10.23217 5.83512,-3.79639 12.72241,-4.81949 6.92284,-1.16114 14.23903,0.72293 7.3162,1.88408 12.81709,6.2446 5.53644,4.22247 8.67402,10.32952 3.27562,6.1426 3.94738,13.82259 0.70732,7.54195 -1.46115,15.96247 z m -13.39002,-3.44821 q 3.12828,-12.14765 -0.5804,-20.60971 -3.53508,-8.56455 -12.9219,-10.98186 -9.38682,-2.4173 -16.75701,3.33891 -7.19659,5.65372 -10.32487,17.80136 -3.12828,12.14765 0.40681,20.7122 3.70867,8.46206 13.09549,10.87937 9.38682,2.4173 16.58342,-3.23641 7.37018,-5.75621 10.49846,-17.90386 z"
           inkscape:connector-curvature="0" />
        <path
           id="path173"
           style="font-style:normal;font-variant:normal;font-weight:normal;font-stretch:normal;font-size:142.54524231px;font-family:Ubuntu;-inkscape-font-specification:Ubuntu;stroke:none;stroke-width:0.93750006"
           d="m -525.1275,-617.21105 7.86235,1.37997 q 5.816,-5.92596 9.74034,-12.61811 4.06474,-6.6675 6.79942,-14.00263 2.75932,-7.47553 4.63441,-15.68514 1.89974,-8.35002 3.66653,-17.59172 l 47.87609,8.40304 -10.9412,62.33719 9.82794,1.72496 -5.44596,31.0282 -12.35512,-2.16853 3.57314,-20.35786 -54.75564,-9.61051 -3.57314,20.35786 -12.35512,-2.16852 z m 56.58083,9.93086 9.01909,-51.38606 -22.88505,-4.0167 q -1.29859,6.57411 -3.04301,13.2147 -1.71979,6.50019 -4.14157,12.87716 -2.39714,6.23658 -5.89283,12.13562 -3.33065,5.78328 -7.8756,11.06398 z"
           inkscape:connector-curvature="0" />
        <path
           id="path175"
           style="font-style:normal;font-variant:normal;font-weight:normal;font-stretch:normal;font-size:142.54524231px;font-family:Ubuntu;-inkscape-font-specification:Ubuntu;stroke:none;stroke-width:0.93750006"
           d="m -439.78689,-577.81116 q 1.49123,0.86188 3.84754,1.66509 2.48431,0.95895 4.89609,1.19468 7.8028,0.76267 12.54741,-2.35419 4.73075,-2.97499 9.04015,-10.43113 -7.27375,-17.8979 -13.21842,-37.67104 -5.78892,-19.90114 -8.9826,-39.97829 l 14.18691,1.38668 q 0.93656,6.53664 2.34353,14.12184 1.54884,7.59907 3.48168,15.66534 1.93284,8.06627 4.2913,16.17414 2.35845,8.10787 5.0561,15.676 6.84704,-14.36932 12.24765,-28.59358 5.40061,-14.22426 10.45881,-29.34133 l 13.61944,1.33121 q -7.1457,20.35556 -15.27382,39.03964 -8.11425,18.5422 -16.98585,34.57555 -3.46139,6.10678 -7.02624,10.34153 -3.43686,4.39048 -7.41666,7.0092 -3.9798,2.61871 -8.80015,3.5798 -4.67848,0.97496 -10.49511,0.40642 -1.56056,-0.15253 -3.23526,-0.60267 -1.68856,-0.30827 -3.34939,-0.90028 -1.53283,-0.43627 -2.90992,-1.00054 -1.23522,-0.55041 -1.77497,-0.88962 z"
           inkscape:connector-curvature="0" />
        <path
           id="path177"
           style="font-style:normal;font-variant:normal;font-weight:normal;font-stretch:normal;font-size:142.54524231px;font-family:Ubuntu;-inkscape-font-specification:Ubuntu;stroke:none;stroke-width:0.93750006"
           d="m -336.56228,-647.3329 q -0.0639,4.70356 -0.42245,10.11591 -0.21413,5.27175 -0.85779,10.68023 -0.64172,5.26595 -1.71104,10.5261 -1.06739,5.11761 -2.69716,9.65735 -1.62978,4.53974 -4.107,8.49774 -2.3347,3.95994 -5.79804,7.04921 -3.4614,2.94673 -8.05146,5.02279 -4.58811,1.93353 -10.72473,2.42046 l -1.70199,-11.14266 q 7.00342,-1.33051 11.04657,-5.1247 4.18567,-3.79225 6.68419,-9.3181 2.20377,-4.81707 3.2847,-10.93241 1.08093,-6.11533 1.59754,-12.666 0.51854,-6.69321 0.60948,-13.39222 0.23348,-6.69707 0.31475,-12.68342 l 49.31611,0.66952 -1.00621,74.11669 -13.25548,-0.17995 0.85527,-62.9992 z"
           inkscape:connector-curvature="0" />
        <path
           id="path179"
           style="font-style:normal;font-variant:normal;font-weight:normal;font-stretch:normal;font-size:142.54524231px;font-family:Ubuntu;-inkscape-font-specification:Ubuntu;stroke:none;stroke-width:0.93750006"
           d="m -250.87561,-596.53335 q 8.37584,-0.75908 12.90669,-4.46167 4.53085,-3.70259 3.8747,-10.94273 -0.32164,-3.54908 -1.97286,-5.97577 -1.65122,-2.42668 -4.34808,-3.7567 -2.56777,-1.48485 -5.89725,-1.89875 -3.34236,-0.55587 -7.03341,-0.22137 -3.83301,0.34738 -7.92422,1.00441 -3.96211,0.5022 -6.73705,1.46933 l 2.30295,25.41146 q 0.86465,0.0648 2.58107,0.0523 1.71643,-0.0124 3.71679,-0.0506 2.12945,-0.19298 4.27176,-0.244 2.27142,-0.20585 4.25891,-0.38597 z m -27.27206,10.20056 -6.54861,-72.2594 13.2026,-1.19651 2.56026,28.25073 q 1.10998,-0.38685 2.92977,-0.83803 1.96176,-0.46405 4.06548,-0.94096 2.24568,-0.48978 4.6462,-0.85046 2.40051,-0.36068 4.52996,-0.55366 6.10443,-0.55322 11.6277,0.37752 5.5104,0.78877 9.75555,3.40977 4.37426,2.46616 7.2122,6.93224 2.82508,4.32411 3.40404,10.71247 0.60468,6.67228 -1.24217,11.56292 -1.84685,4.89065 -5.83557,8.25785 -3.98872,3.3672 -9.8354,5.18523 -5.69184,1.94713 -12.93198,2.60328 -7.09817,0.64328 -13.98961,0.40905 -6.87858,-0.0923 -13.55042,-1.06204 z"
           inkscape:connector-curvature="0" />
      </g>
      <g
         id="text25"
         style="font-style:normal;font-variant:normal;font-weight:normal;font-stretch:normal;font-size:142.54524231px;line-height:0%;font-family:Ubuntu;-inkscape-font-specification:Ubuntu;letter-spacing:0px;word-spacing:0px;fill:#000000;fill-opacity:1;stroke:none;stroke-width:0.93750006"
         aria-label="                   прыёму">
        <path
           id="path182"
           style="font-style:normal;font-variant:normal;font-weight:normal;font-stretch:normal;font-size:142.54524231px;font-family:Ubuntu;-inkscape-font-specification:Ubuntu;stroke:none;stroke-width:0.93750006"
           d="m -640.00488,-507.38028 -12.60846,-4.09474 19.46101,-59.92411 -31.45338,-10.21483 -19.46101,59.92411 -12.60847,-4.09474 22.89531,-70.49895 56.67031,18.40431 z"
           inkscape:connector-curvature="0" />
        <path
           id="path184"
           style="font-style:normal;font-variant:normal;font-weight:normal;font-stretch:normal;font-size:142.54524231px;font-family:Ubuntu;-inkscape-font-specification:Ubuntu;stroke:none;stroke-width:0.93750006"
           d="m -559.21456,-524.50445 q 3.12354,-12.58993 -1.42035,-20.91373 -4.54388,-8.3238 -14.9202,-10.89815 -5.81073,-1.44163 -9.23413,-1.85037 -3.28504,-0.37441 -5.35925,-0.30155 l -11.25847,45.37909 q 1.87142,2.52043 5.85243,5.41738 3.98101,2.89695 9.23834,4.20128 5.53404,1.37299 9.88841,0.39716 4.52704,-1.07985 7.87547,-3.92078 3.38276,-2.97928 5.6566,-7.40861 2.30817,-4.56768 3.68115,-10.10172 z m 13.42004,3.32949 q -2.02515,8.1627 -5.955,14.53105 -3.79149,6.40267 -9.1777,10.35357 -5.38621,3.95089 -12.16015,5.20763 -6.63558,1.29106 -14.38323,-0.63112 -6.22579,-1.54461 -10.65617,-4.40618 -4.29204,-2.82724 -6.26643,-4.93262 l -7.13952,28.77698 -12.86663,-3.19218 23.64965,-95.32377 q 4.84017,0.0259 11.92829,0.46266 7.26079,0.33272 16.25359,2.56381 8.30106,2.05948 14.28973,6.33573 5.98868,4.27624 9.49125,10.28556 3.50257,6.00932 4.24233,13.68306 0.91244,7.56971 -1.25001,16.28582 z"
           inkscape:connector-curvature="0" />
        <path
           id="path186"
           style="font-style:normal;font-variant:normal;font-weight:normal;font-stretch:normal;font-size:142.54524231px;font-family:Ubuntu;-inkscape-font-specification:Ubuntu;stroke:none;stroke-width:0.93750006"
           d="m -503.61746,-513.0573 q -3.80005,-0.61016 -7.50455,-0.91624 -3.54116,-0.42423 -6.46901,-0.17249 l -4.04515,25.19291 q 0.82185,0.27633 2.34742,0.66566 1.66631,0.41193 3.47337,0.84645 1.97039,0.31638 3.91819,0.77351 1.97039,0.31638 3.51856,0.56496 8.58529,1.37852 13.74956,-1.1128 5.16427,-2.49132 6.3168,-9.66919 0.56497,-3.51856 -0.57642,-6.30051 -1.00065,-2.75935 -3.28543,-4.7143 -2.12144,-2.07308 -5.10478,-3.27397 -2.96074,-1.34162 -6.33856,-1.88399 z m -20.93838,-41.33161 13.08906,2.10167 -4.49713,28.00776 q 2.48301,-0.1788 7.07717,-0.0186 4.73489,0.18278 8.95717,0.86074 5.77044,0.92655 10.75193,3.17012 5.00408,2.10283 8.4703,5.69119 3.48881,3.44761 4.99494,8.45369 1.66947,4.88794 0.65253,11.22135 -1.06214,6.6149 -4.05977,10.89782 -2.99764,4.28292 -7.55374,6.58315 -4.55611,2.30024 -10.52994,2.64037 -5.99643,0.48089 -12.89281,-0.62645 -6.61489,-1.06213 -13.23494,-2.99132 -6.64265,-1.78845 -12.72747,-4.35356 z m 72.41272,86.70008 -13.08905,-2.10168 11.75129,-73.18609 13.08905,2.10167 z"
           inkscape:connector-curvature="0" />
        <path
           id="path188"
           style="font-style:normal;font-variant:normal;font-weight:normal;font-stretch:normal;font-size:142.54524231px;font-family:Ubuntu;-inkscape-font-specification:Ubuntu;stroke:none;stroke-width:0.93750006"
           d="m -430.90184,-502.70705 q 0.70236,-9.81051 4.06512,-16.85818 3.37293,-7.18985 8.41101,-11.6881 5.03807,-4.49826 11.32491,-6.47764 6.28684,-1.97939 12.685,-1.52133 14.92904,1.0688 22.21938,11.0228 7.30052,9.81181 5.93652,28.86411 -0.0611,0.85309 -0.16286,2.2749 -0.0916,1.27963 -0.31523,2.4069 l -50.61655,-3.62374 q 0.0286,11.57776 5.4305,17.96672 5.40191,6.38896 17.77169,7.27454 6.96688,0.49877 11.7403,-0.30277 4.92578,-0.93355 7.42429,-1.89795 l 1.05439,11.22247 q -2.50869,1.10659 -8.72428,2.0907 -6.07341,0.99429 -13.7512,0.44463 -9.66833,-0.69218 -16.57382,-4.04476 -6.75312,-3.48458 -10.93648,-8.92884 -4.18336,-5.44426 -5.95948,-12.57401 -1.62377,-7.26175 -1.02321,-15.65045 z m 51.27787,-3.61733 q 0.78347,-8.94724 -3.50136,-14.9704 -4.13246,-6.15517 -12.23679,-6.73537 -4.54981,-0.32573 -8.23667,1.26815 -3.5345,1.46188 -6.15516,4.13246 -2.62067,2.67058 -4.30714,6.26551 -1.54428,3.6051 -2.24566,7.41346 z m -27.73856,-45.71634 q -3.27017,-0.23412 -5.66657,-2.69224 -2.24404,-2.59013 -1.97938,-6.28684 0.26466,-3.69672 2.8446,-5.79858 2.73231,-2.23386 6.00248,-1.99974 3.27017,0.23412 5.51421,2.82425 2.3964,2.45812 2.13175,6.15484 -0.26466,3.69671 -2.99697,5.93057 -2.57995,2.10186 -5.85012,1.86774 z m 27.01446,1.93402 q -3.27017,-0.23412 -5.66657,-2.69224 -2.24404,-2.59013 -1.97939,-6.28684 0.26466,-3.69672 2.84461,-5.79858 2.73231,-2.23386 6.00248,-1.99974 3.27017,0.23412 5.51421,2.82425 2.39639,2.45812 2.13174,6.15484 -0.26466,3.69671 -2.99696,5.93057 -2.57995,2.10186 -5.85012,1.86774 z"
           inkscape:connector-curvature="0" />
        <path
           id="path190"
           style="font-style:normal;font-variant:normal;font-weight:normal;font-stretch:normal;font-size:142.54524231px;font-family:Ubuntu;-inkscape-font-specification:Ubuntu;stroke:none;stroke-width:0.93750006"
           d="m -337.25622,-515.18495 q -1.0497,14.1449 -1.38692,28.27084 -0.34101,13.98344 -0.43873,26.39187 l -12.68204,0.33734 q 0.0538,-8.69976 0.37358,-18.11958 0.31602,-9.56232 0.77454,-19.12843 0.45473,-9.7086 1.06332,-18.9935 0.6048,-9.42741 1.37484,-18.00363 l 12.11206,-0.32219 q 4.75694,7.28844 11.22914,20.09248 6.46842,12.66155 14.8954,29.26368 7.53244,-17.02666 13.31858,-30.01418 5.78235,-13.13002 10.14508,-20.66104 l 12.25456,-0.32598 q 1.22489,8.52316 2.33002,17.90508 1.10135,9.23942 2.07157,18.91011 0.96644,9.52821 1.79037,19.0602 0.82015,9.3895 1.33636,18.0741 l -13.10953,0.34872 q -0.75725,-12.38568 -1.84119,-26.33122 -1.08772,-14.08804 -2.88792,-28.15712 -2.16242,4.47798 -4.98803,10.82735 -2.8294,6.20688 -5.65122,12.69875 -2.67933,6.48807 -5.08883,12.39859 -2.4095,5.91052 -3.74348,9.3683 l -11.1146,0.29565 q -1.6622,-3.52068 -4.52501,-9.29095 -2.72032,-5.77406 -5.88328,-12.10673 -3.02425,-6.47895 -6.17963,-12.52663 -3.15917,-6.19017 -5.54901,-10.26188 z"
           inkscape:connector-curvature="0" />
        <path
           id="path192"
           style="font-style:normal;font-variant:normal;font-weight:normal;font-stretch:normal;font-size:142.54524231px;font-family:Ubuntu;-inkscape-font-specification:Ubuntu;stroke:none;stroke-width:0.93750006"
           d="m -252.61529,-450.07385 q 1.65086,0.49115 4.12941,0.7239 2.63927,0.35442 5.03968,0.0224 7.76604,-1.07428 11.65495,-5.2098 3.90844,-3.99432 6.36418,-12.24867 -11.23953,-15.71354 -21.62291,-33.56015 -10.26171,-18.00734 -18.0404,-36.78987 l 14.12007,-1.95324 q 2.43216,6.13917 5.56586,13.18862 3.27489,7.02992 7.03199,14.42484 3.75709,7.39492 7.93779,14.73125 4.18069,7.33632 8.56566,14.06878 3.31473,-15.5683 5.25651,-30.65888 1.94178,-15.09057 3.34277,-30.96976 l 13.55526,-1.87511 q -2.21196,21.45967 -5.76838,41.52239 -3.57596,19.92151 -8.47237,37.57934 -1.94506,6.74468 -4.42644,11.69282 -2.32064,5.0698 -5.58168,8.54286 -3.26104,3.47305 -7.72534,5.52963 -4.3231,2.03704 -10.11232,2.83787 -1.55321,0.21486 -3.28668,0.16684 -1.71394,0.0932 -3.46695,-0.096 -1.59227,-0.0675 -3.06288,-0.29583 -1.3294,-0.24781 -1.93327,-0.45208 z"
           inkscape:connector-curvature="0" />
      </g>
      <g
         id="text29"
         style="font-style:normal;font-variant:normal;font-weight:normal;font-stretch:normal;font-size:142.54524231px;line-height:0%;font-family:Ubuntu;-inkscape-font-specification:Ubuntu;letter-spacing:0px;word-spacing:0px;fill:#000000;fill-opacity:1;stroke:none;stroke-width:0.93750006"
         aria-label="       ахвяраванняў">
        <path
           id="path195"
           style="font-style:normal;font-variant:normal;font-weight:normal;font-stretch:normal;font-size:142.54524231px;font-family:Ubuntu;-inkscape-font-specification:Ubuntu;stroke:none;stroke-width:0.93750006"
           d="m -1009.9511,-568.18111 q 3.7989,2.77425 6.7608,4.76083 3.1612,1.95554 5.45443,2.92423 l 13.03055,-17.84299 q -0.73083,-1.41626 -3.12629,-3.69518 -2.19628,-2.30996 -5.88,-5.00013 -2.41743,-1.76543 -5.43242,-3.43772 -2.89987,-1.58821 -6.04287,-2.11841 -2.9438,-0.56125 -5.8695,0.30284 -2.8416,0.74897 -5.1114,3.85711 -4.2034,5.7558 -2.2011,10.7483 2.0864,4.87738 8.4178,9.50112 z m 38.2548,-54.31664 q 6.4465,4.70781 9.5599,9.62914 3.31257,4.89028 3.6904,9.93198 0.57702,5.01065 -1.38234,10.11062 -1.87528,4.98486 -5.57428,10.04997 l -27.32211,37.41273 q -1.54953,-0.77859 -4.41835,-2.16762 -2.66964,-1.42008 -6.03002,-3.34457 -3.3603,-1.92449 -7.2122,-4.38443 -3.8208,-2.26076 -7.3894,-4.86687 -5.0651,-3.69899 -8.5677,-7.84556 -3.5027,-4.14656 -5.0136,-8.6036 -1.4267,-4.57216 -0.4633,-9.51689 0.9634,-4.94474 4.7465,-10.12496 3.6149,-4.94999 8.178,-7.08944 4.6782,-2.05537 9.729,-1.72054 5.0507,0.33484 10.412,2.66152 5.36126,2.32667 10.42637,6.02567 1.61162,1.17695 3.17023,2.6682 1.64267,1.37614 2.88697,2.81437 1.44349,1.40719 2.42652,2.4781 0.98302,1.07091 1.35942,1.5223 l 2.18577,-2.99302 q 1.93356,-2.64767 3.20748,-5.60056 1.35798,-3.06801 1.29063,-6.11787 0.0167,-3.16498 -1.79027,-6.2497 -1.60781,-3.11577 -5.75199,-6.14222 -5.29534,-3.86713 -9.91288,-6.0037 -4.41835,-2.16762 -6.9638,-2.79096 l 5.20696,-9.78869 q 2.74463,0.5923 8.16799,3.31734 5.50742,2.60993 11.1481,6.72926 z"
           inkscape:connector-curvature="0" />
        <path
           id="path197"
           style="font-style:normal;font-variant:normal;font-weight:normal;font-stretch:normal;font-size:142.54524231px;font-family:Ubuntu;-inkscape-font-specification:Ubuntu;stroke:none;stroke-width:0.93750006"
           d="m -937.59886,-508.79711 q 0.32019,-3.4915 0.41029,-7.96433 0.0901,-4.47284 -0.1081,-9.29219 -0.12308,-4.94049 -0.44242,-9.83497 -0.31934,-4.89447 -0.74292,-9.3504 -4.17982,1.60118 -8.78128,3.6118 -4.52634,1.88948 -9.00666,3.97522 -4.28406,2.03973 -8.2507,4.10857 -3.96665,2.06883 -6.87684,3.78644 l -11.62963,-7.21199 q 9.34847,-5.60829 20.42203,-10.48223 11.26983,-4.91996 21.89264,-9.06706 l -2.28057,-42.84357 12.71991,7.88812 1.34888,31.36334 28.81549,-12.65723 11.99306,7.43737 -38.45697,16.57424 q 0.9317,11.48023 1.50468,24.07984 0.76925,12.5536 -0.1744,23.54177 z"
           inkscape:connector-curvature="0" />
        <path
           id="path199"
           style="font-style:normal;font-variant:normal;font-weight:normal;font-stretch:normal;font-size:142.54524231px;font-family:Ubuntu;-inkscape-font-specification:Ubuntu;stroke:none;stroke-width:0.93750006"
           d="m -896.75018,-497.23607 q 0.69257,0.52167 2.0172,1.37273 1.32463,0.85105 3.02848,1.89974 1.76974,0.92228 3.6,2.03685 2.02255,1.05403 3.79228,1.97631 3.66588,1.91044 7.21603,3.11761 3.67657,1.27304 6.73712,1.26062 3.18696,0.0534 5.63149,-1.24446 2.63683,-1.35843 4.34964,-4.64508 1.64692,-3.16023 1.31045,-5.90743 -0.14418,-2.80774 -1.76078,-5.25762 -1.6166,-2.44988 -4.51332,-4.60245 -2.77032,-2.08669 -6.30979,-3.93125 l -14.03144,-7.31236 z m 28.12741,-23.43721 q 3.41306,1.77869 6.3917,2.84876 3.17092,1.00953 5.78637,0.92588 2.74185,-0.0178 4.8677,-1.32102 2.25225,-1.23737 3.76742,-4.14479 1.58105,-3.03382 0.98642,-5.59408 -0.59463,-2.56026 -2.66168,-4.76267 -1.87476,-2.26294 -4.90325,-4.16269 -2.83619,-1.96028 -5.99643,-3.60721 -2.90741,-1.51517 -6.00712,-2.96981 -2.97329,-1.38877 -5.06172,-2.31639 l -9.68394,18.58219 z m -21.06999,39.81363 q -7.45816,-3.88675 -13.38337,-7.93906 -5.99109,-3.9259 -9.19582,-6.72121 l 33.33384,-63.96318 q 4.12701,1.02557 10.77687,3.68738 6.71573,2.5354 14.17389,6.42216 5.18279,2.70096 9.65162,6.15503 4.46882,3.45408 7.1412,7.57935 2.73824,3.99887 3.10318,8.85053 0.55722,4.79113 -2.20962,10.10033 -2.50333,4.80356 -6.6838,6.96495 -4.18046,2.16139 -9.21372,1.94946 4.44745,4.72886 5.63137,10.16807 1.37621,5.37868 -2.11528,12.07838 -3.09622,5.94124 -7.5402,8.60827 -4.31756,2.7329 -9.74073,2.96074 -5.29677,0.29371 -11.31993,-1.72002 -6.08903,-1.88732 -12.4095,-5.18118 z"
           inkscape:connector-curvature="0" />
        <path
           id="path201"
           style="font-style:normal;font-variant:normal;font-weight:normal;font-stretch:normal;font-size:142.54524231px;font-family:Ubuntu;-inkscape-font-specification:Ubuntu;stroke:none;stroke-width:0.93750006"
           d="m -803.53932,-473.32108 q -1.96365,-0.8461 -3.79639,-1.6358 -1.77633,-0.9206 -3.42175,-1.7848 -6.89665,4.47865 -13.92633,9.98649 -6.84236,5.43334 -12.50441,10.28875 l -12.30553,-5.30225 q 3.20672,-3.11951 6.99348,-6.14429 3.84317,-3.1557 7.57353,-6.04958 3.86127,-2.83747 7.55332,-5.28221 3.69205,-2.44474 6.84024,-4.34775 -3.10141,-2.88849 -4.66809,-5.73655 -1.51028,-2.97897 -1.93496,-5.95583 -0.42469,-2.97685 0.0489,-5.87709 0.66091,-2.97473 1.84545,-5.72384 2.4819,-5.76004 6.43789,-9.17755 4.0869,-3.36112 9.06783,-4.47442 5.03734,-1.24422 10.7633,-0.48436 5.85687,0.81626 12.00964,3.46739 8.64005,3.72285 14.32347,7.10303 5.68342,3.38017 9.29037,6.17607 l -28.93673,67.15679 -12.04372,-5.18943 11.39419,-26.44381 z m 24.64902,-28.02761 q -1.3272,-0.8823 -4.61804,-2.6107 -3.15994,-1.67199 -7.47996,-3.53342 -7.46187,-3.21519 -13.39748,-2.04759 -5.87921,1.03669 -8.75596,7.71309 -2.82034,6.5455 0.82068,11.06344 3.64103,4.51793 11.10289,7.73312 l 12.17463,5.24585 z"
           inkscape:connector-curvature="0" />
        <path
           id="path203"
           style="font-style:normal;font-variant:normal;font-weight:normal;font-stretch:normal;font-size:142.54524231px;font-family:Ubuntu;-inkscape-font-specification:Ubuntu;stroke:none;stroke-width:0.93750006"
           d="m -710.1903,-446.70083 q 4.2629,-12.25114 0.50005,-20.95594 -3.76285,-8.7048 -13.85995,-12.21817 -5.65437,-1.96749 -9.02598,-2.68789 -3.23698,-0.67355 -5.30915,-0.79087 l -15.36517,44.15797 q 1.63284,2.68116 5.33195,5.93036 3.69911,3.24921 8.81498,5.02932 5.38511,1.8738 9.81053,1.30067 4.60688,-0.66091 8.20131,-3.1834 3.64128,-2.65712 6.31103,-6.85971 2.7166,-4.33722 4.5904,-9.72234 z m 13.05892,4.54397 q -2.76386,7.94305 -7.26016,13.92493 -4.36167,6.02872 -10.08693,9.46998 -5.72526,3.44125 -12.58579,4.07263 -6.72591,0.67822 -14.26507,-1.9451 -6.05826,-2.10803 -10.2081,-5.36314 -4.01521,-3.20826 -5.78859,-5.48554 l -9.74377,28.00262 -12.5204,-4.35659 32.27623,-92.75867 q 4.81749,0.46887 11.83586,1.55262 7.19985,0.99597 15.95067,4.0409 8.07768,2.8107 13.64976,7.6172 5.57209,4.80649 8.50986,11.1112 2.93778,6.30471 2.97198,14.01395 0.21568,7.62145 -2.73555,16.10301 z"
           inkscape:connector-curvature="0" />
        <path
           id="path205"
           style="font-style:normal;font-variant:normal;font-weight:normal;font-stretch:normal;font-size:142.54524231px;font-family:Ubuntu;-inkscape-font-specification:Ubuntu;stroke:none;stroke-width:0.93750006"
           d="m -664.4795,-404.56159 q 4.53513,1.24904 8.00869,2.05785 3.64884,0.70924 6.13652,0.80297 l 5.86671,-21.30139 q -1.18504,-1.06564 -4.23234,-2.34847 -2.87202,-1.3824 -7.26973,-2.59359 -2.88599,-0.79485 -6.29782,-1.29096 -3.2744,-0.45826 -6.40147,0.15903 -2.95178,0.51771 -5.3818,2.36195 -2.39216,1.7068 -3.4141,5.41737 -1.89249,6.87141 1.74822,10.83117 3.67856,3.82233 11.23712,5.90407 z m 16.53855,-64.3444 q 7.69598,2.11959 12.35051,5.6193 4.82981,3.40014 6.96872,7.98124 2.31419,4.48153 2.28803,9.94488 0.0117,5.32592 -1.65369,11.37276 l -12.30117,44.66421 q -1.72484,-0.17934 -4.89966,-0.46232 -2.99954,-0.38256 -6.82366,-0.99222 -3.82411,-0.60966 -8.29752,-1.54599 -4.37382,-0.76106 -8.6341,-1.9344 -6.04685,-1.66539 -10.79105,-4.30268 -4.7442,-2.6373 -7.73562,-6.27038 -2.95357,-3.77051 -3.8038,-8.73596 -0.85023,-4.96545 0.853,-11.14973 1.62754,-5.90942 5.13717,-9.52625 3.64705,-3.57898 8.48904,-5.05463 4.842,-1.47564 10.67978,-1.19851 5.83778,0.27713 11.88462,1.94252 1.924,0.5299 3.90973,1.3725 2.02357,0.70518 3.69659,1.60951 1.8483,0.80475 3.14688,1.4581 1.29858,0.65336 1.81045,0.94219 l 0.98409,-3.57314 q 0.87054,-3.16085 1.0161,-6.37352 0.1834,-3.3501 -0.95972,-6.17843 -1.10528,-2.96576 -3.88763,-5.21059 -2.60708,-2.3444 -7.5545,-3.70699 -6.3217,-1.74109 -11.39664,-2.10383 -4.89966,-0.46232 -7.50089,-0.14377 l 1.40272,-10.99833 q 2.77651,-0.41813 8.81344,0.20956 6.07479,0.49026 12.80878,2.3449 z"
           inkscape:connector-curvature="0" />
        <path
           id="path207"
           style="font-style:normal;font-variant:normal;font-weight:normal;font-stretch:normal;font-size:142.54524231px;font-family:Ubuntu;-inkscape-font-specification:Ubuntu;stroke:none;stroke-width:0.93750006"
           d="m -604.59955,-389.98275 q 0.80713,0.31678 2.31149,0.78134 1.50437,0.46456 3.42708,1.01779 1.95226,0.41378 4.01442,0.99656 2.23116,0.47289 4.18342,0.88667 4.04398,0.85712 7.78784,1.06778 3.88331,0.24021 6.82837,-0.5927 3.0845,-0.80336 5.09132,-2.70941 2.17581,-2.01594 2.94426,-5.64158 0.7389,-3.48618 -0.32214,-6.04246 -0.89202,-2.66616 -3.10652,-4.59264 -2.2145,-1.92648 -5.58246,-3.22316 -3.22852,-1.26713 -7.13305,-2.09469 l -15.47867,-3.28068 z m 20.81,-30.12304 q 3.76508,0.798 6.9216,1.02988 3.32551,0.122 5.82267,-0.66014 2.63661,-0.75258 4.33498,-2.57829 1.83781,-1.79616 2.51759,-5.00345 0.70934,-3.34674 -0.55025,-5.65367 -1.25959,-2.30694 -3.84165,-3.87418 -2.41306,-1.67714 -5.84014,-2.69493 -3.25807,-1.12768 -6.74426,-1.86657 -3.20729,-0.67978 -6.58359,-1.24967 -3.23685,-0.54034 -5.49756,-0.87378 l -4.34469,20.49878 z m -9.6185,44.0063 q -8.2274,-1.74379 -15.02244,-4.05826 -6.8246,-2.17502 -10.66169,-4.00827 l 14.95519,-70.56044 q 4.25087,-0.11902 11.37103,0.66153 7.14971,0.6411 15.37711,2.38489 5.71735,1.21178 10.94891,3.34059 5.23156,2.12881 8.91254,5.38608 3.71053,3.11784 5.36347,7.69382 1.82194,4.46608 0.5806,10.32288 -1.12311,5.299 -4.57062,8.50253 -3.44751,3.20352 -8.35316,4.34945 5.55291,3.36261 8.15242,8.28493 2.76852,4.81242 1.20207,12.20314 -1.38912,6.55403 -4.95485,10.31535 -3.42628,3.79087 -8.58961,5.46503 -5.02388,1.70372 -11.36646,1.3794 -6.37213,-0.18487 -13.34451,-1.66265 z"
           inkscape:connector-curvature="0" />
        <path
           id="path209"
           style="font-style:normal;font-variant:normal;font-weight:normal;font-stretch:normal;font-size:142.54524231px;font-family:Ubuntu;-inkscape-font-specification:Ubuntu;stroke:none;stroke-width:0.93750006"
           d="m -516.42824,-373.04098 q 4.64961,0.71321 8.19365,1.11262 3.70656,0.28013 6.18826,0.084 l 3.34992,-21.83908 q -1.30091,-0.92061 -4.47671,-1.84039 -3.01329,-1.03906 -7.522,-1.73066 -2.95885,-0.45386 -6.40522,-0.54986 -3.30547,-0.0744 -6.33954,0.90233 -2.87156,0.85744 -5.07064,2.97173 -2.17746,1.9734 -2.761,5.77762 -1.08062,7.04487 2.99585,10.55441 4.09808,3.36865 11.84743,4.55733 z m 8.9442,-65.83104 q 7.89025,1.21029 12.92016,4.14502 5.19242,2.81545 7.84952,7.11676 2.81962,4.18203 3.42893,9.61135 0.63093,5.28843 -0.32002,11.48791 l -7.02403,45.79162 q -1.73399,0.0224 -4.92018,0.11057 -3.02368,-0.0312 -6.89275,-0.19201 -3.86906,-0.16085 -8.421,-0.57065 -4.43265,-0.24729 -8.80047,-0.91728 -6.19948,-0.95094 -11.21817,-3.01868 -5.01869,-2.06773 -8.41228,-5.32832 -3.37198,-3.40148 -4.79384,-8.23438 -1.42187,-4.8329 -0.44931,-11.17328 0.92934,-6.05858 3.99457,-10.05898 3.20614,-3.9788 7.8437,-6.00747 4.63755,-2.02868 10.46795,-2.43226 5.83041,-0.40358 12.02989,0.54737 1.97256,0.30257 4.0428,0.90855 2.09184,0.46508 3.85867,1.16874 1.92934,0.58436 3.29509,1.08228 1.36574,0.49792 1.90772,0.72527 l 0.56192,-3.66333 q 0.49709,-3.24064 0.26808,-6.44844 -0.20741,-3.3487 -1.67166,-6.02492 -1.44264,-2.81711 -4.46716,-4.72317 -2.862,-2.02534 -7.9343,-2.80339 -6.48128,-0.99417 -11.56397,-0.76432 -4.92018,0.11056 -7.46672,0.72943 l 0.11428,-11.08683 q 2.70905,-0.73815 8.77802,-0.81671 6.09059,-0.21946 12.99456,0.83955 z"
           inkscape:connector-curvature="0" />
        <path
           id="path211"
           style="font-style:normal;font-variant:normal;font-weight:normal;font-stretch:normal;font-size:142.54524231px;font-family:Ubuntu;-inkscape-font-specification:Ubuntu;stroke:none;stroke-width:0.93750006"
           d="m -408.67071,-350.8072 -13.19498,-1.27784 3.16026,-32.63274 -34.05156,-3.29766 -3.16025,32.63274 -13.19498,-1.27785 7.14493,-73.77836 13.19498,1.27784 -2.91294,30.07888 34.05156,3.29766 2.91293,-30.07888 13.19498,1.27785 z"
           inkscape:connector-curvature="0" />
        <path
           id="path213"
           style="font-style:normal;font-variant:normal;font-weight:normal;font-stretch:normal;font-size:142.54524231px;font-family:Ubuntu;-inkscape-font-specification:Ubuntu;stroke:none;stroke-width:0.93750006"
           d="m -325.23534,-346.83718 -13.24604,-0.53164 1.31481,-32.75904 -34.18334,-1.37197 -1.31481,32.75903 -13.24604,-0.53164 2.97261,-74.0639 13.24605,0.53164 -1.21192,30.19528 34.18334,1.37198 1.21191,-30.19528 13.24605,0.53164 z"
           inkscape:connector-curvature="0" />
        <path
           id="path215"
           style="font-style:normal;font-variant:normal;font-weight:normal;font-stretch:normal;font-size:142.54524231px;font-family:Ubuntu;-inkscape-font-specification:Ubuntu;stroke:none;stroke-width:0.93750006"
           d="m -272.15474,-375.79707 q -2.138,0.0277 -4.13347,0.0535 -1.99731,-0.11671 -3.85209,-0.23525 -4.4725,6.90064 -8.64701,14.79533 -4.03383,7.7503 -7.22537,14.49181 l -13.39813,0.17344 q 1.65689,-4.15561 3.88207,-8.46113 2.22333,-4.44805 4.45035,-8.61104 2.36956,-4.16483 4.74465,-7.90207 2.37509,-3.73723 4.47435,-6.75811 -4.00939,-1.37367 -6.60082,-3.33592 -2.59328,-2.10479 -4.19436,-4.65009 -1.60107,-2.5453 -2.35064,-5.38674 -0.60889,-2.98582 -0.64763,-5.97902 -0.0812,-6.27146 2.13845,-11.00459 2.36218,-4.73496 6.4569,-7.78167 4.09287,-3.18924 9.63137,-4.82907 5.68104,-1.64167 12.3801,-1.72839 9.4072,-0.12178 15.9748,0.64854 6.56761,0.77032 11.0009,1.85339 l 0.94656,73.11958 -13.11306,0.16976 -0.37272,-28.79173 z m 11.08575,-35.64025 q -1.57155,-0.26477 -5.28111,-0.50186 -3.56702,-0.23894 -8.27062,-0.17805 -8.1244,0.10517 -13.06878,3.59055 -4.94623,3.34285 -4.85212,10.61204 0.0923,7.12667 5.25851,9.76838 5.16626,2.6417 13.29065,2.53653 l 13.2556,-0.1716 z"
           inkscape:connector-curvature="0" />
        <path
           id="path217"
           style="font-style:normal;font-variant:normal;font-weight:normal;font-stretch:normal;font-size:142.54524231px;font-family:Ubuntu;-inkscape-font-specification:Ubuntu;stroke:none;stroke-width:0.93750006"
           d="m -232.04135,-333.93048 q 1.60872,0.61532 4.06237,1.03596 2.60466,0.55418 5.02338,0.40571 7.82526,-0.48034 12.01752,-4.30801 4.201,-3.6854 7.2776,-11.72899 -10.0115,-16.52309 -19.00704,-35.10793 -8.862,-18.73585 -15.18921,-38.05573 l 14.22774,-0.87335 q 1.95806,6.30642 4.54636,13.57385 2.73058,7.25869 5.9142,14.91801 3.18361,7.65933 6.79405,15.29245 3.61045,7.63312 7.47051,14.67967 4.48953,-15.271 7.57375,-30.17012 3.08423,-14.89911 5.68921,-30.62569 l 13.65864,-0.83841 q -3.83817,21.22918 -8.91063,40.96319 -5.08119,19.59173 -11.30679,36.82587 -2.45254,6.57716 -5.30317,11.32217 -2.69962,4.87856 -6.21543,8.09346 -3.51582,3.2149 -8.12364,4.92587 -4.46554,1.70225 -10.29892,2.06032 -1.56505,0.0961 -3.28984,-0.0837 -1.71607,-0.0375 -3.4496,-0.35951 -1.58252,-0.18849 -3.03149,-0.52798 -1.3067,-0.34823 -1.89328,-0.59786 z m 28.45126,-101.85873 q -8.96348,0.55021 -14.93405,-3.65333 -5.82829,-4.21227 -7.46432,-12.25222 l 9.93577,-3.32335 q 1.41769,4.48301 4.29563,7.16263 2.87794,2.67961 7.5731,2.39141 4.69515,-0.28821 7.22375,-3.29969 2.52861,-3.01149 3.38735,-7.63424 l 10.12536,2.09193 q -0.64041,8.17969 -5.90976,13.07317 -5.26935,4.89348 -14.23283,5.44369 z"
           inkscape:connector-curvature="0" />
      </g>
      <path
         sodipodi:nodetypes="cc"
         inkscape:connector-curvature="0"
         id="path4140-3"
         d="m -1197.951,-898.95399 c 234.27266,350.02597 706.03223,478.70668 1000.15111,426.88506"
         style="fill:none;fill-rule:evenodd;stroke:none;stroke-width:36.14668274px;stroke-linecap:butt;stroke-linejoin:miter;stroke-opacity:1" />
      <path
         sodipodi:nodetypes="cc"
         inkscape:connector-curvature="0"
         id="path4140-6"
         d="m -1205.6648,-745.91674 c 257.41393,334.59814 675.17736,416.99548 1007.86491,396.02944"
         style="fill:none;fill-rule:evenodd;stroke:none;stroke-width:36.14668274px;stroke-linecap:butt;stroke-linejoin:miter;stroke-opacity:1" />
      <path
         sodipodi:nodetypes="cscc"
         inkscape:connector-curvature="0"
         id="path48"
         d="m 806.06393,-2035.5089 c 31.80795,3.3616 96.31496,30.1052 226.95157,0.3789 145.3147,-33.0665 339.4108,-92.5666 420.4058,-84.8527 80.9966,7.7139 138.8505,34.7124 138.8505,34.7124"
         style="fill:none;stroke:none;stroke-width:15.27270508px;stroke-linecap:butt;stroke-linejoin:miter;stroke-opacity:1" />
    </g>
    <rect
       style="fill:none;stroke:#000000;stroke-width:0.93750006"
       id="rect280"
       width="1052.3623"
       height="744.09454"
       x="-1307.5819"
       y="-582.86572" />
    <rect
       style="fill:none;stroke:#000000;stroke-width:0.93750006"
       id="rect280-9"
       width="1052.3623"
       height="744.09454"
       x="-276.33191"
       y="-582.86572" />
    <rect
       style="fill:none;stroke:#000000;stroke-width:0.93750006"
       id="rect280-3"
       width="1052.3623"
       height="744.09454"
       x="-1307.5819"
       y="122.13428" />
    <rect
       style="fill:none;stroke:#000000;stroke-width:0.93750006"
       id="rect280-9-6"
       width="1052.3623"
       height="744.09454"
       x="-276.33191"
       y="122.13428" />
    <rect
       style="fill:none;stroke:#000000;stroke-width:0.93750006"
       id="rect280-3-8"
       width="1052.3623"
       height="744.09454"
       x="-1307.5819"
       y="821.50928" />
    <rect
       style="fill:none;stroke:#000000;stroke-width:0.93750006"
       id="rect280-9-6-0"
       width="1052.3623"
       height="744.09454"
       x="-276.33191"
       y="821.50928" />
    <rect
       style="fill:none;stroke:#000000;stroke-width:0.93750006"
       id="rect280-3-8-2"
       width="1052.3623"
       height="744.09454"
       x="-1150.0819"
       y="1530.2593" />
    <rect
       style="fill:none;stroke:#000000;stroke-width:0.93750006"
       id="rect280-9-6-0-1"
       width="1052.3623"
       height="744.09454"
       x="1524.2504"
       y="-618.14648"
       transform="rotate(90)" />
    <rect
       style="fill:none;stroke:#000000;stroke-width:0.93750006"
       id="rect280-9-6-05"
       width="1052.3623"
       height="744.09454"
       x="736.16815"
       y="92.134277" />
    <rect
       style="fill:none;stroke:#000000;stroke-width:0.93750006"
       id="rect280-9-6-05-1"
       width="1052.3623"
       height="744.09454"
       x="736.16821"
       y="812.13422" />
    <rect
       style="fill:none;stroke:#000000;stroke-width:0.93750006"
       id="rect280-9-6-0-1-1"
       width="1052.3623"
       height="744.09454"
       x="1524.2504"
       y="-1332.5215"
       transform="rotate(90)" />
  </g>
</svg>
