<?xml version="1.0" encoding="UTF-8" standalone="no"?>
<!-- Created with Inkscape (http://www.inkscape.org/) -->

<svg
   xmlns:dc="http://purl.org/dc/elements/1.1/"
   xmlns:cc="http://creativecommons.org/ns#"
   xmlns:rdf="http://www.w3.org/1999/02/22-rdf-syntax-ns#"
   xmlns:svg="http://www.w3.org/2000/svg"
   xmlns="http://www.w3.org/2000/svg"
   xmlns:sodipodi="http://sodipodi.sourceforge.net/DTD/sodipodi-0.dtd"
   xmlns:inkscape="http://www.inkscape.org/namespaces/inkscape"
   width="250.11723mm"
   height="185.04758mm"
   viewBox="0 0 886.24217 655.68039"
   id="svg2"
   version="1.1"
   inkscape:version="0.91 r13725"
   sodipodi:docname="kutok_rovar.svg">
  <defs
     id="defs4" />
  <sodipodi:namedview
     id="base"
     pagecolor="#ffffff"
     bordercolor="#666666"
     borderopacity="1.0"
     inkscape:pageopacity="0.0"
     inkscape:pageshadow="2"
     inkscape:zoom="0.35"
     inkscape:cx="-150.37833"
     inkscape:cy="739.36598"
     inkscape:document-units="px"
     inkscape:current-layer="layer1"
     showgrid="false"
     showguides="true"
     inkscape:guide-bbox="true"
     inkscape:window-width="1855"
     inkscape:window-height="1056"
     inkscape:window-x="65"
     inkscape:window-y="24"
     inkscape:window-maximized="1"
     fit-margin-top="0"
     fit-margin-left="0"
     fit-margin-right="0"
     fit-margin-bottom="0" />
  <metadata
     id="metadata7">
    <rdf:RDF>
      <cc:Work
         rdf:about="">
        <dc:format>image/svg+xml</dc:format>
        <dc:type
           rdf:resource="http://purl.org/dc/dcmitype/StillImage" />
        <dc:title></dc:title>
      </cc:Work>
    </rdf:RDF>
  </metadata>
  <g
     inkscape:label="Layer 1"
     inkscape:groupmode="layer"
     id="layer1"
     transform="translate(1441.7919,-177.76822)">
    <path
       style="fill:#ff7f2a;fill-rule:evenodd;stroke:none;stroke-width:1px;stroke-linecap:butt;stroke-linejoin:miter;stroke-opacity:1"
       d="m -1313.3678,524.60225 c 2.154,6.95856 220.6858,218.5218 220.6858,218.5218 0,0 420.98535,-424.94965 442.94412,-448.75705 21.95876,-23.8074 19.26329,-22.0932 19.26329,-22.0932 l 0,0 c 0,0 -52.80222,-66.36085 -76.47518,-45.24894 -18.60843,16.59527 -219.46728,222.73387 -281.92208,281.48616 -16.99805,15.9903 -294.62115,18.5417 -294.62115,18.5417 z"
       id="path4144"
       inkscape:connector-curvature="0"
       sodipodi:nodetypes="ccsccsscc" />
    <path
       style="fill:#333333;fill-rule:evenodd;stroke:none;stroke-width:1px;stroke-linecap:butt;stroke-linejoin:miter;stroke-opacity:1"
       d="m -1120.1174,611.59101 19.8935,46.9494 c 0,0 31.7774,19.70156 42.0611,5.9115 10.2836,-13.79005 18.8359,-35.97486 18.8359,-35.97486 l -28.6206,-53.90132 z"
       id="path4142"
       inkscape:connector-curvature="0" />
    <path
       style="fill:#333333;fill-rule:evenodd;stroke:none;stroke-width:1px;stroke-linecap:butt;stroke-linejoin:miter;stroke-opacity:1"
       d="m -1222.9102,638.63162 c 7.1269,9.96924 19.5036,18.70269 19.5036,18.70269 8.8192,6.53219 18.9224,-1.70661 18.9224,-1.70661 l 218.23199,-91.52394 c 0,0 -87.46809,-384.21096 -113.82499,-386.29794 -31.8629,-2.52295 -254.1643,122.52693 -339.1209,195.54278 -29.6442,25.47758 -25.1754,49.21356 -14.4044,59.91108 2.3358,2.31985 11.6646,-7.57054 11.6646,-7.57054 l 18.1916,17.98291 c 0,0 -11.0018,8.57198 -7.0416,12.38049 11.0758,10.65171 20.6709,19.37315 20.6709,19.37315 6.1499,8.64131 15.5263,-3.38073 15.5263,-3.38073 l 19.6691,19.37958 c 0,0 -11.3839,6.95845 -6.1345,12.25462 l 16.856,17.00605 c 5.6254,5.67539 13.5014,-5.77828 13.5014,-5.77828 l 17.586,16.89324 c 0,0 -11.2599,9.08382 -5.6468,14.6093 7.1043,6.99346 16.1415,15.21912 23.2809,21.14586 6.6288,5.50293 14.3467,-5.34275 14.3467,-5.34275 l 19.3574,19.0915 c 0,0 -11.1996,8.55228 -5.9692,13.41748 6.9084,6.42595 12.4136,13.05334 18.8144,18.47252 5.7506,4.8687 14.5428,-5.36335 14.5428,-5.36335 l 20.8816,20.02668 c 0,0 -12.9036,5.88064 -9.4053,10.77421 z"
       id="path4136"
       inkscape:connector-curvature="0"
       sodipodi:nodetypes="scccsssccscccssccssccssccs" />
    <path
       style="fill:#ff7f2a;fill-rule:evenodd;stroke:none;stroke-width:1px;stroke-linecap:butt;stroke-linejoin:miter;stroke-opacity:1"
       d="m -1363.6616,387.78333 c 0,0 178.9327,223.13053 193.2125,221.64404 14.2798,-1.4865 43.038,-5.36179 31.9891,-23.77769 -78.4541,-130.76414 -121.207,-244.06865 -138.3288,-249.28921 -17.1217,-5.22055 -87.205,42.73955 -86.8728,51.42286 z"
       id="path4138"
       inkscape:connector-curvature="0"
       sodipodi:nodetypes="csssc" />
    <path
       style="fill:#ff7f2a;fill-rule:evenodd;stroke:none;stroke-width:1px;stroke-linecap:butt;stroke-linejoin:miter;stroke-opacity:1"
       d="m -1206.551,294.75325 c 0,0 7.549,16.53763 18.5632,41.71278 19.3165,44.15116 99.2162,213.52351 115.8045,223.23001 16.5883,9.7065 32.4685,-5.23782 48.3485,-20.18212 15.8801,-14.94429 -64.2183,-290.15211 -72.4119,-301.58997 -8.1936,-11.43786 -110.3043,56.8293 -110.3043,56.8293 z"
       id="path4140"
       inkscape:connector-curvature="0"
       sodipodi:nodetypes="cssssc" />
    <text
       xml:space="preserve"
       style="font-style:normal;font-weight:normal;font-size:134.10377502px;line-height:125%;font-family:sans-serif;letter-spacing:0px;word-spacing:0px;fill:#ff7f2a;fill-opacity:1;stroke:none;stroke-width:1px;stroke-linecap:butt;stroke-linejoin:miter;stroke-opacity:1"
       x="-594.37177"
       y="1407.0167"
       id="text4172"
       sodipodi:linespacing="125%"
       transform="matrix(0.71698053,0.69709319,-0.69709319,0.71698053,0,0)"><tspan
         sodipodi:role="line"
         id="tspan4174"
         x="-594.37177"
         y="1407.0167"
         style="font-style:normal;font-variant:normal;font-weight:normal;font-stretch:normal;font-size:125px;font-family:'URW Gothic L';-inkscape-font-specification:'URW Gothic L'">куток</tspan></text>
    <text
       xml:space="preserve"
       style="font-style:normal;font-weight:normal;font-size:118.7691803px;line-height:125%;font-family:sans-serif;letter-spacing:0px;word-spacing:0px;fill:#333333;fill-opacity:1;stroke:none;stroke-width:1px;stroke-linecap:butt;stroke-linejoin:miter;stroke-opacity:1"
       x="-1302.725"
       y="-153.04875"
       id="text4176"
       sodipodi:linespacing="125%"
       transform="matrix(0.70018174,-0.71396466,0.71396466,0.70018174,0,0)"><tspan
         sodipodi:role="line"
         id="tspan4178"
         x="-1302.725"
         y="-153.04875"
         style="font-style:normal;font-variant:normal;font-weight:normal;font-stretch:normal;font-size:117.5px;font-family:'URW Gothic L';-inkscape-font-specification:'URW Gothic L'">раварыста</tspan></text>
  </g>
</svg>
