<?xml version="1.0" encoding="UTF-8" standalone="no"?>
<!-- Created with Inkscape (http://www.inkscape.org/) -->

<svg
   xmlns:dc="http://purl.org/dc/elements/1.1/"
   xmlns:cc="http://creativecommons.org/ns#"
   xmlns:rdf="http://www.w3.org/1999/02/22-rdf-syntax-ns#"
   xmlns:svg="http://www.w3.org/2000/svg"
   xmlns="http://www.w3.org/2000/svg"
   xmlns:xlink="http://www.w3.org/1999/xlink"
   xmlns:sodipodi="http://sodipodi.sourceforge.net/DTD/sodipodi-0.dtd"
   xmlns:inkscape="http://www.inkscape.org/namespaces/inkscape"
   width="54.867165mm"
   height="55mm"
   viewBox="0 0 194.41122 194.88189"
   id="svg4185"
   version="1.1"
   inkscape:version="0.91 r13725"
   sodipodi:docname="doika_nalepka_55.svg"
   inkscape:export-filename="/home/jedi/Dropbox/falanster/design/logo/logo_2018/projects_logo/doika/nalepki/doika_nalepka_55.png"
   inkscape:export-xdpi="299.98267"
   inkscape:export-ydpi="299.98267">
  <defs
     id="defs4187" />
  <sodipodi:namedview
     id="base"
     pagecolor="#ffffff"
     bordercolor="#666666"
     borderopacity="1.0"
     inkscape:pageopacity="0.0"
     inkscape:pageshadow="2"
     inkscape:zoom="1.979899"
     inkscape:cx="-18.629886"
     inkscape:cy="107.41529"
     inkscape:document-units="px"
     inkscape:current-layer="layer1"
     showgrid="false"
     fit-margin-top="0"
     fit-margin-left="0"
     fit-margin-right="0"
     fit-margin-bottom="0"
     inkscape:window-width="1855"
     inkscape:window-height="1056"
     inkscape:window-x="65"
     inkscape:window-y="24"
     inkscape:window-maximized="1" />
  <metadata
     id="metadata4190">
    <rdf:RDF>
      <cc:Work
         rdf:about="">
        <dc:format>image/svg+xml</dc:format>
        <dc:type
           rdf:resource="http://purl.org/dc/dcmitype/StillImage" />
        <dc:title />
      </cc:Work>
    </rdf:RDF>
  </metadata>
  <g
     inkscape:label="Layer 1"
     inkscape:groupmode="layer"
     id="layer1"
     transform="translate(1314.9398,28.330207)">
    <path
       style="fill:#ffffff;stroke:#ffffff;stroke-width:0.50054479;stroke-linecap:round;stroke-linejoin:round;stroke-miterlimit:4;stroke-dasharray:none;stroke-opacity:1"
       d="m -1240.1733,120.63588 c 0,0 1.2398,6.20918 1.2934,23.64233 0.036,11.75276 7.725,27.52476 26.3129,20.13083 18.5879,-7.39391 6.1886,-23.21257 1.6413,-54.28978 18.4812,16.65927 11.9361,22.44858 23.9529,33.85003 12.0166,11.40145 40.3195,-5.20484 25.6558,-25.26819 -14.6639,-20.063345 -15.3268,-14.65408 -24.5265,-30.134015 12.9632,2.30033 15.3986,5.889519 28.3364,13.269565 12.9636,9.65742 37.6136,-4.065669 26.15,-24.720811 -6.9338,-12.493609 -22.3846,-10.258034 -37.7625,-19.468867 7.2736,-2.413666 9.1176,0.291362 28.2795,-1.068985 33.0733,-2.708162 19.0526,-37.858099 2.0364,-36.062985 -17.0159,1.795191 -27.1035,5.279662 -38.0898,6.004131 -19.7666,-72.345306 -101.2635,-64.487523 -126.7289,-24.4381042 -15.8355,24.9043882 -15.3725,63.4680792 5.9683,88.2678132 2.7304,3.172875 -3.0826,5.611045 -0.4531,9.018005 9.8756,12.794773 35.4136,22.758293 57.9339,21.269033 z"
       id="path2989-3-23-1-2"
       inkscape:connector-curvature="0"
       sodipodi:nodetypes="cszczzccscczcsssc" />
    <path
       style="fill:#ff80b2;stroke:#ff80b2;stroke-width:3.38324833;stroke-linecap:round;stroke-linejoin:round;stroke-miterlimit:4;stroke-dasharray:none;stroke-opacity:1"
       d="m -1236.8138,105.48608 c 0,0 5.273,11.19315 4.101,26.4262 -0.8042,8.16932 -1.4471,33.25266 16.6686,27.22931 18.1161,-6.02332 -5.5333,-30.61487 0.2972,-59.676287 22.1314,9.806207 24.3846,32.684497 32.1766,39.024217 7.7919,6.33968 28.2589,-5.47449 14.4949,-20.54655 -13.7641,-15.0721 -21.4213,-20.375246 -24.6901,-36.908927 11.5888,-2.549363 24.2233,2.878772 33.7356,11.857371 21.1764,14.854966 34.2769,-6.732832 18.1236,-17.327643 -9.862,-7.716783 -23.3232,-2.329943 -39.1566,-20.25104 17.8214,-9.003484 18.8465,-3.403616 35.6396,-4.595789 28.9845,-2.373365 18.5233,-25.645123 3.6107,-24.071929 -14.9123,1.57326 -30.3724,10.105339 -40.6855,3.892275 -19.1491,-68.19519 -92.1687,-58.113143 -114.486,-23.0148012 -22.3172,35.0983592 -5.9252,102.3344632 60.1704,97.9635932 z"
       id="path2989-3-23-1"
       inkscape:connector-curvature="0"
       sodipodi:nodetypes="cczczzccccczczc" />
    <text
       xml:space="preserve"
       style="font-style:normal;font-variant:normal;font-weight:normal;font-stretch:normal;font-size:81.4463501px;line-height:125%;font-family:'Ubuntu Mono';-inkscape-font-specification:'Ubuntu Mono';letter-spacing:0px;word-spacing:0px;fill:#333333;fill-opacity:1;stroke:none"
       x="-1284.7461"
       y="46.74184"
       id="text3759-6-9-6-6-0"
       sodipodi:linespacing="125%"><tspan
         sodipodi:role="line"
         id="tspan3761-7-1-0-7-6"
         x="-1284.7461"
         y="46.74184">Do</tspan><tspan
         sodipodi:role="line"
         x="-1284.7461"
         y="148.54977"
         id="tspan3763-5-2-6-5-3" /></text>
    <text
       xml:space="preserve"
       style="font-style:normal;font-variant:normal;font-weight:normal;font-stretch:normal;font-size:51.990345px;line-height:125%;font-family:'Ubuntu Mono';-inkscape-font-specification:'Ubuntu Mono';letter-spacing:0px;word-spacing:0px;fill:#333333;fill-opacity:1;stroke:#333333;stroke-width:0.84581208;stroke-miterlimit:4;stroke-dasharray:none"
       x="-1283.7596"
       y="88.199249"
       id="text3765-3-7-2-3-2"
       sodipodi:linespacing="125%"><tspan
         sodipodi:role="line"
         id="tspan3767-5-0-6-5-0"
         x="-1283.7596"
         y="88.199249"
         style="stroke-width:0.84581208">ika</tspan></text>
    <path
       style="fill:none;fill-rule:evenodd;stroke:none;stroke-width:1.64013731px;stroke-linecap:butt;stroke-linejoin:miter;stroke-opacity:1"
       d="m -1295.646,96.955311 c 12.6695,13.126119 35.5987,20.725649 50.794,19.278509"
       id="path4140"
       inkscape:connector-curvature="0"
       sodipodi:nodetypes="cc" />
    <text
       xml:space="preserve"
       style="font-style:normal;font-weight:normal;font-size:40px;line-height:125%;font-family:sans-serif;letter-spacing:0px;word-spacing:0px;fill:#000000;fill-opacity:1;stroke:none;stroke-width:1px;stroke-linecap:butt;stroke-linejoin:miter;stroke-opacity:1"
       x="-1192.6842"
       y="34.341908"
       id="text4142"
       sodipodi:linespacing="125%"><tspan
         sodipodi:role="line"
         id="tspan4144"
         x="-1192.6842"
         y="34.341908" /></text>
    <text
       xml:space="preserve"
       style="font-style:normal;font-weight:normal;font-size:4.36318398px;line-height:125%;font-family:sans-serif;letter-spacing:0px;word-spacing:0px;fill:#1a1a1a;fill-opacity:1;stroke:none;stroke-width:1px;stroke-linecap:butt;stroke-linejoin:miter;stroke-opacity:1"
       id="text4146"
       sodipodi:linespacing="125%"><textPath
         xlink:href="#path4140"
         id="textPath4150"
         style="font-style:normal;font-variant:normal;font-weight:normal;font-stretch:normal;font-size:8.75px;font-family:Ubuntu;-inkscape-font-specification:Ubuntu;fill:#1a1a1a;stroke:none">it.falanster.by</textPath></text>
  </g>
</svg>
