<?xml version="1.0" encoding="UTF-8" standalone="no"?>
<!-- Created with Inkscape (http://www.inkscape.org/) -->

<svg
   xmlns:dc="http://purl.org/dc/elements/1.1/"
   xmlns:cc="http://creativecommons.org/ns#"
   xmlns:rdf="http://www.w3.org/1999/02/22-rdf-syntax-ns#"
   xmlns:svg="http://www.w3.org/2000/svg"
   xmlns="http://www.w3.org/2000/svg"
   xmlns:sodipodi="http://sodipodi.sourceforge.net/DTD/sodipodi-0.dtd"
   xmlns:inkscape="http://www.inkscape.org/namespaces/inkscape"
   width="54.867165mm"
   height="55mm"
   viewBox="0 0 194.41122 194.88189"
   id="svg4185"
   version="1.1"
   inkscape:version="0.91 r13725"
   sodipodi:docname="doika_nalepka_55_curves.svg"
   inkscape:export-filename="/home/jedi/Dropbox/falanster/design/logo/logo_2018/projects_logo/doika/nalepki/doika_nalepka_55.png"
   inkscape:export-xdpi="299.98267"
   inkscape:export-ydpi="299.98267">
  <defs
     id="defs4187" />
  <sodipodi:namedview
     id="base"
     pagecolor="#ffffff"
     bordercolor="#666666"
     borderopacity="1.0"
     inkscape:pageopacity="0.0"
     inkscape:pageshadow="2"
     inkscape:zoom="1.979899"
     inkscape:cx="-104.24031"
     inkscape:cy="107.41529"
     inkscape:document-units="px"
     inkscape:current-layer="layer1"
     showgrid="false"
     fit-margin-top="0"
     fit-margin-left="0"
     fit-margin-right="0"
     fit-margin-bottom="0"
     inkscape:window-width="1855"
     inkscape:window-height="1056"
     inkscape:window-x="65"
     inkscape:window-y="24"
     inkscape:window-maximized="1" />
  <metadata
     id="metadata4190">
    <rdf:RDF>
      <cc:Work
         rdf:about="">
        <dc:format>image/svg+xml</dc:format>
        <dc:type
           rdf:resource="http://purl.org/dc/dcmitype/StillImage" />
        <dc:title></dc:title>
      </cc:Work>
    </rdf:RDF>
  </metadata>
  <g
     inkscape:label="Layer 1"
     inkscape:groupmode="layer"
     id="layer1"
     transform="translate(1314.9398,28.330207)">
    <path
       style="fill:#ffffff;stroke:#ffffff;stroke-width:0.50054479;stroke-linecap:round;stroke-linejoin:round;stroke-miterlimit:4;stroke-dasharray:none;stroke-opacity:1"
       d="m -1240.1733,120.63588 c 0,0 1.2398,6.20918 1.2934,23.64233 0.036,11.75276 7.725,27.52476 26.3129,20.13083 18.5879,-7.39391 6.1886,-23.21257 1.6413,-54.28978 18.4812,16.65927 11.9361,22.44858 23.9529,33.85003 12.0166,11.40145 40.3195,-5.20484 25.6558,-25.26819 -14.6639,-20.063345 -15.3268,-14.65408 -24.5265,-30.134015 12.9632,2.30033 15.3986,5.889519 28.3364,13.269565 12.9636,9.65742 37.6136,-4.065669 26.15,-24.720811 -6.9338,-12.493609 -22.3846,-10.258034 -37.7625,-19.468867 7.2736,-2.413666 9.1176,0.291362 28.2795,-1.068985 33.0733,-2.708162 19.0526,-37.858099 2.0364,-36.062985 -17.0159,1.795191 -27.1035,5.279662 -38.0898,6.004131 -19.7666,-72.345306 -101.2635,-64.487523 -126.7289,-24.4381042 -15.8355,24.9043882 -15.3725,63.4680792 5.9683,88.2678132 2.7304,3.172875 -3.0826,5.611045 -0.4531,9.018005 9.8756,12.794773 35.4136,22.758293 57.9339,21.269033 z"
       id="path2989-3-23-1-2"
       inkscape:connector-curvature="0"
       sodipodi:nodetypes="cszczzccscczcsssc" />
    <path
       style="fill:#ff80b2;stroke:#ff80b2;stroke-width:3.38324833;stroke-linecap:round;stroke-linejoin:round;stroke-miterlimit:4;stroke-dasharray:none;stroke-opacity:1"
       d="m -1236.8138,105.48608 c 0,0 5.273,11.19315 4.101,26.4262 -0.8042,8.16932 -1.4471,33.25266 16.6686,27.22931 18.1161,-6.02332 -5.5333,-30.61487 0.2972,-59.676287 22.1314,9.806207 24.3846,32.684497 32.1766,39.024217 7.7919,6.33968 28.2589,-5.47449 14.4949,-20.54655 -13.7641,-15.0721 -21.4213,-20.375246 -24.6901,-36.908927 11.5888,-2.549363 24.2233,2.878772 33.7356,11.857371 21.1764,14.854966 34.2769,-6.732832 18.1236,-17.327643 -9.862,-7.716783 -23.3232,-2.329943 -39.1566,-20.25104 17.8214,-9.003484 18.8465,-3.403616 35.6396,-4.595789 28.9845,-2.373365 18.5233,-25.645123 3.6107,-24.071929 -14.9123,1.57326 -30.3724,10.105339 -40.6855,3.892275 -19.1491,-68.19519 -92.1687,-58.113143 -114.486,-23.0148012 -22.3172,35.0983592 -5.9252,102.3344632 60.1704,97.9635932 z"
       id="path2989-3-23-1"
       inkscape:connector-curvature="0"
       sodipodi:nodetypes="cczczzccccczczc" />
    <text
       xml:space="preserve"
       style="font-style:normal;font-variant:normal;font-weight:normal;font-stretch:normal;font-size:81.4463501px;line-height:125%;font-family:'Ubuntu Mono';-inkscape-font-specification:'Ubuntu Mono';letter-spacing:0px;word-spacing:0px;fill:#333333;fill-opacity:1;stroke:none"
       x="-1284.7461"
       y="46.74184"
       id="text3759-6-9-6-6-0"
       sodipodi:linespacing="125%"><tspan
         sodipodi:role="line"
         id="tspan3761-7-1-0-7-6"
         x="-1284.7461"
         y="46.74184">Do</tspan><tspan
         sodipodi:role="line"
         x="-1284.7461"
         y="148.54977"
         id="tspan3763-5-2-6-5-3" /></text>
    <text
       xml:space="preserve"
       style="font-style:normal;font-variant:normal;font-weight:normal;font-stretch:normal;font-size:51.990345px;line-height:125%;font-family:'Ubuntu Mono';-inkscape-font-specification:'Ubuntu Mono';letter-spacing:0px;word-spacing:0px;fill:#333333;fill-opacity:1;stroke:#333333;stroke-width:0.84581208;stroke-miterlimit:4;stroke-dasharray:none"
       x="-1283.7596"
       y="88.199249"
       id="text3765-3-7-2-3-2"
       sodipodi:linespacing="125%"><tspan
         sodipodi:role="line"
         id="tspan3767-5-0-6-5-0"
         x="-1283.7596"
         y="88.199249"
         style="stroke-width:0.84581208">ika</tspan></text>
    <path
       style="fill:none;fill-rule:evenodd;stroke:none;stroke-width:1.64013731px;stroke-linecap:butt;stroke-linejoin:miter;stroke-opacity:1"
       d="m -1295.646,96.955311 c 12.6695,13.126119 35.5987,20.725649 50.794,19.278509"
       id="path4140"
       inkscape:connector-curvature="0"
       sodipodi:nodetypes="cc" />
    <text
       xml:space="preserve"
       style="font-style:normal;font-weight:normal;font-size:40px;line-height:125%;font-family:sans-serif;letter-spacing:0px;word-spacing:0px;fill:#000000;fill-opacity:1;stroke:none;stroke-width:1px;stroke-linecap:butt;stroke-linejoin:miter;stroke-opacity:1"
       x="-1192.6842"
       y="34.341908"
       id="text4142"
       sodipodi:linespacing="125%"><tspan
         sodipodi:role="line"
         id="tspan4144"
         x="-1192.6842"
         y="34.341908" /></text>
    <g
       style="font-style:normal;font-weight:normal;font-size:4.36318398px;line-height:125%;font-family:sans-serif;letter-spacing:0px;word-spacing:0px;fill:#1a1a1a;fill-opacity:1;stroke:none;stroke-width:1px;stroke-linecap:butt;stroke-linejoin:miter;stroke-opacity:1"
       id="text4146">
      <path
         d="m -1294.5783,98.02768 -0.5792,-0.571589 3.196,-3.238549 0.5792,0.57159 -3.196,3.238548 z m 3.481,-4.112846 q -0.1557,-0.153653 -0.1695,-0.363931 -0,-0.210359 0.1707,-0.384743 0.1721,-0.174383 0.3763,-0.169547 0.2166,0.0048 0.3723,0.158408 0.1557,0.153653 0.1571,0.364012 0.014,0.210278 -0.1583,0.384662 -0.1721,0.174383 -0.3887,0.169628 -0.2042,-0.0048 -0.3599,-0.158489 z"
         style="font-style:normal;font-variant:normal;font-weight:normal;font-stretch:normal;font-size:8.75px;font-family:Ubuntu;-inkscape-font-specification:Ubuntu;fill:#1a1a1a;stroke:none"
         id="path4146" />
      <path
         d="m -1289.9904,96.077713 1.2971,1.135223 -0.4494,0.51359 -1.2972,-1.135223 -1.383,1.580277 q -0.2247,0.256795 -0.3351,0.462567 -0.1045,0.199187 -0.1119,0.367105 -0,0.161333 0.082,0.304566 0.084,0.143233 0.242,0.281535 0.2766,0.242027 0.493,0.32683 0.2289,0.08398 0.3178,0.115267 l -0.3252,0.61073 q -0.1326,-0.0346 -0.4206,-0.17042 -0.2939,-0.12927 -0.5902,-0.38858 -0.349,-0.305415 -0.5045,-0.592703 -0.1432,-0.28811 -0.1259,-0.586905 0.017,-0.298794 0.1828,-0.607452 0.1778,-0.30948 0.4775,-0.651874 l 2.6738,-3.055201 0.7046,0.430566 -0.9278,1.060102 z"
         style="font-style:normal;font-variant:normal;font-weight:normal;font-stretch:normal;font-size:8.75px;font-family:Ubuntu;-inkscape-font-specification:Ubuntu;fill:#1a1a1a;stroke:none"
         id="path4148" />
      <path
         d="m -1289.7455,101.5629 q -0.1457,0.18595 -0.3776,0.22654 -0.2319,0.0406 -0.4454,-0.12673 -0.2135,-0.16732 -0.2295,-0.40221 -0.016,-0.23489 0.1297,-0.42084 0.1457,-0.18595 0.3776,-0.22654 0.2319,-0.0406 0.4454,0.12673 0.2135,0.16731 0.2295,0.40221 0.016,0.23489 -0.1297,0.42084 z"
         style="font-style:normal;font-variant:normal;font-weight:normal;font-stretch:normal;font-size:8.75px;font-family:Ubuntu;-inkscape-font-specification:Ubuntu;fill:#1a1a1a;stroke:none"
         id="path4150" />
      <path
         d="m -1283.7086,98.145005 q 0.2926,0.207655 0.4691,0.397344 0.1837,0.194753 0.244,0.291206 l -0.5265,0.484714 q -0.055,-0.103588 -0.1869,-0.250689 -0.1266,-0.154235 -0.3549,-0.316307 -0.4638,-0.329209 -0.8316,-0.204026 -0.3628,0.118048 -0.6667,0.546159 l -0.2279,0.321083 1.427,1.012951 -0.395,0.55654 -1.4271,-1.012947 -2.2386,3.153747 -0.6636,-0.47102 2.8717,-4.045647 q 0.5065,-0.713518 1.1296,-0.850645 0.6282,-0.144262 1.3774,0.387537 z"
         style="font-style:normal;font-variant:normal;font-weight:normal;font-stretch:normal;font-size:8.75px;font-family:Ubuntu;-inkscape-font-specification:Ubuntu;fill:#1a1a1a;stroke:none"
         id="path4152" />
      <path
         d="m -1284.6936,104.90254 q 0.2454,0.15213 0.4359,0.25995 0.2026,0.10498 0.3475,0.15361 l 0.7146,-1.15274 q -0.051,-0.0833 -0.2086,-0.21163 -0.1452,-0.13117 -0.3831,-0.2787 -0.1562,-0.0968 -0.3485,-0.18514 -0.1849,-0.0837 -0.3798,-0.10155 -0.1828,-0.0207 -0.3578,0.0458 -0.1705,0.0591 -0.2949,0.25986 -0.2305,0.37185 -0.085,0.66812 0.1503,0.28882 0.5594,0.54238 z m 2.0888,-3.50254 q 0.4165,0.25816 0.6299,0.5449 0.2255,0.28392 0.2721,0.59075 0.059,0.304 -0.038,0.62527 -0.092,0.31384 -0.2944,0.64107 l -1.4983,2.41703 q -0.098,-0.0404 -0.2805,-0.11212 -0.17,-0.0745 -0.3846,-0.17666 -0.2147,-0.10216 -0.4619,-0.23481 -0.2444,-0.1206 -0.4749,-0.26351 -0.3272,-0.20285 -0.5609,-0.44036 -0.2337,-0.2375 -0.3469,-0.50328 -0.1086,-0.27321 -0.073,-0.58035 0.036,-0.30714 0.2434,-0.6418 0.1982,-0.31979 0.4676,-0.47197 0.2767,-0.14757 0.5874,-0.15057 0.3107,-0.003 0.6497,0.11447 0.339,0.11747 0.6662,0.32032 0.1041,0.0645 0.2065,0.14856 0.1069,0.0766 0.1898,0.15883 0.095,0.0794 0.16,0.14039 0.065,0.061 0.09,0.0869 l 0.1199,-0.19337 q 0.106,-0.17105 0.1702,-0.35771 0.069,-0.19411 0.051,-0.38047 -0.014,-0.19379 -0.1387,-0.3742 -0.1129,-0.18323 -0.3806,-0.34919 -0.3421,-0.21206 -0.6347,-0.32136 -0.2805,-0.11212 -0.4392,-0.13843 l 0.2732,-0.62336 q 0.1707,0.0235 0.5153,0.16505 0.3493,0.13412 0.7137,0.36002 z"
         style="font-style:normal;font-variant:normal;font-weight:normal;font-stretch:normal;font-size:8.75px;font-family:Ubuntu;-inkscape-font-specification:Ubuntu;fill:#1a1a1a;stroke:none"
         id="path4154" />
      <path
         d="m -1281.247,107.67464 q -0.6503,-0.37896 -0.7781,-0.79929 -0.1278,-0.42034 0.1851,-0.98722 l 2.6384,-4.78019 0.7801,0.27066 -2.6426,4.78785 q -0.097,0.17619 -0.1301,0.30801 -0.033,0.13182 -0,0.23882 0.031,0.107 0.1247,0.20873 0.098,0.0941 0.2538,0.21007 l -0.4294,0.54256 z"
         style="font-style:normal;font-variant:normal;font-weight:normal;font-stretch:normal;font-size:8.75px;font-family:Ubuntu;-inkscape-font-specification:Ubuntu;fill:#1a1a1a;stroke:none"
         id="path4156" />
      <path
         d="m -1278.6598,108.24089 q 0.2591,0.12742 0.4593,0.2161 0.2119,0.0847 0.3608,0.11892 l 0.5985,-1.21706 q -0.059,-0.0779 -0.2282,-0.19023 -0.1573,-0.11636 -0.4086,-0.23991 -0.1649,-0.0811 -0.3649,-0.1502 -0.1922,-0.0653 -0.3879,-0.064 -0.1839,-0.003 -0.3516,0.0806 -0.1639,0.0754 -0.2681,0.28744 -0.1931,0.3926 -0.019,0.6732 0.1779,0.27275 0.6097,0.48511 z m 1.7365,-3.68991 q 0.4397,0.21623 0.6802,0.48074 0.2522,0.26051 0.3285,0.56132 0.088,0.29682 0.024,0.62596 -0.06,0.32128 -0.2304,0.66677 l -1.2549,2.55189 q -0.1019,-0.0306 -0.2901,-0.0842 -0.1765,-0.0575 -0.4,-0.13823 -0.2236,-0.0807 -0.4826,-0.18855 -0.255,-0.0961 -0.4984,-0.21584 -0.3455,-0.16989 -0.6013,-0.38342 -0.2558,-0.21354 -0.3944,-0.46698 -0.1348,-0.26129 -0.129,-0.57047 0.01,-0.30918 0.1795,-0.66252 0.1661,-0.33764 0.4192,-0.51541 0.2611,-0.17391 0.57,-0.20726 0.3089,-0.0334 0.6578,0.0504 0.3488,0.0838 0.6943,0.25368 0.1099,0.0541 0.22,0.12768 0.1139,0.0658 0.2044,0.13952 0.1022,0.0698 0.173,0.12408 0.071,0.0543 0.098,0.0776 l 0.1004,-0.20415 q 0.089,-0.1806 0.1345,-0.37265 0.05,-0.1999 0.013,-0.38358 -0.033,-0.19153 -0.1745,-0.35886 -0.1303,-0.17132 -0.413,-0.31032 -0.3612,-0.17762 -0.663,-0.25779 -0.2902,-0.0842 -0.4507,-0.0949 l 0.211,-0.64708 q 0.1722,0.007 0.529,0.1139 0.3607,0.0994 0.7454,0.28855 z"
         style="font-style:normal;font-variant:normal;font-weight:normal;font-stretch:normal;font-size:8.75px;font-family:Ubuntu;-inkscape-font-specification:Ubuntu;fill:#1a1a1a;stroke:none"
         id="path4158" />
      <path
         d="m -1274.4892,105.98812 q 0.2854,0.0431 0.7438,0.14872 0.4583,0.10566 1.0157,0.33785 0.5007,0.20863 0.7713,0.49199 0.274,0.27527 0.3601,0.6145 0.098,0.33452 0.03,0.72356 -0.067,0.38904 -0.2457,0.81712 l -0.9826,2.3585 -0.7512,-0.31295 0.9153,-2.19696 q 0.1616,-0.3877 0.2194,-0.68587 0.066,-0.29481 0.015,-0.51491 -0.05,-0.22009 -0.2221,-0.37691 -0.1683,-0.1649 -0.4672,-0.28941 -0.1211,-0.0505 -0.2537,-0.0962 -0.1326,-0.0458 -0.2605,-0.0801 -0.1164,-0.039 -0.2201,-0.0633 -0.096,-0.0209 -0.1393,-0.0296 l -1.4773,3.54583 -0.7512,-0.31295 1.6994,-4.07891 z"
         style="font-style:normal;font-variant:normal;font-weight:normal;font-stretch:normal;font-size:8.75px;font-family:Ubuntu;-inkscape-font-specification:Ubuntu;fill:#1a1a1a;stroke:none"
         id="path4160" />
      <path
         d="m -1270.3362,111.74601 q 0.4705,0.16552 0.7369,0.12011 0.2747,-0.0425 0.3705,-0.31489 0.099,-0.28064 -0.066,-0.52412 -0.1648,-0.24349 -0.604,-0.62988 -0.2128,-0.18616 -0.409,-0.36652 -0.1851,-0.1857 -0.3009,-0.3841 -0.1157,-0.1984 -0.145,-0.43134 -0.029,-0.23295 0.072,-0.52184 0.2004,-0.56953 0.7375,-0.7516 0.54,-0.19033 1.2664,0.0652 0.1816,0.0639 0.3545,0.15253 0.1757,0.0804 0.321,0.16858 0.1481,0.0799 0.252,0.15361 0.1122,0.0766 0.1695,0.12456 l -0.3726,0.61097 q -0.1006,-0.10959 -0.3415,-0.26855 -0.238,-0.16721 -0.6094,-0.29788 -0.3219,-0.11325 -0.6077,-0.0654 -0.283,0.0396 -0.3788,0.31198 -0.049,0.14032 -0.038,0.26505 0.02,0.12763 0.095,0.25617 0.086,0.1232 0.2255,0.25556 0.1389,0.13237 0.341,0.29621 0.2647,0.223 0.4635,0.42277 0.2016,0.19152 0.3144,0.39817 0.1211,0.20955 0.1364,0.4561 0.018,0.23829 -0.089,0.5437 -0.2091,0.59429 -0.7622,0.74289 -0.5449,0.1515 -1.3621,-0.13598 -0.5695,-0.20037 -0.8566,-0.41266 -0.29,-0.20405 -0.3881,-0.29423 l 0.3726,-0.61096 q 0.1147,0.096 0.3687,0.29667 0.2541,0.20068 0.7328,0.3691 z"
         style="font-style:normal;font-variant:normal;font-weight:normal;font-stretch:normal;font-size:8.75px;font-family:Ubuntu;-inkscape-font-specification:Ubuntu;fill:#1a1a1a;stroke:none"
         id="path4162" />
      <path
         d="m -1265.8041,109.06628 1.651,0.49567 -0.1963,0.65367 -1.6509,-0.49566 -0.6039,2.0113 q -0.098,0.32684 -0.1132,0.55983 -0.013,0.22461 0.05,0.38051 0.065,0.14752 0.2011,0.24309 0.1357,0.0956 0.3368,0.15596 0.352,0.10567 0.5842,0.0931 0.243,-0.0184 0.3369,-0.0267 l -0.043,0.69059 q -0.1349,0.0234 -0.4534,0.0192 -0.321,0.004 -0.6981,-0.10911 -0.4442,-0.13335 -0.7048,-0.33036 -0.2497,-0.20287 -0.3578,-0.48198 -0.108,-0.27911 -0.085,-0.62859 0.034,-0.35535 0.1644,-0.79113 l 1.1675,-3.88853 0.8196,0.0999 -0.4051,1.34925 z"
         style="font-style:normal;font-variant:normal;font-weight:normal;font-stretch:normal;font-size:8.75px;font-family:Ubuntu;-inkscape-font-specification:Ubuntu;fill:#1a1a1a;stroke:none"
         id="path4164" />
      <path
         d="m -1264.2604,111.91451 q 0.1417,-0.5869 0.4165,-0.97962 0.2769,-0.40124 0.6274,-0.62268 0.3505,-0.22144 0.7511,-0.27775 0.4007,-0.0563 0.7834,0.0361 0.8931,0.21558 1.2339,0.89193 0.3429,0.66785 0.068,1.80762 -0.012,0.051 -0.033,0.13609 -0.019,0.0766 -0.043,0.14254 l -3.028,-0.73093 q -0.1153,0.70128 0.1472,1.1427 0.2625,0.44142 1.0025,0.62005 0.4168,0.1006 0.7139,0.10031 0.3077,-0.007 0.4687,-0.0399 l -0.05,0.69013 q -0.163,0.0417 -0.5493,0.0384 -0.3778,-0.001 -0.8371,-0.11205 -0.5784,-0.13961 -0.9626,-0.41239 -0.3737,-0.27922 -0.5719,-0.65113 -0.1983,-0.3719 -0.2338,-0.82153 -0.025,-0.45609 0.096,-0.95792 z m 3.1413,0.29919 q 0.1378,-0.53381 -0.061,-0.94179 -0.188,-0.41444 -0.6729,-0.53147 -0.2722,-0.0657 -0.5115,-0.006 -0.2288,0.0528 -0.4144,0.188 -0.1857,0.13521 -0.3241,0.33583 -0.13,0.20267 -0.2109,0.42616 l 2.1945,0.52972 z"
         style="font-style:normal;font-variant:normal;font-weight:normal;font-stretch:normal;font-size:8.75px;font-family:Ubuntu;-inkscape-font-specification:Ubuntu;fill:#1a1a1a;stroke:none"
         id="path4166" />
      <path
         d="m -1257.2857,110.99782 q 0.1032,0.019 0.2291,0.06 0.1361,0.034 0.2604,0.0836 0.1259,0.041 0.2244,0.0859 0.1087,0.0378 0.1572,0.0646 l -0.2662,0.67161 q -0.088,-0.0519 -0.3041,-0.13616 -0.2056,-0.0913 -0.5498,-0.15477 -0.2238,-0.0413 -0.457,-0.0309 -0.2231,0.003 -0.2951,0.008 l -0.6934,3.76035 -0.8003,-0.14757 0.7902,-4.28525 q 0.303,-0.0509 0.7406,-0.0592 0.4391,-0.0169 0.964,0.0799 z"
         style="font-style:normal;font-variant:normal;font-weight:normal;font-stretch:normal;font-size:8.75px;font-family:Ubuntu;-inkscape-font-specification:Ubuntu;fill:#1a1a1a;stroke:none"
         id="path4168" />
      <path
         d="m -1255.8975,115.42732 q -0.034,0.2338 -0.2149,0.38436 -0.181,0.15056 -0.4494,0.11159 -0.2685,-0.039 -0.3992,-0.23477 -0.1307,-0.19581 -0.097,-0.42961 0.034,-0.2338 0.2149,-0.38436 0.181,-0.15056 0.4495,-0.1116 0.2684,0.039 0.3991,0.23478 0.1308,0.19581 0.097,0.42961 z"
         style="font-style:normal;font-variant:normal;font-weight:normal;font-stretch:normal;font-size:8.75px;font-family:Ubuntu;-inkscape-font-specification:Ubuntu;fill:#1a1a1a;stroke:none"
         id="path4170" />
      <path
         d="m -1253.6121,111.80562 q 0.1563,-0.0835 0.4615,-0.16336 0.3139,-0.0791 0.7063,-0.0463 0.4883,0.0408 0.8486,0.24659 0.3691,0.20648 0.6045,0.54226 0.2353,0.33579 0.3296,0.7827 0.1031,0.44765 0.059,0.97082 -0.046,0.54933 -0.2488,0.98018 -0.1934,0.42285 -0.5154,0.70323 -0.322,0.28039 -0.7544,0.41106 -0.4324,0.13066 -0.9556,0.0869 -0.5667,-0.0474 -0.9962,-0.16235 -0.4294,-0.11494 -0.7018,-0.21675 l 0.5433,-6.49607 0.8226,-0.0717 -0.2035,2.43276 z m -0.3034,3.62733 q 0.1192,0.0451 0.3343,0.0982 0.2245,0.0451 0.5558,0.0728 0.654,0.0547 1.0821,-0.33974 0.4288,-0.40316 0.4952,-1.19664 0.029,-0.34878 -0.015,-0.6598 -0.044,-0.31102 -0.1829,-0.54213 -0.138,-0.23984 -0.3807,-0.38306 -0.2332,-0.15122 -0.5819,-0.18039 -0.3314,-0.0277 -0.6199,0.0623 -0.2885,0.09 -0.4469,0.19969 l -0.24,2.86873 z"
         style="font-style:normal;font-variant:normal;font-weight:normal;font-stretch:normal;font-size:8.75px;font-family:Ubuntu;-inkscape-font-specification:Ubuntu;fill:#1a1a1a;stroke:none"
         id="path4172" />
      <path
         d="m -1250.2804,117.27652 q 0.097,0.0428 0.2458,0.0762 0.1579,0.0421 0.3066,0.0406 0.4813,-0.005 0.7503,-0.22641 0.2691,-0.21275 0.4829,-0.69621 -0.5619,-1.04433 -1.0551,-2.21186 -0.4845,-1.17637 -0.8118,-2.3806 l 0.8749,-0.009 q 0.1003,0.39275 0.2362,0.84639 0.1446,0.45355 0.3158,0.93308 0.1711,0.47953 0.3685,0.95879 0.1974,0.47927 0.4119,0.92335 0.3232,-0.92209 0.559,-1.82579 0.2358,-0.9037 0.4448,-1.85963 l 0.8399,-0.009 q -0.3018,1.2894 -0.6747,2.48326 -0.3729,1.18511 -0.8086,2.22211 -0.171,0.39551 -0.3606,0.67746 -0.1808,0.29061 -0.4065,0.47667 -0.2256,0.18606 -0.5134,0.2765 -0.2791,0.0904 -0.6378,0.094 -0.096,9.8e-4 -0.2015,-0.0155 -0.105,-0.008 -0.2103,-0.0329 -0.096,-0.0165 -0.1842,-0.0419 -0.079,-0.0254 -0.1142,-0.0426 l 0.1421,-0.65773 z"
         style="font-style:normal;font-variant:normal;font-weight:normal;font-stretch:normal;font-size:8.75px;font-family:Ubuntu;-inkscape-font-specification:Ubuntu;fill:#1a1a1a;stroke:none"
         id="path4174" />
    </g>
  </g>
</svg>
