<?xml version="1.0" encoding="UTF-8" standalone="no"?>
<!-- Created with Inkscape (http://www.inkscape.org/) -->

<svg
   xmlns:dc="http://purl.org/dc/elements/1.1/"
   xmlns:cc="http://creativecommons.org/ns#"
   xmlns:rdf="http://www.w3.org/1999/02/22-rdf-syntax-ns#"
   xmlns:svg="http://www.w3.org/2000/svg"
   xmlns="http://www.w3.org/2000/svg"
   xmlns:xlink="http://www.w3.org/1999/xlink"
   xmlns:sodipodi="http://sodipodi.sourceforge.net/DTD/sodipodi-0.dtd"
   xmlns:inkscape="http://www.inkscape.org/namespaces/inkscape"
   width="79.806778mm"
   height="80mm"
   viewBox="0 0 282.77993 283.46457"
   id="svg4185"
   version="1.1"
   inkscape:version="0.91 r13725"
   sodipodi:docname="doika_nalepka_80.svg"
   inkscape:export-filename="/home/jedi/Dropbox/falanster/design/logo/logo_2018/projects_logo/doika/nalepki/doika_nalepka_80.png"
   inkscape:export-xdpi="300.03751"
   inkscape:export-ydpi="300.03751">
  <defs
     id="defs4187" />
  <sodipodi:namedview
     id="base"
     pagecolor="#ffffff"
     bordercolor="#666666"
     borderopacity="1.0"
     inkscape:pageopacity="0.0"
     inkscape:pageshadow="2"
     inkscape:zoom="1.979899"
     inkscape:cx="66.980509"
     inkscape:cy="107.4153"
     inkscape:document-units="px"
     inkscape:current-layer="layer1"
     showgrid="false"
     fit-margin-top="0"
     fit-margin-left="0"
     fit-margin-right="0"
     fit-margin-bottom="0"
     inkscape:window-width="1855"
     inkscape:window-height="1056"
     inkscape:window-x="65"
     inkscape:window-y="24"
     inkscape:window-maximized="1" />
  <metadata
     id="metadata4190">
    <rdf:RDF>
      <cc:Work
         rdf:about="">
        <dc:format>image/svg+xml</dc:format>
        <dc:type
           rdf:resource="http://purl.org/dc/dcmitype/StillImage" />
        <dc:title></dc:title>
      </cc:Work>
    </rdf:RDF>
  </metadata>
  <g
     inkscape:label="Layer 1"
     inkscape:groupmode="layer"
     id="layer1"
     transform="translate(1314.9398,116.91289)">
    <path
       style="fill:#ffffff;stroke:#ffffff;stroke-width:0.72806513;stroke-linecap:round;stroke-linejoin:round;stroke-miterlimit:4;stroke-dasharray:none;stroke-opacity:1"
       d="m -1206.1885,99.765058 c 0,0 1.8033,9.031532 1.8813,34.388842 0.052,17.09492 11.2363,40.03602 38.2733,29.28121 27.0369,-10.75478 9.0016,-33.76374 2.3873,-78.966953 26.8818,24.231663 17.3616,32.652483 34.8406,49.236403 17.4787,16.58393 58.6466,-7.57067 37.3175,-36.753727 -21.3293,-29.183047 -22.2935,-21.315025 -35.6749,-43.831294 18.8556,3.345935 22.398,8.566573 41.2166,19.301185 18.8562,14.047156 54.7107,-5.9137 38.0364,-35.957542 -10.0856,-18.172522 -32.5594,-14.920777 -54.9273,-28.3183519 10.5798,-3.5107868 13.262,0.4237993 41.1338,-1.5548872 48.1066,-3.9391447 27.7129,-55.0663249 2.962,-52.4552499 -24.7503,2.611187 -39.4232,7.679508 -55.4033,8.733281 -28.7514,-105.229534 -147.2924,-93.800034 -184.3329,-35.546333 -23.0335,36.224564 -22.36,92.317205 8.6811,128.389545 3.9715,4.615091 -4.4838,8.16152 -0.659,13.117098 14.3645,18.610578 51.5107,33.102966 84.2675,30.936774 z"
       id="path2989-3-23-1-2"
       inkscape:connector-curvature="0"
       sodipodi:nodetypes="cszczzccscczcsssc" />
    <path
       style="fill:#ff80b2;stroke:#ff80b2;stroke-width:4.92108822;stroke-linecap:round;stroke-linejoin:round;stroke-miterlimit:4;stroke-dasharray:none;stroke-opacity:1"
       d="m -1201.302,77.728986 c 0,0 7.6698,16.280945 5.9651,38.438104 -1.1697,11.88265 -2.1049,48.36751 24.2452,39.60627 26.3507,-8.76119 -8.0484,-44.53072 0.4323,-86.801868 32.1912,14.263574 35.4685,47.541088 46.8024,56.762498 11.3336,9.22135 41.1038,-7.9629 21.0834,-29.885891 -20.0205,-21.923055 -31.1582,-29.636721 -35.9128,-53.685712 16.8564,-3.708164 35.2339,4.187305 49.0699,17.247085 30.8021,21.607223 49.8573,-9.79321 26.3616,-25.203844 -14.3447,-11.224411 -33.9246,-3.389008 -56.955,-29.4560575 25.922,-13.0959765 27.4131,-4.95071408 51.8394,-6.6847839 42.1593,-3.4521672 26.943,-37.3019966 5.2519,-35.0137146 -21.6906,2.288378 -44.178,14.698675 -59.1789,5.661491 -27.8532,-99.193003 -134.0635,-84.528203 -166.5251,-33.476074 -32.4614,51.052158 -8.6184,148.850126 87.5206,142.492497 z"
       id="path2989-3-23-1"
       inkscape:connector-curvature="0"
       sodipodi:nodetypes="cczczzccccczczc" />
    <text
       xml:space="preserve"
       style="font-style:normal;font-variant:normal;font-weight:normal;font-stretch:normal;font-size:118.46741486px;line-height:125%;font-family:'Ubuntu Mono';-inkscape-font-specification:'Ubuntu Mono';letter-spacing:0px;word-spacing:0px;fill:#333333;fill-opacity:1;stroke:none"
       x="-1271.0217"
       y="-7.7171793"
       id="text3759-6-9-6-6-0"
       sodipodi:linespacing="125%"><tspan
         sodipodi:role="line"
         id="tspan3761-7-1-0-7-6"
         x="-1271.0217"
         y="-7.7171793">Do</tspan><tspan
         sodipodi:role="line"
         x="-1271.0217"
         y="140.3671"
         id="tspan3763-5-2-6-5-3" /></text>
    <text
       xml:space="preserve"
       style="font-style:normal;font-variant:normal;font-weight:normal;font-stretch:normal;font-size:75.62232208px;line-height:125%;font-family:'Ubuntu Mono';-inkscape-font-specification:'Ubuntu Mono';letter-spacing:0px;word-spacing:0px;fill:#333333;fill-opacity:1;stroke:#333333;stroke-width:1.23027205;stroke-miterlimit:4;stroke-dasharray:none"
       x="-1269.5869"
       y="52.584507"
       id="text3765-3-7-2-3-2"
       sodipodi:linespacing="125%"><tspan
         sodipodi:role="line"
         id="tspan3767-5-0-6-5-0"
         x="-1269.5869"
         y="52.584507"
         style="stroke-width:1.23027205">ika</tspan></text>
    <path
       style="fill:none;fill-rule:evenodd;stroke:none;stroke-width:1.64013731px;stroke-linecap:butt;stroke-linejoin:miter;stroke-opacity:1"
       d="m -1286.8761,65.320595 c 18.4284,19.092536 51.7799,30.146398 73.8822,28.041467"
       id="path4140"
       inkscape:connector-curvature="0"
       sodipodi:nodetypes="cc" />
    <text
       xml:space="preserve"
       style="font-style:normal;font-weight:normal;font-size:40px;line-height:125%;font-family:sans-serif;letter-spacing:0px;word-spacing:0px;fill:#000000;fill-opacity:1;stroke:none;stroke-width:1px;stroke-linecap:butt;stroke-linejoin:miter;stroke-opacity:1"
       x="-1192.6842"
       y="34.341908"
       id="text4142"
       sodipodi:linespacing="125%"><tspan
         sodipodi:role="line"
         id="tspan4144"
         x="-1192.6842"
         y="34.341908" /></text>
    <text
       xml:space="preserve"
       style="font-style:normal;font-weight:normal;font-size:4.36318398px;line-height:125%;font-family:sans-serif;letter-spacing:0px;word-spacing:0px;fill:#1a1a1a;fill-opacity:1;stroke:none;stroke-width:1px;stroke-linecap:butt;stroke-linejoin:miter;stroke-opacity:1"
       id="text4146"
       sodipodi:linespacing="125%"><textPath
         xlink:href="#path4140"
         id="textPath4150"
         style="font-style:normal;font-variant:normal;font-weight:normal;font-stretch:normal;font-size:12.50000095px;font-family:Ubuntu;-inkscape-font-specification:Ubuntu;fill:#1a1a1a;stroke:none">it.falanster.by</textPath></text>
  </g>
</svg>
