<?xml version="1.0" encoding="UTF-8" standalone="no"?>
<!-- Created with Inkscape (http://www.inkscape.org/) -->

<svg
   xmlns:dc="http://purl.org/dc/elements/1.1/"
   xmlns:cc="http://creativecommons.org/ns#"
   xmlns:rdf="http://www.w3.org/1999/02/22-rdf-syntax-ns#"
   xmlns:svg="http://www.w3.org/2000/svg"
   xmlns="http://www.w3.org/2000/svg"
   xmlns:sodipodi="http://sodipodi.sourceforge.net/DTD/sodipodi-0.dtd"
   xmlns:inkscape="http://www.inkscape.org/namespaces/inkscape"
   width="79.806778mm"
   height="80mm"
   viewBox="0 0 282.77993 283.46457"
   id="svg4185"
   version="1.1"
   inkscape:version="0.91 r13725"
   sodipodi:docname="doika_nalepka_80_curves.svg"
   inkscape:export-filename="/home/jedi/Dropbox/falanster/design/logo/logo_2018/projects_logo/doika/nalepki/doika_nalepka_80.png"
   inkscape:export-xdpi="300.03751"
   inkscape:export-ydpi="300.03751">
  <defs
     id="defs4187" />
  <sodipodi:namedview
     id="base"
     pagecolor="#ffffff"
     bordercolor="#666666"
     borderopacity="1.0"
     inkscape:pageopacity="0.0"
     inkscape:pageshadow="2"
     inkscape:zoom="1.979899"
     inkscape:cx="-18.629919"
     inkscape:cy="107.4153"
     inkscape:document-units="px"
     inkscape:current-layer="layer1"
     showgrid="false"
     fit-margin-top="0"
     fit-margin-left="0"
     fit-margin-right="0"
     fit-margin-bottom="0"
     inkscape:window-width="1855"
     inkscape:window-height="1056"
     inkscape:window-x="65"
     inkscape:window-y="24"
     inkscape:window-maximized="1" />
  <metadata
     id="metadata4190">
    <rdf:RDF>
      <cc:Work
         rdf:about="">
        <dc:format>image/svg+xml</dc:format>
        <dc:type
           rdf:resource="http://purl.org/dc/dcmitype/StillImage" />
        <dc:title></dc:title>
      </cc:Work>
    </rdf:RDF>
  </metadata>
  <g
     inkscape:label="Layer 1"
     inkscape:groupmode="layer"
     id="layer1"
     transform="translate(1314.9398,116.91289)">
    <path
       style="fill:#ffffff;stroke:#ffffff;stroke-width:0.72806513;stroke-linecap:round;stroke-linejoin:round;stroke-miterlimit:4;stroke-dasharray:none;stroke-opacity:1"
       d="m -1206.1885,99.765058 c 0,0 1.8033,9.031532 1.8813,34.388842 0.052,17.09492 11.2363,40.03602 38.2733,29.28121 27.0369,-10.75478 9.0016,-33.76374 2.3873,-78.966953 26.8818,24.231663 17.3616,32.652483 34.8406,49.236403 17.4787,16.58393 58.6466,-7.57067 37.3175,-36.753727 -21.3293,-29.183047 -22.2935,-21.315025 -35.6749,-43.831294 18.8556,3.345935 22.398,8.566573 41.2166,19.301185 18.8562,14.047156 54.7107,-5.9137 38.0364,-35.957542 -10.0856,-18.172522 -32.5594,-14.920777 -54.9273,-28.3183519 10.5798,-3.5107868 13.262,0.4237993 41.1338,-1.5548872 48.1066,-3.9391447 27.7129,-55.0663249 2.962,-52.4552499 -24.7503,2.611187 -39.4232,7.679508 -55.4033,8.733281 -28.7514,-105.229534 -147.2924,-93.800034 -184.3329,-35.546333 -23.0335,36.224564 -22.36,92.317205 8.6811,128.389545 3.9715,4.615091 -4.4838,8.16152 -0.659,13.117098 14.3645,18.610578 51.5107,33.102966 84.2675,30.936774 z"
       id="path2989-3-23-1-2"
       inkscape:connector-curvature="0"
       sodipodi:nodetypes="cszczzccscczcsssc" />
    <path
       style="fill:#ff80b2;stroke:#ff80b2;stroke-width:4.92108822;stroke-linecap:round;stroke-linejoin:round;stroke-miterlimit:4;stroke-dasharray:none;stroke-opacity:1"
       d="m -1201.302,77.728986 c 0,0 7.6698,16.280945 5.9651,38.438104 -1.1697,11.88265 -2.1049,48.36751 24.2452,39.60627 26.3507,-8.76119 -8.0484,-44.53072 0.4323,-86.801868 32.1912,14.263574 35.4685,47.541088 46.8024,56.762498 11.3336,9.22135 41.1038,-7.9629 21.0834,-29.885891 -20.0205,-21.923055 -31.1582,-29.636721 -35.9128,-53.685712 16.8564,-3.708164 35.2339,4.187305 49.0699,17.247085 30.8021,21.607223 49.8573,-9.79321 26.3616,-25.203844 -14.3447,-11.224411 -33.9246,-3.389008 -56.955,-29.4560575 25.922,-13.0959765 27.4131,-4.95071408 51.8394,-6.6847839 42.1593,-3.4521672 26.943,-37.3019966 5.2519,-35.0137146 -21.6906,2.288378 -44.178,14.698675 -59.1789,5.661491 -27.8532,-99.193003 -134.0635,-84.528203 -166.5251,-33.476074 -32.4614,51.052158 -8.6184,148.850126 87.5206,142.492497 z"
       id="path2989-3-23-1"
       inkscape:connector-curvature="0"
       sodipodi:nodetypes="cczczzccccczczc" />
    <text
       xml:space="preserve"
       style="font-style:normal;font-variant:normal;font-weight:normal;font-stretch:normal;font-size:118.46741486px;line-height:125%;font-family:'Ubuntu Mono';-inkscape-font-specification:'Ubuntu Mono';letter-spacing:0px;word-spacing:0px;fill:#333333;fill-opacity:1;stroke:none"
       x="-1271.0217"
       y="-7.7171793"
       id="text3759-6-9-6-6-0"
       sodipodi:linespacing="125%"><tspan
         sodipodi:role="line"
         id="tspan3761-7-1-0-7-6"
         x="-1271.0217"
         y="-7.7171793">Do</tspan><tspan
         sodipodi:role="line"
         x="-1271.0217"
         y="140.3671"
         id="tspan3763-5-2-6-5-3" /></text>
    <text
       xml:space="preserve"
       style="font-style:normal;font-variant:normal;font-weight:normal;font-stretch:normal;font-size:75.62232208px;line-height:125%;font-family:'Ubuntu Mono';-inkscape-font-specification:'Ubuntu Mono';letter-spacing:0px;word-spacing:0px;fill:#333333;fill-opacity:1;stroke:#333333;stroke-width:1.23027205;stroke-miterlimit:4;stroke-dasharray:none"
       x="-1269.5869"
       y="52.584507"
       id="text3765-3-7-2-3-2"
       sodipodi:linespacing="125%"><tspan
         sodipodi:role="line"
         id="tspan3767-5-0-6-5-0"
         x="-1269.5869"
         y="52.584507"
         style="stroke-width:1.23027205">ika</tspan></text>
    <path
       style="fill:none;fill-rule:evenodd;stroke:none;stroke-width:1.64013731px;stroke-linecap:butt;stroke-linejoin:miter;stroke-opacity:1"
       d="m -1286.8761,65.320595 c 18.4284,19.092536 51.7799,30.146398 73.8822,28.041467"
       id="path4140"
       inkscape:connector-curvature="0"
       sodipodi:nodetypes="cc" />
    <text
       xml:space="preserve"
       style="font-style:normal;font-weight:normal;font-size:40px;line-height:125%;font-family:sans-serif;letter-spacing:0px;word-spacing:0px;fill:#000000;fill-opacity:1;stroke:none;stroke-width:1px;stroke-linecap:butt;stroke-linejoin:miter;stroke-opacity:1"
       x="-1192.6842"
       y="34.341908"
       id="text4142"
       sodipodi:linespacing="125%"><tspan
         sodipodi:role="line"
         id="tspan4144"
         x="-1192.6842"
         y="34.341908" /></text>
    <g
       style="font-style:normal;font-weight:normal;font-size:4.36318398px;line-height:125%;font-family:sans-serif;letter-spacing:0px;word-spacing:0px;fill:#1a1a1a;fill-opacity:1;stroke:none;stroke-width:1px;stroke-linecap:butt;stroke-linejoin:miter;stroke-opacity:1"
       id="text4146">
      <path
         d="m -1285.351,66.853276 -0.8271,-0.816901 4.5677,-4.624593 0.8271,0.816901 -4.5677,4.624593 z m 4.9754,-5.87342 q -0.2224,-0.219597 -0.2419,-0.520002 -0,-0.300514 0.2441,-0.549531 0.2459,-0.249016 0.5376,-0.241986 0.3095,0.0069 0.5318,0.226519 0.2223,0.219597 0.2242,0.520112 0.019,0.300405 -0.2264,0.549421 -0.246,0.249017 -0.5554,0.242095 -0.2917,-0.007 -0.514,-0.226628 z"
         style="font-style:normal;font-variant:normal;font-weight:normal;font-stretch:normal;font-size:12.50000095px;font-family:Ubuntu;-inkscape-font-specification:Ubuntu;fill:#1a1a1a;stroke:none"
         id="path4146" />
      <path
         d="m -1278.7919,64.075782 1.8508,1.624325 -0.6432,0.732805 -1.8508,-1.624324 -1.9788,2.254788 q -0.3216,0.366403 -0.4796,0.660143 -0.1498,0.284346 -0.1607,0.524214 -0,0.230473 0.1169,0.435258 0.1197,0.204785 0.3452,0.402672 0.3945,0.346303 0.7036,0.467881 0.3267,0.120428 0.4537,0.165301 l -0.4658,0.871826 q -0.1893,-0.04967 -0.6005,-0.244305 -0.4196,-0.185241 -0.8423,-0.55628 -0.498,-0.437001 -0.7196,-0.84772 -0.204,-0.41187 -0.1787,-0.838685 0.025,-0.426815 0.2624,-0.867425 0.2546,-0.441761 0.6834,-0.930298 l 3.8258,-4.359256 1.0057,0.616494 -1.3275,1.512586 z"
         style="font-style:normal;font-variant:normal;font-weight:normal;font-stretch:normal;font-size:12.50000095px;font-family:Ubuntu;-inkscape-font-specification:Ubuntu;fill:#1a1a1a;stroke:none"
         id="path4148" />
      <path
         d="m -1278.4545,71.914094 q -0.2088,0.265184 -0.5402,0.322438 -0.3314,0.05725 -0.6359,-0.182442 -0.3045,-0.239696 -0.3266,-0.575307 -0.022,-0.33561 0.1866,-0.600794 0.2088,-0.265184 0.5402,-0.322438 0.3314,-0.05725 0.6359,0.182442 0.3045,0.239696 0.3266,0.575307 0.022,0.33561 -0.1866,0.600794 z"
         style="font-style:normal;font-variant:normal;font-weight:normal;font-stretch:normal;font-size:12.50000095px;font-family:Ubuntu;-inkscape-font-specification:Ubuntu;fill:#1a1a1a;stroke:none"
         id="path4150" />
      <path
         d="m -1269.8159,67.055609 q 0.4171,0.297844 0.6685,0.569549 0.2616,0.278969 0.3473,0.417004 l -0.7541,0.690294 q -0.078,-0.148208 -0.2659,-0.358888 -0.1802,-0.220853 -0.5057,-0.453317 -0.6612,-0.472192 -1.1872,-0.294863 -0.5188,0.167157 -0.9547,0.777499 l -0.3269,0.457757 2.0345,1.452898 -0.5666,0.793445 -2.0345,-1.452897 -3.2109,4.49619 -0.946,-0.675597 4.1189,-5.767738 q 0.7265,-1.017237 1.6172,-1.210586 0.898,-0.203521 1.9661,0.55925 z"
         style="font-style:normal;font-variant:normal;font-weight:normal;font-stretch:normal;font-size:12.50000095px;font-family:Ubuntu;-inkscape-font-specification:Ubuntu;fill:#1a1a1a;stroke:none"
         id="path4152" />
      <path
         d="m -1271.251,76.70775 q 0.3498,0.218617 0.6215,0.373637 0.2888,0.151043 0.4955,0.221264 l 1.0269,-1.643017 q -0.073,-0.119249 -0.2968,-0.303419 -0.2067,-0.188145 -0.5459,-0.400138 -0.2226,-0.13912 -0.4969,-0.266315 -0.2637,-0.120569 -0.542,-0.147063 -0.261,-0.03047 -0.5114,0.06361 -0.2438,0.08348 -0.4227,0.369683 -0.3312,0.530005 -0.1245,0.954 0.2133,0.413395 0.7963,0.777758 z m 3.0024,-4.992651 q 0.5936,0.370987 0.897,0.78173 0.3207,0.406768 0.3856,0.845341 0.082,0.434597 -0.057,0.893049 -0.1325,0.447852 -0.424,0.914257 l -2.1531,3.445037 q -0.1404,-0.0583 -0.4001,-0.161642 -0.2425,-0.10732 -0.5486,-0.254388 -0.3061,-0.147069 -0.6585,-0.337861 -0.3485,-0.173568 -0.6771,-0.378936 -0.4664,-0.29149 -0.799,-0.632008 -0.3326,-0.340517 -0.4929,-0.720788 -0.1537,-0.390871 -0.1007,-0.829447 0.053,-0.438575 0.3511,-0.91558 0.2849,-0.455805 0.6704,-0.671787 0.3962,-0.209358 0.8401,-0.212017 0.4439,-0.0027 0.9275,0.166931 0.4836,0.16959 0.95,0.46108 0.1484,0.09275 0.2942,0.213319 0.1523,0.109972 0.2703,0.227894 0.1351,0.113947 0.2279,0.201395 0.093,0.08745 0.1285,0.124547 l 0.1722,-0.275603 q 0.1524,-0.243802 0.2452,-0.510129 0.099,-0.276926 0.074,-0.54325 -0.019,-0.276924 -0.1961,-0.535295 -0.1603,-0.262346 -0.5419,-0.500838 -0.4876,-0.30474 -0.905,-0.462406 -0.4001,-0.161642 -0.6267,-0.200062 l 0.3935,-0.889081 q 0.2438,0.03444 0.7354,0.238484 0.4982,0.19344 1.0176,0.518054 z"
         style="font-style:normal;font-variant:normal;font-weight:normal;font-stretch:normal;font-size:12.50000095px;font-family:Ubuntu;-inkscape-font-specification:Ubuntu;fill:#1a1a1a;stroke:none"
         id="path4154" />
      <path
         d="m -1266.3432,80.687843 q -0.9267,-0.54535 -1.1067,-1.146612 -0.18,-0.601261 0.2705,-1.409163 l 3.7985,-6.812575 1.1127,0.391445 -3.8046,6.823493 q -0.14,0.251105 -0.1876,0.439218 -0.048,0.188114 -0,0.341158 0.043,0.153045 0.1768,0.298944 0.1394,0.134981 0.3613,0.301656 l -0.6167,0.772436 z"
         style="font-style:normal;font-variant:normal;font-weight:normal;font-stretch:normal;font-size:12.50000095px;font-family:Ubuntu;-inkscape-font-specification:Ubuntu;fill:#1a1a1a;stroke:none"
         id="path4156" />
      <path
         d="m -1262.651,81.514144 q 0.3692,0.183844 0.6545,0.311929 0.3021,0.122467 0.5146,0.172415 l 0.8635,-1.734433 q -0.084,-0.11166 -0.3247,-0.273363 -0.2239,-0.167322 -0.5819,-0.345595 -0.235,-0.116992 -0.5203,-0.217127 -0.2741,-0.09456 -0.5536,-0.09409 -0.2627,-0.0051 -0.5029,0.112664 -0.2346,0.106615 -0.385,0.408743 -0.2786,0.559494 -0.032,0.961565 0.2522,0.390881 0.8677,0.697287 z m 2.5065,-5.259059 q 0.6267,0.311978 0.9683,0.691525 0.3584,0.373929 0.4654,0.804189 0.1237,0.424642 0.03,0.894378 -0.089,0.458547 -0.3338,0.950902 l -1.8106,3.636715 q -0.1454,-0.04447 -0.4139,-0.122275 -0.2517,-0.08342 -0.5705,-0.20027 -0.3189,-0.116848 -0.6881,-0.272741 -0.3636,-0.139132 -0.7105,-0.311834 -0.4923,-0.245125 -0.8562,-0.551962 -0.3639,-0.306837 -0.5602,-0.669862 -0.1907,-0.374216 -0.1803,-0.815858 0.01,-0.441642 0.2612,-0.945187 0.2395,-0.481165 0.6024,-0.733345 0.3742,-0.246608 0.8157,-0.292085 0.4416,-0.04548 0.9393,0.07666 0.4977,0.122132 0.9901,0.367257 0.1566,0.07799 0.3133,0.183939 0.1623,0.09475 0.2911,0.200748 0.1455,0.100374 0.2463,0.178465 0.1007,0.07809 0.1399,0.111564 l 0.1448,-0.290938 q 0.1282,-0.257367 0.1948,-0.5314 0.072,-0.285223 0.021,-0.547874 -0.045,-0.273842 -0.2468,-0.513874 -0.1849,-0.245651 -0.5878,-0.446208 -0.5147,-0.256267 -0.9453,-0.372924 -0.4139,-0.122275 -0.6432,-0.138654 l 0.3059,-0.922903 q 0.246,0.01076 0.755,0.166413 0.5145,0.144464 1.0628,0.417444 z"
         style="font-style:normal;font-variant:normal;font-weight:normal;font-stretch:normal;font-size:12.50000095px;font-family:Ubuntu;-inkscape-font-specification:Ubuntu;fill:#1a1a1a;stroke:none"
         id="path4158" />
      <path
         d="m -1256.6723,78.328004 q 0.4073,0.06388 1.0612,0.21861 0.6539,0.154727 1.4482,0.491034 0.7136,0.302189 1.0978,0.709214 0.3891,0.395515 0.5094,0.880831 0.1367,0.478679 0.037,1.033885 -0.099,0.555207 -0.3577,1.165269 l -1.4232,3.361097 -1.0704,-0.453283 1.3257,-3.130885 q 0.2339,-0.552509 0.3191,-0.977987 0.097,-0.420605 0.026,-0.735438 -0.07,-0.314833 -0.3142,-0.540279 -0.239,-0.236956 -0.6649,-0.417294 -0.1727,-0.07311 -0.3617,-0.139584 -0.189,-0.06647 -0.3715,-0.116563 -0.166,-0.05673 -0.3138,-0.09219 -0.1364,-0.03059 -0.1988,-0.04345 l -2.1397,5.053155 -1.0705,-0.453283 2.4614,-5.812855 z"
         style="font-style:normal;font-variant:normal;font-weight:normal;font-stretch:normal;font-size:12.50000095px;font-family:Ubuntu;-inkscape-font-specification:Ubuntu;fill:#1a1a1a;stroke:none"
         id="path4160" />
      <path
         d="m -1250.7871,86.590611 q 0.6705,0.240976 1.0515,0.178672 0.3928,-0.05808 0.5323,-0.446268 0.1438,-0.399955 -0.089,-0.749369 -0.2331,-0.349414 -0.8567,-0.905612 -0.3022,-0.26799 -0.5808,-0.527525 -0.2627,-0.267071 -0.4261,-0.551601 -0.1634,-0.28453 -0.2031,-0.617583 -0.04,-0.333053 0.1083,-0.744771 0.2917,-0.811673 1.0608,-1.066598 0.7732,-0.266688 1.8084,0.105345 0.2588,0.09301 0.5049,0.221307 0.2504,0.116535 0.4569,0.243914 0.2109,0.115615 0.3586,0.221856 0.1596,0.110468 0.241,0.17958 l -0.5382,0.8692 q -0.1426,-0.157522 -0.4852,-0.386914 -0.3384,-0.241155 -0.8678,-0.4314 -0.4587,-0.164878 -0.8675,-0.09927 -0.4046,0.05385 -0.5441,0.44204 -0.072,0.199978 -0.056,0.378268 0.027,0.182517 0.1338,0.366874 0.1224,0.17682 0.3196,0.367244 0.1972,0.190423 0.4843,0.426431 0.3761,0.32111 0.658,0.6084 0.2862,0.275525 0.4454,0.571819 0.1709,0.300522 0.1904,0.652873 0.024,0.340589 -0.1327,0.775834 -0.3044,0.846963 -1.0961,1.053915 -0.7798,0.211179 -1.9444,-0.207358 -0.8117,-0.291708 -1.2197,-0.597747 -0.4123,-0.294276 -0.5516,-0.424043 l 0.5382,-0.8692 q 0.1628,0.138223 0.5238,0.427351 0.361,0.289128 1.0433,0.534332 z"
         style="font-style:normal;font-variant:normal;font-weight:normal;font-stretch:normal;font-size:12.50000095px;font-family:Ubuntu;-inkscape-font-specification:Ubuntu;fill:#1a1a1a;stroke:none"
         id="path4162" />
      <path
         d="m -1244.2816,82.809882 2.353,0.72619 -0.2875,0.93164 -2.353,-0.72619 -0.8847,2.866585 q -0.1438,0.46582 -0.168,0.798484 -0.021,0.32072 0.068,0.544116 0.092,0.211453 0.2846,0.34947 0.1928,0.138017 0.4795,0.226487 0.5017,0.154822 0.8334,0.139482 0.3474,-0.0236 0.4816,-0.03451 l -0.069,0.986048 q -0.193,0.032 -0.6479,0.02242 -0.4586,0.0024 -0.9961,-0.163515 -0.6331,-0.195371 -1.0032,-0.479663 -0.3545,-0.292549 -0.5058,-0.692451 -0.1513,-0.399902 -0.115,-0.898899 0.052,-0.507254 0.2436,-1.128347 l 1.7104,-5.542064 1.1698,0.151715 -0.5935,1.923001 z"
         style="font-style:normal;font-variant:normal;font-weight:normal;font-stretch:normal;font-size:12.50000095px;font-family:Ubuntu;-inkscape-font-specification:Ubuntu;fill:#1a1a1a;stroke:none"
         id="path4164" />
      <path
         d="m -1242.1044,86.89629 q 0.21,-0.83655 0.6077,-1.394006 0.4007,-0.569579 0.9043,-0.881368 0.5035,-0.311788 1.0766,-0.387038 0.5731,-0.07525 1.1186,0.06169 1.273,0.319533 1.7511,1.290129 0.4812,0.958471 0.073,2.583075 -0.018,0.07274 -0.049,0.193983 -0.027,0.109115 -0.064,0.203063 l -4.3161,-1.08337 q -0.1737,1.000296 0.1955,1.63427 0.3693,0.633974 1.4241,0.89873 0.5941,0.149116 1.0185,0.152549 0.4396,-0.0056 0.67,-0.05091 l -0.08,0.985226 q -0.2335,0.05738 -0.7853,0.04776 -0.5396,-0.0066 -1.1943,-0.170905 -0.8244,-0.206936 -1.3698,-0.601573 -0.5301,-0.403717 -0.8085,-0.937559 -0.2784,-0.533843 -0.3233,-1.176605 -0.03,-0.651843 0.1498,-1.367153 z m 4.4835,0.468093 q 0.2038,-0.760763 -0.075,-1.346144 -0.2632,-0.594462 -0.9543,-0.767922 -0.388,-0.09738 -0.7306,-0.01585 -0.3275,0.07245 -0.5945,0.263194 -0.267,0.190745 -0.4673,0.475535 -0.1883,0.287833 -0.3068,0.606049 l 3.128,0.785138 z"
         style="font-style:normal;font-variant:normal;font-weight:normal;font-stretch:normal;font-size:12.50000095px;font-family:Ubuntu;-inkscape-font-specification:Ubuntu;fill:#1a1a1a;stroke:none"
         id="path4166" />
      <path
         d="m -1232.1185,85.686004 q 0.1472,0.02879 0.3264,0.08931 0.1939,0.05065 0.3707,0.123444 0.1792,0.06052 0.3193,0.126116 0.1546,0.05572 0.2234,0.09466 l -0.3906,0.955289 q -0.1253,-0.07546 -0.4323,-0.199178 -0.2923,-0.133585 -0.783,-0.229552 -0.3189,-0.06238 -0.6523,-0.05115 -0.3187,0.0014 -0.4216,0.0067 l -1.0485,5.360941 -1.1408,-0.223124 1.1947,-6.109264 q 0.4337,-0.06804 1.0588,-0.07315 0.6275,-0.01738 1.3758,0.128966 z"
         style="font-style:normal;font-variant:normal;font-weight:normal;font-stretch:normal;font-size:12.50000095px;font-family:Ubuntu;-inkscape-font-specification:Ubuntu;fill:#1a1a1a;stroke:none"
         id="path4168" />
      <path
         d="m -1230.2033,92.038592 q -0.053,0.333382 -0.3137,0.545292 -0.2612,0.211909 -0.644,0.151562 -0.3828,-0.06035 -0.5661,-0.342337 -0.1833,-0.28199 -0.1307,-0.615372 0.053,-0.333382 0.3137,-0.545292 0.2612,-0.211909 0.644,-0.151562 0.3827,0.06035 0.5661,0.342337 0.1833,0.28199 0.1307,0.615372 z"
         style="font-style:normal;font-variant:normal;font-weight:normal;font-stretch:normal;font-size:12.50000095px;font-family:Ubuntu;-inkscape-font-specification:Ubuntu;fill:#1a1a1a;stroke:none"
         id="path4170" />
      <path
         d="m -1226.8588,86.909145 q 0.225,-0.115939 0.6627,-0.223423 0.4501,-0.106255 1.0099,-0.05095 0.6966,0.06883 1.2069,0.370469 0.5227,0.302869 0.8517,0.787561 0.3289,0.484693 0.454,1.1251 0.1376,0.641637 0.064,1.388003 -0.078,0.783684 -0.3765,1.394742 -0.2854,0.599847 -0.7513,0.993438 -0.466,0.393591 -1.0864,0.570943 -0.6205,0.177353 -1.3668,0.103607 -0.8086,-0.07989 -1.4195,-0.253301 -0.6109,-0.17341 -0.9979,-0.324695 l 0.9157,-9.267374 1.1765,-0.08473 -0.3429,3.470601 z m -0.5113,5.174801 q 0.1692,0.06696 0.4753,0.14745 0.3197,0.06927 0.7924,0.115981 0.933,0.09218 1.553,-0.462041 0.6212,-0.566662 0.733,-1.698649 0.049,-0.497578 -0.01,-0.94279 -0.057,-0.445213 -0.2497,-0.778322 -0.1919,-0.345549 -0.5355,-0.555345 -0.3298,-0.221006 -0.8274,-0.27017 -0.4727,-0.04671 -0.8867,0.07568 -0.4141,0.122381 -0.6428,0.275639 l -0.4043,4.092571 z"
         style="font-style:normal;font-variant:normal;font-weight:normal;font-stretch:normal;font-size:12.50000095px;font-family:Ubuntu;-inkscape-font-specification:Ubuntu;fill:#1a1a1a;stroke:none"
         id="path4172" />
      <path
         d="m -1222.2253,94.795682 q 0.1368,0.06392 0.3488,0.11613 0.2243,0.06484 0.4368,0.06704 0.6875,0.0071 1.0782,-0.301314 0.3906,-0.295958 0.7102,-0.980174 -0.7718,-1.508101 -1.4419,-3.190154 -0.6574,-1.694421 -1.0895,-3.424004 l 1.25,0.01299 q 0.1316,0.563898 0.3123,1.215811 0.1933,0.652043 0.4236,1.341974 0.2304,0.68993 0.4982,1.38025 0.2679,0.69032 0.5612,1.330903 0.4886,-1.307495 0.852,-2.591289 0.3633,-1.283794 0.69,-2.642974 l 1.1999,0.01247 q -0.4691,1.832726 -1.0367,3.52692 -0.5675,1.681695 -1.2203,3.149992 -0.2558,0.559873 -0.5349,0.956994 -0.2668,0.40975 -0.5945,0.66886 -0.3277,0.259109 -0.7415,0.379817 -0.4013,0.120837 -0.9138,0.115512 -0.1375,-0.0014 -0.2872,-0.02799 -0.1499,-0.01406 -0.2995,-0.05311 -0.1372,-0.02643 -0.2618,-0.06522 -0.1121,-0.03867 -0.1618,-0.06418 l 0.2222,-0.935242 z"
         style="font-style:normal;font-variant:normal;font-weight:normal;font-stretch:normal;font-size:12.50000095px;font-family:Ubuntu;-inkscape-font-specification:Ubuntu;fill:#1a1a1a;stroke:none"
         id="path4174" />
    </g>
  </g>
</svg>
