<?xml version="1.0" encoding="UTF-8" standalone="no"?>
<!-- Created with Inkscape (http://www.inkscape.org/) -->

<svg
   xmlns:dc="http://purl.org/dc/elements/1.1/"
   xmlns:cc="http://creativecommons.org/ns#"
   xmlns:rdf="http://www.w3.org/1999/02/22-rdf-syntax-ns#"
   xmlns:svg="http://www.w3.org/2000/svg"
   xmlns="http://www.w3.org/2000/svg"
   xmlns:sodipodi="http://sodipodi.sourceforge.net/DTD/sodipodi-0.dtd"
   xmlns:inkscape="http://www.inkscape.org/namespaces/inkscape"
   width="54.867168mm"
   height="55.000004mm"
   viewBox="0 0 194.41123 194.8819"
   id="svg4154"
   version="1.1"
   inkscape:version="0.91 r13725"
   sodipodi:docname="doika_nalepka_55_kontur.svg">
  <defs
     id="defs4156" />
  <sodipodi:namedview
     id="base"
     pagecolor="#ffffff"
     bordercolor="#666666"
     borderopacity="1.0"
     inkscape:pageopacity="0.0"
     inkscape:pageshadow="2"
     inkscape:zoom="2.8"
     inkscape:cx="107.99122"
     inkscape:cy="89.501455"
     inkscape:document-units="px"
     inkscape:current-layer="layer1"
     showgrid="false"
     fit-margin-top="0"
     fit-margin-left="0"
     fit-margin-right="0"
     fit-margin-bottom="0"
     inkscape:window-width="1855"
     inkscape:window-height="1056"
     inkscape:window-x="65"
     inkscape:window-y="24"
     inkscape:window-maximized="1" />
  <metadata
     id="metadata4159">
    <rdf:RDF>
      <cc:Work
         rdf:about="">
        <dc:format>image/svg+xml</dc:format>
        <dc:type
           rdf:resource="http://purl.org/dc/dcmitype/StillImage" />
        <dc:title></dc:title>
      </cc:Work>
    </rdf:RDF>
  </metadata>
  <g
     inkscape:label="Layer 1"
     inkscape:groupmode="layer"
     id="layer1"
     transform="translate(545.77704,-526.34983)">
    <path
       style="fill:#ffffff;stroke:#000000;stroke-width:0.50054479;stroke-linecap:round;stroke-linejoin:round;stroke-miterlimit:4;stroke-dasharray:none;stroke-opacity:1"
       d="m -471.01056,675.31592 c 0,0 1.2398,6.20918 1.2934,23.64233 0.036,11.75276 7.725,27.52476 26.3129,20.13083 18.5879,-7.39391 6.1886,-23.21257 1.6413,-54.28978 18.4812,16.65927 11.9361,22.44858 23.9529,33.85003 12.0166,11.40145 40.3195,-5.20484 25.6558,-25.26819 -14.6639,-20.06334 -15.3268,-14.65408 -24.5265,-30.13401 12.9632,2.30033 15.3986,5.88952 28.3364,13.26956 12.9636,9.65742 37.6136,-4.06566 26.15,-24.72081 -6.9338,-12.49361 -22.3846,-10.25803 -37.7625,-19.46887 7.2736,-2.41366 9.1176,0.29137 28.2795,-1.06898 33.0733,-2.70816 19.0526,-37.8581 2.0364,-36.06299 -17.0159,1.79519 -27.1035,5.27967 -38.0898,6.00413 -19.7666,-72.3453 -101.2635,-64.48752 -126.7289,-24.4381 -15.8355,24.90439 -15.3725,63.46808 5.9683,88.26782 2.7304,3.17287 -3.0826,5.61104 -0.4531,9.018 9.8756,12.79477 35.4136,22.75829 57.9339,21.26903 z"
       id="path2989-3-23-1-2"
       inkscape:connector-curvature="0"
       sodipodi:nodetypes="cszczzccscczcsssc" />
  </g>
</svg>
