<?xml version="1.0" encoding="UTF-8" standalone="no"?>
<!-- Created with Inkscape (http://www.inkscape.org/) -->

<svg
   xmlns:dc="http://purl.org/dc/elements/1.1/"
   xmlns:cc="http://creativecommons.org/ns#"
   xmlns:rdf="http://www.w3.org/1999/02/22-rdf-syntax-ns#"
   xmlns:svg="http://www.w3.org/2000/svg"
   xmlns="http://www.w3.org/2000/svg"
   xmlns:sodipodi="http://sodipodi.sourceforge.net/DTD/sodipodi-0.dtd"
   xmlns:inkscape="http://www.inkscape.org/namespaces/inkscape"
   width="183.02333mm"
   height="120.00508mm"
   viewBox="0 0 648.50784 425.21485"
   id="svg2"
   version="1.1"
   inkscape:version="0.91 r13725"
   sodipodi:docname="server_says_1.svg"
   inkscape:export-filename="/home/jedi/Dropbox/falanster/design/logo/dranik_server/server_says_1.png"
   inkscape:export-xdpi="208.17018"
   inkscape:export-ydpi="208.17018">
  <defs
     id="defs4" />
  <sodipodi:namedview
     id="base"
     pagecolor="#ffffff"
     bordercolor="#666666"
     borderopacity="1.0"
     inkscape:pageopacity="0.0"
     inkscape:pageshadow="2"
     inkscape:zoom="0.70000001"
     inkscape:cx="344.87"
     inkscape:cy="128.37448"
     inkscape:document-units="px"
     inkscape:current-layer="layer1"
     showgrid="false"
     inkscape:window-width="1855"
     inkscape:window-height="1056"
     inkscape:window-x="65"
     inkscape:window-y="24"
     inkscape:window-maximized="1"
     showguides="true"
     inkscape:guide-bbox="true"
     fit-margin-top="0"
     fit-margin-left="0"
     fit-margin-right="0"
     fit-margin-bottom="0">
    <sodipodi:guide
       position="670.68531,255.71397"
       orientation="1,0"
       id="guide4219" />
    <sodipodi:guide
       position="1267.8281,298.57117"
       orientation="1,0"
       id="guide4221" />
  </sodipodi:namedview>
  <metadata
     id="metadata7">
    <rdf:RDF>
      <cc:Work
         rdf:about="">
        <dc:format>image/svg+xml</dc:format>
        <dc:type
           rdf:resource="http://purl.org/dc/dcmitype/StillImage" />
        <dc:title></dc:title>
      </cc:Work>
    </rdf:RDF>
  </metadata>
  <g
     inkscape:label="Layer 1"
     inkscape:groupmode="layer"
     id="layer1"
     transform="translate(1394.971,732.85294)">
    <rect
       style="opacity:1;fill:#ffffff;fill-opacity:1;fill-rule:nonzero;stroke:#ffffff;stroke-width:0.84430969;stroke-linecap:round;stroke-linejoin:round;stroke-miterlimit:4;stroke-dasharray:none;stroke-opacity:1"
       id="rect4209"
       width="647.66357"
       height="424.37054"
       x="-1394.5488"
       y="-732.43079"
       rx="1.42856"
       ry="1.42856"
       inkscape:export-xdpi="208.19756"
       inkscape:export-ydpi="208.19756" />
    <g
       id="g4242"
       transform="matrix(0.54357704,0,0,0.54357704,-623.29023,-130.87498)">
      <path
         sodipodi:nodetypes="csscc"
         inkscape:connector-curvature="0"
         id="path4188"
         d="m -1264.971,-415.71901 c 0,0 -32.8572,32.85714 -55.7143,11.42857 -12.7216,-11.92652 -17.1429,-24.28571 -2.8572,-67.14286 14.2858,-42.85714 11.4286,-62.85714 11.4286,-62.85714 l 0,0"
         style="fill:none;fill-rule:evenodd;stroke:#4d4d4d;stroke-width:10;stroke-linecap:butt;stroke-linejoin:miter;stroke-miterlimit:4;stroke-dasharray:none;stroke-opacity:1" />
      <path
         sodipodi:nodetypes="ccczccc"
         inkscape:connector-curvature="0"
         id="path4136"
         d="m -1270.7845,-403.47726 c -5.4293,-20.38474 5.594,-225.02689 5.594,-225.02689 l 115.8776,-155.97687 c 0,0 302.76047,-16.32734 312.18276,-5.73321 9.4223,10.59414 21.71707,390.49508 21.71707,390.49508 l -317.61213,53.50993 z"
         style="fill:#4d4d4d;fill-rule:evenodd;stroke:none;stroke-width:1px;stroke-linecap:butt;stroke-linejoin:miter;stroke-opacity:1" />
      <path
         sodipodi:nodetypes="szccs"
         inkscape:connector-curvature="0"
         id="path4138"
         d="m -1135.3325,-772.37758 c -7.1708,6.33856 -4.0789,407.83966 15.6092,409.60577 19.6879,1.7661 291.14426,-47.13971 291.14426,-47.13971 l -17.64512,-371.38438 c 0,0 -278.14814,-0.77 -289.10834,8.91832 z"
         style="fill:#ffffff;fill-rule:evenodd;stroke:none;stroke-width:1px;stroke-linecap:butt;stroke-linejoin:miter;stroke-opacity:1" />
      <path
         sodipodi:nodetypes="cccsccc"
         inkscape:connector-curvature="0"
         id="path4140"
         d="m -1112.1515,-733.70576 c 0,28.66603 4.9154,178.55301 4.9154,178.55301 l 238.88768,-29.30305 c 0,0 10.46156,-0.0999 14.25183,-13.37749 3.79026,-13.27764 -8.82256,-148.42635 -8.82256,-148.42635 0,0 -1.70796,-16.83537 -10.3552,-16.83537 -47.89109,9.33482 -237.36465,-3.2859 -238.87715,29.38925 z"
         style="fill:#ff6600;fill-rule:evenodd;stroke:none;stroke-width:1px;stroke-linecap:butt;stroke-linejoin:miter;stroke-opacity:1" />
      <text
         transform="matrix(0.98202588,-0.18874634,0.18874634,0.98202588,0,0)"
         sodipodi:linespacing="125%"
         id="text4142"
         y="-796.57379"
         x="-908.26038"
         style="font-style:normal;font-weight:normal;font-size:138.72245789px;line-height:125%;font-family:sans-serif;letter-spacing:0px;word-spacing:0px;fill:#ffffff;fill-opacity:1;stroke:none;stroke-width:1px;stroke-linecap:butt;stroke-linejoin:miter;stroke-opacity:1"
         xml:space="preserve"><tspan
           style="font-style:normal;font-variant:normal;font-weight:normal;font-stretch:normal;font-family:'Ubuntu Mono';-inkscape-font-specification:'Ubuntu Mono';fill:#ffffff"
           y="-796.57379"
           x="-908.26038"
           id="tspan4144"
           sodipodi:role="line">&lt;3</tspan></text>
      <path
         sodipodi:nodetypes="csccc"
         inkscape:connector-curvature="0"
         id="path4146"
         d="m -1103.1641,-527.76076 c 0,0 -10.1799,24.20687 0,24.20687 10.1798,0 236.85166,-26.11794 236.85166,-26.11794 11.26882,-6.99553 9.71268,-19.70205 3.39329,-24.20688 -8.1439,-5.7332 -240.24495,26.11795 -240.24495,26.11795 z"
         style="fill:#008080;fill-rule:evenodd;stroke:none;stroke-width:1px;stroke-linecap:butt;stroke-linejoin:miter;stroke-opacity:1" />
      <path
         sodipodi:nodetypes="csccc"
         inkscape:connector-curvature="0"
         id="path4146-0"
         d="m -1100.0991,-482.50538 c 0,0 -10.1799,24.20687 0,24.20687 10.1799,0 236.85178,-26.11794 236.85178,-26.11794 11.26881,-6.99553 9.71267,-19.70205 3.39328,-24.20687 -8.1439,-5.73321 -240.24506,26.11794 -240.24506,26.11794 z"
         style="fill:#008080;fill-rule:evenodd;stroke:none;stroke-width:1px;stroke-linecap:butt;stroke-linejoin:miter;stroke-opacity:1" />
      <path
         sodipodi:nodetypes="csccc"
         inkscape:connector-curvature="0"
         id="path4146-2"
         d="m -1095.3485,-436.63972 c 0,0 -10.1799,24.20687 0,24.20687 10.1799,0 236.85178,-26.11794 236.85178,-26.11794 11.26882,-6.99553 9.71268,-19.70205 3.39329,-24.20687 -8.14389,-5.73321 -240.24507,26.11794 -240.24507,26.11794 z"
         style="fill:#008080;fill-rule:evenodd;stroke:none;stroke-width:1px;stroke-linecap:butt;stroke-linejoin:miter;stroke-opacity:1" />
      <path
         inkscape:connector-curvature="0"
         id="path4190"
         d="m -1336.7508,-560.17891 c 0,0 -1.3613,21.32527 3.6297,25.86256 4.9911,4.53728 26.77,5.44474 31.3074,4.08355 4.5372,-1.36119 12.2506,-4.08355 12.2506,-12.25068 0,-8.16713 -2.7223,-23.5939 -2.7223,-23.5939 0,0 -26.7701,-4.99103 -35.3909,-0.90747 -8.6209,4.08357 -9.0745,6.80594 -9.0745,6.80594 z"
         style="fill:#ff6600;fill-rule:evenodd;stroke:none;stroke-width:1px;stroke-linecap:butt;stroke-linejoin:miter;stroke-opacity:1" />
      <rect
         transform="matrix(0.99724927,-0.07412079,0.07412079,0.99724927,0,0)"
         rx="2.6280777"
         ry="2.6280777"
         y="-681.95331"
         x="-1281.1083"
         height="25.635689"
         width="5.2178836"
         id="rect4192"
         style="opacity:1;fill:#4d4d4d;fill-opacity:1;fill-rule:nonzero;stroke:none;stroke-width:10;stroke-linecap:round;stroke-linejoin:round;stroke-miterlimit:4;stroke-dasharray:none;stroke-opacity:1" />
      <rect
         transform="matrix(0.99724927,-0.07412079,0.07412079,0.99724927,0,0)"
         ry="2.6280777"
         y="-682.97418"
         x="-1262.3918"
         height="25.635689"
         width="5.2178836"
         id="rect4192-8"
         style="opacity:1;fill:#4d4d4d;fill-opacity:1;fill-rule:nonzero;stroke:none;stroke-width:10;stroke-linecap:round;stroke-linejoin:round;stroke-miterlimit:4;stroke-dasharray:none;stroke-opacity:1"
         rx="2.6280777" />
    </g>
    <path
       style="fill:#87decd;fill-rule:evenodd;stroke:#333333;stroke-width:5;stroke-linecap:round;stroke-linejoin:round;stroke-miterlimit:4;stroke-dasharray:none;stroke-opacity:1"
       d="m -1026.3995,-476.20957 c 0,0 34.2857,-22.85714 34.2857,-34.28572 0,-11.42857 -4.28567,-24.2857 -21.4286,-42.85713 -17.1428,-18.57143 -117.8532,-59.40993 -109.9999,-104.28572 10,-57.14285 112.8571,-65.71428 189.99997,-51.42857 95.73208,16.79321 171.75826,97.82201 130,168.57143 -41.41654,68.28046 -107.14286,21.42857 -118.57143,27.14286 -11.42858,5.71428 -31.42857,28.57142 -51.42857,35.71428 -20,7.14286 -52.85717,1.42857 -52.85717,1.42857 z"
       id="path4149"
       inkscape:connector-curvature="0"
       sodipodi:nodetypes="csssccssc" />
    <text
       xml:space="preserve"
       style="font-style:normal;font-variant:normal;font-weight:normal;font-stretch:normal;font-size:40px;line-height:100%;font-family:'Ubuntu Mono';-inkscape-font-specification:'Ubuntu Mono';letter-spacing:0px;word-spacing:0px;fill:#333333;fill-opacity:1;stroke:none;stroke-width:1px;stroke-linecap:butt;stroke-linejoin:miter;stroke-opacity:1"
       x="-1068.3995"
       y="-662.78101"
       id="text4151"
       sodipodi:linespacing="100%"><tspan
         sodipodi:role="line"
         id="tspan4153"
         x="-1068.3995"
         y="-662.78101"
         style="line-height:100%;fill:#333333">хэй, </tspan><tspan
         sodipodi:role="line"
         x="-1068.3995"
         y="-622.78101"
         id="tspan4159"
         style="line-height:100%;fill:#333333">  мы ўжо </tspan><tspan
         sodipodi:role="line"
         x="-1068.3995"
         y="-582.78101"
         id="tspan4155"
         style="line-height:100%;fill:#333333">   сабралі </tspan><tspan
         sodipodi:role="line"
         x="-1068.3995"
         y="-542.78101"
         id="tspan4157"
         style="font-style:normal;font-variant:normal;font-weight:bold;font-stretch:normal;font-family:'Ubuntu Mono';-inkscape-font-specification:'Ubuntu Mono Bold';fill:#333333">     50 руб!</tspan></text>
  </g>
</svg>
