<?xml version="1.0" encoding="UTF-8" standalone="no"?>
<!-- Created with Inkscape (http://www.inkscape.org/) -->

<svg
   xmlns:dc="http://purl.org/dc/elements/1.1/"
   xmlns:cc="http://creativecommons.org/ns#"
   xmlns:rdf="http://www.w3.org/1999/02/22-rdf-syntax-ns#"
   xmlns:svg="http://www.w3.org/2000/svg"
   xmlns="http://www.w3.org/2000/svg"
   xmlns:sodipodi="http://sodipodi.sourceforge.net/DTD/sodipodi-0.dtd"
   xmlns:inkscape="http://www.inkscape.org/namespaces/inkscape"
   width="60.246639mm"
   height="60mm"
   viewBox="0 0 213.47234 212.59842"
   id="svg7711"
   version="1.1"
   inkscape:version="0.91 r13725"
   sodipodi:docname="server_4_nalepka_kontur.svg">
  <defs
     id="defs7713" />
  <sodipodi:namedview
     id="base"
     pagecolor="#ffffff"
     bordercolor="#666666"
     borderopacity="1.0"
     inkscape:pageopacity="0.0"
     inkscape:pageshadow="2"
     inkscape:zoom="1.979899"
     inkscape:cx="170.68429"
     inkscape:cy="109.37912"
     inkscape:document-units="px"
     inkscape:current-layer="layer1"
     showgrid="false"
     fit-margin-top="0"
     fit-margin-left="0"
     fit-margin-right="0"
     fit-margin-bottom="0"
     inkscape:window-width="1855"
     inkscape:window-height="1056"
     inkscape:window-x="65"
     inkscape:window-y="24"
     inkscape:window-maximized="1" />
  <metadata
     id="metadata7716">
    <rdf:RDF>
      <cc:Work
         rdf:about="">
        <dc:format>image/svg+xml</dc:format>
        <dc:type
           rdf:resource="http://purl.org/dc/dcmitype/StillImage" />
        <dc:title></dc:title>
      </cc:Work>
    </rdf:RDF>
  </metadata>
  <g
     inkscape:label="Layer 1"
     inkscape:groupmode="layer"
     id="layer1"
     transform="translate(298.16474,-460.34871)">
    <path
       style="fill:none;fill-rule:evenodd;stroke:#000000;stroke-width:0.40714991px;stroke-linecap:butt;stroke-linejoin:miter;stroke-opacity:1"
       d="m -282.36368,496.66267 c 0,0 -0.5816,-4.36232 0.5817,-6.39807 1.1633,-2.03575 4.6531,-2.03575 4.9439,-4.36232 0.2909,-2.32657 -3.4898,-14.25025 -2.6174,-17.15846 0.8725,-2.90821 0.8725,-5.5256 4.6532,-5.81643 3.7807,-0.29082 6.1072,3.19904 8.4338,3.19904 2.3266,0 4.9439,-4.0715 8.143,-4.65314 3.199,-0.58165 5.2348,-1.74493 9.0154,0 3.7807,1.74493 5.2349,1.4541 6.3981,5.23478 1.1633,3.78068 0.5817,8.143 -0.2908,9.88793 -0.8724,1.74493 -1.4541,4.65314 0.5816,5.81643 2.0358,1.16328 3.1991,1.16328 7.8522,0.87246 4.6532,-0.29082 12.7962,-1.45411 18.0309,-1.45411 5.2348,0 14.8319,-1.74493 22.6841,-1.74493 7.8522,0 13.9594,0 15.1227,1.16329 1.1633,1.16329 1.745,5.81643 4.0715,6.10725 2.3266,0.29082 9.888,0 13.6686,2.90821 3.7807,2.90822 6.6889,4.0715 9.0155,9.59711 2.3265,5.5256 5.2348,18.90339 6.398,22.10242 1.1634,3.19904 9.5972,9.88793 9.888,14.83189 0.2908,4.94396 3.4899,11.34203 1.1633,16.57682 -2.3266,5.23478 -4.3624,9.01546 -4.0715,13.08696 0.2908,4.0715 -1.4541,12.79614 0.5816,16.57682 2.0358,3.78068 6.6889,6.97971 9.888,6.10725 3.199,-0.87247 6.9796,-4.36232 8.7246,-5.81643 1.7449,-1.4541 2.6174,-6.97971 4.3623,-10.17875 1.745,-3.19903 4.944,-6.39807 6.1072,-9.5971 1.1633,-3.19903 1.1633,-7.85218 2.9083,-8.143 1.7449,-0.29083 8.143001,-3.19904 12.796101,0.87246 4.6531,4.07151 8.4338,5.52561 8.4338,8.72465 0,3.19903 0,15.41353 -2.0357,20.64831 -2.0358,5.23479 -5.2348,9.59711 -7.5613,12.2145 -2.3266,2.61739 -4.944,11.05121 -7.852301,12.2145 -2.9082,1.16328 -8.1429,2.32657 -11.6328,5.81642 -3.4898,3.48986 -8.143,8.72465 -13.087,9.01547 -4.9439,0.29082 -7.5613,2.03575 -8.7246,5.81642 -1.1633,3.78068 1.1633,7.27054 -3.4899,10.17875 -4.6531,2.90821 -25.5922,12.50532 -27.628,14.54107 -2.0357,2.03575 1.7449,5.81642 0.8725,9.01546 -0.8725,3.19904 -3.7807,7.56135 -8.4338,8.143 -4.6532,0.58164 -21.5208,-0.87246 -29.9547,-2.03575 -8.4338,-1.16329 -54.6744,-4.65314 -58.455,-5.23479 -3.7807,-0.58164 -11.6329,1.16329 -13.9595,-3.78067 -2.3265,-4.94397 -0.8724,-16.286 0.2909,-17.74011 1.1632,-1.4541 -4.6532,-9.01546 -6.6889,-24.42899 -2.0358,-15.41353 -5.5256,-50.02128 -4.0715,-59.61838 1.4541,-9.59711 -3.1991,-10.17875 -5.5256,-12.2145 -2.3266,-2.03575 -4.3624,-9.5971 -2.9083,-12.21449 1.4541,-2.6174 1.4541,-11.63286 0,-16.57682 -1.4541,-4.94397 -3.4898,-10.46958 -1.1632,-13.66861 2.3265,-3.19903 5.5256,-3.78068 8.4338,-4.0715 2.9082,-0.29082 4.9439,-1.16328 6.1072,-4.36232 z"
       id="path7654"
       inkscape:connector-curvature="0"
       sodipodi:nodetypes="ccscssssscsssscssscssssssscssssssssssscsssscsssssssc" />
  </g>
</svg>
