<?xml version="1.0" encoding="UTF-8" standalone="no"?>
<!-- Created with Inkscape (http://www.inkscape.org/) -->

<svg
   xmlns:dc="http://purl.org/dc/elements/1.1/"
   xmlns:cc="http://creativecommons.org/ns#"
   xmlns:rdf="http://www.w3.org/1999/02/22-rdf-syntax-ns#"
   xmlns:svg="http://www.w3.org/2000/svg"
   xmlns="http://www.w3.org/2000/svg"
   xmlns:sodipodi="http://sodipodi.sourceforge.net/DTD/sodipodi-0.dtd"
   xmlns:inkscape="http://www.inkscape.org/namespaces/inkscape"
   width="55.774078mm"
   height="55mm"
   viewBox="0 0 197.62469 194.88189"
   id="svg10600"
   version="1.1"
   inkscape:version="0.91 r13725"
   sodipodi:docname="server_6_nalepka_kontur.svg">
  <defs
     id="defs10602" />
  <sodipodi:namedview
     id="base"
     pagecolor="#ffffff"
     bordercolor="#666666"
     borderopacity="1.0"
     inkscape:pageopacity="0.0"
     inkscape:pageshadow="2"
     inkscape:zoom="1.979899"
     inkscape:cx="164.59198"
     inkscape:cy="82.32579"
     inkscape:document-units="px"
     inkscape:current-layer="layer1"
     showgrid="false"
     fit-margin-top="0"
     fit-margin-left="0"
     fit-margin-right="0"
     fit-margin-bottom="0"
     inkscape:window-width="1855"
     inkscape:window-height="1056"
     inkscape:window-x="65"
     inkscape:window-y="24"
     inkscape:window-maximized="1" />
  <metadata
     id="metadata10605">
    <rdf:RDF>
      <cc:Work
         rdf:about="">
        <dc:format>image/svg+xml</dc:format>
        <dc:type
           rdf:resource="http://purl.org/dc/dcmitype/StillImage" />
        <dc:title></dc:title>
      </cc:Work>
    </rdf:RDF>
  </metadata>
  <g
     inkscape:label="Layer 1"
     inkscape:groupmode="layer"
     id="layer1"
     transform="translate(458.81235,-460.63554)">
    <path
       style="fill:none;fill-rule:evenodd;stroke:#333333;stroke-width:0.37709796px;stroke-linecap:butt;stroke-linejoin:miter;stroke-opacity:1"
       d="m -414.3306,497.14935 c 0,0 26.1276,-5.65646 33.6694,-7.00324 7.5421,-1.34678 21.5487,-3.23228 21.818,-4.3097 0.2694,-1.07742 0.8081,-5.92582 0.5387,-11.31293 -0.2693,-5.38712 1.0774,-9.6968 5.6564,-11.31294 4.5792,-1.61614 8.6194,-3.23227 14.0067,-1.8855 5.3869,1.34678 21.5484,4.30969 30.7065,8.88874 9.1578,4.57905 16.6998,10.50488 19.124,14.54521 2.4244,4.04034 5.6566,7.00325 3.7711,11.31294 -1.8854,4.30968 -5.1178,5.38711 -5.6565,8.88875 -0.5388,3.50161 -2.9628,8.08067 -2.9628,8.08067 0,0 -0.2694,2.4242 -0.2694,5.65646 0,3.23226 -4.0404,4.04034 -5.9259,4.04034 -1.8855,0 -8.0805,-3.77099 -9.1582,-0.80808 -1.0773,2.96292 -0.2693,20.20169 2.4244,20.74039 2.6935,0.53872 4.3096,-0.26935 12.121,-4.84839 7.8114,-4.57906 16.1612,-8.08068 21.0098,-8.35003 4.8482,-0.26936 7.0033,1.34678 9.4273,3.77097 6.2047,6.83886 0.1576,14.91701 -4.0404,18.3162 -5.1176,4.04033 -9.6968,7.00324 -15.8918,10.50487 -6.1953,3.50163 -16.1615,7.00324 -15.8921,11.04358 0.2693,4.04034 6.4646,36.09366 6.4646,40.134 0,4.04033 1.8854,10.23551 1.0774,13.73713 -0.8081,3.50164 0.2693,6.7339 -2.9629,8.35005 -3.2324,1.61611 -15.084,3.50161 -20.2017,3.23226 -5.1178,-0.26937 -19.6629,-1.07742 -22.3564,1.61613 -2.6937,2.69356 -0.5387,5.65647 -2.1551,8.08066 -1.616,2.42422 -5.9257,4.57907 -9.1579,4.57907 -3.2323,0 -11.5825,-0.26938 -15.892,0.80804 -4.3096,1.07742 -9.1582,1.3468 -14.8145,1.3468 -5.6566,0 -9.6968,1.34677 -15.3534,-1.3468 -5.6566,-2.69354 -17.7775,-14.5452 -22.8952,-17.77747 -5.1178,-3.23226 -11.3129,-6.19518 -11.5822,-7.81131 -0.2694,-1.61613 -4.3098,-3.50162 -7.2727,-5.38711 -2.9629,-1.8855 -11.1784,-4.05716 -16.0267,-10.25234 -4.8486,-6.19517 -6.0605,-13.98967 -5.5217,-17.4913 0.5387,-3.50162 4.0402,-8.35003 7.0033,-9.6968 2.9628,-1.34679 5.9256,-2.96291 5.1176,-5.3871 -0.808,-2.42422 -5.1176,-5.11776 -4.8483,-11.31294 0.2694,-6.19519 -0.5386,-14.27586 -0.2693,-16.16136 0.2693,-1.88549 0.808,-4.30968 3.5016,-4.8484 2.6934,-0.5387 7.2726,-2.15484 8.6193,-1.07742 1.3468,1.07742 2.6936,6.19517 4.579,8.61937 1.8855,2.42421 6.7339,0.26937 7.0034,-1.88547 0.2693,-2.15486 -0.8082,-11.04359 0,-12.39036 0.808,-1.34679 3.7709,-3.77099 5.6563,-4.84841 1.8857,-1.07743 5.6565,-19.12427 6.4646,-24.24202 0.808,-5.11776 -0.8081,-10.77422 -0.8081,-12.12101 0,-1.34678 2.1548,-2.4242 2.1548,-2.4242 z"
       id="path10506"
       inkscape:connector-curvature="0"
       sodipodi:nodetypes="cssssssssscssssssccsssssssssssssssssscscsssscsssc" />
  </g>
</svg>
