<?xml version="1.0" encoding="UTF-8" standalone="no"?>
<!-- Created with Inkscape (http://www.inkscape.org/) -->

<svg
   xmlns:dc="http://purl.org/dc/elements/1.1/"
   xmlns:cc="http://creativecommons.org/ns#"
   xmlns:rdf="http://www.w3.org/1999/02/22-rdf-syntax-ns#"
   xmlns:svg="http://www.w3.org/2000/svg"
   xmlns="http://www.w3.org/2000/svg"
   xmlns:sodipodi="http://sodipodi.sourceforge.net/DTD/sodipodi-0.dtd"
   xmlns:inkscape="http://www.inkscape.org/namespaces/inkscape"
   width="57.541607mm"
   height="50mm"
   viewBox="0 0 203.88758 177.16535"
   id="svg2"
   version="1.1"
   inkscape:version="0.91 r13725"
   sodipodi:docname="server_1_nalepka_curves.svg"
   inkscape:export-filename="/home/jedi/Dropbox/falanster/design/logo/dranik_server/nalepki/server_1_nalepka.png"
   inkscape:export-xdpi="300.16544"
   inkscape:export-ydpi="300.16544">
  <defs
     id="defs4" />
  <sodipodi:namedview
     id="base"
     pagecolor="#ffffff"
     bordercolor="#666666"
     borderopacity="1.0"
     inkscape:pageopacity="0.0"
     inkscape:pageshadow="2"
     inkscape:zoom="1.979899"
     inkscape:cx="-32.459769"
     inkscape:cy="55.284563"
     inkscape:document-units="px"
     inkscape:current-layer="layer1"
     showgrid="false"
     inkscape:window-width="1855"
     inkscape:window-height="1056"
     inkscape:window-x="65"
     inkscape:window-y="24"
     inkscape:window-maximized="1"
     showguides="true"
     inkscape:guide-bbox="true"
     fit-margin-top="0"
     fit-margin-left="0"
     fit-margin-right="0"
     fit-margin-bottom="0">
    <sodipodi:guide
       position="634.06831,237.73764"
       orientation="1,0"
       id="guide4219" />
    <sodipodi:guide
       position="1231.2111,280.59484"
       orientation="1,0"
       id="guide4221" />
  </sodipodi:namedview>
  <metadata
     id="metadata7">
    <rdf:RDF>
      <cc:Work
         rdf:about="">
        <dc:format>image/svg+xml</dc:format>
        <dc:type
           rdf:resource="http://purl.org/dc/dcmitype/StillImage" />
        <dc:title></dc:title>
      </cc:Work>
    </rdf:RDF>
  </metadata>
  <g
     inkscape:label="Layer 1"
     inkscape:groupmode="layer"
     id="layer1"
     transform="translate(1358.354,502.77975)">
    <path
       style="color:#000000;font-style:normal;font-variant:normal;font-weight:normal;font-stretch:normal;font-size:medium;line-height:normal;font-family:sans-serif;text-indent:0;text-align:start;text-decoration:none;text-decoration-line:none;text-decoration-style:solid;text-decoration-color:#000000;letter-spacing:normal;word-spacing:normal;text-transform:none;direction:ltr;block-progression:tb;writing-mode:lr-tb;baseline-shift:baseline;text-anchor:start;white-space:normal;clip-rule:nonzero;display:inline;overflow:visible;visibility:visible;opacity:1;isolation:auto;mix-blend-mode:normal;color-interpolation:sRGB;color-interpolation-filters:linearRGB;solid-color:#000000;solid-opacity:1;fill:#ffffff;fill-opacity:1;fill-rule:evenodd;stroke:none;stroke-width:0.36277229px;stroke-linecap:butt;stroke-linejoin:miter;stroke-miterlimit:4;stroke-dasharray:none;stroke-dashoffset:0;stroke-opacity:1;color-rendering:auto;image-rendering:auto;shape-rendering:auto;text-rendering:auto;enable-background:accumulate"
       d="m -1178.8945,-502.77539 c -5.1093,-0.0151 -11.703,0.014 -18.2227,0.0586 -13.0393,0.0892 -25.7851,0.24219 -25.7851,0.24219 l -0,0 -0,0 c 0,0 -14.5031,0.67672 -29.4316,1.46875 -7.4642,0.39601 -15.033,0.82179 -20.9512,1.20508 -2.9591,0.19164 -5.5059,0.37292 -7.4199,0.53516 -1.914,0.16223 -3.1713,0.29682 -3.6484,0.42578 -9.551,2.58132 -9.7434,-0.51049 -12.8242,-1.38282 -0.6905,-0.19551 -1.3312,-0.72112 -2.0293,-1.24609 -0.6982,-0.52497 -1.4619,-1.04694 -2.42,-1.16797 -0.958,-0.12103 -2.0875,0.16915 -3.4902,1.19727 -1.4027,1.02811 -3.091,2.79244 -5.2109,5.65429 -4.2238,5.702 -12.6235,16.4441 -20.252,26.08204 -3.8142,4.81896 -7.4359,9.36172 -10.248,12.86328 -2.8122,3.50156 -4.8211,5.96953 -5.3848,6.60742 -2.4259,2.74518 -4.7881,5.3852 -6.7012,7.64258 -1.913,2.25738 -3.3753,4.12306 -4.0117,5.36132 -0.8978,1.74673 -0.9541,3.49414 -0.5723,5.13868 0.3819,1.64453 1.1978,3.19115 2.043,4.57226 0.8452,1.38111 1.7214,2.601 2.2324,3.56836 0.2556,0.48368 0.4175,0.90378 0.4473,1.23047 0.03,0.32669 -0.047,0.54669 -0.293,0.73828 -2.3373,1.8179 -3.948,3.28448 -4.998,6.17188 -0.5507,1.51435 -0.2034,4.1057 0.3164,6.76953 0.5198,2.66383 1.2324,5.39077 1.4883,7.05468 0.2702,1.7565 1.6333,3.80764 2.5,6.79297 0.8667,2.98534 1.2527,6.89042 -0.4219,12.30079 -3.3803,10.92141 -3.1198,22.85644 -1.8184,29.88476 0.6639,3.58458 3.8281,6.20496 7.2539,7.9668 3.4258,1.76183 7.1202,2.67403 8.9766,2.80664 1.872,0.13372 5.0964,-0.51986 8.4219,-0.875 3.3254,-0.35515 6.732,-0.4029 8.8613,0.84961 1.1409,0.67109 4.478,2.06885 8.9258,3.80664 4.4478,1.73778 9.9874,3.80351 15.4629,5.76367 5.4755,1.96016 10.8858,3.81379 15.0762,5.13086 2.0951,0.65854 3.8851,1.18343 5.2285,1.51953 0.6717,0.16805 1.2315,0.28793 1.666,0.35547 0.4345,0.0675 0.7272,0.0981 0.9512,0.0234 0.101,-0.0337 0.6185,-0.14387 1.4199,-0.29297 0.8014,-0.1491 1.9105,-0.34695 3.2832,-0.58399 2.7453,-0.47407 6.5446,-1.11044 11.0508,-1.85742 9.0122,-1.49395 20.8508,-3.42903 32.7382,-5.38867 11.8875,-1.95964 23.8234,-3.94381 33.0313,-5.53516 4.604,-0.79567 8.5263,-1.49358 11.4199,-2.04101 1.4468,-0.27372 2.6369,-0.50872 3.5274,-0.70117 0.8904,-0.19245 1.4684,-0.33427 1.746,-0.44532 0.9405,-0.37617 2.7036,-0.77064 4.8165,-1.17773 2.1128,-0.4071 4.5814,-0.83149 6.9726,-1.28906 2.3913,-0.45757 4.7041,-0.94749 6.5078,-1.48828 0.9019,-0.2704 1.6764,-0.55321 2.2754,-0.85547 0.599,-0.30226 1.0299,-0.61826 1.2246,-1.00782 0.3463,-0.69254 0.5262,-1.74439 0.6211,-3.10937 0.095,-1.36498 0.099,-3.04007 0.062,-4.95703 -0.073,-3.83392 -0.3066,-8.63356 -0.3066,-13.81055 0,-5.21041 -1.1973,-35.66341 -2.6543,-65.45703 -0.7285,-14.89681 -1.5229,-29.62195 -2.2637,-40.93359 -0.3704,-5.65582 -0.7269,-10.45799 -1.0566,-14.00196 -0.1649,-1.77198 -0.3231,-3.22995 -0.4727,-4.32422 -0.1496,-1.09426 -0.2807,-1.80958 -0.4316,-2.16796 -1.0501,-2.49398 -2.4409,-3.7519 -3.8614,-4.4336 -1.4204,-0.6817 -2.8592,-0.79597 -4.0058,-1.05078 -0.1818,-0.0404 -0.5093,-0.0638 -1.0137,-0.0879 -0.5044,-0.0241 -1.1727,-0.0442 -1.9824,-0.0605 -1.6193,-0.0328 -3.8028,-0.051 -6.3574,-0.0586 z m -0,0.36328 c 2.5535,0.008 4.7361,0.0259 6.3516,0.0586 0.8077,0.0164 1.4739,0.0348 1.9726,0.0586 0.4987,0.0238 0.8434,0.0576 0.9532,0.082 1.1854,0.26344 2.5797,0.37652 3.9277,1.02344 1.348,0.64691 2.6607,1.81675 3.6836,4.24609 0.1082,0.25704 0.2579,0.9908 0.4062,2.07617 0.1484,1.08537 0.3062,2.53963 0.4707,4.3086 0.3292,3.53793 0.6864,8.33818 1.0567,13.99218 0.7406,11.30801 1.5332,26.03407 2.2617,40.92969 1.4569,29.79125 2.6543,60.28299 2.6543,65.4375 0,5.18794 0.236,9.99154 0.3086,13.81641 0.036,1.91243 0.031,3.58066 -0.062,4.92578 -0.093,1.34512 -0.2825,2.36958 -0.584,2.97265 -0.1291,0.25826 -0.4968,0.55929 -1.0644,0.84571 -0.5677,0.28642 -1.327,0.56523 -2.2168,0.83203 -1.7797,0.53359 -4.0841,1.02182 -6.4707,1.47852 -2.3867,0.45669 -4.8563,0.8809 -6.9747,1.28906 -2.1184,0.40816 -3.8778,0.79607 -4.8808,1.19726 -0.2082,0.0833 -0.8043,0.23644 -1.6895,0.42774 -0.8851,0.1913 -2.0725,0.42779 -3.5175,0.70117 -2.8901,0.54676 -6.8111,1.24356 -11.4141,2.03906 -9.206,1.59101 -21.1402,3.57557 -33.0274,5.53516 -11.8871,1.95959 -23.7272,3.89461 -32.7402,5.38867 -4.5065,0.74703 -8.3058,1.38306 -11.0527,1.85742 -1.3735,0.23718 -2.4829,0.43436 -3.2871,0.58399 -0.8043,0.14962 -1.2783,0.24315 -1.4688,0.30664 -0.068,0.0225 -0.3652,0.0276 -0.7812,-0.0371 -0.4161,-0.0647 -0.9674,-0.18313 -1.6328,-0.34961 -1.3309,-0.33296 -3.1158,-0.85635 -5.2071,-1.51367 -4.1826,-1.31465 -9.592,-3.16788 -15.0644,-5.12696 -5.4725,-1.95907 -11.0097,-4.02368 -15.4532,-5.75976 -4.4434,-1.73609 -7.8113,-3.15673 -8.873,-3.78125 -2.2758,-1.33872 -5.737,-1.25588 -9.084,-0.89844 -3.3469,0.35744 -6.5998,0.99846 -8.3555,0.87305 -1.7713,-0.12653 -5.4617,-1.02931 -8.8378,-2.76563 -3.3762,-1.73632 -6.4307,-4.29723 -7.0625,-7.70898 -1.2896,-6.9643 -1.5481,-18.86797 1.8085,-29.71289 1.694,-5.47281 1.3043,-9.47049 0.4219,-12.50977 -0.8823,-3.03928 -2.2402,-5.13398 -2.4883,-6.74609 -0.2621,-1.70469 -0.9754,-4.42017 -1.4921,-7.06836 -0.5168,-2.64819 -0.8179,-5.24017 -0.3321,-6.57617 1.0231,-2.81332 2.554,-4.19999 4.8809,-6.00977 0.3367,-0.26188 0.4692,-0.64656 0.4316,-1.05859 -0.038,-0.41204 -0.2203,-0.86366 -0.4863,-1.36719 -0.532,-1.00705 -1.4097,-2.22126 -2.2461,-3.58789 -0.8363,-1.36663 -1.6306,-2.88247 -1.998,-4.46485 -0.3675,-1.58237 -0.313,-3.2254 0.5429,-4.89062 0.6002,-1.16782 2.0549,-3.04155 3.9629,-5.29297 1.908,-2.25141 4.2704,-4.89045 6.6973,-7.63672 0.5873,-0.66464 2.5836,-3.11864 5.3965,-6.62109 2.8128,-3.50245 6.4352,-8.04565 10.25,-12.86524 7.6294,-9.63917 16.0268,-20.37811 20.2578,-26.08984 2.1074,-2.84502 3.78,-4.58513 5.1347,-5.57812 1.3548,-0.993 2.3781,-1.23856 3.2305,-1.13086 0.8525,0.10769 1.5577,0.57998 2.2461,1.09765 0.6884,0.51767 1.3534,1.08153 2.1484,1.30664 2.8612,0.81014 3.3953,3.98395 13.0196,1.38282 0.3734,-0.10094 1.6743,-0.25219 3.584,-0.41407 1.9096,-0.16187 4.4543,-0.34359 7.4121,-0.53515 5.9155,-0.38312 13.4838,-0.80715 20.9472,-1.20313 14.924,-0.79179 29.4181,-1.46848 29.4239,-1.46875 0,0 12.7471,-0.15493 25.7851,-0.24414 6.5191,-0.0446 13.1098,-0.0718 18.2168,-0.0566 z"
       id="path4168"
       inkscape:connector-curvature="0" />
    <g
       id="g4242"
       transform="matrix(0.36277227,0,0,0.36277227,-865.58087,-207.49057)">
      <path
         sodipodi:nodetypes="csscc"
         inkscape:connector-curvature="0"
         id="path4188"
         d="m -1264.971,-415.71901 c 0,0 -32.8572,32.85714 -55.7143,11.42857 -12.7216,-11.92652 -17.1429,-24.28571 -2.8572,-67.14286 14.2858,-42.85714 11.4286,-62.85714 11.4286,-62.85714 l 0,0"
         style="fill:none;fill-rule:evenodd;stroke:#4d4d4d;stroke-width:10;stroke-linecap:butt;stroke-linejoin:miter;stroke-miterlimit:4;stroke-dasharray:none;stroke-opacity:1" />
      <path
         sodipodi:nodetypes="ccczccc"
         inkscape:connector-curvature="0"
         id="path4136"
         d="m -1270.7845,-403.47726 c -5.4293,-20.38474 5.594,-225.02689 5.594,-225.02689 l 115.8776,-155.97687 c 0,0 302.76047,-16.32734 312.18276,-5.73321 9.4223,10.59414 21.71707,390.49508 21.71707,390.49508 l -317.61213,53.50993 z"
         style="fill:#4d4d4d;fill-rule:evenodd;stroke:none;stroke-width:1px;stroke-linecap:butt;stroke-linejoin:miter;stroke-opacity:1" />
      <path
         sodipodi:nodetypes="szccs"
         inkscape:connector-curvature="0"
         id="path4138"
         d="m -1135.3325,-772.37758 c -7.1708,6.33856 -4.0789,407.83966 15.6092,409.60577 19.6879,1.7661 291.14426,-47.13971 291.14426,-47.13971 l -17.64512,-371.38438 c 0,0 -278.14814,-0.77 -289.10834,8.91832 z"
         style="fill:#ffffff;fill-rule:evenodd;stroke:none;stroke-width:1px;stroke-linecap:butt;stroke-linejoin:miter;stroke-opacity:1" />
      <path
         sodipodi:nodetypes="cccsccc"
         inkscape:connector-curvature="0"
         id="path4140"
         d="m -1112.1515,-733.70576 c 0,28.66603 4.9154,178.55301 4.9154,178.55301 l 238.88768,-29.30305 c 0,0 10.46156,-0.0999 14.25183,-13.37749 3.79026,-13.27764 -8.82256,-148.42635 -8.82256,-148.42635 0,0 -1.70796,-16.83537 -10.3552,-16.83537 -47.89109,9.33482 -237.36465,-3.2859 -238.87715,29.38925 z"
         style="fill:#ff6600;fill-rule:evenodd;stroke:none;stroke-width:1px;stroke-linecap:butt;stroke-linejoin:miter;stroke-opacity:1" />
      <g
         transform="matrix(0.98202588,-0.18874634,0.18874634,0.98202588,0,0)"
         style="font-style:normal;font-weight:normal;font-size:138.72245789px;line-height:125%;font-family:sans-serif;letter-spacing:0px;word-spacing:0px;fill:#ffffff;fill-opacity:1;stroke:none;stroke-width:1px;stroke-linecap:butt;stroke-linejoin:miter;stroke-opacity:1"
         id="text4142">
        <path
           d="m -888.70051,-831.94802 43.97502,18.17264 -3.19062,9.57185 -53.54687,-22.75048 0,-9.84929 53.54687,-22.75049 3.19062,9.57185 -43.97502,18.03392 z"
           style="font-style:normal;font-variant:normal;font-weight:normal;font-stretch:normal;font-family:'Ubuntu Mono';-inkscape-font-specification:'Ubuntu Mono';fill:#ffffff"
           id="path4206" />
        <path
           d="m -809.48999,-804.89714 q 10.95908,0 15.53692,-4.3004 4.71656,-4.43911 4.71656,-11.7914 0,-4.71657 -1.94211,-7.90718 -1.94212,-3.19062 -5.13273,-5.13274 -3.19062,-1.94211 -7.35229,-2.77444 -4.16168,-0.83234 -8.73952,-0.83234 l -2.91317,0 0,-9.2944 4.02295,0 q 3.0519,0 6.24251,-0.55489 3.32934,-0.69362 5.96507,-2.21956 2.77445,-1.66467 4.43912,-4.43912 1.66467,-2.77445 1.66467,-7.07485 0,-7.07484 -4.43912,-9.98801 -4.3004,-3.0519 -10.12674,-3.0519 -5.96507,0 -10.12674,1.80339 -4.16167,1.66467 -6.93612,3.46807 l -4.43912,-8.73952 q 2.91317,-2.08084 8.73951,-4.3004 5.96507,-2.35828 13.17864,-2.35828 6.7974,0 11.65268,1.66467 4.85529,1.66467 7.90718,4.71657 3.19062,3.05189 4.71657,7.21356 1.52594,4.02295 1.52594,8.87824 0,6.7974 -3.60678,11.51396 -3.46806,4.71657 -9.01696,7.21357 6.65868,1.94212 11.51396,7.62974 4.85529,5.5489 4.85529,14.8433 0,5.5489 -1.94212,10.40419 -1.80339,4.71656 -5.68762,8.18462 -3.7455,3.46806 -9.84929,5.41018 -5.96507,1.94211 -14.28841,1.94211 -3.19062,0 -6.65868,-0.55489 -3.32934,-0.41617 -6.24251,-1.2485 -2.91317,-0.69361 -5.27146,-1.38723 -2.21955,-0.83233 -3.19061,-1.2485 l 2.21956,-9.84929 q 2.21956,1.10978 7.07484,2.63572 4.85529,1.52595 11.93013,1.52595 z"
           style="font-style:normal;font-variant:normal;font-weight:normal;font-stretch:normal;font-family:'Ubuntu Mono';-inkscape-font-specification:'Ubuntu Mono';fill:#ffffff"
           id="path4208" />
      </g>
      <path
         sodipodi:nodetypes="csccc"
         inkscape:connector-curvature="0"
         id="path4146"
         d="m -1103.1641,-527.76076 c 0,0 -10.1799,24.20687 0,24.20687 10.1798,0 236.85166,-26.11794 236.85166,-26.11794 11.26882,-6.99553 9.71268,-19.70205 3.39329,-24.20688 -8.1439,-5.7332 -240.24495,26.11795 -240.24495,26.11795 z"
         style="fill:#008080;fill-rule:evenodd;stroke:none;stroke-width:1px;stroke-linecap:butt;stroke-linejoin:miter;stroke-opacity:1" />
      <path
         sodipodi:nodetypes="csccc"
         inkscape:connector-curvature="0"
         id="path4146-0"
         d="m -1100.0991,-482.50538 c 0,0 -10.1799,24.20687 0,24.20687 10.1799,0 236.85178,-26.11794 236.85178,-26.11794 11.26881,-6.99553 9.71267,-19.70205 3.39328,-24.20687 -8.1439,-5.73321 -240.24506,26.11794 -240.24506,26.11794 z"
         style="fill:#008080;fill-rule:evenodd;stroke:none;stroke-width:1px;stroke-linecap:butt;stroke-linejoin:miter;stroke-opacity:1" />
      <path
         sodipodi:nodetypes="csccc"
         inkscape:connector-curvature="0"
         id="path4146-2"
         d="m -1095.3485,-436.63972 c 0,0 -10.1799,24.20687 0,24.20687 10.1799,0 236.85178,-26.11794 236.85178,-26.11794 11.26882,-6.99553 9.71268,-19.70205 3.39329,-24.20687 -8.14389,-5.73321 -240.24507,26.11794 -240.24507,26.11794 z"
         style="fill:#008080;fill-rule:evenodd;stroke:none;stroke-width:1px;stroke-linecap:butt;stroke-linejoin:miter;stroke-opacity:1" />
      <path
         inkscape:connector-curvature="0"
         id="path4190"
         d="m -1336.7508,-560.17891 c 0,0 -1.3613,21.32527 3.6297,25.86256 4.9911,4.53728 26.77,5.44474 31.3074,4.08355 4.5372,-1.36119 12.2506,-4.08355 12.2506,-12.25068 0,-8.16713 -2.7223,-23.5939 -2.7223,-23.5939 0,0 -26.7701,-4.99103 -35.3909,-0.90747 -8.6209,4.08357 -9.0745,6.80594 -9.0745,6.80594 z"
         style="fill:#ff6600;fill-rule:evenodd;stroke:none;stroke-width:1px;stroke-linecap:butt;stroke-linejoin:miter;stroke-opacity:1" />
      <path
         transform="matrix(0.99724927,-0.07412079,0.07412079,0.99724927,0,0)"
         style="opacity:1;fill:#4d4d4d;fill-opacity:1;fill-rule:nonzero;stroke:none;stroke-width:10;stroke-linecap:round;stroke-linejoin:round;stroke-miterlimit:4;stroke-dasharray:none;stroke-opacity:1"
         d="m -1278.4993,-681.95331 c 1.4453,0 2.6089,1.75631 2.6089,3.93791 l 0,17.75988 c 0,2.1816 -1.1636,3.9379 -2.6089,3.9379 -1.4454,0 -2.609,-1.7563 -2.609,-3.9379 l 0,-17.75988 c 0,-2.1816 1.1636,-3.93791 2.609,-3.93791 z"
         id="rect4192" />
      <path
         transform="matrix(0.99724927,-0.07412079,0.07412079,0.99724927,0,0)"
         style="opacity:1;fill:#4d4d4d;fill-opacity:1;fill-rule:nonzero;stroke:none;stroke-width:10;stroke-linecap:round;stroke-linejoin:round;stroke-miterlimit:4;stroke-dasharray:none;stroke-opacity:1"
         d="m -1259.7829,-682.97418 c 1.4453,0 2.6089,1.7563 2.6089,3.9379 l 0,17.75988 c 0,2.1816 -1.1636,3.93791 -2.6089,3.93791 -1.4454,0 -2.6089,-1.75631 -2.6089,-3.93791 l 0,-17.75988 c 0,-2.1816 1.1635,-3.9379 2.6089,-3.9379 z"
         id="rect4192-8" />
    </g>
    <g
       transform="matrix(0.6201123,-0.78451305,0.78451305,0.6201123,0,0)"
       style="font-style:normal;font-weight:normal;font-size:19.39500809px;line-height:125%;font-family:sans-serif;letter-spacing:0px;word-spacing:0px;fill:#000000;fill-opacity:1;stroke:none;stroke-width:1px;stroke-linecap:butt;stroke-linejoin:miter;stroke-opacity:1"
       id="text4170">
      <path
         d="m -493.67476,-1318.9042 -0.71762,-3.142 -4.61601,0 -0.69822,3.142 -1.62918,0 q 0.32971,-1.28 0.73701,-2.7735 0.4073,-1.4934 0.87278,-3.0644 0.48487,-1.571 1.00854,-3.142 0.52366,-1.5904 1.10551,-3.0256 l 1.97829,0 q 0.56246,1.4352 1.06673,3.0256 0.52366,1.571 0.96975,3.142 0.46548,1.571 0.87277,3.0644 0.4073,1.4935 0.73701,2.7735 l -1.68736,0 z m -3.00623,-10.609 q -0.44608,1.2218 -0.96975,2.8316 -0.52366,1.6098 -0.98914,3.3166 l 3.879,0 q -0.44609,-1.7456 -0.96975,-3.3554 -0.50427,-1.6291 -0.95036,-2.7928 z"
         style="font-style:normal;font-variant:normal;font-weight:normal;font-stretch:normal;font-family:'Ubuntu Mono';-inkscape-font-specification:'Ubuntu Mono';fill:#333333"
         id="path4186" />
      <path
         d="m -491.28918,-1320.2618 0.69822,0 q 0.58185,-0.834 0.91157,-1.7068 0.32971,-0.8728 0.48487,-1.8037 0.17456,-0.9504 0.23274,-1.9589 0.0582,-1.028 0.0776,-2.1723 l 5.31424,0 0,7.6417 0.7564,0 0,3.8596 -1.51281,0 0,-2.502 -5.45,0 0,2.502 -1.51281,0 0,-3.8596 z m 6.12883,0 0,-6.3034 -2.19164,0 q 0,0.7758 -0.0776,1.6486 -0.0776,0.8534 -0.27153,1.6873 -0.17455,0.834 -0.48487,1.6098 -0.31033,0.7564 -0.75641,1.3577 l 3.78203,0 z"
         style="font-style:normal;font-variant:normal;font-weight:normal;font-stretch:normal;font-family:'Ubuntu Mono';-inkscape-font-specification:'Ubuntu Mono';fill:#333333"
         id="path4189" />
      <path
         d="m -481.24256,-1318.9042 0,-8.9993 1.45462,0 0,7.6417 1.80374,0 0,-5.5664 1.45462,0 0,5.5664 1.78435,0 0,-7.6417 1.45462,0 0,8.9993 -7.95195,0 z"
         style="font-style:normal;font-variant:normal;font-weight:normal;font-stretch:normal;font-family:'Ubuntu Mono';-inkscape-font-specification:'Ubuntu Mono';fill:#333333"
         id="path4191" />
      <path
         d="m -467.80182,-1323.8499 q 0.52366,0.3879 1.18309,0.9891 0.65943,0.5819 1.29947,1.2607 0.65943,0.6788 1.24128,1.3965 0.58185,0.6982 0.93096,1.2994 l -1.90071,0 q -0.36851,-0.6012 -0.91157,-1.2219 -0.54306,-0.64 -1.1637,-1.2218 -0.60124,-0.5819 -1.22188,-1.0668 -0.60125,-0.4848 -1.08612,-0.8146 l 0,4.3251 -1.60979,0 0,-8.9993 1.60979,0 0,3.7627 q 1.06672,-0.931 2.13345,-1.8426 1.06672,-0.9309 1.9201,-1.9201 l 1.88132,0 q -0.83398,0.9892 -2.01708,2.0365 -1.1637,1.0473 -2.28861,2.0171 z"
         style="font-style:normal;font-variant:normal;font-weight:normal;font-stretch:normal;font-family:'Ubuntu Mono';-inkscape-font-specification:'Ubuntu Mono';fill:#333333"
         id="path4193" />
      <path
         d="m -457.7746,-1320.0485 q 0.60124,0 1.06672,-0.039 0.48488,-0.039 0.7952,-0.097 l 0,-2.6766 q -0.31032,-0.097 -0.75641,-0.1551 -0.42669,-0.058 -0.91156,-0.058 -0.44609,0 -0.87278,0.078 -0.42669,0.058 -0.7564,0.2327 -0.32972,0.1746 -0.54306,0.4655 -0.21335,0.2715 -0.21335,0.6982 0,0.8728 0.58185,1.2219 0.60125,0.3297 1.60979,0.3297 z m -0.15516,-8.0683 q 1.00854,0 1.68736,0.2521 0.69822,0.2522 1.12491,0.6983 0.42669,0.446 0.60125,1.0861 0.17455,0.64 0.17455,1.3964 l 0,5.6246 q -0.56245,0.097 -1.49341,0.2327 -0.91157,0.1358 -1.88132,0.1358 -0.73701,0 -1.43523,-0.1358 -0.69822,-0.1164 -1.24128,-0.4267 -0.54306,-0.3297 -0.87277,-0.8922 -0.32972,-0.5624 -0.32972,-1.4352 0,-0.7758 0.32972,-1.2995 0.34911,-0.543 0.87277,-0.8727 0.54306,-0.3297 1.22189,-0.4655 0.69822,-0.1552 1.39644,-0.1552 0.95035,0 1.86192,0.2134 l 0,-0.4461 q 0,-0.4073 -0.097,-0.7758 -0.0776,-0.3879 -0.32971,-0.6982 -0.23274,-0.3103 -0.65943,-0.4849 -0.4073,-0.194 -1.06673,-0.194 -0.83398,0 -1.45462,0.1164 -0.62064,0.1164 -0.95036,0.2328 l -0.19395,-1.3189 q 0.32972,-0.1552 1.08612,-0.2715 0.7758,-0.1164 1.64858,-0.1164 z"
         style="font-style:normal;font-variant:normal;font-weight:normal;font-stretch:normal;font-family:'Ubuntu Mono';-inkscape-font-specification:'Ubuntu Mono';fill:#333333"
         id="path4195" />
      <path
         d="m -452.49916,-1320.2618 0.69822,0 q 0.58185,-0.834 0.91156,-1.7068 0.32972,-0.8728 0.48488,-1.8037 0.17455,-0.9504 0.23274,-1.9589 0.0582,-1.028 0.0776,-2.1723 l 5.31423,0 0,7.6417 0.75641,0 0,3.8596 -1.51281,0 0,-2.502 -5.45,0 0,2.502 -1.51281,0 0,-3.8596 z m 6.12882,0 0,-6.3034 -2.19164,0 q 0,0.7758 -0.0776,1.6486 -0.0776,0.8534 -0.27153,1.6873 -0.17455,0.834 -0.48487,1.6098 -0.31032,0.7564 -0.75641,1.3577 l 3.78203,0 z"
         style="font-style:normal;font-variant:normal;font-weight:normal;font-stretch:normal;font-family:'Ubuntu Mono';-inkscape-font-specification:'Ubuntu Mono';fill:#333333"
         id="path4197" />
      <path
         d="m -442.33618,-1317.2168 q 0.17456,0.097 0.48488,0.1552 0.32971,0.058 0.60124,0.058 0.95036,0 1.47403,-0.4267 0.54306,-0.4072 0.98914,-1.3576 -1.08612,-2.0559 -2.03648,-4.4027 -0.95035,-2.3662 -1.57099,-4.713 l 1.74555,0 q 0.19395,0.7758 0.44609,1.6874 0.27153,0.8922 0.60124,1.8425 0.32972,0.9504 0.69822,1.9201 0.3879,0.9504 0.81459,1.8232 0.31032,-0.8922 0.58185,-1.765 0.27153,-0.8728 0.50427,-1.7455 0.23274,-0.8922 0.46548,-1.8038 0.23274,-0.9309 0.48488,-1.9589 l 1.66797,0 q -0.62064,2.5214 -1.39644,4.8876 -0.75641,2.3662 -1.62918,4.3833 -0.32972,0.7758 -0.71762,1.3382 -0.3685,0.5625 -0.81459,0.931 -0.44608,0.3685 -1.00854,0.543 -0.56246,0.1746 -1.28007,0.1746 -0.36851,0 -0.81459,-0.097 -0.42669,-0.097 -0.58185,-0.1745 l 0.29092,-1.2995 z"
         style="font-style:normal;font-variant:normal;font-weight:normal;font-stretch:normal;font-family:'Ubuntu Mono';-inkscape-font-specification:'Ubuntu Mono';fill:#333333"
         id="path4199" />
      <path
         d="m -425.1328,-1327.9035 0,8.9993 -1.571,0 0,-6.8658 q -0.52366,0.6594 -1.10551,1.5516 -0.56246,0.8922 -1.14431,1.8425 -0.56245,0.931 -1.08612,1.8425 -0.52366,0.9116 -0.93096,1.6292 l -1.43523,0 0,-8.9993 1.5516,0 0,6.478 q 0.44609,-0.7564 0.96975,-1.6292 0.52367,-0.8922 1.08612,-1.765 0.56246,-0.8921 1.12491,-1.6873 0.56246,-0.8146 1.10552,-1.3965 l 1.43523,0 z m -3.41352,-1.4546 q -1.08612,0 -1.76495,-0.543 -0.67882,-0.5625 -0.83398,-1.5516 l 1.22188,-0.3298 q 0.15516,0.5625 0.48488,0.9116 0.32971,0.3297 0.89217,0.3297 0.56245,0 0.89217,-0.3297 0.32971,-0.3491 0.48487,-0.9116 l 1.20249,0.3298 q -0.15516,0.9891 -0.83398,1.5516 -0.65943,0.543 -1.74555,0.543 z"
         style="font-style:normal;font-variant:normal;font-weight:normal;font-stretch:normal;font-family:'Ubuntu Mono';-inkscape-font-specification:'Ubuntu Mono';fill:#333333"
         id="path4201" />
      <path
         d="m -418.24758,-1327.6513 q 0,0.7176 -0.0194,1.3188 -0.0194,0.6013 -0.0776,1.1443 -0.0388,0.5431 -0.097,1.0862 -0.0582,0.5236 -0.11637,1.1055 l -1.10551,0 q -0.0582,-0.5819 -0.11637,-1.1055 -0.0582,-0.5431 -0.11637,-1.0862 -0.0388,-0.543 -0.0582,-1.1443 -0.0194,-0.6012 -0.0194,-1.3188 l 0,-3.2584 1.72615,0 0,3.2584 z m -0.87277,8.9799 q -0.52367,0 -0.91157,-0.3491 -0.3879,-0.3686 -0.3879,-0.9698 0,-0.6012 0.3879,-0.9504 0.3879,-0.3685 0.91157,-0.3685 0.54306,0 0.91156,0.3685 0.3879,0.3492 0.3879,0.9504 0,0.6012 -0.3879,0.9698 -0.3685,0.3491 -0.91156,0.3491 z"
         style="font-style:normal;font-variant:normal;font-weight:normal;font-stretch:normal;font-family:'Ubuntu Mono';-inkscape-font-specification:'Ubuntu Mono';fill:#333333"
         id="path4203" />
    </g>
    <g
       transform="matrix(0.92308649,0.38459241,-0.38459241,0.92308649,0,0)"
       style="font-style:normal;font-weight:normal;font-size:6.71066761px;line-height:125%;font-family:sans-serif;letter-spacing:0px;word-spacing:0px;fill:#ffffff;fill-opacity:1;stroke:none;stroke-width:1px;stroke-linecap:butt;stroke-linejoin:miter;stroke-opacity:1"
       id="text4174">
      <path
         d="m -1358.6539,176.11808 q -0.1744,0 -0.3019,-0.12079 -0.1275,-0.1208 -0.1275,-0.32883 0,-0.20803 0.1275,-0.32882 0.1275,-0.12079 0.3019,-0.12079 0.1812,0 0.302,0.12079 0.1275,0.12079 0.1275,0.32882 0,0.20803 -0.1275,0.32883 -0.1208,0.12079 -0.302,0.12079 z m -0.1409,0.9462 -0.8992,0 0,-0.46303 1.4495,0 0,1.91254 q 0,0.46303 0.1275,0.62409 0.1275,0.15434 0.3825,0.15434 0.1946,0 0.3557,-0.047 0.1677,-0.047 0.2617,-0.10066 l 0.081,0.46975 q -0.04,0.0201 -0.1141,0.0537 -0.074,0.0268 -0.1745,0.0537 -0.094,0.0268 -0.2147,0.047 -0.1141,0.0201 -0.2416,0.0201 -0.2952,0 -0.4899,-0.0805 -0.1946,-0.0805 -0.3154,-0.24159 -0.114,-0.16105 -0.161,-0.39593 -0.047,-0.24158 -0.047,-0.55698 l 0,-1.44951 z"
         style="font-style:normal;font-variant:normal;font-weight:normal;font-stretch:normal;font-family:'Ubuntu Mono';-inkscape-font-specification:'Ubuntu Mono';fill:#ffffff"
         id="path4154" />
      <path
         d="m -1355.0704,176.60125 1.3153,0 0,0.46303 -1.3153,0 0,1.44951 q 0,0.23487 0.034,0.3825 0.034,0.14764 0.1074,0.24159 0.081,0.0872 0.2013,0.12079 0.1208,0.0335 0.2952,0.0335 0.2416,0 0.3893,-0.0403 0.1476,-0.0403 0.2818,-0.10737 l 0.081,0.46975 q -0.094,0.0403 -0.3019,0.10737 -0.2014,0.0671 -0.5033,0.0671 -0.349,0 -0.5704,-0.0805 -0.2215,-0.0805 -0.349,-0.24159 -0.1208,-0.16105 -0.1678,-0.39593 -0.047,-0.24158 -0.047,-0.55698 l 0,-1.44951 -0.6577,0 0,-0.46303 0.6577,0 0,-0.87239 0.5502,-0.094 0,0.96634 z"
         style="font-style:normal;font-variant:normal;font-weight:normal;font-stretch:normal;font-family:'Ubuntu Mono';-inkscape-font-specification:'Ubuntu Mono';fill:#ffffff"
         id="path4156" />
      <path
         d="m -1351.1715,179.28551 q 0,0.20132 -0.1342,0.35567 -0.1342,0.15434 -0.3557,0.15434 -0.2281,0 -0.3623,-0.15434 -0.1342,-0.15435 -0.1342,-0.35567 0,-0.20803 0.1342,-0.36237 0.1342,-0.15435 0.3623,-0.15435 0.2215,0 0.3557,0.15435 0.1342,0.15434 0.1342,0.36237 z"
         style="font-style:normal;font-variant:normal;font-weight:normal;font-stretch:normal;font-family:'Ubuntu Mono';-inkscape-font-specification:'Ubuntu Mono';fill:#ffffff"
         id="path4158" />
      <path
         d="m -1348.91,179.715 0,-2.65072 -0.6576,0 0,-0.46303 0.6576,0 0,-0.28185 q 0,-0.36238 0.1007,-0.59725 0.1006,-0.24158 0.2617,-0.38922 0.1678,-0.14763 0.3825,-0.20803 0.2215,-0.0604 0.463,-0.0604 0.2416,0 0.4832,0.0537 0.2483,0.0537 0.463,0.1275 l -0.1006,0.47646 q -0.1476,-0.0738 -0.3691,-0.1275 -0.2215,-0.0537 -0.4496,-0.0537 -0.1409,0 -0.2684,0.0403 -0.1208,0.0335 -0.2148,0.1275 -0.094,0.0872 -0.1476,0.24158 -0.054,0.14764 -0.054,0.3758 l 0,0.27514 1.2549,0 0,0.46303 -1.2549,0 0,2.65072 -0.5503,0 z"
         style="font-style:normal;font-variant:normal;font-weight:normal;font-stretch:normal;font-family:'Ubuntu Mono';-inkscape-font-specification:'Ubuntu Mono';fill:#ffffff"
         id="path4160" />
      <path
         d="m -1344.9238,179.31907 q 0.208,0 0.369,-0.0134 0.1678,-0.0134 0.2752,-0.0336 l 0,-0.92607 q -0.1074,-0.0336 -0.2617,-0.0537 -0.1477,-0.0201 -0.3154,-0.0201 -0.1544,0 -0.302,0.0268 -0.1476,0.0201 -0.2617,0.0805 -0.1141,0.0604 -0.1879,0.16106 -0.074,0.094 -0.074,0.24158 0,0.30198 0.2013,0.42278 0.208,0.11408 0.557,0.11408 z m -0.054,-2.79164 q 0.3489,0 0.5838,0.0872 0.2416,0.0872 0.3892,0.24158 0.1477,0.15435 0.2081,0.3758 0.06,0.22145 0.06,0.48317 l 0,1.94609 q -0.1946,0.0336 -0.5167,0.0805 -0.3154,0.047 -0.6509,0.047 -0.255,0 -0.4966,-0.047 -0.2416,-0.0403 -0.4295,-0.14764 -0.1879,-0.11408 -0.302,-0.30869 -0.114,-0.19461 -0.114,-0.49659 0,-0.26842 0.114,-0.44961 0.1208,-0.1879 0.302,-0.30198 0.1879,-0.11408 0.4228,-0.16106 0.2416,-0.0537 0.4832,-0.0537 0.3288,0 0.6442,0.0738 l 0,-0.15435 q 0,-0.14092 -0.034,-0.26843 -0.027,-0.13421 -0.1141,-0.24158 -0.081,-0.10737 -0.2281,-0.16777 -0.1409,-0.0671 -0.3691,-0.0671 -0.2886,0 -0.5033,0.0403 -0.2147,0.0403 -0.3288,0.0805 l -0.067,-0.45633 q 0.1141,-0.0537 0.3758,-0.094 0.2684,-0.0403 0.5704,-0.0403 z"
         style="font-style:normal;font-variant:normal;font-weight:normal;font-stretch:normal;font-family:'Ubuntu Mono';-inkscape-font-specification:'Ubuntu Mono';fill:#ffffff"
         id="path4162" />
      <path
         d="m -1341.0115,179.78881 q -0.2953,0 -0.4899,-0.0805 -0.1946,-0.0805 -0.3087,-0.24159 -0.1141,-0.16105 -0.161,-0.39593 -0.047,-0.24158 -0.047,-0.55698 l 0,-2.94599 -0.8993,0 0,-0.46974 1.4496,0 0,3.41573 q 0,0.23487 0.027,0.3825 0.034,0.14764 0.094,0.24159 0.067,0.0872 0.1611,0.12079 0.094,0.0335 0.2215,0.0335 0.1946,0 0.3623,-0.047 0.1678,-0.047 0.2617,-0.10066 l 0.081,0.46975 q -0.04,0.0201 -0.1141,0.0537 -0.074,0.0268 -0.1745,0.0537 -0.1006,0.0268 -0.2214,0.047 -0.1141,0.0201 -0.2416,0.0201 z"
         style="font-style:normal;font-variant:normal;font-weight:normal;font-stretch:normal;font-family:'Ubuntu Mono';-inkscape-font-specification:'Ubuntu Mono';fill:#ffffff"
         id="path4164" />
      <path
         d="m -1338.2132,179.31907 q 0.2081,0 0.3691,-0.0134 0.1678,-0.0134 0.2752,-0.0336 l 0,-0.92607 q -0.1074,-0.0336 -0.2618,-0.0537 -0.1476,-0.0201 -0.3154,-0.0201 -0.1543,0 -0.3019,0.0268 -0.1477,0.0201 -0.2618,0.0805 -0.114,0.0604 -0.1879,0.16106 -0.074,0.094 -0.074,0.24158 0,0.30198 0.2013,0.42278 0.2081,0.11408 0.557,0.11408 z m -0.054,-2.79164 q 0.349,0 0.5839,0.0872 0.2416,0.0872 0.3892,0.24158 0.1476,0.15435 0.208,0.3758 0.06,0.22145 0.06,0.48317 l 0,1.94609 q -0.1946,0.0336 -0.5167,0.0805 -0.3154,0.047 -0.6509,0.047 -0.255,0 -0.4966,-0.047 -0.2416,-0.0403 -0.4295,-0.14764 -0.1879,-0.11408 -0.302,-0.30869 -0.1141,-0.19461 -0.1141,-0.49659 0,-0.26842 0.1141,-0.44961 0.1208,-0.1879 0.302,-0.30198 0.1879,-0.11408 0.4228,-0.16106 0.2415,-0.0537 0.4831,-0.0537 0.3289,0 0.6443,0.0738 l 0,-0.15435 q 0,-0.14092 -0.034,-0.26843 -0.027,-0.13421 -0.1141,-0.24158 -0.081,-0.10737 -0.2281,-0.16777 -0.141,-0.0671 -0.3691,-0.0671 -0.2886,0 -0.5033,0.0403 -0.2148,0.0403 -0.3289,0.0805 l -0.067,-0.45633 q 0.1141,-0.0537 0.3758,-0.094 0.2685,-0.0403 0.5704,-0.0403 z"
         style="font-style:normal;font-variant:normal;font-weight:normal;font-stretch:normal;font-family:'Ubuntu Mono';-inkscape-font-specification:'Ubuntu Mono';fill:#ffffff"
         id="path4166" />
      <path
         d="m -1336.0926,176.68849 q 0.302,-0.0738 0.5972,-0.11409 0.302,-0.0403 0.5637,-0.0403 0.6241,0 0.9395,0.32211 0.3221,0.32211 0.3221,1.03344 l 0,1.82531 -0.5502,0 0,-1.72465 q 0,-0.30198 -0.054,-0.48987 -0.054,-0.1879 -0.1544,-0.28856 -0.094,-0.10737 -0.2348,-0.14764 -0.1342,-0.0403 -0.2953,-0.0403 -0.1342,0 -0.2886,0.0201 -0.1476,0.0134 -0.2885,0.0403 l 0,2.63059 -0.557,0 0,-3.02651 z"
         style="font-style:normal;font-variant:normal;font-weight:normal;font-stretch:normal;font-family:'Ubuntu Mono';-inkscape-font-specification:'Ubuntu Mono';fill:#ffffff"
         id="path4169" />
      <path
         d="m -1330.8583,178.93656 q 0,-0.16777 -0.1409,-0.27514 -0.1342,-0.10737 -0.3422,-0.1879 -0.2014,-0.0805 -0.443,-0.15434 -0.2415,-0.0805 -0.4496,-0.19461 -0.2013,-0.11408 -0.3422,-0.28185 -0.1342,-0.16777 -0.1342,-0.43619 0,-0.3758 0.302,-0.6241 0.3086,-0.255 0.9596,-0.255 0.255,0 0.5234,0.0403 0.2751,0.0336 0.4698,0.094 l -0.1007,0.49659 q -0.054,-0.0268 -0.1476,-0.0537 -0.094,-0.0336 -0.2148,-0.0537 -0.1208,-0.0268 -0.2617,-0.0403 -0.1342,-0.0134 -0.2617,-0.0134 -0.7248,0 -0.7248,0.39593 0,0.14092 0.1343,0.24158 0.1409,0.094 0.3489,0.17448 0.208,0.0805 0.4496,0.16776 0.2416,0.0805 0.4496,0.20132 0.2081,0.1208 0.3423,0.29527 0.1409,0.16777 0.1409,0.42949 0,0.42277 -0.3288,0.65764 -0.3288,0.22816 -1.0402,0.22816 -0.3221,0 -0.5905,-0.0537 -0.2684,-0.0537 -0.51,-0.16106 l 0.1073,-0.5033 q 0.2349,0.10737 0.4899,0.18119 0.2617,0.0671 0.557,0.0671 0.7583,0 0.7583,-0.38251 z"
         style="font-style:normal;font-variant:normal;font-weight:normal;font-stretch:normal;font-family:'Ubuntu Mono';-inkscape-font-specification:'Ubuntu Mono';fill:#ffffff"
         id="path4171" />
      <path
         d="m -1328.2277,176.60125 1.3153,0 0,0.46303 -1.3153,0 0,1.44951 q 0,0.23487 0.034,0.3825 0.034,0.14764 0.1073,0.24159 0.081,0.0872 0.2013,0.12079 0.1208,0.0335 0.2953,0.0335 0.2416,0 0.3892,-0.0403 0.1477,-0.0403 0.2819,-0.10737 l 0.081,0.46975 q -0.094,0.0403 -0.302,0.10737 -0.2013,0.0671 -0.5033,0.0671 -0.3489,0 -0.5704,-0.0805 -0.2214,-0.0805 -0.3489,-0.24159 -0.1208,-0.16105 -0.1678,-0.39593 -0.047,-0.24158 -0.047,-0.55698 l 0,-1.44951 -0.6576,0 0,-0.46303 0.6576,0 0,-0.87239 0.5503,-0.094 0,0.96634 z"
         style="font-style:normal;font-variant:normal;font-weight:normal;font-stretch:normal;font-family:'Ubuntu Mono';-inkscape-font-specification:'Ubuntu Mono';fill:#ffffff"
         id="path4173" />
      <path
         d="m -1324.765,176.52743 q 0.6308,0 0.9731,0.39593 0.3422,0.38922 0.3422,1.18779 l 0,0.19461 -2.2279,0 q 0.034,0.48316 0.3154,0.73817 0.2885,0.24829 0.8052,0.24829 0.2953,0 0.5033,-0.047 0.2081,-0.047 0.3154,-0.10066 l 0.074,0.46975 q -0.1007,0.0537 -0.3624,0.11408 -0.2617,0.0604 -0.5906,0.0604 -0.4026,0 -0.7113,-0.12079 -0.302,-0.1275 -0.5033,-0.34224 -0.2013,-0.21474 -0.302,-0.51001 -0.1006,-0.30198 -0.1006,-0.65094 0,-0.41606 0.1275,-0.72475 0.1275,-0.30869 0.3355,-0.51001 0.208,-0.20132 0.4698,-0.30198 0.2617,-0.10066 0.5368,-0.10066 z m 0.7516,1.32871 q 0,-0.39593 -0.208,-0.62409 -0.2081,-0.23487 -0.5503,-0.23487 -0.1946,0 -0.3557,0.0738 -0.1543,0.0738 -0.2684,0.19461 -0.1141,0.12079 -0.1812,0.27514 -0.067,0.15435 -0.087,0.3154 l 1.6508,0 z"
         style="font-style:normal;font-variant:normal;font-weight:normal;font-stretch:normal;font-family:'Ubuntu Mono';-inkscape-font-specification:'Ubuntu Mono';fill:#ffffff"
         id="path4175" />
      <path
         d="m -1322.4297,179.715 0,-2.94599 q 0.6845,-0.23487 1.3824,-0.23487 0.2148,0 0.4094,0.0201 0.1946,0.0134 0.4294,0.0671 l -0.1006,0.48988 q -0.2148,-0.0604 -0.3825,-0.0738 -0.1611,-0.0201 -0.3557,-0.0201 -0.4093,0 -0.8321,0.11408 l 0,2.58361 -0.5503,0 z"
         style="font-style:normal;font-variant:normal;font-weight:normal;font-stretch:normal;font-family:'Ubuntu Mono';-inkscape-font-specification:'Ubuntu Mono';fill:#ffffff"
         id="path4177" />
      <path
         d="m -1317.6181,179.28551 q 0,0.20132 -0.1342,0.35567 -0.1343,0.15434 -0.3557,0.15434 -0.2282,0 -0.3624,-0.15434 -0.1342,-0.15435 -0.1342,-0.35567 0,-0.20803 0.1342,-0.36237 0.1342,-0.15435 0.3624,-0.15435 0.2214,0 0.3557,0.15435 0.1342,0.15434 0.1342,0.36237 z"
         style="font-style:normal;font-variant:normal;font-weight:normal;font-stretch:normal;font-family:'Ubuntu Mono';-inkscape-font-specification:'Ubuntu Mono';fill:#ffffff"
         id="path4179" />
      <path
         d="m -1315.4036,176.71533 q 0.1006,-0.0604 0.2885,-0.12079 0.1947,-0.0671 0.4295,-0.0671 0.3154,0 0.5637,0.12079 0.2483,0.12079 0.4161,0.33553 0.1745,0.21475 0.2617,0.51673 0.094,0.29527 0.094,0.65764 0,0.3758 -0.1073,0.67778 -0.1074,0.30198 -0.302,0.51672 -0.1946,0.20803 -0.4697,0.32211 -0.2752,0.11408 -0.6107,0.11408 -0.3691,0 -0.6577,-0.0537 -0.2885,-0.0537 -0.463,-0.10737 l 0,-4.46931 0.557,-0.0939 0,1.65083 z m 0,2.5165 q 0.1275,0.0335 0.255,0.0537 0.1275,0.0134 0.2416,0.0134 0.463,0 0.7247,-0.28184 0.2617,-0.28856 0.2617,-0.85897 0,-0.24158 -0.047,-0.44961 -0.047,-0.21474 -0.1477,-0.36238 -0.1006,-0.15434 -0.2617,-0.24158 -0.1543,-0.0872 -0.3758,-0.0872 -0.1946,0 -0.3758,0.0805 -0.1812,0.0738 -0.2751,0.16105 l 0,1.97294 z"
         style="font-style:normal;font-variant:normal;font-weight:normal;font-stretch:normal;font-family:'Ubuntu Mono';-inkscape-font-specification:'Ubuntu Mono';fill:#ffffff"
         id="path4181" />
      <path
         d="m -1312.7395,180.29882 q 0.06,0.0336 0.1678,0.0537 0.1141,0.0201 0.208,0.0201 0.3288,0 0.51,-0.14763 0.1879,-0.14093 0.3423,-0.46975 -0.3758,-0.71133 -0.7046,-1.52332 -0.3289,-0.8187 -0.5436,-1.63069 l 0.6039,0 q 0.067,0.26842 0.1544,0.58382 0.094,0.3087 0.208,0.63752 0.1141,0.32882 0.2416,0.66435 0.1342,0.32883 0.2819,0.63081 0.1073,-0.30869 0.2013,-0.61067 0.094,-0.30198 0.1745,-0.60396 0.081,-0.30869 0.161,-0.6241 0.081,-0.32211 0.1678,-0.67777 l 0.5771,0 q -0.2147,0.87238 -0.4832,1.69108 -0.2617,0.81871 -0.5637,1.51662 -0.114,0.26842 -0.2483,0.46303 -0.1275,0.19461 -0.2818,0.32211 -0.1544,0.12751 -0.349,0.1879 -0.1946,0.0604 -0.4429,0.0604 -0.1275,0 -0.2818,-0.0335 -0.1477,-0.0336 -0.2013,-0.0604 l 0.1006,-0.44962 z"
         style="font-style:normal;font-variant:normal;font-weight:normal;font-stretch:normal;font-family:'Ubuntu Mono';-inkscape-font-specification:'Ubuntu Mono';fill:#ffffff"
         id="path4183" />
    </g>
  </g>
</svg>
