<?xml version="1.0" encoding="UTF-8" standalone="no"?>
<!-- Created with Inkscape (http://www.inkscape.org/) -->

<svg
   xmlns:dc="http://purl.org/dc/elements/1.1/"
   xmlns:cc="http://creativecommons.org/ns#"
   xmlns:rdf="http://www.w3.org/1999/02/22-rdf-syntax-ns#"
   xmlns:svg="http://www.w3.org/2000/svg"
   xmlns="http://www.w3.org/2000/svg"
   xmlns:sodipodi="http://sodipodi.sourceforge.net/DTD/sodipodi-0.dtd"
   xmlns:inkscape="http://www.inkscape.org/namespaces/inkscape"
   width="60.849308mm"
   height="50mm"
   viewBox="0 0 215.60778 177.16535"
   id="svg9212"
   version="1.1"
   inkscape:version="0.91 r13725"
   sodipodi:docname="server_5_nalepka_kontur.svg">
  <defs
     id="defs9214" />
  <sodipodi:namedview
     id="base"
     pagecolor="#ffffff"
     bordercolor="#666666"
     borderopacity="1.0"
     inkscape:pageopacity="0.0"
     inkscape:pageshadow="2"
     inkscape:zoom="1.979899"
     inkscape:cx="234.26817"
     inkscape:cy="10.920234"
     inkscape:document-units="px"
     inkscape:current-layer="layer1"
     showgrid="false"
     fit-margin-top="0"
     fit-margin-left="0"
     fit-margin-right="0"
     fit-margin-bottom="0"
     inkscape:window-width="1855"
     inkscape:window-height="1056"
     inkscape:window-x="65"
     inkscape:window-y="24"
     inkscape:window-maximized="1" />
  <metadata
     id="metadata9217">
    <rdf:RDF>
      <cc:Work
         rdf:about="">
        <dc:format>image/svg+xml</dc:format>
        <dc:type
           rdf:resource="http://purl.org/dc/dcmitype/StillImage" />
        <dc:title></dc:title>
      </cc:Work>
    </rdf:RDF>
  </metadata>
  <g
     inkscape:label="Layer 1"
     inkscape:groupmode="layer"
     id="layer1"
     transform="translate(1224.9468,-169.49381)">
    <path
       style="fill:none;fill-rule:evenodd;stroke:#333333;stroke-width:0.41615641px;stroke-linecap:butt;stroke-linejoin:miter;stroke-opacity:1"
       d="m -1181.0423,182.31021 c 0,0 19.9161,-3.56705 30.32,-3.2698 17.4816,-2.40752 36.7117,-5.36902 53.5058,-8.62038 7.4314,-1.48628 19.3216,-0.59451 28.5364,2.08078 7.6599,2.22384 14.2683,4.75607 16.349,9.51214 2.0808,4.75608 1.7836,11.59294 -0.5945,13.07921 -2.378,1.48627 -2.0807,6.5396 0,8.62038 2.0808,2.08078 5.3506,3.2698 7.7287,6.83685 2.378,3.56706 4.1615,5.9451 3.567,10.40391 -0.5945,4.45882 -1.7835,10.10666 -5.6478,12.4847 -3.8643,2.37803 -5.3506,6.5396 -4.1616,9.8094 1.189,3.2698 8.3231,8.32313 9.2149,10.99842 0.8918,2.67529 -0.2973,12.18744 2.0808,13.97096 2.378,1.78353 5.9451,0.59451 11.8902,2.97255 5.9451,2.37803 10.7011,8.32313 10.9984,10.99842 0.2972,2.67529 1.7835,3.8643 4.7561,10.99842 2.9725,7.13411 3.567,12.48469 2.378,16.94351 -1.189,4.45881 -2.0808,10.40391 -6.8369,13.0792 -4.756,2.67529 -8.3231,2.37803 -9.8094,4.75607 -1.4862,2.37804 -2.9725,7.13411 -8.0258,7.13411 -5.0534,0 -13.971,0.29725 -15.4573,-0.89176 -1.4862,-1.18902 -1.7835,-3.56706 -5.9451,-3.56706 -4.1615,0 -6.2423,-7.43136 -8.3231,-7.72862 -2.0808,-0.29725 -6.5396,0.89177 -12.1874,4.45882 -5.6479,3.56706 -14.2682,8.02587 -16.349,11.29567 -2.0808,3.26981 -1.1891,7.13411 -4.1616,7.72862 -2.9725,0.59451 -27.6447,-3.8643 -27.6447,-3.8643 0,0 -24.6721,-1.78353 -25.8611,-4.45883 -1.189,-2.67529 -0.8918,-6.53959 -6.8369,-6.24234 -5.945,0.29726 -11.2956,-1.18902 -16.0517,-1.48627 -4.7561,-0.29726 -7.1341,0.29725 -9.2149,-8.62038 -2.0808,-8.91764 -4.7561,-30.31997 -4.7561,-33.29252 0,-2.97254 -5.3505,-13.0792 -7.1341,-13.97096 -1.7835,-0.89177 -6.2424,3.2698 -9.8094,2.97254 -3.567,-0.29725 -9.2149,-2.37803 -12.782,-6.83685 -3.567,-4.45882 -7.4313,-15.15999 -7.4313,-20.51057 0,-5.35058 2.6753,-14.56547 7.4313,-16.94351 4.7561,-2.37803 11.2957,-5.05333 15.4573,-4.16156 4.1616,0.89176 9.5121,2.67529 12.1874,4.75607 2.6753,2.08078 3.5671,2.37804 4.4589,-4.45882 0.8917,-6.83685 4.1615,-27.64467 3.2697,-31.50898 -0.8917,-3.86431 -2.9725,-12.18744 0.8918,-15.45724 z"
       id="path9011"
       inkscape:connector-curvature="0"
       sodipodi:nodetypes="cccsssssssssssssssssssssssccsssssssssssscc" />
  </g>
</svg>
