<?xml version="1.0" encoding="UTF-8" standalone="no"?>
<!-- Created with Inkscape (http://www.inkscape.org/) -->

<svg
   xmlns:dc="http://purl.org/dc/elements/1.1/"
   xmlns:cc="http://creativecommons.org/ns#"
   xmlns:rdf="http://www.w3.org/1999/02/22-rdf-syntax-ns#"
   xmlns:svg="http://www.w3.org/2000/svg"
   xmlns="http://www.w3.org/2000/svg"
   xmlns:sodipodi="http://sodipodi.sourceforge.net/DTD/sodipodi-0.dtd"
   xmlns:inkscape="http://www.inkscape.org/namespaces/inkscape"
   width="169.12344mm"
   height="208.36397mm"
   viewBox="0 0 599.25631 738.29752"
   id="svg4774"
   version="1.1"
   inkscape:version="0.91 r13725"
   sodipodi:docname="gradka_logo_b_w.svg"
   inkscape:export-filename="/home/jedi/Dropbox/falanster/design/logo/gradka_logo_b_w.png"
   inkscape:export-xdpi="300.36673"
   inkscape:export-ydpi="300.36673">
  <defs
     id="defs4776" />
  <sodipodi:namedview
     id="base"
     pagecolor="#ffffff"
     bordercolor="#666666"
     borderopacity="1.0"
     inkscape:pageopacity="0.0"
     inkscape:pageshadow="2"
     inkscape:zoom="0.7"
     inkscape:cx="424.19698"
     inkscape:cy="846.54723"
     inkscape:document-units="px"
     inkscape:current-layer="layer1"
     showgrid="false"
     fit-margin-top="0"
     fit-margin-left="0"
     fit-margin-right="0"
     fit-margin-bottom="0"
     inkscape:window-width="1855"
     inkscape:window-height="1056"
     inkscape:window-x="65"
     inkscape:window-y="24"
     inkscape:window-maximized="1" />
  <metadata
     id="metadata4779">
    <rdf:RDF>
      <cc:Work
         rdf:about="">
        <dc:format>image/svg+xml</dc:format>
        <dc:type
           rdf:resource="http://purl.org/dc/dcmitype/StillImage" />
        <dc:title></dc:title>
      </cc:Work>
    </rdf:RDF>
  </metadata>
  <g
     inkscape:label="Layer 1"
     inkscape:groupmode="layer"
     id="layer1"
     transform="translate(240.22625,-448.92775)">
    <g
       id="g5364">
      <path
         inkscape:connector-curvature="0"
         id="path5362"
         d="m -96.78459,702.35207 61.61931,-41.41625 51.51778,-55.55839 77.78174,-28.28427 70.71068,-15.15229 56.56854,12.12183 50.50763,21.2132 36.36549,37.37565 29.29443,51.51778 12.12183,29.29442 4.54568,30.30458 1.01016,42.93148 c 0,0 -1.51523,47.98225 -3.53554,52.02286 -2.0203,4.04061 -10.6066,38.38579 -10.6066,38.38579 l -21.71828,40.40611 -23.23351,29.7995 -28.28427,52.52793 -4.04061,15.6574 4.54569,24.2436 36.36549,56.5686 7.57614,24.2436 0.50508,24.2437 c 0,0 -4.04061,27.2741 -14.64721,30.3046 -10.6066,3.0304 -16.66752,-17.6777 -16.66752,-17.6777 l -4.54569,-36.8706 -54.54823,-55.5584 -102.02541,9.5965 -69.70053,14.1421 -102.0254,-19.1929 -86.36805,-64.6497 -59.09392,-90.91377 12.62691,-137.88582 z"
         style="fill:#ffffff;fill-rule:evenodd;stroke:none;stroke-width:1px;stroke-linecap:butt;stroke-linejoin:miter;stroke-opacity:1" />
      <path
         inkscape:connector-curvature="0"
         id="path9175"
         d="m 122.0576,672.13492 c 3.14605,-1.12359 35.28069,-20.44933 35.28069,-20.44933 0,0 14.60667,-11.68532 16.1797,-13.25834 1.57302,-1.57303 9.66286,-11.23591 9.66286,-11.23591 0,0 12.35948,-7.41568 14.60665,-8.08984 2.24719,-0.67415 24.49426,-4.26963 25.39312,-4.26963 0.89888,0 14.83139,7.19097 14.83139,7.19097 l 5.1685,9.88757 11.46061,19.9999 14.15722,-5.61794 15.73025,-2.02247 15.0561,9.66286 6.06739,10.11231 3.14605,9.21344 -1.57302,12.80891 -15.50554,14.38195 0.89887,7.6404 13.25836,15.28082 5.39322,17.75271 c 0,0 -6.74154,16.62911 -7.86513,15.28081 -1.12358,-1.34831 -22.47178,1.79774 -22.47178,1.79774 0,0 -2.24717,4.26963 -2.4719,5.39323 -0.22474,1.12359 -1.3483,12.35948 -1.3483,12.35948 l -2.24718,14.83137 -7.41569,10.11231 -12.13476,7.64041 -13.70779,-2.69662 -31.01107,-27.6403 -39.1009,16.62913 c 0,0 -27.19086,-0.44945 -28.08973,-2.24718 -0.89887,-1.79775 -11.2359,-21.79763 -11.01118,-22.69651 0.22474,-0.89886 23.37066,-28.53916 23.37066,-28.53916 l -7.19097,-24.94368 c 0,0 -25.84256,-14.83138 -26.74142,-16.62912 -0.89888,-1.79775 -5.84266,-12.5842 -5.84266,-12.5842 z"
         style="fill:#cccccc;fill-rule:evenodd;stroke:none;stroke-width:1px;stroke-linecap:butt;stroke-linejoin:miter;stroke-opacity:1" />
      <path
         inkscape:connector-curvature="0"
         id="path9181"
         d="m -56.15937,670.10662 -102.01346,-71.82258 -20.02137,8.26277 -35.59346,0.3178 -15.57217,44.17406 49.25889,11.12297 102.649057,16.84335 z"
         style="fill:#808080;fill-rule:evenodd;stroke:none;stroke-width:1px;stroke-linecap:butt;stroke-linejoin:miter;stroke-opacity:1" />
      <path
         inkscape:connector-curvature="0"
         id="path9177"
         d="m 7.0826463,617.98757 c -0.95339,-2.54239 -14.9365437,-16.52554 -14.9365437,-19.38573 0,-2.86019 -18.1145146,-53.70804 -18.1145146,-53.70804 l -19.067983,-38.13588 -19.067937,-34.6401 -18.432343,-18.43233 -38.135875,16.84334 -10.48738,23.51713 7.30941,17.16115 20.33913,28.60191 14.300939,23.51712 13.347551,32.41551 27.330696,34.0045 18.750186,15.88994 z"
         style="fill:#e6e6e6;fill-rule:evenodd;stroke:none;stroke-width:1px;stroke-linecap:butt;stroke-linejoin:miter;stroke-opacity:1" />
      <path
         inkscape:connector-curvature="0"
         id="path9179"
         d="m -18.97684,650.40307 c -1.588983,-0.31779 -21.928153,-11.44076 -21.928153,-11.44076 l -40.996089,-50.21224 -18.432348,-14.30096 -33.68672,-24.15273 -31.77989,-20.97474 -40.36045,-16.52554 -13.02976,6.35597 -11.75856,16.84335 2.22462,15.88996 8.58055,20.65694 39.08931,19.06794 28.91968,17.47895 31.7799,17.79674 25.106117,24.78833 20.65692,19.38573 z"
         style="fill:#999999;fill-rule:evenodd;stroke:none;stroke-width:1px;stroke-linecap:butt;stroke-linejoin:miter;stroke-opacity:1" />
      <path
         inkscape:connector-curvature="0"
         id="path9141"
         d="m 273.25353,1182.66 c -1.91854,-2.0422 -2.07734,-2.8396 -1.51634,-7.6127 0.34465,-2.9323 1.50633,-6.7981 2.58154,-8.5907 1.61037,-2.6847 1.96407,-4.8084 2.00683,-12.0491 0.0487,-8.2494 -1.84331,-17.924 -3.7884,-19.371 -0.38591,-0.2869 -1.51476,-1.9793 -2.5086,-3.7604 -0.99382,-1.7811 -4.21102,-6.6755 -7.14935,-10.8764 -2.93832,-4.2009 -6.03499,-8.9891 -6.88147,-10.6404 -0.8465,-1.6514 -2.53649,-4.2517 -3.75553,-5.7783 -12.92763,-16.19 -20.90037,-24.469 -26.27513,-27.2846 -2.89935,-1.5189 -8.06057,-2.4618 -23.83251,-4.3543 -2.20422,-0.2645 -5.74333,-0.014 -7.8647,0.5668 -2.12135,0.5762 -7.81249,1.2047 -12.64696,1.3965 -9.24318,0.3668 -14.9895,1.271 -27.48408,4.3248 -5.98242,1.4621 -8.7274,1.69 -12.9536,1.0752 -4.55695,-0.663 -6.13503,-0.4716 -10.50435,1.2735 -2.82797,1.1296 -7.80964,2.3266 -11.07037,2.6603 -3.26073,0.3335 -7.06764,1.1956 -8.45983,1.9155 -1.39216,0.72 -3.11442,1.309 -3.82724,1.309 -0.71282,0 -3.16034,0.9912 -5.43892,2.2028 -11.764337,6.2552 -67.164043,9.5625 -95.1352838,5.6795 -5.85227335,-0.8124 -13.8080755,-1.831 -17.6795762,-2.2635 -3.871519,-0.4326 -7.827007,-1.1944 -8.789944,-1.693 -0.962937,-0.4986 -4.665403,-1.4075 -8.227631,-2.0197 -3.562228,-0.6123 -11.05683,-2.5196 -16.65461,-4.2384 -5.597872,-1.7188 -11.799954,-3.3382 -13.782563,-3.5985 -1.982564,-0.2604 -7.515067,-2.3634 -12.294442,-4.6734 -4.779375,-2.3099 -8.869939,-4.1999 -9.090209,-4.1999 -3.151792,0 -29.686011,-15.7572 -34.919991,-20.7371 -1.14561,-1.09 -3.54021,-3.0743 -5.32133,-4.4095 -4.74671,-3.5585 -29.6882,-28.3648 -32.86009,-32.682 -1.49557,-2.0356 -4.4175,-5.7829 -6.49329,-8.3273 -2.07575,-2.5445 -4.45057,-5.6672 -5.27738,-6.93948 -0.82681,-1.27224 -3.18409,-4.60314 -5.23842,-7.40206 -2.05432,-2.79886 -5.48833,-8.00347 -7.63118,-11.5657 -2.14286,-3.56228 -4.60223,-7.30955 -5.46522,-8.32731 -5.98071,-7.05333 -18.48656,-28.61759 -19.76926,-34.08879 -0.33895,-1.44651 -2.4268,-6.44291 -4.63932,-11.10306 -3.24462,-6.83402 -4.57615,-11.3369 -6.88331,-23.27723 -1.73571,-8.98304 -2.85775,-17.71466 -2.85355,-22.20616 0.004,-4.07115 -0.40655,-10.6008 -0.91168,-14.51043 -0.50527,-3.90958 -0.68594,-11.19597 -0.40153,-16.19201 0.73175,-12.8564 4.27086,-34.12164 5.96966,-35.86986 0.46978,-0.48344 0.85413,-1.8069 0.85413,-2.94099 0,-1.13411 0.55392,-2.61592 1.2309,-3.29293 0.67702,-0.677 1.04657,-1.78405 0.82123,-2.4601 -0.48969,-1.46899 2.51894,-8.4695 3.63993,-8.4695 0.43168,0 0.78474,-1.04657 0.78474,-2.3257 0,-1.27913 0.349,-3.04869 0.77547,-3.93235 0.42665,-0.88366 3.13288,-6.30016 6.01415,-12.03666 2.88132,-5.73652 5.23869,-11.2288 5.23869,-12.20506 0,-0.97627 0.4166,-2.03237 0.9253,-2.34688 0.50887,-0.31451 0.92525,-1.30622 0.92525,-2.20377 0,-1.64726 4.38917,-11.56435 7.00998,-15.83875 0.78003,-1.27223 1.99654,-3.56225 2.7033,-5.08891 0.70672,-1.52668 3.07811,-4.72942 5.26976,-7.11722 2.19159,-2.38779 5.02563,-5.78973 6.29791,-7.55985 1.2722,-1.77013 3.36764,-3.84613 4.65645,-4.61334 1.28887,-0.76721 5.03619,-3.55642 8.32736,-6.19825 3.29116,-2.64184 7.02487,-5.26036 8.29711,-5.81897 1.27223,-0.55859 4.14588,-2.48658 6.38594,-4.2844 5.94833,-4.77401 11.95413,-8.8491 17.20812,-11.67612 6.33304,-3.40768 15.26671,-9.5362 15.26671,-10.473 0,-1.13626 -9.69579,-3.57723 -17.11726,-4.30938 -3.56218,-0.35141 -10.64041,-1.83269 -15.72936,-3.29169 -5.0889,-1.45902 -10.91938,-2.65532 -12.95653,-2.65848 -2.03724,-0.003 -6.61498,-0.8382 -10.17278,-1.85564 -8.60961,-2.46214 -25.63733,-4.73006 -42.10132,-5.60751 -15.80601,-0.84239 -23.32693,-1.88817 -25.28889,-3.51646 -0.78359,-0.65029 -1.68637,-2.3739 -2.00622,-3.83024 -0.31976,-1.45636 -1.11853,-3.09351 -1.77477,-3.63815 -0.80525,-0.66832 -1.09801,-2.86971 -0.90054,-6.77203 0.56589,-11.18374 1.41106,-14.15739 7.69167,-27.06276 3.46726,-7.12449 6.82594,-14.61906 7.46377,-16.65464 0.63778,-2.03557 1.52019,-4.09106 1.96086,-4.56773 0.44082,-0.47669 8.19721,-0.92093 17.23681,-0.98716 15.7458,-0.11538 19.67397,-0.59634 19.67397,-2.40879 0,-1.01524 -3.42934,-4.52729 -4.42065,-4.52729 -0.39559,0 -1.43266,-0.83274 -2.3041,-1.85052 -0.87144,-1.01779 -2.21873,-1.85052 -2.99392,-1.85052 -0.77524,0 -2.13249,-0.40062 -3.01617,-0.89022 -0.88364,-0.48962 -6.58552,-3.27514 -12.6708,-6.19001 -11.14929,-5.34054 -16.23097,-9.00418 -16.23097,-11.7018 0,-0.80542 -0.41615,-1.72174 -0.92521,-2.03626 -0.50892,-0.31451 -0.95572,-1.48409 -0.9929,-2.59907 -0.0366,-1.11497 -0.86537,-3.27632 -1.84032,-4.80298 -2.06483,-3.23316 -2.10562,-3.32843 -3.76582,-8.78995 -0.69612,-2.29001 -1.24067,-7.15195 -1.21016,-10.80428 0.0507,-6.04241 0.35813,-7.09607 3.41217,-11.69615 1.84616,-2.78053 5.52935,-6.87047 8.18478,-9.08875 2.65548,-2.21829 6.46136,-5.59434 8.45754,-7.50234 4.07197,-3.89214 3.95869,-3.89199 15.04978,-0.0215 12.56637,4.38539 38.80454,17.40539 51.81447,25.71152 2.54442,1.6245 5.72495,3.53483 7.06781,4.24519 1.34281,0.71034 4.46555,2.49002 6.9394,3.95484 2.47386,1.46481 6.99614,4.12679 10.04945,5.91549 3.05335,1.78872 7.00884,4.58514 8.78995,6.21426 1.78112,1.62915 4.69569,3.83571 6.47681,4.9035 1.78111,1.0678 5.86838,4.67157 9.08285,8.0084 3.214465,3.33682 6.376763,6.06695 7.027339,6.06695 0.650577,0 1.936518,0.83274 2.857567,1.85052 0.921094,1.01779 2.234763,1.85052 2.919188,1.85052 1.445228,0 1.681486,-2.39648 0.319304,-3.2384 -0.508922,-0.31451 -0.925251,-1.59226 -0.925251,-2.83943 0,-1.24719 -0.832748,-2.98062 -1.850547,-3.85206 -1.017754,-0.87145 -1.850502,-2.50828 -1.850502,-3.63737 0,-1.12909 -0.373207,-2.28358 -0.82946,-2.56552 -0.456345,-0.28193 -1.682674,-2.14962 -2.725505,-4.15039 -3.118263,-5.9825 -4.166439,-7.69883 -7.316813,-11.98079 -1.6539,-2.24795 -3.00712,-4.62165 -3.00712,-5.27487 0,-0.65322 -0.97628,-1.95565 -2.16954,-2.89426 -1.19325,-0.93862 -2.90617,-3.25885 -3.80643,-5.15607 -0.90031,-1.89719 -2.00582,-3.44945 -2.45677,-3.44945 -0.45086,0 -0.81982,-0.62456 -0.81982,-1.38788 0,-0.76335 -0.41615,-1.38789 -0.92525,-1.38789 -0.50892,0 -0.92927,-0.52046 -0.93425,-1.15658 -0.004,-0.63611 -1.46218,-2.98472 -3.2384,-5.21913 -1.77614,-2.2344 -3.22941,-4.60782 -3.22941,-5.27425 0,-0.66644 -0.52043,-1.54466 -1.15657,-1.95162 -1.96895,-1.25964 -8.74149,-15.29371 -9.73375,-20.17032 -0.51774,-2.54447 -0.6392,-6.70812 -0.26951,-9.25258 1.3207,-9.09907 4.92966,-14.28356 12.5438,-18.01992 2.03789,-1.00001 4.74622,-2.4375 6.01841,-3.1944 2.90329,-1.72728 20.535363,-10.10905 25.326295,-12.03934 1.970458,-0.79393 5.322877,-1.4435 7.44979,-1.4435 3.34913,0 4.458792,0.57514 8.284959,4.29398 4.427136,4.30295 7.187769,8.01354 11.878022,15.96554 2.91494,4.94196 4.426907,8.16876 4.426907,9.44763 0,0.49705 0.832703,1.79756 1.850548,2.89002 1.017753,1.09247 1.850456,2.71077 1.850456,3.59625 0,0.88548 0.72604,2.33595 1.613377,3.22327 1.762704,1.76274 3.298653,4.20197 4.881607,7.75262 0.562596,1.26186 1.357841,2.51096 1.767273,2.77577 1.646083,1.06466 7.558417,11.30033 7.380767,12.77785 -0.104608,0.87037 0.510521,3.24794 1.367114,5.28349 4.28,10.17179 5.691927,13.10577 7.123999,14.80413 0.858239,1.01778 1.868455,2.86279 2.24495,4.10002 0.376405,1.23723 1.463683,3.52724 2.416068,5.08891 0.952294,1.56169 1.733013,3.75167 1.734932,4.86664 0.0013,1.11497 0.377774,2.25844 0.834804,2.54102 1.314948,0.81269 5.657667,15.14165 5.060536,16.69765 -0.296464,0.7716 -0.151658,1.40291 0.321131,1.40291 0.79383,0 4.89025,8.04735 4.89025,9.60673 0,0.37823 1.301034,3.38532 2.8911824,6.68239 1.5901527,3.29707 2.6720089,6.21384 2.4041498,6.48171 -0.2677313,0.26787 0.8409255,2.85268 2.4640227,5.74405 3.36969074,6.00279 5.5732226,6.8935 9.7304479,3.93328 1.478885,-1.05306 2.9491274,-1.91464 3.267221,-1.91464 0.5460968,0 5.7964432,-3.85947 13.8088842,-10.15069 1.963373,-1.54161 4.20587,-2.80293 4.983337,-2.80293 0.777498,0 5.000233,-1.70629 9.38384,-3.79174 13.358853,-6.35532 15.533876,-7.31134 16.633597,-7.31134 0.582207,0 2.612246,-0.83274 4.511233,-1.85052 1.898941,-1.01779 4.134303,-1.85052 4.96744,-1.85052 0.833169,0 4.794792,-1.08657 8.803676,-2.41462 13.3879,-4.43508 23.529725,-6.38861 49.388044,-9.5132 22.3946,-2.70605 47.82991,-2.72816 52.84168,-0.046 0.89478,0.47889 2.95734,0.87068 4.58348,0.87068 1.62613,0 6.33763,0.86448 10.46998,1.92109 4.13235,1.0566 8.97064,2.26853 10.75175,2.69321 1.78113,0.42468 7.06775,1.85021 11.74807,3.16783 4.68032,1.31764 9.19741,2.39571 10.038,2.39571 0.84059,0 2.84035,0.57714 4.44395,1.28252 2.72991,1.20088 6.71003,2.56676 19.10761,6.55732 2.7989,0.9009 5.2971,1.92703 5.55154,2.28027 0.25444,0.35324 4.41811,2.5446 9.25259,4.8697 4.83445,2.32507 9.70935,5.10811 10.83308,6.18452 1.12373,1.07641 2.27234,1.95711 2.55247,1.95711 1.05242,0 8.54155,5.857 13.4469,10.5164 2.79891,2.65858 7.57254,7.93775 10.60808,11.73149 3.03553,3.79375 5.9501,7.40372 6.4768,8.02218 2.85876,3.35674 3.27079,3.96779 3.27079,4.85066 0,0.53037 0.41638,0.96431 0.92526,0.96431 0.50889,0 0.92526,0.62102 0.92526,1.38004 0,0.75903 0.83273,1.9001 1.85051,2.53571 1.01778,0.63561 1.85052,1.69747 1.85052,2.35968 0,0.6622 0.72864,1.99634 1.6192,2.96475 0.89056,0.9684 2.65398,3.76146 3.9187,6.2068 1.26474,2.44533 2.82611,4.99625 3.46972,5.66872 0.64362,0.67246 1.17022,1.63836 1.17022,2.14643 0,0.50808 1.24909,2.73928 2.77577,4.95823 1.52667,2.21894 2.77577,4.89272 2.77577,5.94173 0,1.04899 0.83273,2.42733 1.85052,3.06294 1.01777,0.63562 1.86209,1.78415 1.87625,2.55231 0.0142,0.76815 1.26325,3.03216 2.77578,5.03117 1.51252,1.999 2.75002,4.57154 2.75002,5.71676 0,1.14523 0.53625,2.63243 1.19167,3.30489 2.26799,2.32696 5.80008,11.31837 9.02183,22.96622 2.77616,10.03691 2.84689,10.35333 3.03312,13.57096 0.0932,1.61177 0.4819,3.24253 0.86356,3.62392 1.01936,1.01862 0.84571,4.08604 -0.23132,4.08604 -0.50889,0 -0.9571,-0.52046 -0.99604,-1.15657 -0.15659,-2.5586 -3.56739,-15.14038 -5.20466,-19.19909 -0.30793,-0.76335 -0.60188,-1.80426 -0.65321,-2.31315 -0.1528,-1.51414 -3.39017,-9.93173 -5.1599,-13.41623 -8.25021,-16.2443 -14.42853,-27.61716 -15.86574,-29.20525 -0.95077,-1.05055 -1.72869,-2.25267 -1.72869,-2.67133 0,-0.41871 -1.87364,-3.60525 -4.16366,-7.08127 -2.29001,-3.47604 -4.16366,-6.51221 -4.16366,-6.74709 0,-0.49903 -5.80517,-8.91682 -11.37449,-16.49357 -6.9232,-9.41865 -17.6447,-20.67711 -22.78192,-23.92289 -2.75593,-1.74126 -6.08685,-4.03773 -7.40205,-5.10328 -2.6666,-2.16041 -23.718,-13.24123 -28.76111,-15.13897 -1.78112,-0.67024 -6.77751,-2.20884 -11.10309,-3.41911 -4.32558,-1.21025 -9.11378,-2.57641 -10.64046,-3.03587 -1.52668,-0.45948 -5.69034,-1.71102 -9.25258,-2.78123 -3.56223,-1.07022 -9.35917,-2.36235 -12.88208,-2.8714 -3.5229,-0.50906 -6.85382,-1.26863 -7.40207,-1.68792 -1.42337,-1.08861 -14.63166,-3.66623 -22.38728,-4.36893 -6.55127,-0.59355 -6.60557,-0.57961 -10.17784,2.61569 -4.68987,4.19493 -6.96996,5.3303 -10.70135,5.32865 -1.68736,-7.4e-4 -8.89705,1.00994 -16.02152,2.24597 -7.12449,1.23605 -15.4518,2.6481 -18.50516,3.1379 -3.05334,0.48981 -7.84155,1.60333 -10.64044,2.47451 -2.7989,0.87116 -8.211669,2.36731 -12.028386,3.32477 -3.816675,0.95746 -8.188519,2.20536 -9.715204,2.77313 -13.341106,4.9615 -17.559127,6.67317 -23.594038,9.57443 -3.816712,1.83484 -7.725136,3.78418 -8.685428,4.33186 -0.960256,0.54769 -3.250283,1.8381 -5.08889,2.86763 -1.838644,1.0295 -4.383881,2.56672 -5.656091,3.41604 -1.272215,0.84932 -3.496001,2.14026 -4.941667,2.86877 -5.536688,2.79005 -18.252798,16.9352 -31.1433656,34.64319 -5.9832885,8.21931 -13.4649854,16.3952 -17.3788824,18.99133 -1.128367,0.74846 -2.054212,1.78938 -2.05741,2.31315 -0.0025,0.52378 -1.148216,1.66927 -2.544429,2.54556 -1.396259,0.87629 -4.828664,3.26486 -7.627531,5.30797 -2.798913,2.04309 -6.546967,4.49242 -8.328949,5.44293 -3.491013,1.86207 -6.899847,4.52686 -11.460642,8.95908 -1.583548,1.53893 -5.24947,3.93418 -8.146458,5.32277 -2.896942,1.3886 -5.523778,2.93994 -5.837464,3.44744 -0.313822,0.50748 -1.364054,0.92269 -2.334254,0.92269 -0.970201,0 -3.041794,1.2491 -4.603552,2.77578 -1.561804,1.52667 -3.575156,2.77577 -4.474232,2.77577 -0.899076,0 -4.272554,1.76955 -7.496658,3.93234 -3.224058,2.16279 -6.529106,4.34872 -7.344497,4.85761 -0.81539,0.50889 -3.706577,2.903 -6.42491,5.32022 -2.718287,2.41724 -5.536112,4.39498 -6.261786,4.39498 -0.725675,0 -2.224536,1.04091 -3.330676,2.31314 -1.10624,1.27224 -2.66484,2.32052 -3.46365,2.32955 -0.79876,0.009 -4.36688,2.08715 -7.92911,4.61806 -3.56227,2.53092 -7.51772,5.11783 -8.78995,5.74873 -2.95925,1.46745 -17.61604,16.19599 -20.18107,20.27989 -1.07394,1.70985 -3.00987,4.31858 -4.30202,5.79718 -1.29216,1.47862 -2.34938,3.00805 -2.34938,3.39873 0,0.39071 -0.99295,1.89043 -2.20662,3.33274 -4.41622,5.24839 -9.21907,14.16309 -12.28257,22.79794 -4.73177,13.3371 -10.5162,34.99693 -10.50053,39.3192 0.004,1.17846 -0.39833,2.90127 -0.89447,3.82845 -1.42106,2.65526 -1.61611,18.91224 -0.37275,31.05786 1.18801,11.60444 4.46346,31.64267 5.81979,35.60373 1.09842,3.20784 2.30753,7.81396 5.6816,21.64425 3.57502,14.65382 9.44519,27.47076 21.65768,47.28744 2.19539,3.56222 6.16225,10.60971 8.81531,15.66106 2.65306,5.05131 5.71774,10.46409 6.81036,12.02835 2.07918,2.9766 11.79118,14.2525 17.14243,19.9027 1.71748,1.8133 3.71767,4.1951 4.4449,5.2927 0.72727,1.0976 4.94305,4.147 9.368402,6.7765 4.425309,2.6295 10.544208,6.3203 13.597605,8.2017 3.053351,1.8815 8.257871,4.6472 11.565706,6.1461 3.30779,1.4989 7.08444,3.443 8.392536,4.3202 2.581521,1.7312 11.618467,4.721 34.631934,11.4578 8.142255,2.3835 16.32897,5.1096 18.1926874,6.058 10.07643368,5.1276 26.2511186,9.0856 32.0300116,7.8378 2.324402,-0.5019 23.848125,-1.4267 41.377779,-1.7779 10.579664,-0.212 30.731906,-2.3728 35.622421,-3.8196 2.290028,-0.6775 5.359798,-1.4977 6.821728,-1.8227 l 2.65806,-0.5908 -5.34309,-5.409 c -6.387148,-6.4659 -6.294938,-6.3115 -9.845029,-16.4986 -2.292809,-6.5794 -2.838636,-9.6956 -2.953257,-16.861 -0.225705,-14.1061 1.316077,-20.8547 7.322667,-32.05278 2.865529,-5.3422 6.420859,-11.09214 7.900789,-12.77769 1.47989,-1.6855 2.69072,-3.53002 2.69072,-4.09897 0,-0.56894 0.40647,-1.03442 0.90325,-1.03442 0.49677,0 3.30724,-3.19962 6.24548,-7.1103 6.92362,-9.21496 18.82456,-20.60905 23.58575,-22.58124 1.41614,-0.58653 2.57479,-1.43235 2.57479,-1.87946 0,-0.44721 0.61006,-0.81302 1.35569,-0.81302 0.74563,0 2.77833,-1.24908 4.51712,-2.7758 1.73878,-1.52663 3.62692,-2.77575 4.19586,-2.77575 0.56893,0 1.03442,-0.41615 1.03442,-0.92525 0,-0.50892 0.44611,-0.92525 0.99135,-0.92525 0.54523,0 1.5717,-0.52044 2.28102,-1.15658 3.17697,-2.84907 4.13387,-3.46972 5.3494,-3.46972 0.71381,0 2.70912,-0.95111 4.43404,-2.11358 5.47823,-3.692 18.6823,-9.69757 23.9545,-10.89521 2.7989,-0.63578 5.71347,-1.47149 6.47679,-1.85708 0.76334,-0.38554 5.13519,-1.58483 9.71521,-2.66498 4.58003,-1.08011 10.60397,-2.57394 13.38657,-3.31962 5.99125,-1.60547 24.24041,-1.81035 34.89119,-0.39148 10.11645,1.34752 18.07427,5.29666 21.00683,10.42485 1.21963,2.13285 2.7097,5.43109 3.31124,7.32946 1.25467,3.9596 0.41888,6.50234 -1.22488,3.72654 -3.20257,-5.40816 -5.30616,-7.99393 -7.67545,-9.43477 -8.03313,-4.88522 -24.47427,-7.7193 -41.02669,-7.07192 -9.37611,0.36635 -27.96386,4.4423 -38.7135,8.48846 -3.25556,1.22537 -6.49848,2.228 -7.20651,2.228 -0.70802,0 -4.65999,1.66546 -8.78214,3.70101 -4.12216,2.03555 -8.03148,3.701 -8.68737,3.701 -0.65591,0 -3.35805,1.45729 -6.0048,3.23845 -2.64674,1.78107 -5.16608,3.23835 -5.59855,3.23835 -0.43245,0 -1.11926,0.52048 -1.52622,1.15658 -0.84,1.31298 -3.42439,3.03663 -6.60639,4.40608 -3.57221,1.53736 -15.17749,11.45456 -20.55717,17.56693 -2.76932,3.14645 -6.07603,6.86618 -7.34826,8.266 -3.62004,3.98317 -5.15792,6.03019 -5.81309,7.73753 -0.3331,0.86806 -1.24324,1.57825 -2.02256,1.57825 -0.77931,0 -1.41692,0.5684 -1.41692,1.2631 0,0.6947 -0.83273,2.32174 -1.85052,3.61563 -1.01778,1.29389 -1.85053,2.99483 -1.85053,3.77989 0,0.78497 -0.56377,1.7602 -1.25281,2.16716 -1.59987,0.94489 -3.694723,4.8907 -2.97733,5.6081 0.30016,0.3001 -0.26851,1.4131 -1.264033,2.4728 -0.995553,1.0598 -1.960824,3.3959 -2.145043,5.1915 -0.184411,1.7956 -0.646484,3.7689 -1.027232,4.385 -0.38079,0.6161 -0.77098,5.1809 -0.867082,10.1439 -0.271614,14.0328 4.071264,27.3947 10.56411,32.502 4.81748,3.7894 11.28351,5.073 21.48992,4.266 11.41142,-0.9022 15.7979,-0.9542 28.36868,-0.3362 6.0152,0.2956 12.71045,0 17.57989,-0.7668 4.32558,-0.6845 14.11019,-1.3088 21.74356,-1.3874 18.62973,-0.1919 26.73045,1.8247 39.78608,9.9042 2.54445,1.5747 6.67533,3.8847 9.1797,5.1334 2.97466,1.4832 8.82942,6.585 16.88595,14.7141 6.7829,6.8442 12.33253,12.8181 12.33253,13.2754 0,0.4574 2.239,4.0177 4.97558,7.9119 5.85915,8.3376 12.05379,20.366 13.17661,25.5855 1.05542,4.9062 0.78709,24.2555 -0.35635,25.6975 -0.49493,0.6243 -1.18482,2.7154 -1.53308,4.6472 -0.53641,2.9755 -0.30739,3.7839 1.49855,5.2895 2.27126,1.8934 8.556,2.4955 9.53381,0.9134 0.95212,-1.5405 2.29745,-1.0357 1.66086,0.6233 -1.4767,3.8482 -8.79699,8.0114 -16.00235,9.1006 -2.29001,0.3467 -5.54065,1.4228 -7.22363,2.3923 -1.68299,0.9694 -3.17179,1.7627 -3.30844,1.7627 -0.13667,0 -1.21278,-1.0265 -2.39141,-2.2811 z M -84.358901,671.9329 c 3.882491,-1.62222 4.005096,-2.59249 0.631025,-4.99504 -1.417683,-1.00949 -3.128998,-2.86567 -3.802871,-4.12483 -0.673873,-1.25915 -2.324433,-2.85566 -3.66784,-3.5478 -3.051936,-1.57231 -5.493676,-4.32912 -6.236617,-7.04127 -0.313823,-1.145 -1.06083,-2.08183 -1.660427,-2.08183 -0.599598,0 -3.573099,-2.55319 -6.607859,-5.67375 -3.03467,-3.12056 -6.9749,-6.74013 -8.75601,-8.04349 -1.78112,-1.30334 -4.27932,-3.28189 -5.55156,-4.39678 -1.27219,-1.11488 -5.85226,-3.82148 -10.17785,-6.01466 -4.32554,-2.19319 -8.40875,-4.73966 -9.07367,-5.65885 -0.66497,-0.91916 -1.73178,-1.67122 -2.37066,-1.67122 -0.63893,0 -2.90782,-0.84363 -5.0419,-1.87473 -4.76814,-2.30372 -9.42093,-3.31826 -9.42093,-2.05421 0,0.51076 -1.2933,1.46435 -2.87397,2.11907 -2.9519,1.22274 -6.44629,0.66627 -20.7201,-3.29957 -4.87777,-1.35524 -29.52151,-1.495 -31.61585,-0.17934 -1.56816,0.9851 -5.59605,8.47068 -6.31199,11.73025 -0.33712,1.53443 -0.99706,3.0274 -1.46684,3.31772 -0.46968,0.29029 -0.85577,1.23192 -0.85791,2.09243 -10e-4,0.86053 -1.04306,3.6129 -2.31316,6.11639 -1.27009,2.50347 -2.30926,5.93849 -2.30926,7.63337 0,3.57511 -0.61801,3.43579 13.87885,3.1288 5.34335,-0.1131 10.82103,0.22109 12.17257,0.74277 1.35154,0.52167 6.75358,1.42124 12.00451,1.99904 9.71849,1.06939 34.13612,5.7559 47.5304,9.12255 4.07111,1.02328 10.10842,2.28505 13.41621,2.80395 10.12153,1.58773 17.94672,4.13284 30.070913,9.78037 3.64267,1.69678 7.187037,1.71928 11.132796,0.0707 z m 16.162269,-8.61936 c 2.289991,-0.89716 5.82915,-2.70077 7.864702,-4.00802 2.035553,-1.30724 5.782876,-3.57088 8.327305,-5.03029 2.544429,-1.45941 6.837037,-4.26699 9.539108,-6.23904 4.007974,-2.92514 4.711357,-3.82829 3.819087,-4.90346 -0.601607,-0.72485 -1.563494,-1.31792 -2.137465,-1.31792 -1.869231,0 -12.231951,-10.84402 -25.099587,-26.2652 -2.035552,-2.43953 -4.778552,-5.57256 -6.095465,-6.96229 -1.316958,-1.38972 -3.176322,-3.85029 -4.131859,-5.46793 -0.955583,-1.61764 -2.063965,-2.94117 -2.463164,-2.94117 -0.399244,0 -0.725766,-0.60335 -0.725766,-1.34079 0,-0.73745 -1.440934,-2.43988 -3.202085,-3.78317 -1.761198,-1.34332 -3.454697,-3.23815 -3.763404,-4.21075 -0.308797,-0.97261 -1.137069,-1.76837 -1.840818,-1.76837 -0.703748,0 -1.612508,-0.53045 -2.019472,-1.17879 -0.40701,-0.64833 -1.903537,-1.9192 -3.325651,-2.82418 -1.422205,-0.90495 -2.940932,-2.57939 -3.374939,-3.72097 -0.957456,-2.51832 -8.581605,-8.9307 -10.618395,-8.9307 -0.80493,0 -1.46628,-0.31226 -1.4698,-0.69395 -0.004,-0.38165 -1.55294,-1.73485 -3.44328,-3.00709 -3.12799,-2.1052 -4.2261,-2.98571 -8.57873,-6.8788 -0.76336,-0.68273 -4.64831,-2.94262 -8.63331,-5.02198 -3.98495,-2.07933 -9.24534,-5.24869 -11.68968,-7.043 -2.44435,-1.79432 -4.84443,-3.2624 -5.33343,-3.2624 -0.4891,0 -1.6814,-0.87535 -2.64968,-1.94523 -0.96824,-1.06989 -3.0105,-2.57588 -4.53837,-3.34664 -1.52791,-0.77077 -3.61065,-2.15595 -4.62844,-3.07816 -1.0178,-0.92224 -5.09147,-2.76221 -9.05257,-4.08884 -3.9612,-1.32663 -8.74939,-3.30195 -10.6405,-4.38962 -6.58301,-3.78618 -13.4993,-7.2082 -14.56868,-7.2082 -0.59201,0 -2.43114,-0.67585 -4.08691,-1.50186 -1.65581,-0.82603 -5.57315,-1.70758 -8.70521,-1.95899 l -5.69458,-0.4571 -6.47246,6.39835 c -8.08201,7.98955 -8.41858,8.44999 -9.72612,13.306 -1.29504,4.80933 -0.65405,9.67123 2.3766,18.02669 4.11518,11.34557 5.53716,12.77194 18.91961,18.9784 2.29004,1.06206 4.49666,2.52579 4.90362,3.25274 0.40701,0.72696 1.65605,1.32329 2.77576,1.3252 1.11971,10e-4 3.28495,0.76414 4.81162,1.69389 3.32794,2.02671 10.60524,6.16537 15.80049,8.9859 2.07465,1.12635 7.48738,4.52251 12.02835,7.54702 4.54092,3.02451 9.92168,6.25837 11.95728,7.18635 2.03555,0.92799 5.47517,2.89846 7.64356,4.37881 2.16844,1.48035 5.48998,3.33809 7.38123,4.12831 1.89124,0.79022 5.18848,2.6407 7.32722,4.11217 2.1387,1.47148 4.29462,2.67541 4.79089,2.67541 0.49632,0 2.7113,1.45222 4.92222,3.22713 2.21096,1.77493 5.2396,4.16902 6.73037,5.32024 1.49073,1.15121 9.04686,8.33859 16.791378,15.97196 21.955332,21.64017 21.727023,21.50122 29.99942,18.26033 z m 41.725418,-29.26567 c 2.8477,-2.23561 6.773816,-6.08673 8.724631,-8.55805 1.950816,-2.47131 5.762238,-6.66104 8.4698592,-9.31052 4.5229586,-4.42589 6.2301621,-7.67376 4.0336514,-7.67376 -1.9598238,0 -4.5086471,-4.08799 -5.0936356,-8.16955 -0.877927,-6.12546 -2.45924,-11.48035 -3.893994,-13.18645 -0.676632,-0.80464 -0.954368,-1.73892 -0.617111,-2.07617 0.337119,-0.33726 -0.0137,-1.34438 -0.782546,-2.23806 -2.041308,-2.37631 -2.657259,-4.67714 -1.393793,-5.20668 0.726223,-0.30436 0.391479,-1.08872 -0.977235,-2.28991 -1.145018,-1.00483 -2.081871,-2.609 -2.081871,-3.56485 0,-0.95583 -0.832704,-3.37123 -1.850503,-5.36755 -1.017799,-1.99633 -1.850502,-4.59915 -1.850502,-5.78405 0,-1.1849 -0.832748,-3.78664 -1.850502,-5.78167 -1.017799,-1.99502 -1.850547,-4.47663 -1.850547,-5.51468 0,-1.03806 -0.416146,-1.88738 -0.925251,-1.88738 -0.508877,0 -0.925252,-0.56003 -0.925252,-1.24448 0,-0.68446 -0.804655,-1.97269 -1.788103,-2.8627 -0.983447,-0.89003 -1.563493,-2.20366 -1.28891,-2.91918 0.274538,-0.71553 0.03654,-1.30096 -0.525047,-1.30096 -0.563328,0 -1.02424,-0.83273 -1.02424,-1.85051 0,-1.01778 -0.425282,-1.85052 -0.945077,-1.85052 -0.519794,0 -1.411059,-1.14501 -1.980553,-2.54446 -0.569494,-1.39945 -1.601454,-3.85647 -2.293325,-5.46006 -0.69178,-1.60359 -1.257803,-3.53904 -1.257803,-4.30101 0,-0.76198 -1.249168,-3.75999 -2.775798,-6.66225 -1.526676,-2.90226 -2.775799,-5.86737 -2.775799,-6.58914 0,-0.72178 -1.017205,-2.92376 -2.260527,-4.89331 -1.243368,-1.96955 -2.073513,-3.76809 -1.844883,-3.99673 0.228857,-0.22868 -0.391479,-1.14626 -1.378033,-2.03911 -0.986599,-0.89285 -1.5814,-2.17685 -1.3218,-2.85334 0.259463,-0.6765 -0.392849,-1.69295 -1.450299,-2.25876 -1.057221,-0.56582 -1.922265,-1.56812 -1.922265,-2.22731 0,-0.65918 -1.026661,-3.22638 -2.281403,-5.70491 -1.254833,-2.47851 -2.090186,-4.69765 -1.856395,-4.93143 0.233883,-0.23374 -0.405182,-1.00643 -1.419647,-1.71705 -1.014555,-0.71062 -1.844609,-1.9019 -1.844609,-2.64729 0,-1.61793 -4.560156,-8.71764 -5.599333,-8.71764 -0.400158,0 -2.114168,-1.47133 -3.809404,-3.26963 -4.523657,-4.79864 -8.630986,-5.75366 -15.804639,-3.67488 -4.840358,1.40266 -11.308753,4.16602 -18.273743,7.80668 -0.76331,0.39902 -2.84514,1.46951 -4.62625,2.37891 -12.65582,6.46173 -18.56217,16.50384 -15.15293,25.76333 2.48007,6.73579 6.21547,14.4827 6.98331,14.4827 0.40838,0 1.37725,1.51869 2.15281,3.37488 0.77556,1.85621 1.9996,3.83394 2.72012,4.39498 0.72055,0.56104 2.27752,2.81296 3.45995,5.00423 3.86604,7.16459 4.26492,7.79159 6.22168,9.77951 2.82517,2.87029 7.628486,9.69893 10.175793,14.46664 1.220618,2.28454 2.769997,4.79782 3.443094,5.58505 1.087233,1.27158 3.970608,6.36569 6.541806,11.55758 0.494441,0.99837 1.593962,3.20215 2.44343,4.89728 0.849376,1.69514 1.544399,3.65218 1.544399,4.34899 0,0.69682 0.5927,1.5999 1.317187,2.00686 0.724395,0.40696 2.653696,3.2381 4.287354,6.29146 8.467497,15.82649 11.073046,21.10375 10.635568,21.54124 -0.396961,0.39705 10.145237,12.43985 17.539936,20.03645 1.022276,1.05018 3.520476,3.99124 5.551552,6.5357 6.729049,8.42984 7.97301,8.66276 15.347427,2.87352 z M 305.27281,1166.8985 c 0.29295,-0.7634 0.69623,-1.3879 0.89623,-1.3879 0.19999,0 0.36366,0.6245 0.36366,1.3879 0,0.7633 -0.40331,1.3878 -0.89622,1.3878 -0.49293,0 -0.65656,-0.6245 -0.36366,-1.3878 z m 4.03565,-7.8101 c 0,-0.4788 0.41158,-1.125 0.91466,-1.4359 0.52449,-0.3244 0.6796,0.048 0.36361,0.8706 -0.6151,1.6029 -1.27829,1.8962 -1.27829,0.5653 z m 1.34735,-6.9173 c 0.26983,-2.2478 0.86792,-5.0793 1.32909,-6.2923 0.46117,-1.213 0.66404,-3.2253 0.45082,-4.4717 -0.21324,-1.2465 -0.95876,-7.8873 -1.65679,-14.7573 -1.08933,-10.7216 -1.66065,-13.2119 -4.03318,-17.5799 -1.52025,-2.7989 -3.76922,-6.9626 -4.99772,-9.2526 -1.2285,-2.29 -3.86315,-6.6618 -5.85478,-9.7152 -1.99163,-3.0534 -6.28103,-10.6921 -9.53198,-16.975 -3.25095,-6.283 -8.29857,-14.6103 -11.21694,-18.5052 -5.20523,-6.947 -10.33478,-15.0794 -10.42454,-16.5272 -0.0251,-0.4029 -0.41939,-1.7159 -0.87648,-2.9182 -0.4571,-1.2022 -0.74749,-2.6595 -0.64534,-3.2384 0.10219,-0.5789 -0.2891,-3.3425 -0.86951,-6.1414 -1.76449,-8.5093 -1.60199,-12.5714 0.72179,-18.0425 0.43228,-1.0178 2.09751,-5.3555 3.70048,-9.63931 1.60298,-4.28384 3.86097,-9.07203 5.01776,-10.64046 1.15678,-1.56842 3.06701,-4.93354 4.24494,-7.47797 1.17795,-2.54448 2.84375,-5.66722 3.70181,-6.93945 0.85805,-1.27219 3.34418,-5.64406 5.5247,-9.71521 2.18056,-4.07115 4.53252,-8.05939 5.22662,-8.86281 0.6941,-0.80338 1.26199,-1.86987 1.26199,-2.36998 0,-0.5001 0.7944,-1.76193 1.76532,-2.80407 0.97092,-1.04219 2.59303,-3.51481 3.60467,-5.49473 1.87747,-3.67446 6.02472,-10.26629 11.47414,-18.23747 1.6769,-2.45289 5.65119,-7.13382 8.83176,-10.4021 3.18058,-3.26827 5.78287,-6.52549 5.78287,-7.23824 0,-0.71275 0.62454,-1.53558 1.38789,-1.82853 0.76333,-0.29281 1.38788,-0.96202 1.38788,-1.48689 0,-0.52482 0.72864,-1.75718 1.6192,-2.73848 2.97263,-3.27549 3.55436,-4.19275 6.89664,-10.8737 1.82802,-3.654 3.66743,-7.19311 4.08758,-7.86465 0.42016,-0.67159 0.7987,-1.63736 0.84124,-2.14624 0.0425,-0.50892 0.33826,-1.54983 0.65712,-2.31315 1.61145,-3.85741 5.26613,-15.96114 5.0797,-16.82312 -0.11753,-0.54346 0.30674,-1.17896 0.94287,-1.41216 2.18251,-0.80027 1.10189,3.39979 -4.81081,18.69788 -1.3768,3.56223 -2.90611,7.82698 -3.39847,9.47708 -1.08399,3.63303 -6.87782,13.95318 -10.06455,17.92739 -1.27224,1.58661 -3.23837,4.02689 -4.36918,5.42292 -1.13082,1.39603 -1.86295,2.73131 -1.62697,2.96729 0.23599,0.23617 -1.72031,2.68786 -4.34732,5.44863 -5.32543,5.5966 -12.78797,16.5845 -12.78797,18.82917 0,0.80141 -0.52046,1.47086 -1.15658,1.48762 -1.20597,0.032 -6.73133,8.20283 -10.92856,16.16154 -2.43279,4.61296 -6.44473,10.99078 -8.29398,13.18493 -0.53611,0.63614 -0.75843,1.15657 -0.49399,1.15657 0.26444,0 -0.56209,1.86796 -1.83671,4.151 -1.27461,2.28305 -2.23634,4.26077 -2.13717,4.39498 0.0991,0.1343 -0.94656,2.02902 -2.32381,4.21075 -1.37727,2.18168 -2.25636,4.36766 -1.95354,4.85762 0.30281,0.48997 0.15819,0.89081 -0.32136,0.89081 -0.47957,0 -1.1104,0.72865 -1.40186,1.61918 -0.29144,0.89058 -1.65549,3.49289 -3.03122,5.78288 -1.37574,2.29003 -2.56459,4.78828 -2.64191,5.55158 -0.0774,0.7633 -0.5942,2.2206 -1.14864,3.2384 -0.55444,1.0177 -1.51926,4.4497 -2.14405,7.6265 -0.87863,4.4673 -0.88663,6.0763 -0.0356,7.1021 0.60533,0.7293 0.99085,1.8774 0.85671,2.5513 -0.7562,3.7988 4.92725,14.979 14.01011,27.5599 2.29001,3.172 5.23393,7.7465 6.54203,10.1655 1.30812,2.419 3.70221,6.7439 5.32024,9.6109 1.61802,2.867 2.94184,5.7126 2.94184,6.3236 0,0.6111 0.79184,1.9706 1.75965,3.0211 2.86167,3.1065 13.02067,23.423 13.57798,27.154 0.28258,1.8915 0.96057,5.1046 1.5067,7.1402 0.54614,2.0356 1.48355,8.1916 2.08314,13.6801 1.02297,9.364 0.84447,13.1923 -1.31427,28.1878 -0.0187,0.1275 -0.46508,0.2316 -0.99281,0.2316 -0.59172,0 -0.77146,-1.5665 -0.46891,-4.0869 z M 3.3177402,1046.8463 c -2.50831419,-2.7432 -4.8958319,-7.5447 -4.8958319,-9.846 0,-1.013 -0.3680448,-2.0694 -0.8183229,-2.3476 -2.6439979,-1.634 -3.6461149,-30.1169 -1.1702839,-33.2625 0.4494012,-0.571 1.7678119,-3.95266 2.92987789,-7.51489 2.65511191,-8.13914 12.13914761,-28.04764 14.58025661,-30.60618 1.009175,-1.05773 2.959812,-3.70517 4.334688,-5.88315 1.374913,-2.17803 5.758177,-7.14168 9.740589,-11.03043 15.528435,-15.1631 28.023906,-26.57098 30.765746,-28.08779 1.577687,-0.87286 3.110278,-1.92451 3.405723,-2.33709 0.975687,-1.3625 8.188945,-6.7164 9.048891,-6.7164 0.463845,0 3.526671,-2.21187 6.806276,-4.91527 6.685369,-5.51076 14.396536,-10.62131 19.879828,-13.17529 2.014608,-0.93832 3.871153,-1.98699 4.125583,-2.33033 0.25463,-0.34351 3.58536,-2.18086 7.40206,-4.0833 3.81669,-1.90248 7.56399,-4.0077 8.32732,-4.67824 0.76333,-0.67063 1.59607,-1.22263 1.85052,-1.22683 0.25444,-0.004 2.33627,-0.85741 4.62628,-1.89613 2.29002,-1.03868 4.62796,-1.89765 5.19545,-1.90884 0.5675,-0.0137 2.02477,-0.77907 3.2384,-1.70643 3.05702,-2.33594 11.05838,-5.0889 26.26331,-9.03608 13.96234,-3.62467 17.07441,-4.20001 34.61848,-6.39996 11.63769,-1.4593 50.94482,-2.17703 61.14568,-1.11643 13.36463,1.3895 23.94674,3.98998 35.62241,8.75396 2.54446,1.03822 5.9836,2.40008 7.64254,3.0264 1.90888,0.72065 4.37164,3.04938 6.70811,6.34292 4.08278,5.75523 4.34874,6.74558 2.27379,8.46768 -1.20058,0.99642 -2.10435,0.4536 -5.893,-3.53971 -2.46123,-2.59409 -5.67447,-5.01659 -7.14057,-5.38322 -2.36705,-0.59193 -6.61241,-2.32873 -15.61921,-6.38988 -1.52668,-0.68835 -6.31489,-1.98489 -10.64047,-2.88113 -10.1757,-2.10842 -53.51222,-2.85437 -69.39431,-1.19454 -5.85226,0.61161 -12.09775,1.2193 -13.87886,1.3504 -5.17765,0.38097 -30.7268,5.92329 -33.7719,7.32599 -1.52668,0.7032 -5.48216,2.02697 -8.78995,2.94167 -3.3078,0.9147 -7.05509,2.19634 -8.32732,2.84802 -1.27223,0.65167 -2.9377,1.1965 -3.70104,1.21061 -0.76333,0.0137 -4.09425,1.46282 -7.40205,3.21931 -3.3078,1.75644 -8.92874,4.6607 -12.49097,6.45387 -9.90499,4.98599 -14.021669,7.31686 -15.881531,8.99213 -0.9341,0.84148 -3.88431,2.62561 -6.555971,3.96481 -2.671662,1.3392 -4.857603,2.84948 -4.857603,3.35612 0,0.50673 -1.145013,1.42161 -2.544465,2.03318 -1.399447,0.61152 -3.377173,1.82588 -4.394954,2.69846 -2.964366,2.5416 -8.807033,6.84421 -15.035455,11.07227 -3.18057,2.15911 -5.782867,4.4619 -5.782867,5.11727 0,0.65546 -0.348402,1.19166 -0.774337,1.19166 -0.425876,0 -2.873783,1.97772 -5.439736,4.39502 -13.115529,12.35529 -15.07215,14.11073 -15.73565,14.11758 -0.395498,0.004 -2.384548,1.93716 -4.420105,4.29567 -2.035557,2.35851 -4.429675,4.94588 -5.320214,5.74976 -0.89058,0.80378 -1.619242,1.82601 -1.619242,2.27153 0,0.44538 -2.28999,4.05964 -5.088889,8.03125 -2.7989,3.97166 -5.088927,7.86187 -5.088927,8.64492 0,0.78305 -0.416374,1.68103 -0.925265,1.99558 -0.5088671,0.31428 -0.9252597,1.32898 -0.9252597,2.25446 0,0.92538 -0.6226065,2.19931 -1.3836329,2.83093 -0.7609899,0.63153 -1.8857123,2.86844 -2.499402,4.97091 -0.6136532,2.10239 -1.3661557,4.03073 -1.6721714,4.28516 -1.6763786,1.39384 -4.34603501,10.51584 -4.60343797,15.72944 -0.88082253,17.84 -0.11881402,24.1604 3.64256557,30.2176 3.6788675,5.9242 4.8418242,8.6998 4.2697583,10.1906 -0.6763081,1.7624 -1.7880254,1.5229 -3.9609287,-0.8535 z m 176.5883498,-5.0441 c -2.17553,-2.1756 -2.75722,-3.7241 -3.24343,-8.6343 -0.82385,-8.32 -0.60887,-17.549 0.4088,-17.549 0.46774,0 0.85044,-0.9019 0.85044,-2.0042 0,-1.1023 0.72864,-2.7929 1.61921,-3.7568 4.46335,-4.831 7.58341,-7.5346 11.79703,-10.22232 2.54444,-1.62306 4.76507,-3.27084 4.9347,-3.66172 0.16961,-0.39102 0.82007,-0.71069 1.44541,-0.71069 0.62534,0 2.83494,-0.82033 4.91023,-1.823 3.79542,-1.83374 5.28835,-2.26679 19.70579,-5.7155 7.54553,-1.80496 16.2842,-1.93803 20.52041,-0.31245 2.30838,0.88578 6.61556,7.57595 5.96647,9.26749 -0.47736,1.24396 -1.06607,1.08244 -3.88145,-1.06499 -5.91911,-4.51475 -12.07377,-4.61396 -30.93276,-0.49882 -10.15193,2.21521 -12.87189,3.4266 -23.02954,10.2566 -9.08824,6.1109 -11.00035,8.2684 -11.82344,13.3404 -0.80574,4.9652 1.42271,15.4007 4.03656,18.9025 4.00748,5.369 1.32159,8.7927 -3.28441,4.1867 z m -232.267111,-20.1969 c -1.076224,-1.8241 -1.956754,-3.6209 -1.956754,-3.9932 0,-0.3723 -0.832703,-2.3101 -1.850502,-4.3064 -1.017753,-1.9963 -1.850502,-4.2911 -1.850502,-5.0995 0,-0.8084 -0.409751,-1.8797 -0.910908,-2.3807 -0.501019,-0.501 -0.985366,-6.72566 -1.076315,-13.83262 -0.160337,-12.52142 0.323872,-18.84301 1.600266,-20.90884 0.338947,-0.54871 0.820233,-2.5152 1.069052,-4.36995 0.248957,-1.85475 1.832002,-7.43184 3.518101,-12.39352 1.6861,-4.96173 2.882462,-9.02128 2.658675,-9.02128 -0.223832,0 0.264488,-1.56139 1.084812,-3.46968 0.820415,-1.90838 2.708238,-6.92867 4.195035,-11.15618 1.486842,-4.22756 3.943931,-10.01121 5.460146,-12.85256 1.51626,-2.84135 2.756796,-5.65383 2.756796,-6.24991 0,-1.64047 3.687528,-9.04924 5.547943,-11.14664 0.902776,-1.0178 1.925508,-2.78735 2.272769,-3.93233 0.347169,-1.14502 1.019626,-2.08187 1.494197,-2.08187 0.474616,0 0.862898,-0.57781 0.862898,-1.28407 0,-0.70621 1.457287,-3.40253 3.238401,-5.99186 1.781114,-2.58929 3.238401,-4.94419 3.238401,-5.23312 0,-0.28915 1.040914,-1.64791 2.313151,-3.01991 1.272237,-1.37209 2.31315,-3.01936 2.31315,-3.66067 0,-0.6413 0.400615,-1.16603 0.890809,-1.16603 0.489919,0 2.534265,-2.39409 4.543044,-5.32023 2.0087424,-2.92613 5.4660476,-7.19389 7.682854,-9.48388 5.4747636,-5.65547 21.842891,-20.61716 23.704411,-21.66751 0.827733,-0.46706 2.910317,-2.13252 4.627977,-3.70102 1.717655,-1.56851 3.607497,-3.06001 4.199699,-3.31447 0.592202,-0.25444 3.574936,-2.08964 6.628269,-4.07822 9.367715,-6.10101 10.103938,-6.55386 12.490957,-7.68342 5.718321,-2.70591 20.777813,-7.89221 42.519819,-14.64326 5.829086,-1.80999 11.11778,-3.72194 11.75262,-4.24881 1.6815,-1.39551 4.94405,-0.0539 4.94405,2.03309 0,3.51786 -4.5309,6.1426 -15.26674,8.84403 -6.375649,1.60426 -15.189046,4.54586 -16.629198,5.55021 -1.003771,0.70003 -2.929184,1.27278 -4.278634,1.27278 -1.349451,0 -4.223731,0.62455 -6.387256,1.38788 -2.16353,0.76334 -4.945875,1.38789 -6.182943,1.38789 -1.237068,0 -5.48395,1.66546 -9.437547,3.70104 -3.953597,2.03556 -7.707042,3.70102 -8.340986,3.70102 -0.633986,0 -1.681545,0.52046 -2.327951,1.15658 -1.397291,1.37506 -4.325356,3.60239 -13.034048,9.91478 -14.091252,10.21385 -14.664939,10.7088 -23.2977438,20.10009 -11.6855985,12.71223 -13.2499012,14.51317 -13.2499012,15.25437 0,1.00629 -9.058287,14.58722 -11.616831,17.41697 -2.598012,2.87332 -5.092741,7.0415 -8.860575,14.80411 -1.60552,3.30779 -3.484069,7.11934 -4.174479,8.47005 -0.690455,1.35076 -1.255335,3.12032 -1.255335,3.93233 0,0.8121 -0.34991,1.47647 -0.777157,1.47647 -0.427566,0 -1.335184,1.76956 -2.017188,3.93233 -0.682005,2.16282 -1.53467,4.34875 -1.894766,4.85763 -0.35996,0.50887 -1.384337,3.42345 -2.276013,6.4768 -0.891722,3.05335 -2.18753,6.86358 -2.87963,8.46718 -0.692099,1.60355 -1.258305,3.76491 -1.258305,4.80299 0,1.03803 -0.346255,2.1011 -0.768613,2.36239 -0.422542,0.26129 -1.284982,2.88808 -1.916099,5.83747 -0.631162,2.94933 -1.775952,6.74476 -2.544018,8.43428 -0.76802,1.68953 -1.186678,3.61833 -0.930367,4.28626 0.256265,0.66794 -0.161708,3.03289 -0.928632,5.25545 -2.385325,6.91154 -1.507855,28.34859 1.382418,33.77579 2.151215,4.0393 5.705311,12.1609 5.705311,13.0374 0,0.5231 -0.576803,1.4297 -1.281693,2.0147 -1.02328,0.8493 -1.676186,0.3951 -3.238401,-2.2527 z M -120.984,970.51258 c -0.50992,-1.39946 -1.37437,-3.7936 -1.92098,-5.32023 -1.14411,-3.19546 -1.97544,-5.36157 -3.53889,-9.22117 -1.22779,-3.03088 -4.41297,-16.83313 -5.57124,-24.14182 -1.02122,-6.44359 -1.10861,-25.34347 -0.13019,-28.16664 0.44082,-1.27228 1.32331,-4.60318 1.96091,-7.4021 0.63756,-2.79886 1.4847,-5.50528 1.88253,-6.01415 0.39787,-0.50888 1.02725,-2.59075 1.39891,-4.6263 0.58726,-3.21735 2.24161,-6.79122 9.42248,-20.35566 0.80818,-1.52668 1.71447,-3.24005 2.0139,-3.80753 0.29921,-0.56749 2.1059,-3.38604 4.01424,-6.26348 1.90833,-2.87739 3.46972,-5.42968 3.46972,-5.67169 0,-0.67826 11.473479,-15.67505 12.259634,-16.02447 0.381429,-0.16965 0.693973,-0.67602 0.693973,-1.1253 0,-1.54202 7.469249,-9.43205 22.437486,-23.70151 2.417209,-2.30439 4.394976,-4.48912 4.394976,-4.85497 0,-0.36585 1.665452,-1.60122 3.701005,-2.74527 2.035552,-1.14405 3.701049,-2.40949 3.701049,-2.81209 0,-0.40258 2.394096,-2.4166 5.320228,-4.47557 2.926132,-2.05897 6.361141,-4.66398 7.633378,-5.7889 5.854366,-5.17654 9.994219,-8.31555 10.967068,-8.31555 0.583701,0 1.061287,-0.41637 1.061287,-0.92525 0,-0.50889 0.520434,-0.93452 1.156529,-0.94583 0.636188,-0.011 2.197534,-0.86113 3.469726,-1.88848 1.272237,-1.02735 4.484738,-3.29375 7.138845,-5.03645 2.654153,-1.74269 5.618428,-3.91153 6.587212,-4.81963 4.094936,-3.83826 20.0191616,-14.71949 27.147386,-18.55012 4.23643,-2.27662 8.743492,-4.85379 10.015748,-5.72707 2.103337,-1.44378 8.745844,-4.65528 13.416217,-6.48648 2.9141,-1.14258 14.220613,-4.47142 20.818286,-6.12929 3.307807,-0.83119 6.846939,-1.87028 7.86472,-2.30908 1.017776,-0.4388 6.976991,-2.07077 13.242725,-3.62656 6.265692,-1.55581 12.165112,-3.31143 13.109777,-3.90139 1.327076,-0.82878 2.05022,-0.79659 3.180611,0.14156 2.038179,1.69156 1.841732,2.80421 -1.023258,5.79458 -1.639916,1.71173 -3.450937,2.60585 -5.320214,2.62669 -3.902056,0.0434 -16.876227,3.19449 -18.416373,4.4727 -0.692433,0.57466 -3.298782,1.31108 -5.791898,1.63649 -2.493112,0.32542 -4.949305,0.898 -5.458173,1.27237 -0.508908,0.37444 -3.007118,0.9807 -5.551543,1.34733 -2.544465,0.36663 -6.748289,1.66826 -9.341865,2.89249 -2.593576,1.22424 -5.010498,2.22589 -5.371028,2.22589 -1.624486,0 -17.754496,7.78099 -25.5358417,12.31831 -10.01829198,5.84169 -11.3441669,6.69404 -15.6447136,10.05721 -2.3966674,1.87427 -5.4630787,3.68521 -6.8142237,4.02432 -1.351186,0.33913 -2.707859,1.40794 -3.014829,2.37512 -0.306971,0.9672 -1.192845,1.75854 -1.968631,1.75854 -1.609859,0 -4.949077,2.42055 -11.222375,8.13494 -2.397841,2.18418 -5.608789,4.6426 -7.135464,5.46312 -2.723221,1.46362 -5.156967,3.26868 -15.037031,11.15258 -2.710431,2.16278 -5.468597,3.93234 -6.12936,3.93234 -0.660763,0 -2.87593,1.76957 -4.922674,3.93235 -2.046744,2.16278 -5.332059,5.18144 -7.300826,6.70812 -6.539751,5.07139 -10.55983,8.99004 -10.55983,10.29341 0,0.70847 -3.079618,4.30323 -6.843523,7.98834 -3.763997,3.68511 -7.533248,8.07515 -8.376092,9.75565 -0.842935,1.68048 -3.092682,4.59501 -4.99946,6.47675 -1.90683,1.8818 -4.60881,5.39912 -6.00447,7.81633 -1.39558,2.4173 -2.90398,4.39502 -3.35196,4.39502 -0.44813,0 -1.31577,1.56135 -1.92848,3.46973 -0.61271,1.90829 -1.70817,4.15159 -2.43434,4.98507 -1.62585,1.86603 -4.92249,10.3751 -4.92249,12.7057 0,0.94069 -1.48785,4.93053 -3.30629,8.86633 -1.81848,3.93585 -3.08418,7.37821 -2.8127,7.64973 0.27179,0.2718 -0.0959,1.6338 -0.81663,3.02741 -1.93076,3.73366 -2.23654,6.39828 -2.27153,19.79429 -0.032,11.7139 0.57959,15.96663 3.99788,27.86383 0.73106,2.54443 1.83442,5.87538 2.45183,7.40206 1.98366,4.90463 4.38296,15.46464 3.9178,17.24329 -0.64893,2.48152 -1.98626,2.12298 -3.05856,-0.81996 z M 346.31875,856.99179 c 0,-0.79333 0.41637,-1.44244 0.92526,-1.44244 0.5089,0 0.92526,0.39193 0.92526,0.87062 0,0.47886 -0.41638,1.12798 -0.92526,1.44248 -0.50889,0.31428 -0.92526,-0.0772 -0.92526,-0.87066 z m 1.95692,-4.21824 c 0.0429,-0.76336 0.41139,-2.42881 0.81885,-3.70105 l 0.74081,-2.31315 0.078,2.31315 c 0.0429,1.27224 -0.32557,2.93769 -0.81886,3.70105 -0.79727,1.23368 -0.88826,1.23368 -0.81886,0 z m 2.15133,-10.64046 c 0.82437,-6.11722 1.37836,-7.8647 2.49326,-7.8647 0.5417,0 0.64684,0.86302 0.25362,2.08183 -0.36942,1.145 -0.76007,3.46452 -0.86813,5.1545 -0.10812,1.68994 -0.71526,3.5636 -1.34934,4.16365 -0.91598,0.86678 -1.02476,0.14024 -0.52941,-3.53528 z m 2.51465,-11.56574 c 0,-1.27222 0.20999,-1.79268 0.46669,-1.15656 0.25667,0.63611 0.25667,1.67702 0,2.31314 -0.25668,0.63612 -0.46669,0.11566 -0.46669,-1.15658 z m 1.396,-17.27147 c -0.9686,-0.96859 -0.72073,-7.53706 0.30844,-8.17311 0.57026,-0.35242 0.92526,1.22408 0.92526,4.10906 0,4.74469 -0.12877,5.16894 -1.23368,4.06405 z m -113.03563,-2.02693 c -4.85407,-1.60394 -10.64046,-4.73502 -10.64046,-5.75766 0,-0.33022 -1.23733,-2.01 -2.74959,-3.73285 -1.51228,-1.72286 -3.20803,-4.22864 -3.76834,-5.56842 -1.62592,-3.88777 -8.54167,-8.27324 -14.27325,-9.05103 -5.11068,-0.69354 -6.79592,-0.20889 -10.25747,2.94985 -8.38446,7.65099 -15.04195,12.71914 -17.38331,13.23339 -1.53706,0.33762 -4.15647,1.3787 -5.82094,2.31357 -3.79223,2.12996 -12.75184,4.5121 -15.43277,4.10319 -1.11199,-0.16961 -4.10362,-0.58163 -6.64808,-0.9156 -2.54446,-0.33397 -6.98073,-1.81644 -9.85837,-3.29436 -5.78299,-2.97004 -13.73569,-9.72771 -13.73569,-11.67165 0,-0.68507 -0.32547,-1.24559 -0.72327,-1.24559 -0.39778,0 -1.32666,-1.97773 -2.06414,-4.39496 -1.72126,-5.64164 -1.4424,-18.03959 0.53687,-23.8694 1.32653,-3.90718 4.38496,-9.24945 6.06645,-10.59645 0.31761,-0.25444 1.36457,-1.76475 2.32656,-3.35623 0.96199,-1.59146 4.13713,-5.49583 7.05587,-8.67638 3.70458,-4.03686 5.30681,-6.53262 5.30681,-8.26635 0,-3.85781 -0.9401,-4.64248 -19.63925,-16.39227 -1.89599,-1.19135 -4.1713,-3.3119 -5.05626,-4.71231 -0.88496,-1.40041 -3.23297,-4.41984 -5.21781,-6.70985 -5.82175,-6.71682 -8.32618,-13.11755 -8.34614,-21.33066 -0.0247,-10.1835 3.83886,-17.09258 14.20276,-25.39805 3.62963,-2.90874 11.35592,-7.60048 13.64754,-8.28741 1.14502,-0.3432 2.08184,-0.96491 2.08184,-1.38152 0,-1.28175 6.35131,-3.86105 17.21777,-6.99225 5.71194,-1.64591 11.70869,-3.93485 13.3261,-5.08656 4.27923,-3.04709 7.39169,-6.07667 7.39169,-7.1949 0,-0.53674 2.09491,-3.26807 4.65535,-6.0696 3.65549,-3.99969 5.99471,-5.60549 10.8914,-7.47662 3.42983,-1.31061 6.87259,-2.38293 7.65058,-2.38293 0.77799,0 1.81007,-0.39221 2.29352,-0.8716 1.06172,-1.05277 11.46989,-2.81612 16.60837,-2.81376 7.17091,0.004 20.83367,10.33237 22.23174,16.80726 0.93332,4.32249 3.54321,9.15974 6.3612,11.79001 1.32176,1.23372 2.40318,2.7951 2.40318,3.46972 0,2.11303 3.58774,4.92763 6.28118,4.92763 2.60179,0 6.70043,-1.79034 11.70338,-5.1122 4.25897,-2.82788 11.63567,-2.33657 19.21276,1.27965 8.8661,4.23138 15.28114,11.61248 18.34276,21.10504 0.629,1.95019 1.38152,3.95486 1.67227,4.4548 0.66822,1.14898 0.98448,2.67853 1.62959,7.88096 0.37896,3.05641 0.0164,5.27091 -1.36305,8.32731 -2.35278,5.21264 -3.04316,6.00157 -9.64393,11.02065 -4.85328,3.69035 -7.12362,6.23812 -7.12362,7.99413 0,0.34717 2.49932,3.09975 5.55406,6.1168 5.15384,5.09025 9.91711,12.21035 9.40463,14.05795 -0.12069,0.43524 0.26248,1.37205 0.85152,2.08183 0.58905,0.70977 0.83475,1.2905 0.546,1.2905 -0.28879,0 0.54003,2.3941 1.84173,5.32023 l 2.36672,5.32023 -2.15214,6.4768 c -1.18368,3.56225 -2.68797,7.13413 -3.3429,7.93755 -0.65492,0.80341 -1.20385,2.05251 -1.21984,2.77577 -0.0617,2.78481 -4.36686,4.60058 -11.748,4.95478 -6.96179,0.33405 -13.87662,2.39877 -15.27254,4.56025 -0.37389,0.57892 -0.68856,3.34259 -0.6993,6.14149 -0.011,2.7989 -0.45743,7.58711 -0.99263,10.64046 -0.53521,3.05335 -1.17221,6.80065 -1.41556,8.32732 -0.81483,5.11191 -3.2051,9.25371 -6.66261,11.54486 -1.88594,1.24974 -4.85904,3.48593 -6.60689,4.9693 -7.06746,5.99806 -13.26261,7.25849 -21.80405,4.43614 z m 19.80571,-8.20073 c 1.82915,-1.38445 4.74279,-3.88265 6.47476,-5.55154 1.73196,-1.6689 3.50151,-3.03437 3.93233,-3.03437 0.43086,0 0.78333,-0.62455 0.78333,-1.38788 0,-0.76335 0.38687,-1.38789 0.85966,-1.38789 1.32457,0 2.70559,-8.68873 3.08836,-19.43041 0.20907,-5.86655 0.87348,-10.81147 1.67723,-12.48255 1.3971,-2.9047 4.79543,-5.01357 8.99544,-5.58226 17.21319,-2.33065 17.36452,-2.39117 20.50629,-8.20186 2.14001,-3.95793 2.20605,-4.48942 1.07328,-8.63712 -0.66388,-2.4308 -1.32756,-5.25238 -1.47487,-6.27017 -0.58273,-4.02648 -2.48861,-7.09971 -7.01971,-11.31932 -12.06757,-11.23797 -11.6295,-10.64762 -11.2049,-15.09997 0.49252,-5.16459 1.45673,-6.58907 10.49933,-15.51113 6.9868,-6.89365 7.4408,-7.58684 8.05313,-12.29579 0.73725,-5.66984 -0.18341,-8.6538 -4.98692,-16.16289 -2.41167,-3.77006 -4.27063,-5.39304 -8.72884,-7.62084 -11.88668,-5.93985 -21.45769,-6.19184 -28.44394,-0.7489 -2.36518,1.84269 -5.26928,3.35034 -6.45357,3.35034 -2.2952,0 -7.28537,-4.57223 -8.22653,-7.53754 -0.30907,-0.97374 -2.40354,-4.75749 -4.65443,-8.40831 -2.25087,-3.65082 -4.09251,-7.30114 -4.09251,-8.11183 0,-1.98962 -6.08064,-7.73194 -10.64047,-10.04843 -2.03555,-1.03411 -6.47325,-2.35486 -9.8615,-2.935 -11.28852,-1.93282 -27.93573,2.84909 -36.34452,10.43996 -0.98652,0.89056 -2.09845,1.6192 -2.47094,1.6192 -0.37247,0 -0.94611,1.22396 -1.27467,2.7199 -0.85775,3.90531 -8.98007,10.91519 -16.89822,14.5838 -3.68946,1.70941 -6.70811,3.69189 -6.70811,4.40552 0,0.71365 -0.93683,1.58054 -2.08183,1.92645 -1.14501,0.34589 -3.12275,1.60097 -4.39498,2.78905 -1.27223,1.18805 -3.82425,2.79132 -5.67116,3.56281 -1.84691,0.7715 -4.55329,2.40047 -6.01418,3.61995 -1.46089,1.21947 -4.01771,2.91535 -5.68181,3.76865 -3.52153,1.80568 -10.59256,8.44189 -12.11541,11.37038 -3.05414,5.87323 0.66855,11.89483 10.79471,17.46087 3.25804,1.79083 7.39647,4.80189 9.19653,6.69123 6.18567,6.49245 12.26709,14.17342 12.26709,15.49356 0,0.72704 1.44423,3.57957 3.20938,6.33897 1.76517,2.75938 3.39731,6.20248 3.627,7.65134 0.22968,1.44883 0.68073,4.3152 1.00233,6.36966 1.11813,7.14301 -0.77866,11.95521 -7.2098,18.29141 -5.77901,5.6937 -11.13678,12.16559 -13.3512,16.1275 -1.93597,3.46374 -1.37227,6.42531 1.78456,9.37561 3.31587,3.09895 7.97414,4.62031 15.85372,5.17773 4.433,0.3136 6.14104,-0.0269 9.7152,-1.93745 2.38513,-1.27487 6.51668,-2.89034 9.18125,-3.58995 2.66455,-0.69959 6.41185,-2.4906 8.32732,-3.98 4.16692,-3.24008 17.31722,-7.49653 24.02343,-7.77585 6.81332,-0.28377 10.62789,2.90199 15.73955,13.14496 4.19221,8.40054 10.38092,15.22336 14.81002,16.32746 1.41604,0.35297 4.44825,1.60271 6.73826,2.77717 5.62817,2.88645 9.6656,2.7886 13.79153,-0.33424 z m 93.16089,-0.12077 c -0.30948,-0.50082 -0.14737,-3.83965 0.36041,-7.41964 1.33831,-9.43626 -0.0224,-44.70337 -2.40564,-62.34382 -0.73234,-5.42092 0.76399,-5.8654 2.31524,-0.68775 1.49437,4.98777 2.06565,15.09593 2.19593,38.85462 0.10141,18.50688 -0.47874,31.08271 -1.48029,32.08426 -0.23261,0.2326 -0.67613,0.0132 -0.98563,-0.48767 z"
         style="fill:#333333;stroke:#333333;stroke-width:4.56801319" />
    </g>
  </g>
</svg>
