<?xml version="1.0" encoding="UTF-8" standalone="no"?>
<!-- Created with Inkscape (http://www.inkscape.org/) -->

<svg
   xmlns:dc="http://purl.org/dc/elements/1.1/"
   xmlns:cc="http://creativecommons.org/ns#"
   xmlns:rdf="http://www.w3.org/1999/02/22-rdf-syntax-ns#"
   xmlns:svg="http://www.w3.org/2000/svg"
   xmlns="http://www.w3.org/2000/svg"
   xmlns:sodipodi="http://sodipodi.sourceforge.net/DTD/sodipodi-0.dtd"
   xmlns:inkscape="http://www.inkscape.org/namespaces/inkscape"
   width="169.04742mm"
   height="128.04492mm"
   viewBox="0 0 598.98694 453.70248"
   id="svg5404"
   version="1.1"
   inkscape:version="0.91 r13725"
   sodipodi:docname="wiki_logo_b_w.svg"
   inkscape:export-filename="/home/jedi/Dropbox/falanster/design/logo/wiki_logo_b_w.png"
   inkscape:export-xdpi="300.50739"
   inkscape:export-ydpi="300.50739">
  <defs
     id="defs5406" />
  <sodipodi:namedview
     id="base"
     pagecolor="#ffffff"
     bordercolor="#666666"
     borderopacity="1.0"
     inkscape:pageopacity="0.0"
     inkscape:pageshadow="2"
     inkscape:zoom="0.35"
     inkscape:cx="169.33207"
     inkscape:cy="151.90417"
     inkscape:document-units="px"
     inkscape:current-layer="layer1"
     showgrid="false"
     fit-margin-top="0"
     fit-margin-left="0"
     fit-margin-right="0"
     fit-margin-bottom="0"
     inkscape:window-width="1855"
     inkscape:window-height="1056"
     inkscape:window-x="65"
     inkscape:window-y="24"
     inkscape:window-maximized="1" />
  <metadata
     id="metadata5409">
    <rdf:RDF>
      <cc:Work
         rdf:about="">
        <dc:format>image/svg+xml</dc:format>
        <dc:type
           rdf:resource="http://purl.org/dc/dcmitype/StillImage" />
        <dc:title></dc:title>
      </cc:Work>
    </rdf:RDF>
  </metadata>
  <g
     inkscape:label="Layer 1"
     inkscape:groupmode="layer"
     id="layer1"
     transform="translate(278.61779,-230.5639)">
    <g
       transform="matrix(3.2237046,0,0,3.2237046,-878.52418,175.93584)"
       id="g5387">
      <path
         id="path4149-6-3-6-6"
         d="m 359.3734,64.154574 c -1.73526,-5.616543 -1.97742,-14.254984 -0.88048,-19.017886 0.52825,-2.289299 1.32072,-6.515496 5.54683,-15.408042 1.08221,-2.277273 4.31421,-7.307788 4.31421,-7.307788 1.92356,0.630732 2.83933,-1.348779 2.64143,-2.465238 -0.26412,-1.320719 -1.58484,-2.289299 -2.46523,-2.113185 -1.78353,0.491915 -1.81395,1.290132 -1.67295,3.345804 0,0 -2.31344,3.344846 -3.78596,5.987069 -1.47252,2.642223 -2.48232,4.547924 -4.84246,9.949139 -2.36023,5.401215 -3.74012,10.177276 -5.81104,16.640748 l -2.55334,3.521743 5.81104,6.163182 z"
         style="fill:#ffffff;fill-rule:evenodd;stroke:#333333;stroke-width:1.7428335;stroke-linecap:butt;stroke-linejoin:miter;stroke-miterlimit:4;stroke-dasharray:none;stroke-opacity:1"
         inkscape:connector-curvature="0" />
      <path
         id="path4147-3-6-6-3"
         d="m 264.10794,115.78453 c 0,0 6.07508,-8.27636 10.30128,-11.26986 4.22628,-2.99357 17.0809,-11.005727 17.0809,-11.005727 0,0 9.76937,-3.825258 13.29494,-7.571914 3.52549,-3.746744 6.86755,-7.483989 8.27628,-9.244773 1.40874,-1.760959 6.86755,-7.572001 9.86104,-9.6851 2.99367,-2.113098 6.5155,-5.106589 11.7982,-7.395801 5.2827,-2.289211 9.15676,-3.345717 12.50248,-3.169691 3.3458,0.176113 7.21977,1.760959 9.86112,4.75445 2.64136,2.993665 4.93057,5.634929 5.63493,8.100341 0.70437,2.465238 1.23262,5.634842 1.05651,7.923967 -0.17603,2.289211 -0.70437,3.345804 0,5.458902 0.70445,2.113099 1.40882,4.050084 2.28921,5.63493 0.88048,1.584758 1.40873,3.169604 1.40873,3.169604 -0.31336,0.683887 -1.58484,0.440326 -2.1131,-0.79238 -0.52825,-1.232619 -2.99357,-4.84255 -2.99357,-4.84255 0,0 0.35222,0.88048 -2.28913,2.289212 -2.64144,1.408732 -4.11849,0.901307 -4.40231,2.817465 -0.35214,2.377225 -0.25532,2.663398 -0.17611,4.138183 0.0793,1.474699 1.76096,4.666437 0.70436,4.666437 -1.05659,0 -2.99357,-2.465325 -2.99357,-5.28279 l 0,-3.87397 c 0,0 -2.05986,1.1948 -2.90539,1.496746 -2.46542,0.880392 -5.89915,0.880392 -7.13177,1.056592 -1.2327,0.176027 -3.16969,0.79238 -5.81104,2.729365 -2.64135,1.936985 -4.40222,4.226192 -6.33929,7.571912 -1.93699,3.34581 -3.87397,7.92414 -5.63484,13.55907 -1.76105,5.63484 -5.28288,14.96772 -6.5155,17.96138 -1.23262,2.99349 -4.40222,8.10017 -5.98707,9.50881 -1.58484,1.40882 -5.57698,4.08738 -8.98065,5.98716 -3.78595,2.1131 -8.6285,3.87397 -13.38295,4.75445 -4.75445,0.88057 -14.26344,1.05659 -14.26344,1.05659 0,0 -10.7416,0.52825 -15.67208,0.17603 -4.93065,-0.35205 -17.78527,0.35222 -22.01155,0.35222 -4.22611,0 -12.32636,0 -17.60907,-0.52825 -5.2827,-0.52825 -12.67859,-0.52825 -16.0243,-1.58484 -3.34572,-1.0566 -10.03724,-5.45882 -11.97423,-7.74794 -1.93698,-2.28922 -5.81104,-5.98716 -5.81104,-5.98716 0,0 -1.23262,-0.17611 2.46524,-0.88048 3.69803,-0.70437 7.74802,-2.46532 10.7416,-2.1131 2.44842,0.28801 5.81105,-1.76087 5.81105,-1.76087 0,0 5.45881,1.58485 7.74811,2.81747 2.28912,1.23261 9.50881,-0.79247 13.20676,-0.0878 3.69794,0.70436 5.01866,0 8.36429,-0.70437 3.3458,-0.70428 6.42739,-3.78596 10.30145,-5.3708 3.87397,-1.58485 7.3958,-3.43373 8.80454,-5.37081 1.40873,-1.93689 3.52183,-3.43373 4.57833,-7.48381 1.05659,-4.05008 4.93065,-4.22611 4.93065,-4.22611 z"
         style="fill:#ffffff;fill-rule:evenodd;stroke:#333333;stroke-width:1.7428335;stroke-linecap:butt;stroke-linejoin:miter;stroke-miterlimit:4;stroke-dasharray:none;stroke-opacity:1"
         inkscape:connector-curvature="0" />
      <path
         id="path4151-1-9-6-4"
         d="m 354.09069,65.387192 c 0.26404,-0.792466 -0.70445,-8.716607 -0.96858,-10.213352 -0.26412,-1.496745 -0.79246,-7.219775 -0.79246,-9.332786 0,-2.113186 0.35222,-6.867635 0.88048,-8.980734 0.52834,-2.113098 0.88056,-4.314209 2.28921,-8.540493 0.53557,-1.606631 2.28921,-4.930476 2.28921,-4.930476 1.60341,-0.448954 2.77599,-1.249699 2.81746,-2.729452 0,-1.144606 -0.96849,-2.377224 -1.67294,-2.553338 -0.70428,-0.176026 -2.28904,0.176114 -2.81747,1.056506 -0.52816,0.880479 -0.44015,2.905565 -0.44015,2.905565 l -1.93698,3.609843 c -1.77996,4.244584 -3.27618,8.5391 -3.96207,13.823284 -0.26422,2.113011 -0.88048,7.74794 -1.23271,9.773025 -0.35214,2.024999 -1.84888,7.836041 -2.46524,8.892634 -0.61626,1.056505 -2.72936,3.87397 -3.16969,5.634929 -0.44024,1.760872 -0.61626,2.289124 -0.17603,3.87397 0.44024,1.584758 1.76088,2.113098 3.1697,2.465325 4.54321,-0.04183 7.22082,-1.873633 8.18826,-4.75445 z"
         style="fill:#ffffff;fill-rule:evenodd;stroke:#333333;stroke-width:1.7428335;stroke-linecap:butt;stroke-linejoin:miter;stroke-miterlimit:4;stroke-dasharray:none;stroke-opacity:1"
         inkscape:connector-curvature="0" />
      <path
         id="path4427"
         d="m 215.86561,109.84652 c 0.16122,0.027 0.34744,-0.009 0.49872,0.034 0.73033,-0.80528 1.32368,-1.80287 1.80583,-2.82531 0.48216,-1.02243 0.85408,-2.06996 1.1386,-2.9785 0.56912,-1.81716 0.79281,-3.07558 0.87481,-2.45086 0.70454,0.47048 1.31026,0.67727 1.82118,0.68764 0.51082,0.0105 0.92788,-0.17594 1.25266,-0.48852 0.32469,-0.31258 0.55675,-0.75273 0.70288,-1.25092 0.14614,-0.49828 0.20548,-1.054936 0.18038,-1.601576 -0.0253,-0.546639 -0.13297,-1.082474 -0.32163,-1.540316 -0.18867,-0.457842 -0.45854,-0.837083 -0.80336,-1.06888 -0.34482,-0.231709 -0.76598,-0.317021 -1.25946,-0.185524 -0.49349,0.131584 -1.05877,0.479366 -1.69343,1.111405 -0.21306,-0.963874 -0.24922,-1.988138 -0.33532,-2.997151 -0.0863,-1.007184 -0.22195,-1.998856 -0.63143,-2.896764 -0.0444,0.0087 -0.0884,0.03224 -0.1328,0.03573 -0.55823,0.04793 -1.10069,-0.01307 -1.57604,-0.207659 -0.44556,-0.182562 -0.81495,-0.50821 -1.09773,-0.944616 -0.77538,0.174109 -1.74083,0.252101 -2.58872,0.517447 -0.45069,0.140996 -0.86287,0.336193 -1.1846,0.626288 -0.32173,0.290094 -0.55257,0.675173 -0.64162,1.19994 0.28129,-0.721445 0.27606,-1.316013 0.10038,-1.773507 -0.17567,-0.457406 -0.52189,-0.776432 -0.92248,-0.948014 -0.40059,-0.171582 -0.8559,-0.19572 -1.24926,-0.05926 -0.39336,0.136202 -0.72432,0.432745 -0.87822,0.898605 -0.17254,0.522675 -0.23467,0.882309 -0.23144,1.13868 0,0.256283 0.0714,0.408956 0.15825,0.513961 0.1741,0.209925 0.4235,0.23171 0.38124,0.5259 -0.27659,0.436406 -0.67151,0.875426 -1.10461,1.245865 -0.433,0.370439 -0.90313,0.673169 -1.33265,0.837344 -0.42944,0.164262 -0.81809,0.18901 -1.08413,0.0087 -0.26605,-0.182126 -0.40974,-0.57191 -0.35232,-1.240723 -0.0627,0 -0.0873,0.0096 -0.14805,0.0087 -0.009,0.01569 -0.0105,0.04793 -0.0192,0.06274 0.0863,1.085524 0.27902,2.769363 0.62977,4.430283 0.17533,0.83046 0.39135,1.65604 0.65182,2.398052 0.26047,0.7421 0.56607,1.40063 0.92414,1.89943 0.24495,0.009 0.37741,-0.34264 0.68423,-0.72842 0.15346,-0.19293 0.3504,-0.39414 0.62638,-0.56337 0.27589,-0.16923 0.63134,-0.307 1.10112,-0.37105 0.37872,-0.0514 0.71456,-0.0131 1.00588,0.0936 0.29131,0.1071 0.53731,0.28295 0.7387,0.50725 0.40276,0.44852 0.62437,1.09102 0.65182,1.75983 0.0279,0.66881 -0.13856,1.36403 -0.50717,1.92156 -0.1843,0.27877 -0.41915,0.52259 -0.70637,0.71143 -0.28713,0.18874 -0.62672,0.32216 -1.01947,0.3795 0.91769,0.94182 1.85481,1.66371 2.79472,2.22621 0.93982,0.56258 1.88313,0.96692 2.80997,1.27653 0.10187,0.034 0.18605,0.0366 0.28757,0.068 z"
         style="opacity:1;fill:#808080;fill-opacity:1;fill-rule:nonzero;stroke:#333333;stroke-width:1.7428335;stroke-linecap:round;stroke-linejoin:round;stroke-miterlimit:4;stroke-dasharray:none;stroke-opacity:1"
         inkscape:connector-curvature="0" />
      <path
         id="path4425"
         d="m 231.80304,108.04749 c -0.33157,-0.70097 -0.7041,-1.37554 -0.982,-2.08487 -0.53017,-1.35296 -0.95132,-2.67446 -1.22207,-3.78692 -0.27075,-1.11253 -0.39153,-2.01602 -0.31824,-2.532593 0.89285,-0.05316 1.52898,-0.260118 1.95729,-0.56677 0.42821,-0.306564 0.64981,-0.713167 0.71142,-1.167524 0.0619,-0.454444 -0.0366,-0.955334 -0.24339,-1.45178 -0.20713,-0.496533 -0.52415,-0.988274 -0.90209,-1.421194 -0.37784,-0.43292 -0.81556,-0.806845 -1.26625,-1.070535 -0.4507,-0.263691 -0.91386,-0.416363 -1.33946,-0.405122 -0.42568,0.01133 -0.81556,0.185089 -1.1182,0.576965 -0.30264,0.391963 -0.5191,1.000822 -0.60084,1.879036 -0.63701,-1.078117 -1.28604,-2.153532 -1.99642,-3.184418 -0.70759,-1.026878 -1.47687,-2.008528 -2.35212,-2.905303 -0.0253,0.02614 -0.0314,0.06187 -0.0575,0.08714 -0.40756,0.392573 -0.90592,0.722666 -1.44158,0.96675 -0.49305,0.224651 -1.01947,0.354841 -1.53518,0.415317 0.40948,0.897908 0.54551,1.88958 0.63143,2.896764 0.0863,1.009013 0.12226,2.033276 0.33532,2.99715 0.63465,-0.632038 1.19994,-0.979821 1.69343,-1.111405 0.49348,-0.131496 0.91463,-0.04618 1.25945,0.185525 0.34482,0.231797 0.6147,0.611037 0.80336,1.06888 0.18867,0.457842 0.29663,0.993676 0.32164,1.540316 0.0253,0.54664 -0.034,1.103301 -0.18038,1.601581 -0.14614,0.49819 -0.37819,0.93834 -0.70288,1.25092 -0.32478,0.31257 -0.74184,0.49879 -1.25267,0.48851 -0.51091,-0.0105 -1.11663,-0.21716 -1.82117,-0.68763 -0.0819,-0.62472 -0.30569,0.63369 -0.87482,2.45086 -0.28451,0.90854 -0.65643,1.95607 -1.13859,2.9785 -0.48215,1.02243 -1.0755,2.02003 -1.80583,2.82531 -0.15128,-0.0427 -0.3375,-0.009 -0.49872,-0.034 1.74484,0.54708 3.4441,0.81068 4.94599,1.15567 1.54502,0.2155 3.09161,0.18274 4.58862,-0.0714 1.49692,-0.25428 2.9446,-0.73025 4.29234,-1.40412 0.77015,-0.38508 1.415,-0.9698 2.11048,-1.47905 z"
         style="opacity:1;fill:#666666;fill-opacity:1;fill-rule:nonzero;stroke:#333333;stroke-width:1.7428335;stroke-linecap:round;stroke-linejoin:round;stroke-miterlimit:4;stroke-dasharray:none;stroke-opacity:1"
         inkscape:connector-curvature="0" />
      <path
         id="path4423"
         d="m 234.16371,80.730662 c -0.14413,0.07843 -0.28565,0.159557 -0.42717,0.238246 -0.95002,0.52834 -1.8284,1.0579 -2.43047,1.606718 -0.30107,0.274409 -0.53217,0.554744 -0.67055,0.840743 -0.13847,0.285999 -0.18352,0.57801 -0.10893,0.879956 0.72049,0.472482 1.1806,0.948363 1.43819,1.405857 0.2575,0.457494 0.31284,0.896339 0.22291,1.298585 -0.0899,0.402246 -0.32504,0.767195 -0.64677,1.073934 -0.32173,0.306826 -0.73121,0.555702 -1.16927,0.726762 -0.43797,0.171059 -0.90409,0.265259 -1.34285,0.260379 -0.43876,-0.0087 -0.84876,-0.109101 -1.17267,-0.33018 -0.3239,-0.220991 -0.56171,-0.559101 -0.65521,-1.036463 -0.0936,-0.477449 -0.0436,-1.093105 0.20931,-1.867097 0.17751,-0.334712 0.17507,-0.539233 0.0357,-0.641625 -0.13934,-0.102478 -0.41541,-0.103524 -0.78968,-0.02876 -0.74863,0.149186 -1.88627,0.597269 -3.08403,1.123256 -0.38987,0.171233 -0.47135,0.197724 -0.86288,0.377846 0.0715,0.146137 0.25594,0.294713 0.29951,0.439107 0.16539,0.547773 0.13472,1.080557 -0.0392,1.574389 -0.16261,0.461851 -0.469,0.879695 -0.83909,1.254317 0.87525,0.896775 1.64454,1.878426 2.35213,2.905303 0.71037,1.030886 1.35941,2.106302 1.99641,3.184418 0.0819,-0.878213 0.2982,-1.487072 0.60084,-1.879036 0.30265,-0.391876 0.69252,-0.565636 1.11821,-0.576965 0.4256,-0.01133 0.88875,0.141431 1.33945,0.405122 0.4507,0.263691 0.88841,0.637616 1.26626,1.070536 0.37793,0.432919 0.69495,0.92466 0.90209,1.421193 0.20704,0.496446 0.30499,0.997336 0.24338,1.45178 -0.0619,0.454357 -0.28321,0.86096 -0.71142,1.167524 -0.4283,0.306652 -1.06444,0.513613 -1.95729,0.56677 -0.0732,0.516583 0.0471,1.420063 0.31824,2.532603 0.27075,1.11245 0.69191,2.43395 1.22208,3.78691 0.27789,0.70934 0.65042,1.3839 0.982,2.08487 0.52163,-0.38194 1.11245,-0.66245 1.58284,-1.10966 1.09746,-1.04335 2.0453,-2.25924 2.79123,-3.62178 0.51178,-0.65627 0.94096,-1.34356 1.29693,-2.05603 0.35606,-0.71247 0.63901,-1.450473 0.85608,-2.205817 0.43431,-1.510513 0.60616,-3.092919 0.58551,-4.69406 -0.0209,-1.601141 -0.23389,-3.220495 -0.57523,-4.80473 -0.34133,-1.584149 -0.80998,-3.132308 -1.3378,-4.591931 -0.38124,-1.237847 -1.02818,-2.384022 -1.86369,-3.393732 -0.27189,-0.328699 -0.66585,-0.540801 -0.97521,-0.839087 z"
         style="opacity:1;fill:#4d4d4d;fill-opacity:1;fill-rule:nonzero;stroke:#333333;stroke-width:1.7428335;stroke-linecap:round;stroke-linejoin:round;stroke-miterlimit:4;stroke-dasharray:none;stroke-opacity:1"
         inkscape:connector-curvature="0" />
      <path
         id="path4421"
         d="m 220.21764,79.500135 c -0.73303,0.533655 -1.48262,1.056157 -2.06281,1.734293 -0.8065,0.942525 -1.44446,2.016459 -1.8603,3.196357 -0.41576,1.179811 -0.60834,2.465935 -0.52251,3.834582 -0.009,0.82253 0.15747,1.465462 0.44425,1.950405 0.0183,0.0305 0.054,0.03399 0.0732,0.06274 0,0 0,0 0,0 0.28278,0.436405 0.65217,0.762054 1.09773,0.944616 0.47535,0.194674 1.01781,0.255935 1.57604,0.207658 0.0444,0 0.0882,-0.0305 0.1328,-0.03573 0,0 0,0 0,0 0.51571,-0.06013 1.04213,-0.190666 1.53518,-0.415317 0.53566,-0.244084 1.03402,-0.574177 1.44158,-0.96675 0.0262,-0.02527 0.0323,-0.061 0.0575,-0.08714 0,0 0,0 0,0 0.37009,-0.374622 0.67648,-0.792467 0.83908,-1.254318 0.17385,-0.493831 0.20453,-1.026616 0.0392,-1.574388 -0.0436,-0.144394 -0.2277,-0.292971 -0.29951,-0.439107 0,0 0,0 0,0 -0.2006,-0.407997 -0.38813,-0.817215 -0.83743,-1.225386 0,0 0,0 0,0 0.4493,0.408171 0.63683,0.817389 0.83743,1.225386 0.39153,-0.180122 0.47301,-0.206613 0.86288,-0.377846 1.19776,-0.525988 2.3354,-0.97407 3.08403,-1.123257 0.37427,-0.07494 0.65034,-0.0732 0.78968,0.02876 0.13934,0.102392 0.14178,0.306913 -0.0357,0.641624 -0.25245,0.773993 -0.30291,1.389649 -0.20932,1.867098 0.0935,0.477362 0.33132,0.815472 0.65522,1.036463 0.32391,0.221078 0.73391,0.325387 1.17267,0.33018 0.43876,0.0087 0.90488,-0.08932 1.34285,-0.26038 0.43806,-0.171059 0.84754,-0.419935 1.16927,-0.726761 0.32173,-0.306739 0.55692,-0.671688 0.64676,-1.073934 0.0899,-0.402246 0.0349,-0.841092 -0.2229,-1.298585 -0.2576,-0.457494 -0.7177,-0.933375 -1.43819,-1.405857 -0.0749,-0.301946 -0.0296,-0.593958 0.10893,-0.879957 0.13838,-0.285999 0.36948,-0.566333 0.67055,-0.840742 0.60206,-0.548819 1.48045,-1.078379 2.43047,-1.606719 0.14152,-0.07843 0.28304,-0.159556 0.42717,-0.238245 -0.64119,-0.618183 -1.25441,-1.269915 -2.02195,-1.737779 -1.1379,-0.693561 -2.38942,-1.208132 -3.67799,-1.497704 -1.28865,-0.289572 -2.61503,-0.35397 -3.90264,-0.151452 -1.2551,0.322337 -2.45225,0.823924 -3.53847,1.480711 -0.30474,0.184218 -0.51919,0.467515 -0.80502,0.675697 z"
         style="opacity:1;fill:#333333;fill-opacity:1;fill-rule:nonzero;stroke:#333333;stroke-width:1.7428335;stroke-linecap:round;stroke-linejoin:round;stroke-miterlimit:4;stroke-dasharray:none;stroke-opacity:1"
         inkscape:connector-curvature="0" />
      <path
         id="path4419"
         d="m 219.8432,69.189445 c -0.67152,0.840743 -1.47218,1.620138 -2.33514,2.381146 -0.88318,0.778785 -1.82405,1.540404 -2.73337,2.335136 -0.90933,0.794645 -1.78702,1.623013 -2.54619,2.534254 -0.75918,0.911153 -1.40028,1.904655 -1.83303,3.032878 0.54237,-0.06013 0.97337,0.04009 1.30713,0.253583 0.33375,0.213671 0.5706,0.54176 0.72336,0.941217 0.15276,0.399457 0.22186,0.870632 0.22125,1.368386 -6.1e-4,0.49784 -0.0714,1.021561 -0.19746,1.53012 -0.25289,1.017118 -0.73007,1.968618 -1.32072,2.50358 -0.29532,0.267525 -0.61818,0.431962 -0.95656,0.447647 -0.33837,0.01569 -0.69112,-0.117118 -1.045,-0.440849 -0.35379,-0.323645 -0.65992,-0.485902 -0.92588,-0.515618 -0.26587,-0.02963 -0.49261,0.07233 -0.68929,0.275716 -0.39327,0.406342 -0.66698,1.218241 -0.89521,2.190394 -0.22831,0.972152 -0.41035,2.105517 -0.62297,3.155487 -0.20749,1.025134 -0.44965,1.952496 -0.78288,2.592116 0.061,0 0.0845,-0.01046 0.14805,-0.0087 -0.0575,0.668812 0.0863,1.058597 0.35232,1.240723 0.26604,0.182213 0.65469,0.157465 1.08413,-0.0087 0.42952,-0.164175 0.89965,-0.466905 1.33265,-0.837345 0.4331,-0.370439 0.82802,-0.809459 1.10461,-1.245864 0.0427,-0.29419 -0.20714,-0.315976 -0.38124,-0.5259 -0.0872,-0.105006 -0.15503,-0.257678 -0.15825,-0.513962 0,-0.256371 0.0592,-0.616004 0.23144,-1.13868 0.1539,-0.465859 0.48486,-0.762402 0.87822,-0.898605 0.39336,-0.136202 0.84867,-0.112064 1.24926,0.05926 0.40059,0.171582 0.74681,0.490608 0.92248,0.948015 0.17568,0.457493 0.18091,1.052061 -0.10038,1.773507 0.0891,-0.524767 0.31989,-0.909846 0.64162,-1.199941 0.32173,-0.290094 0.73391,-0.485292 1.1846,-0.626287 0.84789,-0.265346 1.81334,-0.343338 2.58872,-0.517447 -0.0192,-0.02876 -0.0549,-0.03311 -0.0732,-0.06274 -0.28678,-0.484944 -0.45157,-1.127875 -0.44425,-1.950405 -0.0863,-1.368647 0.10675,-2.654771 0.52251,-3.834582 0.41584,-1.179899 1.0538,-2.253833 1.8603,-3.196357 0.58019,-0.678136 1.32978,-1.200638 2.06281,-1.734293 0.0375,-1.248741 0.10562,-2.566497 0.28592,-2.901905 0.47204,0.09037 0.86496,0.06971 1.18626,-0.03224 0.32129,-0.101868 0.57077,-0.283123 0.75403,-0.51065 0.36652,-0.454879 0.46996,-1.095894 0.36077,-1.654297 -0.0549,-0.279202 -0.16208,-0.536793 -0.3165,-0.742099 -0.15441,-0.205218 -0.35589,-0.357194 -0.59744,-0.422027 -0.24147,-0.06449 -0.5232,-0.04357 -0.83909,0.09873 -0.31589,0.142128 -0.66576,0.404685 -1.04326,0.820351 0.17141,-1.580227 -0.0174,-3.216312 -0.15999,-4.865991 0,-0.03311 0,-0.0671 -0.009,-0.100474 z"
         style="opacity:1;fill:#999999;fill-opacity:1;fill-rule:nonzero;stroke:#333333;stroke-width:1.7428335;stroke-linecap:round;stroke-linejoin:round;stroke-miterlimit:4;stroke-dasharray:none;stroke-opacity:1"
         inkscape:connector-curvature="0" />
      <path
         id="path4417"
         d="m 219.8432,69.189445 c 0,0.03311 0,0.0671 0.009,0.100474 0.14283,1.649679 0.3314,3.285764 0.15999,4.865991 0.3775,-0.415665 0.72737,-0.678223 1.04326,-0.820351 0.31589,-0.142128 0.59762,-0.163565 0.83909,-0.09873 0.24156,0.06448 0.44303,0.216809 0.59744,0.422027 0.15442,0.205306 0.26195,0.462897 0.3165,0.742099 0.10919,0.558404 0.009,1.199418 -0.36076,1.654297 -0.18326,0.227527 -0.43275,0.408782 -0.75404,0.51065 -0.32129,0.101782 -0.71421,0.122696 -1.18626,0.03224 -0.1803,0.335408 -0.24801,1.653165 -0.28591,2.901905 0.28582,-0.208182 0.50028,-0.491479 0.80501,-0.675697 1.08622,-0.656787 2.28337,-1.158374 3.53848,-1.480711 1.2876,-0.202517 2.61399,-0.13812 3.90264,0.151452 1.28856,0.289572 2.54009,0.804143 3.67798,1.497704 0.76755,0.467864 1.38076,1.119596 2.02195,1.737779 0.82314,-0.449564 1.67931,-0.896688 2.44067,-1.35819 0.89459,-0.54237 1.65917,-1.100948 2.09514,-1.691768 0.43597,-0.590821 0.73278,-0.782184 0.95307,-0.697831 0.2203,0.08453 0.36495,0.444684 0.49697,0.954811 0.13211,0.510128 0.25254,1.170139 0.42386,1.856902 0.17132,0.686677 0.39379,1.399408 0.73181,2.013409 0.37898,0.745758 0.84754,1.248914 1.36499,1.55391 0.51754,0.304996 1.08378,0.411222 1.65604,0.362509 0.57226,-0.0488 1.15018,-0.251316 1.69351,-0.566769 0.54324,-0.315366 1.0518,-0.742186 1.48237,-1.237325 0.43065,-0.495052 0.78367,-1.058074 1.01781,-1.645844 0.23415,-0.587684 0.34901,-1.200464 0.303,-1.793812 -0.0462,-0.593435 -0.2521,-1.167785 -0.66211,-1.679917 -0.41008,-0.512044 -1.02469,-0.961695 -1.88243,-1.305382 -1.21946,-0.219946 -1.86997,-0.484246 -2.12913,-0.781225 -0.12958,-0.14849 -0.16148,-0.305432 -0.11747,-0.469781 0.0444,-0.164349 0.16374,-0.336105 0.33698,-0.513962 0.69321,-0.711598 2.24468,-1.522103 3.23382,-2.359012 1.01433,-0.638574 2.00374,-1.197501 2.99716,-1.804094 -1.28909,-1.121077 -2.66236,-2.140025 -4.13244,-3.014143 -0.46594,-0.421243 -1.39679,-0.718832 -2.43378,-0.946359 -1.03698,-0.227527 -2.18141,-0.384382 -3.07723,-0.524157 -0.89582,-0.139862 -1.54197,-0.262383 -1.5845,-0.420458 -0.0427,-0.157988 0.51937,-0.352576 2.04234,-0.634827 0.85617,-0.235893 1.54171,-0.550649 2.07641,-0.919084 0.5347,-0.368348 0.91795,-0.789242 1.16761,-1.240723 0.24958,-0.451481 0.36652,-0.93259 0.36757,-1.417795 0,-0.485117 -0.11398,-0.975551 -0.32504,-1.444983 -0.21106,-0.469432 -0.51875,-0.918038 -0.90549,-1.322375 -0.38665,-0.404337 -0.85103,-0.76371 -1.37693,-1.053543 -0.52581,-0.289833 -1.11245,-0.510563 -1.74109,-0.63657 -0.62864,-0.125919 -1.29989,-0.157116 -1.99476,-0.06971 -1.38973,0.174719 -2.63202,0.436667 -3.71537,0.798218 -1.08343,0.361638 -2.00774,0.82314 -2.76404,1.399059 -0.75631,0.57592 -1.34451,1.265733 -1.75303,2.083209 -0.40861,0.817563 -0.63727,1.762702 -0.67744,2.849184 -0.02,0.543241 -0.14727,0.991062 -0.35911,1.366643 -0.21185,0.375668 -0.50943,0.679095 -0.86968,0.931022 -0.72057,0.50394 -1.69455,0.804753 -2.74871,1.077332 -1.05415,0.272579 -2.18786,0.516489 -3.22868,0.908888 -0.52041,0.196243 -1.01677,0.429608 -1.46878,0.72162 -0.45209,0.292012 -0.85965,0.64389 -1.19994,1.075677 -0.0157,0.02004 -0.0383,0.0366 -0.054,0.05577 z"
         style="opacity:1;fill:#b3b3b3;fill-opacity:1;fill-rule:nonzero;stroke:#333333;stroke-width:1.7428335;stroke-linecap:round;stroke-linejoin:round;stroke-miterlimit:4;stroke-dasharray:none;stroke-opacity:1"
         inkscape:connector-curvature="0" />
      <path
         id="path4415"
         d="m 195.55071,96.509753 c 0.63936,-0.37314 1.21493,-0.690074 1.59313,-0.825493 0.45331,-0.162257 0.73931,-0.170797 0.91394,-0.07146 0.17463,0.09934 0.2372,0.306652 0.23824,0.580364 0,0.273712 -0.0584,0.614349 -0.12592,0.975289 -0.13489,0.721795 -0.30159,1.530644 -0.0802,2.078068 0.11085,0.273799 0.31816,0.481022 0.6757,0.580363 0.35754,0.09943 0.86497,0.0908 1.5743,-0.07146 0.54072,-0.236415 0.92762,-0.5137 1.2016,-0.81521 0.27406,-0.301597 0.43553,-0.628553 0.52764,-0.96675 0.18431,-0.676394 0.0904,-1.396184 0.0558,-2.047481 -0.0174,-0.325648 -0.02,-0.634042 0.0357,-0.910543 0.0558,-0.276588 0.16827,-0.521107 0.38124,-0.719964 0.21298,-0.198858 0.52678,-0.351704 0.982,-0.444249 0.41855,-0.0854 0.99464,-0.104483 1.68672,-0.07668 0.33323,-0.63962 0.57539,-1.566982 0.78288,-2.592116 0.21262,-1.049971 0.39466,-2.183335 0.62297,-3.155488 0.22823,-0.972152 0.50194,-1.784051 0.89521,-2.190393 0.19668,-0.203214 0.42342,-0.305518 0.68929,-0.275716 0.26596,0.02963 0.57209,0.191973 0.92588,0.515617 0.35388,0.323732 0.70663,0.456536 1.045,0.44085 0.33838,-0.01568 0.66124,-0.180122 0.95656,-0.447647 0.59065,-0.534962 1.06783,-1.486462 1.32072,-2.50358 0.12644,-0.508559 0.19685,-1.03228 0.19746,-1.530121 6.1e-4,-0.497753 -0.0688,-0.968928 -0.22125,-1.368385 -0.15276,-0.399458 -0.38961,-0.727546 -0.72336,-0.941217 -0.33376,-0.213585 -0.76476,-0.313362 -1.30713,-0.253583 0.43275,-1.128223 1.07385,-2.121725 1.83303,-3.032878 0.75917,-0.911241 1.63686,-1.73961 2.54619,-2.534255 0.90932,-0.794732 1.85019,-1.55635 2.73337,-2.335135 0.86296,-0.761008 1.66362,-1.540403 2.33514,-2.381146 -0.0671,-0.791682 -0.12653,-1.585804 -0.12427,-2.379316 0,-0.827062 0.0671,-1.652294 0.24513,-2.471338 0.57383,0.248354 1.14391,0.274148 1.66449,0.137858 0.52068,-0.136202 0.99054,-0.434314 1.36159,-0.833946 0.37114,-0.399544 0.64407,-0.90148 0.76929,-1.44324 0.12531,-0.54176 0.10291,-1.123953 -0.11398,-1.686714 -0.17315,-0.449041 -0.42604,-0.690511 -0.70977,-0.801617 -0.28373,-0.111192 -0.59666,-0.09167 -0.88841,-0.01568 -0.5835,0.152672 -1.08073,0.529298 -1.08073,0.529298 0.25428,-1.029578 0.59378,-1.872151 0.97694,-2.583576 0.38308,-0.711512 0.80859,-1.290742 1.23559,-1.797297 0.83054,-0.985311 1.64663,-1.690025 2.17009,-2.530855 -1.49936,0.936337 -2.98809,1.889405 -4.3895,2.951227 -1.76593,1.338147 -3.45212,2.766573 -5.05318,4.260094 -1.60096,1.493434 -3.11723,3.051615 -4.5426,4.651536 -1.42538,1.599921 -2.76057,3.240886 -3.99963,4.89832 -1.23907,1.657348 -2.38228,3.331165 -3.42441,4.996965 -1.04213,1.665888 -1.9823,3.324019 -2.81677,4.949386 -0.83455,1.625453 -1.56401,3.219449 -2.18028,4.755408 -1.20683,3.037584 -2.18316,6.055213 -2.9257,9.032409 -0.22831,0.915248 -0.2826,1.794247 -0.46638,2.701043 z"
         style="opacity:1;fill:#f2f2f2;fill-opacity:1;fill-rule:nonzero;stroke:#333333;stroke-width:1.7428335;stroke-linecap:round;stroke-linejoin:round;stroke-miterlimit:4;stroke-dasharray:none;stroke-opacity:1"
         inkscape:connector-curvature="0" />
      <path
         id="path4413"
         d="m 202.31787,131.43282 c 0.43345,-1.73847 0.91482,-3.11941 1.45004,-4.25329 0.5584,-1.18286 1.16892,-2.145 1.82283,-3.11288 -0.53252,-0.2677 -1.01598,-0.60694 -1.44498,-0.99742 -0.42891,-0.39048 -0.8045,-0.83142 -1.11821,-1.30373 -0.62733,-0.94453 -1.0118,-2.01341 -1.108,-3.03976 -0.0479,-0.51309 -0.0235,-1.01529 0.0784,-1.48751 0.10221,-0.47213 0.28216,-0.91342 0.54629,-1.30373 0.26421,-0.3903 0.61234,-0.7299 1.05014,-0.99733 0.4378,-0.26744 0.96483,-0.46307 1.58798,-0.56677 0.62307,-0.1037 1.15106,-0.0671 1.59818,0.0645 0.44704,0.13159 0.81356,0.35885 1.11646,0.63657 0.6059,0.55536 0.9556,1.3134 1.17607,1.91816 0.22046,0.60468 0.31161,1.05477 0.40172,0.9956 0.0901,-0.0593 0.17846,-0.62803 0.39309,-2.06447 0.21472,-1.43645 0.58987,-2.5706 1.06549,-3.455 0.47553,-0.88449 1.05197,-1.51888 1.67137,-1.95389 0.61932,-0.4351 1.28221,-0.67099 1.92827,-0.75909 0.47022,-0.0645 0.90192,0.0209 1.33266,0.0936 -0.10152,-0.0314 -0.1857,-0.034 -0.28757,-0.068 -0.92683,-0.30961 -1.87014,-0.71395 -2.80997,-1.27654 -0.93991,-0.5625 -1.87703,-1.28438 -2.79472,-2.22621 0.39275,-0.0575 0.73234,-0.19075 1.01947,-0.3795 0.28722,-0.18883 0.52207,-0.43266 0.70637,-0.71142 0.36861,-0.55754 0.53471,-1.25275 0.50717,-1.92156 -0.0279,-0.66882 -0.24905,-1.31131 -0.65182,-1.75983 -0.20139,-0.2243 -0.44739,-0.40015 -0.7387,-0.50725 -0.29132,-0.10701 -0.62716,-0.14518 -1.00588,-0.0936 -0.46978,0.0636 -0.82523,0.20182 -1.10112,0.37105 -0.27598,0.16923 -0.47292,0.37044 -0.62637,0.56337 -0.30683,0.38577 -0.43928,0.73713 -0.68424,0.72842 -0.35807,-0.4988 -0.66367,-1.15733 -0.92414,-1.89943 -0.26046,-0.742013 -0.47649,-1.567593 -0.65182,-2.398053 -0.35074,-1.660921 -0.54394,-3.344759 -0.62977,-4.430283 0.009,-0.01481 0.0105,-0.04793 0.0192,-0.06274 -0.69208,-0.02788 -1.26817,-0.0087 -1.68671,0.07668 -0.45523,0.09254 -0.76903,0.245391 -0.982,0.444248 -0.21298,0.198857 -0.32574,0.443377 -0.38125,0.719965 -0.0558,0.2765 -0.0531,0.584894 -0.0357,0.910543 0.034,0.651297 0.1281,1.371087 -0.0558,2.047481 -0.0921,0.338196 -0.25358,0.665152 -0.52764,0.966749 -0.27397,0.30151 -0.66088,0.578795 -1.2016,0.815211 -0.70933,0.162257 -1.21675,0.170884 -1.5743,0.07146 -0.35754,-0.09934 -0.56485,-0.306565 -0.67569,-0.580364 -0.2216,-0.547424 -0.0549,-1.356273 0.0802,-2.078067 0.0671,-0.360941 0.12696,-0.701578 0.12592,-0.97529 0,-0.273712 -0.0636,-0.481022 -0.23825,-0.580363 -0.17463,-0.09934 -0.46063,-0.0908 -0.91394,0.07146 -0.3782,0.135418 -0.95377,0.452352 -1.59312,0.825493 -0.41375,2.042862 -0.86689,4.09548 -1.0518,6.08458 -0.26701,2.8721 -0.29289,5.68041 -0.0732,8.40272 0.21977,2.7223 0.6865,5.35747 1.4042,7.88527 0.71761,2.5279 1.68697,4.94817 2.91375,7.23686 0.61339,1.14434 1.29109,2.25636 2.03389,3.33247 0.47178,0.68363 1.01581,1.32691 1.54032,1.98117 z"
         style="opacity:1;fill:#ececec;fill-opacity:1;fill-rule:nonzero;stroke:#333333;stroke-width:1.7428335;stroke-linecap:round;stroke-linejoin:round;stroke-miterlimit:4;stroke-dasharray:none;stroke-opacity:1"
         inkscape:connector-curvature="0" />
      <path
         id="path4411"
         d="m 252.24726,137.531 c -0.51091,-1.00196 -1.05511,-1.97995 -1.67303,-2.89842 -0.71317,-1.06025 -1.493,-2.06596 -2.33174,-3.02103 -1.67747,-1.91023 -3.58762,-3.61742 -5.65906,-5.14685 0.0148,0.44756 -0.0593,0.88711 -0.20766,1.30713 -0.14884,0.42002 -0.37332,0.81991 -0.65862,1.18626 -0.57069,0.73277 -1.38721,1.33187 -2.34193,1.69351 -0.47745,0.18082 -0.99028,0.30343 -1.52333,0.35231 -0.53295,0.0488 -1.08587,0.0244 -1.6475,-0.0854 -0.56162,-0.1091 -1.13188,-0.30238 -1.69516,-0.5957 -0.56337,-0.29323 -1.11969,-0.68615 -1.65779,-1.18965 -0.53801,-0.50351 -0.9515,-1.07716 -1.25092,-1.69177 -0.29941,-0.61461 -0.48459,-1.26922 -0.56851,-1.9335 -0.0837,-0.6642 -0.0662,-1.33911 0.0427,-1.99128 0.10858,-0.65216 0.30744,-1.28168 0.58542,-1.8603 0.27807,-0.57862 0.63422,-1.1053 1.05868,-1.54877 0.42447,-0.44346 0.91752,-0.80344 1.46538,-1.05014 0.54786,-0.2467 1.15079,-0.38098 1.79904,-0.36931 0.64825,0.0113 1.34067,0.16888 2.06621,0.50037 0.45053,0.22761 0.76014,0.32208 0.95307,0.31145 0.19302,-0.0105 0.26953,-0.12697 0.25698,-0.32164 -0.0253,-0.38935 -0.40817,-1.09311 -0.94287,-1.89438 -1.0694,-1.60245 -2.74252,-3.59555 -3.35121,-4.24981 -0.79499,-0.76728 -1.5655,-1.85803 -2.27047,-3.09588 -0.33524,-0.58882 -0.591,-1.25502 -0.89181,-1.89098 -0.69548,0.50926 -1.34033,1.09398 -2.11048,1.47906 -1.34774,0.67387 -2.79542,1.14983 -4.29234,1.40411 -1.49701,0.25428 -3.0436,0.28705 -4.58862,0.0715 -1.50189,-0.34499 -3.20115,-0.6086 -4.94599,-1.15567 -0.43074,-0.0723 -0.86244,-0.15773 -1.33266,-0.0936 -0.64606,0.0881 -1.30895,0.32399 -1.92827,0.75909 -0.6194,0.43501 -1.19584,1.0694 -1.67137,1.95389 -0.47562,0.8844 -0.85077,2.01855 -1.06549,3.45499 -0.21463,1.43644 -0.30299,2.00531 -0.39309,2.06447 -0.0901,0.0593 -0.18126,-0.39091 -0.40172,-0.99559 -0.22047,-0.60476 -0.57017,-1.36281 -1.17607,-1.91816 -0.3029,-0.27772 -0.66942,-0.50499 -1.11646,-0.63657 -0.44712,-0.13159 -0.97511,-0.16836 -1.59818,-0.0645 -0.62315,0.1037 -1.15018,0.29934 -1.58798,0.56677 -0.4378,0.26744 -0.78593,0.60703 -1.05014,0.99734 -0.26413,0.39031 -0.44408,0.83159 -0.54629,1.30373 -0.10222,0.47222 -0.12636,0.97441 -0.0784,1.4875 0.0962,1.02636 0.48067,2.09524 1.108,3.03977 0.31371,0.47231 0.6893,0.91324 1.11821,1.30372 0.429,0.39049 0.91246,0.72973 1.44498,0.99743 -0.65391,0.96788 -1.26443,1.93001 -1.82283,3.11287 -0.53522,1.13389 -1.01659,2.51482 -1.45004,4.2533 0.30116,0.37567 0.56468,0.77295 0.88327,1.13859 0.8736,1.00248 1.81281,1.96513 2.81851,2.88831 1.00579,0.9231 2.07746,1.80662 3.21675,2.64484 1.13938,0.83822 2.34585,1.63173 3.62013,2.3794 1.27436,0.74768 2.61625,1.44865 4.0269,2.10029 1.84583,0.83848 3.89366,1.42425 6.05739,1.78196 2.16373,0.35772 4.44327,0.48678 6.75348,0.41698 2.31021,-0.0697 4.65197,-0.33899 6.93726,-0.78289 2.28529,-0.44398 4.51481,-1.06156 6.60369,-1.82631 2.08896,-0.76467 4.15569,-1.67913 6.13573,-2.75037 1.01459,-0.54899 1.9165,-1.26006 2.87628,-1.89263 z"
         style="opacity:1;fill:#e6e6e6;fill-opacity:1;fill-rule:nonzero;stroke:#333333;stroke-width:1.7428335;stroke-linecap:round;stroke-linejoin:round;stroke-miterlimit:4;stroke-dasharray:none;stroke-opacity:1"
         inkscape:connector-curvature="0" />
      <path
         id="path4409"
         d="m 265.05474,115.56685 c 0,-0.18953 0,-0.27475 0,-0.46464 -0.0885,-4.3969 -0.22605,-8.80697 -0.30631,-10.8433 -0.0802,-2.03258 -0.26656,-4.05627 -0.61618,-6.048848 -0.34961,-1.992669 -0.86244,-3.953966 -1.59478,-5.861672 -0.25994,0.664804 -0.60363,1.203949 -1.00753,1.628852 -0.4039,0.424816 -0.86924,0.73504 -1.37178,0.939475 -0.50264,0.204347 -1.04222,0.303078 -1.59818,0.306303 -0.55596,0 -1.12761,-0.08862 -1.69177,-0.267177 -0.56415,-0.178553 -1.12055,-0.443725 -1.6475,-0.784623 -0.52703,-0.340899 -1.02418,-0.758482 -1.46886,-1.242466 -0.4446,-0.483985 -0.83691,-1.034721 -1.15393,-1.642359 -0.31702,-0.607727 -0.55884,-1.27253 -0.70297,-1.984565 -0.14405,-0.711947 -0.17603,-1.385378 -0.11573,-2.016807 0.0601,-0.631428 0.21307,-1.219809 0.43911,-1.759913 0.22605,-0.540017 0.5252,-1.032542 0.8783,-1.470516 0.35301,-0.437887 0.76023,-0.822094 1.2016,-1.147133 0.88266,-0.650077 1.90335,-1.062692 2.90696,-1.196455 0.50185,-0.0671 0.99821,-0.06448 1.47226,0.01394 0.47396,0.07843 0.92518,0.231884 1.33265,0.466382 -0.76606,-1.552255 -1.62031,-3.082898 -2.56492,-4.561344 -0.94462,-1.478445 -1.97969,-2.904344 -3.10617,-4.248156 -1.12639,-1.343812 -2.34437,-2.604665 -3.65585,-3.752931 -0.0261,-0.02266 -0.0575,-0.03834 -0.0837,-0.061 -0.99341,0.606594 -1.98282,1.16552 -2.99715,1.804094 -0.98914,0.836909 -2.54062,1.647414 -3.23383,2.359013 -0.17323,0.177856 -0.29297,0.349612 -0.33697,0.513961 -0.0445,0.164349 -0.0122,0.321291 0.11746,0.469781 0.25916,0.296979 0.90967,0.561279 2.12914,0.781225 0.85773,0.343687 1.47234,0.793338 1.88243,1.305382 0.41,0.512132 0.616,1.086483 0.6621,1.679917 0.0462,0.593348 -0.0688,1.206128 -0.30299,1.793812 -0.23415,0.58777 -0.58716,1.150793 -1.01781,1.645844 -0.43057,0.495139 -0.93913,0.921959 -1.48237,1.237325 -0.54333,0.315453 -1.12125,0.518144 -1.69351,0.566769 -0.57226,0.0488 -1.13851,-0.05751 -1.65604,-0.362509 -0.51745,-0.304996 -0.98601,-0.808152 -1.36499,-1.55391 -0.33802,-0.614 -0.5605,-1.326732 -0.73182,-2.013408 -0.17132,-0.686764 -0.29175,-1.346775 -0.42385,-1.856902 -0.13202,-0.510128 -0.27668,-0.870459 -0.49697,-0.954812 -0.2203,-0.08453 -0.5171,0.10701 -0.95307,0.697831 -0.43597,0.59082 -1.20055,1.149398 -2.09515,1.691768 -0.76135,0.461503 -1.61752,0.908626 -2.44066,1.35819 0.30935,0.298286 0.70332,0.510389 0.9752,0.839088 0.83552,1.00971 1.48246,2.155884 1.8637,3.393732 0.52782,1.459623 0.99647,3.007782 1.3378,4.59193 0.34133,1.584236 0.55457,3.20359 0.57522,4.804731 0.0209,1.601141 -0.15119,3.183546 -0.5855,4.69406 -0.21707,0.755344 -0.50002,1.493351 -0.85608,2.205821 -0.35598,0.71247 -0.78515,1.39976 -1.29693,2.05602 -0.74594,1.36255 -1.69378,2.57844 -2.79124,3.62178 -0.47039,0.44721 -1.06121,0.72772 -1.58284,1.10967 0.30081,0.63596 0.55657,1.30215 0.89181,1.89097 0.70497,1.23785 1.47548,2.3286 2.27047,3.09588 0.60869,0.65426 2.28181,2.64737 3.35121,4.24981 0.5347,0.80127 0.91787,1.50503 0.94288,1.89438 0.0122,0.19467 -0.0636,0.31109 -0.25699,0.32164 -0.19293,0.0104 -0.50254,-0.0837 -0.95306,-0.31145 -0.72555,-0.33148 -1.41797,-0.48878 -2.06622,-0.50037 -0.64825,-0.0113 -1.25118,0.12261 -1.79904,0.36931 -0.54786,0.2467 -1.04091,0.60668 -1.46537,1.05015 -0.42447,0.44346 -0.78062,0.97014 -1.05869,1.54876 -0.27798,0.57863 -0.47684,1.20814 -0.58542,1.8603 -0.10857,0.65217 -0.12653,1.32709 -0.0427,1.99128 0.0837,0.66428 0.2691,1.31889 0.56852,1.9335 0.29942,0.61461 0.7129,1.18826 1.25092,1.69177 0.53809,0.5035 1.09441,0.89642 1.65778,1.18966 0.56328,0.29331 1.13354,0.48659 1.69517,0.5957 0.56162,0.10918 1.11454,0.13402 1.6475,0.0854 0.53304,-0.0488 1.04587,-0.17149 1.52332,-0.35231 0.95472,-0.36164 1.77124,-0.96074 2.34193,-1.69351 0.2853,-0.36634 0.50978,-0.76624 0.65862,-1.18626 0.14884,-0.42002 0.2223,-0.85957 0.20766,-1.30713 2.07144,1.52943 3.98159,3.23662 5.65906,5.14685 0.83874,0.95508 1.61857,1.96078 2.33174,3.02103 0.61792,0.91847 1.16212,1.89646 1.67303,2.89842 0.91334,-0.60189 1.88889,-1.12125 2.73686,-1.8007 1.73918,-1.39357 3.32411,-2.95218 4.69066,-4.68386 0.68328,-0.86584 1.31192,-1.77499 1.8773,-2.72823 0.56537,-0.95333 1.06844,-1.9511 1.49944,-2.99384 0.47057,-1.5513 0.79578,-2.81694 1.08753,-4.27874 0.29184,-1.46189 0.55039,-3.11959 0.88676,-5.4515 l 0.0288,-0.027 z"
         style="opacity:1;fill:#cccccc;fill-opacity:1;fill-rule:nonzero;stroke:#333333;stroke-width:1.7428335;stroke-linecap:round;stroke-linejoin:round;stroke-miterlimit:4;stroke-dasharray:none;stroke-opacity:1"
         inkscape:connector-curvature="0" />
      <path
         id="path4407"
         d="m 284.62763,54.891065 c -1.64855,0.0671 -3.66745,0.357194 -5.48217,0.733559 -1.86135,0.386037 -3.4929,0.848324 -4.24642,1.206738 0.75221,-0.206178 1.50328,-0.283559 2.23981,-0.250184 0.73652,0.03311 1.45849,0.177333 2.14961,0.415317 0.69112,0.237897 1.35165,0.569122 1.96748,0.976858 0.61583,0.407823 1.18609,0.89207 1.69691,1.434788 0.51074,0.542805 0.96178,1.144257 1.33771,1.787101 0.37602,0.642844 0.67709,1.327429 0.8885,2.03563 0.21132,0.708113 0.33366,1.439929 0.35057,2.178542 0.0166,0.738525 -0.0715,1.483412 -0.27911,2.217668 -0.0896,0.750116 -0.27938,1.428513 -0.55318,2.033887 -0.27371,0.605373 -0.63143,1.137896 -1.05694,1.598091 -0.42543,0.460282 -0.91725,0.847714 -1.46198,1.16247 -0.54472,0.314755 -1.1419,0.556225 -1.7735,0.725106 -0.63152,0.168793 -1.2985,0.265084 -1.98448,0.287567 -0.68598,0.02266 -1.39061,-0.02876 -2.09855,-0.153108 -0.70794,-0.124177 -1.41814,-0.321117 -2.11554,-0.592302 -0.69748,-0.271185 -1.38276,-0.616179 -2.03728,-1.034807 -0.65461,-0.418629 -1.15803,-0.939997 -1.55226,-1.526722 -0.39422,-0.586725 -0.6777,-1.237673 -0.8918,-1.914764 -0.42822,-1.354095 -0.57679,-2.811626 -0.76589,-4.060889 -0.0945,-0.624632 -0.19895,-1.198024 -0.35406,-1.67983 -0.15502,-0.481894 -0.36111,-0.872201 -0.65696,-1.133539 -0.29576,-0.261338 -0.68136,-0.392661 -1.1982,-0.355712 -0.51675,0.0366 -1.16482,0.242428 -1.98282,0.655218 -3.27182,1.651334 -6.17381,3.209428 -8.95241,4.792792 -1.76436,1.00544 -3.48671,2.081553 -5.21491,3.136751 0.0261,0.02266 0.0575,0.03834 0.0837,0.061 1.31148,1.148265 2.52946,2.409118 3.65585,3.75293 1.12648,1.343812 2.16155,2.769711 3.10617,4.248156 0.94461,1.478446 1.79886,3.009089 2.56493,4.561344 -0.40748,-0.234498 -0.8587,-0.387955 -1.33266,-0.466382 -0.47405,-0.07843 -0.97041,-0.08017 -1.47226,-0.01394 -1.00361,0.133763 -2.0243,0.546378 -2.90696,1.196455 -0.44137,0.325039 -0.84859,0.709246 -1.2016,1.147133 -0.35309,0.437974 -0.65225,0.930499 -0.8783,1.470516 -0.22604,0.540104 -0.37871,1.128485 -0.4391,1.759913 -0.0601,0.631429 -0.0288,1.30486 0.11572,2.016807 0.14413,0.712035 0.38595,1.376839 0.70297,1.984565 0.31702,0.607638 0.70934,1.158374 1.15393,1.642359 0.44469,0.483984 0.94183,0.901567 1.46886,1.242466 0.52695,0.340898 1.08335,0.60607 1.6475,0.784623 0.56416,0.178553 1.13581,0.270488 1.69177,0.267177 0.55597,0 1.09555,-0.101956 1.59818,-0.306303 0.50255,-0.204435 0.96788,-0.514659 1.37178,-0.939475 0.40391,-0.424903 0.74759,-0.964048 1.00754,-1.628852 0.73233,1.907706 1.24516,3.869003 1.59478,5.861672 0.34961,1.992575 0.536,4.016265 0.61617,6.048845 0.0802,2.03633 0.21777,6.4464 0.30631,10.8433 0,0.18989 0,0.27511 0,0.46464 l 3.19975,-3.06181 c 3.14625,-2.61059 6.47672,-4.97892 9.82218,-7.32879 3.34536,-2.34986 6.70555,-4.68133 9.91236,-7.218112 5.27469,-3.777853 10.72644,-7.306132 15.89316,-11.234827 -0.26683,-2.257666 -0.62751,-4.519429 -1.1182,-6.746683 -0.49078,-2.227166 -1.11123,-4.419738 -1.89437,-6.535625 -0.78315,-2.1158 -1.73064,-4.154218 -2.87463,-6.077783 -1.144,-1.923478 -2.48433,-3.731406 -4.05758,-5.381608 -1.02087,-1.119509 -2.1158,-2.162334 -3.34781,-3.167426 -1.23192,-1.005092 -2.60092,-1.972103 -4.17496,-2.942774 -0.52102,-0.321291 -1.21894,-0.656961 -1.78701,-0.980344 z"
         style="opacity:1;fill:#ffffff;fill-opacity:1;fill-rule:nonzero;stroke:#333333;stroke-width:1.7428335;stroke-linecap:round;stroke-linejoin:round;stroke-miterlimit:4;stroke-dasharray:none;stroke-opacity:1"
         inkscape:connector-curvature="0" />
      <path
         id="path4405"
         d="m 254.68967,46.139514 c -1.81194,-0.01481 -3.65559,0.0427 -5.51276,0.173586 -1.85716,0.1308 -3.72931,0.335234 -5.6012,0.614436 -1.87189,0.279202 -3.74352,0.63169 -5.59955,1.061996 -1.85603,0.430306 -3.69629,0.93747 -5.50596,1.521581 -2.06395,0.880479 -4.05871,1.900908 -5.97905,3.034621 -0.39641,0.234063 -0.75195,0.52407 -1.14199,0.767631 -0.52346,0.84083 -1.33955,1.545545 -2.17009,2.530856 -0.427,0.506554 -0.85251,1.085785 -1.23559,1.797297 -0.38316,0.711424 -0.72266,1.553997 -0.97694,2.583576 0,0 0.49723,-0.376626 1.08073,-0.529298 0.29175,-0.07669 0.60468,-0.09586 0.88841,0.01568 0.28373,0.111106 0.53662,0.352575 0.70977,0.801616 0.21689,0.562761 0.23929,1.144955 0.11398,1.686715 -0.12522,0.541759 -0.39815,1.043695 -0.76929,1.44324 -0.37105,0.399632 -0.84091,0.697743 -1.36159,0.833946 -0.52058,0.136289 -1.09066,0.110495 -1.66449,-0.137858 -0.17785,0.819044 -0.24269,1.644276 -0.24513,2.471337 0,0.793512 0.0566,1.587635 0.12427,2.379317 0.0157,-0.02004 0.0392,-0.0366 0.054,-0.05577 0.34029,-0.431787 0.74785,-0.783665 1.19994,-1.075677 0.45201,-0.292012 0.94837,-0.525377 1.46878,-0.72162 1.04082,-0.392399 2.17453,-0.636309 3.22868,-0.908888 1.05416,-0.272579 2.02814,-0.573392 2.74871,-1.077332 0.36025,-0.251927 0.65784,-0.555354 0.86968,-0.931022 0.21184,-0.37558 0.33907,-0.823401 0.35911,-1.366643 0.0401,-1.086482 0.26883,-2.031621 0.67744,-2.849184 0.40852,-0.817476 0.99672,-1.507289 1.75303,-2.083209 0.7563,-0.575919 1.68061,-1.037421 2.76404,-1.399059 1.08335,-0.361551 2.32564,-0.623499 3.71538,-0.798218 0.69486,-0.08732 1.36612,-0.05577 1.99476,0.06971 0.62864,0.126006 1.21527,0.346736 1.74109,0.636569 0.5259,0.289834 0.99027,0.649206 1.37692,1.053543 0.38674,0.404338 0.69443,0.852943 0.90549,1.322375 0.21106,0.469432 0.32617,0.959866 0.32504,1.444983 0,0.485205 -0.11799,0.966314 -0.36756,1.417795 -0.24966,0.451481 -0.63291,0.872376 -1.16762,1.240723 -0.5347,0.368435 -1.22024,0.683191 -2.07641,0.919084 -1.52297,0.282252 -2.08486,0.476839 -2.04234,0.634827 0.0427,0.158075 0.68868,0.280596 1.5845,0.420458 0.89582,0.139776 2.04025,0.296631 3.07723,0.524157 1.03699,0.227527 1.96784,0.525116 2.43378,0.946359 1.47008,0.874118 2.84335,1.893066 4.13244,3.014143 1.72819,-1.055198 3.45055,-2.131311 5.2149,-3.136751 2.7786,-1.583364 5.68059,-3.141458 8.95242,-4.792792 0.81799,-0.41279 1.46607,-0.618358 1.98282,-0.655218 0.51683,-0.0366 0.90244,0.09437 1.19819,0.355712 0.29585,0.261338 0.50194,0.651645 0.65697,1.133539 0.15511,0.481806 0.2595,1.055198 0.35405,1.67983 0.1891,1.249263 0.33768,2.706794 0.76589,4.060889 0.21411,0.677091 0.49758,1.328039 0.89181,1.914764 0.39423,0.586725 0.89764,1.108093 1.55225,1.526722 0.65452,0.418628 1.33981,0.763622 2.03729,1.034807 0.69739,0.271185 1.4076,0.468125 2.11554,0.592302 0.70794,0.12409 1.41256,0.175678 2.09854,0.153108 0.68598,-0.02266 1.35296,-0.118774 1.98448,-0.287568 0.6316,-0.16888 1.22878,-0.41035 1.77351,-0.725105 0.54472,-0.314756 1.03655,-0.702188 1.46197,-1.16247 0.42552,-0.460195 0.78323,-0.992718 1.05694,-1.598091 0.2738,-0.605374 0.4636,-1.283771 0.55318,-2.033887 0.20731,-0.734256 0.29602,-1.479143 0.27911,-2.217668 -0.0166,-0.738613 -0.13925,-1.470429 -0.35057,-2.178542 -0.2114,-0.708201 -0.51248,-1.392786 -0.88849,-2.03563 -0.37593,-0.642844 -0.82698,-1.244296 -1.33771,-1.787101 -0.51083,-0.542718 -1.08108,-1.026965 -1.69691,-1.434788 -0.61583,-0.407736 -1.27637,-0.738961 -1.96749,-0.976858 -0.69112,-0.237984 -1.41309,-0.382029 -2.14961,-0.415317 -0.73652,-0.03311 -1.4876,0.04444 -2.2398,0.250184 0.75351,-0.358414 2.38507,-0.820701 4.24641,-1.206738 1.81473,-0.376365 3.83362,-0.666111 5.48217,-0.733559 -1.148,-0.653388 -2.24242,-1.299805 -3.61167,-1.979336 -2.04687,-1.015984 -4.36301,-2.075627 -7.01386,-3.216835 -1.32543,-0.570516 -2.7434,-1.073934 -4.23622,-1.509642 -1.49291,-0.435708 -3.06094,-0.80301 -4.69066,-1.101122 -1.62981,-0.298199 -3.32054,-0.526336 -5.05666,-0.684236 -1.73612,-0.157901 -3.51695,-0.245479 -5.32889,-0.26038 z"
         style="opacity:1;fill:#f9f9f9;fill-opacity:1;fill-rule:nonzero;stroke:#333333;stroke-width:1.7428335;stroke-linecap:round;stroke-linejoin:round;stroke-miterlimit:4;stroke-dasharray:none;stroke-opacity:1"
         inkscape:connector-curvature="0" />
    </g>
  </g>
</svg>
