<?xml version="1.0" encoding="UTF-8" standalone="no"?>
<!-- Created with Inkscape (http://www.inkscape.org/) -->

<svg
   xmlns:dc="http://purl.org/dc/elements/1.1/"
   xmlns:cc="http://creativecommons.org/ns#"
   xmlns:rdf="http://www.w3.org/1999/02/22-rdf-syntax-ns#"
   xmlns:svg="http://www.w3.org/2000/svg"
   xmlns="http://www.w3.org/2000/svg"
   xmlns:sodipodi="http://sodipodi.sourceforge.net/DTD/sodipodi-0.dtd"
   xmlns:inkscape="http://www.inkscape.org/namespaces/inkscape"
   width="524.40942"
   height="372.04724"
   id="svg2"
   version="1.1"
   inkscape:version="0.48.4 r9939"
   sodipodi:docname="postcard_motto_7.svg"
   inkscape:export-filename="/home/svet/Dropbox/falanster/design/postcards/for_falanster/postcard_motto_7.png"
   inkscape:export-xdpi="90"
   inkscape:export-ydpi="90">
  <defs
     id="defs4" />
  <sodipodi:namedview
     id="base"
     pagecolor="#ffffff"
     bordercolor="#666666"
     borderopacity="1.0"
     inkscape:pageopacity="0.0"
     inkscape:pageshadow="2"
     inkscape:zoom="1.4"
     inkscape:cx="348.90319"
     inkscape:cy="212.97728"
     inkscape:document-units="px"
     inkscape:current-layer="layer1"
     showgrid="false"
     inkscape:window-width="1301"
     inkscape:window-height="744"
     inkscape:window-x="65"
     inkscape:window-y="24"
     inkscape:window-maximized="1"
     showguides="true"
     inkscape:guide-bbox="true">
    <sodipodi:guide
       orientation="0,1"
       position="279.81226,16.162441"
       id="guide2999" />
    <sodipodi:guide
       orientation="1,0"
       position="26.263966,437.39605"
       id="guide3001" />
    <sodipodi:guide
       orientation="1,0"
       position="497.14286,397.14286"
       id="guide3003" />
    <sodipodi:guide
       orientation="0,1"
       position="322.14286,110.71429"
       id="guide3005" />
    <sodipodi:guide
       orientation="0,1"
       position="203.92455,173.11489"
       id="guide3114" />
    <sodipodi:guide
       orientation="0,1"
       position="204.42962,214.53115"
       id="guide3116" />
    <sodipodi:guide
       orientation="1,0"
       position="196.47467,207.83889"
       id="guide3118" />
  </sodipodi:namedview>
  <metadata
     id="metadata7">
    <rdf:RDF>
      <cc:Work
         rdf:about="">
        <dc:format>image/svg+xml</dc:format>
        <dc:type
           rdf:resource="http://purl.org/dc/dcmitype/StillImage" />
        <dc:title></dc:title>
      </cc:Work>
    </rdf:RDF>
  </metadata>
  <g
     inkscape:label="Layer 1"
     inkscape:groupmode="layer"
     id="layer1"
     transform="translate(0,-680.31491)">
    <rect
       style="fill:#1a1a1a;fill-opacity:1;fill-rule:nonzero;stroke:none"
       id="rect2985"
       width="524.40942"
       height="372.04724"
       x="0"
       y="680.31488" />
    <text
       xml:space="preserve"
       style="font-size:19.67246628px;font-style:normal;font-variant:normal;font-weight:normal;font-stretch:normal;line-height:125%;letter-spacing:0px;word-spacing:0px;fill:#666666;fill-opacity:1;stroke:none;font-family:Ubuntu;-inkscape-font-specification:Ubuntu"
       x="392.42786"
       y="752.04974"
       id="text2995-3"
       sodipodi:linespacing="125%"
       inkscape:export-xdpi="90"
       inkscape:export-ydpi="90"><tspan
         sodipodi:role="line"
         id="tspan2997-6"
         x="392.42786"
         y="752.04974"
         style="font-size:19.80674744px;fill:#666666">falanster.by</tspan></text>
    <text
       xml:space="preserve"
       style="font-size:61.42345047000001301px;font-style:normal;font-variant:normal;font-weight:normal;font-stretch:normal;line-height:125%;letter-spacing:0px;word-spacing:0px;fill:#55ddff;fill-opacity:1;stroke:none;font-family:Ubuntu Mono;-inkscape-font-specification:Ubuntu Mono"
       x="26.263966"
       y="729.38226"
       id="text3044"
       sodipodi:linespacing="125%"><tspan
         sodipodi:role="line"
         id="tspan3046"
         x="26.263966"
         y="729.38226"
         style="font-size:42.99641418000000215px;fill:#55ddff">Уступайце ў рады Фур'е</tspan></text>
    <text
       xml:space="preserve"
       style="font-size:34px;font-style:normal;font-variant:normal;font-weight:normal;font-stretch:normal;line-height:125%;letter-spacing:0px;word-spacing:0px;fill:#f9f9f9;fill-opacity:1;stroke:none;font-family:Ubuntu Mono;-inkscape-font-specification:Ubuntu Mono"
       x="26.263966"
       y="866.75073"
       id="text3041"
       sodipodi:linespacing="125%"><tspan
         sodipodi:role="line"
         id="tspan3043"
         x="26.263966"
         y="866.75073"><tspan
   style="font-size:34px;font-style:italic;fill:#f9f9f9;-inkscape-font-specification:Ubuntu Mono Italic"
   id="tspan3049">f<tspan
   style="fill:#f9f9f9"
   id="tspan3175">(x)</tspan></tspan>=  +  (<tspan
   style="font-size:34px;font-style:italic;fill:#f9f9f9;-inkscape-font-specification:Ubuntu Mono Italic"
   id="tspan3051">a</tspan> cos<tspan
   style="font-size:34px;font-style:italic;fill:#f9f9f9;-inkscape-font-specification:Ubuntu Mono Italic"
   id="tspan3047"><tspan
   style="fill:#cccccc"
   id="tspan3179">n</tspan>x</tspan> +<tspan
   style="font-size:34px;font-style:italic;fill:#f9f9f9;-inkscape-font-specification:Ubuntu Mono Italic"
   id="tspan3053">b</tspan> sin<tspan
   style="font-size:34px;font-style:italic;fill:#f9f9f9;-inkscape-font-specification:Ubuntu Mono Italic"
   id="tspan3045"><tspan
   style="fill:#cccccc"
   id="tspan3181">n</tspan>x</tspan>)</tspan></text>
    <text
       xml:space="preserve"
       style="font-size:40px;font-style:normal;font-variant:normal;font-weight:normal;font-stretch:normal;line-height:125%;letter-spacing:0px;word-spacing:0px;fill:#f9f9f9;fill-opacity:1;stroke:none;font-family:Ubuntu Mono;-inkscape-font-specification:Ubuntu Mono"
       x="114.57143"
       y="848.76025"
       id="text3055"
       sodipodi:linespacing="125%"><tspan
         sodipodi:role="line"
         id="tspan3057"
         x="114.57143"
         y="848.76025"
         style="font-size:34px;font-style:italic;fill:#f9f9f9;-inkscape-font-specification:Ubuntu Mono Italic">a</tspan></text>
    <text
       xml:space="preserve"
       style="font-size:36px;font-style:normal;font-variant:normal;font-weight:normal;font-stretch:normal;line-height:125%;letter-spacing:0px;word-spacing:0px;fill:#f9f9f9;fill-opacity:1;stroke:none;font-family:Ubuntu Mono;-inkscape-font-specification:Ubuntu Mono"
       x="117.1777"
       y="853.36212"
       id="text3059"
       sodipodi:linespacing="125%"><tspan
         sodipodi:role="line"
         id="tspan3061"
         x="117.1777"
         y="853.36212">_</tspan></text>
    <text
       xml:space="preserve"
       style="font-size:40px;font-style:normal;font-variant:normal;font-weight:normal;font-stretch:normal;line-height:125%;letter-spacing:0px;word-spacing:0px;fill:#f9f9f9;fill-opacity:1;stroke:none;font-family:Ubuntu Mono;-inkscape-font-specification:Ubuntu Mono"
       x="117.68277"
       y="887.20221"
       id="text3063"
       sodipodi:linespacing="125%"><tspan
         sodipodi:role="line"
         id="tspan3065"
         x="117.68277"
         y="887.20221"
         style="font-size:34px;fill:#f9f9f9">2</tspan></text>
    <g
       style="font-size:79.98180388999998058px;font-style:normal;font-variant:normal;font-weight:normal;font-stretch:normal;line-height:125%;letter-spacing:0px;word-spacing:0px;fill:#f9f9f9;fill-opacity:1;stroke:none;font-family:Ubuntu Mono;-inkscape-font-specification:Ubuntu Mono"
       id="text3067">
      <path
         d="m 184.77682,857.91255 c -2.61277,3.41258 -5.33214,6.82513 -8.15815,10.23767 -2.82604,3.41257 -5.03992,7.89778 -7.2794,11.09704 l 27.1354,0 0.0599,4.41943 -32.5526,0 0.003,-4.31493 c 1.81292,-2.93266 4.12919,-7.04248 6.95522,-10.56169 2.82601,-3.51918 5.67869,-7.11836 8.55805,-10.79754 -2.77272,-3.67914 -5.49209,-7.22499 -8.15814,-10.63758 -2.61275,-3.46584 -4.71894,-7.09298 -6.31857,-9.49248 l 0.0201,-3.70452 31.43284,0 -1e-5,3.67305 -26.44805,0 c 0.69316,1.01314 2.61959,4.13855 3.63271,5.52486 1.01308,1.38639 2.13283,2.87938 3.35923,4.47898 1.22637,1.59967 2.50608,3.27929 3.83913,5.03885 1.333,1.70631 2.63937,3.38593 3.91911,5.03886"
         id="path3112"
         inkscape:connector-curvature="0"
         sodipodi:nodetypes="cscccccsccccccccccc"
         style="fill:#f9f9f9" />
    </g>
    <g
       transform="matrix(0,-0.59619526,0.59619526,0,81.060387,781.1516)"
       style="font-size:40px;font-style:normal;font-variant:normal;font-weight:normal;font-stretch:normal;line-height:125%;letter-spacing:0px;word-spacing:0px;fill:#cccccc;fill-opacity:1;stroke:none;font-family:Ubuntu Mono;-inkscape-font-specification:Ubuntu Mono"
       id="text3071">
      <path
         d="m -60.611426,173.46437 c -1.8e-5,2.08001 -0.666684,3.76001 -2,5.04 -1.306682,1.28 -3.30668,1.92 -6,1.92 -1.546675,0 -2.826674,-0.2 -3.84,-0.6 -1.013339,-0.42666 -1.826671,-0.96 -2.44,-1.6 -0.58667,-0.66666 -1.013336,-1.39999 -1.28,-2.2 -0.240003,-0.79999 -0.360002,-1.58666 -0.36,-2.36 -2e-6,-1.41332 0.386664,-2.66665 1.16,-3.76 0.773329,-1.09332 1.693328,-1.97332 2.76,-2.64 -2.266671,-1.27998 -3.400003,-3.23998 -3.4,-5.88 -3e-6,-0.90664 0.17333,-1.77331 0.52,-2.6 0.346663,-0.82664 0.839996,-1.54664 1.48,-2.16 0.639994,-0.61331 1.413327,-1.10664 2.32,-1.48 0.933325,-0.37331 1.973324,-0.55997 3.12,-0.56 1.333322,3e-5 2.466654,0.20003 3.4,0.6 0.959985,0.40003 1.733318,0.92003 2.32,1.56 0.58665,0.61336 1.013316,1.30669 1.28,2.08 0.266649,0.74669 0.399982,1.48002 0.4,2.2 -1.8e-5,1.41335 -0.360017,2.64002 -1.08,3.68 -0.720016,1.01335 -1.546682,1.82668 -2.48,2.44 2.74665,1.30668 4.119982,3.41335 4.12,6.32 m -12.72,0.24 c -6e-6,0.42668 0.07999,0.88001 0.24,1.36 0.159994,0.45334 0.42666,0.88001 0.8,1.28 0.373326,0.40001 0.866659,0.73334 1.48,1 0.613325,0.24001 1.35999,0.36001 2.24,0.36 0.826655,10e-6 1.533321,-0.10666 2.12,-0.32 0.61332,-0.23999 1.106653,-0.54666 1.48,-0.92 0.399986,-0.39999 0.693319,-0.83999 0.88,-1.32 0.186652,-0.47999 0.279985,-0.95999 0.28,-1.44 -1.5e-5,-1.51999 -0.546681,-2.67999 -1.64,-3.48 -1.093346,-0.82665 -2.600011,-1.45332 -4.52,-1.88 -1.066675,0.58668 -1.89334,1.32001 -2.48,2.2 -0.586673,0.88001 -0.880006,1.93334 -0.88,3.16 m 8.96,-12.68 c -1.5e-5,-0.34664 -0.08002,-0.73331 -0.24,-1.16 -0.160014,-0.45331 -0.413347,-0.85331 -0.76,-1.2 -0.320013,-0.37331 -0.74668,-0.67997 -1.28,-0.92 -0.533345,-0.26664 -1.173344,-0.39997 -1.92,-0.4 -0.773343,3e-5 -1.426676,0.12003 -1.96,0.36 -0.506675,0.24003 -0.933341,0.54669 -1.28,0.92 -0.346673,0.34669 -0.600007,0.74669 -0.76,1.2 -0.13334,0.42669 -0.200006,0.85336 -0.2,1.28 -6e-6,1.09335 0.38666,2.12002 1.16,3.08 0.799992,0.93335 2.106657,1.61335 3.92,2.04 1.013321,-0.58665 1.81332,-1.27998 2.4,-2.08 0.613319,-0.79998 0.919985,-1.83998 0.92,-3.12"
         id="path3076"
         inkscape:connector-curvature="0"
         style="fill:#cccccc" />
    </g>
    <text
       xml:space="preserve"
       style="font-size:20.38310622999999921px;font-style:normal;font-variant:normal;font-weight:normal;font-stretch:normal;line-height:125%;letter-spacing:0px;word-spacing:0px;fill:#cccccc;fill-opacity:1;stroke:none;font-family:Ubuntu Mono;-inkscape-font-specification:Ubuntu Mono"
       x="165.24995"
       y="900.2193"
       id="text3078"
       sodipodi:linespacing="125%"><tspan
         sodipodi:role="line"
         id="tspan3080"
         x="165.24995"
         y="900.2193"
         style="font-size:20px;fill:#cccccc">n=1</tspan></text>
    <text
       xml:space="preserve"
       style="font-size:40px;font-style:normal;font-variant:normal;font-weight:normal;font-stretch:normal;line-height:125%;letter-spacing:0px;word-spacing:0px;fill:#cccccc;fill-opacity:1;stroke:none;font-family:Ubuntu Mono;-inkscape-font-specification:Ubuntu Mono"
       x="232.85715"
       y="873.07642"
       id="text3082"
       sodipodi:linespacing="125%"><tspan
         sodipodi:role="line"
         id="tspan3084"
         x="232.85715"
         y="873.07642"
         style="font-size:20px;fill:#cccccc">n</tspan></text>
    <text
       xml:space="preserve"
       style="font-size:40px;font-style:normal;font-variant:normal;font-weight:normal;font-stretch:normal;line-height:125%;letter-spacing:0px;word-spacing:0px;fill:#cccccc;fill-opacity:1;stroke:none;font-family:Ubuntu Mono;-inkscape-font-specification:Ubuntu Mono"
       x="384.25571"
       y="871.53076"
       id="text3082-3"
       sodipodi:linespacing="125%"><tspan
         sodipodi:role="line"
         id="tspan3084-6"
         x="384.25571"
         y="871.53076"
         style="font-size:20px;fill:#cccccc">n</tspan></text>
    <text
       xml:space="preserve"
       style="font-size:40px;font-style:normal;font-variant:normal;font-weight:normal;font-stretch:normal;line-height:125%;letter-spacing:0px;word-spacing:0px;fill:#cccccc;fill-opacity:1;stroke:none;font-family:Ubuntu Mono;-inkscape-font-specification:Ubuntu Mono"
       x="131.57143"
       y="853.2193"
       id="text3107"
       sodipodi:linespacing="125%"><tspan
         sodipodi:role="line"
         id="tspan3109"
         x="131.57143"
         y="853.2193"
         style="font-size:20px;fill:#cccccc">o</tspan></text>
    <text
       xml:space="preserve"
       style="font-size:28px;font-style:normal;font-variant:normal;font-weight:normal;font-stretch:normal;line-height:125%;letter-spacing:0px;word-spacing:0px;fill:#5f5fd3;fill-opacity:1;stroke:none;font-family:Ubuntu Mono;-inkscape-font-specification:Ubuntu Mono"
       x="26.263966"
       y="1003.5234"
       id="text3120"
       sodipodi:linespacing="125%"><tspan
         sodipodi:role="line"
         x="26.263966"
         y="1003.5234"
         id="tspan3124"><tspan
           style="fill:#5599ff"
           id="tspan3159">Роўнасць!</tspan><tspan
           style="fill:#dd55ff"
           id="tspan3161"> Збежнасць!</tspan><tspan
           style="fill:#ff2a2a"
           id="tspan3163"> Незалежнасць!</tspan></tspan></text>
    <text
       xml:space="preserve"
       style="font-size:28px;font-style:normal;font-variant:normal;font-weight:normal;font-stretch:normal;line-height:125%;letter-spacing:0px;word-spacing:0px;fill:#f2f2f2;fill-opacity:1;stroke:none;font-family:Ubuntu Mono;-inkscape-font-specification:Ubuntu Mono"
       x="26.263966"
       y="1030.849"
       id="text3132"
       sodipodi:linespacing="125%"><tspan
         sodipodi:role="line"
         id="tspan3134"
         x="26.263966"
         y="1030.849"
         style="fill:#ff2a7f;font-style:italic;-inkscape-font-specification:Ubuntu Mono Italic">Выйсце ў гільбертаву прастору!</tspan></text>
    <text
       xml:space="preserve"
       style="font-size:117.16703796000000182px;font-style:normal;font-variant:normal;font-weight:normal;font-stretch:normal;line-height:125%;letter-spacing:0px;word-spacing:0px;fill:#ff2a2a;fill-opacity:1;stroke:none;font-family:Ubuntu Mono;-inkscape-font-specification:Ubuntu Mono"
       x="96.374992"
       y="3230.8228"
       id="text3059-7"
       sodipodi:linespacing="125%"
       transform="scale(3.2546398,0.30725366)"><tspan
         sodipodi:role="line"
         id="tspan3061-5"
         x="96.374992"
         y="3230.8228">_</tspan></text>
  </g>
</svg>
