<?xml version="1.0" encoding="UTF-8" standalone="no"?>
<!-- Created with Inkscape (http://www.inkscape.org/) -->

<svg
   xmlns:dc="http://purl.org/dc/elements/1.1/"
   xmlns:cc="http://creativecommons.org/ns#"
   xmlns:rdf="http://www.w3.org/1999/02/22-rdf-syntax-ns#"
   xmlns:svg="http://www.w3.org/2000/svg"
   xmlns="http://www.w3.org/2000/svg"
   xmlns:sodipodi="http://sodipodi.sourceforge.net/DTD/sodipodi-0.dtd"
   xmlns:inkscape="http://www.inkscape.org/namespaces/inkscape"
   width="297mm"
   height="210mm"
   viewBox="0 0 1052.3622 744.09449"
   id="svg5404"
   version="1.1"
   inkscape:version="0.91 r13725"
   sodipodi:docname="falanster_table_a3_2.svg"
   inkscape:export-filename="/home/jedi/Dropbox/falanster/design/logo/logo_2018/projects_logo/tables_for_event/falanster_table_a3_2.png"
   inkscape:export-xdpi="300.50391"
   inkscape:export-ydpi="300.50391">
  <defs
     id="defs5406">
    <inkscape:path-effect
       effect="spiro"
       id="path-effect4158"
       is_visible="true" />
    <linearGradient
       id="linearGradient4529">
      <stop
         style="stop-color:#ffbb3c;stop-opacity:0.8839286;"
         offset="0"
         id="stop4531" />
      <stop
         style="stop-color:#000f24;stop-opacity:0.4732143;"
         offset="1"
         id="stop4533" />
    </linearGradient>
  </defs>
  <sodipodi:namedview
     id="base"
     pagecolor="#ffffff"
     bordercolor="#666666"
     borderopacity="1.0"
     inkscape:pageopacity="0.0"
     inkscape:pageshadow="2"
     inkscape:zoom="0.7"
     inkscape:cx="407.63904"
     inkscape:cy="402.74708"
     inkscape:document-units="px"
     inkscape:current-layer="layer1"
     showgrid="false"
     fit-margin-top="0"
     fit-margin-left="0"
     fit-margin-right="0"
     fit-margin-bottom="0"
     inkscape:window-width="1855"
     inkscape:window-height="1056"
     inkscape:window-x="65"
     inkscape:window-y="24"
     inkscape:window-maximized="1" />
  <metadata
     id="metadata5409">
    <rdf:RDF>
      <cc:Work
         rdf:about="">
        <dc:format>image/svg+xml</dc:format>
        <dc:type
           rdf:resource="http://purl.org/dc/dcmitype/StillImage" />
        <dc:title></dc:title>
      </cc:Work>
    </rdf:RDF>
  </metadata>
  <g
     inkscape:label="Layer 1"
     inkscape:groupmode="layer"
     id="layer1"
     transform="translate(278.6178,59.828107)">
    <rect
       style="opacity:1;fill:#ffffff;fill-opacity:1;fill-rule:nonzero;stroke:#ffffff;stroke-width:12.66168404;stroke-linecap:round;stroke-linejoin:round;stroke-miterlimit:4;stroke-dasharray:none;stroke-opacity:1"
       id="rect4158"
       width="1039.7006"
       height="731.4328"
       x="-272.28696"
       y="-53.497265"
       inkscape:export-xdpi="300"
       inkscape:export-ydpi="300" />
    <text
       xml:space="preserve"
       style="font-style:normal;font-weight:normal;font-size:63.4500351px;line-height:125%;font-family:sans-serif;letter-spacing:0px;word-spacing:0px;fill:#333333;fill-opacity:1;stroke:none;stroke-width:1px;stroke-linecap:butt;stroke-linejoin:miter;stroke-opacity:1"
       id="text4148"
       sodipodi:linespacing="125%"
       x="-198.52136"
       y="442.32611">сацыяльныя гікі</text>
    <path
       style="fill:#666666;fill-rule:evenodd;stroke:none;stroke-width:4.19198132;stroke-linecap:butt;stroke-linejoin:miter;stroke-miterlimit:4;stroke-dasharray:none;stroke-opacity:1"
       d="m -31.883173,510.26127 c 0,0 -4.79084,19.16334 7.18626,43.11752 11.97708,23.95418 38.32668,56.29232 46.71064,62.28087 8.38396,5.98854 -184.447157,-34.73357 -184.447157,-34.73357 0,0 8.38396,28.74502 15.57019,34.73357 7.18623,5.98854 -39.52435,-11.37824 -55.09462,-22.15761 -15.5702,-10.77939 -32.33812,-30.54159 -35.93123,-37.72784 -3.5932,-7.18625 19.1633,-12.57594 33.53584,-32.937 14.37246,-20.36104 29.94274,-47.90835 29.94274,-47.90835 14.90266,24.76744 12.03358,32.78797 9.58161,48.50721 0,0 105.398427,-4.79084 132.945727,-13.1748 z"
       id="path4217"
       inkscape:connector-curvature="0"
       sodipodi:nodetypes="csscssssccc" />
    <text
       xml:space="preserve"
       style="font-style:normal;font-weight:normal;font-size:22.77597237px;line-height:125%;font-family:sans-serif;letter-spacing:0px;word-spacing:0px;fill:#000000;fill-opacity:1;stroke:none;stroke-width:1px;stroke-linecap:butt;stroke-linejoin:miter;stroke-opacity:1"
       x="-20.835741"
       y="625.75696"
       id="text4257"
       sodipodi:linespacing="125%"
       transform="matrix(0.98415429,0.17731421,-0.17731421,0.98415429,0,0)"><tspan
         sodipodi:role="line"
         id="tspan4259"
         x="-20.835741"
         y="625.75696"
         style="font-style:normal;font-variant:normal;font-weight:normal;font-stretch:normal;font-family:Ubuntu;-inkscape-font-specification:Ubuntu">falanster.by</tspan></text>
    <text
       xml:space="preserve"
       style="font-style:normal;font-weight:normal;font-size:211.98602295px;line-height:125%;font-family:sans-serif;letter-spacing:0px;word-spacing:0px;fill:#ff6600;fill-opacity:1;stroke:none;stroke-width:1px;stroke-linecap:butt;stroke-linejoin:miter;stroke-opacity:1"
       x="-250.63606"
       y="381.45938"
       id="text4178"
       sodipodi:linespacing="125%"><tspan
         sodipodi:role="line"
         id="tspan4180"
         x="-250.63606"
         y="381.45938"
         style="font-style:normal;font-variant:normal;font-weight:600;font-stretch:normal;font-family:a_AlternaBrk;-inkscape-font-specification:'a_AlternaBrk Semi-Bold';fill:#ff6600">ФАЛАНСТЭР</tspan></text>
    <g
       id="g4214"
       transform="matrix(1.2257425,-0.30522503,0.30522503,1.2257425,-250.92677,151.43831)">
      <path
         inkscape:transform-center-y="55.624643"
         inkscape:transform-center-x="14.722723"
         inkscape:connector-curvature="0"
         id="path3211"
         d="m 725.47321,75.229638 c 0,0 -48.24498,-29.660797 -102.45717,-1.099769 -54.21219,28.561131 -52.84547,30.466601 -52.84547,30.466601 l 33.13986,68.79769 c 0,0 48.32582,-14.79379 60.97601,-22.53521 12.65017,-7.74139 51.88769,-27.00477 61.18677,-75.629312 z"
         style="fill:#999999;stroke:none;stroke-width:0.45526534px;stroke-linecap:butt;stroke-linejoin:miter;stroke-opacity:1" />
      <path
         inkscape:transform-center-y="33.681533"
         inkscape:transform-center-x="-42.779323"
         inkscape:connector-curvature="0"
         id="path3213"
         d="m 633.17603,76.287959 c 0,0 -41.1723,-5.098836 -51.83709,-0.779268 -10.66483,4.319467 -37.14244,18.315661 -37.14244,18.315661 0,0 6.47427,18.775728 9.89605,20.761008 3.42189,1.98545 79.08348,-38.297401 79.08348,-38.297401 z"
         style="fill:#ff7f2a;stroke:none;stroke-width:0.45526534px;stroke-linecap:butt;stroke-linejoin:miter;stroke-opacity:1" />
      <path
         inkscape:transform-center-y="10.076323"
         inkscape:transform-center-x="-8.7813011"
         inkscape:connector-curvature="0"
         id="path3215"
         d="m 643.64619,115.27282 c 0,0 -41.82078,-4.30073 -62.20271,6.43337 -20.38199,10.73407 -26.43768,12.96863 -26.43768,12.96863 l 13.95634,27.50519 c 0,0 29.56021,-13.8765 40.49445,-19.83211 10.93422,-5.95564 34.1896,-27.07508 34.1896,-27.07508 z"
         style="fill:#ffb380;stroke:none;stroke-width:0.45526534px;stroke-linecap:butt;stroke-linejoin:miter;stroke-opacity:1" />
      <path
         inkscape:transform-center-y="-11.670064"
         inkscape:transform-center-x="34.419283"
         inkscape:connector-curvature="0"
         id="path3217"
         d="m 664.19352,142.72793 -78.70436,39.13547 8.94839,18.666 c 0,0 23.41459,-4.02993 28.7521,-8.96803 5.33744,-4.9382 26.02871,-18.33599 32.55346,-27.34449 6.52468,-9.00857 8.45041,-21.48895 8.45041,-21.48895 z"
         style="fill:#d45500;stroke:none;stroke-width:0.45526534px;stroke-linecap:butt;stroke-linejoin:miter;stroke-opacity:1" />
      <circle
         r="18.905294"
         cy="314.09293"
         cx="-603.77136"
         transform="matrix(-0.81289514,-0.58241008,0.58241008,-0.81289514,0,0)"
         id="path4459"
         style="fill:#ffe6d5;fill-opacity:1;stroke:none" />
    </g>
  </g>
</svg>
