<?xml version="1.0" encoding="UTF-8" standalone="no"?>
<!-- Created with Inkscape (http://www.inkscape.org/) -->

<svg
   xmlns:osb="http://www.openswatchbook.org/uri/2009/osb"
   xmlns:dc="http://purl.org/dc/elements/1.1/"
   xmlns:cc="http://creativecommons.org/ns#"
   xmlns:rdf="http://www.w3.org/1999/02/22-rdf-syntax-ns#"
   xmlns:svg="http://www.w3.org/2000/svg"
   xmlns="http://www.w3.org/2000/svg"
   xmlns:sodipodi="http://sodipodi.sourceforge.net/DTD/sodipodi-0.dtd"
   xmlns:inkscape="http://www.inkscape.org/namespaces/inkscape"
   width="297mm"
   height="210mm"
   viewBox="0 0 1052.3622 744.09449"
   id="svg5404"
   version="1.1"
   inkscape:version="0.91 r13725"
   sodipodi:docname="geeklauka_table_a3.svg"
   inkscape:export-filename="/home/jedi/Dropbox/falanster/design/logo/logo_2018/projects_logo/tables_for_event/geeklauka_table_a3.png"
   inkscape:export-xdpi="300.50391"
   inkscape:export-ydpi="300.50391">
  <defs
     id="defs5406">
    <inkscape:path-effect
       effect="spiro"
       id="path-effect4158"
       is_visible="true" />
    <linearGradient
       osb:paint="solid"
       id="linearGradient4195">
      <stop
         id="stop4197"
         offset="0"
         style="stop-color:#000000;stop-opacity:1;" />
    </linearGradient>
  </defs>
  <sodipodi:namedview
     id="base"
     pagecolor="#ffffff"
     bordercolor="#666666"
     borderopacity="1.0"
     inkscape:pageopacity="0.0"
     inkscape:pageshadow="2"
     inkscape:zoom="0.49497475"
     inkscape:cx="-167.84194"
     inkscape:cy="423.31484"
     inkscape:document-units="px"
     inkscape:current-layer="layer1"
     showgrid="false"
     fit-margin-top="0"
     fit-margin-left="0"
     fit-margin-right="0"
     fit-margin-bottom="0"
     inkscape:window-width="1855"
     inkscape:window-height="1056"
     inkscape:window-x="65"
     inkscape:window-y="24"
     inkscape:window-maximized="1" />
  <metadata
     id="metadata5409">
    <rdf:RDF>
      <cc:Work
         rdf:about="">
        <dc:format>image/svg+xml</dc:format>
        <dc:type
           rdf:resource="http://purl.org/dc/dcmitype/StillImage" />
        <dc:title></dc:title>
      </cc:Work>
    </rdf:RDF>
  </metadata>
  <g
     inkscape:label="Layer 1"
     inkscape:groupmode="layer"
     id="layer1"
     transform="translate(278.6178,59.828107)">
    <rect
       style="opacity:1;fill:#ffffff;fill-opacity:1;fill-rule:nonzero;stroke:#ffffff;stroke-width:12.66168404;stroke-linecap:round;stroke-linejoin:round;stroke-miterlimit:4;stroke-dasharray:none;stroke-opacity:1"
       id="rect4158"
       width="1039.7006"
       height="731.4328"
       x="-272.28696"
       y="-53.497265" />
    <text
       xml:space="preserve"
       style="font-style:normal;font-weight:normal;font-size:67.57006073px;line-height:125%;font-family:sans-serif;letter-spacing:0px;word-spacing:0px;fill:#1a1a1a;fill-opacity:1;stroke:none;stroke-width:1px;stroke-linecap:butt;stroke-linejoin:miter;stroke-opacity:1"
       x="-214.94934"
       y="642.09698"
       id="text4152"
       sodipodi:linespacing="125%"><tspan
         sodipodi:role="line"
         id="tspan4154"
         x="-214.94934"
         y="642.09698"
         style="font-style:normal;font-variant:normal;font-weight:normal;font-stretch:normal;font-size:105.57822418px;font-family:Ubuntu;-inkscape-font-specification:Ubuntu;fill:#1a1a1a">крама нішцякоў</tspan></text>
    <path
       style="fill:#1a1a1a;fill-rule:evenodd;stroke:#1a1a1a;stroke-width:5;stroke-linecap:butt;stroke-linejoin:miter;stroke-miterlimit:4;stroke-dasharray:none;stroke-opacity:1"
       d="m 453.92206,496.02959 c 0,0 3.25159,-23.33515 -13.99103,-50.22567 -17.24261,-26.89053 -52.59417,-61.90164 -63.29695,-67.94075 -10.70278,-6.03911 223.1578,17.80204 223.1578,17.80204 0,0 -13.58877,-33.02811 -22.87105,-39.21911 -9.28228,-6.191 48.31856,8.482 68.15183,19.29162 19.83317,10.80965 42.22605,32.12094 47.39882,40.1881 5.17287,8.06714 -21.13264,17.34526 -35.59617,43.31605 -14.46342,25.97077 -29.43608,60.61629 -29.43608,60.61629 -20.81546,-27.48403 -18.42993,-37.36017 -17.51543,-56.31403 0,0 -124.39412,19.04858 -156.00174,32.48546 z"
       id="path4217"
       inkscape:connector-curvature="0"
       sodipodi:nodetypes="csscssssccc" />
    <g
       id="g4275"
       transform="matrix(1.4107645,0,0,1.4107645,1281.076,-426.09844)">
      <path
         sodipodi:nodetypes="sssssssss"
         inkscape:connector-curvature="0"
         id="rect2985-36-6-6-5"
         d="m -1026.6502,376.31442 361.42185,0 c 10.16171,0 20.44817,8.12185 18.34246,17.73189 l -35.44952,161.78315 c -2.10567,9.61021 -8.18068,17.73184 -18.34243,17.73184 l -290.57575,0 c -10.16171,0 -16.23971,-8.12163 -18.34231,-17.73184 l -35.3968,-161.78315 c -2.1025,-9.61 8.1808,-17.73189 18.3425,-17.73189 z"
         style="fill:#ffffff;stroke:#000000;stroke-width:4.47569704;stroke-miterlimit:4;stroke-dasharray:none;stroke-opacity:1" />
      <path
         sodipodi:nodetypes="sssssssss"
         inkscape:connector-curvature="0"
         id="rect2985-3-7-2-1-4"
         d="m -999.69694,573.35674 307.75105,0 c 10.77388,0 13.27778,11.742 19.44743,21.51156 l 37.83636,59.91481 c 6.16968,9.76992 -8.67352,21.51151 -19.44732,21.51151 l -383.42398,0 c -10.7738,0 -25.617,-11.74159 -19.4472,-21.51151 l 37.8363,-59.91481 c 6.1697,-9.76956 8.6735,-21.51156 19.44736,-21.51156 z"
         style="fill:#000000;stroke:#000000;stroke-width:4.47884083;stroke-miterlimit:4;stroke-dasharray:none;stroke-opacity:1" />
      <path
         sodipodi:nodetypes="cccc"
         inkscape:connector-curvature="0"
         id="path3837-5-1-6-4"
         d="m -978.8207,552.86162 -34.3745,-148.2964 101.3664,0 0,15.93616"
         style="fill:none;stroke:#000000;stroke-width:10.29410362;stroke-linecap:round;stroke-linejoin:round;stroke-miterlimit:4;stroke-dasharray:none;stroke-opacity:1" />
      <path
         sodipodi:nodetypes="cc"
         inkscape:connector-curvature="0"
         id="path3843-3-2-3-4"
         d="m -854.26923,552.06003 0,-112.64154"
         style="fill:none;stroke:#000000;stroke-width:10.29410362;stroke-linecap:round;stroke-linejoin:miter;stroke-miterlimit:4;stroke-dasharray:none;stroke-opacity:1" />
      <path
         sodipodi:nodetypes="cc"
         inkscape:connector-curvature="0"
         id="path4217-7-2-3"
         d="m -779.48825,403.52703 0,149.20393"
         style="fill:none;fill-rule:evenodd;stroke:#000000;stroke-width:10.29410362;stroke-linecap:round;stroke-linejoin:miter;stroke-miterlimit:4;stroke-dasharray:none;stroke-opacity:1" />
      <path
         inkscape:connector-curvature="0"
         id="path4219-0-0-0"
         d="m -778.28939,477.60721 96.75116,-73.26162"
         style="fill:none;fill-rule:evenodd;stroke:#000000;stroke-width:10.29410362;stroke-linecap:round;stroke-linejoin:miter;stroke-miterlimit:4;stroke-dasharray:none;stroke-opacity:1" />
      <path
         sodipodi:nodetypes="cc"
         inkscape:connector-curvature="0"
         id="path4221-9-6-7"
         d="m -778.3444,483.6657 67.87338,68.85129"
         style="fill:none;fill-rule:evenodd;stroke:#000000;stroke-width:10.29410362;stroke-linecap:round;stroke-linejoin:miter;stroke-miterlimit:4;stroke-dasharray:none;stroke-opacity:1" />
      <circle
         r="11.988476"
         cy="404.63748"
         cx="-845.42493"
         id="path4223-3-1-8"
         style="opacity:1;fill:#ffffff;fill-opacity:1;stroke:#000000;stroke-width:8.95139408;stroke-linecap:round;stroke-linejoin:round;stroke-miterlimit:4;stroke-dasharray:none;stroke-opacity:1" />
      <path
         sodipodi:nodetypes="csccccscscccccsccscsccccc"
         inkscape:connector-curvature="0"
         id="path4235-6-5-6"
         d="m -787.7392,356.56194 c 0,0 -2.50304,-1.73283 -7.89406,-9.04925 -5.39106,-7.31645 1.34777,-31.38367 1.34777,-31.38367 0,0 9.43432,6.16121 18.29106,7.50895 1.87818,-10.06882 2.16122,-11.1655 13.6702,-29.26568 5.92136,6.68378 6.17736,15.18525 12.70744,21.75673 0,0 2.88809,-5.00592 7.89406,-12.12987 5.00595,-7.12386 15.21048,-12.90001 15.21048,-12.90001 0,0 1.83002,4.90795 2.88809,10.78214 2.22124,12.33216 3.89592,6.39804 4.56059,5.7761 8.14689,-11.35972 18.35136,-10.78209 18.35136,-10.78209 0,0 -1.92537,4.04327 -2.31045,10.97461 -0.6296,10.20149 5.43912,7.78367 10.58953,6.16121 6.58887,-2.11788 19.44635,-2.50297 19.44635,-2.50297 0,0 -1.96788,2.11791 -6.54626,9.04927 -4.57837,6.93132 -1.49779,11.16718 -1.49779,11.16718 12.37785,5.30072 10.98534,-0.71957 27.29781,12.3224 0,0 -6.73878,-1.15528 -13.47762,4.42832 -6.73884,5.58363 -4.04334,7.70158 -4.04334,7.70158 0,0 7.70156,3.46563 12.12994,7.12389 4.4283,3.65814 9.04923,10.58953 9.04923,10.58953 l -14.8254,2.69554 -15.96465,-0.0941 -101.2906,-16.21038 z"
         style="fill:#000000;fill-rule:evenodd;stroke:#000000;stroke-width:2.23784852;stroke-linecap:round;stroke-linejoin:round;stroke-miterlimit:4;stroke-dasharray:none;stroke-opacity:1" />
      <path
         sodipodi:nodetypes="ccsc"
         inkscape:connector-curvature="0"
         id="path4237-0-5-8"
         d="m -680.94307,376.3212 c -100.74709,0 -88.49401,-0.5446 -114.63384,-0.27214 0,-24.13617 31.26629,-45.88068 59.08681,-45.88068 27.82054,0 55.54703,22.01688 55.54703,46.15301 z"
         style="opacity:1;fill:#ffffff;fill-opacity:1;stroke:#000000;stroke-width:4.47569704;stroke-linecap:round;stroke-linejoin:round;stroke-miterlimit:4;stroke-dasharray:none;stroke-opacity:1" />
      <path
         sodipodi:nodetypes="ccccc"
         inkscape:connector-curvature="0"
         id="path4242-6-4-8"
         d="m -729.54672,375.77663 -1.49761,-10.07471 26.95668,-9.6663 3.26743,20.01328 z"
         style="fill:none;fill-rule:evenodd;stroke:#000000;stroke-width:4.47569704;stroke-linecap:butt;stroke-linejoin:round;stroke-miterlimit:4;stroke-dasharray:none;stroke-opacity:1" />
      <path
         inkscape:connector-curvature="0"
         id="path4246-2-7-4"
         d="m -781.14556,375.50432 5.58191,-16.4735 22.05547,7.48798 0,9.5301 z"
         style="fill:#000000;fill-rule:evenodd;stroke:#000000;stroke-width:4.47569704;stroke-linecap:butt;stroke-linejoin:round;stroke-miterlimit:4;stroke-dasharray:none;stroke-opacity:1" />
      <path
         sodipodi:nodetypes="cccscccccccccccc"
         inkscape:connector-curvature="0"
         id="path4248-6-6-3"
         d="m -850.6279,401.28206 c 0,0 -8.94956,3.04132 -10.36262,-2.17228 -1.41316,-5.21355 -6.12338,-28.67463 -6.12338,-28.67463 0,0 -0.94214,-16.07517 6.59436,-15.64073 7.53649,0.43461 8.00747,6.51703 8.00747,6.51703 0,0 0.47128,-7.82034 5.18133,-8.25483 4.71027,-0.43505 8.94952,6.51698 8.94952,6.51698 0,0 1.88413,-7.82041 7.06542,-7.3859 5.18134,0.43505 7.06552,8.68926 7.06552,8.68926 0,0 2.82608,27.80571 0.94204,33.88823 -1.88418,6.08251 -9.89165,5.64802 -9.89165,5.64802 l -5.26149,-41.06606 4.31945,40.1971 c 0,0 -3.2972,3.91015 -8.47854,3.04121 -5.18129,-0.86896 -9.97177,-40.93087 -9.97177,-40.93087 0,0 6.67461,37.45519 1.96434,39.62747 z"
         style="fill:#ffffff;fill-rule:evenodd;stroke:#000000;stroke-width:4.47569704;stroke-linecap:round;stroke-linejoin:round;stroke-miterlimit:4;stroke-dasharray:none;stroke-opacity:1" />
      <path
         sodipodi:nodetypes="cccscscscsaccscc"
         inkscape:connector-curvature="0"
         id="path4265-1-5-1"
         d="m -640.7257,442.23757 c 0,0 4.5939,0.79393 4.51262,6.85029 -0.081,6.05624 -6.61558,6.989 -6.61558,6.989 0,0 6.33705,0.5664 6.25566,6.62264 -0.081,6.05624 -8.10166,5.89567 -8.10166,5.89567 0,0 3.57306,3.14959 3.98589,8.87379 0.41311,5.72416 -7.50987,5.42246 -7.50987,5.42246 0,0 -39.39304,4.45737 -36.17057,-9.44901 1.5315,-6.60913 39.40114,-4.91385 39.40114,-4.91385 0,0 -31.38299,1.65152 -36.13984,0.34733 -4.75685,-1.30415 -5.50216,-4.23767 -4.41478,-6.67299 5.85595,-13.1153 21.16102,-4.00742 42.62848,-6.28761 4.02155,0.57832 -38.25508,1.1092 -39.55309,-2.51972 -1.29785,-3.6289 0.11209,-9.39176 3.66898,-9.59607 9.70401,-0.55749 15.60794,-1.48437 22.93331,-2.28157 5.27106,-0.74321 10.34226,-1.61877 15.11931,0.71964 z"
         style="fill:#ffffff;fill-rule:evenodd;stroke:#000000;stroke-width:4.47569704;stroke-linecap:butt;stroke-linejoin:round;stroke-miterlimit:4;stroke-dasharray:none;stroke-opacity:1" />
      <path
         sodipodi:nodetypes="ccccc"
         inkscape:connector-curvature="0"
         id="path4275-7-6-4"
         d="m -1026.4574,663.0024 42.7058,-73.96862 42.48095,73.57961 42.17438,-73.0488 42.17439,73.0488"
         style="fill:none;fill-rule:evenodd;stroke:#ffffff;stroke-width:8.50382423;stroke-linecap:round;stroke-linejoin:round;stroke-miterlimit:4;stroke-dasharray:none;stroke-opacity:1" />
      <path
         sodipodi:nodetypes="cc"
         inkscape:connector-curvature="0"
         id="path4277-9-9-9"
         d="m -845.07745,589.81207 29.48064,29.1987"
         style="fill:none;fill-rule:evenodd;stroke:#ffffff;stroke-width:8.50382423;stroke-linecap:round;stroke-linejoin:round;stroke-miterlimit:4;stroke-dasharray:none;stroke-opacity:1" />
      <path
         sodipodi:nodetypes="ccc"
         inkscape:connector-curvature="0"
         id="path4279-2-3-2"
         d="m -856.71905,662.61339 69.22281,-73.57961 0.38934,73.57961"
         style="fill:none;fill-rule:evenodd;stroke:#ffffff;stroke-width:8.50382423;stroke-linecap:round;stroke-linejoin:round;stroke-miterlimit:4;stroke-dasharray:none;stroke-opacity:1" />
      <path
         inkscape:connector-curvature="0"
         id="path4281-0-7-0"
         d="m -746.85791,589.03378 -37.76289,37.76223 35.81637,35.81738 42.48092,-73.57961 42.48105,73.57961"
         style="fill:none;fill-rule:evenodd;stroke:#ffffff;stroke-width:8.50382423;stroke-linecap:round;stroke-linejoin:round;stroke-miterlimit:4;stroke-dasharray:none;stroke-opacity:1" />
      <path
         inkscape:connector-curvature="0"
         id="path4297-2-4-6"
         d="m -877.24471,627.80089 -44.87096,0"
         style="fill:none;fill-rule:evenodd;stroke:#ffffff;stroke-width:8.50382423;stroke-linecap:butt;stroke-linejoin:miter;stroke-miterlimit:4;stroke-dasharray:none;stroke-opacity:1" />
      <path
         inkscape:connector-curvature="0"
         id="path4299-3-5-8"
         d="m -724.73821,618.41674 35.23615,0"
         style="fill:none;fill-rule:evenodd;stroke:#ffffff;stroke-width:8.50382423;stroke-linecap:butt;stroke-linejoin:miter;stroke-miterlimit:4;stroke-dasharray:none;stroke-opacity:1" />
      <path
         inkscape:transform-center-y="0.24105519"
         inkscape:transform-center-x="-1.4460783"
         inkscape:connector-curvature="0"
         id="path4897"
         d="m -820.81486,589.4706 10.49285,0"
         style="fill:none;fill-rule:evenodd;stroke:#ffffff;stroke-width:8.50382423;stroke-linecap:round;stroke-linejoin:round;stroke-miterlimit:4;stroke-dasharray:none;stroke-opacity:1" />
      <path
         d="m -713.22879,368.50479 a 2.5784609,2.5784609 0 0 1 -2.48967,2.57693 2.5784609,2.5784609 0 0 1 -2.66114,-2.39944 2.5784609,2.5784609 0 0 1 2.30638,-2.7422 2.5784609,2.5784609 0 0 1 2.82,2.21058 l -2.55403,0.35413 z"
         sodipodi:end="6.145409"
         sodipodi:start="0"
         sodipodi:ry="2.5784609"
         sodipodi:rx="2.5784609"
         sodipodi:cy="368.50479"
         sodipodi:cx="-715.80725"
         sodipodi:type="arc"
         id="path4205"
         style="opacity:1;fill:#000000;fill-opacity:1;fill-rule:nonzero;stroke:#000000;stroke-width:10.29410362;stroke-linecap:round;stroke-linejoin:round;stroke-miterlimit:4;stroke-dasharray:none;stroke-opacity:1" />
      <text
         sodipodi:linespacing="125%"
         id="text4190"
         y="367.29187"
         x="-1039.5131"
         style="font-style:normal;font-weight:normal;font-size:26.5970211px;line-height:125%;font-family:sans-serif;letter-spacing:0px;word-spacing:0px;fill:#4d4d4d;fill-opacity:1;stroke:none;stroke-width:1px;stroke-linecap:butt;stroke-linejoin:miter;stroke-opacity:1"
         xml:space="preserve"><tspan
           style="font-style:normal;font-variant:normal;font-weight:normal;font-stretch:normal;font-family:'Ubuntu Mono';-inkscape-font-specification:'Ubuntu Mono';fill:#4d4d4d"
           y="367.29187"
           x="-1039.5131"
           id="tspan4192"
           sodipodi:role="line">geeklauka.by</tspan></text>
    </g>
  </g>
</svg>
