<?xml version="1.0" encoding="UTF-8" standalone="no"?>
<!-- Created with Inkscape (http://www.inkscape.org/) -->

<svg
   xmlns:dc="http://purl.org/dc/elements/1.1/"
   xmlns:cc="http://creativecommons.org/ns#"
   xmlns:rdf="http://www.w3.org/1999/02/22-rdf-syntax-ns#"
   xmlns:svg="http://www.w3.org/2000/svg"
   xmlns="http://www.w3.org/2000/svg"
   xmlns:xlink="http://www.w3.org/1999/xlink"
   xmlns:sodipodi="http://sodipodi.sourceforge.net/DTD/sodipodi-0.dtd"
   xmlns:inkscape="http://www.inkscape.org/namespaces/inkscape"
   width="297mm"
   height="210mm"
   viewBox="0 0 1052.3622 744.09449"
   id="svg5404"
   version="1.1"
   inkscape:version="0.91 r13725"
   sodipodi:docname="wiki_table.svg"
   inkscape:export-filename="/home/svet/Dropbox/falanster/design/logo/logo_2018/projects_logo_b_w/wiki_logo.png"
   inkscape:export-xdpi="300.50391"
   inkscape:export-ydpi="300.50391">
  <defs
     id="defs5406">
    <inkscape:path-effect
       effect="spiro"
       id="path-effect4158"
       is_visible="true" />
  </defs>
  <sodipodi:namedview
     id="base"
     pagecolor="#ffffff"
     bordercolor="#666666"
     borderopacity="1.0"
     inkscape:pageopacity="0.0"
     inkscape:pageshadow="2"
     inkscape:zoom="0.49497475"
     inkscape:cx="163.21129"
     inkscape:cy="444.08251"
     inkscape:document-units="px"
     inkscape:current-layer="layer1"
     showgrid="false"
     fit-margin-top="0"
     fit-margin-left="0"
     fit-margin-right="0"
     fit-margin-bottom="0"
     inkscape:window-width="1855"
     inkscape:window-height="1056"
     inkscape:window-x="65"
     inkscape:window-y="24"
     inkscape:window-maximized="1" />
  <metadata
     id="metadata5409">
    <rdf:RDF>
      <cc:Work
         rdf:about="">
        <dc:format>image/svg+xml</dc:format>
        <dc:type
           rdf:resource="http://purl.org/dc/dcmitype/StillImage" />
        <dc:title></dc:title>
      </cc:Work>
    </rdf:RDF>
  </metadata>
  <g
     inkscape:label="Layer 1"
     inkscape:groupmode="layer"
     id="layer1"
     transform="translate(278.6178,59.828107)">
    <rect
       style="opacity:1;fill:#ffffff;fill-opacity:1;fill-rule:nonzero;stroke:#ffffff;stroke-width:12.66168404;stroke-linecap:round;stroke-linejoin:round;stroke-miterlimit:4;stroke-dasharray:none;stroke-opacity:1"
       id="rect4158"
       width="1039.7006"
       height="731.4328"
       x="-272.28696"
       y="-53.497265" />
    <g
       id="g4235">
      <path
         id="path4149-6-3-6-6"
         d="m 502.05467,161.32686 c -6.94778,-22.48804 -7.91737,-57.07542 -3.52533,-76.145561 2.11505,-9.166101 5.28802,-26.087348 22.2089,-61.692137 4.33305,-9.117948 17.27363,-29.2595925 17.27363,-29.2595925 7.70172,2.5253905 11.36837,-5.4003585 10.576,-9.8705475 -1.05751,-5.288006 -6.34553,-9.1661 -9.87052,-8.460958 -7.14105,1.969576 -7.26286,5.165543 -6.6983,13.396232 0,0 -9.26277,13.3924068 -15.15858,23.971586 -5.89581,10.579167 -9.93894,18.209391 -19.38868,39.835269 -9.45012,21.625878 -14.97504,40.748709 -23.26678,66.627759 l -10.2233,14.10068 23.26677,24.6767 z"
         style="fill:#00ffff;fill-rule:evenodd;stroke:#333333;stroke-width:6.97811699;stroke-linecap:butt;stroke-linejoin:miter;stroke-miterlimit:4;stroke-dasharray:none;stroke-opacity:1"
         inkscape:connector-curvature="0" />
      <path
         id="path4147-3-6-6-3"
         d="m 120.62209,368.0476 c 0,0 24.32396,-33.13764 41.24521,-45.1233 16.92157,-11.98592 68.39008,-44.06573 68.39008,-44.06573 0,0 39.1155,-15.31592 53.2315,-30.31712 14.11568,-15.00156 27.49692,-29.96508 33.13732,-37.01507 5.64044,-7.05069 27.49693,-30.31748 39.48254,-38.77809 11.98633,-8.46063 26.08736,-20.44624 47.23871,-29.61199 21.15137,-9.16576 36.66268,-13.39589 50.05859,-12.69111 13.39622,0.70515 28.90717,7.05069 39.48284,19.0363 10.57573,11.98633 19.74147,22.56165 22.56165,32.4329 2.82022,9.87054 4.93529,22.5613 4.23016,31.7267 -0.70481,9.16576 -2.82022,13.39624 0,21.85686 2.82054,8.46061 5.64076,16.21609 9.16575,22.56165 3.52534,6.3452 5.64041,12.69074 5.64041,12.69074 -1.25466,2.73821 -6.34554,1.76302 -8.46063,-3.1726 -2.11506,-4.93526 -11.98593,-19.38905 -11.98593,-19.38905 0,0 1.41024,3.52535 -9.16543,9.16577 -10.57604,5.6404 -16.48998,3.60872 -17.62638,11.28082 -1.40992,9.51815 -1.02226,10.66396 -0.70512,16.56883 0.31751,5.90455 7.05069,18.68392 2.82019,18.68392 -4.23048,0 -11.98594,-9.8709 -11.98594,-21.15173 l 0,-15.51095 c 0,0 -8.24745,4.78385 -11.63287,5.9928 -9.87126,3.52501 -23.61956,3.52501 -28.55483,4.23048 -4.9356,0.7048 -12.69109,3.17261 -23.26677,10.92809 -10.57569,7.75548 -17.62602,16.92122 -25.38183,30.31712 -7.75551,13.39626 -15.51096,31.72739 -22.56129,54.28904 -7.05106,22.56129 -21.15209,59.92913 -26.08736,71.91543 -4.93527,11.98561 -17.62602,32.43219 -23.97158,38.07224 -6.34553,5.64076 -22.32962,16.36543 -35.95755,23.97194 -15.15854,8.46063 -34.54758,15.51095 -53.58388,19.0363 -19.03631,3.52571 -57.10927,4.23047 -57.10927,4.23047 0,0 -43.00821,2.11507 -62.74931,0.70481 -19.741794,-1.40957 -71.2103,1.41026 -88.131863,1.41026 -16.9208869,0 -49.353419,0 -70.50481,-2.11507 -21.151366,-2.11505 -50.763707,-2.11505 -64.159567,-6.34552 -13.39591,-4.23052 -40.18802,-21.85652 -47.94352,-31.02191 -7.75545,-9.16579 -23.26678,-23.97195 -23.26678,-23.97195 0,0 -4.93527,-0.70512 9.87056,-3.52534 14.80651,-2.82023 31.02223,-9.87088 43.0082,-8.46062 9.80321,1.15315 23.26682,-7.05034 23.26682,-7.05034 0,0 21.856481,6.34557 31.022594,11.28084 9.16538,4.93524 38.07224,-3.17296 52.878433,-0.35154 14.806157,2.82019 20.094175,0 33.4897118,-2.82022 13.3962202,-2.81986 25.7345742,-15.15857 41.2458902,-21.50409 15.510957,-6.34557 29.611984,-13.74829 35.252426,-21.50415 5.640402,-7.7551 14.101026,-13.74828 18.331135,-29.96436 4.23047,-16.21608 19.74179,-16.92089 19.74179,-16.92089 z"
         style="fill:#00ffff;fill-rule:evenodd;stroke:#333333;stroke-width:6.97811699;stroke-linecap:butt;stroke-linejoin:miter;stroke-miterlimit:4;stroke-dasharray:none;stroke-opacity:1"
         inkscape:connector-curvature="0" />
      <path
         id="path4151-1-9-6-4"
         d="m 480.90328,166.26212 c 1.05718,-3.17294 -2.82054,-34.90034 -3.87809,-40.89316 -1.0575,-5.9928 -3.17293,-28.90719 -3.17293,-37.367454 0,-8.460971 1.41026,-27.497271 3.52535,-35.957894 2.11541,-8.460611 3.52567,-17.273619 9.16575,-34.195201 2.14437,-6.432785 9.16574,-19.7410946 9.16574,-19.7410946 6.41988,-1.7975693 11.11478,-5.003659 11.28081,-10.9284344 0,-4.582876 -3.87772,-9.51815 -6.69826,-10.223292 -2.81986,-0.704782 -9.16507,0.705142 -11.28085,4.230144 -2.11469,3.525338 -1.76232,11.6335639 -1.76232,11.6335639 L 479.49302,7.2727216 C 472.36626,24.26757 466.37556,41.462346 463.62933,62.619649 c -1.05791,8.460275 -3.52535,31.021913 -4.93563,39.130141 -1.40994,8.10788 -7.40273,31.37466 -9.87056,35.60514 -2.46744,4.23013 -10.92807,15.51096 -12.69109,22.56165 -1.76269,7.05033 -2.46744,9.1654 -0.70481,15.51095 1.76267,6.34521 7.05038,8.46062 12.69113,9.87089 18.19052,-0.16747 28.91139,-7.50182 32.78491,-19.0363 z"
         style="fill:#00ffff;fill-rule:evenodd;stroke:#333333;stroke-width:6.97811699;stroke-linecap:butt;stroke-linejoin:miter;stroke-miterlimit:4;stroke-dasharray:none;stroke-opacity:1"
         inkscape:connector-curvature="0" />
      <path
         id="path4427"
         d="m -72.534975,344.27246 c 0.645513,0.10805 1.391108,-0.036 1.996826,0.13613 2.924152,-3.22426 5.299868,-7.21849 7.230345,-11.31224 1.930515,-4.09369 3.419642,-8.28789 4.558831,-11.92559 2.278689,-7.27571 3.174319,-12.31428 3.502646,-9.81297 2.820903,1.88375 5.246137,2.71171 7.291799,2.75323 2.045277,0.042 3.71513,-0.70444 5.015521,-1.95598 1.300017,-1.25153 2.229169,-3.01384 2.814258,-5.00854 0.585126,-1.99507 0.822711,-4.22385 0.72222,-6.41254 -0.101349,-2.18868 -0.532403,-4.33412 -1.287772,-6.16726 -0.755418,-1.83315 -1.835947,-3.35159 -3.216572,-4.27969 -1.380612,-0.92773 -3.066897,-1.26931 -5.042733,-0.74281 -1.975885,0.52685 -4.23921,1.91933 -6.780312,4.44994 -0.853067,-3.85925 -0.997848,-7.96028 -1.342582,-12.00026 -0.345541,-4.03265 -0.888675,-8.00321 -2.528185,-11.59833 -0.17777,0.0348 -0.353937,0.12908 -0.53172,0.14305 -2.235081,0.19191 -4.407044,-0.0523 -6.310284,-0.83144 -1.783982,-0.73096 -3.262974,-2.03482 -4.395195,-3.78214 -3.104543,0.69711 -6.970093,1.00939 -10.364957,2.0718 -1.804512,0.56453 -3.45484,1.34608 -4.743009,2.50759 -1.288169,1.16151 -2.212428,2.70332 -2.568973,4.80443 1.126247,-2.88858 1.105307,-5.26917 0.401904,-7.10093 -0.703366,-1.8314 -2.089592,-3.10875 -3.693507,-3.79575 -1.603914,-0.68699 -3.426932,-0.78363 -5.001907,-0.23726 -1.574963,0.54533 -2.900095,1.73266 -3.516297,3.59791 -0.69083,2.09273 -0.93958,3.53268 -0.92665,4.55915 0,1.02613 0.28587,1.63741 0.63361,2.05785 0.697081,0.84052 1.69565,0.92773 1.526437,2.10565 -1.107427,1.74732 -2.688657,3.50511 -4.422727,4.98831 -1.7337,1.48319 -3.61605,2.6953 -5.33579,3.35263 -1.71943,0.65769 -3.27554,0.75678 -4.34075,0.0348 -1.06522,-0.72921 -1.64055,-2.28987 -1.41064,-4.96772 -0.25105,0 -0.34954,0.0385 -0.59278,0.0348 -0.036,0.0628 -0.0421,0.19192 -0.0769,0.25121 0.34554,4.34632 1.11717,11.08823 2.52154,17.73837 0.702,3.32507 1.56692,6.63061 2.60981,9.60154 1.0429,2.9713 2.26648,5.60797 3.70017,7.60512 0.98074,0.036 1.5111,-1.37189 2.73957,-2.91651 0.61444,-0.77247 1.40297,-1.57811 2.50796,-2.25568 1.10463,-0.67758 2.52782,-1.22919 4.408766,-1.48565 1.516352,-0.2058 2.861021,-0.0524 4.027435,0.37477 1.166377,0.42882 2.151333,1.1329 2.957674,2.03097 1.612608,1.79583 2.499917,4.36833 2.609823,7.04618 0.111657,2.67783 -0.554784,5.46143 -2.030659,7.69371 -0.737919,1.11617 -1.678236,2.09239 -2.828231,2.84849 -1.149635,0.75569 -2.509319,1.2899 -4.081847,1.51947 3.674329,3.77095 7.426459,6.66132 11.189754,8.91351 3.762947,2.25251 7.539855,3.87144 11.250824,5.11108 0.407878,0.13614 0.744924,0.14655 1.151398,0.27228 z"
         style="fill:#808080;fill-opacity:1;fill-rule:nonzero;stroke:#333333;stroke-width:6.97811699;stroke-linecap:round;stroke-linejoin:round;stroke-miterlimit:4;stroke-dasharray:none;stroke-opacity:1"
         inkscape:connector-curvature="0" />
      <path
         id="path4425"
         d="m -8.7232261,337.06934 c -1.3275779,-2.80661 -2.8191399,-5.50751 -3.9318239,-8.34759 -2.122742,-5.41712 -3.808989,-10.70825 -4.893033,-15.16243 -1.084056,-4.45444 -1.567647,-8.07192 -1.274209,-10.14023 3.574882,-0.21284 6.121871,-1.04148 7.836784,-2.26928 1.7145033,-1.22745 2.6017621,-2.85545 2.8484512,-4.67464 0.2478318,-1.81954 -0.1465454,-3.82505 -0.9745103,-5.81277 -0.8293312,-1.98806 -2.0986459,-3.95694 -3.6118689,-5.69031 -1.512837,-1.73335 -3.26542,-3.23052 -5.069933,-4.2863 -1.804549,-1.05579 -3.65899,-1.66708 -5.363048,-1.62206 -1.704381,0.0453 -3.265421,0.74107 -4.477156,2.31009 -1.211736,1.56939 -2.078414,4.00719 -2.405698,7.52347 -2.550516,-4.31667 -5.149161,-8.62251 -7.993451,-12.75007 -2.833113,-4.1115 -5.913225,-8.04192 -9.417634,-11.63252 -0.101349,0.10471 -0.125717,0.24772 -0.23022,0.3489 -1.631823,1.57182 -3.627208,2.89347 -5.771933,3.87076 -1.974122,0.89949 -4.081847,1.42075 -6.146698,1.66289 1.639523,3.59513 2.184171,7.56568 2.528185,11.59833 0.345529,4.03998 0.489515,8.14101 1.342582,12.00027 2.541077,-2.53062 4.804427,-3.92311 6.780312,-4.44996 1.975836,-0.52649 3.662084,-0.1849 5.042696,0.74283 1.380624,0.92809 2.461203,2.44653 3.216572,4.27968 0.755419,1.83314 1.187678,3.97856 1.287809,6.16726 0.101348,2.18869 -0.136125,4.4175 -0.72222,6.41255 -0.585126,1.9947 -1.514228,3.75701 -2.814258,5.00855 -1.300378,1.25149 -2.970244,1.9971 -5.015558,1.95594 -2.045625,-0.0421 -4.470859,-0.86949 -7.291762,-2.75319 -0.327917,-2.50132 -1.223945,2.53723 -3.502683,9.81297 -1.139152,3.6377 -2.628279,7.8319 -4.558794,11.9256 -1.930477,4.09369 -4.30618,8.08798 -7.230345,11.31223 -0.605706,-0.17097 -1.351313,-0.036 -1.996826,-0.13613 6.986152,2.19045 13.789803,3.24587 19.803208,4.62718 6.186095,0.86284 12.378475,0.73167 18.372343,-0.28589 5.993508,-1.0181 11.789859,-2.92384 17.18607,-5.62193 3.083589,-1.54183 5.665504,-3.88298 8.4501279,-5.92196 z"
         style="fill:#666666;fill-opacity:1;fill-rule:nonzero;stroke:#333333;stroke-width:6.97811699;stroke-linecap:round;stroke-linejoin:round;stroke-miterlimit:4;stroke-dasharray:none;stroke-opacity:1"
         inkscape:connector-curvature="0" />
      <path
         id="path4423"
         d="m 0.7286376,227.69572 c -0.57707775,0.31402 -1.14371016,0.63884 -1.71034256,0.9539 -3.80377244,2.11542 -7.32071374,4.23573 -9.73134204,6.43314 -1.205451,1.0987 -2.130752,2.22113 -2.684803,3.36623 -0.554424,1.14512 -0.734802,2.3143 -0.436146,3.52325 2.884767,1.89177 4.7269871,3.79714 5.7583569,5.6289 1.0309972,1.83175 1.2525728,3.58885 0.8925001,5.19939 -0.3599486,1.61056 -1.3014213,3.07177 -2.5895903,4.29992 -1.2881687,1.22851 -2.9276917,2.22498 -4.6816287,2.90987 -1.75359,0.68491 -3.61988,1.06207 -5.376624,1.04254 -1.756757,-0.0349 -3.398354,-0.43683 -4.695254,-1.322 -1.296851,-0.88483 -2.249018,-2.23859 -2.623386,-4.14989 -0.374766,-1.91166 -0.174565,-4.37668 0.83805,-7.47565 0.710731,-1.34016 0.700969,-2.15904 0.142944,-2.569 -0.557901,-0.41031 -1.663258,-0.4145 -3.161787,-0.11514 -2.997444,0.59734 -7.552424,2.39141 -12.348133,4.4974 -1.56099,0.6856 -1.88723,0.79167 -3.454878,1.51285 0.286285,0.58513 1.024763,1.18001 1.199216,1.75814 0.662193,2.19323 0.539395,4.32644 -0.156953,6.30369 -0.651077,1.8492 -1.877829,3.52221 -3.359628,5.02215 3.50441,3.59058 6.584559,7.52102 9.417671,11.63252 2.844241,4.12756 5.442935,8.4334 7.993414,12.75006 0.327917,-3.51627 1.193963,-5.95407 2.405698,-7.52346 1.211773,-1.56902 2.772775,-2.26474 4.477193,-2.3101 1.704046,-0.0453 3.55845,0.56628 5.363012,1.62206 1.804549,1.05579 3.557095,2.55295 5.06997,4.28631 1.513185,1.73337 2.7825,3.70224 3.6118684,5.69031 0.8289586,1.98771 1.2211374,3.99323 0.9744607,5.81277 -0.2478442,1.81919 -1.1339355,3.44719 -2.8484511,4.67464 -1.714864,1.2278 -4.261902,2.05645 -7.836771,2.26928 -0.293091,2.06834 0.188587,5.68578 1.274196,10.14027 1.084056,4.45412 2.770328,9.74527 4.893082,15.16237 1.112635,2.84013 2.604209,5.541 3.9318121,8.3476 2.0885611,-1.52924 4.4541291,-2.65237 6.3375217,-4.44296 4.3941149,-4.17746 8.1891684,-9.04575 11.1757815,-14.50122 2.0491147,-2.62763 3.7675057,-5.37946 5.1927687,-8.23211 1.425635,-2.85265 2.558527,-5.80754 3.427652,-8.83185 1.738934,-6.04794 2.426998,-12.38372 2.344317,-18.79451 -0.08371,-6.4108 -0.936467,-12.89452 -2.303156,-19.23763 -1.366652,-6.34275 -3.243065,-12.54141 -5.356404,-18.38558 -1.52645,-4.95622 -4.1167232,-9.54538 -7.462018,-13.58814 -1.0886143,-1.31607 -2.6659867,-2.16532 -3.90463652,-3.35961 z"
         style="fill:#4d4d4d;fill-opacity:1;fill-rule:nonzero;stroke:#333333;stroke-width:6.97811699;stroke-linecap:round;stroke-linejoin:round;stroke-miterlimit:4;stroke-dasharray:none;stroke-opacity:1"
         inkscape:connector-curvature="0" />
      <path
         id="path4421"
         d="m -55.109917,222.76882 c -2.93497,2.1367 -5.936251,4.22874 -8.259267,6.94392 -3.229142,3.77377 -5.783459,8.07369 -7.448443,12.79787 -1.664661,4.72383 -2.43573,9.87334 -2.092076,15.35325 -0.03602,3.29331 0.630497,5.86755 1.778728,7.80921 0.07328,0.12209 0.21621,0.13609 0.293091,0.2512 0,0 0,0 0,0 1.132221,1.74733 2.611213,3.05118 4.395195,3.78215 1.90324,0.77945 4.075203,1.02473 6.310284,0.83144 0.177783,0 0.353143,-0.12209 0.53172,-0.14307 0,0 0,0 0,0 2.064851,-0.24075 4.172576,-0.7634 6.146698,-1.66288 2.144725,-0.97728 4.140098,-2.29894 5.771933,-3.87076 0.10495,-0.10122 0.129318,-0.24424 0.23022,-0.34891 0,0 0,0 0,0 1.481799,-1.49994 2.70855,-3.17295 3.35959,-5.02215 0.696075,-1.97724 0.818911,-4.11045 0.156954,-6.30368 -0.174578,-0.57813 -0.911689,-1.17302 -1.199216,-1.75813 0,0 0,0 0,0 -0.803174,-1.63357 -1.554023,-3.27204 -3.352971,-4.90631 0,0 0,0 0,0 1.798948,1.63427 2.549797,3.27274 3.352971,4.90631 1.567647,-0.72119 1.893888,-0.82726 3.454878,-1.51285 4.795708,-2.106 9.350689,-3.90008 12.348132,-4.4974 1.498529,-0.30006 2.603886,-0.29309 3.161787,0.11513 0.557901,0.40997 0.567676,1.22885 -0.142943,2.569 -1.010778,3.09898 -1.212816,5.564 -0.838088,7.47566 0.374356,1.9113 1.326572,3.26506 2.623423,4.14988 1.2969,0.88517 2.938497,1.30281 4.695254,1.322 1.756744,0.0349 3.623034,-0.35762 5.376624,-1.04253 1.753937,-0.6849 3.39346,-1.68137 4.6816291,-2.90987 1.288169,-1.22814 2.2298405,-2.68936 2.5895531,-4.29991 0.3599485,-1.61056 0.1397391,-3.36765 -0.8924628,-5.1994 -1.0314071,-1.83175 -2.8735894,-3.73713 -5.7583574,-5.6289 -0.299897,-1.20896 -0.118488,-2.37814 0.436146,-3.52325 0.554051,-1.1451 1.479353,-2.26754 2.684803,-3.36624 2.4105914,-2.19741 5.9275576,-4.31772 9.73134249,-6.43313 0.5666324,-0.31402 1.1332648,-0.63884 1.71034256,-0.95391 -2.56725885,-2.47513 -5.02252515,-5.0846 -8.09566945,-6.95788 -4.5560246,-2.77693 -9.5669866,-4.83723 -14.7262696,-5.99664 -5.159619,-1.15942 -10.470304,-1.41726 -15.62575,-0.6064 -5.025282,1.2906 -9.818544,3.29891 -14.167648,5.92861 -1.220156,0.73759 -2.078787,1.87188 -3.223217,2.70541 z"
         style="fill:#333333;fill-opacity:1;fill-rule:nonzero;stroke:#333333;stroke-width:6.97811699;stroke-linecap:round;stroke-linejoin:round;stroke-miterlimit:4;stroke-dasharray:none;stroke-opacity:1"
         inkscape:connector-curvature="0" />
      <path
         id="path4419"
         d="m -56.609129,181.48593 c -2.688703,3.36625 -5.894457,6.48686 -9.349658,9.53385 -3.536155,3.11818 -7.303288,6.16761 -10.944108,9.34963 -3.64087,3.18167 -7.155042,6.49838 -10.194676,10.14688 -3.039672,3.64817 -5.606571,7.62603 -7.339258,12.14332 2.171603,-0.24076 3.897272,0.16051 5.233619,1.01532 1.336297,0.85551 2.284613,2.16914 2.896244,3.76852 0.611643,1.59938 0.888314,3.48592 0.885867,5.47888 -0.0025,1.99329 -0.285874,4.09022 -0.790605,6.12643 -1.012553,4.07243 -2.923121,7.88213 -5.288018,10.02406 -1.182436,1.07114 -2.475126,1.72953 -3.829967,1.79233 -1.354803,0.0628 -2.767174,-0.46892 -4.184065,-1.7651 -1.416546,-1.29585 -2.642256,-1.94551 -3.707136,-2.06448 -1.0645,-0.11861 -1.97235,0.2896 -2.75983,1.10393 -1.57461,1.62695 -2.67052,4.8777 -3.58433,8.77011 -0.91413,3.89239 -1.64299,8.43025 -2.4943,12.63423 -0.83076,4.10451 -1.80036,7.81758 -3.13457,10.37854 0.24423,0 0.33833,-0.0419 0.59278,-0.0348 -0.23023,2.67785 0.34553,4.23851 1.41064,4.96772 1.06521,0.72956 2.62132,0.63047 4.34075,-0.0349 1.71974,-0.65734 3.60209,-1.86943 5.33579,-3.35264 1.73407,-1.48319 3.3153,-3.24099 4.422727,-4.9883 0.170976,-1.17791 -0.829356,-1.26513 -1.526437,-2.10564 -0.34914,-0.42044 -0.62072,-1.03172 -0.63361,-2.05785 0,-1.02649 0.23702,-2.46642 0.92665,-4.55915 0.616202,-1.86525 1.941334,-3.05258 3.516297,-3.59792 1.574975,-0.54534 3.397993,-0.44869 5.001907,0.23727 1.603915,0.687 2.990141,1.96434 3.693507,3.79575 0.703403,1.83175 0.724343,4.21233 -0.401904,7.10093 0.356744,-2.10111 1.280804,-3.64292 2.568973,-4.80444 1.288169,-1.1615 2.938497,-1.94305 4.743009,-2.50758 3.394864,-1.06242 7.260414,-1.37469 10.364957,-2.07181 -0.07688,-0.11513 -0.219812,-0.13256 -0.293091,-0.2512 -1.148231,-1.94167 -1.808027,-4.51589 -1.778728,-7.80921 -0.345529,-5.47991 0.427415,-10.62942 2.092076,-15.35325 1.664984,-4.72419 4.219301,-9.0241 7.448443,-12.79787 2.323016,-2.71518 5.324297,-4.80722 8.259267,-6.94392 0.150148,-4.99982 0.422894,-10.27598 1.144791,-11.61891 1.89,0.36183 3.463212,0.27911 4.749654,-0.12909 1.286418,-0.40787 2.285309,-1.13359 3.019055,-2.04458 1.467504,-1.8213 1.881666,-4.38785 1.444489,-6.62364 -0.219812,-1.11789 -0.648953,-2.14926 -1.267229,-2.97127 -0.61825,-0.82168 -1.424952,-1.43017 -2.392085,-1.68975 -0.966822,-0.25822 -2.094845,-0.17445 -3.359627,0.3953 -1.264794,0.56906 -2.665639,1.62032 -4.177098,3.28459 0.686301,-6.32705 -0.06968,-12.87776 -0.640594,-19.4829 0,-0.13256 0,-0.26866 -0.03602,-0.40228 z"
         style="fill:#999999;fill-opacity:1;fill-rule:nonzero;stroke:#333333;stroke-width:6.97811699;stroke-linecap:round;stroke-linejoin:round;stroke-miterlimit:4;stroke-dasharray:none;stroke-opacity:1"
         inkscape:connector-curvature="0" />
      <path
         id="path4417"
         d="m -56.609129,181.48593 c 0,0.13257 0,0.26866 0.03602,0.40229 0.571874,6.60514 1.326883,13.15584 0.640583,19.4829 1.511471,-1.66427 2.912303,-2.71553 4.177097,-3.2846 1.264794,-0.56906 2.392805,-0.6549 3.359628,-0.3953 0.967182,0.25817 1.773846,0.86808 2.392085,1.68975 0.618275,0.82202 1.04882,1.85339 1.267228,2.97128 0.43719,2.23579 0.03602,4.80234 -1.444439,6.62363 -0.733758,0.911 -1.732687,1.63672 -3.019092,2.04459 -1.286418,0.40753 -2.859629,0.49126 -4.749667,0.12908 -0.721896,1.34294 -0.993004,6.6191 -1.144753,11.61892 1.144393,-0.83354 2.003073,-1.96784 3.22318,-2.70542 4.349104,-2.62971 9.142365,-4.63801 14.167685,-5.92861 5.155421,-0.81085 10.466144,-0.55301 15.62575,0.6064 5.159259,1.15942 10.170246,3.2197 14.7262324,5.99665 3.0731939,1.87327 5.528423,4.48273 8.09566946,6.95787 3.29576314,-1.8 6.72377624,-3.59023 9.77217914,-5.43804 3.581849,-2.17159 6.643145,-4.40808 8.388711,-6.77366 1.745579,-2.36558 2.933976,-3.13178 3.815994,-2.79404 0.882055,0.33845 1.461219,1.78047 1.989808,3.82297 0.528963,2.04249 1.01115,4.6851 1.697091,7.43483 0.685953,2.74937 1.576701,5.60308 2.930089,8.06147 1.517399,2.98593 3.393462,5.00052 5.465276,6.22168 2.072174,1.22118 4.339338,1.64649 6.630605,1.45145 2.291267,-0.19539 4.605196,-1.00624 6.780631,-2.26928 2.175074,-1.26269 4.211293,-2.97163 5.935249,-4.95411 1.724275,-1.98214 3.137729,-4.23642 4.075201,-6.58979 0.937511,-2.35303 1.397398,-4.80653 1.213179,-7.18223 -0.18498,-2.37605 -1.009381,-4.67568 -2.651017,-6.7262 -1.641916,-2.05017 -4.102748,-3.85052 -7.537045,-5.22661 -4.882587,-0.88064 -7.487158,-1.93886 -8.524806,-3.12794 -0.518825,-0.59453 -0.646549,-1.22292 -0.470338,-1.88095 0.177772,-0.65803 0.655597,-1.34574 1.349232,-2.05785 2.775537,-2.84917 8.987455,-6.09433 12.947864,-9.44523 4.061269,-2.55679 8.022758,-4.79466 12.000305,-7.2234 -5.161378,-4.48867 -10.659801,-8.56843 -16.545843,-12.06829 -1.865573,-1.68662 -5.592595,-2.87814 -9.744591,-3.78913 -4.151956,-0.911 -8.734129,-1.53902 -12.320897,-2.09866 -3.586767,-0.56 -6.173886,-1.05056 -6.344166,-1.68348 -0.170964,-0.63256 2.079507,-1.41167 8.177307,-2.54177 3.428014,-0.94449 6.172841,-2.20474 8.313723,-3.67992 2.140881,-1.47482 3.675372,-3.16004 4.674984,-4.96771 0.999291,-1.80768 1.467506,-3.734 1.47171,-5.6767 0,-1.94236 -0.456363,-3.906 -1.301425,-5.78556 -0.845061,-1.87955 -2.077019,-3.67572 -3.625483,-5.29465 -1.548106,-1.61892 -3.407433,-3.0578 -5.51308,-4.21827 -2.105286,-1.16045 -4.454129,-2.04423 -6.971136,-2.54875 -2.517006,-0.50417 -5.204617,-0.62908 -7.986806,-0.27912 -5.56433,0.69957 -10.5383173,1.74837 -14.8759329,3.19598 -4.33793854,1.44797 -8.0387727,3.29576 -11.0669188,5.60169 -3.0281833,2.30591 -5.3832683,5.06785 -7.0189413,8.34094 -1.636033,3.27343 -2.55156,7.05767 -2.712401,11.40782 -0.08011,2.17508 -0.589647,3.9681 -1.437832,5.4719 -0.848222,1.50413 -2.0397,2.71902 -3.482102,3.72771 -2.885091,2.01771 -6.784797,3.22213 -11.005539,4.31352 -4.220704,1.09137 -8.759961,2.06795 -12.927284,3.63908 -2.083668,0.78574 -4.071042,1.7201 -5.880845,2.88929 -1.810114,1.16918 -3.441936,2.57806 -4.804427,4.3069 -0.06285,0.0802 -0.153352,0.14654 -0.216211,0.22329 z"
         style="fill:#b3b3b3;fill-opacity:1;fill-rule:nonzero;stroke:#333333;stroke-width:6.97811699;stroke-linecap:round;stroke-linejoin:round;stroke-miterlimit:4;stroke-dasharray:none;stroke-opacity:1"
         inkscape:connector-curvature="0" />
      <path
         id="path4415"
         d="m -153.87364,290.87348 c 2.55993,-1.49401 4.86445,-2.76297 6.37872,-3.30518 1.81501,-0.64966 2.96012,-0.68385 3.65933,-0.28612 0.69919,0.39776 0.94972,1.22781 0.95388,2.32372 0,1.09591 -0.23382,2.45978 -0.50417,3.90495 -0.54008,2.88999 -1.20753,6.12853 -0.32112,8.32036 0.44384,1.09626 1.27389,1.92596 2.70544,2.32372 1.43155,0.3981 3.46325,0.36355 6.30333,-0.28613 2.16498,-0.94657 3.71408,-2.0568 4.81107,-3.26401 1.09731,-1.20757 1.74381,-2.51666 2.11262,-3.87076 0.73795,-2.70821 0.36195,-5.59017 0.22341,-8.1979 -0.0697,-1.30385 -0.0801,-2.53863 0.14295,-3.64571 0.22341,-1.10743 0.67373,-2.08645 1.52643,-2.88266 0.85275,-0.7962 2.10917,-1.40818 3.93183,-1.77873 1.67582,-0.34192 3.98242,-0.41833 6.75344,-0.30701 1.33422,-2.56097 2.30379,-6.27403 3.13457,-10.37856 0.8513,-4.20396 1.58018,-8.74182 2.4943,-12.63423 0.91381,-3.89239 2.00972,-7.14314 3.58432,-8.77009 0.78749,-0.81365 1.69533,-1.22326 2.75985,-1.10394 1.06488,0.11861 2.29058,0.76864 3.707115,2.06447 1.416904,1.2962 2.829275,1.82793 4.184078,1.76512 1.354828,-0.0627 2.64753,-0.72119 3.829954,-1.79233 2.364897,-2.14193 4.275477,-5.95163 5.288018,-10.02406 0.506258,-2.03622 0.788171,-4.13314 0.790618,-6.12644 0.0025,-1.99295 -0.275467,-3.87949 -0.885868,-5.47887 -0.611631,-1.59938 -1.559959,-2.91301 -2.896256,-3.76853 -1.336335,-0.85517 -3.062016,-1.25466 -5.233606,-1.01531 1.732686,-4.51729 4.299585,-8.49517 7.339257,-12.14332 3.039635,-3.64852 6.553806,-6.96521 10.194664,-10.14688 3.64082,-3.18203 7.407965,-6.23146 10.94412,-9.34963 3.455201,-3.04699 6.660955,-6.1676 9.349646,-9.53385 -0.26866,-3.16981 -0.506606,-6.34938 -0.497564,-9.52652 0,-3.31148 0.268661,-6.61561 0.981478,-9.89498 2.297555,0.99438 4.580095,1.09767 6.664433,0.55198 2.084748,-0.54535 3.966017,-1.73895 5.451666,-3.33904 1.485998,-1.59973 2.578785,-3.60942 3.08015,-5.77858 0.501724,-2.16914 0.412038,-4.50018 -0.456367,-6.75342 -0.693268,-1.7979 -1.705809,-2.76473 -2.841843,-3.20958 -1.136022,-0.4452 -2.388955,-0.36704 -3.557096,-0.0627 -2.336269,0.61128 -4.327121,2.11925 -4.327121,2.11925 1.018105,-4.12232 2.37743,-7.49589 3.911555,-10.34436 1.533815,-2.84881 3.237513,-5.16799 4.947172,-7.19618 3.325398,-3.94508 6.59293,-6.76667 8.688807,-10.13327 -6.003271,3.74899 -11.96399,7.56497 -17.575082,11.81639 -7.070596,5.35781 -13.82192,11.07706 -20.232386,17.05696 -6.410067,5.97955 -12.481053,12.21833 -18.188078,18.62425 -5.707074,6.40591 -11.053024,12.97616 -16.014094,19.61233 -4.96109,6.63584 -9.53838,13.33764 -13.71096,20.00731 -4.17257,6.67004 -7.93691,13.30902 -11.27804,19.81681 -3.34145,6.50814 -6.26212,12.89032 -8.72961,19.04014 -4.83201,12.16216 -8.74113,24.24442 -11.71418,36.16479 -0.91413,3.66455 -1.13151,7.18396 -1.86734,10.81469 z"
         style="fill:#f2f2f2;fill-opacity:1;fill-rule:nonzero;stroke:#333333;stroke-width:6.97811699;stroke-linecap:round;stroke-linejoin:round;stroke-miterlimit:4;stroke-dasharray:none;stroke-opacity:1"
         inkscape:connector-curvature="0" />
      <path
         id="path4413"
         d="m -126.77866,430.70167 c 1.73548,-6.96065 3.66284,-12.48978 5.80581,-17.02971 2.23577,-4.73606 4.68022,-8.58835 7.2984,-12.46364 -2.13214,-1.07185 -4.06787,-2.43012 -5.78553,-3.99357 -1.71731,-1.56343 -3.22113,-3.32891 -4.47719,-5.21999 -2.51177,-3.78179 -4.05115,-8.06148 -4.43632,-12.17087 -0.19178,-2.05436 -0.094,-4.06511 0.31391,-5.95583 0.40924,-1.89036 1.12973,-3.65722 2.18728,-5.21999 1.05787,-1.56272 2.45174,-2.92244 4.20465,-3.99321 1.75291,-1.07079 3.86308,-1.85408 6.3581,-2.26928 2.4947,-0.4152 4.60872,-0.26866 6.39894,0.25825 1.78989,0.52688 3.25741,1.4368 4.47019,2.54877 2.42595,2.22359 3.82612,5.2587 4.708854,7.6801 0.8827,2.42107 1.247654,4.22319 1.608435,3.98627 0.360756,-0.23743 0.714544,-2.51456 1.573895,-8.26591 0.85971,-5.75139 2.361779,-10.29241 4.266112,-13.83345 1.903961,-3.54141 4.211974,-6.08143 6.691981,-7.82317 2.479684,-1.74209 5.133822,-2.68656 7.720581,-3.03931 1.882709,-0.25825 3.611185,0.0837 5.335823,0.37477 -0.406474,-0.12572 -0.74352,-0.13614 -1.151398,-0.27227 -3.710919,-1.23964 -7.487839,-2.85858 -11.250812,-5.11113 -3.763295,-2.25218 -7.515424,-5.14251 -11.189754,-8.9135 1.572529,-0.23023 2.932213,-0.76374 4.081848,-1.51948 1.149994,-0.75605 2.090312,-1.73232 2.828231,-2.84845 1.475875,-2.23232 2.140912,-5.01587 2.030646,-7.69371 -0.111657,-2.67789 -0.997165,-5.25034 -2.60981,-7.04617 -0.806342,-0.89808 -1.79131,-1.60216 -2.957675,-2.03097 -1.166414,-0.42846 -2.511082,-0.58129 -4.027434,-0.37477 -1.880958,0.25464 -3.304133,0.80806 -4.408773,1.48564 -1.10499,0.67758 -1.89351,1.4832 -2.50791,2.25568 -1.22852,1.54458 -1.75883,2.95139 -2.73963,2.91651 -1.43367,-1.99714 -2.65725,-4.63382 -3.70015,-7.60511 -1.04286,-2.97094 -1.90782,-6.27648 -2.60982,-9.60154 -1.40433,-6.65015 -2.17788,-13.39206 -2.52153,-17.73838 0.036,-0.0592 0.0421,-0.19191 0.0769,-0.2512 -2.77101,-0.11166 -5.07761,-0.0349 -6.7534,0.30701 -1.82269,0.37052 -3.07912,0.98253 -3.93182,1.77873 -0.85275,0.7962 -1.30423,1.77523 -1.52649,2.88266 -0.22341,1.10707 -0.2126,2.34184 -0.14293,3.64571 0.13612,2.60773 0.51289,5.48969 -0.22341,8.1979 -0.36877,1.3541 -1.01532,2.66319 -2.11262,3.87076 -1.09695,1.20721 -2.64609,2.31742 -4.81108,3.26401 -2.84008,0.64967 -4.87174,0.68421 -6.30332,0.28611 -1.43155,-0.39774 -2.2616,-1.22744 -2.7054,-2.32371 -0.88726,-2.19182 -0.21981,-5.43036 0.32111,-8.32035 0.26867,-1.44517 0.50834,-2.80904 0.50417,-3.90496 0,-1.09591 -0.25464,-1.92595 -0.95392,-2.32371 -0.6992,-0.39774 -1.84431,-0.36355 -3.65932,0.28612 -1.51427,0.54221 -3.81879,1.81117 -6.37867,3.30518 -1.65661,8.17941 -3.47094,16.39786 -4.2113,24.362 -1.06908,11.49958 -1.1727,22.74376 -0.29308,33.64359 0.87993,10.89979 2.74866,21.45073 5.62225,31.57176 2.87325,10.12144 6.75446,19.81194 11.66634,28.97561 2.45595,4.58181 5.1694,9.03422 8.14348,13.34285 1.88896,2.73718 4.06719,5.3128 6.16728,7.93238 z"
         style="fill:#ececec;fill-opacity:1;fill-rule:nonzero;stroke:#333333;stroke-width:6.97811699;stroke-linecap:round;stroke-linejoin:round;stroke-miterlimit:4;stroke-dasharray:none;stroke-opacity:1"
         inkscape:connector-curvature="0" />
      <path
         id="path4411"
         d="m 73.133212,455.11812 c -2.045628,-4.01175 -4.224546,-7.92751 -6.69863,-11.60496 -2.855456,-4.24513 -5.977811,-8.27189 -9.336035,-12.09588 -6.716408,-7.64835 -14.364442,-14.48375 -22.658264,-20.60742 0.05926,1.79198 -0.237431,3.55189 -0.831447,5.2336 -0.59594,1.68172 -1.494734,3.28282 -2.637044,4.74966 -2.284984,2.93392 -5.554242,5.33265 -9.376831,6.78062 -1.911661,0.72398 -3.964974,1.2149 -6.099254,1.41062 -2.133869,0.19538 -4.3477,0.0978 -6.596407,-0.34194 -2.2486694,-0.43682 -4.531929,-1.21069 -6.7872432,-2.38512 -2.25566198,-1.17405 -4.4831178,-2.74726 -6.6376052,-4.76323 -2.1541396,-2.016 -3.8097092,-4.31282 -5.0085525,-6.77365 -1.1988061,-2.46084 -1.9402401,-5.08183 -2.2762541,-7.74154 -0.335121,-2.65937 -0.265059,-5.36164 0.170975,-7.97287 0.434743,-2.61117 1.23095,-5.13169 2.3439573,-7.44843 1.1133553,-2.31673 2.5393383,-4.4255 4.2388381,-6.20111 1.6995246,-1.77556 3.6736465,-3.21688 5.86722008,-4.20464 2.19357362,-0.98777 4.60764222,-1.52541 7.20315702,-1.47869 2.5955275,0.0452 5.3679045,0.67618 8.2728805,2.00344 1.803879,0.91131 3.043522,1.28957 3.815994,1.24701 0.772831,-0.042 1.079175,-0.50837 1.028923,-1.28781 -0.101349,-1.55892 -1.634269,-4.3767 -3.775157,-7.58489 -4.281762,-6.41604 -10.9807475,-14.39621 -13.4178803,-17.01579 -3.1830503,-3.0721 -6.2680931,-7.43935 -9.0907104,-12.39557 -1.3422712,-2.35757 -2.3663007,-5.02496 -3.5707082,-7.57127 -2.7846361,2.03901 -5.3665391,4.38017 -8.4501411,5.92199 -5.396198,2.6981 -11.192561,4.60379 -17.186057,5.62191 -5.993868,1.0181 -12.186248,1.14931 -18.372343,0.28627 -6.013405,-1.3813 -12.817055,-2.43676 -19.803207,-4.62718 -1.724639,-0.28948 -3.453115,-0.63153 -5.335824,-0.37475 -2.586759,0.35273 -5.240896,1.29721 -7.720581,3.03931 -2.48002,1.74173 -4.78802,4.28176 -6.691993,7.82316 -1.904333,3.54105 -3.406389,8.08206 -4.2661,13.83341 -0.859363,5.75135 -1.213139,8.02905 -1.573895,8.26591 -0.360743,0.23744 -0.725747,-1.56516 -1.608448,-3.98624 -0.882735,-2.42139 -2.282895,-5.45653 -4.708855,-7.6801 -1.21278,-1.11196 -2.68028,-2.02193 -4.47019,-2.54875 -1.79021,-0.52688 -3.90422,-0.67411 -6.39894,-0.25826 -2.49502,0.41521 -4.60519,1.19852 -6.35809,2.26929 -1.7529,1.07081 -3.14678,2.43048 -4.20465,3.99324 -1.05754,1.56276 -1.77805,3.3296 -2.18728,5.22 -0.40928,1.89072 -0.50594,3.90143 -0.31391,5.95578 0.38518,4.10944 1.92456,8.38911 4.43631,12.17091 1.25606,1.89108 2.75988,3.65651 4.47719,5.21996 1.71767,1.56347 3.65339,2.92176 5.78555,3.9936 -2.61818,3.87529 -5.06265,7.72755 -7.29841,12.46359 -2.14297,4.53998 -4.07032,10.06907 -5.80581,17.02975 1.20582,1.50414 2.26092,3.09482 3.53652,4.5588 3.49779,4.01382 7.25829,7.86817 11.28501,11.56448 4.02707,3.69599 8.31793,7.23351 12.879514,10.58965 4.561961,3.35615 9.392533,6.53327 14.494609,9.52685 5.102399,2.99363 10.475185,5.80024 16.123276,8.40934 7.390503,3.35719 15.589794,5.70255 24.253127,7.13478 8.663345,1.43228 17.790372,1.94902 27.040209,1.66954 9.2498251,-0.27907 18.6259879,-1.35728 27.776042,-3.1346 9.150054,-1.77765 18.076805,-4.25038 26.440453,-7.31236 8.36397,-3.06165 16.638933,-6.72305 24.566799,-11.01218 4.062308,-2.19809 7.673459,-5.04514 11.516314,-7.57788 z"
         style="fill:#e6e6e6;fill-opacity:1;fill-rule:nonzero;stroke:#333333;stroke-width:6.97811699;stroke-linecap:round;stroke-linejoin:round;stroke-miterlimit:4;stroke-dasharray:none;stroke-opacity:1"
         inkscape:connector-curvature="0" />
      <path
         id="path4409"
         d="m 124.41298,367.17604 c 0,-0.75885 0,-1.10007 0,-1.86037 -0.35435,-17.60471 -0.90508,-35.26216 -1.22644,-43.41539 -0.32111,-8.13824 -1.06727,-16.24088 -2.46711,-24.21894 -1.3998,-7.97843 -3.45312,-15.83125 -6.38533,-23.4695 -1.04077,2.6618 -2.41687,4.82049 -4.03404,6.52175 -1.61717,1.70092 -3.48034,2.94302 -5.49246,3.76156 -2.01252,0.81817 -4.17294,1.21348 -6.39894,1.2264 -2.226004,0 -4.514829,-0.35483 -6.773664,-1.06975 -2.258796,-0.7149 -4.486561,-1.77663 -6.596411,-3.14154 -2.110171,-1.36493 -4.100706,-3.03689 -5.881157,-4.97471 -1.78013,-1.93782 -3.350898,-4.1429 -4.62021,-6.57582 -1.269314,-2.43328 -2.237535,-5.09508 -2.814616,-7.94599 -0.576762,-2.85056 -0.704806,-5.5469 -0.46337,-8.07507 0.240633,-2.52818 0.853108,-4.88398 1.758149,-7.0465 0.905079,-2.16217 2.102843,-4.13419 3.516617,-5.88779 1.413414,-1.75326 3.043878,-3.29158 4.811077,-4.593 3.534075,-2.60283 7.620807,-4.2549 11.639152,-4.79047 2.009353,-0.26866 3.996725,-0.25818 5.89477,0.0558 1.897683,0.31403 3.704323,0.92844 5.335783,1.86734 -3.06722,-6.21506 -6.487542,-12.34358 -10.269658,-18.26312 -3.782157,-5.91953 -7.926465,-11.62868 -12.436769,-17.00915 -4.509943,-5.38049 -9.386604,-10.4288 -14.637627,-15.02633 -0.104504,-0.0908 -0.230224,-0.15351 -0.335126,-0.24424 -3.977506,2.42873 -7.938997,4.66661 -12.000264,7.2234 -3.960409,3.35088 -10.172368,6.59606 -12.947905,9.44523 -0.693594,0.71211 -1.173021,1.3998 -1.349192,2.05785 -0.178174,0.65803 -0.04885,1.2864 0.470298,1.88094 1.037648,1.18907 3.642219,2.2473 8.524845,3.12794 3.434258,1.37608 5.89509,3.17645 7.537046,5.2266 1.641596,2.05053 2.466397,4.35018 2.650977,6.72621 0.184979,2.37571 -0.275468,4.82921 -1.213139,7.18223 -0.937512,2.35337 -2.350925,4.60766 -4.075201,6.58979 -1.723955,1.98248 -3.760176,3.69142 -5.935249,4.95412 -2.175434,1.26303 -4.489364,2.07458 -6.780631,2.26927 -2.291267,0.19539 -4.558471,-0.23026 -6.630605,-1.45144 -2.071814,-1.22118 -3.947878,-3.23575 -5.465275,-6.2217 -1.353388,-2.45838 -2.244174,-5.31208 -2.930127,-8.06146 -0.68594,-2.74972 -1.168128,-5.39234 -1.697053,-7.43483 -0.528589,-2.04249 -1.107791,-3.48523 -1.989808,-3.82296 -0.882055,-0.33845 -2.070415,0.42844 -3.815994,2.79404 -1.745566,2.36558 -4.806874,4.60206 -8.388748,6.77365 -3.048366,1.84781 -6.476379,3.63804 -9.77214215,5.43804 1.23860015,1.19431 2.81602215,2.04354 3.90459925,3.35962 3.3453321,4.04277 5.9356059,8.63193 7.4620549,13.58814 2.113327,5.84416 3.989752,12.04283 5.356404,18.38559 1.366652,6.34311 2.220439,12.82683 2.30312,19.23762 0.08371,6.4108 -0.605347,12.74657 -2.34428,18.7945 -0.869126,3.02432 -2.00203,5.97923 -3.427653,8.83188 -1.4253,2.85265 -3.143654,5.60448 -5.1927684,8.23208 -2.9866627,5.4555 -6.7817162,10.32379 -11.1758187,14.50121 -1.8833926,1.79058 -4.248973,2.91371 -6.3375217,4.44301 1.2044074,2.5463 2.2284494,5.21365 3.5707082,7.57124 2.8226297,4.95621 5.90766006,9.32345 9.0907227,12.39556 2.4371205,2.61959 9.1361189,10.59979 13.4178809,17.01578 2.140875,3.2082 3.67505,6.02597 3.775181,7.58489 0.04881,0.77944 -0.254638,1.24557 -1.02896,1.28781 -0.772472,0.0416 -2.012115,-0.33512 -3.815945,-1.24701 -2.905025,-1.32721 -5.677402,-1.95702 -8.272917,-2.00342 -2.5955272,-0.0452 -5.0095959,0.4909 -7.20316946,1.47867 -2.19357364,0.98776 -4.16768304,2.42908 -5.86718284,4.20469 -1.6995246,1.77556 -3.1255076,3.88433 -4.2388753,6.20106 -1.1130074,2.31677 -1.9092144,4.83727 -2.3439574,7.44845 -0.434705,2.61121 -0.506618,5.31351 -0.170963,7.97287 0.335121,2.6597 1.077449,5.28069 2.2762919,7.74152 1.1988432,2.46083 2.8543756,4.75766 5.0085401,6.77367 2.1544625,2.01595 4.38190588,3.58916 6.6375803,4.76326 2.2553018,1.17438 4.5385613,1.94825 6.787268,2.38512 2.2486697,0.43714 4.4625007,0.5366 6.5964197,0.34193 2.13423,-0.19538 4.187543,-0.68663 6.099204,-1.41061 3.822601,-1.44797 7.09186,-3.8467 9.376835,-6.78063 1.14231,-1.46679 2.041103,-3.06795 2.637042,-4.74966 0.595941,-1.68171 0.890066,-3.44162 0.831449,-5.2336 8.293822,6.12367 15.941856,12.95908 22.658264,20.60743 3.358224,3.82403 6.480578,7.85075 9.336035,12.09587 2.474084,3.67746 4.653002,7.59322 6.69863,11.60496 3.656915,-2.4099 7.562912,-4.48935 10.958091,-7.2098 6.963489,-5.57971 13.309377,-11.82022 18.780898,-18.75367 2.73578,-3.46673 5.25278,-7.10688 7.5165,-10.92354 2.26368,-3.81702 4.27792,-7.81199 6.0036,-11.98702 1.88411,-6.21123 3.18621,-11.27872 4.35435,-17.1316 1.1685,-5.85325 2.2037,-12.49051 3.55049,-21.82721 l 0.11531,-0.10806 z"
         style="fill:#cccccc;fill-opacity:1;fill-rule:nonzero;stroke:#333333;stroke-width:6.97811699;stroke-linecap:round;stroke-linejoin:round;stroke-miterlimit:4;stroke-dasharray:none;stroke-opacity:1"
         inkscape:connector-curvature="0" />
      <path
         id="path4407"
         d="m 202.78071,124.23677 c -6.60062,0.26866 -14.68407,1.43017 -21.95002,2.93709 -7.45264,1.54565 -13.98519,3.39659 -17.0022,4.83164 3.01177,-0.8255 6.01897,-1.13534 8.96795,-1.00171 2.94895,0.13257 5.83964,0.71002 8.60681,1.66289 2.76717,0.95251 5.41186,2.2787 7.87758,3.91123 2.46571,1.63289 4.74897,3.57175 6.79424,5.74474 2.04495,2.17333 3.85086,4.58148 5.35605,7.15535 1.50554,2.57388 2.71099,5.31489 3.55745,8.15045 0.84611,2.83521 1.33594,5.76532 1.40365,8.72265 0.0665,2.95698 -0.28628,5.93942 -1.11753,8.87931 -0.35875,3.00338 -1.1186,5.7196 -2.21487,8.14346 -1.09591,2.42384 -2.52818,4.55601 -4.23187,6.39858 -1.70338,1.84291 -3.67257,3.39415 -5.85361,4.6544 -2.181,1.26025 -4.57205,2.22706 -7.10091,2.90325 -2.52853,0.67583 -5.19905,1.06136 -7.94564,1.15139 -2.74659,0.0908 -5.56785,-0.11514 -8.40237,-0.61304 -2.83451,-0.49719 -5.67807,-1.28571 -8.47039,-2.3715 -2.79263,-1.0858 -5.53642,-2.46712 -8.15705,-4.14327 -2.62098,-1.67614 -4.63662,-3.76364 -6.21508,-6.11283 -1.57841,-2.34917 -2.71344,-4.9555 -3.57067,-7.6665 -1.71454,-5.42165 -2.3094,-11.25744 -3.06654,-16.25936 -0.37837,-2.50096 -0.79657,-4.79676 -1.41762,-6.72585 -0.62068,-1.92946 -1.44584,-3.49221 -2.63039,-4.53858 -1.18419,-1.04636 -2.7281,-1.57217 -4.79747,-1.42423 -2.06901,0.14655 -4.66381,0.97066 -7.93899,2.62342 -13.10002,6.61176 -24.71927,12.85021 -35.844484,19.18983 -7.064306,4.02567 -13.96041,8.33431 -20.879935,12.55921 0.104503,0.0907 0.230224,0.1535 0.335126,0.24423 5.251023,4.59753 10.127684,9.64586 14.637628,15.02633 4.510303,5.38047 8.654611,11.08962 12.436768,17.00916 3.782116,5.91953 7.202437,12.04806 10.269707,18.26313 -1.63151,-0.93892 -3.43815,-1.55334 -5.335831,-1.86735 -1.898046,-0.31403 -3.885418,-0.321 -5.894771,-0.0558 -4.018345,0.53557 -8.105077,2.18763 -11.639152,4.79048 -1.767199,1.30142 -3.397663,2.83974 -4.811077,4.59298 -1.413733,1.7536 -2.611538,3.72563 -3.516617,5.88779 -0.90504,2.16252 -1.516314,4.51834 -1.75811,7.0465 -0.240634,2.52817 -0.115308,5.22453 0.463331,8.07508 0.577081,2.85091 1.545302,5.51272 2.814616,7.94598 1.269314,2.43292 2.84012,4.63801 4.62021,6.57583 1.78049,1.93783 3.770986,3.60978 5.881157,4.97471 2.10985,1.36491 4.337615,2.42663 6.596411,3.14154 2.258835,0.7149 4.54766,1.083 6.773664,1.06975 2.226039,0 4.386469,-0.40823 6.398939,-1.22641 2.01216,-0.81854 3.87529,-2.06064 5.49246,-3.76155 1.61721,-1.70127 2.99327,-3.85995 4.03408,-6.52175 2.93217,7.63824 4.98549,15.49107 6.38533,23.4695 1.3998,7.97806 2.14608,16.08068 2.46708,24.21892 0.32111,8.15325 0.87192,25.81069 1.22643,43.4154 0,0.7603 0,1.10151 0,1.86037 l 12.81145,-12.25916 c 12.59724,-10.45256 25.93209,-19.93511 39.32694,-29.34374 13.39446,-9.40857 26.8483,-18.74353 39.68802,-28.90053 21.11929,-15.12611 42.94751,-29.25296 63.63449,-44.98303 -1.06836,-9.03945 -2.51248,-18.0953 -4.47715,-27.01298 -1.96503,-8.91734 -4.44924,-17.69616 -7.58485,-26.16795 -3.13565,-8.47142 -6.9293,-16.63303 -11.50971,-24.33477 -4.58045,-7.70141 -9.94699,-14.94015 -16.24611,-21.54739 -4.08745,-4.48239 -8.47143,-8.65774 -13.40427,-12.68202 -4.93247,-4.02428 -10.4138,-7.89609 -16.71609,-11.78255 -2.0861,-1.28642 -4.8805,-2.63041 -7.15499,-3.9252 z"
         style="fill:#ffffff;fill-opacity:1;fill-rule:nonzero;stroke:#333333;stroke-width:6.97811699;stroke-linecap:round;stroke-linejoin:round;stroke-miterlimit:4;stroke-dasharray:none;stroke-opacity:1"
         inkscape:connector-curvature="0" />
      <path
         id="path4405"
         d="m 82.912358,89.196499 c -7.254812,-0.05924 -14.636587,0.170976 -22.072494,0.69502 -7.435868,0.523708 -14.931754,1.342246 -22.426598,2.460135 -7.494846,1.117901 -14.988655,2.529228 -22.419995,4.252128 -7.4313397,1.722887 -14.7995482,3.753518 -22.0452691,6.092238 -8.2638259,3.52535 -16.2506329,7.61103 -23.9394679,12.15029 -1.587184,0.93716 -3.01072,2.09832 -4.572406,3.07352 -2.095877,3.36659 -5.363409,6.18819 -8.688806,10.13327 -1.70966,2.02818 -3.413358,4.34736 -4.94716,7.19619 -1.534138,2.84846 -2.89345,6.22202 -3.911567,10.34435 0,0 1.990852,-1.50797 4.327133,-2.11925 1.168128,-0.30705 2.421074,-0.38381 3.557096,0.0627 1.136022,0.44485 2.148563,1.41167 2.841843,3.20958 0.868405,2.25324 0.958091,4.58428 0.456354,6.75342 -0.501364,2.16914 -1.594139,4.17885 -3.080149,5.77858 -1.48565,1.60009 -3.366918,2.79369 -5.451654,3.33903 -2.084351,0.54568 -4.36689,0.44241 -6.664445,-0.55196 -0.712085,3.27936 -0.971704,6.5835 -0.981466,9.89496 0,3.17713 0.226618,6.35672 0.497564,9.52653 0.06285,-0.0802 0.156941,-0.14655 0.21621,-0.22329 1.362479,-1.72884 2.994301,-3.13772 4.804427,-4.3069 1.809791,-1.16919 3.797165,-2.10356 5.880833,-2.88929 4.167335,-1.57113 8.70658,-2.54771 12.927284,-3.6391 4.220742,-1.09137 8.120448,-2.29579 11.005539,-4.31352 1.442402,-1.00868 2.633918,-2.22357 3.482103,-3.72771 0.848184,-1.50377 1.357597,-3.29681 1.437844,-5.47189 0.160555,-4.35016 1.076355,-8.13439 2.712388,-11.40782 1.635673,-3.27309 3.990758,-6.03502 7.0189415,-8.34095 3.028146,-2.30591 6.7289802,-4.15372 11.0669188,-5.60167 4.3376156,-1.44761 9.3116157,-2.49643 14.8759817,-3.19598 2.78214,-0.34962 5.4698,-0.2233 7.986807,0.27912 2.517007,0.5045 4.865805,1.38828 6.971131,2.54875 2.105647,1.16045 3.964934,2.59934 5.513039,4.21827 1.548465,1.61892 2.780422,3.41508 3.625484,5.29464 0.845062,1.87955 1.305949,3.8432 1.301424,5.78556 0,1.94271 -0.472418,3.86901 -1.471669,5.67669 -0.999612,1.80769 -2.534103,3.49291 -4.675024,4.96773 -2.140881,1.47516 -4.88571,2.73541 -8.313716,3.6799 -6.097812,1.13011 -8.347562,1.90922 -8.177319,2.54179 0.170976,0.63292 2.757411,1.12348 6.344166,1.68346 3.586772,0.55966 8.168946,1.18768 12.320902,2.09868 4.151995,0.91099 7.879018,2.1025 9.744592,3.78911 5.88604,3.49988 11.384464,7.57964 16.545841,12.06831 6.919485,-4.2249 13.815629,-8.53354 20.879896,-12.55921 11.125213,-6.33963 22.744465,-12.57806 35.844515,-19.18983 3.27515,-1.65276 5.86999,-2.47583 7.939,-2.62342 2.06933,-0.14654 3.61327,0.37784 4.79742,1.42423 1.18456,1.04637 2.00972,2.60911 2.63044,4.53857 0.62105,1.9291 1.03901,4.22491 1.41758,6.72585 0.75713,5.00192 1.35203,10.83772 3.06654,16.25937 0.85727,2.71099 1.99226,5.31733 3.57071,7.6665 1.57845,2.34919 3.59405,4.43669 6.21504,6.11283 2.62063,1.67615 5.36446,3.05747 8.15709,4.14326 2.79227,1.0858 5.63588,1.87432 8.47039,2.37151 2.83452,0.49684 5.65574,0.7034 8.40233,0.61303 2.74659,-0.0907 5.41711,-0.47555 7.94564,-1.1514 2.52886,-0.67616 4.9199,-1.64298 7.10094,-2.90323 2.181,-1.26025 4.15024,-2.81149 5.85357,-4.65441 1.70374,-1.84256 3.13597,-3.97473 4.23188,-6.39858 1.09626,-2.42385 1.8562,-5.14008 2.21487,-8.14346 0.83005,-2.93989 1.18523,-5.92233 1.11753,-8.8793 -0.0665,-2.95733 -0.55755,-5.88744 -1.40365,-8.72266 -0.84642,-2.83555 -2.05191,-5.57656 -3.55742,-8.15044 -1.50518,-2.57388 -3.31113,-4.98202 -5.35604,-7.15535 -2.04531,-2.17298 -4.32853,-4.11185 -6.79425,-5.74473 -2.46571,-1.63254 -5.11044,-2.95873 -7.87761,-3.91125 -2.76717,-0.95286 -5.65786,-1.52959 -8.60681,-1.66288 -2.94894,-0.13256 -5.95619,0.17794 -8.96791,1.00171 3.01697,-1.43505 9.54956,-3.28599 17.00216,-4.83164 7.26598,-1.50693 15.3494,-2.66704 21.95002,-2.93709 -4.59647,-2.6161 -8.97841,-5.20429 -14.46074,-7.92506 -8.19544,-4.06789 -17.46902,-8.31057 -28.08274,-12.87985 -5.30687,-2.28429 -10.98427,-4.299921 -16.96136,-6.044444 -5.97745,-1.744522 -12.25567,-3.215168 -18.7809,-4.40877 -6.52558,-1.193962 -13.29508,-2.10739 -20.24632,-2.739614 -6.951232,-0.63221 -14.081483,-0.982869 -21.336294,-1.042535 z"
         style="fill:#f9f9f9;fill-opacity:1;fill-rule:nonzero;stroke:#333333;stroke-width:6.97811699;stroke-linecap:round;stroke-linejoin:round;stroke-miterlimit:4;stroke-dasharray:none;stroke-opacity:1"
         inkscape:connector-curvature="0" />
    </g>
    <path
       style="fill:none;fill-rule:evenodd;stroke:#ffffff;stroke-width:1.24201572px;stroke-linecap:butt;stroke-linejoin:miter;stroke-opacity:1"
       d="m -216.83685,320.01784 c 0,0 26.13186,-153.3426 112.91628,-218.3048 C 27.330155,7.6605906 184.2536,19.179367 285.01328,134.33329"
       id="path4160"
       inkscape:connector-curvature="0"
       sodipodi:nodetypes="ccc" />
    <text
       xml:space="preserve"
       style="font-style:normal;font-weight:normal;font-size:49.68062973px;line-height:125%;font-family:sans-serif;letter-spacing:0px;word-spacing:0px;fill:#1a1a1a;fill-opacity:1;stroke:none;stroke-width:1px;stroke-linecap:butt;stroke-linejoin:miter;stroke-opacity:1"
       id="text4148"
       sodipodi:linespacing="125%"><textPath
         xlink:href="#path4160"
         id="textPath4254"
         style="font-style:normal;font-variant:normal;font-weight:normal;font-stretch:normal;font-size:81.25px;font-family:Ubuntu;-inkscape-font-specification:Ubuntu;fill:#1a1a1a">даведайся больш</textPath></text>
    <text
       xml:space="preserve"
       style="font-style:normal;font-weight:normal;font-size:67.57006073px;line-height:125%;font-family:sans-serif;letter-spacing:0px;word-spacing:0px;fill:#1a1a1a;fill-opacity:1;stroke:none;stroke-width:1px;stroke-linecap:butt;stroke-linejoin:miter;stroke-opacity:1"
       x="-216.58385"
       y="642.09698"
       id="text4152"
       sodipodi:linespacing="125%"><tspan
         sodipodi:role="line"
         id="tspan4154"
         x="-216.58385"
         y="642.09698"
         style="font-style:normal;font-variant:normal;font-weight:normal;font-stretch:normal;font-size:105.57822418px;font-family:Ubuntu;-inkscape-font-specification:Ubuntu;fill:#1a1a1a">пра Вікіпедыю</tspan></text>
    <path
       style="fill:#008080;fill-rule:evenodd;stroke:#1a1a1a;stroke-width:5;stroke-linecap:butt;stroke-linejoin:miter;stroke-miterlimit:4;stroke-dasharray:none;stroke-opacity:1"
       d="m 461.38221,399.98066 c 0,0 5.71429,22.85714 -8.57143,51.42857 -14.28571,28.57143 -45.71428,67.14286 -55.71428,74.28572 -10,7.14285 219.99998,-41.42858 219.99998,-41.42858 0,0 -10,34.28572 -18.5714,41.42858 -8.5714,7.14285 47.1428,-13.57143 65.7143,-26.42857 18.5714,-12.85715 38.5714,-36.42858 42.8571,-45.00001 4.2858,-8.57142 -22.8571,-14.99999 -40,-39.28571 -17.1428,-24.28571 -35.7143,-57.14286 -35.7143,-57.14286 -17.7752,29.54146 -14.3531,39.10797 -11.4285,57.85715 0,0 -125.71433,-5.71429 -158.57147,-15.71429 z"
       id="path4217"
       inkscape:connector-curvature="0"
       sodipodi:nodetypes="csscssssccc" />
    <text
       xml:space="preserve"
       style="font-style:normal;font-weight:normal;font-size:27.16612053px;line-height:125%;font-family:sans-serif;letter-spacing:0px;word-spacing:0px;fill:#000000;fill-opacity:1;stroke:none;stroke-width:1px;stroke-linecap:butt;stroke-linejoin:miter;stroke-opacity:1"
       x="491.33377"
       y="361.24649"
       id="text4257"
       sodipodi:linespacing="125%"
       transform="matrix(0.99757765,0.06956174,-0.06956174,0.99757765,0,0)"><tspan
         sodipodi:role="line"
         id="tspan4259"
         x="491.33377"
         y="361.24649"
         style="font-style:normal;font-variant:normal;font-weight:normal;font-stretch:normal;font-family:Ubuntu;-inkscape-font-specification:Ubuntu">falanster.by</tspan></text>
  </g>
</svg>
