<?xml version="1.0" encoding="UTF-8" standalone="no"?>
<svg
   xmlns:dc="http://purl.org/dc/elements/1.1/"
   xmlns:cc="http://creativecommons.org/ns#"
   xmlns:rdf="http://www.w3.org/1999/02/22-rdf-syntax-ns#"
   xmlns:svg="http://www.w3.org/2000/svg"
   xmlns="http://www.w3.org/2000/svg"
   xmlns:sodipodi="http://sodipodi.sourceforge.net/DTD/sodipodi-0.dtd"
   xmlns:inkscape="http://www.inkscape.org/namespaces/inkscape"
   version="1.1"
   id="svg4185"
   viewBox="0 0 122.50001 122.5"
   height="34.572224mm"
   width="34.572224mm"
   inkscape:version="0.48.4 r9939"
   sodipodi:docname="doika_fanera.svg">
  <sodipodi:namedview
     pagecolor="#ffffff"
     bordercolor="#666666"
     borderopacity="1"
     objecttolerance="10"
     gridtolerance="10"
     guidetolerance="10"
     inkscape:pageopacity="0"
     inkscape:pageshadow="2"
     inkscape:window-width="1301"
     inkscape:window-height="744"
     id="namedview13"
     showgrid="false"
     inkscape:zoom="2.7245255"
     inkscape:cx="82.929699"
     inkscape:cy="64.727964"
     inkscape:window-x="65"
     inkscape:window-y="24"
     inkscape:window-maximized="1"
     inkscape:current-layer="svg4185" />
  <defs
     id="defs4187" />
  <metadata
     id="metadata4190">
    <rdf:RDF>
      <cc:Work
         rdf:about="">
        <dc:format>image/svg+xml</dc:format>
        <dc:type
           rdf:resource="http://purl.org/dc/dcmitype/StillImage" />
        <dc:title></dc:title>
      </cc:Work>
    </rdf:RDF>
  </metadata>
  <rect
     style="opacity:1;fill:#ffffff;fill-opacity:1;fill-rule:nonzero;stroke:#ffffff;stroke-width:0.25379431;stroke-linecap:round;stroke-linejoin:round;stroke-miterlimit:4;stroke-dasharray:none;stroke-opacity:1"
     id="rect5223"
     width="122.24621"
     height="122.24621"
     x="0.12690468"
     y="0.12689722" />
  <path
     inkscape:connector-curvature="0"
     style="fill:#ffffff;stroke:#000000;stroke-width:1;stroke-linecap:round;stroke-linejoin:round;stroke-miterlimit:4;stroke-dasharray:none;stroke-opacity:1"
     d="m 48.6498,82.335227 c 0,0 3.1171,6.61681 2.4243,15.62179 -0.4754,4.829283 -0.8555,19.657243 9.8536,16.096553 10.7093,-3.56067 -3.271,-18.097923 0.1757,-35.277513 13.0829,5.79692 14.4149,19.32137 19.0211,23.069083 4.6062,3.74769 16.7052,-3.236233 8.5686,-12.146053 -8.1366,-8.90983 -12.6631,-12.04478 -14.5955,-21.81863 6.8507,-1.50705 14.3196,1.70178 19.9428,7.00946 12.5184,8.78148 20.2627,-3.9801 10.7137,-10.2432 -5.8299,-4.56176 -13.7874,-1.37734 -23.1474,-11.971359 10.5351,-5.32239 11.1411,-2.01204 21.0683,-2.71679 17.1342,-1.40301 10.95,-15.16006 2.1345,-14.23007 -8.8154,0.93003 -17.9546,5.97375 -24.0511,2.30091 C 69.4384,-2.284032 26.273,3.675948 13.0802,24.424258 -0.1126,45.172578 9.5775,84.919057 48.6498,82.335227 Z"
     id="path2989-3-23-1" />
  <path
     inkscape:connector-curvature="0"
     id="path4156"
     d="m 28.8125,17.531245 c -1.949282,0.0098 -3.926193,0.247308 -5.90625,0.71875 l 0,28.875 c 1.980057,0.471442 3.956968,0.708933 5.90625,0.71875 l 0,-3.40625 c -0.658238,-0.01569 -1.299549,-0.0797 -1.9375,-0.15625 l 0,-23.1875 c 0.320979,-0.06419 0.677325,-0.125 1.0625,-0.125 0.292169,-0.02248 0.582831,-0.02451 0.875,-0.03125 l 0,-3.40625 z m 3.625,0.3125 0,3.5625 c 1.477857,0.453321 2.695833,1.232898 3.625,2.375 1.572797,1.893775 2.34375,4.861915 2.34375,8.90625 0,2.086363 -0.207727,3.866399 -0.625,5.375 -0.417273,1.476503 -1.010901,2.724563 -1.78125,3.6875 -0.770349,0.930839 -1.720324,1.613129 -2.84375,2.0625 -0.240288,0.08925 -0.463777,0.17984 -0.71875,0.25 l 0,3.4375 c 0.632309,-0.126176 1.249508,-0.27067 1.84375,-0.46875 1.669091,-0.545664 3.093628,-1.406128 4.28125,-2.59375 1.21972,-1.21972 2.169695,-2.792877 2.84375,-4.71875 0.706154,-1.925874 1.0625,-4.270831 1.0625,-7.03125 0,-2.728321 -0.356346,-5.074126 -1.0625,-7 -0.674055,-1.925873 -1.62403,-3.49903 -2.84375,-4.71875 -1.187622,-1.21972 -2.612159,-2.079336 -4.28125,-2.625 -0.595067,-0.198355 -1.21051,-0.373749 -1.84375,-0.5 z"
     style="font-size:48.14683914px;font-style:normal;font-variant:normal;font-weight:normal;font-stretch:normal;line-height:125%;letter-spacing:0px;word-spacing:0px;fill:#333333;fill-opacity:1;stroke:none;font-family:Ubuntu Mono;-inkscape-font-specification:Ubuntu Mono" />
  <path
     style="font-size:48.14683914px;font-style:normal;font-variant:normal;font-weight:normal;font-stretch:normal;line-height:125%;letter-spacing:0px;word-spacing:0px;fill:#333333;fill-opacity:1;stroke:none;font-family:Ubuntu Mono;-inkscape-font-specification:Ubuntu Mono"
     d="M 58.0625 24.875 L 58.0625 28.5 C 59.150137 28.823908 60.075854 29.472111 60.8125 30.46875 C 61.903829 31.913155 62.4375 33.901767 62.4375 36.4375 C 62.4375 38.941136 61.903829 40.929747 60.8125 42.40625 C 60.075854 43.381223 59.150137 44.026884 58.0625 44.34375 L 58.0625 48 C 58.903499 47.869706 59.710243 47.643131 60.46875 47.3125 C 61.720568 46.734738 62.788759 45.933383 63.6875 44.90625 C 64.586241 43.879117 65.268531 42.662307 65.75 41.25 C 66.263566 39.805595 66.53125 38.202885 66.53125 36.4375 C 66.53125 34.672116 66.263566 33.069405 65.75 31.625 C 65.268531 30.180595 64.586241 28.963785 63.6875 27.96875 C 62.788759 26.941617 61.720568 26.139414 60.46875 25.59375 C 59.709314 25.243241 58.90463 25.012867 58.0625 24.875 z M 54.4375 24.9375 C 53.708279 25.081106 53.017228 25.282914 52.34375 25.59375 C 51.12403 26.139414 50.054991 26.941617 49.15625 27.96875 C 48.257509 28.963785 47.544817 30.180595 47.03125 31.625 C 46.549782 33.069405 46.3125 34.672116 46.3125 36.4375 C 46.3125 38.202885 46.549782 39.805595 47.03125 41.25 C 47.544817 42.662307 48.257509 43.879117 49.15625 44.90625 C 50.054991 45.933383 51.12403 46.734738 52.34375 47.3125 C 53.017416 47.60615 53.708059 47.833128 54.4375 47.96875 L 54.4375 44.28125 C 53.478695 43.940672 52.675751 43.300627 52 42.40625 C 50.940769 40.929747 50.40625 38.941136 50.40625 36.4375 C 50.40625 33.901767 50.940769 31.913155 52 30.46875 C 52.675751 29.554498 53.478695 28.910646 54.4375 28.5625 L 54.4375 24.9375 z "
     transform="translate(0,-5e-6)"
     id="path4158" />
  <path
     inkscape:connector-curvature="0"
     id="path4149"
     style="font-size:30.73398209px;font-style:normal;font-variant:normal;font-weight:normal;font-stretch:normal;line-height:125%;letter-spacing:0px;word-spacing:0px;fill:#333333;fill-opacity:1;stroke:#333333;stroke-width:0.5;stroke-miterlimit:4;stroke-dasharray:none;font-family:Ubuntu Mono;-inkscape-font-specification:Ubuntu Mono"
     d="m 27.321304,55.642743 q -0.799084,0 -1.383029,-0.553212 -0.583946,-0.553211 -0.583946,-1.505965 0,-0.952753 0.583946,-1.505965 0.583945,-0.553211 1.383029,-0.553211 0.829817,0 1.383029,0.553211 0.583946,0.553212 0.583946,1.505965 0,0.952754 -0.583946,1.505965 -0.553212,0.553212 -1.383029,0.553212 z m -0.645414,4.333492 -4.118353,0 0,-2.120645 6.63854,0 0,8.759185 q 0,2.120645 0.583945,2.85826 0.583946,0.706882 1.751837,0.706882 0.891286,0 1.628901,-0.215138 0.76835,-0.215138 1.198626,-0.46101 l 0.368807,2.151379 q -0.184403,0.0922 -0.522477,0.245872 -0.338074,0.122936 -0.799084,0.245872 -0.430276,0.122935 -0.983487,0.215137 -0.522478,0.0922 -1.106424,0.0922 -1.352295,0 -2.24358,-0.368807 Q 28.181855,71.716616 27.628644,70.979 27.106166,70.241385 26.891028,69.165695 26.67589,68.059272 26.67589,66.614775 l 0,-6.63854 z" />
  <path
     inkscape:connector-curvature="0"
     id="path4151"
     style="font-size:30.73398209px;font-style:normal;font-variant:normal;font-weight:normal;font-stretch:normal;line-height:125%;letter-spacing:0px;word-spacing:0px;fill:#333333;fill-opacity:1;stroke:#333333;stroke-width:0.5;stroke-miterlimit:4;stroke-dasharray:none;font-family:Ubuntu Mono;-inkscape-font-specification:Ubuntu Mono"
     d="m 43.57958,64.278992 q 0.829818,0.61468 1.874773,1.567433 1.044956,0.92202 2.059177,1.997709 1.044955,1.075689 1.966975,2.212847 0.922019,1.106423 1.475231,2.059177 l -3.01193,0 Q 47.35986,71.163404 46.499309,70.179917 45.638757,69.165695 44.65527,68.243676 43.702516,67.321656 42.719029,66.553307 41.766275,65.784957 40.997926,65.26248 l 0,6.853678 -2.550921,0 0,-20.868374 2.550921,-0.430276 0,13.000474 q 1.690369,-1.475231 3.380738,-2.919728 1.690369,-1.475231 3.042664,-3.042664 l 2.981196,0 q -1.321561,1.567433 -3.196334,3.227068 -1.844039,1.659635 -3.62661,3.196334 z" />
  <path
     style="font-size:30.73398209px;font-style:normal;font-variant:normal;font-weight:normal;font-stretch:normal;line-height:125%;letter-spacing:0px;word-spacing:0px;fill:#333333;fill-opacity:1;stroke:#333333;stroke-width:0.5;stroke-miterlimit:4;stroke-dasharray:none;font-family:Ubuntu Mono;-inkscape-font-specification:Ubuntu Mono"
     d="M 59.21875 57.53125 C 58.296731 57.53125 57.444573 57.564564 56.625 57.6875 C 55.825916 57.810436 55.223318 57.961085 54.875 58.125 L 55.1875 60.21875 C 55.535818 60.095815 56.031841 59.966686 56.6875 59.84375 C 57.343158 59.720814 58.118959 59.65625 59 59.65625 C 59.696637 59.65625 60.257225 59.763857 60.6875 59.96875 C 61.138265 60.153153 61.504128 60.422171 61.75 60.75 C 62.016361 61.077829 62.199293 61.433963 62.28125 61.84375 C 62.383697 62.233047 62.40625 62.663474 62.40625 63.09375 L 62.40625 63.78125 C 61.844189 63.649704 61.294771 63.554768 60.71875 63.5 L 60.71875 65.5625 C 60.882944 65.576442 61.06199 65.572374 61.21875 65.59375 C 61.690005 65.655218 62.078421 65.741303 62.40625 65.84375 L 62.40625 70.09375 C 62.078421 70.155217 61.668483 70.20902 61.15625 70.25 C 61.028599 70.260638 60.856066 70.273374 60.71875 70.28125 L 60.71875 72.40625 C 61.333604 72.37227 61.939599 72.338118 62.53125 72.25 C 63.514737 72.106575 64.312059 71.977447 64.90625 71.875 L 64.90625 62.96875 C 64.90625 62.169667 64.809404 61.426148 64.625 60.75 C 64.440596 60.073853 64.138265 59.502505 63.6875 59.03125 C 63.236735 58.559996 62.643865 58.172611 61.90625 57.90625 C 61.189123 57.639889 60.284195 57.53125 59.21875 57.53125 z M 58.375 63.5 C 58.006192 63.540978 57.618808 63.605543 57.25 63.6875 C 56.532874 63.830925 55.886201 64.089181 55.3125 64.4375 C 54.759289 64.785819 54.306308 65.238799 53.9375 65.8125 C 53.589182 66.365712 53.40625 67.055427 53.40625 67.875 C 53.40625 68.797019 53.589182 69.562059 53.9375 70.15625 C 54.285819 70.75044 54.738799 71.214181 55.3125 71.5625 C 55.886201 71.890329 56.543635 72.127065 57.28125 72.25 C 57.650058 72.321713 58.027198 72.370394 58.40625 72.40625 L 58.40625 70.25 C 57.827153 70.16945 57.3108 70.0031 56.90625 69.78125 C 56.29157 69.412442 56 68.765769 56 67.84375 C 56 67.392985 56.118367 67.03685 56.34375 66.75 C 56.569133 66.44266 56.839182 66.184404 57.1875 66 C 57.535819 65.815595 57.955485 65.686467 58.40625 65.625 L 58.40625 63.5 C 58.395747 63.501134 58.385503 63.498833 58.375 63.5 z "
     transform="translate(0,-5e-6)"
     id="path4153" />
</svg>
