<?xml version="1.0" encoding="UTF-8" standalone="no"?>
<!-- Created with Inkscape (http://www.inkscape.org/) -->

<svg
   xmlns:dc="http://purl.org/dc/elements/1.1/"
   xmlns:cc="http://creativecommons.org/ns#"
   xmlns:rdf="http://www.w3.org/1999/02/22-rdf-syntax-ns#"
   xmlns:svg="http://www.w3.org/2000/svg"
   xmlns="http://www.w3.org/2000/svg"
   xmlns:sodipodi="http://sodipodi.sourceforge.net/DTD/sodipodi-0.dtd"
   xmlns:inkscape="http://www.inkscape.org/namespaces/inkscape"
   width="846.0174"
   height="506.54916"
   id="svg2"
   version="1.1"
   inkscape:version="0.91 r13725"
   sodipodi:docname="doika.svg"
   inkscape:export-filename="/home/jedi/Dropbox/falanster/design/logo/logo_2018/projects_logo/doika/doika_vars.png"
   inkscape:export-xdpi="212.67432"
   inkscape:export-ydpi="212.67432">
  <defs
     id="defs4" />
  <sodipodi:namedview
     id="base"
     pagecolor="#ffffff"
     bordercolor="#666666"
     borderopacity="1.0"
     inkscape:pageopacity="0.0"
     inkscape:pageshadow="2"
     inkscape:zoom="0.70000001"
     inkscape:cx="-11.738645"
     inkscape:cy="431.69388"
     inkscape:document-units="px"
     inkscape:current-layer="layer1"
     showgrid="false"
     inkscape:window-width="1855"
     inkscape:window-height="1056"
     inkscape:window-x="65"
     inkscape:window-y="24"
     inkscape:window-maximized="1"
     showguides="true"
     inkscape:guide-bbox="true"
     fit-margin-top="0"
     fit-margin-left="0"
     fit-margin-right="0"
     fit-margin-bottom="0">
    <sodipodi:guide
       position="117.74282,343.18948"
       orientation="0,1"
       id="guide4448" />
    <sodipodi:guide
       position="31.314251,366.76091"
       orientation="0,1"
       id="guide4450" />
    <sodipodi:guide
       position="29.528541,458.90377"
       orientation="0,1"
       id="guide4512" />
  </sodipodi:namedview>
  <metadata
     id="metadata7">
    <rdf:RDF>
      <cc:Work
         rdf:about="">
        <dc:format>image/svg+xml</dc:format>
        <dc:type
           rdf:resource="http://purl.org/dc/dcmitype/StillImage" />
        <dc:title />
      </cc:Work>
    </rdf:RDF>
  </metadata>
  <g
     inkscape:label="Layer 1"
     inkscape:groupmode="layer"
     id="layer1"
     transform="translate(688.45711,-420.43106)">
    <g
       id="g4251"
       transform="matrix(1.5204862,0,0,1.5265983,-64.5698,-1.7240512)">
      <circle
         transform="matrix(0.61752014,0,0,0.61752014,-123.97114,229.19774)"
         id="path2987"
         style="fill:#ffffff;fill-opacity:1;fill-rule:nonzero;stroke:#ff80b2;stroke-width:2.62546563;stroke-linecap:round;stroke-linejoin:round;stroke-miterlimit:4;stroke-dasharray:none;stroke-dashoffset:0;stroke-opacity:1"
         cx="-408.92856"
         cy="544.14789"
         r="43.92857" />
      <path
         sodipodi:nodetypes="cczczzcccccczc"
         inkscape:connector-curvature="0"
         id="path2989"
         d="m -380.69926,585.35185 c 2.30896,4.30138 1.12521,6.5199 1.36568,10.50686 -0.39844,3.22778 -0.56982,13.59125 6.66434,11.38284 7.23416,-2.20841 -1.89216,-12.17993 0.70151,-23.63332 8.66971,4.10056 9.33829,13.18404 12.36248,15.77125 3.02419,2.58721 8.39399,0.25707 7.71592,-4.00487 -0.67808,-4.26194 -4.12607,-6.2518 -8.12361,-10.83628 -2.5263,-4.26388 -2.43064,-4.32054 -3.06826,-8.01516 4.61497,-0.89634 9.56616,1.37717 13.24587,5.02642 8.24205,6.09092 13.64206,-2.33134 7.3478,-6.6857 -3.83064,-3.15287 -9.21494,-1.15097 -15.31088,-8.404 7.14671,-3.39166 7.49795,-1.16368 14.16089,-1.47156 13.49897,-1.09992 7.58756,-9.97614 1.66575,-9.49892 -5.92181,0.47721 -12.2937,3.53189 -16.31759,0.97017"
         style="fill:#ffffff;stroke:#ff80b2;stroke-width:1.62127805;stroke-linecap:round;stroke-linejoin:round;stroke-miterlimit:4;stroke-dasharray:none;stroke-opacity:1" />
      <text
         sodipodi:linespacing="125%"
         id="text3759"
         y="566.15198"
         x="-330.27423"
         style="font-style:normal;font-variant:normal;font-weight:normal;font-stretch:normal;font-size:48.14683914px;line-height:125%;font-family:'Ubuntu Mono';-inkscape-font-specification:'Ubuntu Mono';letter-spacing:0px;word-spacing:0px;fill:#333333;fill-opacity:1;stroke:none"
         xml:space="preserve"><tspan
           y="566.15198"
           x="-330.27423"
           id="tspan3761"
           sodipodi:role="line">DO</tspan><tspan
           id="tspan3763"
           y="626.33551"
           x="-330.27423"
           sodipodi:role="line" /></text>
      <text
         sodipodi:linespacing="125%"
         id="text3765"
         y="590.65942"
         x="-329.69107"
         style="font-style:normal;font-variant:normal;font-weight:normal;font-stretch:normal;font-size:30.73398209px;line-height:125%;font-family:'Ubuntu Mono';-inkscape-font-specification:'Ubuntu Mono';letter-spacing:0px;word-spacing:0px;fill:#333333;fill-opacity:1;stroke:none"
         xml:space="preserve"><tspan
           y="590.65942"
           x="-329.69107"
           id="tspan3767"
           sodipodi:role="line">ika</tspan></text>
      <rect
         y="549.86224"
         x="-290.53571"
         height="1.0714285"
         width="10"
         id="rect3769"
         style="fill:#ff80b2;fill-opacity:1;fill-rule:nonzero;stroke:#ff80b2;stroke-width:2.62546563;stroke-linecap:round;stroke-linejoin:round;stroke-miterlimit:4;stroke-dasharray:none;stroke-dashoffset:0;stroke-opacity:1" />
    </g>
    <path
       style="fill:#ffffff;stroke:#ff80b2;stroke-width:3.00000024;stroke-linecap:round;stroke-linejoin:round;stroke-miterlimit:4;stroke-dasharray:none;stroke-opacity:1"
       d="m -640.99106,628.49301 c 2.87115,5.37854 1.39918,8.15263 1.6982,13.138 -0.49545,4.03609 -0.70856,16.99479 8.287,14.23335 8.99557,-2.76143 -2.35287,-15.23005 0.87232,-29.55162 10.78065,5.12743 11.61202,16.48562 15.37255,19.72072 3.76053,3.2351 13.98441,-2.36549 7.38884,-9.99848 -6.59555,-7.63297 -10.30232,-10.35308 -11.71112,-18.58154 5.73863,-1.12081 11.89537,1.72202 16.47103,6.28514 10.24886,7.61622 16.96369,-2.91516 9.13686,-8.35996 -4.76334,-3.94241 -11.45863,-1.43919 -19.03884,-10.50853 8.88682,-4.241 9.3236,-1.45509 17.60885,-1.84008 14.30425,-0.82084 9.43501,-12.47437 2.07133,-11.87766 -7.36367,0.59672 -15.28702,4.41637 -20.29067,1.21313 -14.37846,-35.67385 -50.72931,-26.78841 -60.4452,-4.97528 -9.71591,21.81315 10.59801,48.31831 32.57885,41.10281 z"
       id="path2989-3"
       inkscape:connector-curvature="0"
       sodipodi:nodetypes="cczczzccccczczc" />
    <text
       xml:space="preserve"
       style="font-style:normal;font-variant:normal;font-weight:normal;font-stretch:normal;font-size:74.54808044px;line-height:125%;font-family:'Ubuntu Mono';-inkscape-font-specification:'Ubuntu Mono';letter-spacing:0px;word-spacing:0px;fill:#333333;fill-opacity:1;stroke:none"
       x="-577.82922"
       y="617.96063"
       id="text3759-6"
       sodipodi:linespacing="125%"
       transform="scale(0.99722204,1.0027857)"><tspan
         sodipodi:role="line"
         id="tspan3761-7"
         x="-577.82922"
         y="617.96063">DO</tspan><tspan
         sodipodi:role="line"
         x="-577.82922"
         y="711.14575"
         id="tspan3763-5" /></text>
    <text
       xml:space="preserve"
       style="font-style:normal;font-variant:normal;font-weight:normal;font-stretch:normal;font-size:47.58691025px;line-height:125%;font-family:'Ubuntu Mono';-inkscape-font-specification:'Ubuntu Mono';letter-spacing:0px;word-spacing:0px;fill:#333333;fill-opacity:1;stroke:none"
       x="-576.92627"
       y="655.90668"
       id="text3765-3"
       sodipodi:linespacing="125%"
       transform="scale(0.99722204,1.0027857)"><tspan
         sodipodi:role="line"
         id="tspan3767-5"
         x="-576.92627"
         y="655.90668">ika</tspan></text>
    <rect
       style="fill:#ff80b2;fill-opacity:1;fill-rule:nonzero;stroke:#ff80b2;stroke-width:3.00000048;stroke-linecap:round;stroke-linejoin:round;stroke-miterlimit:4;stroke-dasharray:none;stroke-dashoffset:0;stroke-opacity:1"
       id="rect3769-6"
       width="15.92741"
       height="1.3686112"
       x="-552.06091"
       y="562.65149"
       transform="matrix(0.99793037,-0.06430378,0.06359512,0.99797578,0,0)" />
    <path
       style="fill:#ffffff;stroke:#ff80b2;stroke-width:2.80096412;stroke-linecap:round;stroke-linejoin:round;stroke-miterlimit:4;stroke-dasharray:none;stroke-opacity:1"
       d="m -280.83956,690.76389 c 2.74498,2.82724 2.31788,4.81172 3.38791,7.8533 0.40597,2.59389 2.56924,10.67652 7.69409,7.35896 5.12487,-3.31757 -4.16719,-9.03535 -4.69211,-18.50089 7.63684,1.26162 10.16837,8.16452 13.08859,9.5026 2.92023,1.33808 6.57125,-1.66079 5.10068,-4.81886 -1.47057,-3.15806 -4.58734,-3.93851 -8.70548,-6.61126 -2.90535,-2.74995 -2.84364,-2.81514 -4.15712,-5.5418 3.38291,-1.71858 7.7291,-1.05108 11.39338,0.96613 7.74597,2.90143 10.07056,-4.83317 4.22098,-6.81826 -3.67142,-1.59844 -7.40641,1.14884 -13.74434,-3.13031 4.79482,-4.21669 5.56105,-2.56507 10.66371,-4.28076 10.23236,-3.84556 3.67799,-9.42561 -0.81199,-7.74272 -4.48997,1.68286 -8.75812,5.46626 -12.44854,4.36952 -6.15985,-6.25272 -8.13123,-10.63425 -18.91599,-10.07828 -10.78476,0.55596 -16.44449,9.98792 -17.19301,21.19087 -0.74854,11.20297 13.10313,24.05044 25.11924,16.28176 z"
       id="path2989-3-2"
       inkscape:connector-curvature="0"
       sodipodi:nodetypes="cczczzcccccczczzc" />
    <text
       xml:space="preserve"
       style="font-style:normal;font-variant:normal;font-weight:normal;font-stretch:normal;font-size:51.68550873px;line-height:125%;font-family:'Ubuntu Mono';-inkscape-font-specification:'Ubuntu Mono';letter-spacing:0px;word-spacing:0px;fill:#333333;fill-opacity:1;stroke:none"
       x="-327.81314"
       y="688.46704"
       id="text3759-6-9"
       sodipodi:linespacing="125%"
       transform="scale(0.99987941,1.0001206)"><tspan
         sodipodi:role="line"
         id="tspan3761-7-1"
         x="-327.81314"
         y="688.46704">DO</tspan><tspan
         sodipodi:role="line"
         x="-327.81314"
         y="753.07391"
         id="tspan3763-5-2" /></text>
    <text
       xml:space="preserve"
       style="font-style:normal;font-variant:normal;font-weight:normal;font-stretch:normal;font-size:32.99285126px;line-height:125%;font-family:'Ubuntu Mono';-inkscape-font-specification:'Ubuntu Mono';letter-spacing:0px;word-spacing:0px;fill:#333333;fill-opacity:1;stroke:none"
       x="-327.18713"
       y="714.7757"
       id="text3765-3-7"
       sodipodi:linespacing="125%"
       transform="scale(0.99987941,1.0001206)"><tspan
         sodipodi:role="line"
         id="tspan3767-5-0"
         x="-327.18713"
         y="714.7757">ika</tspan></text>
    <path
       style="fill:#ffffff;stroke:#ff80b2;stroke-width:4;stroke-linecap:round;stroke-linejoin:round;stroke-miterlimit:4;stroke-dasharray:none;stroke-opacity:1"
       d="m -270.4528,809.69237 c 5.51203,5.03223 4.93022,8.83231 7.29955,14.46036 1.06274,4.8573 6.07279,19.89055 15.3857,13.0358 9.31296,-6.85475 -8.90755,-16.60623 -10.97702,-34.44017 14.58373,1.51589 20.15585,14.27706 25.82983,16.47424 5.67398,2.1972 12.23634,-3.88738 9.0964,-9.69003 -3.13993,-5.80267 -9.12211,-6.92335 -17.21303,-11.50728 -5.80648,-4.86787 -5.69722,-4.99813 -8.49105,-10.00314 6.20109,-3.6338 14.49507,-2.86654 21.65321,0.52979 14.97664,4.60339 18.49213,-10.28268 7.20555,-13.36961 -7.124,-2.60388 -13.87377,3.01464 -26.34477,-4.35343 8.58658,-8.5169 10.22333,-5.48186 19.67655,-9.30589 18.91043,-8.43411 5.88218,-18.23678 -2.41628,-14.54448 -8.29845,3.69227 -15.93846,11.33013 -23.04132,9.67682 -12.35878,-11.11916 -16.58489,-19.17766 -36.9141,-16.89935 -20.32921,2.2783 -29.95786,20.7526 -30.09861,42.01588 -0.14078,21.2633 27.51247,43.97387 49.34939,27.92049 z"
       id="path2989-3-2-3"
       inkscape:connector-curvature="0"
       sodipodi:nodetypes="cczczzcccccczczzc" />
    <text
       xml:space="preserve"
       style="font-style:normal;font-variant:normal;font-weight:normal;font-stretch:normal;font-size:48.14683914px;line-height:125%;font-family:'Ubuntu Mono';-inkscape-font-specification:'Ubuntu Mono';letter-spacing:0px;word-spacing:0px;fill:#333333;fill-opacity:1;stroke:none"
       x="-308.2381"
       y="780.65906"
       id="text3759-6-9-6"
       sodipodi:linespacing="125%"><tspan
         sodipodi:role="line"
         id="tspan3761-7-1-0"
         x="-308.2381"
         y="780.65906">DO</tspan><tspan
         sodipodi:role="line"
         x="-308.2381"
         y="840.84259"
         id="tspan3763-5-2-6" /></text>
    <text
       xml:space="preserve"
       style="font-style:normal;font-variant:normal;font-weight:normal;font-stretch:normal;font-size:30.73398209px;line-height:125%;font-family:'Ubuntu Mono';-inkscape-font-specification:'Ubuntu Mono';letter-spacing:0px;word-spacing:0px;fill:#333333;fill-opacity:1;stroke:none"
       x="-307.65494"
       y="805.16644"
       id="text3765-3-7-2"
       sodipodi:linespacing="125%"><tspan
         sodipodi:role="line"
         id="tspan3767-5-0-6"
         x="-307.65494"
         y="805.16644">ika</tspan></text>
    <g
       id="g4241">
      <path
         sodipodi:nodetypes="zsssz"
         inkscape:connector-curvature="0"
         id="path3910"
         d="m -614.11645,697.05185 c -12.71628,-11.44147 -43.09631,-13.06673 -60.05136,1.83372 -16.95504,14.90045 -19.04257,54.55082 7.36046,67.13071 28.77827,13.71168 50.41355,0.92805 58.59746,-13.61977 9.44446,-16.78862 6.80972,-43.90318 -5.90656,-55.34466 z"
         style="fill:none;stroke:#ff80b2;stroke-width:3.29741669;stroke-linecap:butt;stroke-linejoin:miter;stroke-miterlimit:4;stroke-dasharray:none;stroke-opacity:1" />
      <path
         sodipodi:nodetypes="cczczzcccccczc"
         inkscape:connector-curvature="0"
         id="path2989-1"
         d="m -652.55166,756.9176 c 3.63774,6.80663 1.77279,10.31712 2.15155,16.62617 -0.62769,5.10763 -0.89774,21.50693 10.49993,18.01229 11.39752,-3.4945 -2.98121,-19.27366 1.10524,-37.39753 13.65933,6.48863 14.71273,20.86249 19.47745,24.95657 4.76469,4.09394 13.22494,0.40682 12.15659,-6.33743 -1.06836,-6.74413 -6.50078,-9.89291 -12.79894,-17.14739 -3.98026,-6.7472 -3.82964,-6.83692 -4.8342,-12.6833 7.27106,-1.41833 15.07181,2.17933 20.86927,7.95374 12.98548,9.63844 21.49333,-3.68903 11.57666,-10.57938 -6.03537,-4.98901 -14.51848,-1.82119 -24.12273,-13.29853 11.25981,-5.36696 11.8133,-1.84152 22.31087,-2.32861 21.26803,-1.74067 11.95447,-15.78632 2.62435,-15.03133 -9.32995,0.75524 -19.36905,5.58896 -25.70864,1.53528"
         style="fill:#ffffff;stroke:#ff80b2;stroke-width:3.05814958;stroke-linecap:round;stroke-linejoin:round;stroke-miterlimit:4;stroke-dasharray:none;stroke-opacity:1" />
      <text
         transform="scale(0.99782234,1.0021824)"
         sodipodi:linespacing="125%"
         id="text3759-8"
         y="737.58063"
         x="-573.74835"
         style="font-style:normal;font-variant:normal;font-weight:normal;font-stretch:normal;font-size:76.06119537px;line-height:125%;font-family:'Ubuntu Mono';-inkscape-font-specification:'Ubuntu Mono';letter-spacing:0px;word-spacing:0px;fill:#333333;fill-opacity:1;stroke:none"
         xml:space="preserve"><tspan
           y="737.58063"
           x="-573.74835"
           id="tspan3761-79"
           sodipodi:role="line">DO</tspan><tspan
           id="tspan3763-2"
           y="832.6571"
           x="-573.74835"
           sodipodi:role="line" /></text>
      <text
         transform="scale(0.99782234,1.0021824)"
         sodipodi:linespacing="125%"
         id="text3765-0"
         y="776.29712"
         x="-572.82709"
         style="font-style:normal;font-variant:normal;font-weight:normal;font-stretch:normal;font-size:48.5527916px;line-height:125%;font-family:'Ubuntu Mono';-inkscape-font-specification:'Ubuntu Mono';letter-spacing:0px;word-spacing:0px;fill:#333333;fill-opacity:1;stroke:none"
         xml:space="preserve"><tspan
           y="776.29712"
           x="-572.82709"
           id="tspan3767-2"
           sodipodi:role="line">ika</tspan></text>
      <rect
         y="713.40015"
         x="-509.85754"
         height="1.6963105"
         width="15.763352"
         id="rect3769-3"
         style="fill:#ff80b2;fill-opacity:1;fill-rule:nonzero;stroke:#ff80b2;stroke-width:4.95484924;stroke-linecap:round;stroke-linejoin:round;stroke-miterlimit:4;stroke-dasharray:none;stroke-dashoffset:0;stroke-opacity:1" />
    </g>
    <path
       style="fill:#ff80b2;stroke:#ff80b2;stroke-width:2;stroke-linecap:round;stroke-linejoin:round;stroke-miterlimit:4;stroke-dasharray:none;stroke-opacity:1"
       d="m -162.11794,734.63156 c 5.09753,5.20327 4.324,8.87456 6.32675,14.48756 0.77151,4.79091 4.83614,19.71228 14.28366,13.53907 9.44755,-6.17319 -7.77699,-16.666 -8.82393,-34.15658 14.12848,2.27004 18.86437,15.00796 24.27385,17.45746 5.40944,2.44952 15.32813,-7.38805 5.18892,-13.92913 -10.13919,-6.54105 -15.31541,-8.41838 -19.67571,-17.37665 6.24012,-3.20377 14.28037,-2.00522 21.07087,1.6935 14.34348,5.29997 18.57847,-9.01441 7.74825,-12.63609 -6.8003,-2.92466 -13.68302,2.18326 -25.43462,-5.67448 8.83011,-7.83233 10.26004,-4.78589 19.6795,-7.99821 16.21047,-5.72492 6.72333,-17.45076 -1.56373,-14.30405 -8.28705,3.14672 -16.14706,10.17394 -22.97843,8.17672 -28.43449,-36.07153 -67.36796,-13.7311 -71.30879,14.51542 -3.94083,28.24651 28.28376,51.82593 51.21341,36.20546 z"
       id="path2989-3-23"
       inkscape:connector-curvature="0"
       sodipodi:nodetypes="cczczzccccczczc" />
    <text
       xml:space="preserve"
       style="font-style:normal;font-variant:normal;font-weight:normal;font-stretch:normal;font-size:48.14683914px;line-height:125%;font-family:'Ubuntu Mono';-inkscape-font-specification:'Ubuntu Mono';letter-spacing:0px;word-spacing:0px;fill:#333333;fill-opacity:1;stroke:none"
       x="-200.69388"
       y="705.4975"
       id="text3759-6-9-6-6"
       sodipodi:linespacing="125%"><tspan
         sodipodi:role="line"
         id="tspan3761-7-1-0-7"
         x="-200.69388"
         y="705.4975">DO</tspan><tspan
         sodipodi:role="line"
         x="-200.69388"
         y="765.68103"
         id="tspan3763-5-2-6-5" /></text>
    <text
       xml:space="preserve"
       style="font-style:normal;font-variant:normal;font-weight:normal;font-stretch:normal;font-size:30.73398209px;line-height:125%;font-family:'Ubuntu Mono';-inkscape-font-specification:'Ubuntu Mono';letter-spacing:0px;word-spacing:0px;fill:#333333;fill-opacity:1;stroke:none"
       x="-200.11075"
       y="730.00488"
       id="text3765-3-7-2-3"
       sodipodi:linespacing="125%"><tspan
         sodipodi:role="line"
         id="tspan3767-5-0-6-5"
         x="-200.11075"
         y="730.00488">ika</tspan></text>
    <path
       style="fill:#ff80b2;stroke:#ff80b2;stroke-width:2.80096436;stroke-linecap:round;stroke-linejoin:round;stroke-miterlimit:4;stroke-dasharray:none;stroke-opacity:1"
       d="m -398.07416,882.79726 c 3.09499,3.18772 2.61342,5.42524 3.81988,8.85465 0.45774,2.92463 2.89685,12.03786 8.67516,8.29729 5.77833,-3.74059 -4.69854,-10.18743 -5.29039,-20.8599 8.6106,1.42249 11.46492,9.20556 14.75749,10.71426 3.29258,1.50869 7.40913,-1.87257 5.75105,-5.43331 -1.65807,-3.56073 -5.17226,-4.4407 -9.8155,-7.45424 -3.27581,-3.10059 -3.20623,-3.1741 -4.68719,-6.24843 3.81426,-1.93771 8.71463,-1.1851 12.84613,1.08932 8.73364,3.27139 11.35464,-5.44943 4.7592,-7.68764 -4.13956,-1.80225 -8.35079,1.29533 -15.49687,-3.52945 5.4062,-4.75435 6.27014,-2.89213 12.02343,-4.82659 11.53707,-4.3359 4.14696,-10.62745 -0.91552,-8.72999 -5.06249,1.89745 -9.87486,6.16327 -14.03584,4.92668 -6.94527,-7.04999 -9.16802,-11.9902 -21.32792,-11.36334 -12.1599,0.62685 -18.54129,11.26146 -19.38526,23.89288 -0.84397,12.63143 14.77388,27.11705 28.32215,18.35781 z"
       id="path2989-3-2-6"
       inkscape:connector-curvature="0"
       sodipodi:nodetypes="cczczzcccccczczzc" />
    <text
       xml:space="preserve"
       style="font-style:normal;font-variant:normal;font-weight:normal;font-stretch:normal;font-size:58.27581406px;line-height:125%;font-family:'Ubuntu Mono';-inkscape-font-specification:'Ubuntu Mono';letter-spacing:0px;word-spacing:0px;fill:#333333;fill-opacity:1;stroke:none"
       x="-451.04706"
       y="880.19501"
       id="text3759-6-9-2"
       sodipodi:linespacing="125%"
       transform="scale(0.99987941,1.0001206)"><tspan
         sodipodi:role="line"
         id="tspan3761-7-1-9"
         x="-451.04706"
         y="880.19501">DO</tspan><tspan
         sodipodi:role="line"
         x="-451.04706"
         y="953.03979"
         id="tspan3763-5-2-1" /></text>
    <text
       xml:space="preserve"
       style="font-style:normal;font-variant:normal;font-weight:normal;font-stretch:normal;font-size:37.19969559px;line-height:125%;font-family:'Ubuntu Mono';-inkscape-font-specification:'Ubuntu Mono';letter-spacing:0px;word-spacing:0px;fill:#333333;fill-opacity:1;stroke:none"
       x="-450.34128"
       y="909.85815"
       id="text3765-3-7-27"
       sodipodi:linespacing="125%"
       transform="scale(0.99987941,1.0001206)"><tspan
         sodipodi:role="line"
         id="tspan3767-5-0-0"
         x="-450.34128"
         y="909.85815">ika</tspan></text>
    <path
       style="fill:#ffffff;stroke:#ff80b2;stroke-width:2.20000005;stroke-linecap:round;stroke-linejoin:round;stroke-miterlimit:4;stroke-dasharray:none;stroke-opacity:1"
       d="m -279.30894,596.07472 c 2.02501,1.89738 1.79063,3.30759 2.64455,5.41153 0.37192,1.81113 2.16266,7.4248 5.6573,4.92043 3.49463,-2.50438 -3.23212,-6.2171 -3.91638,-12.85811 5.41407,0.63319 7.42458,5.40471 9.52334,6.24874 2.09876,0.84402 5.7128,-3.06295 1.74717,-5.38721 -3.96564,-2.32423 -5.96626,-2.95426 -7.77208,-6.29313 2.32248,-1.32156 5.40199,-0.99674 8.04675,0.30025 5.5454,1.78307 6.92322,-3.73518 2.74229,-4.93682 -2.63583,-1.00217 -5.17175,1.05476 -9.77255,-1.74434 3.23255,-3.12586 3.82653,-1.98954 7.35886,-3.36634 6.07578,-2.44427 2.27357,-6.75286 -0.82887,-5.41955 -3.10243,1.33332 -5.97895,4.13682 -8.61144,3.48824 -11.41098,-13.26652 -25.86308,-4.12583 -26.90124,6.69115 -1.03821,10.81698 11.61106,19.26619 20.0823,12.94516 z"
       id="path2989-3-9"
       inkscape:connector-curvature="0"
       sodipodi:nodetypes="cczczzccccczczc" />
    <text
       xml:space="preserve"
       style="font-style:normal;font-variant:normal;font-weight:normal;font-stretch:normal;font-size:61.70027161px;line-height:125%;font-family:'Ubuntu Mono';-inkscape-font-specification:'Ubuntu Mono';letter-spacing:0px;word-spacing:0px;fill:#333333;fill-opacity:1;stroke:none"
       x="-332.7886"
       y="598.92444"
       id="text3759-6-3"
       sodipodi:linespacing="125%"
       transform="scale(0.99987941,1.0001206)"><tspan
         sodipodi:role="line"
         id="tspan3761-7-6"
         x="-332.7886"
         y="598.92444">D</tspan><tspan
         sodipodi:role="line"
         x="-332.7886"
         y="676.0498"
         id="tspan3763-5-0" /></text>
    <text
       xml:space="preserve"
       style="font-style:normal;font-variant:normal;font-weight:normal;font-stretch:normal;font-size:39.38566208px;line-height:125%;font-family:'Ubuntu Mono';-inkscape-font-specification:'Ubuntu Mono';letter-spacing:0px;word-spacing:0px;fill:#333333;fill-opacity:1;stroke:none"
       x="-332.04126"
       y="630.33069"
       id="text3765-3-6"
       sodipodi:linespacing="125%"
       transform="scale(0.99987941,1.0001206)"><tspan
         sodipodi:role="line"
         id="tspan3767-5-2"
         x="-332.04126"
         y="630.33069">ika</tspan></text>
    <path
       style="fill:#ff80b2;stroke:#ff80b2;stroke-width:1;stroke-linecap:round;stroke-linejoin:round;stroke-miterlimit:4;stroke-dasharray:none;stroke-opacity:1"
       d="m -401.54202,686.25898 c 1.91262,1.79208 1.69125,3.12401 2.49777,5.1112 0.35128,1.71061 2.04263,7.0127 5.34331,4.64734 3.30068,-2.36539 -3.05272,-5.87205 -3.699,-12.14448 5.11357,0.59805 7.01251,5.10475 8.99477,5.90192 1.98227,0.79719 5.39573,-2.89294 1.6502,-5.0882 -3.74554,-2.19523 -5.63513,-2.79031 -7.34072,-5.94385 2.19358,-1.24822 5.10217,-0.94142 7.60016,0.28357 5.23762,1.68413 6.53895,-3.52786 2.59007,-4.66281 -2.48953,-0.94654 -4.88471,0.99621 -9.23016,-1.64753 3.05314,-2.95237 3.61416,-1.87912 6.95043,-3.1795 5.73857,-2.30861 2.14739,-6.37806 -0.78286,-5.11876 -2.93025,1.25933 -5.6471,3.90723 -8.13349,3.29464 -10.77766,-12.53021 -24.42764,-3.89683 -25.40819,6.31979 -0.98057,10.21662 10.96664,18.19687 18.96771,12.22667 z"
       id="path2989-3-9-1"
       inkscape:connector-curvature="0"
       sodipodi:nodetypes="cczczzccccczczc" />
    <text
       xml:space="preserve"
       style="font-style:normal;font-variant:normal;font-weight:normal;font-stretch:normal;font-size:58.27581406px;line-height:125%;font-family:'Ubuntu Mono';-inkscape-font-specification:'Ubuntu Mono';letter-spacing:0px;word-spacing:0px;fill:#333333;fill-opacity:1;stroke:none"
       x="-452.0701"
       y="688.93573"
       id="text3759-6-3-8"
       sodipodi:linespacing="125%"
       transform="scale(0.99987941,1.0001206)"><tspan
         sodipodi:role="line"
         id="tspan3761-7-6-7"
         x="-452.0701"
         y="688.93573">D</tspan><tspan
         sodipodi:role="line"
         x="-452.0701"
         y="761.78052"
         id="tspan3763-5-0-9" /></text>
    <text
       xml:space="preserve"
       style="font-style:normal;font-variant:normal;font-weight:normal;font-stretch:normal;font-size:37.19969559px;line-height:125%;font-family:'Ubuntu Mono';-inkscape-font-specification:'Ubuntu Mono';letter-spacing:0px;word-spacing:0px;fill:#333333;fill-opacity:1;stroke:none"
       x="-451.36423"
       y="718.59882"
       id="text3765-3-6-2"
       sodipodi:linespacing="125%"
       transform="scale(0.99987941,1.0001206)"><tspan
         sodipodi:role="line"
         id="tspan3767-5-2-0"
         x="-451.36423"
         y="718.59882">ika</tspan></text>
    <path
       style="fill:#ff80b2;stroke:#ff80b2;stroke-width:1;stroke-linecap:round;stroke-linejoin:round;stroke-miterlimit:4;stroke-dasharray:none;stroke-opacity:1"
       d="m -407.8316,594.30094 c 1.91262,1.79209 1.69125,3.12401 2.49778,5.1112 0.35127,1.71061 2.04262,7.0127 5.3433,4.64734 3.30068,-2.36539 -3.05272,-5.87205 -3.69901,-12.14448 5.11358,0.59806 7.01251,5.10475 8.99478,5.90192 1.98227,0.79719 5.39573,-2.89294 1.6502,-5.08819 -3.74554,-2.19524 -5.63513,-2.79032 -7.34072,-5.94385 2.19358,-1.24822 5.10218,-0.94143 7.60015,0.28356 5.23762,1.68413 6.53897,-3.52785 2.59009,-4.6628 -2.48954,-0.94655 -4.88472,0.99621 -9.23017,-1.64754 3.05315,-2.95237 3.61416,-1.87912 6.95044,-3.17949 5.73856,-2.30862 2.14738,-6.37807 -0.78287,-5.11877 -2.93024,1.25933 -5.64711,3.90724 -8.13349,3.29464 -10.77765,-12.53021 -24.42764,-3.89683 -25.40818,6.31979 -0.98059,10.21662 10.96663,18.19687 18.9677,12.22667 z"
       id="path2989-3-9-1-7"
       inkscape:connector-curvature="0"
       sodipodi:nodetypes="cczczzccccczczc" />
    <text
       xml:space="preserve"
       style="font-style:normal;font-variant:normal;font-weight:normal;font-stretch:normal;font-size:58.27581406px;line-height:125%;font-family:'Ubuntu Mono';-inkscape-font-specification:'Ubuntu Mono';letter-spacing:0px;word-spacing:0px;fill:#333333;fill-opacity:1;stroke:none"
       x="-458.36053"
       y="596.98877"
       id="text3759-6-3-8-5"
       sodipodi:linespacing="125%"
       transform="scale(0.99987941,1.0001206)"><tspan
         sodipodi:role="line"
         id="tspan3761-7-6-7-9"
         x="-458.36053"
         y="596.98877">d</tspan><tspan
         sodipodi:role="line"
         x="-458.36053"
         y="669.83356"
         id="tspan3763-5-0-9-2" /></text>
    <text
       xml:space="preserve"
       style="font-style:normal;font-variant:normal;font-weight:normal;font-stretch:normal;font-size:37.19969559px;line-height:125%;font-family:'Ubuntu Mono';-inkscape-font-specification:'Ubuntu Mono';letter-spacing:0px;word-spacing:0px;fill:#333333;fill-opacity:1;stroke:none"
       x="-457.65466"
       y="626.65186"
       id="text3765-3-6-2-2"
       sodipodi:linespacing="125%"
       transform="scale(0.99987941,1.0001206)"><tspan
         sodipodi:role="line"
         id="tspan3767-5-2-0-8"
         x="-457.65466"
         y="626.65186">ika</tspan></text>
    <flowRoot
       xml:space="preserve"
       id="flowRoot4350"
       style="font-style:normal;font-weight:normal;font-size:40px;line-height:125%;font-family:sans-serif;letter-spacing:0px;word-spacing:0px;fill:#000000;fill-opacity:1;stroke:none;stroke-width:1px;stroke-linecap:butt;stroke-linejoin:miter;stroke-opacity:1"><flowRegion
         id="flowRegion4352"><rect
           id="rect4354"
           width="149.64285"
           height="126.78571"
           x="-565.35712"
           y="823.79077" /></flowRegion><flowPara
         id="flowPara4356" /></flowRoot>    <path
       style="fill:#ff80b2;stroke:#ff80b2;stroke-width:1.8513447;stroke-linecap:round;stroke-linejoin:round;stroke-miterlimit:4;stroke-dasharray:none;stroke-opacity:1"
       d="m -164.89114,623.95929 c 4.71864,4.81652 4.0026,8.21493 5.85649,13.41073 0.71417,4.43481 4.47669,18.24712 13.22199,12.53274 8.74534,-5.71434 -7.19894,-15.42726 -8.16807,-31.6178 13.07835,2.10132 17.46223,13.89246 22.46963,16.15988 5.00737,2.26746 14.18882,-6.83891 4.80324,-12.89381 -9.38556,-6.05486 -14.17705,-7.79265 -18.21326,-16.08508 5.77631,-2.96563 13.21894,-1.85617 19.50472,1.56763 13.27736,4.90603 17.19758,-8.34439 7.17234,-11.69688 -6.29484,-2.70728 -12.66599,2.02098 -23.54412,-5.25271 8.17379,-7.25017 9.49744,-4.43016 18.21677,-7.40372 15.00557,-5.2994 6.22359,-16.15369 -1.4475,-13.24087 -7.67109,2.91284 -14.94689,9.41774 -21.2705,7.56897 -26.32103,-33.39042 -62.36067,-12.7105 -66.00858,13.43652 -3.64792,26.14702 26.1815,47.97384 47.40685,33.5144 z"
       id="path2989-3-23-9"
       inkscape:connector-curvature="0"
       sodipodi:nodetypes="cczczzccccczczc" />
    <text
       xml:space="preserve"
       style="font-style:normal;font-variant:normal;font-weight:normal;font-stretch:normal;font-size:48.14683914px;line-height:125%;font-family:'Ubuntu Mono';-inkscape-font-specification:'Ubuntu Mono';letter-spacing:0px;word-spacing:0px;fill:#333333;fill-opacity:1;stroke:none"
       x="-203.13309"
       y="596.48755"
       id="text3759-6-9-6-6-7"
       sodipodi:linespacing="125%"><tspan
         sodipodi:role="line"
         id="tspan3761-7-1-0-7-3"
         x="-203.13309"
         y="596.48755">do</tspan><tspan
         sodipodi:role="line"
         x="-203.13309"
         y="656.67108"
         id="tspan3763-5-2-6-5-6" /></text>
    <text
       xml:space="preserve"
       style="font-style:normal;font-variant:normal;font-weight:normal;font-stretch:normal;font-size:30.73398209px;line-height:125%;font-family:'Ubuntu Mono';-inkscape-font-specification:'Ubuntu Mono';letter-spacing:0px;word-spacing:0px;fill:#333333;fill-opacity:1;stroke:none"
       x="-202.54996"
       y="620.99493"
       id="text3765-3-7-2-3-1"
       sodipodi:linespacing="125%"><tspan
         sodipodi:role="line"
         id="tspan3767-5-0-6-5-2"
         x="-202.54996"
         y="620.99493">ika</tspan></text>
    <path
       style="fill:#ff80b2;stroke:#ff80b2;stroke-width:1.29350626;stroke-linecap:round;stroke-linejoin:round;stroke-miterlimit:4;stroke-dasharray:none;stroke-opacity:1"
       d="m -401.97883,782.07314 c 2.474,2.31807 2.18763,4.04092 3.23089,6.61136 0.45438,2.21269 2.64216,9.07098 6.9116,6.01135 4.26944,-3.05964 -3.94872,-7.59554 -4.78469,-15.70895 6.61444,0.77359 9.07072,6.60302 11.63479,7.63417 2.56409,1.03116 6.97942,-3.74204 2.13454,-6.58163 -4.84488,-2.83954 -7.28907,-3.60926 -9.49525,-7.68838 2.8374,-1.61461 6.59969,-1.21776 9.83083,0.3668 6.77491,2.1784 8.45819,-4.56331 3.35029,-6.03139 -3.22023,-1.22435 -6.31841,1.28862 -11.93926,-2.13108 3.94925,-3.81891 4.67493,-2.43066 8.99042,-4.11271 7.42287,-2.9862 2.77765,-8.25006 -1.01265,-6.62114 -3.79029,1.62894 -7.30455,5.05403 -10.5207,4.26163 -13.94098,-16.2079 -31.59731,-5.04057 -32.86565,8.17468 -1.26838,13.21526 14.18541,23.53778 24.53484,15.81529 z"
       id="path2989-3-9-1-7-9"
       inkscape:connector-curvature="0"
       sodipodi:nodetypes="cczczzccccczczc" />
    <text
       xml:space="preserve"
       style="font-style:normal;font-variant:normal;font-weight:normal;font-stretch:normal;font-size:58.27581406px;line-height:125%;font-family:'Ubuntu Mono';-inkscape-font-specification:'Ubuntu Mono';letter-spacing:0px;word-spacing:0px;fill:#333333;fill-opacity:1;stroke:none"
       x="-453.08176"
       y="781.03723"
       id="text3759-6-3-8-5-3"
       sodipodi:linespacing="125%"
       transform="scale(0.99987941,1.0001206)"><tspan
         sodipodi:role="line"
         id="tspan3761-7-6-7-9-1"
         x="-453.08176"
         y="781.03723">do</tspan><tspan
         sodipodi:role="line"
         x="-453.08176"
         y="853.88202"
         id="tspan3763-5-0-9-2-9" /></text>
    <text
       xml:space="preserve"
       style="font-style:normal;font-variant:normal;font-weight:normal;font-stretch:normal;font-size:37.19969559px;line-height:125%;font-family:'Ubuntu Mono';-inkscape-font-specification:'Ubuntu Mono';letter-spacing:0px;word-spacing:0px;fill:#333333;fill-opacity:1;stroke:none"
       x="-452.37592"
       y="810.70032"
       id="text3765-3-6-2-2-4"
       sodipodi:linespacing="125%"
       transform="scale(0.99987941,1.0001206)"><tspan
         sodipodi:role="line"
         id="tspan3767-5-2-0-8-7"
         x="-452.37592"
         y="810.70032">ika</tspan></text>
    <g
       id="g4261"
       transform="matrix(1.4426844,0,0,1.4426844,700.60375,53.793516)">
      <path
         sodipodi:nodetypes="cczczzccccczczc"
         inkscape:connector-curvature="0"
         id="path2989-3-9-1-8"
         d="m -661.83356,580.90981 c 1.80564,1.35679 1.74008,2.51827 2.61619,4.14525 0.46038,1.43249 2.40339,5.8164 5.01089,3.48276 2.6075,-2.33365 -3.16249,-4.74525 -4.30056,-10.05769 4.43684,0.0358 6.48357,3.71901 8.25614,4.21712 1.77267,0.4981 4.35339,-2.98079 0.93984,-4.51211 -3.41356,-1.53129 -5.08797,-1.86491 -6.84304,-4.40715 1.76315,-1.27358 4.28366,-1.28184 6.53801,-0.46535 4.6442,0.95446 5.27357,-3.63115 1.7846,-4.23531 -2.22115,-0.57877 -4.09222,1.30851 -8.06154,-0.55105 2.34077,-2.81338 2.92145,-1.94637 5.65866,-3.37111 4.70149,-2.51222 1.24563,-5.66328 -1.14764,-4.31154 -2.39316,1.35173 -4.47415,3.87299 -6.66149,3.57997 -10.40118,-9.72845 -21.29169,-1.06148 -21.17994,7.78097 0.11176,8.84246 11.09109,14.56465 17.38988,8.70524 z"
         style="fill:#ff80b2;stroke:#ff80b2;stroke-width:0.72295272;stroke-linecap:round;stroke-linejoin:round;stroke-miterlimit:4;stroke-dasharray:none;stroke-opacity:1" />
      <text
         sodipodi:linespacing="125%"
         id="text3759-6-3-8-4"
         y="583.55676"
         x="-706.1731"
         style="font-style:normal;font-variant:normal;font-weight:normal;font-stretch:normal;font-size:48.14683914px;line-height:125%;font-family:'Ubuntu Mono';-inkscape-font-specification:'Ubuntu Mono';letter-spacing:0px;word-spacing:0px;fill:#333333;fill-opacity:1;stroke:none"
         xml:space="preserve"><tspan
           y="583.55676"
           x="-706.1731"
           id="tspan3761-7-6-7-5"
           sodipodi:role="line">D</tspan><tspan
           id="tspan3763-5-0-9-0"
           y="643.7403"
           x="-706.1731"
           sodipodi:role="line" /></text>
      <text
         sodipodi:linespacing="125%"
         id="text3765-3-6-2-3"
         y="583.4201"
         x="-646.65051"
         style="font-style:normal;font-variant:normal;font-weight:normal;font-stretch:normal;font-size:47.06751251px;line-height:125%;font-family:'Ubuntu Mono';-inkscape-font-specification:'Ubuntu Mono';letter-spacing:0px;word-spacing:0px;fill:#333333;fill-opacity:1;stroke:none"
         xml:space="preserve"><tspan
           style="font-size:48.13750076px"
           y="583.4201"
           x="-646.65051"
           id="tspan3767-5-2-0-6"
           sodipodi:role="line">ika</tspan></text>
    </g>
    <path
       style="fill:#ff80b2;stroke:#ff80b2;stroke-width:2;stroke-linecap:round;stroke-linejoin:round;stroke-miterlimit:4;stroke-dasharray:none;stroke-opacity:1"
       d="m 50.718067,683.41948 c 0,0 5.085119,10.79417 3.954912,25.48423 -0.77555,7.87813 -1.395631,32.06736 16.074789,26.25871 17.470746,-5.80861 -5.336185,-29.5236 0.28663,-57.5491 21.342948,9.45666 23.515922,31.51944 31.030302,37.63318 7.51438,6.1137 27.25223,-5.27935 13.97849,-19.81416 -13.27374,-14.53484 -20.658102,-19.64896 -23.810546,-35.59331 11.175976,-2.45849 23.360456,2.77616 32.533926,11.43471 20.42205,14.32547 33.0558,-6.49284 17.47793,-16.70999 -9.51068,-7.44172 -22.49225,-2.24689 -37.7618,-19.52918 17.18657,-8.68256 18.17517,-3.2823 34.37003,-4.43197 27.95209,-2.28877 17.86342,-24.731 3.48214,-23.21388 -14.38111,1.51718 -29.29045,9.74513 -39.23605,3.75353 -18.467018,-65.76434 -88.885416,-56.04167 -110.40765,-22.19442 -21.522234,33.84726 -5.714172,98.68672 58.026897,94.47165 z"
       id="path2989-3-23-1"
       inkscape:connector-curvature="0"
       sodipodi:nodetypes="cczczzccccczczc" />
    <text
       xml:space="preserve"
       style="font-style:normal;font-variant:normal;font-weight:normal;font-stretch:normal;font-size:78.54404449px;line-height:125%;font-family:'Ubuntu Mono';-inkscape-font-specification:'Ubuntu Mono';letter-spacing:0px;word-spacing:0px;fill:#333333;fill-opacity:1;stroke:none"
       x="4.4931769"
       y="626.77631"
       id="text3759-6-9-6-6-0"
       sodipodi:linespacing="125%"
       transform="scale(1.0000112,0.99998877)"><tspan
         sodipodi:role="line"
         id="tspan3761-7-1-0-7-6"
         x="4.4931769"
         y="626.77631">Do</tspan><tspan
         sodipodi:role="line"
         x="4.4931769"
         y="724.95636"
         id="tspan3763-5-2-6-5-3" /></text>
    <text
       xml:space="preserve"
       style="font-style:normal;font-variant:normal;font-weight:normal;font-stretch:normal;font-size:50.1376915px;line-height:125%;font-family:'Ubuntu Mono';-inkscape-font-specification:'Ubuntu Mono';letter-spacing:0px;word-spacing:0px;fill:#333333;fill-opacity:1;stroke:#333333;stroke-width:0.5;stroke-miterlimit:4;stroke-dasharray:none"
       x="5.4444623"
       y="666.75635"
       id="text3765-3-7-2-3-2"
       sodipodi:linespacing="125%"
       transform="scale(1.0000112,0.99998878)"><tspan
         sodipodi:role="line"
         id="tspan3767-5-0-6-5-0"
         x="5.4444623"
         y="666.75635"
         style="stroke-width:0.5">ika</tspan></text>
    <text
       xml:space="preserve"
       style="font-style:normal;font-variant:normal;font-weight:normal;font-stretch:normal;font-size:113.67624664px;line-height:125%;font-family:'Ubuntu Mono';-inkscape-font-specification:'Ubuntu Mono';letter-spacing:0px;word-spacing:0px;fill:#333333;fill-opacity:1;stroke:none"
       x="-148.64587"
       y="499.51608"
       id="text3759-6-3-8-4-1"
       sodipodi:linespacing="125%"><tspan
         sodipodi:role="line"
         id="tspan3761-7-6-7-5-5"
         x="-148.64587"
         y="499.51608">D</tspan><tspan
         sodipodi:role="line"
         x="-148.64587"
         y="641.61139"
         id="tspan3763-5-0-9-0-5" /></text>
    <text
       xml:space="preserve"
       style="font-style:normal;font-variant:normal;font-weight:normal;font-stretch:normal;font-size:111.12792206px;line-height:125%;font-family:'Ubuntu Mono';-inkscape-font-specification:'Ubuntu Mono';letter-spacing:0px;word-spacing:0px;fill:#333333;fill-opacity:1;stroke:none"
       x="-12.833199"
       y="499.19342"
       id="text3765-3-6-2-3-4"
       sodipodi:linespacing="125%"><tspan
         sodipodi:role="line"
         id="tspan3767-5-2-0-6-7"
         x="-12.833199"
         y="499.19342"
         style="font-size:113.65420532px">ika</tspan></text>
    <path
       style="fill:#ff80b2;stroke:#ff80b2;stroke-width:0.62530756;stroke-linecap:round;stroke-linejoin:round;stroke-miterlimit:4;stroke-dasharray:none;stroke-opacity:1"
       d="m -53.971992,500.86194 c 0,0 2.300826,4.88443 1.789662,11.53178 -0.351085,3.56492 -0.631576,14.51067 7.273633,11.88223 7.905445,-2.62842 -2.414628,-13.3596 0.129857,-26.04137 9.657567,4.27921 10.640937,14.26281 14.04106,17.02928 3.400359,2.76649 12.331673,-2.38894 6.325206,-8.96604 -6.00623,-6.57708 -9.347563,-8.89127 -10.774099,-16.10619 5.057095,-1.11247 10.570578,1.25624 14.72151,5.1743 9.240845,6.48233 14.957613,-2.93805 7.90875,-7.5614 -4.30369,-3.36742 -10.177703,-1.01673 -17.087028,-8.83708 7.776769,-3.92892 8.223948,-1.48528 15.552121,-2.00551 12.6482871,-1.03569 8.083231,-11.19094 1.575753,-10.50442 -6.507478,0.68654 -13.253892,4.4097 -17.754256,1.69848 -8.356166,-29.75879 -40.220189,-25.35924 -49.958976,-10.04313 -9.738786,15.31612 -2.585566,44.65643 26.257043,42.74907 z"
       id="path2989-3-23-1-5"
       inkscape:connector-curvature="0"
       sodipodi:nodetypes="cczczzccccczczc" />
    <text
       xml:space="preserve"
       style="font-style:normal;font-variant:normal;font-weight:normal;font-stretch:normal;font-size:129.9460907px;line-height:125%;font-family:'Ubuntu Mono';-inkscape-font-specification:'Ubuntu Mono';letter-spacing:0px;word-spacing:0px;fill:#333333;fill-opacity:1;stroke:none"
       x="1.4112424"
       y="833.32635"
       id="text3759-6-3-8-6"
       sodipodi:linespacing="125%"
       transform="scale(1.0001455,0.99985452)"><tspan
         sodipodi:role="line"
         id="tspan3761-7-6-7-93"
         x="1.4112424"
         y="833.32635">D</tspan><tspan
         sodipodi:role="line"
         x="1.4112424"
         y="995.75897"
         id="tspan3763-5-0-9-7" /></text>
    <text
       xml:space="preserve"
       style="font-style:normal;font-variant:normal;font-weight:normal;font-stretch:normal;font-size:82.94960022px;line-height:125%;font-family:'Ubuntu Mono';-inkscape-font-specification:'Ubuntu Mono';letter-spacing:0px;word-spacing:0px;fill:#333333;fill-opacity:1;stroke:#333333;stroke-width:0.5;stroke-miterlimit:4;stroke-dasharray:none"
       x="3.5687664"
       y="905.25403"
       id="text3765-3-6-2-4"
       sodipodi:linespacing="125%"
       transform="scale(1.0001455,0.99985452)"><tspan
         sodipodi:role="line"
         id="tspan3767-5-2-0-5"
         x="3.5687664"
         y="905.25403"
         style="stroke-width:0.5">ika</tspan></text>
    <path
       style="fill:#ff80b2;stroke:#ff80b2;stroke-width:0.6253075;stroke-linecap:round;stroke-linejoin:round;stroke-miterlimit:4;stroke-dasharray:none;stroke-opacity:1"
       d="m 101.63774,832.82325 c 0,0 2.25018,4.77552 1.75027,11.27465 -0.34336,3.48543 -0.61768,14.18712 7.11359,11.61728 7.73142,-2.56981 -2.36148,-13.06171 0.12699,-25.4607 9.44498,4.18379 10.4067,13.94478 13.73198,16.64957 3.32551,2.7048 12.06022,-2.33568 6.18597,-8.76613 -5.87402,-6.43043 -9.1418,-8.69302 -10.53693,-15.74706 4.94577,-1.08766 10.33789,1.22823 14.39745,5.05893 9.03743,6.33779 14.62835,-2.87254 7.73465,-7.3928 -4.20895,-3.29234 -9.95366,-0.99406 -16.71089,-8.64004 7.60558,-3.84132 8.04292,-1.45216 15.20977,-1.96079 12.36987,-1.0126 7.9053,-10.94141 1.54107,-10.2702 -6.36423,0.67123 -12.96214,4.31137 -17.36343,1.6606 -8.17223,-29.09524 -39.334901,-24.79379 -48.85931,-9.81918 -9.524409,14.9746 -2.528651,43.6607 25.67905,41.79587 z"
       id="path2989-3-23-1-5-2"
       inkscape:connector-curvature="0"
       sodipodi:nodetypes="cczczzccccczczc" />
  </g>
</svg>
