<?xml version="1.0" encoding="UTF-8" standalone="no"?>
<!-- Created with Inkscape (http://www.inkscape.org/) -->

<svg
   xmlns:dc="http://purl.org/dc/elements/1.1/"
   xmlns:cc="http://creativecommons.org/ns#"
   xmlns:rdf="http://www.w3.org/1999/02/22-rdf-syntax-ns#"
   xmlns:svg="http://www.w3.org/2000/svg"
   xmlns="http://www.w3.org/2000/svg"
   xmlns:sodipodi="http://sodipodi.sourceforge.net/DTD/sodipodi-0.dtd"
   xmlns:inkscape="http://www.inkscape.org/namespaces/inkscape"
   width="1080.632mm"
   height="1426.7367mm"
   viewBox="0 0 3829.0108 5055.3659"
   id="svg2"
   version="1.1"
   inkscape:version="0.91 r13725"
   sodipodi:docname="doika_garodnia.svg"
   inkscape:export-filename="/home/jedi/Pictures/doika/milk_footer_3.png"
   inkscape:export-xdpi="13.052411"
   inkscape:export-ydpi="13.052411">
  <defs
     id="defs4" />
  <sodipodi:namedview
     id="base"
     pagecolor="#ffffff"
     bordercolor="#666666"
     borderopacity="1.0"
     inkscape:pageopacity="0.0"
     inkscape:pageshadow="2"
     inkscape:zoom="0.11520248"
     inkscape:cx="3833.8413"
     inkscape:cy="2761.3249"
     inkscape:document-units="px"
     inkscape:current-layer="layer1"
     showgrid="false"
     fit-margin-top="0"
     fit-margin-left="0"
     fit-margin-right="0"
     fit-margin-bottom="0"
     inkscape:window-width="1855"
     inkscape:window-height="1056"
     inkscape:window-x="65"
     inkscape:window-y="24"
     inkscape:window-maximized="1"
     showguides="true"
     inkscape:guide-bbox="true">
    <sodipodi:guide
       position="-1969.9309,2484.196"
       orientation="0,1"
       id="guide4180" />
    <sodipodi:guide
       position="2896.5758,330.91459"
       orientation="0,1"
       id="guide4171" />
    <sodipodi:guide
       position="4947.2751,4721.5851"
       orientation="0,1"
       id="guide4219" />
    <sodipodi:guide
       position="1939.0566,5014.1676"
       orientation="0,1"
       id="guide4221" />
    <sodipodi:guide
       position="-80.327967,5014.1676"
       orientation="-0.70710678,0.70710678"
       id="guide4223" />
    <sodipodi:guide
       position="312.50064,4081.1997"
       orientation="1,0"
       id="guide4225" />
    <sodipodi:guide
       position="3498.0952,3485.8189"
       orientation="1,0"
       id="guide4227" />
  </sodipodi:namedview>
  <metadata
     id="metadata7">
    <rdf:RDF>
      <cc:Work
         rdf:about="">
        <dc:format>image/svg+xml</dc:format>
        <dc:type
           rdf:resource="http://purl.org/dc/dcmitype/StillImage" />
        <dc:title></dc:title>
      </cc:Work>
    </rdf:RDF>
  </metadata>
  <g
     inkscape:label="Layer 1"
     inkscape:groupmode="layer"
     id="layer1"
     transform="translate(-4618.0977,1630.3184)">
    <rect
       style="color:#000000;clip-rule:nonzero;display:inline;overflow:visible;visibility:visible;opacity:1;isolation:auto;mix-blend-mode:normal;color-interpolation:sRGB;color-interpolation-filters:linearRGB;solid-color:#000000;solid-opacity:1;fill:#ffffff;fill-opacity:1;fill-rule:nonzero;stroke:none;stroke-width:21.06843185;stroke-linecap:square;stroke-linejoin:miter;stroke-miterlimit:4;stroke-dasharray:none;stroke-dashoffset:0;stroke-opacity:1;color-rendering:auto;image-rendering:auto;shape-rendering:auto;text-rendering:auto;enable-background:accumulate"
       id="rect4164"
       width="3829.011"
       height="5055.3662"
       x="4618.0977"
       y="-1630.3186" />
    <path
       style="fill:#333333;fill-rule:evenodd;stroke:#333333;stroke-width:40;stroke-linecap:round;stroke-linejoin:round;stroke-miterlimit:4;stroke-dasharray:none;stroke-opacity:1"
       d="m 6111.4776,2438.3382 169.8228,601.2963 c 0,0 85.6766,41.6917 291.4288,39.9999 174.6418,-1.436 248.5714,-32.8571 248.5714,-32.8571 l 137.3201,-615.582 c 0,0 -282.8572,48.5714 -434.2857,48.5714 -151.4288,0 -412.8574,-41.4285 -412.8574,-41.4285 z"
       id="path4136-3-5-0-6"
       inkscape:connector-curvature="0"
       sodipodi:nodetypes="ccsccsc" />
    <path
       style="fill:none;fill-rule:evenodd;stroke:#4d4d4d;stroke-width:50;stroke-linecap:round;stroke-linejoin:round;stroke-miterlimit:4;stroke-dasharray:none;stroke-opacity:1"
       d="m 6114.2961,2422.6158 c 0,0 13.0205,-305.983 288.6222,-332.0241 192.4927,-18.1883 355.6626,46.8359 476.5919,183.0805 41.1342,46.3438 76.7816,148.9436 76.7816,148.9436"
       id="path4271"
       inkscape:connector-curvature="0"
       sodipodi:nodetypes="cssc" />
    <path
       style="fill:#cccccc;fill-rule:evenodd;stroke:#cccccc;stroke-width:40;stroke-linecap:round;stroke-linejoin:round;stroke-miterlimit:4;stroke-dasharray:none;stroke-opacity:1"
       d="m 6108.0557,2419.1342 c 24.7103,-46.7408 77.4269,-76.2797 145.1246,-93.2256 68.1358,-17.0555 176.4032,33.9827 261.6104,37.741 73.9044,3.2598 118.832,-28.0854 183.8394,-22.6081 154.3506,13.0051 291.0707,67.5444 255.1401,89.5212 0,0 -173.0461,58.4969 -247.1429,68.5714 -325.7143,44.2858 -452.8573,10e-5 -498.5716,-17.1428 -45.7143,-17.1429 -100,-62.8571 -100,-62.8571 z"
       id="path4142-6-3-9-0"
       inkscape:connector-curvature="0"
       sodipodi:nodetypes="cssscssc" />
    <g
       transform="matrix(3.4135809,0,0,3.4135809,10868.62,2456.9758)"
       id="layer1-6"
       inkscape:label="Layer 1">
      <path
         sodipodi:nodetypes="cczczzccccczczc"
         inkscape:connector-curvature="0"
         id="path2989-3-23-1"
         d="m -1266.1773,128.64142 c 0,0 3.1171,6.61681 2.4243,15.62179 -0.4754,4.82928 -0.8555,19.65724 9.8536,16.09655 10.7093,-3.56067 -3.271,-18.09792 0.1757,-35.27751 13.0829,5.79692 14.4149,19.32137 19.0211,23.06908 4.6062,3.74769 16.7052,-3.23623 8.5686,-12.14605 -8.1366,-8.90983 -12.6631,-12.04478 -14.5955,-21.81863 6.8507,-1.50705 14.3196,1.70178 19.9428,7.00946 12.5184,8.78148 20.2627,-3.9801 10.7137,-10.2432 -5.8299,-4.56176 -13.7874,-1.37734 -23.1474,-11.971359 10.5351,-5.32239 11.1411,-2.01204 21.0683,-2.71679 17.1342,-1.40301 10.95,-15.16006 2.1345,-14.23007 -8.8154,0.93003 -17.9546,5.97375 -24.0511,2.30091 -11.32,-40.31344 -54.4854,-34.35346 -67.6782,-13.60515 -13.1928,20.74832 -3.5027,60.494799 35.5696,57.910969 z"
         style="fill:#ff80b2;stroke:#ff80b2;stroke-width:2;stroke-linecap:round;stroke-linejoin:round;stroke-miterlimit:4;stroke-dasharray:none;stroke-opacity:1" />
    </g>
    <path
       style="fill:#333333;fill-rule:evenodd;stroke:#333333;stroke-width:40;stroke-linecap:round;stroke-linejoin:round;stroke-miterlimit:4;stroke-dasharray:none;stroke-opacity:1"
       d="m 7265.4776,2438.3382 169.8228,601.2962 c 0,0 85.6766,41.6918 291.4288,40 174.6417,-1.436 248.5714,-32.8571 248.5714,-32.8571 l 137.3201,-615.582 c 0,0 -282.8572,48.5714 -434.2858,48.5714 -151.4287,0 -412.8573,-41.4285 -412.8573,-41.4285 z"
       id="path4136-3-1-1"
       inkscape:connector-curvature="0"
       sodipodi:nodetypes="ccsccsc" />
    <path
       style="fill:#cccccc;fill-rule:evenodd;stroke:#cccccc;stroke-width:40;stroke-linecap:round;stroke-linejoin:round;stroke-miterlimit:4;stroke-dasharray:none;stroke-opacity:1"
       d="m 8114.2987,2412.6239 c -36.201,-202.1497 -134.9778,-275.1612 -288.141,-280.9941 80.5274,284.6132 -510.4306,238.1369 -539.002,252.4226 -28.5715,14.2858 -18.5715,40 -18.5715,40 0,0 173.0461,58.4969 247.1429,68.5715 325.7143,44.2857 452.8573,0 498.5716,-17.1429 45.7143,-17.1428 100,-62.8571 100,-62.8571 z"
       id="path4142-6-2-8"
       inkscape:connector-curvature="0"
       sodipodi:nodetypes="ccscssc" />
    <path
       style="fill:#ff80b2;fill-rule:evenodd;stroke:#ff80b2;stroke-width:33.45318222;stroke-linecap:round;stroke-linejoin:round;stroke-miterlimit:4;stroke-dasharray:none;stroke-opacity:1"
       d="m 7660.4571,2144.0127 c 0,0 -73.3441,-12.2703 -105.7874,-59.6197 -32.4433,-47.3494 -76.5593,-66.9645 -119.1801,-49.599 -57.5442,23.4458 -31.5437,98.2975 4.2801,118.7815 56.4134,32.2572 164.8375,3.5488 220.6874,-9.5628 z"
       id="path4144-7-7-7"
       inkscape:connector-curvature="0"
       sodipodi:nodetypes="csssc" />
    <path
       style="fill:#cccccc;fill-rule:evenodd;stroke:#cccccc;stroke-width:1px;stroke-linecap:butt;stroke-linejoin:miter;stroke-opacity:1"
       d="m 5122.117,3028.1498 -118.1556,-388.2252 739.6226,-1.5345 -84.397,392.8287 c 0,0 -253.19,57.9139 -260.863,57.9139 -7.672,0 -276.207,-60.9829 -276.207,-60.9829 z"
       id="path4334"
       inkscape:connector-curvature="0" />
    <path
       style="fill:none;fill-rule:evenodd;stroke:#333333;stroke-width:50;stroke-linecap:round;stroke-linejoin:round;stroke-miterlimit:4;stroke-dasharray:none;stroke-opacity:1"
       d="m 4950.5722,2427.7864 169.8228,601.2963 c 0,0 85.6766,41.6917 291.4287,40 174.6418,-1.436 248.5714,-32.8571 248.5714,-32.8571 l 137.3201,-615.5821"
       id="path4136-3-5-0-9"
       inkscape:connector-curvature="0"
       sodipodi:nodetypes="ccscc" />
    <path
       style="opacity:1;fill:#cccccc;fill-opacity:1;fill-rule:nonzero;stroke:#cccccc;stroke-width:49.22872543;stroke-linecap:round;stroke-linejoin:round;stroke-miterlimit:4;stroke-dasharray:none;stroke-opacity:1"
       id="path4261-3"
       sodipodi:type="arc"
       sodipodi:cx="5379.7368"
       sodipodi:cy="2631.8289"
       sodipodi:rx="363.48257"
       sodipodi:ry="49.462173"
       sodipodi:start="0"
       sodipodi:end="6.145409"
       d="m 5743.2194,2631.8289 a 363.48257,49.462173 0 0 1 -350.9652,49.4328 363.48257,49.462173 0 0 1 -375.1378,-46.0282 363.48257,49.462173 0 0 1 325.1278,-52.603 363.48257,49.462173 0 0 1 397.5308,42.4052 l -360.0382,6.7932 z" />
    <path
       style="fill:#ff80b2;fill-rule:evenodd;stroke:#ff80b2;stroke-width:33.45318222;stroke-linecap:round;stroke-linejoin:round;stroke-miterlimit:4;stroke-dasharray:none;stroke-opacity:1"
       d="m 7703.8136,2002.5177 c 0,0 -27.8114,-68.9668 -4.3541,-121.3529 23.4573,-52.3859 17.165,-100.2543 -19.8916,-127.5472 -50.0315,-36.8492 -100.311,24.3943 -99.0877,65.6428 1.9264,64.956 83.0012,142.4599 123.3334,183.2573 z"
       id="path4144-7-7-7-9"
       inkscape:connector-curvature="0"
       sodipodi:nodetypes="csssc" />
    <g
       transform="matrix(25.665254,0,0,25.665254,15458.935,-18905.231)"
       id="layer1-67"
       inkscape:label="Layer 1">
      <text
         sodipodi:linespacing="125%"
         id="text3759-6-3-8-4-1"
         y="777.15881"
         x="-412.59967"
         style="font-style:normal;font-variant:normal;font-weight:normal;font-stretch:normal;font-size:48.14683914px;line-height:125%;font-family:'Ubuntu Mono';-inkscape-font-specification:'Ubuntu Mono';letter-spacing:0px;word-spacing:0px;fill:#333333;fill-opacity:1;stroke:none"
         xml:space="preserve"><tspan
           y="777.15881"
           x="-412.59967"
           id="tspan3761-7-6-7-5-5"
           sodipodi:role="line">D</tspan><tspan
           id="tspan3763-5-0-9-0-5"
           y="837.34235"
           x="-412.59967"
           sodipodi:role="line" /></text>
      <text
         sodipodi:linespacing="125%"
         id="text3765-3-6-2-3-4"
         y="777.02216"
         x="-355.07709"
         style="font-style:normal;font-variant:normal;font-weight:normal;font-stretch:normal;font-size:47.06751251px;line-height:125%;font-family:'Ubuntu Mono';-inkscape-font-specification:'Ubuntu Mono';letter-spacing:0px;word-spacing:0px;fill:#333333;fill-opacity:1;stroke:none"
         xml:space="preserve"><tspan
           style="font-size:48.13750076px"
           y="777.02216"
           x="-355.07709"
           id="tspan3767-5-2-0-6-7"
           sodipodi:role="line">ika</tspan></text>
      <path
         sodipodi:nodetypes="cczczzccccczczc"
         inkscape:connector-curvature="0"
         id="path2989-3-23-1-5"
         d="m -372.50116,777.72883 c 0,0 0.9745,2.06877 0.758,4.88421 -0.1487,1.5099 -0.2675,6.1459 3.0807,5.03264 3.3483,-1.11325 -1.0227,-5.65837 0.055,-11.02965 4.0904,1.81243 4.5069,6.04092 5.947,7.21264 1.4402,1.17173 5.223,-1.01182 2.679,-3.79751 -2.5439,-2.78568 -3.9591,-3.76584 -4.5633,-6.82167 2.1419,-0.47118 4.4771,0.53207 6.2352,2.19154 3.9139,2.74555 6.3352,-1.24439 3.3497,-3.20258 -1.8228,-1.42625 -4.3107,-0.43063 -7.2371,-3.74289 3.2938,-1.66407 3.4832,-0.62908 6.587,-0.84942 5.3571,-0.43866 3.4236,-4.73985 0.6674,-4.44908 -2.7562,0.29078 -5.6136,1.8677 -7.5197,0.71938 -3.5392,-12.60414 -17.035,-10.74074 -21.1598,-4.2537 -4.1248,6.48704 -1.0951,18.91394 11.121,18.10609 z"
         style="fill:#ff80b2;stroke:#ff80b2;stroke-width:0.6253075;stroke-linecap:round;stroke-linejoin:round;stroke-miterlimit:4;stroke-dasharray:none;stroke-opacity:1" />
    </g>
    <text
       xml:space="preserve"
       style="font-style:normal;font-weight:normal;font-size:555.97558594px;line-height:125%;font-family:sans-serif;letter-spacing:0px;word-spacing:0px;fill:#333333;fill-opacity:1;stroke:none;stroke-width:1px;stroke-linecap:butt;stroke-linejoin:miter;stroke-opacity:1"
       x="4876.5571"
       y="-900.29065"
       id="text4194"
       sodipodi:linespacing="125%"><tspan
         sodipodi:role="line"
         id="tspan4196"
         x="4876.5571"
         y="-900.29065"
         style="font-style:normal;font-variant:normal;font-weight:normal;font-stretch:normal;font-family:Ubuntu;-inkscape-font-specification:Ubuntu;fill:#333333">19</tspan></text>
    <text
       xml:space="preserve"
       style="font-style:normal;font-variant:normal;font-weight:normal;font-stretch:normal;font-size:223.80371094px;line-height:125%;font-family:Ubuntu;-inkscape-font-specification:Ubuntu;letter-spacing:0px;word-spacing:0px;fill:#333333;fill-opacity:1;stroke:none;stroke-width:1px;stroke-linecap:butt;stroke-linejoin:miter;stroke-opacity:1"
       x="4919.3657"
       y="-708.15332"
       id="text4198"
       sodipodi:linespacing="125%"><tspan
         sodipodi:role="line"
         id="tspan4200"
         x="4919.3657"
         y="-708.15332">студзеня</tspan></text>
    <text
       xml:space="preserve"
       style="font-style:normal;font-variant:normal;font-weight:normal;font-stretch:normal;font-size:380.72619629px;line-height:125%;font-family:Ubuntu;-inkscape-font-specification:Ubuntu;letter-spacing:0px;word-spacing:0px;fill:#333333;fill-opacity:1;stroke:none;stroke-width:1px;stroke-linecap:butt;stroke-linejoin:miter;stroke-opacity:1"
       x="4893.6387"
       y="-348.07678"
       id="text4202"
       sodipodi:linespacing="125%"><tspan
         sodipodi:role="line"
         id="tspan4204"
         x="4893.6387"
         y="-348.07678">14:00</tspan></text>
    <text
       xml:space="preserve"
       style="font-style:normal;font-variant:normal;font-weight:normal;font-stretch:normal;font-size:178.98620605px;line-height:100%;font-family:Ubuntu;-inkscape-font-specification:Ubuntu;text-align:end;letter-spacing:0px;word-spacing:0px;text-anchor:end;fill:#666666;fill-opacity:1;stroke:none;stroke-width:1px;stroke-linecap:butt;stroke-linejoin:miter;stroke-opacity:1"
       x="8091.9604"
       y="1256.3657"
       id="text4206"
       sodipodi:linespacing="100%"><tspan
         sodipodi:role="line"
         id="tspan4208"
         x="8091.9604"
         y="1256.3657">модуль прыёму</tspan><tspan
         sodipodi:role="line"
         x="8091.9604"
         y="1435.3519"
         id="tspan4210">ахвяраванняў</tspan></text>
    <path
       style="color:#000000;clip-rule:nonzero;display:inline;overflow:visible;visibility:visible;opacity:1;isolation:auto;mix-blend-mode:normal;color-interpolation:sRGB;color-interpolation-filters:linearRGB;solid-color:#000000;solid-opacity:1;fill:#cccccc;fill-opacity:1;fill-rule:nonzero;stroke:none;stroke-width:20;stroke-linecap:square;stroke-linejoin:miter;stroke-miterlimit:4;stroke-dasharray:none;stroke-dashoffset:0;stroke-opacity:1;color-rendering:auto;image-rendering:auto;shape-rendering:auto;text-rendering:auto;enable-background:accumulate"
       d="m 8039.4685,-878.72689 c -5.6832,-148.94741 -69.3384,-191.21811 -207.1873,-419.34151 -141.2626,228.6743 -205.7106,280.1795 -210.1715,416.63661 -0.7934,49.5696 20.2243,97.411 58.4696,133.0911 38.2454,35.6801 90.6158,56.3044 145.6907,57.3754 55.0748,1.071 108.3863,-17.4984 148.3086,-51.6584 39.9223,-34.1601 63.2167,-81.1398 64.8033,-130.694"
       id="path4212"
       inkscape:connector-curvature="0"
       sodipodi:nodetypes="cccsssc" />
    <text
       xml:space="preserve"
       style="font-style:normal;font-variant:normal;font-weight:normal;font-stretch:normal;font-size:155.69288635px;line-height:125%;font-family:Ubuntu;-inkscape-font-specification:Ubuntu;letter-spacing:0px;word-spacing:0px;fill:#333333;fill-opacity:1;stroke:none;stroke-width:1px;stroke-linecap:butt;stroke-linejoin:miter;stroke-opacity:1"
       x="7528.1143"
       y="-525.22107"
       id="text4215"
       sodipodi:linespacing="125%"><tspan
         sodipodi:role="line"
         id="tspan4217"
         x="7528.1143"
         y="-525.22107">Гародня</tspan></text>
    <text
       xml:space="preserve"
       style="font-style:normal;font-variant:normal;font-weight:normal;font-stretch:normal;font-size:64.28793335px;line-height:125%;font-family:Ubuntu;-inkscape-font-specification:Ubuntu;letter-spacing:0px;word-spacing:0px;fill:#ffffff;fill-opacity:1;stroke:none;stroke-width:1px;stroke-linecap:butt;stroke-linejoin:miter;stroke-opacity:1"
       x="-1130.0497"
       y="8436.4834"
       id="text4229"
       sodipodi:linespacing="125%"
       transform="matrix(0.22940596,-0.97333083,0.97333083,0.22940596,0,0)"><tspan
         sodipodi:role="line"
         id="tspan4231"
         x="-1130.0497"
         y="8436.4834">doika.falanster.by</tspan></text>
  </g>
</svg>
