<?xml version="1.0" encoding="UTF-8" standalone="no"?>
<svg
   xmlns:dc="http://purl.org/dc/elements/1.1/"
   xmlns:cc="http://creativecommons.org/ns#"
   xmlns:rdf="http://www.w3.org/1999/02/22-rdf-syntax-ns#"
   xmlns:svg="http://www.w3.org/2000/svg"
   xmlns="http://www.w3.org/2000/svg"
   xmlns:sodipodi="http://sodipodi.sourceforge.net/DTD/sodipodi-0.dtd"
   xmlns:inkscape="http://www.inkscape.org/namespaces/inkscape"
   version="1.1"
   id="svg4185"
   viewBox="0 0 122.50001 122.5"
   height="34.572224mm"
   width="34.572224mm"
   inkscape:version="0.91 r13725"
   sodipodi:docname="doika_fanera.svg">
  <sodipodi:namedview
     pagecolor="#ffffff"
     bordercolor="#666666"
     borderopacity="1"
     objecttolerance="10"
     gridtolerance="10"
     guidetolerance="10"
     inkscape:pageopacity="0"
     inkscape:pageshadow="2"
     inkscape:window-width="1855"
     inkscape:window-height="1056"
     id="namedview13"
     showgrid="false"
     inkscape:zoom="1.9265305"
     inkscape:cx="61.250003"
     inkscape:cy="61.250003"
     inkscape:window-x="65"
     inkscape:window-y="24"
     inkscape:window-maximized="1"
     inkscape:current-layer="svg4185" />
  <defs
     id="defs4187" />
  <metadata
     id="metadata4190">
    <rdf:RDF>
      <cc:Work
         rdf:about="">
        <dc:format>image/svg+xml</dc:format>
        <dc:type
           rdf:resource="http://purl.org/dc/dcmitype/StillImage" />
        <dc:title />
      </cc:Work>
    </rdf:RDF>
  </metadata>
  <rect
     style="opacity:1;fill:#ffffff;fill-opacity:1;fill-rule:nonzero;stroke:#ffffff;stroke-width:0.25379431;stroke-linecap:round;stroke-linejoin:round;stroke-miterlimit:4;stroke-dasharray:none;stroke-opacity:1"
     id="rect5223"
     width="122.24621"
     height="122.24621"
     x="0.12690468"
     y="0.12689722" />
  <path
     inkscape:connector-curvature="0"
     style="fill:#ffffff;stroke:#000000;stroke-width:1;stroke-linecap:round;stroke-linejoin:round;stroke-miterlimit:4;stroke-dasharray:none;stroke-opacity:1"
     d="m 48.6498,82.335227 c 0,0 3.1171,6.61681 2.4243,15.62179 -0.4754,4.829283 -0.8555,19.657243 9.8536,16.096553 10.7093,-3.56067 -3.271,-18.097923 0.1757,-35.277513 13.0829,5.79692 14.4149,19.32137 19.0211,23.069083 4.6062,3.74769 16.7052,-3.236233 8.5686,-12.146053 -8.1366,-8.90983 -12.6631,-12.04478 -14.5955,-21.81863 6.8507,-1.50705 14.3196,1.70178 19.9428,7.00946 12.5184,8.78148 20.2627,-3.9801 10.7137,-10.2432 -5.8299,-4.56176 -13.7874,-1.37734 -23.1474,-11.971359 10.5351,-5.32239 11.1411,-2.01204 21.0683,-2.71679 17.1342,-1.40301 10.95,-15.16006 2.1345,-14.23007 -8.8154,0.93003 -17.9546,5.97375 -24.0511,2.30091 C 69.4384,-2.284032 26.273,3.675948 13.0802,24.424258 -0.1126,45.172578 9.5775,84.919057 48.6498,82.335227 Z"
     id="path2989-3-23-1" />
  <g
     style="font-style:normal;font-variant:normal;font-weight:normal;font-stretch:normal;font-size:48.14683914px;line-height:125%;font-family:'Ubuntu Mono';-inkscape-font-specification:'Ubuntu Mono';letter-spacing:0px;word-spacing:0px;fill:#333333;fill-opacity:1;stroke:none"
     id="text3759-6-9-6-6-0">
    <path
       d="m 42.462318,32.683172 q 0,4.140628 -1.059231,7.029439 -1.011083,2.88881 -2.840663,4.71839 -1.781433,1.781433 -4.285069,2.599929 -2.455489,0.818496 -5.344299,0.818496 -2.985104,0 -6.018355,-0.722202 l 0,-28.888104 q 3.033251,-0.722202 6.018355,-0.722202 2.88881,0 5.344299,0.818496 2.503636,0.818496 4.285069,2.648076 1.82958,1.82958 2.840663,4.71839 1.059231,2.888811 1.059231,6.981292 z M 26.862742,44.28656 q 1.203671,0.144441 2.455489,0.144441 2.166607,0 3.851747,-0.625909 1.685139,-0.674056 2.840663,-2.070314 1.155524,-1.444405 1.781433,-3.65916 0.625909,-2.262901 0.625909,-5.392446 0,-6.066502 -2.359195,-8.907165 -2.311048,-2.840664 -6.884998,-2.840664 -0.625909,0 -1.251818,0.04815 -0.577762,0 -1.05923,0.09629 l 0,23.206776 z"
       style=""
       id="path4156" />
    <path
       d="m 66.535737,36.438625 q 0,2.648077 -0.770349,4.814684 -0.722203,2.118461 -2.070314,3.65916 -1.348112,1.540699 -3.225839,2.407342 -1.877726,0.818496 -4.092481,0.818496 -2.166608,0 -4.044334,-0.818496 -1.82958,-0.866643 -3.177692,-2.407342 -1.348111,-1.540699 -2.118461,-3.65916 -0.722202,-2.166607 -0.722202,-4.814684 0,-2.648076 0.722202,-4.814683 0.77035,-2.166608 2.118461,-3.65916 1.348112,-1.540699 3.177692,-2.359195 1.877726,-0.866643 4.044334,-0.866643 2.214755,0 4.092481,0.866643 1.877727,0.818496 3.225839,2.359195 1.348111,1.492552 2.070314,3.65916 0.770349,2.166607 0.770349,4.814683 z m -4.092481,0 q 0,-3.8036 -1.636993,-5.970208 -1.636992,-2.214754 -4.429509,-2.214754 -2.74437,0 -4.381362,2.214754 -1.588846,2.166608 -1.588846,5.970208 0,3.755454 1.588846,5.970209 1.636992,2.166607 4.381362,2.166607 2.792517,0 4.429509,-2.166607 1.636993,-2.214755 1.636993,-5.970209 z"
       style=""
       id="path4158" />
  </g>
  <g
     style="font-style:normal;font-variant:normal;font-weight:normal;font-stretch:normal;font-size:30.73398209px;line-height:125%;font-family:'Ubuntu Mono';-inkscape-font-specification:'Ubuntu Mono';letter-spacing:0px;word-spacing:0px;fill:#333333;fill-opacity:1;stroke:#333333;stroke-width:0.5;stroke-miterlimit:4;stroke-dasharray:none"
     id="text3765-3-7-2-3-2">
    <path
       d="m 27.321304,55.642743 q -0.799084,0 -1.383029,-0.553212 -0.583946,-0.553211 -0.583946,-1.505965 0,-0.952753 0.583946,-1.505965 0.583945,-0.553211 1.383029,-0.553211 0.829817,0 1.383029,0.553211 0.583946,0.553212 0.583946,1.505965 0,0.952754 -0.583946,1.505965 -0.553212,0.553212 -1.383029,0.553212 z m -0.645414,4.333492 -4.118353,0 0,-2.120645 6.63854,0 0,8.759185 q 0,2.120645 0.583945,2.85826 0.583946,0.706882 1.751837,0.706882 0.891286,0 1.628901,-0.215138 0.76835,-0.215138 1.198626,-0.46101 l 0.368807,2.151379 q -0.184403,0.0922 -0.522477,0.245872 -0.338074,0.122936 -0.799084,0.245872 -0.430276,0.122935 -0.983487,0.215137 -0.522478,0.0922 -1.106424,0.0922 -1.352295,0 -2.24358,-0.368807 Q 28.181855,71.716616 27.628644,70.979 27.106166,70.241385 26.891028,69.165695 26.67589,68.059272 26.67589,66.614775 l 0,-6.63854 z"
       style=""
       id="path4149" />
    <path
       d="m 43.57958,64.278992 q 0.829818,0.61468 1.874773,1.567433 1.044956,0.92202 2.059177,1.997709 1.044955,1.075689 1.966975,2.212847 0.922019,1.106423 1.475231,2.059177 l -3.01193,0 Q 47.35986,71.163404 46.499309,70.179917 45.638757,69.165695 44.65527,68.243676 43.702516,67.321656 42.719029,66.553307 41.766275,65.784957 40.997926,65.26248 l 0,6.853678 -2.550921,0 0,-20.868374 2.550921,-0.430276 0,13.000474 q 1.690369,-1.475231 3.380738,-2.919728 1.690369,-1.475231 3.042664,-3.042664 l 2.981196,0 q -1.321561,1.567433 -3.196334,3.227068 -1.844039,1.659635 -3.62661,3.196334 z"
       style=""
       id="path4151" />
    <path
       d="m 59.469049,70.302853 q 0.952753,0 1.690369,-0.06147 0.76835,-0.06147 1.260093,-0.15367 l 0,-4.24129 q -0.491743,-0.15367 -1.198625,-0.245872 -0.676148,-0.0922 -1.444497,-0.0922 -0.706882,0 -1.383029,0.122936 -0.676148,0.0922 -1.198626,0.368808 -0.522477,0.276606 -0.860551,0.737616 -0.338074,0.430275 -0.338074,1.106423 0,1.383029 0.92202,1.936241 0.952753,0.522478 2.55092,0.522478 z M 59.223177,57.517516 q 1.598167,0 2.673857,0.399542 1.106423,0.399542 1.782571,1.106423 0.676147,0.706882 0.952753,1.721103 0.276606,1.014222 0.276606,2.212847 l 0,8.912855 q -0.891286,0.15367 -2.366517,0.368807 -1.444497,0.215138 -2.981196,0.215138 -1.167891,0 -2.274315,-0.215138 -1.106423,-0.184403 -1.966975,-0.676147 -0.860551,-0.522478 -1.383029,-1.413763 -0.522477,-0.891286 -0.522477,-2.274315 0,-1.229359 0.522477,-2.059177 0.553212,-0.860551 1.383029,-1.383029 0.860552,-0.522478 1.936241,-0.737616 1.106424,-0.245871 2.212847,-0.245871 1.505965,0 2.950462,0.338073 l 0,-0.706881 q 0,-0.645414 -0.15367,-1.229359 -0.122936,-0.61468 -0.522477,-1.106424 -0.368808,-0.491744 -1.044956,-0.768349 -0.645413,-0.30734 -1.690369,-0.30734 -1.321561,0 -2.305048,0.184404 -0.983488,0.184404 -1.505965,0.368807 l -0.30734,-2.08991 q 0.522477,-0.245872 1.721103,-0.430276 1.229359,-0.184404 2.612388,-0.184404 z"
       style=""
       id="path4153" />
  </g>
</svg>
