<?xml version="1.0" encoding="UTF-8" standalone="no"?>
<!-- Created with Inkscape (http://www.inkscape.org/) -->

<svg
   xmlns:dc="http://purl.org/dc/elements/1.1/"
   xmlns:cc="http://creativecommons.org/ns#"
   xmlns:rdf="http://www.w3.org/1999/02/22-rdf-syntax-ns#"
   xmlns:svg="http://www.w3.org/2000/svg"
   xmlns="http://www.w3.org/2000/svg"
   xmlns:sodipodi="http://sodipodi.sourceforge.net/DTD/sodipodi-0.dtd"
   xmlns:inkscape="http://www.inkscape.org/namespaces/inkscape"
   width="117.6665mm"
   height="39.450638mm"
   viewBox="0 0 416.92856 139.78572"
   id="svg4635"
   version="1.1"
   inkscape:version="0.91 r13725"
   sodipodi:docname="doika_fin.svg"
   inkscape:export-filename="/home/jedi/Dropbox/falanster/design/logo/doika_fin.png"
   inkscape:export-xdpi="432.01843"
   inkscape:export-ydpi="432.01843">
  <defs
     id="defs4637" />
  <sodipodi:namedview
     id="base"
     pagecolor="#ffffff"
     bordercolor="#666666"
     borderopacity="1.0"
     inkscape:pageopacity="0.0"
     inkscape:pageshadow="2"
     inkscape:zoom="2.8"
     inkscape:cx="262.92501"
     inkscape:cy="-19.350728"
     inkscape:document-units="px"
     inkscape:current-layer="layer1"
     showgrid="false"
     fit-margin-top="0"
     fit-margin-left="0"
     fit-margin-right="0"
     fit-margin-bottom="0"
     inkscape:window-width="1855"
     inkscape:window-height="1056"
     inkscape:window-x="65"
     inkscape:window-y="24"
     inkscape:window-maximized="1" />
  <metadata
     id="metadata4640">
    <rdf:RDF>
      <cc:Work
         rdf:about="">
        <dc:format>image/svg+xml</dc:format>
        <dc:type
           rdf:resource="http://purl.org/dc/dcmitype/StillImage" />
        <dc:title></dc:title>
      </cc:Work>
    </rdf:RDF>
  </metadata>
  <g
     inkscape:label="Layer 1"
     inkscape:groupmode="layer"
     id="layer1"
     transform="translate(1562.3928,172.17351)">
    <rect
       style="opacity:1;fill:#ffffff;fill-opacity:1;fill-rule:nonzero;stroke:#333333;stroke-width:0.5;stroke-linecap:round;stroke-linejoin:round;stroke-miterlimit:4;stroke-dasharray:none;stroke-opacity:1"
       id="rect5223"
       width="416.42856"
       height="139.28572"
       x="-1562.1428"
       y="-171.92351" />
    <path
       style="fill:#ff80b2;stroke:#ff80b2;stroke-width:2;stroke-linecap:round;stroke-linejoin:round;stroke-miterlimit:4;stroke-dasharray:none;stroke-opacity:1"
       d="m -1500.1058,-74.572857 c 0,0 3.1171,6.61681 2.4243,15.62179 -0.4754,4.82928 -0.8555,19.657236 9.8536,16.096546 10.7093,-3.56067 -3.271,-18.097916 0.1757,-35.277506 13.0829,5.79692 14.4149,19.32137 19.0211,23.06908 4.6062,3.74769 16.7052,-3.23623 8.5686,-12.14605 -8.1366,-8.90983 -12.6631,-12.04478 -14.5955,-21.818637 6.8507,-1.50705 14.3196,1.70178 19.9428,7.00946 12.5184,8.781487 20.2627,-3.9801 10.7137,-10.2432 -5.8299,-4.56176 -13.7874,-1.37734 -23.1474,-11.971356 10.5351,-5.32239 11.1411,-2.01204 21.0683,-2.71679 17.1342,-1.40301 10.95,-15.16006 2.1345,-14.23007 -8.8154,0.93003 -17.9546,5.97375 -24.0511,2.30091 -11.32,-40.31344 -54.4854,-34.35346 -67.6782,-13.60515 -13.1928,20.74832 -3.5027,60.494803 35.5696,57.910973 z"
       id="path2989-3-23-1"
       inkscape:connector-curvature="0"
       sodipodi:nodetypes="cczczzccccczczc" />
    <text
       xml:space="preserve"
       style="font-style:normal;font-variant:normal;font-weight:normal;font-stretch:normal;font-size:48.14683914px;line-height:125%;font-family:'Ubuntu Mono';-inkscape-font-specification:'Ubuntu Mono';letter-spacing:0px;word-spacing:0px;fill:#333333;fill-opacity:1;stroke:none"
       x="-1528.4409"
       y="-109.29939"
       id="text3759-6-9-6-6-0"
       sodipodi:linespacing="125%"><tspan
         sodipodi:role="line"
         id="tspan3761-7-1-0-7-6"
         x="-1528.4409"
         y="-109.29939">Do</tspan><tspan
         sodipodi:role="line"
         x="-1528.4409"
         y="-49.115845"
         id="tspan3763-5-2-6-5-3" /></text>
    <text
       xml:space="preserve"
       style="font-style:normal;font-variant:normal;font-weight:normal;font-stretch:normal;font-size:30.73398209px;line-height:125%;font-family:'Ubuntu Mono';-inkscape-font-specification:'Ubuntu Mono';letter-spacing:0px;word-spacing:0px;fill:#333333;fill-opacity:1;stroke:#333333;stroke-width:0.5;stroke-miterlimit:4;stroke-dasharray:none"
       x="-1527.8578"
       y="-84.791931"
       id="text3765-3-7-2-3-2"
       sodipodi:linespacing="125%"><tspan
         sodipodi:role="line"
         id="tspan3767-5-0-6-5-0"
         x="-1527.8578"
         y="-84.791931">ika</tspan></text>
    <text
       xml:space="preserve"
       style="font-style:normal;font-variant:normal;font-weight:normal;font-stretch:normal;font-size:48.14683914px;line-height:125%;font-family:'Ubuntu Mono';-inkscape-font-specification:'Ubuntu Mono';letter-spacing:0px;word-spacing:0px;fill:#333333;fill-opacity:1;stroke:none"
       x="-1406.5282"
       y="-86.055473"
       id="text3759-6-3-8-4-1"
       sodipodi:linespacing="125%"><tspan
         sodipodi:role="line"
         id="tspan3761-7-6-7-5-5"
         x="-1406.5282"
         y="-86.055473">D</tspan><tspan
         sodipodi:role="line"
         x="-1406.5282"
         y="-25.871925"
         id="tspan3763-5-0-9-0-5" /></text>
    <text
       xml:space="preserve"
       style="font-style:normal;font-variant:normal;font-weight:normal;font-stretch:normal;font-size:47.06751251px;line-height:125%;font-family:'Ubuntu Mono';-inkscape-font-specification:'Ubuntu Mono';letter-spacing:0px;word-spacing:0px;fill:#333333;fill-opacity:1;stroke:none"
       x="-1349.0056"
       y="-86.192131"
       id="text3765-3-6-2-3-4"
       sodipodi:linespacing="125%"><tspan
         sodipodi:role="line"
         id="tspan3767-5-2-0-6-7"
         x="-1349.0056"
         y="-86.192131"
         style="font-size:48.13750076px">ika</tspan></text>
    <path
       style="fill:#ff80b2;stroke:#ff80b2;stroke-width:0.6253075;stroke-linecap:round;stroke-linejoin:round;stroke-miterlimit:4;stroke-dasharray:none;stroke-opacity:1"
       d="m -1366.4297,-85.485453 c 0,0 0.9745,2.06877 0.758,4.88421 -0.1487,1.5099 -0.2675,6.1459 3.0807,5.03264 3.3483,-1.11325 -1.0227,-5.65837 0.055,-11.02965 4.0904,1.81243 4.5069,6.04092 5.947,7.21264 1.4402,1.17173 5.223,-1.01182 2.679,-3.79751 -2.5439,-2.78568 -3.9591,-3.76584 -4.5633,-6.82167 2.1419,-0.47118 4.4771,0.53207 6.2352,2.19154 3.9139,2.74555 6.3352,-1.24439 3.3497,-3.20258 -1.8228,-1.42625 -4.3107,-0.43063 -7.2371,-3.74289 3.2938,-1.66407 3.4832,-0.62908 6.587,-0.84942 5.3571,-0.43866 3.4236,-4.739847 0.6674,-4.449077 -2.7562,0.290777 -5.6136,1.867697 -7.5197,0.719377 -3.5392,-12.604137 -17.035,-10.740737 -21.1598,-4.253697 -4.1248,6.487037 -1.0951,18.913937 11.121,18.106087 z"
       id="path2989-3-23-1-5"
       inkscape:connector-curvature="0"
       sodipodi:nodetypes="cczczzccccczczc" />
    <text
       xml:space="preserve"
       style="font-style:normal;font-variant:normal;font-weight:normal;font-stretch:normal;font-size:56.28482437px;line-height:125%;font-family:'Ubuntu Mono';-inkscape-font-specification:'Ubuntu Mono';letter-spacing:0px;word-spacing:0px;fill:#333333;fill-opacity:1;stroke:none"
       x="-1231.7568"
       y="-99.502792"
       id="text3759-6-3-8-6"
       sodipodi:linespacing="125%"><tspan
         sodipodi:role="line"
         id="tspan3761-7-6-7-93"
         x="-1231.7568"
         y="-99.502792">D</tspan><tspan
         sodipodi:role="line"
         x="-1231.7568"
         y="-29.146761"
         id="tspan3763-5-0-9-7" /></text>
    <text
       xml:space="preserve"
       style="font-style:normal;font-variant:normal;font-weight:normal;font-stretch:normal;font-size:35.92877197px;line-height:125%;font-family:'Ubuntu Mono';-inkscape-font-specification:'Ubuntu Mono';letter-spacing:0px;word-spacing:0px;fill:#333333;fill-opacity:1;stroke:#333333;stroke-width:0.5;stroke-miterlimit:4;stroke-dasharray:none"
       x="-1230.8224"
       y="-68.348061"
       id="text3765-3-6-2-4"
       sodipodi:linespacing="125%"><tspan
         sodipodi:role="line"
         id="tspan3767-5-2-0-5"
         x="-1230.8224"
         y="-68.348061">ika</tspan></text>
    <path
       style="fill:#ff80b2;stroke:#ff80b2;stroke-width:0.6253075;stroke-linecap:round;stroke-linejoin:round;stroke-miterlimit:4;stroke-dasharray:none;stroke-opacity:1"
       d="m -1188.3513,-99.668211 c 0,0 0.9745,2.06877 0.758,4.88421 -0.1487,1.5099 -0.2675,6.1459 3.0808,5.03264 3.3483,-1.11325 -1.0227,-5.65837 0.055,-11.029649 4.0904,1.812429 4.5069,6.040919 5.947,7.212639 1.4402,1.17173 5.223,-1.01182 2.679,-3.79751 -2.5439,-2.785679 -3.9591,-3.765839 -4.5633,-6.821669 2.1419,-0.47118 4.4771,0.53207 6.2352,2.19154 3.9139,2.745549 6.3352,-1.24439 3.3497,-3.20258 -1.8228,-1.42625 -4.3107,-0.43063 -7.2371,-3.74289 3.2938,-1.66407 3.4832,-0.62908 6.587,-0.84942 5.3571,-0.43866 3.4236,-4.73985 0.6674,-4.44908 -2.7562,0.29078 -5.6136,1.8677 -7.5197,0.71938 -3.5392,-12.60414 -17.0351,-10.74074 -21.1599,-4.2537 -4.1248,6.48704 -1.0951,18.913939 11.121,18.106089 z"
       id="path2989-3-23-1-5-2"
       inkscape:connector-curvature="0"
       sodipodi:nodetypes="cczczzccccczczc" />
  </g>
</svg>
