<?xml version="1.0" encoding="UTF-8" standalone="no"?>
<!-- Created with Inkscape (http://www.inkscape.org/) -->

<svg
   xmlns:dc="http://purl.org/dc/elements/1.1/"
   xmlns:cc="http://creativecommons.org/ns#"
   xmlns:rdf="http://www.w3.org/1999/02/22-rdf-syntax-ns#"
   xmlns:svg="http://www.w3.org/2000/svg"
   xmlns="http://www.w3.org/2000/svg"
   xmlns:sodipodi="http://sodipodi.sourceforge.net/DTD/sodipodi-0.dtd"
   xmlns:inkscape="http://www.inkscape.org/namespaces/inkscape"
   width="368.09842mm"
   height="212.87619mm"
   viewBox="0 0 1304.2857 754.28571"
   id="svg2"
   version="1.1"
   inkscape:version="0.91 r13725"
   sodipodi:docname="t-shirt_1.svg">
  <defs
     id="defs4" />
  <sodipodi:namedview
     id="base"
     pagecolor="#ffffff"
     bordercolor="#666666"
     borderopacity="1.0"
     inkscape:pageopacity="0.0"
     inkscape:pageshadow="2"
     inkscape:zoom="0.7"
     inkscape:cx="718.3517"
     inkscape:cy="542.94226"
     inkscape:document-units="px"
     inkscape:current-layer="layer1"
     showgrid="false"
     fit-margin-top="0"
     fit-margin-left="0"
     fit-margin-right="0"
     fit-margin-bottom="0"
     inkscape:window-width="1855"
     inkscape:window-height="1056"
     inkscape:window-x="65"
     inkscape:window-y="24"
     inkscape:window-maximized="1" />
  <metadata
     id="metadata7">
    <rdf:RDF>
      <cc:Work
         rdf:about="">
        <dc:format>image/svg+xml</dc:format>
        <dc:type
           rdf:resource="http://purl.org/dc/dcmitype/StillImage" />
        <dc:title></dc:title>
      </cc:Work>
    </rdf:RDF>
  </metadata>
  <g
     inkscape:label="Layer 1"
     inkscape:groupmode="layer"
     id="layer1"
     transform="translate(1474.2858,-493.79077)">
    <rect
       style="color:#000000;clip-rule:nonzero;display:inline;overflow:visible;visibility:visible;opacity:1;isolation:auto;mix-blend-mode:normal;color-interpolation:sRGB;color-interpolation-filters:linearRGB;solid-color:#000000;solid-opacity:1;fill:#e6e6e6;fill-opacity:1;fill-rule:nonzero;stroke:none;stroke-width:3;stroke-linecap:round;stroke-linejoin:miter;stroke-miterlimit:4;stroke-dasharray:none;stroke-dashoffset:0;stroke-opacity:1;color-rendering:auto;image-rendering:auto;shape-rendering:auto;text-rendering:auto;enable-background:accumulate"
       id="rect4195"
       width="1304.2858"
       height="754.28571"
       x="-1474.2858"
       y="493.79077" />
    <path
       style="fill:#ffffff;fill-rule:evenodd;stroke:#000000;stroke-width:3.12379909;stroke-linecap:butt;stroke-linejoin:miter;stroke-miterlimit:4;stroke-dasharray:none;stroke-opacity:1"
       d="m -1454.2053,812.37448 97.1173,-176.62195 128.5376,-6.19726 c 0,0 -17.1383,61.97261 37.1331,68.16987 54.2714,6.19727 148.5324,-34.08494 137.1068,-52.67671 -11.4256,-18.59179 117.11206,-12.39454 117.11206,-12.39454 l 94.26093,164.22744 -122.82485,24.78905 -19.99474,-18.59179 48.55866,421.41381 -388.46926,-24.7891 22.8512,-381.13155 -22.8512,27.88767 z"
       id="path4136"
       inkscape:connector-curvature="0" />
    <path
       style="fill:#ffffff;fill-rule:evenodd;stroke:#000000;stroke-width:3.12379909;stroke-linecap:butt;stroke-linejoin:miter;stroke-miterlimit:4;stroke-dasharray:none;stroke-opacity:1"
       d="m -203.43176,810.32525 -97.1173,-176.62195 -128.5376,-6.19726 c 0,0 -17.20689,19.5462 -71.47829,25.74346 -54.2714,6.19727 -114.18721,8.34147 -102.76161,-10.2503 11.4256,-18.59179 -117.1121,-12.39454 -117.1121,-12.39454 l -94.2609,164.22744 122.8248,24.78905 19.9948,-18.59179 -48.5587,421.41384 388.4693,-24.7891 -22.8512,-381.13158 22.8512,27.88767 z"
       id="path4136-3"
       inkscape:connector-curvature="0"
       sodipodi:nodetypes="cccssccccccccc" />
    <text
       xml:space="preserve"
       style="font-style:normal;font-weight:normal;font-size:40px;line-height:125%;font-family:sans-serif;letter-spacing:0px;word-spacing:0px;fill:#000000;fill-opacity:1;stroke:none;stroke-width:1px;stroke-linecap:butt;stroke-linejoin:miter;stroke-opacity:1"
       x="-1218.2439"
       y="563.44836"
       id="text4153"
       sodipodi:linespacing="125%"><tspan
         sodipodi:role="line"
         id="tspan4155"
         x="-1218.2439"
         y="563.44836">зпераду</tspan></text>
    <text
       xml:space="preserve"
       style="font-style:normal;font-weight:normal;font-size:40px;line-height:125%;font-family:sans-serif;letter-spacing:0px;word-spacing:0px;fill:#000000;fill-opacity:1;stroke:none;stroke-width:1px;stroke-linecap:butt;stroke-linejoin:miter;stroke-opacity:1"
       x="-577.80725"
       y="539.20471"
       id="text4157"
       sodipodi:linespacing="125%"><tspan
         sodipodi:role="line"
         id="tspan4159"
         x="-577.80725"
         y="539.20471">ззаду</tspan></text>
    <g
       transform="matrix(1.87871,0,0,1.87871,1236.2409,871.32983)"
       id="layer1-7"
       inkscape:label="Layer 1">
      <path
         sodipodi:nodetypes="cczczzccccczczc"
         inkscape:connector-curvature="0"
         id="path2989-3-23-1"
         d="m -1266.1773,128.64142 c 0,0 3.1171,6.61681 2.4243,15.62179 -0.4754,4.82928 -0.8555,19.65724 9.8536,16.09655 10.7093,-3.56067 -3.271,-18.09792 0.1757,-35.27751 13.0829,5.79692 14.4149,19.32137 19.0211,23.06908 4.6062,3.74769 16.7052,-3.23623 8.5686,-12.14605 -8.1366,-8.90983 -12.6631,-12.04478 -14.5955,-21.81863 6.8507,-1.50705 14.3196,1.70178 19.9428,7.00946 12.5184,8.78148 20.2627,-3.9801 10.7137,-10.2432 -5.8299,-4.56176 -13.7874,-1.37734 -23.1474,-11.971359 10.5351,-5.32239 11.1411,-2.01204 21.0683,-2.71679 17.1342,-1.40301 10.95,-15.16006 2.1345,-14.23007 -8.8154,0.93003 -17.9546,5.97375 -24.0511,2.30091 -11.32,-40.31344 -54.4854,-34.35346 -67.6782,-13.60515 -13.1928,20.74832 -3.5027,60.494799 35.5696,57.910969 z"
         style="fill:#ff80b2;stroke:#ff80b2;stroke-width:2;stroke-linecap:round;stroke-linejoin:round;stroke-miterlimit:4;stroke-dasharray:none;stroke-opacity:1" />
    </g>
    <path
       style="fill:#333333;fill-rule:evenodd;stroke:#000000;stroke-width:1px;stroke-linecap:butt;stroke-linejoin:miter;stroke-opacity:1"
       d="m -1270.7719,871.5449 c 0,0 1.0102,-20.20305 5.0508,-23.23351 4.0406,-3.03046 29.2944,1.01015 30.3045,11.11168 1.0102,10.10152 -5.0507,21.2132 3.0305,23.23351 8.0812,2.0203 18.1827,-1.01016 18.1827,15.15229 0,16.16244 -8.0812,18.18274 -21.2132,35.35533 -13.1319,17.1726 -50.5076,22.22336 -48.4873,10.10153 2.0203,-12.12183 4.0406,-31.31473 -3.0304,-37.37564 -7.0711,-6.06092 -12.1219,-16.16245 -7.0711,-25.25382 5.0508,-9.09137 23.2335,-9.09137 23.2335,-9.09137 z"
       id="path4169"
       inkscape:connector-curvature="0" />
    <path
       style="fill:#333333;fill-rule:evenodd;stroke:#000000;stroke-width:1px;stroke-linecap:butt;stroke-linejoin:miter;stroke-opacity:1"
       d="m -1051.5688,743.25553 c 0,0 20.2031,4.04061 28.2843,-4.04061 8.0812,-8.08122 -2.0203,-23.23351 2.0203,-34.34519 4.0406,-11.11168 12.1218,-31.31473 4.0406,-36.36549 -8.0812,-5.05077 -19.1929,7.07107 -35.3554,6.06091 -16.1624,-1.01015 -32.3248,-4.04061 -35.3553,5.05077 -3.0304,9.09137 4.0406,27.27411 -12.1218,26.26396 -16.1625,-1.01015 -20.2031,8.08122 -17.1726,16.16244 3.0304,8.08122 15.1523,17.1726 29.2944,9.09138 14.1421,-8.08123 36.3655,12.12183 36.3655,12.12183 z"
       id="path4171"
       inkscape:connector-curvature="0" />
    <path
       style="fill:#333333;fill-rule:evenodd;stroke:#000000;stroke-width:1px;stroke-linecap:butt;stroke-linejoin:miter;stroke-opacity:1"
       d="m -1345.5232,653.35195 c 12.1218,8.08122 10.1015,15.15229 8.0812,22.22336 -2.0203,7.07106 -12.1218,23.2335 -3.0304,24.24366 9.0913,1.01015 24.2436,4.04061 14.1421,19.19289 -10.1015,15.15229 -15.1523,5.05077 -22.2233,14.14214 -7.0711,9.09137 -21.2133,22.22336 -26.264,6.06092 -5.0508,-16.16245 3.0304,-24.24367 -6.0609,-28.28428 -9.0914,-4.04061 -13.132,-3.03045 -1.0102,-28.28427 12.1218,-25.25381 24.2437,-39.39595 36.3655,-29.29442 z"
       id="path4173"
       inkscape:connector-curvature="0" />
    <g
       transform="matrix(1.107476,0,0,1.107476,-131.78736,-56.110405)"
       id="layer1-3"
       inkscape:label="Layer 1">
      <rect
         y="729.50757"
         x="-428.35468"
         height="69.780785"
         width="159.78078"
         id="rect5223"
         style="opacity:1;fill:#ffffff;fill-opacity:1;fill-rule:nonzero;stroke:none;stroke-width:0.21921821;stroke-linecap:round;stroke-linejoin:round;stroke-miterlimit:4;stroke-dasharray:none;stroke-opacity:1" />
      <text
         sodipodi:linespacing="125%"
         id="text3759-6-3-8-4-1"
         y="777.15881"
         x="-412.59967"
         style="font-style:normal;font-variant:normal;font-weight:normal;font-stretch:normal;font-size:48.14683914px;line-height:125%;font-family:'Ubuntu Mono';-inkscape-font-specification:'Ubuntu Mono';letter-spacing:0px;word-spacing:0px;fill:#333333;fill-opacity:1;stroke:none"
         xml:space="preserve"><tspan
           y="777.15881"
           x="-412.59967"
           id="tspan3761-7-6-7-5-5"
           sodipodi:role="line">D</tspan><tspan
           id="tspan3763-5-0-9-0-5"
           y="837.34235"
           x="-412.59967"
           sodipodi:role="line" /></text>
      <text
         sodipodi:linespacing="125%"
         id="text3765-3-6-2-3-4"
         y="777.02216"
         x="-355.07709"
         style="font-style:normal;font-variant:normal;font-weight:normal;font-stretch:normal;font-size:47.06751251px;line-height:125%;font-family:'Ubuntu Mono';-inkscape-font-specification:'Ubuntu Mono';letter-spacing:0px;word-spacing:0px;fill:#333333;fill-opacity:1;stroke:none"
         xml:space="preserve"><tspan
           style="font-size:48.13750076px"
           y="777.02216"
           x="-355.07709"
           id="tspan3767-5-2-0-6-7"
           sodipodi:role="line">ika</tspan></text>
      <path
         sodipodi:nodetypes="cczczzccccczczc"
         inkscape:connector-curvature="0"
         id="path2989-3-23-1-5"
         d="m -372.50116,777.72883 c 0,0 0.9745,2.06877 0.758,4.88421 -0.1487,1.5099 -0.2675,6.1459 3.0807,5.03264 3.3483,-1.11325 -1.0227,-5.65837 0.055,-11.02965 4.0904,1.81243 4.5069,6.04092 5.947,7.21264 1.4402,1.17173 5.223,-1.01182 2.679,-3.79751 -2.5439,-2.78568 -3.9591,-3.76584 -4.5633,-6.82167 2.1419,-0.47118 4.4771,0.53207 6.2352,2.19154 3.9139,2.74555 6.3352,-1.24439 3.3497,-3.20258 -1.8228,-1.42625 -4.3107,-0.43063 -7.2371,-3.74289 3.2938,-1.66407 3.4832,-0.62908 6.587,-0.84942 5.3571,-0.43866 3.4236,-4.73985 0.6674,-4.44908 -2.7562,0.29078 -5.6136,1.8677 -7.5197,0.71938 -3.5392,-12.60414 -17.035,-10.74074 -21.1598,-4.2537 -4.1248,6.48704 -1.0951,18.91394 11.121,18.10609 z"
         style="fill:#ff80b2;stroke:#ff80b2;stroke-width:0.6253075;stroke-linecap:round;stroke-linejoin:round;stroke-miterlimit:4;stroke-dasharray:none;stroke-opacity:1" />
    </g>
  </g>
</svg>
