<?xml version="1.0" encoding="UTF-8" standalone="no"?>
<svg
   xmlns:dc="http://purl.org/dc/elements/1.1/"
   xmlns:cc="http://creativecommons.org/ns#"
   xmlns:rdf="http://www.w3.org/1999/02/22-rdf-syntax-ns#"
   xmlns:svg="http://www.w3.org/2000/svg"
   xmlns="http://www.w3.org/2000/svg"
   version="1.1"
   id="svg2"
   viewBox="0 0 600.9144 608.69934"
   height="171.78848mm"
   width="169.5914mm">
  <defs
     id="defs4" />
  <metadata
     id="metadata7">
    <rdf:RDF>
      <cc:Work
         rdf:about="">
        <dc:format>image/svg+xml</dc:format>
        <dc:type
           rdf:resource="http://purl.org/dc/dcmitype/StillImage" />
        <dc:title></dc:title>
      </cc:Work>
    </rdf:RDF>
  </metadata>
  <g
     transform="translate(891.00204,-83.042268)"
     id="layer1">
    <g
       id="text4136"
       style="font-style:normal;font-weight:normal;font-size:869.38482666px;line-height:125%;font-family:sans-serif;letter-spacing:0px;word-spacing:0px;fill:#ffffff;fill-opacity:1;stroke:#000000;stroke-width:1px;stroke-linecap:butt;stroke-linejoin:miter;stroke-opacity:1">
      <path
         id="path4136"
         style="font-style:normal;font-variant:normal;font-weight:600;font-stretch:normal;font-family:a_AlternaBrk;-inkscape-font-specification:'a_AlternaBrk Semi-Bold';fill:#ffffff;stroke:#000000"
         d="m -511.42282,277.41446 -9.56324,7.82446 0,195.61159 53.03248,0 55.64063,-110.41187 -82.59156,-91.28541 -16.51831,-1.73877 z m -125.19142,-193.003431 -17.38769,-0.869385 144.31788,13.040773 0,71.289553 42.59985,-13.04077 146.92604,57.3794 29.55908,166.0525 -46.94678,179.96266 -121.71387,35.64478 -72.15894,4.34692 21.73462,93.02418 -151.27296,0 0,-93.02418 -55.64063,-3.47754 -116.49757,-57.3794 -57.3794,-160.83619 47.81617,-151.27296 140.84034,-65.20386 41.73047,0 23.47339,-75.636481 z m 0,194.742201 0,2.60815 -58.24878,-6.95507 -77.37525,113.02002 73.02832,108.67311 58.24879,-23.47339 -7.82447,-82.59156 12.17139,-111.28126 z" />
    </g>
  </g>
</svg>
