<?xml version="1.0" encoding="UTF-8" standalone="no"?>
<!-- Created with Inkscape (http://www.inkscape.org/) -->

<svg
   xmlns:dc="http://purl.org/dc/elements/1.1/"
   xmlns:cc="http://creativecommons.org/ns#"
   xmlns:rdf="http://www.w3.org/1999/02/22-rdf-syntax-ns#"
   xmlns:svg="http://www.w3.org/2000/svg"
   xmlns="http://www.w3.org/2000/svg"
   xmlns:sodipodi="http://sodipodi.sourceforge.net/DTD/sodipodi-0.dtd"
   xmlns:inkscape="http://www.inkscape.org/namespaces/inkscape"
   width="600.11255"
   height="95.706963"
   id="svg2"
   version="1.1"
   inkscape:version="0.91 r13725"
   sodipodi:docname="logo_2018_trans_curves_2.svg"
   inkscape:export-filename="/home/jedi/Dropbox/falanster/design/logo/logo_2018/logo_2018_trans_curves_2.png"
   inkscape:export-xdpi="300"
   inkscape:export-ydpi="300">
  <defs
     id="defs4" />
  <sodipodi:namedview
     id="base"
     pagecolor="#ffffff"
     bordercolor="#666666"
     borderopacity="1.0"
     inkscape:pageopacity="0.0"
     inkscape:pageshadow="2"
     inkscape:zoom="1.4"
     inkscape:cx="152.4642"
     inkscape:cy="-21.795088"
     inkscape:document-units="px"
     inkscape:current-layer="layer1"
     showgrid="false"
     showguides="true"
     inkscape:guide-bbox="true"
     fit-margin-top="0"
     fit-margin-left="0"
     fit-margin-right="0"
     fit-margin-bottom="0"
     inkscape:window-width="1855"
     inkscape:window-height="1056"
     inkscape:window-x="65"
     inkscape:window-y="24"
     inkscape:window-maximized="1">
    <sodipodi:guide
       orientation="1,0"
       position="2461.4699,603.65424"
       id="guide2997" />
  </sodipodi:namedview>
  <metadata
     id="metadata7">
    <rdf:RDF>
      <cc:Work
         rdf:about="">
        <dc:format>image/svg+xml</dc:format>
        <dc:type
           rdf:resource="http://purl.org/dc/dcmitype/StillImage" />
        <dc:title></dc:title>
      </cc:Work>
    </rdf:RDF>
  </metadata>
  <g
     inkscape:label="Layer 1"
     inkscape:groupmode="layer"
     id="layer1"
     transform="translate(701.46996,-497.45235)">
    <g
       style="font-style:normal;font-variant:normal;font-weight:600;font-stretch:normal;font-size:129.33372498px;line-height:125%;font-family:a_AlternaBrk;-inkscape-font-specification:'a_AlternaBrk Semi-Bold';letter-spacing:0px;word-spacing:0px;fill:#ff6600;fill-opacity:1;stroke:none"
       id="text2989">
      <path
         d="m -645.08046,528.23378 -1.42267,1.164 0,29.10009 7.88936,0 8.27736,-16.42538 -12.28671,-13.58005 -2.45734,-0.25866 z m -18.62405,-28.71209 -2.58668,-0.12933 21.4694,1.94 0,10.60537 6.33735,-1.94001 21.8574,8.53603 4.39735,24.70274 -6.98402,26.77208 -18.10672,5.30268 -10.7347,0.64667 3.23334,13.83871 -22.50407,0 0,-13.83871 -8.27736,-0.51733 -17.33072,-8.53603 -8.53602,-23.92674 7.11335,-22.50407 20.95207,-9.70003 6.20801,0 3.49202,-11.25203 z m 0,28.97075 0,0.38801 -8.66536,-1.03467 -11.51071,16.81338 10.86404,16.16672 8.66536,-3.49202 -1.16401,-12.2867 1.81068,-16.55472 z"
         id="path4164"
         inkscape:connector-curvature="0" />
      <path
         d="m -584.1855,558.49787 -0.12933,-1.29334 14.09738,0 1.552,-23.4094 -8.53603,-21.72807 -4.65601,22.50407 -2.32801,23.92674 z m 0.25867,31.94543 0.25867,-1.94001 -18.49472,1.16401 -2.32801,-18.10673 3.88001,-22.50406 1.94001,-21.4694 6.07868,-14.35605 7.11336,-15.13204 19.14139,0 8.27736,16.68405 4.26801,12.93337 1.94,22.89207 1.42268,21.4694 0,16.94272 -16.42539,2.97467 0,-17.71872 -15.26138,-3.10401 -1.81067,19.27073 z"
         id="path4166"
         inkscape:connector-curvature="0" />
      <path
         d="m -502.96088,591.08997 0,-0.90534 0,-16.55472 1.42267,-13.70937 -2.32801,-15.39071 2.71601,-13.70938 -1.42267,-16.55472 -8.53603,13.58005 -5.94935,16.81338 0,47.46548 -20.82273,-3.36268 -1.42267,-10.3467 0,-31.16943 6.72536,-22.2454 10.86403,-12.54537 12.80404,-11.5107 27.41875,-3.10401 -1.81067,16.94272 0,14.48538 -1.81068,15.52004 3.36268,14.22671 -2.58667,14.74405 1.29333,16.29605 -19.91739,1.03467 z"
         id="path4168"
         inkscape:connector-curvature="0" />
      <path
         d="m -451.6942,558.49787 -0.12934,-1.29334 14.09738,0 1.55201,-23.4094 -8.53603,-21.72807 -4.65601,22.50407 -2.32801,23.92674 z m 0.25867,31.94543 0.25866,-1.94001 -18.49472,1.16401 -2.32801,-18.10673 3.88002,-22.50406 1.94,-21.4694 6.07869,-14.35605 7.11335,-15.13204 19.14139,0 8.27736,16.68405 4.26801,12.93337 1.94001,22.89207 1.42267,21.4694 0,16.94272 -16.42538,2.97467 0,-17.71872 -15.26138,-3.10401 -1.81067,19.27073 z"
         id="path4170"
         inkscape:connector-curvature="0" />
      <path
         d="m -404.35201,591.08997 0.388,-2.45734 0.77601,-12.41604 -1.55201,-17.46005 -1.03467,-14.87338 2.32801,-14.87338 -0.90534,-14.48538 0,-16.81338 20.82273,1.164 -2.32801,16.16672 2.71601,17.58938 13.70938,-1.68133 0,-32.85077 20.30539,0 0,18.36539 -1.29333,11.76937 -1.42268,18.36539 0,27.28941 3.23335,18.10672 -19.78806,0 0,-17.20138 -1.16401,-12.02804 0,-14.48538 -16.94271,0 3.36267,13.32138 -2.58667,13.45071 1.29334,15.00271 -19.9174,1.03467 z"
         id="path4172"
         inkscape:connector-curvature="0" />
      <path
         d="m -281.96995,536.12313 0,-0.90533 -19.40006,-1.68134 0.90533,-10.08803 -9.95869,-8.92403 -5.04402,9.05336 -1.42267,12.67471 0,28.71208 8.66536,8.4067 7.88936,-5.94935 -1.55201,-18.88273 18.49472,3.23334 0,8.66536 -5.43201,23.15074 -18.88273,9.5707 -21.46939,-6.85469 -5.69069,-27.03075 -1.81067,-14.22671 0,-16.68405 4.39735,-23.4094 24.5734,-7.50136 18.75339,6.20802 7.50136,24.96141 -0.51733,7.50135 z"
         id="path4174"
         inkscape:connector-curvature="0" />
      <path
         d="m -264.44626,516.85241 -0.12933,-2.32801 -13.06271,1.94001 -1.03467,-18.36539 17.07205,0 15.77872,3.23334 14.09737,-3.36267 -1.42267,19.78806 -13.45071,-2.19868 0,14.09738 2.97468,17.84805 0,26.25475 -1.55201,16.68405 -19.91739,0 -1.42267,-15.13205 3.36268,-15.77871 -2.58668,-15.13205 1.29334,-13.70937 0,-13.83871 z"
         id="path4176"
         inkscape:connector-curvature="0" />
      <path
         d="m -221.97728,556.55786 0.25866,1.81067 19.27073,-1.03467 -1.29334,7.37203 8.7947,9.18269 5.43201,-8.14802 0,-14.48538 -15.52004,-2.71601 0,-14.09737 19.01205,-1.68134 -3.49201,-9.1827 -7.88936,-6.98402 -6.46668,6.46669 1.552,2.71601 -20.95206,0 6.07869,-20.17607 21.21073,-7.63068 19.65872,6.07868 9.82937,23.15074 -1.81068,17.97738 0,13.83871 -6.98402,25.60808 -20.43473,5.56135 -21.8574,-6.59602 -6.98402,-22.37473 2.58668,-4.65602 z"
         id="path4178"
         inkscape:connector-curvature="0" />
      <path
         d="m -135.50154,549.57384 -0.25867,-0.64667 7.37203,0 7.50135,-16.55471 -8.27736,-16.81339 -7.63069,-0.388 1.29334,17.20139 0,17.20138 z m -17.46005,39.05879 -1.55201,-0.12934 0.90534,-13.96804 -2.32801,-15.52005 2.71601,-13.96804 -1.42267,-16.81338 0,-30.13476 26.25475,0 17.20138,6.33735 8.14803,7.11336 1.68133,22.37473 -6.07868,22.6334 -18.88273,7.88936 -7.88935,2.19867 0,25.09075 -18.75339,-3.10401 z"
         id="path4180"
         inkscape:connector-curvature="0" />
    </g>
  </g>
</svg>
