<?xml version="1.0" encoding="UTF-8" standalone="no"?>
<!-- Created with Inkscape (http://www.inkscape.org/) -->

<svg
   xmlns:dc="http://purl.org/dc/elements/1.1/"
   xmlns:cc="http://creativecommons.org/ns#"
   xmlns:rdf="http://www.w3.org/1999/02/22-rdf-syntax-ns#"
   xmlns:svg="http://www.w3.org/2000/svg"
   xmlns="http://www.w3.org/2000/svg"
   xmlns:sodipodi="http://sodipodi.sourceforge.net/DTD/sodipodi-0.dtd"
   xmlns:inkscape="http://www.inkscape.org/namespaces/inkscape"
   width="600.03107"
   height="173.02127"
   id="svg2"
   version="1.1"
   inkscape:version="0.91 r13725"
   sodipodi:docname="logo_2018_wb_curves.svg"
   inkscape:export-filename="/home/jedi/Dropbox/falanster/design/logo/logo_2018/logo_2018_wb.png"
   inkscape:export-xdpi="300"
   inkscape:export-ydpi="300">
  <defs
     id="defs4" />
  <sodipodi:namedview
     id="base"
     pagecolor="#ffffff"
     bordercolor="#666666"
     borderopacity="1.0"
     inkscape:pageopacity="0.0"
     inkscape:pageshadow="2"
     inkscape:zoom="1.4142136"
     inkscape:cx="289.66763"
     inkscape:cy="105.7673"
     inkscape:document-units="px"
     inkscape:current-layer="layer1"
     showgrid="false"
     showguides="true"
     inkscape:guide-bbox="true"
     fit-margin-top="0"
     fit-margin-left="0"
     fit-margin-right="0"
     fit-margin-bottom="0"
     inkscape:window-width="1855"
     inkscape:window-height="1056"
     inkscape:window-x="65"
     inkscape:window-y="24"
     inkscape:window-maximized="1">
    <sodipodi:guide
       orientation="1,0"
       position="2461.6995,680.1459"
       id="guide2997" />
  </sodipodi:namedview>
  <metadata
     id="metadata7">
    <rdf:RDF>
      <cc:Work
         rdf:about="">
        <dc:format>image/svg+xml</dc:format>
        <dc:type
           rdf:resource="http://purl.org/dc/dcmitype/StillImage" />
        <dc:title></dc:title>
      </cc:Work>
    </rdf:RDF>
  </metadata>
  <g
     inkscape:label="Layer 1"
     inkscape:groupmode="layer"
     id="layer1"
     transform="translate(701.69952,-496.6297)">
    <rect
       style="opacity:1;fill:#ffffff;fill-opacity:1;fill-rule:nonzero;stroke:none;stroke-width:2;stroke-linecap:round;stroke-linejoin:round;stroke-miterlimit:4;stroke-dasharray:none;stroke-opacity:1"
       id="rect4138"
       width="600.03107"
       height="173.02127"
       x="-701.69952"
       y="496.6297" />
    <g
       style="font-style:normal;font-variant:normal;font-weight:600;font-stretch:normal;font-size:122.20504761px;line-height:125%;font-family:a_AlternaBrk;-inkscape-font-specification:'a_AlternaBrk Semi-Bold';letter-spacing:0px;word-spacing:0px;fill:#1a1a1a;fill-opacity:1;stroke:none"
       id="text2989">
      <path
         d="m -631.19512,548.45187 -1.34426,1.09984 0,27.49614 7.45451,0 7.82113,-15.52004 -11.60948,-12.83153 -2.3219,-0.24441 z m -17.59753,-27.12952 -2.4441,-0.12221 20.28604,1.83308 0,10.02081 5.98805,-1.83307 20.65265,8.06553 4.15497,23.34116 -6.59907,25.29645 -17.10871,5.01041 -10.14302,0.61102 3.05513,13.07594 -21.26368,0 0,-13.07594 -7.82112,-0.48882 -16.37548,-8.06553 -8.06553,-22.60794 6.72128,-21.26368 19.79721,-9.16537 5.86585,0 3.29953,-10.63184 z m 0,27.37393 0,0.36661 -8.18774,-0.97764 -10.87624,15.88666 10.26522,15.27563 8.18774,-3.29954 -1.09985,-11.60948 1.71087,-15.64224 z"
         style=""
         id="path4195" />
      <path
         d="m -573.6566,577.04785 -0.1222,-1.22205 13.32035,0 1.46646,-22.11912 -8.06554,-20.53044 -4.39938,21.26368 -2.19969,22.60793 z m 0.24441,30.18465 0.24441,-1.83308 -17.47532,1.09985 -2.19969,-17.10871 3.66615,-21.26368 1.83308,-20.28604 5.74363,-13.56476 6.72128,-14.29799 18.08635,0 7.82112,15.76445 4.03277,12.22051 1.83307,21.63029 1.34426,20.28604 0,16.00886 -15.52004,2.81072 0,-16.7421 -14.4202,-2.93292 -1.71087,18.20856 z"
         style=""
         id="path4197" />
      <path
         d="m -496.90896,607.84352 0,-0.85543 0,-15.64225 1.34425,-12.95374 -2.19969,-14.5424 2.56631,-12.95373 -1.34426,-15.64225 -8.06553,12.83153 -5.62143,15.88666 0,44.84925 -19.67501,-3.17733 -1.34426,-9.7764 0,-29.45142 6.35466,-21.01927 10.26523,-11.85389 12.0983,-10.87625 25.90747,-2.93292 -1.71087,16.00886 0,13.68697 -1.71088,14.6646 3.17734,13.44256 -2.4441,13.93137 1.22205,15.39784 -18.81958,0.97764 z"
         style=""
         id="path4199" />
      <path
         d="m -448.46803,577.04785 -0.1222,-1.22205 13.32035,0 1.46646,-22.11912 -8.06554,-20.53044 -4.39938,21.26368 -2.19969,22.60793 z m 0.24441,30.18465 0.24441,-1.83308 -17.47532,1.09985 -2.19969,-17.10871 3.66615,-21.26368 1.83308,-20.28604 5.74363,-13.56476 6.72128,-14.29799 18.08635,0 7.82112,15.76445 4.03277,12.22051 1.83307,21.63029 1.34426,20.28604 0,16.00886 -15.52004,2.81072 0,-16.7421 -14.4202,-2.93292 -1.71087,18.20856 z"
         style=""
         id="path4201" />
      <path
         d="m -403.73527,607.84352 0.36662,-2.3219 0.73323,-11.73168 -1.46646,-16.49768 -0.97764,-14.05358 2.19969,-14.05358 -0.85544,-13.68697 0,-15.88665 19.67502,1.09984 -2.19969,15.27563 2.5663,16.61989 12.95374,-1.58867 0,-31.04008 19.18619,0 0,17.35312 -1.22205,11.12066 -1.34426,17.35311 0,25.78527 3.05513,17.10871 -18.69737,0 0,-16.25328 -1.09985,-11.36506 0,-13.68697 -16.00886,0 3.17733,12.58712 -2.4441,12.70932 1.22205,14.17579 -18.81958,0.97764 z"
         style=""
         id="path4203" />
      <path
         d="m -288.09872,555.90638 0,-0.85544 -18.33076,-1.58867 0.85544,-9.53199 -9.40979,-8.43215 -4.766,8.55436 -1.34426,11.97609 0,27.12952 8.18774,7.94333 7.45451,-5.62143 -1.46646,-17.84194 17.47532,3.05513 0,8.18773 -5.13261,21.87471 -17.84194,9.04317 -20.28604,-6.47687 -5.37702,-25.54085 -1.71087,-13.44256 0,-15.76445 4.15497,-22.11911 23.21896,-7.08789 17.71973,5.86584 7.0879,23.58557 -0.48882,7.0879 z"
         style=""
         id="path4205" />
      <path
         d="m -271.54088,537.69782 -0.12221,-2.19969 -12.34271,1.83308 -0.97764,-17.35312 16.13107,0 14.90901,3.05513 13.32035,-3.17733 -1.34425,18.69737 -12.70933,-2.07749 0,13.32035 2.81072,16.8643 0,24.80762 -1.46646,15.76446 -18.81958,0 -1.34426,-14.29799 3.17734,-14.90902 -2.44411,-14.29799 1.22206,-12.95374 0,-13.07594 z"
         style=""
         id="path4207" />
      <path
         d="m -231.41278,575.21477 0.24441,1.71087 18.20855,-0.97764 -1.22205,6.96569 8.30994,8.67656 5.13262,-7.69892 0,-13.68696 -14.66461,-2.56631 0,-13.32035 17.96414,-1.58867 -3.29953,-8.67655 -7.45451,-6.59908 -6.11025,6.11026 1.46646,2.5663 -19.79722,0 5.74364,-19.06399 20.04162,-7.21009 18.57517,5.74363 9.28758,21.87471 -1.71087,16.9865 0,13.07594 -6.59907,24.1966 -19.3084,5.25482 -20.65265,-6.23246 -6.59907,-21.14148 2.4441,-4.39938 z"
         style=""
         id="path4209" />
      <path
         d="m -149.70345,568.6157 -0.24441,-0.61102 6.96569,0 7.08789,-15.64225 -7.82112,-15.88666 -7.2101,-0.36661 1.22205,16.25327 0,16.25327 z m -16.49768,36.90592 -1.46646,-0.1222 0.85544,-13.19815 -2.19969,-14.6646 2.5663,-13.19815 -1.34425,-15.88665 0,-28.47378 24.80762,0 16.25327,5.98805 7.69892,6.72128 1.58867,21.14147 -5.74364,21.38588 -17.84194,7.45451 -7.45451,2.07749 0,23.70778 -17.71973,-2.93293 z"
         style=""
         id="path4211" />
    </g>
    <g
       style="font-style:normal;font-variant:normal;font-weight:normal;font-stretch:normal;font-size:36.68900681px;line-height:125%;font-family:'Ubuntu Mono';-inkscape-font-specification:'Ubuntu Mono';letter-spacing:0px;word-spacing:0px;fill:#1a1a1a;fill-opacity:1;stroke:none"
       id="text2993">
      <path
         d="m -331.76174,646.61884 0,-14.49216 -3.59552,0 0,-2.53154 3.59552,0 0,-1.54094 q 0,-1.98121 0.55033,-3.26532 0.55034,-1.32081 1.43088,-2.12797 0.91722,-0.80715 2.09127,-1.13736 1.21074,-0.3302 2.53154,-0.3302 1.3208,0 2.64161,0.29352 1.35749,0.29351 2.53154,0.69709 l -0.55033,2.60492 q -0.80716,-0.40358 -2.0179,-0.69709 -1.21074,-0.29352 -2.45816,-0.29352 -0.77047,0 -1.46756,0.22014 -0.66041,0.18344 -1.17405,0.69709 -0.51365,0.47696 -0.80716,1.3208 -0.29351,0.80716 -0.29351,2.05459 l 0,1.50425 6.86084,0 0,2.53154 -6.86084,0 0,14.49216 -3.0085,0 z"
         style=""
         id="path4170" />
      <path
         d="m -309.96847,644.45418 q 1.13736,0 2.01789,-0.0734 0.91723,-0.0734 1.50425,-0.18345 l 0,-5.06308 q -0.58702,-0.18345 -1.43087,-0.29351 -0.80716,-0.11007 -1.72438,-0.11007 -0.84385,0 -1.65101,0.14676 -0.80715,0.11006 -1.43087,0.44026 -0.62371,0.3302 -1.02729,0.88054 -0.40358,0.51365 -0.40358,1.3208 0,1.65101 1.10067,2.31141 1.13736,0.62371 3.04519,0.62371 z m -0.29351,-15.26262 q 1.90783,0 3.19194,0.47695 1.32081,0.47696 2.12796,1.32081 0.80716,0.84385 1.13736,2.05458 0.3302,1.21074 0.3302,2.64161 l 0,10.63981 q -1.06398,0.18345 -2.82505,0.44027 -1.72438,0.25682 -3.55883,0.25682 -1.39419,0 -2.71499,-0.25682 -1.3208,-0.22013 -2.3481,-0.80716 -1.02729,-0.62371 -1.651,-1.68769 -0.62371,-1.06398 -0.62371,-2.71499 0,-1.46756 0.62371,-2.45816 0.6604,-1.02729 1.651,-1.65101 1.0273,-0.62371 2.31141,-0.88053 1.32081,-0.29351 2.64161,-0.29351 1.79776,0 3.52214,0.40357 l 0,-0.84384 q 0,-0.77047 -0.18344,-1.46756 -0.14676,-0.73378 -0.62371,-1.32081 -0.44027,-0.58702 -1.24743,-0.91722 -0.77047,-0.36689 -2.0179,-0.36689 -1.57762,0 -2.75167,0.22013 -1.17405,0.22014 -1.79776,0.44027 l -0.36689,-2.49485 q 0.62371,-0.29351 2.05458,-0.51365 1.46756,-0.22013 3.11857,-0.22013 z"
         style=""
         id="path4172" />
      <path
         d="m -288.57878,647.02241 q -1.61432,0 -2.6783,-0.44026 -1.06398,-0.44027 -1.68769,-1.32081 -0.62371,-0.88053 -0.88054,-2.16465 -0.25682,-1.3208 -0.25682,-3.04519 l 0,-16.10647 -4.91633,0 0,-2.56823 7.92483,0 0,18.6747 q 0,1.28412 0.14675,2.09128 0.18345,0.80715 0.51365,1.3208 0.36689,0.47696 0.88054,0.6604 0.51364,0.18345 1.21073,0.18345 1.06398,0 1.98121,-0.25683 0.91723,-0.25682 1.43087,-0.55033 l 0.44027,2.56823 q -0.22013,0.11007 -0.62371,0.29351 -0.40358,0.14676 -0.95392,0.29351 -0.55033,0.14676 -1.21074,0.25683 -0.62371,0.11006 -1.3208,0.11006 z"
         style=""
         id="path4174" />
      <path
         d="m -273.27947,644.45418 q 1.13736,0 2.0179,-0.0734 0.91722,-0.0734 1.50425,-0.18345 l 0,-5.06308 q -0.58703,-0.18345 -1.43087,-0.29351 -0.80716,-0.11007 -1.72439,-0.11007 -0.84384,0 -1.651,0.14676 -0.80716,0.11006 -1.43087,0.44026 -0.62372,0.3302 -1.02729,0.88054 -0.40358,0.51365 -0.40358,1.3208 0,1.65101 1.10067,2.31141 1.13736,0.62371 3.04518,0.62371 z m -0.29351,-15.26262 q 1.90783,0 3.19195,0.47695 1.3208,0.47696 2.12796,1.32081 0.80716,0.84385 1.13736,2.05458 0.3302,1.21074 0.3302,2.64161 l 0,10.63981 q -1.06398,0.18345 -2.82505,0.44027 -1.72439,0.25682 -3.55884,0.25682 -1.39418,0 -2.71499,-0.25682 -1.3208,-0.22013 -2.34809,-0.80716 -1.02729,-0.62371 -1.65101,-1.68769 -0.62371,-1.06398 -0.62371,-2.71499 0,-1.46756 0.62371,-2.45816 0.66041,-1.02729 1.65101,-1.65101 1.02729,-0.62371 2.31141,-0.88053 1.3208,-0.29351 2.6416,-0.29351 1.79777,0 3.52215,0.40357 l 0,-0.84384 q 0,-0.77047 -0.18345,-1.46756 -0.14675,-0.73378 -0.62371,-1.32081 -0.44027,-0.58702 -1.24743,-0.91722 -0.77046,-0.36689 -2.01789,-0.36689 -1.57763,0 -2.75168,0.22013 -1.17404,0.22014 -1.79776,0.44027 l -0.36689,-2.49485 q 0.62372,-0.29351 2.05459,-0.51365 1.46756,-0.22013 3.11856,-0.22013 z"
         style=""
         id="path4176" />
      <path
         d="m -261.68574,630.07209 q 1.65101,-0.40358 3.26532,-0.62371 1.65101,-0.22013 3.08188,-0.22013 3.41208,0 5.13646,1.76107 1.76107,1.76107 1.76107,5.65011 l 0,9.97941 -3.00849,0 0,-9.42908 q 0,-1.651 -0.29352,-2.6783 -0.29351,-1.02729 -0.84384,-1.57762 -0.51365,-0.58703 -1.28412,-0.80716 -0.73378,-0.22014 -1.61432,-0.22014 -0.73378,0 -1.57762,0.11007 -0.80716,0.0734 -1.57763,0.22013 l 0,14.3821 -3.04519,0 0,-16.54675 z"
         style=""
         id="path4178" />
      <path
         d="m -233.06831,642.36291 q 0,-0.91722 -0.77047,-1.50425 -0.73378,-0.58702 -1.87114,-1.02729 -1.10067,-0.44027 -2.42147,-0.84385 -1.32081,-0.44027 -2.45817,-1.06398 -1.10067,-0.62371 -1.87114,-1.54094 -0.73378,-0.91722 -0.73378,-2.38478 0,-2.05459 1.65101,-3.41208 1.68769,-1.39418 5.24653,-1.39418 1.39418,0 2.86174,0.22013 1.50425,0.18345 2.56823,0.51365 l -0.55034,2.71498 q -0.29351,-0.14675 -0.80715,-0.29351 -0.51365,-0.18344 -1.17405,-0.29351 -0.6604,-0.14676 -1.43087,-0.22013 -0.73378,-0.0734 -1.43087,-0.0734 -3.96242,0 -3.96242,2.16465 0,0.77047 0.73378,1.3208 0.77047,0.51365 1.90783,0.95392 1.13736,0.44027 2.45817,0.91722 1.3208,0.44027 2.45816,1.10067 1.13736,0.66041 1.87114,1.61432 0.77047,0.91722 0.77047,2.3481 0,2.3114 -1.79776,3.59552 -1.79777,1.24742 -5.6868,1.24742 -1.76107,0 -3.22863,-0.29351 -1.46756,-0.29351 -2.78837,-0.88053 l 0.58703,-2.75168 q 1.28411,0.58702 2.67829,0.9906 1.43088,0.36689 3.04519,0.36689 4.14586,0 4.14586,-2.09127 z"
         style=""
         id="path4180" />
      <path
         d="m -218.68623,629.59514 7.19105,0 0,2.53154 -7.19105,0 0,7.92482 q 0,1.28412 0.18345,2.09128 0.18344,0.80715 0.58702,1.3208 0.44027,0.47696 1.10067,0.6604 0.66041,0.18345 1.61432,0.18345 1.3208,0 2.12796,-0.22014 0.80716,-0.22013 1.54094,-0.58702 l 0.44027,2.56823 q -0.51365,0.22013 -1.65101,0.58702 -1.10067,0.36689 -2.75167,0.36689 -1.90783,0 -3.11857,-0.44026 -1.21073,-0.44027 -1.90783,-1.32081 -0.6604,-0.88053 -0.91722,-2.16465 -0.25682,-1.3208 -0.25682,-3.04519 l 0,-7.92482 -3.59553,0 0,-2.53154 3.59553,0 0,-4.76957 3.00849,-0.51365 0,5.28322 z"
         style=""
         id="path4182" />
      <path
         d="m -199.75469,629.19156 q 3.44877,0 5.31991,2.16465 1.87114,2.12796 1.87114,6.49395 l 0,1.06398 -12.18075,0 q 0.18344,2.64161 1.72438,4.03579 1.57763,1.3575 4.40268,1.3575 1.61432,0 2.75168,-0.25683 1.13736,-0.25682 1.72438,-0.55033 l 0.40358,2.56823 q -0.55034,0.29351 -1.98121,0.62371 -1.43087,0.3302 -3.22863,0.3302 -2.20134,0 -3.88903,-0.6604 -1.65101,-0.69709 -2.75168,-1.87114 -1.10067,-1.17405 -1.65101,-2.78836 -0.55033,-1.65101 -0.55033,-3.55884 0,-2.27471 0.69709,-3.96241 0.69709,-1.68769 1.83445,-2.78836 1.13736,-1.10067 2.56823,-1.65101 1.43087,-0.55033 2.93512,-0.55033 z m 4.10917,7.26442 q 0,-2.16465 -1.13736,-3.41208 -1.13736,-1.28411 -3.0085,-1.28411 -1.06398,0 -1.94451,0.40358 -0.84385,0.40358 -1.46756,1.06398 -0.62372,0.6604 -0.99061,1.50425 -0.36689,0.84384 -0.47696,1.72438 l 9.0255,0 z"
         style=""
         id="path4184" />
      <path
         d="m -186.98692,646.61884 0,-16.10648 q 3.74228,-1.28411 7.55794,-1.28411 1.17404,0 2.23803,0.11006 1.06398,0.0734 2.34809,0.36689 l -0.55033,2.6783 q -1.17405,-0.3302 -2.09128,-0.40358 -0.88053,-0.11007 -1.94451,-0.11007 -2.23803,0 -4.54944,0.62372 l 0,14.12527 -3.0085,0 z"
         style=""
         id="path4186" />
      <path
         d="m -160.68091,644.27074 q 0,1.10067 -0.73378,1.94452 -0.73378,0.84384 -1.94452,0.84384 -1.24742,0 -1.9812,-0.84384 -0.73378,-0.84385 -0.73378,-1.94452 0,-1.13736 0.73378,-1.98121 0.73378,-0.84384 1.9812,-0.84384 1.21074,0 1.94452,0.84384 0.73378,0.84385 0.73378,1.98121 z"
         style=""
         id="path4188" />
      <path
         d="m -148.57353,630.21885 q 0.55034,-0.3302 1.57763,-0.6604 1.06398,-0.36689 2.3481,-0.36689 1.72438,0 3.08187,0.6604 1.3575,0.6604 2.27472,1.83445 0.95392,1.17405 1.43087,2.82505 0.51365,1.61432 0.51365,3.59553 0,2.05458 -0.58702,3.70559 -0.58703,1.651 -1.65101,2.82505 -1.06398,1.13736 -2.56823,1.76107 -1.50425,0.62371 -3.3387,0.62371 -2.01789,0 -3.59552,-0.29351 -1.57763,-0.29351 -2.53154,-0.58702 l 0,-24.43488 3.04518,-0.51365 0,9.0255 z m 0,13.75838 q 0.6971,0.18344 1.39419,0.29351 0.69709,0.0734 1.3208,0.0734 2.53154,0 3.96241,-1.54094 1.43087,-1.57763 1.43087,-4.69619 0,-1.32081 -0.25682,-2.45817 -0.25682,-1.17405 -0.80716,-1.9812 -0.55033,-0.84385 -1.43087,-1.32081 -0.84384,-0.47696 -2.05458,-0.47696 -1.06398,0 -2.05459,0.44027 -0.9906,0.40358 -1.50425,0.88054 l 0,10.78657 z"
         style=""
         id="path4190" />
      <path
         d="m -134.008,649.81078 q 0.33021,0.18344 0.91723,0.29351 0.62371,0.11007 1.13736,0.11007 1.79776,0 2.78836,-0.80716 1.0273,-0.77047 1.87114,-2.56823 -2.05458,-3.88904 -3.85234,-8.32841 -1.79776,-4.47605 -2.97181,-8.91542 l 3.30201,0 q 0.36689,1.46756 0.84384,3.19194 0.51365,1.68769 1.13736,3.48546 0.62372,1.79776 1.32081,3.63221 0.73378,1.79776 1.54094,3.44876 0.58702,-1.68769 1.10067,-3.3387 0.51364,-1.651 0.95391,-3.30201 0.44027,-1.68769 0.88054,-3.41207 0.44027,-1.76108 0.91722,-3.70559 l 3.15526,0 q -1.17405,4.76957 -2.64161,9.24563 -1.43087,4.47605 -3.08188,8.29171 -0.62371,1.46756 -1.35749,2.53154 -0.69709,1.06398 -1.54094,1.76108 -0.84385,0.69709 -1.90783,1.02729 -1.06398,0.3302 -2.42147,0.3302 -0.69709,0 -1.54094,-0.18345 -0.80716,-0.18344 -1.10067,-0.3302 l 0.55033,-2.45816 z"
         style=""
         id="path4192" />
    </g>
  </g>
</svg>
