<?xml version="1.0" encoding="UTF-8" standalone="no"?>
<!-- Created with Inkscape (http://www.inkscape.org/) -->

<svg
   xmlns:dc="http://purl.org/dc/elements/1.1/"
   xmlns:cc="http://creativecommons.org/ns#"
   xmlns:rdf="http://www.w3.org/1999/02/22-rdf-syntax-ns#"
   xmlns:svg="http://www.w3.org/2000/svg"
   xmlns="http://www.w3.org/2000/svg"
   xmlns:sodipodi="http://sodipodi.sourceforge.net/DTD/sodipodi-0.dtd"
   xmlns:inkscape="http://www.inkscape.org/namespaces/inkscape"
   width="169.33331mm"
   height="169.33331mm"
   viewBox="0 0 599.99992 599.99992"
   id="svg2"
   version="1.1"
   inkscape:version="0.91 r13725"
   sodipodi:docname="logo_2018_f_curves.svg">
  <defs
     id="defs4" />
  <sodipodi:namedview
     id="base"
     pagecolor="#ffffff"
     bordercolor="#666666"
     borderopacity="1.0"
     inkscape:pageopacity="0.0"
     inkscape:pageshadow="2"
     inkscape:zoom="0.7"
     inkscape:cx="-199.74096"
     inkscape:cy="160.65815"
     inkscape:document-units="px"
     inkscape:current-layer="layer1"
     showgrid="false"
     fit-margin-top="0"
     fit-margin-left="0"
     fit-margin-right="0"
     fit-margin-bottom="0"
     inkscape:window-width="1855"
     inkscape:window-height="1056"
     inkscape:window-x="65"
     inkscape:window-y="24"
     inkscape:window-maximized="1" />
  <metadata
     id="metadata7">
    <rdf:RDF>
      <cc:Work
         rdf:about="">
        <dc:format>image/svg+xml</dc:format>
        <dc:type
           rdf:resource="http://purl.org/dc/dcmitype/StillImage" />
        <dc:title></dc:title>
      </cc:Work>
    </rdf:RDF>
  </metadata>
  <g
     inkscape:label="Layer 1"
     inkscape:groupmode="layer"
     id="layer1"
     transform="translate(928.57147,-95.219353)">
    <path
       style="opacity:1;fill:#ffffff;fill-opacity:1;fill-rule:nonzero;stroke:none;stroke-width:2;stroke-linecap:round;stroke-linejoin:round;stroke-miterlimit:4;stroke-dasharray:none;stroke-opacity:1"
       d="m -928.57147,95.219353 599.99994,0 0,599.999937 -599.99994,0 z"
       id="rect4140" />
    <g
       style="font-style:normal;font-weight:normal;font-size:717.34417725px;line-height:125%;font-family:sans-serif;letter-spacing:0px;word-spacing:0px;fill:#000000;fill-opacity:1;stroke:none;stroke-width:1px;stroke-linecap:butt;stroke-linejoin:miter;stroke-opacity:1"
       id="text4136">
      <path
         d="m -564.85538,306.92864 -7.89079,6.4561 0,161.40244 43.758,0 45.91002,-91.10271 -68.14769,-75.32114 -13.62954,-1.43469 z m -103.29757,-159.25041 -14.34688,-0.71734 119.07913,10.76016 0,58.82222 35.14987,-10.76016 121.23117,47.34472 24.3897,137.01273 -38.73659,148.49025 -100.42818,29.41111 -59.53957,3.58672 17.9336,76.75583 -124.81788,0 0,-76.75583 -45.91003,-2.86938 -96.12412,-47.34471 -47.34472,-132.70867 39.45393,-124.81789 116.20976,-53.80081 34.43252,0 19.36829,-62.40895 z m 0,160.6851 0,2.15203 -48.06206,-5.73875 -63.84363,93.25474 60.25691,89.66802 48.06206,-19.36829 -6.45609,-68.1477 10.04281,-91.82005 z"
         style="font-style:normal;font-variant:normal;font-weight:600;font-stretch:normal;font-family:a_AlternaBrk;-inkscape-font-specification:'a_AlternaBrk Semi-Bold';fill:#ff6600"
         id="path4137" />
    </g>
  </g>
</svg>
