<?xml version="1.0" encoding="UTF-8" standalone="no"?>
<!-- Created with Inkscape (http://www.inkscape.org/) -->

<svg
   xmlns:dc="http://purl.org/dc/elements/1.1/"
   xmlns:cc="http://creativecommons.org/ns#"
   xmlns:rdf="http://www.w3.org/1999/02/22-rdf-syntax-ns#"
   xmlns:svg="http://www.w3.org/2000/svg"
   xmlns="http://www.w3.org/2000/svg"
   xmlns:sodipodi="http://sodipodi.sourceforge.net/DTD/sodipodi-0.dtd"
   xmlns:inkscape="http://www.inkscape.org/namespaces/inkscape"
   width="169.04742mm"
   height="128.04492mm"
   viewBox="0 0 598.98694 453.70248"
   id="svg5404"
   version="1.1"
   inkscape:version="0.48.4 r9939"
   sodipodi:docname="wiki_logo.svg"
   inkscape:export-filename="/home/svet/Dropbox/falanster/design/logo/logo_2018/projects_logo_b_w/wiki_logo.png"
   inkscape:export-xdpi="300.50391"
   inkscape:export-ydpi="300.50391">
  <defs
     id="defs5406" />
  <sodipodi:namedview
     id="base"
     pagecolor="#ffffff"
     bordercolor="#666666"
     borderopacity="1.0"
     inkscape:pageopacity="0.0"
     inkscape:pageshadow="2"
     inkscape:zoom="0.35"
     inkscape:cx="169.33207"
     inkscape:cy="151.90417"
     inkscape:document-units="px"
     inkscape:current-layer="layer1"
     showgrid="false"
     fit-margin-top="0"
     fit-margin-left="0"
     fit-margin-right="0"
     fit-margin-bottom="0"
     inkscape:window-width="1301"
     inkscape:window-height="744"
     inkscape:window-x="65"
     inkscape:window-y="24"
     inkscape:window-maximized="1" />
  <metadata
     id="metadata5409">
    <rdf:RDF>
      <cc:Work
         rdf:about="">
        <dc:format>image/svg+xml</dc:format>
        <dc:type
           rdf:resource="http://purl.org/dc/dcmitype/StillImage" />
        <dc:title></dc:title>
      </cc:Work>
    </rdf:RDF>
  </metadata>
  <g
     inkscape:label="Layer 1"
     inkscape:groupmode="layer"
     id="layer1"
     transform="translate(278.61779,-230.5639)">
    <path
       inkscape:connector-curvature="0"
       style="fill:#00ffff;fill-rule:evenodd;stroke:#333333;stroke-width:5.61838055000000036;stroke-linecap:butt;stroke-linejoin:miter;stroke-miterlimit:4;stroke-opacity:1;stroke-dasharray:none"
       d="m 279.9895,382.75124 c -5.59396,-18.10608 -6.37462,-45.95386 -2.8384,-61.30805 1.70292,-7.38002 4.25761,-21.00404 17.88134,-49.67098 3.48872,-7.34125 13.90774,-23.55815 13.90774,-23.55815 6.20098,2.0333 9.15316,-4.34806 8.51519,-7.9472 -0.85145,-4.2576 -5.10906,-7.38002 -7.94718,-6.81228 -5.74957,1.58579 -5.84764,4.159 -5.39309,10.78588 0,0 -7.45785,10.7828 -12.20482,19.30055 -4.74697,8.51774 -8.00227,14.66116 -15.61066,32.07308 -7.60869,17.41192 -12.05704,32.80853 -18.73308,53.64486 l -8.23121,11.35306 18.73307,19.86827 z"
       id="path4149-6-3-6-6" />
    <path
       inkscape:connector-curvature="0"
       style="fill:#00ffff;fill-rule:evenodd;stroke:#333333;stroke-width:5.61838055000000036;stroke-linecap:butt;stroke-linejoin:miter;stroke-miterlimit:4;stroke-opacity:1;stroke-dasharray:none"
       d="m -27.118199,549.19096 c 0,0 19.5842634,-26.68054 33.2082838,-36.3307 13.6242782,-9.65038 55.0637762,-35.47921 55.0637762,-35.47921 0,0 31.493563,-12.3315 42.858959,-24.40961 11.36514,-12.0784 22.13895,-24.12617 26.68028,-29.80242 4.54136,-5.67681 22.13895,-24.4099 31.78908,-31.2219 9.65071,-6.81201 21.00405,-16.46214 38.03391,-23.84188 17.02987,-7.37974 29.51869,-10.7856 40.30431,-10.21815 10.78587,0.56774 23.2744,5.67681 31.78933,15.32694 8.51497,9.6507 15.8947,18.16535 18.16535,26.11311 2.27068,7.9472 3.97361,18.16507 3.40588,25.54453 -0.56747,7.37974 -2.27068,10.78588 0,17.59789 2.27094,6.812 4.54162,13.05627 7.37974,18.16535 2.8384,5.10879 4.54133,10.21786 4.54133,10.21786 -1.01018,2.20465 -5.10906,1.41948 -6.81201,-2.5544 -1.70293,-3.97359 -9.65039,-15.61095 -9.65039,-15.61095 0,0 1.13545,2.83841 -7.37948,7.37975 -8.51522,4.54133 -13.27679,2.90554 -14.19175,9.08267 -1.13519,7.66347 -0.82307,8.58601 -0.56772,13.34028 0.25564,4.754 5.67681,15.04322 2.27065,15.04322 -3.40614,0 -9.65039,-7.94748 -9.65039,-17.03016 l 0,-12.48853 c 0,0 -6.64038,3.85168 -9.36612,4.82506 -7.94778,2.83813 -19.01712,2.83813 -22.99072,3.40614 -3.97386,0.56746 -10.21814,2.5544 -18.73307,8.79867 -8.51494,6.24427 -14.19146,13.624 -20.436,24.40961 -6.24429,10.7859 -12.48854,25.54508 -18.16506,43.71043 -5.67711,18.16506 -17.03045,48.25151 -21.00405,57.90219 -3.9736,9.65013 -14.19146,26.11255 -19.30054,30.65359 -5.10906,4.54162 -17.97854,13.17651 -28.95097,19.30084 -12.204782,6.81201 -27.815733,12.48853 -43.142675,15.32694 -15.326942,2.8387 -45.981117,3.40613 -45.981117,3.40613 0,0 -34.627745,1.70293 -50.522156,0.56747 -15.89496,-1.1349 -57.334457,1.13546 -70.958732,1.13546 -13.62373,0 -39.73655,0 -56.76644,-1.70293 -17.02987,-1.70292 -40.87203,-1.70292 -51.65761,-5.10905 -10.78562,-3.40617 -32.3571,-17.59762 -38.60138,-24.97707 -6.24425,-7.37977 -18.73308,-19.30084 -18.73308,-19.30084 0,0 -3.9736,-0.56772 7.94721,-2.8384 11.92135,-2.27069 24.97732,-7.94747 34.62774,-6.81201 7.89298,0.92845 18.73311,-5.67653 18.73311,-5.67653 0,0 17.59759,5.10909 24.97762,9.08269 7.37944,3.97357 30.65359,-2.55469 42.57469,-0.28304 11.92107,2.27065 16.17868,0 26.964,-2.27068 10.78587,-2.27039 20.720007,-12.20482 33.208832,-17.31387 12.488535,-5.10909 23.841875,-11.06933 28.383237,-17.31391 4.541329,-6.24396 11.353339,-11.06933 14.759183,-24.12559 3.406134,-13.05626 15.894959,-13.62373 15.894959,-13.62373 z"
       id="path4147-3-6-6-3" />
    <path
       inkscape:connector-curvature="0"
       style="fill:#00ffff;fill-rule:evenodd;stroke:#333333;stroke-width:5.61838055000000036;stroke-linecap:butt;stroke-linejoin:miter;stroke-miterlimit:4;stroke-opacity:1;stroke-dasharray:none"
       d="m 262.95961,386.72483 c 0.85118,-2.55467 -2.27094,-28.09976 -3.12242,-32.92483 -0.85144,-4.82506 -2.55466,-23.27442 -2.55466,-30.08614 0,-6.81229 1.13546,-22.13923 2.83841,-28.95124 1.70321,-6.812 2.83867,-13.90773 7.37974,-27.53202 1.72652,-5.17931 7.37973,-15.8944 7.37973,-15.8944 5.16892,-1.4473 8.94898,-4.02866 9.08266,-8.79895 0,-3.68987 -3.12212,-7.66347 -5.39306,-8.23121 -2.27039,-0.56745 -7.37919,0.56774 -9.08269,3.40587 -1.70263,2.8384 -1.41892,9.36668 -1.41892,9.36668 l -6.24425,11.63707 c -5.73806,13.68328 -10.56143,27.52753 -12.77254,44.56218 -0.85177,6.81173 -2.83841,24.97707 -3.97389,31.50535 -1.1352,6.528 -5.96025,25.26108 -7.94721,28.66722 -1.98664,3.40586 -8.79865,12.48854 -10.21814,18.16535 -1.41921,5.67653 -1.98664,7.37946 -0.56747,12.48853 1.4192,5.1088 5.67656,6.81201 10.21817,7.94748 14.64597,-0.13484 23.2778,-6.04004 26.39654,-15.32694 z"
       id="path4151-1-9-6-4" />
    <path
       inkscape:connector-curvature="0"
       style="fill:#808080;fill-opacity:1;fill-rule:nonzero;stroke:#333333;stroke-width:5.61838055;stroke-linecap:round;stroke-linejoin:round;stroke-miterlimit:4;stroke-opacity:1;stroke-dasharray:none"
       d="m -182.63722,530.04857 c 0.51973,0.087 1.12004,-0.029 1.60773,0.10961 2.35436,-2.59599 4.26715,-5.81192 5.82146,-9.10797 1.55434,-3.29601 2.7533,-6.67294 3.67051,-9.6018 1.83467,-5.85799 2.55578,-9.91476 2.82013,-7.90085 2.27123,1.51669 4.22389,2.18332 5.87094,2.21675 1.64674,0.0338 2.99121,-0.56718 4.03821,-1.57485 1.0467,-1.00766 1.7948,-2.42657 2.26588,-4.03259 0.47111,-1.60631 0.6624,-3.4008 0.58149,-5.16301 -0.0816,-1.7622 -0.42866,-3.48958 -1.03684,-4.96552 -0.60822,-1.47595 -1.4782,-2.69851 -2.5898,-3.44576 -1.11159,-0.74696 -2.46929,-1.02198 -4.06012,-0.59807 -1.59087,0.42419 -3.41317,1.54533 -5.45912,3.58284 -0.68684,-3.10725 -0.80341,-6.40917 -1.08097,-9.66193 -0.27821,-3.24686 -0.71551,-6.44372 -2.03555,-9.33831 -0.14313,0.028 -0.28497,0.10393 -0.42811,0.11518 -1.79956,0.15451 -3.5483,-0.0421 -5.08068,-0.66943 -1.43636,-0.58853 -2.62716,-1.63832 -3.53876,-3.04516 -2.4996,0.56127 -5.61192,0.8127 -8.34527,1.66809 -1.45289,0.45453 -2.78164,1.08379 -3.8188,2.01897 -1.03716,0.93518 -1.78132,2.17656 -2.06839,3.86825 0.90679,-2.32572 0.88993,-4.24243 0.32359,-5.71726 -0.56631,-1.47454 -1.68242,-2.50299 -2.9738,-3.05612 -1.29138,-0.55313 -2.75917,-0.63094 -4.02725,-0.19103 -1.26807,0.43907 -2.33499,1.39504 -2.83112,2.89683 -0.55622,1.68495 -0.7565,2.84431 -0.74609,3.67077 0,0.82618 0.23017,1.31835 0.51015,1.65686 0.56125,0.67674 1.36524,0.74696 1.229,1.69535 -0.89164,1.40684 -2.16475,2.82211 -3.56093,4.0163 -1.39587,1.19418 -2.91143,2.1701 -4.29607,2.69935 -1.38439,0.52953 -2.63728,0.60931 -3.49492,0.028 -0.85766,-0.58712 -1.32088,-1.84367 -1.13577,-3.99972 -0.20213,0 -0.28143,0.031 -0.47727,0.028 -0.029,0.0506 -0.0339,0.15452 -0.0619,0.20226 0.27821,3.49941 0.89948,8.92761 2.0302,14.28192 0.56521,2.67716 1.26159,5.33859 2.10127,7.73061 0.83968,2.39232 1.82484,4.51522 2.97916,6.12321 0.78964,0.029 1.21665,-1.10457 2.20575,-2.34821 0.49471,-0.62195 1.12959,-1.2706 2.01926,-1.81614 0.88939,-0.54555 2.03526,-0.98968 3.54969,-1.19616 1.22088,-0.1657 2.30353,-0.0422 3.24266,0.30174 0.9391,0.34526 1.73213,0.91215 2.38135,1.63522 1.29838,1.4459 2.01279,3.51713 2.10128,5.67318 0.0899,2.15604 -0.44668,4.39723 -1.63497,6.19454 -0.59413,0.89867 -1.35122,1.68467 -2.27713,2.29344 -0.92562,0.60844 -2.02036,1.03855 -3.28647,1.22339 2.95836,3.03615 5.97936,5.36331 9.00935,7.17665 3.02971,1.81359 6.07066,3.11706 9.05852,4.11515 0.3284,0.10961 0.59977,0.11799 0.92704,0.21922 z"
       id="path4427" />
    <path
       inkscape:connector-curvature="0"
       style="fill:#666666;fill-opacity:1;fill-rule:nonzero;stroke:#333333;stroke-width:5.61838055;stroke-linecap:round;stroke-linejoin:round;stroke-miterlimit:4;stroke-opacity:1;stroke-dasharray:none"
       d="m -131.25965,524.24903 c -1.06889,-2.25972 -2.26981,-4.43433 -3.16568,-6.721 -1.70911,-4.36155 -3.06678,-8.62167 -3.93959,-12.20792 -0.87282,-3.58646 -1.26218,-6.49905 -1.02592,-8.16433 2.87829,-0.17137 4.92898,-0.83854 6.30973,-1.8271 1.38042,-0.98827 2.09479,-2.29904 2.29341,-3.76375 0.19954,-1.46499 -0.11799,-3.07971 -0.78462,-4.68011 -0.66773,-1.60067 -1.68971,-3.1859 -2.90807,-4.58151 -1.21805,-1.3956 -2.62913,-2.60103 -4.08202,-3.45109 -1.45292,-0.85006 -2.94601,-1.34223 -4.31802,-1.30599 -1.37227,0.0365 -2.62913,0.59667 -3.60475,1.85996 -0.97562,1.26358 -1.67342,3.22636 -1.93693,6.05746 -2.05353,-3.47553 -4.14581,-6.94235 -6.43587,-10.26562 -2.28106,-3.31035 -4.76099,-6.4749 -7.58254,-9.36584 -0.0816,0.0843 -0.10122,0.19945 -0.18536,0.28091 -1.31385,1.26554 -2.92042,2.32966 -4.64723,3.11652 -1.58945,0.72421 -3.28647,1.1439 -4.94897,1.33886 1.32005,2.89459 1.75857,6.09145 2.03555,9.33831 0.2782,3.25276 0.39413,6.55468 1.08097,9.66193 2.04593,-2.03751 3.86825,-3.15866 5.45912,-3.58285 1.59083,-0.4239 2.9485,-0.14887 4.06009,0.59808 1.1116,0.74725 1.98162,1.96981 2.5898,3.44576 0.60822,1.47594 0.95625,3.20331 1.03687,4.96552 0.0816,1.76221 -0.1096,3.55672 -0.58149,5.16302 -0.47111,1.60602 -1.21917,3.02493 -2.26588,4.0326 -1.04699,1.00763 -2.39147,1.60795 -4.03824,1.57481 -1.64702,-0.0339 -3.59968,-0.70006 -5.87091,-2.21671 -0.26402,-2.01392 -0.98545,2.04283 -2.82016,7.90084 -0.91718,2.92887 -2.11614,6.3058 -3.67048,9.60181 -1.55431,3.29601 -3.46709,6.51198 -5.82146,9.10796 -0.48768,-0.13765 -1.088,-0.029 -1.60773,-0.1096 5.62485,1.76362 11.10276,2.61339 15.94441,3.72554 4.98069,0.69471 9.96644,0.5891 14.79236,-0.23018 4.82563,-0.81972 9.49252,-2.35411 13.83724,-4.52646 2.48273,-1.24139 4.56154,-3.12635 6.80356,-4.76802 z"
       id="path4425" />
    <path
       inkscape:connector-curvature="0"
       style="fill:#4d4d4d;fill-opacity:1;fill-rule:nonzero;stroke:#333333;stroke-width:5.61838055;stroke-linecap:round;stroke-linejoin:round;stroke-miterlimit:4;stroke-opacity:1;stroke-dasharray:none"
       d="m -123.64955,436.18765 c -0.46463,0.25283 -0.92085,0.51436 -1.37707,0.76803 -3.06258,1.70321 -5.89422,3.41036 -7.83512,5.17959 -0.97056,0.88461 -1.71556,1.78833 -2.16165,2.7103 -0.44639,0.92198 -0.59162,1.86334 -0.35116,2.83672 2.32265,1.52314 3.8059,3.05724 4.6363,4.53207 0.8301,1.47482 1.0085,2.88953 0.71859,4.18625 -0.28981,1.29673 -1.04783,2.47321 -2.08499,3.46205 -1.03716,0.98912 -2.35721,1.79142 -3.76938,2.34286 -1.41189,0.55145 -2.91452,0.85512 -4.32895,0.83939 -1.41444,-0.0281 -2.73616,-0.35171 -3.78035,-1.0644 -1.04415,-0.71241 -1.81078,-1.80238 -2.1122,-3.34125 -0.30174,-1.53916 -0.14055,-3.52385 0.67475,-6.01897 0.57224,-1.07902 0.56438,-1.73833 0.11509,-2.06841 -0.44919,-0.33036 -1.33916,-0.33373 -2.54569,-0.0927 -2.41337,0.48094 -6.08078,1.92542 -9.94201,3.62105 -1.25682,0.552 -1.51949,0.6374 -2.78167,1.21806 0.2305,0.47111 0.82508,0.95007 0.96554,1.41555 0.53316,1.76586 0.43429,3.4834 -0.12637,5.07537 -0.52421,1.48887 -1.51192,2.83588 -2.70498,4.04355 2.82155,2.89093 5.30151,6.05549 7.58257,9.36584 2.29002,3.32327 4.38234,6.79009 6.43584,10.26562 0.26402,-2.8311 0.96131,-4.79388 1.93693,-6.05746 0.97565,-1.26329 2.23248,-1.82344 3.60478,-1.85996 1.372,-0.0365 2.86506,0.45593 4.31799,1.30599 1.45292,0.85006 2.86397,2.05549 4.08205,3.45109 1.21833,1.39561 2.24031,2.98083 2.90807,4.58151 0.66743,1.60039 0.98319,3.21512 0.78458,4.68011 -0.19955,1.46471 -0.91298,2.77548 -2.29341,3.76375 -1.38071,0.98856 -3.43144,1.65574 -6.30972,1.8271 -0.23598,1.66531 0.15184,4.57786 1.02591,8.16436 0.87282,3.58621 2.23051,7.84634 3.93963,12.20788 0.89583,2.28671 2.09676,4.46129 3.16567,6.72101 1.68159,-1.23126 3.58621,-2.13554 5.10261,-3.57722 3.53789,-3.36345 6.59345,-7.28312 8.9981,-11.67555 1.64983,-2.11562 3.03338,-4.33124 4.18092,-6.62803 1.14784,-2.29679 2.05998,-4.6759 2.75975,-7.1109 1.40009,-4.86945 1.95408,-9.97066 1.88751,-15.13226 -0.0674,-5.16161 -0.75399,-10.38193 -1.85437,-15.48904 -1.10035,-5.10682 -2.61113,-10.09763 -4.31267,-14.80302 -1.22901,-3.99046 -3.31455,-7.68539 -6.00799,-10.94039 -0.87649,-1.05963 -2.1465,-1.74339 -3.14379,-2.70497 z"
       id="path4423" />
    <path
       inkscape:connector-curvature="0"
       style="fill:#333333;fill-opacity:1;fill-rule:nonzero;stroke:#333333;stroke-width:5.61838055;stroke-linecap:round;stroke-linejoin:round;stroke-miterlimit:4;stroke-opacity:1;stroke-dasharray:none"
       d="m -168.60756,432.22079 c -2.36307,1.72035 -4.77953,3.40474 -6.64989,5.59085 -2.59992,3.03842 -4.65651,6.50047 -5.99706,10.30411 -1.34029,3.80336 -1.96111,7.94945 -1.68442,12.36156 -0.029,2.65159 0.50764,4.72422 1.43213,6.28753 0.059,0.0983 0.17408,0.10957 0.23598,0.20225 0,0 0,0 0,0 0.9116,1.40685 2.1024,2.45664 3.53876,3.04517 1.53238,0.62757 3.28112,0.82506 5.08068,0.66943 0.14314,0 0.28433,-0.0983 0.42811,-0.11519 0,0 0,0 0,0 1.6625,-0.19384 3.35952,-0.61465 4.94897,-1.33886 1.72681,-0.78685 3.33337,-1.85097 4.64723,-3.11651 0.0845,-0.0815 0.10412,-0.19665 0.18536,-0.28092 0,0 0,0 0,0 1.19306,-1.20767 2.18077,-2.55468 2.70495,-4.04355 0.56044,-1.59196 0.65934,-3.3095 0.12637,-5.07536 -0.14056,-0.46548 -0.73404,-0.94445 -0.96554,-1.41555 0,0 0,0 0,0 -0.64667,-1.31526 -1.25121,-2.63446 -2.69962,-3.95028 0,0 0,0 0,0 1.44841,1.31582 2.05295,2.63502 2.69962,3.95028 1.26218,-0.58066 1.52485,-0.66606 2.78167,-1.21806 3.86123,-1.69563 7.52864,-3.14012 9.94201,-3.62105 1.20653,-0.24159 2.0965,-0.23598 2.54569,0.0927 0.44919,0.33008 0.45706,0.9894 -0.11509,2.06841 -0.81382,2.49512 -0.97649,4.47981 -0.67478,6.01897 0.30141,1.53887 1.06808,2.62884 2.11223,3.34125 1.04419,0.71269 2.36591,1.04895 3.78035,1.0644 1.41443,0.0281 2.91706,-0.28794 4.32895,-0.83939 1.41217,-0.55144 2.73222,-1.35374 3.76938,-2.34286 1.03716,-0.98883 1.79534,-2.16532 2.08496,-3.46204 0.28981,-1.29673 0.11251,-2.71144 -0.71856,-4.18626 -0.83043,-1.47482 -2.31365,-3.00892 -4.6363,-4.53207 -0.24146,-0.97338 -0.0954,-1.91474 0.35116,-2.83672 0.44609,-0.92197 1.19109,-1.82569 2.16165,-2.7103 1.94087,-1.76923 4.77253,-3.47638 7.83512,-5.17959 0.45622,-0.25283 0.91244,-0.51436 1.37707,-0.76803 -2.06701,-1.99284 -4.04385,-4.09383 -6.51817,-5.60209 -3.66825,-2.23583 -7.70279,-3.89466 -11.85675,-4.82815 -4.15423,-0.9335 -8.43009,-1.1411 -12.58096,-0.48824 -4.04607,1.03912 -7.90533,2.65609 -11.40698,4.77338 -0.9824,0.59386 -1.67372,1.50713 -2.59515,2.17824 z"
       id="path4421" />
    <path
       inkscape:connector-curvature="0"
       style="fill:#999999;fill-opacity:1;fill-rule:nonzero;stroke:#333333;stroke-width:5.61838055;stroke-linecap:round;stroke-linejoin:round;stroke-miterlimit:4;stroke-opacity:1;stroke-dasharray:none"
       d="m -169.81464,398.98217 c -2.16479,2.71031 -4.74588,5.22285 -7.52781,7.67611 -2.84711,2.51058 -5.88019,4.96581 -8.81157,7.52779 -2.93142,2.5617 -5.76083,5.23212 -8.20817,8.16969 -2.44737,2.93729 -4.51409,6.14004 -5.90915,9.7771 1.74845,-0.19384 3.13786,0.12924 4.21381,0.81748 1.07591,0.68881 1.83944,1.74647 2.33189,3.0342 0.49246,1.28773 0.71522,2.80666 0.71325,4.41128 -0.002,1.60488 -0.23017,3.29321 -0.63655,4.93265 -0.81525,3.27889 -2.35353,6.34624 -4.25761,8.0708 -0.95203,0.86242 -1.99283,1.39252 -3.08367,1.44308 -1.09081,0.0506 -2.22797,-0.37755 -3.36877,-1.42116 -1.14052,-1.04334 -2.12739,-1.56641 -2.98477,-1.6622 -0.85708,-0.0955 -1.58803,0.23317 -2.22206,0.88882 -1.26779,1.30993 -2.15015,3.92725 -2.8859,7.06119 -0.736,3.13393 -1.32284,6.78756 -2.00827,10.17236 -0.66888,3.30472 -1.44954,6.29427 -2.52377,8.35621 0.19664,0 0.2724,-0.0337 0.47727,-0.028 -0.18537,2.15605 0.2782,3.4126 1.13577,3.99972 0.85764,0.5874 2.11053,0.50762 3.49492,-0.0281 1.38464,-0.52925 2.9002,-1.50516 4.29607,-2.69935 1.39618,-1.19418 2.66929,-2.60946 3.56093,-4.0163 0.13766,-0.94838 -0.66775,-1.01861 -1.229,-1.69534 -0.28111,-0.33851 -0.49977,-0.83068 -0.51015,-1.65686 0,-0.82647 0.19084,-1.98582 0.74609,-3.67077 0.49613,-1.50179 1.56305,-2.45776 2.83112,-2.89684 1.26808,-0.43907 2.73587,-0.36126 4.02725,0.19104 1.29138,0.55313 2.40749,1.58157 2.9738,3.05612 0.56634,1.47482 0.5832,3.39153 -0.32359,5.71726 0.28723,-1.69169 1.03123,-2.93307 2.06839,-3.86826 1.03716,-0.93517 2.36591,-1.56443 3.8188,-2.01896 2.73335,-0.8554 5.84567,-1.10682 8.34527,-1.6681 -0.0619,-0.0927 -0.17698,-0.10673 -0.23598,-0.20225 -0.92449,-1.56332 -1.45572,-3.63594 -1.43213,-6.28753 -0.2782,-4.41211 0.34413,-8.5582 1.68442,-12.36156 1.34055,-3.80365 3.39714,-7.26569 5.99706,-10.30411 1.87036,-2.18611 4.28682,-3.8705 6.64989,-5.59085 0.12089,-4.02557 0.34049,-8.27363 0.92172,-9.35488 1.52172,0.29132 2.78838,0.22472 3.82415,-0.10394 1.03575,-0.32839 1.84,-0.9127 2.43077,-1.64618 1.18155,-1.4664 1.51501,-3.53284 1.16302,-5.33297 -0.17698,-0.90006 -0.5225,-1.73046 -1.0203,-2.3923 -0.49778,-0.66157 -1.14729,-1.15149 -1.92597,-1.36049 -0.77843,-0.2079 -1.68665,-0.14046 -2.70498,0.31827 -1.01834,0.45818 -2.14622,1.30459 -3.36316,2.64457 0.55257,-5.09418 -0.0561,-10.36844 -0.51577,-15.68652 0,-0.10673 0,-0.21631 -0.029,-0.32389 z"
       id="path4419" />
    <path
       inkscape:connector-curvature="0"
       style="fill:#b3b3b3;fill-opacity:1;fill-rule:nonzero;stroke:#333333;stroke-width:5.61838055;stroke-linecap:round;stroke-linejoin:round;stroke-miterlimit:4;stroke-opacity:1;stroke-dasharray:none"
       d="m -169.81464,398.98217 c 0,0.10674 0,0.21631 0.029,0.3239 0.46044,5.31808 1.06833,10.59233 0.51576,15.68652 1.21695,-1.33998 2.34482,-2.18639 3.36316,-2.64457 1.01834,-0.45818 1.92655,-0.52729 2.70498,-0.31828 0.77872,0.20787 1.4282,0.69893 1.92597,1.36049 0.4978,0.66185 0.84445,1.49225 1.0203,2.39231 0.352,1.80013 0.029,3.86657 -1.16298,5.33297 -0.59078,0.73348 -1.39506,1.31779 -2.4308,1.64618 -1.03575,0.32812 -2.30241,0.39554 -3.82416,0.10393 -0.58123,1.08126 -0.79951,5.32932 -0.92169,9.35489 0.9214,-0.67112 1.61276,-1.58439 2.59512,-2.17825 3.50165,-2.11729 7.36091,-3.73426 11.40701,-4.77338 4.15085,-0.65285 8.42674,-0.44525 12.58096,0.48824 4.15394,0.9335 8.1885,2.59232 11.85672,4.82816 2.47436,1.50825 4.45117,3.60924 6.51817,5.60208 2.65356,-1.44926 5.4136,-2.89065 7.868,-4.3784 2.8839,-1.74844 5.34868,-3.54913 6.75411,-5.45376 1.40544,-1.90463 2.36227,-2.52153 3.07242,-2.2496 0.71018,0.2725 1.17649,1.43353 1.60208,3.07803 0.42589,1.6445 0.81412,3.77218 1.3664,5.9861 0.55229,2.21364 1.26947,4.51128 2.35914,6.49064 1.221723,2.4041 2.732222,4.02613 4.400328,5.00934 1.668396,0.98322 3.493787,1.32566 5.338584,1.16862 1.844797,-0.15731 3.70784,-0.81016 5.459376,-1.82709 1.751245,-1.01665 3.390692,-2.39259 4.778723,-3.98877 1.388288,-1.5959 2.52632,-3.41092 3.281119,-5.30572 0.75483,-1.89452 1.125105,-3.86994 0.976782,-5.78272 -0.148935,-1.91306 -0.812696,-3.76459 -2.134447,-5.41555 -1.321977,-1.65068 -3.303298,-3.10022 -6.068398,-4.20817 -3.931179,-0.70904 -6.028231,-1.56106 -6.863686,-2.51844 -0.417728,-0.47868 -0.520564,-0.98462 -0.378689,-1.51443 0.143132,-0.52981 0.527849,-1.08351 1.086324,-1.65686 2.234704,-2.29399 7.236185,-4.90681 10.42488,-7.60476 3.269901,-2.05858 6.459466,-3.86039 9.661959,-5.81587 -4.155646,-3.61402 -8.582662,-6.89881 -13.321766,-9.7167 -1.502053,-1.35797 -4.502838,-2.31731 -7.845788,-3.05079 -3.342917,-0.73348 -7.032221,-1.23913 -9.920081,-1.68972 -2.88786,-0.45088 -4.97086,-0.84585 -5.10796,-1.35544 -0.13765,-0.5093 1.6743,-1.1366 6.5839,-2.04649 2.760041,-0.76045 4.970019,-1.77513 6.693734,-2.96286 1.723715,-1.18744 2.9592,-2.54428 3.76403,-3.99972 0.804572,-1.45544 1.181552,-3.0064 1.184937,-4.57055 0,-1.56388 -0.367438,-3.14489 -1.047833,-4.6582 -0.680395,-1.51331 -1.672297,-2.95948 -2.919032,-4.26295 -1.246446,-1.30346 -2.74347,-2.46197 -4.438816,-3.39631 -1.695056,-0.93433 -3.58621,-1.6459 -5.61276,-2.05211 -2.02655,-0.40593 -4.19046,-0.5065 -6.43052,-0.22473 -4.48008,0.56325 -8.48485,1.40769 -11.97725,2.57322 -3.49266,1.16582 -6.47236,2.65356 -8.91045,4.51016 -2.43812,1.85659 -4.3343,4.08034 -5.65125,6.71565 -1.31724,2.63558 -2.05437,5.68243 -2.18387,9.18492 -0.0645,1.75125 -0.47475,3.19489 -1.15766,4.40566 -0.68294,1.21104 -1.64225,2.1892 -2.80359,3.00134 -2.32291,1.62455 -5.46273,2.59428 -8.86103,3.473 -3.39827,0.87871 -7.05302,1.665 -10.40831,2.92998 -1.67765,0.63263 -3.27777,1.38493 -4.73492,2.32629 -1.4574,0.94136 -2.77125,2.07571 -3.86825,3.46767 -0.0506,0.0646 -0.12347,0.11799 -0.17408,0.17978 z"
       id="path4417" />
    <path
       inkscape:connector-curvature="0"
       style="fill:#f2f2f2;fill-opacity:1;fill-rule:nonzero;stroke:#333333;stroke-width:5.61838055;stroke-linecap:round;stroke-linejoin:round;stroke-miterlimit:4;stroke-opacity:1;stroke-dasharray:none"
       d="m -248.12646,487.05477 c 2.06111,-1.20289 3.91658,-2.22459 5.13578,-2.66114 1.46134,-0.52307 2.38332,-0.5506 2.94628,-0.23037 0.56295,0.32025 0.76466,0.98856 0.76801,1.87093 0,0.88236 -0.18826,1.98047 -0.40593,3.14404 -0.43484,2.32685 -0.97223,4.93434 -0.25854,6.69908 0.35735,0.88264 1.02566,1.55067 2.17826,1.87092 1.1526,0.32053 2.78841,0.29271 5.07508,-0.23037 1.74312,-0.76213 2.99037,-1.65602 3.8736,-2.628 0.88349,-0.97226 1.40402,-2.02627 1.70096,-3.11651 0.59416,-2.1805 0.29142,-4.50089 0.17988,-6.60048 -0.0561,-1.04979 -0.0645,-2.04396 0.11509,-2.93532 0.17988,-0.89164 0.54245,-1.67989 1.229,-2.32095 0.68658,-0.64106 1.69818,-1.13379 3.16568,-1.43213 1.34928,-0.2753 3.20642,-0.33682 5.43749,-0.24719 1.07423,-2.06195 1.85488,-5.05149 2.52377,-8.35622 0.68542,-3.38479 1.27227,-7.03842 2.00827,-10.17236 0.73575,-3.13393 1.61811,-5.75125 2.88589,-7.06118 0.63404,-0.6551 1.36498,-0.9849 2.22207,-0.88883 0.85738,0.0955 1.84425,0.61887 2.98476,1.6622 1.14081,1.04362 2.27797,1.47174 3.36878,1.42117 1.09083,-0.0505 2.13164,-0.58066 3.08366,-1.44308 1.90408,-1.72456 3.44237,-4.79191 4.25761,-8.0708 0.40761,-1.63945 0.63459,-3.32777 0.63656,-4.93266 0.002,-1.60461 -0.22179,-3.12354 -0.71325,-4.41127 -0.49245,-1.28773 -1.25599,-2.34539 -2.3319,-3.03421 -1.07594,-0.68853 -2.46536,-1.01018 -4.2138,-0.81747 1.39506,-3.63706 3.46178,-6.83982 5.90915,-9.7771 2.44734,-2.93758 5.27675,-5.60799 8.20816,-8.16969 2.93138,-2.56199 5.96447,-5.01722 8.81158,-7.52779 2.78193,-2.45326 5.36302,-4.9658 7.5278,-7.67611 -0.21631,-2.55215 -0.40789,-5.11216 -0.40061,-7.67021 0,-2.66621 0.21631,-5.32651 0.79023,-7.96687 1.84986,0.80062 3.68763,0.88378 5.36582,0.44442 1.67852,-0.43908 3.19321,-1.4001 4.38937,-2.6884 1.19644,-1.28801 2.07629,-2.9061 2.47996,-4.65258 0.40396,-1.74647 0.33175,-3.62329 -0.36744,-5.43747 -0.55818,-1.44757 -1.37342,-2.226 -2.28809,-2.58417 -0.91466,-0.35845 -1.92345,-0.29552 -2.86397,-0.0505 -1.88103,0.49217 -3.48395,1.7063 -3.48395,1.7063 0.81972,-3.31906 1.91417,-6.03526 3.14936,-8.32869 1.23494,-2.2937 2.60666,-4.16097 3.98318,-5.79395 2.67742,-3.17635 5.30825,-5.44814 6.99573,-8.15873 -4.83349,3.01847 -9.63272,6.09088 -14.15045,9.51388 -5.69284,4.3138 -11.12862,8.91862 -16.28996,13.73329 -5.16102,4.81439 -10.04903,9.8375 -14.644,14.99518 -4.59501,5.15767 -8.89926,10.44766 -12.89363,15.79073 -3.99439,5.3428 -7.67976,10.7387 -11.03928,16.10874 -3.35952,5.37033 -6.39035,10.71566 -9.08044,15.95536 -2.69034,5.23998 -5.0419,10.37855 -7.02858,15.33003 -3.89046,9.79228 -7.03786,19.52022 -9.43159,29.11782 -0.736,2.95049 -0.91102,5.78412 -1.50347,8.70737 z"
       id="path4415" />
    <path
       inkscape:connector-curvature="0"
       style="fill:#ececec;fill-opacity:1;fill-rule:nonzero;stroke:#333333;stroke-width:5.61838055;stroke-linecap:round;stroke-linejoin:round;stroke-miterlimit:4;stroke-opacity:1;stroke-dasharray:none"
       d="m -226.31113,599.63643 c 1.39731,-5.60432 2.94911,-10.05606 4.6745,-13.71135 1.80012,-3.8132 3.76825,-6.91485 5.87626,-10.03501 -1.71668,-0.86299 -3.27522,-1.95659 -4.65818,-3.21539 -1.38268,-1.25879 -2.59347,-2.68025 -3.60478,-4.20284 -2.02233,-3.04488 -3.26175,-6.49064 -3.57187,-9.79929 -0.15441,-1.65405 -0.0757,-3.27299 0.25274,-4.79529 0.3295,-1.52201 0.9096,-2.94459 1.76108,-4.20284 0.85173,-1.25821 1.974,-2.35298 3.38534,-3.2151 1.41134,-0.86214 3.11033,-1.4928 5.11918,-1.8271 2.00859,-0.33429 3.71068,-0.21631 5.15206,0.20793 1.44112,0.42421 2.62268,1.15683 3.59914,2.05212 1.95324,1.79031 3.08057,4.23401 3.7913,6.18358 0.7107,1.94931 1.00454,3.40027 1.29502,3.20952 0.29046,-0.19117 0.57531,-2.02458 1.26721,-6.65524 0.69219,-4.63069 1.90157,-8.28686 3.43483,-11.1379 1.53296,-2.85134 3.39124,-4.89642 5.388,-6.29877 1.9965,-1.40263 4.13346,-2.16307 6.21617,-2.44708 1.51585,-0.20793 2.90752,0.0674 4.2961,0.30174 -0.32727,-0.10122 -0.59864,-0.10961 -0.92704,-0.21921 -2.98782,-0.99809 -6.02878,-2.30157 -9.05851,-4.11519 -3.02999,-1.81333 -6.05099,-4.14046 -9.00935,-7.17664 1.26611,-0.18537 2.36085,-0.61492 3.28647,-1.2234 0.92591,-0.60873 1.683,-1.39477 2.27713,-2.29341 1.18829,-1.79734 1.72374,-4.03849 1.63496,-6.19454 -0.0899,-2.15608 -0.80286,-4.22727 -2.10127,-5.67317 -0.64922,-0.72308 -1.44226,-1.28997 -2.38135,-1.63522 -0.93913,-0.34497 -2.02178,-0.46802 -3.24266,-0.30174 -1.51444,0.20502 -2.6603,0.6506 -3.54969,1.19615 -0.88968,0.54555 -1.52455,1.19419 -2.01923,1.81614 -0.98913,1.24361 -1.41611,2.37629 -2.20579,2.34821 -1.15431,-1.60798 -2.13947,-3.73089 -2.97915,-6.1232 -0.83965,-2.39203 -1.53607,-5.05346 -2.10128,-7.73061 -1.13068,-5.35432 -1.7535,-10.78252 -2.03019,-14.28193 0.029,-0.0477 0.0339,-0.15451 0.0619,-0.20225 -2.23106,-0.0899 -4.0882,-0.0281 -5.43745,0.24719 -1.46753,0.29832 -2.47913,0.79107 -3.16568,1.43213 -0.68658,0.64105 -1.05009,1.42931 -1.22904,2.32095 -0.17988,0.89135 -0.17117,1.88552 -0.11508,2.93532 0.1096,2.09959 0.41295,4.41998 -0.17988,6.60048 -0.29691,1.09024 -0.81747,2.14425 -1.70096,3.11651 -0.8832,0.97198 -2.13048,1.86586 -3.8736,2.628 -2.28667,0.52307 -3.92245,0.55088 -5.07508,0.23036 -1.1526,-0.32024 -1.82091,-0.98827 -2.17823,-1.87092 -0.71437,-1.76473 -0.17698,-4.37222 0.25854,-6.69907 0.21632,-1.16357 0.40929,-2.26168 0.40593,-3.14405 0,-0.88237 -0.20502,-1.55067 -0.76804,-1.87092 -0.56296,-0.32024 -1.48494,-0.29271 -2.94628,0.23037 -1.2192,0.43655 -3.07467,1.45825 -5.13574,2.66114 -1.33381,6.58559 -2.7946,13.20262 -3.3907,19.61489 -0.86076,9.2588 -0.94419,18.31197 -0.23597,27.08789 0.70847,8.77589 2.21307,17.2709 4.52672,25.41978 2.31337,8.1492 5.4383,15.95144 9.39307,23.3295 1.97739,3.68901 4.1621,7.27384 6.55666,10.7429 1.52088,2.20382 3.27467,4.27756 4.96554,6.3867 z"
       id="path4413" />
    <path
       inkscape:connector-curvature="0"
       style="fill:#e6e6e6;fill-opacity:1;fill-rule:nonzero;stroke:#333333;stroke-width:5.61838055;stroke-linecap:round;stroke-linejoin:round;stroke-miterlimit:4;stroke-opacity:1;stroke-dasharray:none"
       d="m -65.353528,619.29516 c -1.647023,-3.23003 -3.401363,-6.38278 -5.393354,-9.34365 -2.29905,-3.41794 -4.812991,-6.66005 -7.516841,-9.73891 -5.407668,-6.15802 -11.565427,-11.66149 -18.243138,-16.59192 0.04771,1.4428 -0.191166,2.85978 -0.669434,4.2138 -0.479817,1.35402 -1.203474,2.64314 -2.123197,3.82415 -1.839738,2.36223 -4.471958,4.29355 -7.549688,5.45937 -1.53916,0.58291 -3.19237,0.97817 -4.91077,1.13575 -1.71807,0.15731 -3.50052,0.0787 -5.31105,-0.27531 -1.8105,-0.3517 -3.64885,-0.97478 -5.4647,-1.92036 -1.81613,-0.94528 -3.60955,-2.21194 -5.34422,-3.83508 -1.73439,-1.62317 -3.06736,-3.47244 -4.0326,-5.45376 -0.96521,-1.98133 -1.56217,-4.0916 -1.83271,-6.23304 -0.26982,-2.14118 -0.21341,-4.31689 0.13766,-6.4193 0.35003,-2.10237 0.99109,-4.13175 1.88722,-5.99705 0.89641,-1.8653 2.04453,-3.56316 3.41287,-4.99278 1.36836,-1.42958 2.95781,-2.59005 4.72395,-3.38534 1.76614,-0.79529 3.70981,-1.22817 5.79957,-1.19055 2.08977,0.0364 4.32193,0.54442 6.66085,1.61305 1.45238,0.73374 2.45047,1.03829 3.07242,1.00402 0.62224,-0.0338 0.86889,-0.40931 0.82843,-1.03687 -0.0816,-1.25515 -1.31582,-3.52387 -3.03954,-6.10692 -3.44743,-5.16583 -8.84107,-11.591 -10.80331,-13.70014 -2.56281,-2.47348 -5.04671,-5.98974 -7.31932,-9.9802 -1.08072,-1.89818 -1.90521,-4.04581 -2.87493,-6.09596 -2.24203,1.6417 -4.32083,3.52667 -6.80357,4.76805 -4.34471,2.17236 -9.01161,3.70671 -13.83723,4.52644 -4.82592,0.81972 -9.81167,0.92536 -14.79236,0.23049 -4.84165,-1.11214 -10.31956,-1.96194 -15.94441,-3.72554 -1.38858,-0.23307 -2.78025,-0.50847 -4.2961,-0.30173 -2.08271,0.284 -4.21967,1.04444 -6.21617,2.44708 -1.99677,1.40234 -3.85504,3.44743 -5.38801,6.29876 -1.53326,2.85105 -2.74263,6.50721 -3.43482,11.13787 -0.69191,4.63066 -0.97675,6.46453 -1.26721,6.65524 -0.29045,0.19117 -0.58433,-1.26018 -1.29503,-3.20949 -0.71073,-1.94957 -1.83806,-4.39329 -3.7913,-6.18358 -0.97646,-0.89529 -2.15801,-1.62794 -3.59914,-2.05211 -1.44138,-0.42421 -3.14346,-0.54275 -5.15206,-0.20793 -2.00885,0.3343 -3.70784,0.96498 -5.11917,1.8271 -1.41134,0.86215 -2.53361,1.95688 -3.38535,3.21513 -0.85147,1.25824 -1.43158,2.6808 -1.76107,4.20284 -0.32953,1.5223 -0.40735,3.14121 -0.25274,4.79526 0.31012,3.30868 1.54954,6.75443 3.57186,9.79932 1.01131,1.52259 2.2221,2.94401 3.60478,4.20281 1.38297,1.25882 2.9415,2.35243 4.65819,3.21542 -2.10801,3.12016 -4.07615,6.22178 -5.87626,10.03497 -1.7254,3.65533 -3.27719,8.10704 -4.67451,13.71138 0.97086,1.21105 1.82037,2.49177 2.84741,3.67048 2.81622,3.2317 5.84396,6.335 9.08604,9.31106 3.24237,2.9758 6.69712,5.82401 10.36985,8.52618 3.67303,2.70218 7.56233,5.26022 11.67023,7.67048 4.10816,2.4103 8.43402,4.67002 12.98154,6.77072 5.95041,2.70301 12.55201,4.59136 19.52723,5.74451 6.97523,1.15319 14.32379,1.56924 21.77123,1.34422 7.44743,-0.22469 14.99658,-1.0928 22.36368,-2.5238 7.3671,-1.43126 14.55441,-3.42216 21.288341,-5.88749 6.73419,-2.46507 13.396717,-5.41302 19.779781,-8.86638 3.270738,-1.76978 6.17823,-4.06206 9.272277,-6.10128 z"
       id="path4411" />
    <path
       inkscape:connector-curvature="0"
       style="fill:#cccccc;fill-opacity:1;fill-rule:nonzero;stroke:#333333;stroke-width:5.61838055;stroke-linecap:round;stroke-linejoin:round;stroke-miterlimit:4;stroke-opacity:1;stroke-dasharray:none"
       d="m -24.065995,548.48923 c 0,-0.61099 0,-0.88572 0,-1.49787 -0.285298,-14.1743 -0.728719,-28.39107 -0.987453,-34.95559 -0.258541,-6.55244 -0.859311,-13.07622 -1.986383,-19.4997 -1.127039,-6.42378 -2.780251,-12.74642 -5.141099,-18.8963 -0.83797,2.14313 -1.945925,3.88118 -3.247979,5.25094 -1.302055,1.36948 -2.802173,2.36955 -4.422214,3.02859 -1.620363,0.65875 -3.359809,0.97703 -5.15206,0.98743 -1.792251,0 -3.635082,-0.28569 -5.453767,-0.8613 -1.818653,-0.5756 -3.612322,-1.43044 -5.311053,-2.52939 -1.698989,-1.09896 -3.301654,-2.44513 -4.735171,-4.00535 -1.433259,-1.56022 -2.697951,-3.33563 -3.719929,-5.29448 -1.021979,-1.95913 -1.801535,-4.10226 -2.266168,-6.39765 -0.464375,-2.29511 -0.567469,-4.46605 -0.373079,-6.50159 0.193744,-2.03554 0.686874,-3.9323 1.415561,-5.67344 0.728718,-1.74085 1.693089,-3.32861 2.831379,-4.74051 1.138,-1.41162 2.450757,-2.65019 3.873604,-3.69802 2.845435,-2.09565 6.135838,-3.4258 9.37118,-3.85701 1.617816,-0.21631 3.217934,-0.20787 4.746131,0.0449 1.527908,0.25284 2.982508,0.74753 4.29607,1.50348 -2.469551,-5.00401 -5.2234,-9.93835 -8.268544,-14.70442 -3.045176,-4.76607 -6.381936,-9.36275 -10.013375,-13.6948 -3.631148,-4.33206 -7.557556,-8.39667 -11.78538,-12.09834 -0.08414,-0.0731 -0.185363,-0.1236 -0.269824,-0.19665 -3.20246,1.95548 -6.392026,3.75729 -9.661926,5.81587 -3.188695,2.69794 -8.190209,5.31077 -10.424913,7.60476 -0.558442,0.57335 -0.944449,1.12704 -1.086292,1.65686 -0.143455,0.52981 -0.03933,1.03574 0.378657,1.51443 0.835455,0.95737 2.932507,1.8094 6.863718,2.51844 2.765068,1.10794 4.746389,2.55749 6.068398,4.20816 1.321719,1.65097 1.985802,3.50251 2.134415,5.41556 0.148935,1.91278 -0.221791,3.8882 -0.97675,5.78272 -0.754831,1.8948 -1.89283,3.70982 -3.281119,5.30572 -1.38803,1.59618 -3.027478,2.97212 -4.778723,3.98877 -1.751535,1.01692 -3.614579,1.67034 -5.459376,1.82709 -1.844797,0.15732 -3.67022,-0.18539 -5.338584,-1.16862 -1.668106,-0.98322 -3.178605,-2.60524 -4.400327,-5.00935 -1.08967,-1.97935 -1.80688,-4.27699 -2.35917,-6.49063 -0.55228,-2.21392 -0.94051,-4.3416 -1.36637,-5.9861 -0.42559,-1.6445 -0.89193,-2.80611 -1.60208,-3.07803 -0.71018,-0.2725 -1.66698,0.34496 -3.07242,2.2496 -1.40543,1.90463 -3.87022,3.70532 -6.75414,5.45376 -2.45437,1.48775 -5.21441,2.92914 -7.86797,4.3784 0.99725,0.96159 2.2673,1.64534 3.14376,2.70497 2.69347,3.25501 4.77901,6.94994 6.00802,10.94039 1.70153,4.70539 3.21232,9.6962 4.31267,14.80303 1.10035,5.10711 1.78777,10.32743 1.85434,15.48903 0.0674,5.16161 -0.48739,10.26281 -1.88748,15.13226 -0.69977,2.43501 -1.61192,4.81413 -2.75975,7.11092 -1.14757,2.29679 -2.53109,4.51241 -4.18092,6.628 -2.40469,4.39246 -5.46025,8.31213 -8.99813,11.67555 -1.5164,1.44167 -3.42103,2.34595 -5.10261,3.57725 0.96972,2.05014 1.79422,4.19774 2.87493,6.09593 2.27262,3.99046 4.75651,7.50671 7.31933,9.9802 1.96223,2.10914 7.35588,8.53434 10.80331,13.70013 1.72371,2.58306 2.95894,4.85177 3.03956,6.10692 0.0393,0.62756 -0.20502,1.00286 -0.82846,1.03687 -0.62195,0.0335 -1.62004,-0.26982 -3.07238,-1.00402 -2.33896,-1.06859 -4.57112,-1.57568 -6.66088,-1.61304 -2.08977,-0.0364 -4.03344,0.39525 -5.79958,1.19054 -1.76614,0.79529 -3.35558,1.95576 -4.72392,3.38538 -1.36836,1.42958 -2.51648,3.12744 -3.4129,4.99274 -0.89613,1.86533 -1.53719,3.89469 -1.88722,5.99706 -0.35,2.1024 -0.4079,4.27814 -0.13765,6.4193 0.26982,2.14144 0.8675,4.25171 1.83274,6.23303 0.96524,1.98132 2.29818,3.8306 4.03259,5.45377 1.73465,1.62313 3.52806,2.88979 5.3442,3.83511 1.81584,0.94554 3.65419,1.56862 5.46472,1.92036 1.8105,0.35196 3.59295,0.43204 5.31106,0.2753 1.71836,-0.15731 3.37157,-0.55283 4.91073,-1.13574 3.07774,-1.16582 5.70996,-3.09714 7.549691,-5.45938 0.919723,-1.18097 1.64338,-2.47013 2.123196,-3.82415 0.479817,-1.35402 0.71663,-2.771 0.669435,-4.2138 6.677711,4.93043 12.83547,10.43391 18.243138,16.59193 2.70385,3.07889 5.217791,6.32097 7.516841,9.7389 1.991991,2.96088 3.746331,6.11363 5.393354,9.34365 2.944339,-1.94031 6.089224,-3.61457 8.822828,-5.80492 5.606603,-4.49246 10.715949,-9.51696 15.121303,-15.09938 2.202692,-2.79121 4.229242,-5.72205 6.05186,-8.79501 1.822586,-3.07325 3.444335,-6.28977 4.833752,-9.65126 1.516978,-5.00093 2.565359,-9.08098 3.505875,-13.79339 0.940806,-4.7127 1.774295,-10.05664 2.858653,-17.57402 l 0.09284,-0.087 z"
       id="path4409" />
    <path
       inkscape:connector-curvature="0"
       style="fill:#ffffff;fill-opacity:1;fill-rule:nonzero;stroke:#333333;stroke-width:5.61838055;stroke-linecap:round;stroke-linejoin:round;stroke-miterlimit:4;stroke-opacity:1;stroke-dasharray:none"
       d="m 39.03122,352.88842 c -5.314438,0.21631 -11.822775,1.15149 -17.672897,2.36478 -6.000442,1.24447 -11.260077,2.73474 -13.6892032,3.89016 2.4249032,-0.66465 4.8461302,-0.91411 7.2204862,-0.80652 2.374322,0.10674 4.701741,0.57167 6.929707,1.33886 2.227967,0.76691 4.357321,1.83468 6.342575,3.1491 1.985254,1.31471 3.823603,2.87577 5.470336,4.62534 1.646475,1.74984 3.100495,3.68874 4.312382,5.76108 1.212177,2.07234 2.182738,4.27924 2.864262,6.56227 0.681233,2.28275 1.075621,4.64191 1.130134,7.02298 0.05351,2.38079 -0.230495,4.78208 -0.899769,7.14911 -0.288843,2.41815 -0.900638,4.6051 -1.783288,6.55665 -0.882361,1.95154 -2.035544,3.66824 -3.407263,5.15177 -1.37146,1.48381 -2.956943,2.73278 -4.712991,3.74746 -1.756017,1.01468 -3.681149,1.7931 -5.717241,2.33753 -2.035833,0.54414 -4.18598,0.85455 -6.397377,0.92703 -2.211397,0.0731 -4.482916,-0.0927 -6.765105,-0.49358 -2.2821896,-0.40031 -4.5716646,-1.03518 -6.8198762,-1.9094 -2.2484694,-0.87422 -4.45760973,-1.98638 -6.5675889,-3.33592 -2.1102692,-1.34953 -3.7331466,-3.03027 -5.0040277,-4.9217 -1.2708488,-1.89142 -2.1847046,-3.98989 -2.8748997,-6.17263 -1.3804545,-4.3652 -1.8594005,-9.06385 -2.4690035,-13.09111 -0.30464,-2.01363 -0.641356,-3.86207 -1.141384,-5.41527 -0.499739,-1.55349 -1.164112,-2.81172 -2.117845,-3.6542 -0.953443,-0.84247 -2.196504,-1.26582 -3.862643,-1.14671 -1.66585,0.11799 -3.755036,0.78152 -6.392026,2.11223 -10.547381,5.32341 -19.90254,10.34625 -28.859926,15.45055 -5.687775,3.24124 -11.240123,6.71031 -16.811329,10.11196 0.08414,0.073 0.185363,0.12359 0.269824,0.19664 4.227824,3.70167 8.154232,7.76629 11.785381,12.09834 3.631438,4.33205 6.968198,8.92873 10.013374,13.6948 3.045144,4.76607 5.798993,9.70041 8.268577,14.70443 -1.313595,-0.75596 -2.768195,-1.25066 -4.296102,-1.50348 -1.528198,-0.25284 -3.128316,-0.25845 -4.746132,-0.0449 -3.235342,0.43121 -6.525745,1.76136 -9.37118,3.85702 -1.422847,1.04783 -2.735604,2.2864 -3.873604,3.69801 -1.138257,1.4119 -2.102661,2.99966 -2.831379,4.74051 -0.728686,1.74114 -1.220849,3.63791 -1.415529,5.67344 -0.193745,2.03554 -0.09284,4.20649 0.373047,6.50159 0.464633,2.29539 1.244189,4.43853 2.266168,6.39765 1.021979,1.95885 2.286702,3.73426 3.719929,5.29448 1.433549,1.56023 3.036182,2.90639 4.735171,4.00535 1.698731,1.09895 3.4924,1.95379 5.311053,2.52939 1.818685,0.5756 3.661516,0.87197 5.453767,0.8613 1.792283,0 3.53173,-0.32868 5.15206,-0.98743 1.620073,-0.65904 3.120159,-1.65911 4.422214,-3.02859 1.302086,-1.36976 2.410009,-3.10781 3.248011,-5.25094 2.360816,6.14988 4.014028,12.47253 5.1411,18.8963 1.127039,6.42348 1.727905,12.94725 1.98635,19.49969 0.258541,6.56453 0.702026,20.78129 0.987453,34.9556 0,0.61215 0,0.88687 0,1.49786 l 10.315048,-9.87037 c 10.1425811,-8.41581 20.8790326,-16.05061 31.663807,-23.6259 10.784453,-7.57525 21.616713,-15.09122 31.954521,-23.26906 17.004042,-12.17868 34.578874,-23.55281 51.234852,-36.21776 -0.86018,-7.27805 -2.022906,-14.5693 -3.604746,-21.74931 -1.582129,-7.17973 -3.582277,-14.24793 -6.106889,-21.06893 -2.524644,-6.82071 -5.579072,-13.39197 -9.266958,-19.59297 -3.687918,-6.20073 -8.008746,-12.02895 -13.080439,-17.34872 -3.290983,-3.60897 -6.820714,-6.97072 -10.792351,-10.21084 -3.971346,-3.24012 -8.384597,-6.35748 -13.458837,-9.48664 -1.679615,-1.03575 -3.929503,-2.11785 -5.760793,-3.16034 z"
       id="path4407" />
    <path
       inkscape:connector-curvature="0"
       style="fill:#f9f9f9;fill-opacity:1;fill-rule:nonzero;stroke:#333333;stroke-width:5.61838055;stroke-linecap:round;stroke-linejoin:round;stroke-miterlimit:4;stroke-opacity:1;stroke-dasharray:none"
       d="m -57.479919,324.676 c -5.84116,-0.0477 -11.784543,0.13766 -17.77151,0.55959 -5.986935,0.42166 -12.022194,1.0807 -18.056614,1.98076 -6.034421,0.90007 -12.068007,2.03639 -18.051297,3.42357 -5.98329,1.38717 -11.91575,3.02212 -17.74959,4.90512 -6.65356,2.83841 -13.08408,6.12797 -19.27469,9.78272 -1.27791,0.75455 -2.42406,1.68945 -3.68144,2.47462 -1.68748,2.71059 -4.31831,4.98238 -6.99573,8.15873 -1.37652,1.63298 -2.74824,3.50025 -3.98317,5.79396 -1.2352,2.29342 -2.32964,5.00962 -3.14937,8.32868 0,0 1.60292,-1.21413 3.48396,-1.7063 0.94051,-0.24722 1.94931,-0.30902 2.86397,0.0505 0.91466,0.35817 1.7299,1.1366 2.28809,2.58417 0.69919,1.81418 0.7714,3.691 0.36743,5.43747 -0.40367,1.74647 -1.28351,3.36457 -2.47996,4.65258 -1.19616,1.2883 -2.71085,2.24932 -4.38936,2.6884 -1.6782,0.43935 -3.51597,0.3562 -5.36583,-0.44441 -0.57333,2.64035 -0.78236,5.30066 -0.79022,7.96686 0,2.55804 0.18246,5.11806 0.40061,7.67021 0.0506,-0.0646 0.12636,-0.11799 0.17408,-0.17978 1.09699,-1.39196 2.41084,-2.52631 3.86825,-3.46767 1.45714,-0.94136 3.05726,-1.69366 4.73491,-2.32629 3.3553,-1.26498 7.01004,-2.05127 10.40831,-2.92999 3.3983,-0.87871 6.53812,-1.84844 8.86103,-3.473 1.16134,-0.81213 2.12068,-1.79029 2.80359,-3.00134 0.68291,-1.21075 1.09306,-2.6544 1.15767,-4.40565 0.12927,-3.5025 0.86662,-6.54935 2.18386,-9.18493 1.31695,-2.6353 3.21313,-4.85905 5.65125,-6.71565 2.43809,-1.85659 5.41779,-3.34434 8.91045,-4.51015 3.4924,-1.16553 7.49718,-2.00998 11.97729,-2.57322 2.24002,-0.28149 4.40397,-0.17979 6.43052,0.22473 2.02655,0.4062 3.917668,1.11777 5.612756,2.05211 1.695346,0.93433 3.192338,2.09284 4.438783,3.39631 1.246736,1.30346 2.238637,2.74963 2.919033,4.26294 0.680395,1.51331 1.051475,3.09433 1.047832,4.6582 0,1.56416 -0.380364,3.11511 -1.184904,4.57055 -0.80483,1.45545 -2.040315,2.81229 -3.764062,3.99973 -1.723715,1.18772 -3.933694,2.2024 -6.693728,2.96285 -4.90961,0.9099 -6.72098,1.53719 -6.58391,2.0465 0.13766,0.50959 2.22011,0.90456 5.10796,1.35543 2.887863,0.4506 6.577168,0.95625 9.920085,1.68973 3.342949,0.73348 6.343735,1.69282 7.845788,3.05078 4.739103,2.8179 9.16612,6.10269 13.321765,9.71671 5.571174,-3.40165 11.123554,-6.87072 16.811298,-10.11196 8.957385,-5.1043 18.312544,-10.12713 28.859957,-15.45055 2.636958,-1.33071 4.726177,-1.9934 6.392026,-2.11223 1.666107,-0.11798 2.9092,0.30422 3.862611,1.14671 0.953733,0.84248 1.618106,2.10071 2.117877,3.6542 0.500029,1.5532 0.836551,3.40165 1.141352,5.41527 0.609603,4.02726 1.088581,8.72591 2.4690036,13.09111 0.6902274,2.18274 1.6040509,4.28121 2.874932,6.17263 1.270881,1.89143 2.8937262,3.57217 5.0039954,4.9217 2.10997917,1.34954 4.3191517,2.4617 6.5676212,3.33592 2.2481793,0.87422 4.5376866,1.50909 6.8198758,1.9094 2.28219,0.40003 4.553676,0.56634 6.765073,0.49358 2.211397,-0.073 4.361544,-0.38289 6.397378,-0.92704 2.036091,-0.54441 3.961223,-1.32284 5.717272,-2.33752 1.756016,-1.01468 3.341531,-2.26365 4.712959,-3.74746 1.371751,-1.48353 2.524902,-3.20023 3.407263,-5.15177 0.88265,-1.95155 1.494509,-4.1385 1.783289,-6.55665 0.668306,-2.36703 0.954281,-4.76832 0.899768,-7.14911 -0.05351,-2.38107 -0.448901,-4.74023 -1.130134,-7.02298 -0.681492,-2.28303 -1.652084,-4.48993 -2.86423,-6.56227 -1.211887,-2.07234 -2.665939,-4.01124 -4.312382,-5.76108 -1.646765,-1.74956 -3.485082,-3.31063 -5.470336,-4.62533 -1.985254,-1.31443 -4.11464,-2.3822 -6.342607,-3.14911 -2.227966,-0.76719 -4.555384,-1.23154 -6.929707,-1.33886 -2.374323,-0.10673 -4.795583,0.14327 -7.2204539,0.80652 2.4290939,-1.15542 7.6887609,-2.64569 13.6891719,-3.89016 5.850153,-1.21329 12.358458,-2.14735 17.672896,-2.36478 -3.700813,-2.10633 -7.228899,-4.19019 -11.642957,-6.3808 -6.598504,-3.27523 -14.065055,-6.6912 -22.6106127,-10.37012 -4.27279481,-1.83918 -8.8439112,-3.46205 -13.6563219,-4.86664 -4.8127004,-1.40459 -9.8675664,-2.58867 -15.1213024,-3.54969 -5.254026,-0.96131 -10.70444,-1.69675 -16.301178,-2.20578 -5.596738,-0.50902 -11.337608,-0.79135 -17.178767,-0.83939 z"
       id="path4405" />
  </g>
</svg>
