<?xml version="1.0" encoding="UTF-8" standalone="no"?>
<!-- Created with Inkscape (http://www.inkscape.org/) -->

<svg
   xmlns:dc="http://purl.org/dc/elements/1.1/"
   xmlns:cc="http://creativecommons.org/ns#"
   xmlns:rdf="http://www.w3.org/1999/02/22-rdf-syntax-ns#"
   xmlns:svg="http://www.w3.org/2000/svg"
   xmlns="http://www.w3.org/2000/svg"
   xmlns:sodipodi="http://sodipodi.sourceforge.net/DTD/sodipodi-0.dtd"
   xmlns:inkscape="http://www.inkscape.org/namespaces/inkscape"
   width="150.78732mm"
   height="116.1143mm"
   viewBox="0 0 534.28579 411.42861"
   id="svg2"
   version="1.1"
   inkscape:version="0.91 r13725"
   sodipodi:docname="vermi_1.svg">
  <defs
     id="defs4" />
  <sodipodi:namedview
     id="base"
     pagecolor="#ffffff"
     bordercolor="#666666"
     borderopacity="1.0"
     inkscape:pageopacity="0.0"
     inkscape:pageshadow="2"
     inkscape:zoom="0.7"
     inkscape:cx="139.80394"
     inkscape:cy="262.62355"
     inkscape:document-units="px"
     inkscape:current-layer="layer1"
     showgrid="false"
     fit-margin-top="0"
     fit-margin-left="0"
     fit-margin-right="0"
     fit-margin-bottom="0"
     inkscape:window-width="1855"
     inkscape:window-height="1056"
     inkscape:window-x="65"
     inkscape:window-y="24"
     inkscape:window-maximized="1" />
  <metadata
     id="metadata7">
    <rdf:RDF>
      <cc:Work
         rdf:about="">
        <dc:format>image/svg+xml</dc:format>
        <dc:type
           rdf:resource="http://purl.org/dc/dcmitype/StillImage" />
        <dc:title></dc:title>
      </cc:Work>
    </rdf:RDF>
  </metadata>
  <g
     inkscape:label="Layer 1"
     inkscape:groupmode="layer"
     id="layer1"
     transform="translate(1065.7144,-396.64792)">
    <rect
       style="opacity:1;fill:#ffffff;fill-opacity:1;fill-rule:nonzero;stroke:none;stroke-width:5;stroke-linecap:round;stroke-linejoin:round;stroke-miterlimit:4;stroke-dasharray:none;stroke-opacity:1"
       id="rect4136"
       width="534.28577"
       height="411.42862"
       x="-1065.7144"
       y="396.64792" />
    <g
       id="g4195"
       transform="matrix(0.93497709,0.35470813,-0.35470813,0.93497709,203.27614,342.75181)">
      <path
         inkscape:connector-curvature="0"
         id="path4170"
         d="m -959.10715,621.38006 11.33929,-18.125 14.375,-22.05357 6.69643,-9.19643 0.98214,4.28571 4.28572,3.66072 5.71428,2.67857 3.57143,0.35714 5.71429,-0.625 5,-1.60714 5.44642,-3.21429 6.875,-6.16071 -5.625,17.58929 -10.35714,18.125 -8.03571,11.78571 -3.21429,0.53572 -7.05357,-0.26786 -9.28571,-1.42857 -9.28572,-1.07143 -4.73214,0.17857 -4.375,1.51786 -6.51786,3.21428 z"
         style="fill:#ff6600;fill-rule:evenodd;stroke:none;stroke-width:1px;stroke-linecap:butt;stroke-linejoin:miter;stroke-opacity:1" />
      <path
         sodipodi:nodetypes="ccsccsssssccssssc"
         inkscape:connector-curvature="0"
         id="path4138"
         d="m -1014.1932,535.1641 c -11.5334,-29.27234 20.48933,-58.27028 43.4366,-63.63961 23.23351,-5.05076 46.46702,3.03046 65.65992,18.18275 19.1929,15.15229 28.28427,69.70052 6.06091,108.08632 -45.45513,64.21201 -47.45725,142.17495 48.48732,139.40105 21.21321,-1.01015 37.37565,-11.11168 42.42641,-33.33503 5.05077,-22.22336 -2.0203,-39.39595 9.09138,-49.49748 11.11167,-10.10152 30.30457,-7.07107 33.33503,9.09137 3.03046,16.16245 -7.86939,54.38019 -15.15229,66.67007 -8.08122,13.63707 -35.35534,41.41626 -62.62946,44.44671 -27.27411,3.03046 -68.69037,-5.05076 -81.82235,-14.14213 -56.69133,-37.97385 -54.66113,-102.13877 -32.32489,-141.42136 25.25382,-43.43656 44.44672,-55.55839 34.34519,-80.8122 -10.10152,-25.25381 -19.19289,-41.41626 -41.41625,-31.31473 -22.22336,10.10153 -4.04061,33.33503 -10.10153,38.3858 -6.06091,5.05076 -25.25379,7.07106 -30.30459,5.05076 -5.0507,-2.02031 -9.0914,-15.15229 -9.0914,-15.15229 z"
         style="fill:none;fill-rule:evenodd;stroke:#000000;stroke-width:3;stroke-linecap:butt;stroke-linejoin:miter;stroke-miterlimit:4;stroke-dasharray:none;stroke-opacity:1" />
      <path
         inkscape:connector-curvature="0"
         id="path4140"
         d="m -1005.7143,494.50506 c 0,0 10.00001,-3.92857 15.7143,-2.14286 5.71428,1.78572 15,8.21429 16.42857,11.42858 1.42857,3.21428 1.78571,6.42857 1.78571,6.42857"
         style="fill:none;fill-rule:evenodd;stroke:#000000;stroke-width:1px;stroke-linecap:butt;stroke-linejoin:miter;stroke-opacity:1" />
      <path
         inkscape:connector-curvature="0"
         id="path4142"
         d="m -963.21429,470.93363 c 0,0 10.71429,3.92857 13.92857,9.28572 3.21429,5.35714 5,8.92857 3.92858,14.28571 -1.07143,5.35714 -5.71429,8.21429 -5.71429,8.21429"
         style="fill:none;fill-rule:evenodd;stroke:#000000;stroke-width:1px;stroke-linecap:butt;stroke-linejoin:miter;stroke-opacity:1" />
      <path
         sodipodi:nodetypes="ccc"
         inkscape:connector-curvature="0"
         id="path4144"
         d="m -917.85714,480.57649 c 0,0 5.35714,1.07143 1.42857,11.78571 -5.33999,15.89478 -9.51238,14.64371 -22.5,17.85715"
         style="fill:none;fill-rule:evenodd;stroke:#000000;stroke-width:1px;stroke-linecap:butt;stroke-linejoin:miter;stroke-opacity:1" />
      <path
         sodipodi:nodetypes="csc"
         inkscape:connector-curvature="0"
         id="path4146"
         d="m -888.21429,521.64792 c 0,0 3.92857,6.07143 -4.64285,11.42857 -8.57143,5.35714 -27.85715,7.5 -30,6.42857"
         style="fill:none;fill-rule:evenodd;stroke:#000000;stroke-width:1px;stroke-linecap:butt;stroke-linejoin:miter;stroke-opacity:1" />
      <path
         sodipodi:nodetypes="cssc"
         inkscape:connector-curvature="0"
         id="path4148"
         d="m -888.21429,570.21935 c 0,0 -10.35714,12.85714 -22.49999,12.85714 -10.00638,0 -17.14286,-7.85714 -16.07144,-11.07143 l 1.07143,-3.21428"
         style="fill:none;fill-rule:evenodd;stroke:#000000;stroke-width:1px;stroke-linecap:butt;stroke-linejoin:miter;stroke-opacity:1" />
      <path
         sodipodi:nodetypes="ccc"
         inkscape:connector-curvature="0"
         id="path4150"
         d="m -912.3595,618.97153 c -10.16645,2.37461 -28.07553,-4.1905 -35.71429,-1.78572 -6.07142,2.14286 -10.71428,5.35715 -10.71428,5.35715"
         style="fill:none;fill-rule:evenodd;stroke:#000000;stroke-width:1px;stroke-linecap:butt;stroke-linejoin:miter;stroke-opacity:1" />
      <path
         sodipodi:nodetypes="ccc"
         inkscape:connector-curvature="0"
         id="path4152"
         d="m -925,649.50506 c -8.47854,8.31191 -24.47195,-0.75991 -34.64286,5 -8.57143,5 -12.85714,7.85714 -12.85714,7.85714"
         style="fill:none;fill-rule:evenodd;stroke:#000000;stroke-width:1px;stroke-linecap:butt;stroke-linejoin:miter;stroke-opacity:1" />
      <path
         sodipodi:nodetypes="ccc"
         inkscape:connector-curvature="0"
         id="path4154"
         d="m -929.64286,688.07649 c -5.81616,0.79117 -23.57184,7.87764 -26.07143,15 -3.57143,11.07143 -1.78571,22.85714 -1.78571,22.85714"
         style="fill:none;fill-rule:evenodd;stroke:#000000;stroke-width:1px;stroke-linecap:butt;stroke-linejoin:miter;stroke-opacity:1" />
      <path
         sodipodi:nodetypes="ccc"
         inkscape:connector-curvature="0"
         id="path4156"
         d="m -915.35715,718.07649 c -7.34428,7.37718 -8.89687,13.71817 -16.07142,17.14286 -6.78572,3.21428 -16.78572,3.92857 -16.78572,3.92857"
         style="fill:none;fill-rule:evenodd;stroke:#000000;stroke-width:1px;stroke-linecap:butt;stroke-linejoin:miter;stroke-opacity:1" />
      <path
         inkscape:connector-curvature="0"
         id="path4158"
         d="m -898.21429,730.21935 c 0,0 2.14286,3.92857 2.14286,12.14285 0,8.21429 -6.07143,13.21429 -9.28571,15.71429 -3.21429,2.5 -13.57143,5 -13.57143,5"
         style="fill:none;fill-rule:evenodd;stroke:#000000;stroke-width:1px;stroke-linecap:butt;stroke-linejoin:miter;stroke-opacity:1" />
      <path
         sodipodi:nodetypes="ccc"
         inkscape:connector-curvature="0"
         id="path4162"
         d="m -843.21429,737.3622 c 0,0 0.71429,-1.07142 3.21429,6.42858 4.53291,14.61248 2.93624,16.41827 -2.5,29.28571"
         style="fill:none;fill-rule:evenodd;stroke:#000000;stroke-width:1px;stroke-linecap:butt;stroke-linejoin:miter;stroke-opacity:1" />
      <path
         sodipodi:nodetypes="ccccc"
         inkscape:connector-curvature="0"
         id="path4164"
         d="m -818.92858,724.86221 c 1.41209,9.50068 9.97814,15.30363 14.28572,23.21428 1.07143,2.14286 -0.35714,6.42857 -0.35714,6.42857 l 0,0 0.17857,2.5"
         style="fill:none;fill-rule:evenodd;stroke:#000000;stroke-width:1px;stroke-linecap:butt;stroke-linejoin:miter;stroke-opacity:1" />
      <path
         sodipodi:nodetypes="ccc"
         inkscape:connector-curvature="0"
         id="path4166"
         d="m -808.57143,704.8622 c 0,0 1.78571,4.64286 6.78571,6.42858 15.97717,5.64663 24.85314,0.6508 32.85715,-11.42858"
         style="fill:none;fill-rule:evenodd;stroke:#000000;stroke-width:1px;stroke-linecap:butt;stroke-linejoin:miter;stroke-opacity:1" />
      <path
         sodipodi:nodetypes="ccc"
         inkscape:connector-curvature="0"
         id="path4160"
         d="m -875.00001,735.93364 c 5.0888,6.31554 8.31448,17.54529 5.00001,25.71428 -1.42857,3.21428 -7.14286,11.78571 -7.14286,11.78571"
         style="fill:none;fill-rule:evenodd;stroke:#000000;stroke-width:1px;stroke-linecap:butt;stroke-linejoin:miter;stroke-opacity:1" />
      <path
         d="m -985.37514,518.27484 a 5.4546323,5.4546323 0 0 1 -4.21519,5.31195 5.4546323,5.4546323 0 0 1 -6.1308,-2.8979 5.4546323,5.4546323 0 0 1 1.429,-6.62892 5.4546323,5.4546323 0 0 1 6.78022,-0.11465 l -3.31786,4.32952 z"
         sodipodi:end="5.3662629"
         sodipodi:start="0"
         sodipodi:ry="5.4546323"
         sodipodi:rx="5.4546323"
         sodipodi:cy="518.27484"
         sodipodi:cx="-990.82977"
         sodipodi:type="arc"
         id="path4168"
         style="opacity:1;fill:#000000;fill-opacity:1;fill-rule:nonzero;stroke:none;stroke-width:3;stroke-linecap:round;stroke-linejoin:round;stroke-miterlimit:4;stroke-dasharray:none;stroke-opacity:1" />
      <path
         transform="matrix(0.83948931,0.54337621,-0.54337621,0.83948931,0,0)"
         sodipodi:open="true"
         d="m -432.70713,1003.1856 a 13.419518,15.913617 0 0 1 -13.09163,15.9089 13.419518,15.913617 0 0 1 -13.73138,-15.1315 13.419518,15.913617 0 0 1 12.42061,-16.64827 13.419518,15.913617 0 0 1 14.33835,14.31787"
         sodipodi:end="6.1854411"
         sodipodi:start="0"
         sodipodi:ry="15.913617"
         sodipodi:rx="13.419518"
         sodipodi:cy="1003.1856"
         sodipodi:cx="-446.12665"
         sodipodi:type="arc"
         id="path4174"
         style="opacity:1;fill:#ffffff;fill-opacity:1;fill-rule:nonzero;stroke:none;stroke-width:3;stroke-linecap:round;stroke-linejoin:round;stroke-miterlimit:4;stroke-dasharray:none;stroke-opacity:1" />
      <path
         transform="matrix(0.83948931,0.54337621,-0.54337621,0.83948931,0,0)"
         sodipodi:open="true"
         d="m -433.75262,1003.0861 a 12.278353,14.560358 0 0 1 -11.97835,14.556 12.278353,14.560358 0 0 1 -12.5637,-13.8447 12.278353,14.560358 0 0 1 11.3644,-15.23253 12.278353,14.560358 0 0 1 13.11904,13.10033"
         sodipodi:end="6.1854411"
         sodipodi:start="0"
         sodipodi:ry="14.560358"
         sodipodi:rx="12.278353"
         sodipodi:cy="1003.0861"
         sodipodi:cx="-446.03098"
         sodipodi:type="arc"
         id="path4174-3"
         style="opacity:1;fill:#ffffff;fill-opacity:1;fill-rule:nonzero;stroke:#000000;stroke-width:0.5;stroke-linecap:round;stroke-linejoin:round;stroke-miterlimit:4;stroke-dasharray:1, 1;stroke-dashoffset:0;stroke-opacity:1" />
      <text
         transform="matrix(0.97384948,0.22719417,-0.22719417,0.97384948,0,0)"
         sodipodi:linespacing="125%"
         id="text4191"
         y="802.55243"
         x="-769.98792"
         style="font-style:normal;font-variant:normal;font-weight:600;font-stretch:normal;font-size:27.3573513px;line-height:125%;font-family:a_AlternaBrk;-inkscape-font-specification:'a_AlternaBrk Semi-Bold';letter-spacing:0px;word-spacing:0px;fill:#ff6600;fill-opacity:1;stroke:none;stroke-width:1px;stroke-linecap:butt;stroke-linejoin:miter;stroke-opacity:1"
         xml:space="preserve"><tspan
           y="802.55243"
           x="-769.98792"
           id="tspan4193"
           sodipodi:role="line">Ф</tspan></text>
    </g>
    <path
       style="fill:none;fill-rule:evenodd;stroke:#000000;stroke-width:3;stroke-linecap:butt;stroke-linejoin:miter;stroke-miterlimit:4;stroke-dasharray:none;stroke-opacity:1"
       d="m -795.25257,519.56259 30.30458,23.23351 c 0,0 -16.16245,14.14214 -9.09138,37.37565 7.07107,23.23351 33.33504,32.32488 72.73099,33.33503 39.39595,1.01015 73.3122,-4.39775 81.57725,-35.6512 8.36456,-31.62977 -17.45245,-49.03189 -34.24366,-54.12982 -16.79122,-5.09793 -75.45337,-8.80195 -98.85137,6.94851 z"
       id="path4218"
       inkscape:connector-curvature="0"
       sodipodi:nodetypes="ccssszcc" />
    <text
       xml:space="preserve"
       style="font-style:normal;font-weight:normal;font-size:27.96824455px;line-height:125%;font-family:sans-serif;letter-spacing:0px;word-spacing:0px;fill:#000000;fill-opacity:1;stroke:none;stroke-width:1px;stroke-linecap:butt;stroke-linejoin:miter;stroke-opacity:1"
       x="-763.0105"
       y="576.08472"
       id="text4220"
       sodipodi:linespacing="125%"><tspan
         sodipodi:role="line"
         x="-763.0105"
         y="576.08472"
         style="font-style:oblique;font-variant:normal;font-weight:normal;font-stretch:normal;font-family:Purisa;-inkscape-font-specification:'Purisa Oblique'"
         id="tspan4224">OM-HOM!</tspan></text>
  </g>
</svg>
